# Blender 5.0.1
# www.blender.org
mtllib ArtStudio.mtl
o Door
v 0.300000 2.158820 2.401168
v 0.300000 2.158820 1.547481
v 0.300000 0.000000 2.401168
v 0.300000 0.000000 1.547481
v 0.300000 1.079410 2.401168
v 0.300000 1.079410 1.547481
v 0.300000 1.582955 2.401168
v 0.300000 1.582955 1.547481
v 0.301000 0.555896 2.401168
v 0.301000 0.555896 1.547481
v 0.300000 1.019410 1.663440
v 0.301000 0.615896 1.663440
v 0.301000 0.615896 2.283383
v 0.300000 1.019410 2.283383
v 0.300000 2.028820 1.663440
v 0.300000 1.642954 1.663440
v 0.300000 1.642954 2.283383
v 0.300000 2.028820 2.283383
v 0.300000 1.522955 1.663440
v 0.300000 1.139410 1.663440
v 0.300000 1.139410 2.283383
v 0.300000 1.522955 2.283383
v 0.301000 0.495896 1.663440
v 0.300000 0.130000 1.663440
v 0.303000 0.130000 2.283383
v 0.301000 0.495896 2.283383
v 0.300000 0.969410 1.713440
v 0.300000 0.665896 1.713440
v 0.300000 0.665896 2.233383
v 0.300000 0.969410 2.233383
v 0.300000 1.978820 1.713440
v 0.300000 1.692954 1.713440
v 0.300000 1.692954 2.233383
v 0.300000 1.978820 2.233383
v 0.300000 1.472955 1.713440
v 0.300000 1.189410 1.713440
v 0.300000 1.189410 2.233383
v 0.300000 1.472955 2.233383
v 0.303000 0.445896 1.713440
v 0.303000 0.180000 1.713440
v 0.303000 0.180000 2.233383
v 0.300000 0.445896 2.233383
v 0.316000 2.028820 1.663440
v 0.316000 2.028820 2.283383
v 0.316000 0.130000 2.283383
v 0.316000 0.130000 1.663440
v 0.316000 0.615896 1.663440
v 0.316000 1.019410 1.663440
v 0.316000 1.019410 2.283383
v 0.316000 0.615896 2.283383
v 0.316000 1.642954 1.663440
v 0.316000 1.642954 2.283383
v 0.316000 1.139410 1.663440
v 0.316000 1.522955 1.663440
v 0.316000 1.522955 2.283383
v 0.316000 1.139410 2.283383
v 0.316000 0.495896 1.663440
v 0.316000 0.495896 2.283383
v 0.316000 0.665896 1.713440
v 0.316000 0.969410 1.713440
v 0.316000 0.969410 2.233383
v 0.316000 0.665896 2.233383
v 0.316000 1.692954 1.713440
v 0.316000 1.978820 1.713440
v 0.316000 1.978820 2.233383
v 0.316000 1.692954 2.233383
v 0.316000 1.189410 1.713440
v 0.316000 1.472955 1.713440
v 0.316000 1.472955 2.233383
v 0.316000 1.189410 2.233383
v 0.316000 0.180000 1.713440
v 0.316000 0.445896 1.713440
v 0.316000 0.445896 2.233383
v 0.316000 0.180000 2.233383
v 0.300000 0.949410 2.283383
v 0.300000 0.989410 2.283383
v 0.300000 0.989410 2.401168
v 0.300000 0.949410 2.401168
v 0.300000 0.969385 2.401168
v 0.300000 1.059410 2.401168
v 0.300000 1.099410 2.401168
v 0.300000 1.059410 1.586134
v 0.300000 1.099410 1.586134
v 0.300000 1.099410 1.547481
v 0.300000 1.059410 1.547481
v 0.300000 1.059410 2.341907
v 0.300000 1.099410 2.361907
v 0.300000 1.059410 2.381907
v 0.300000 0.989410 2.341907
v 0.300000 0.989410 2.381907
v 0.300000 0.949410 2.361907
v 0.287000 1.066443 2.361907
v 0.287000 1.092377 2.361907
v 0.287000 1.092377 2.348940
v 0.287000 1.066443 2.374873
v 0.287000 1.092377 2.374873
v 0.287000 1.066443 2.348940
v 0.287000 1.066443 2.358308
v 0.287000 1.075811 2.348940
v 0.287000 1.092377 2.365505
v 0.287000 1.083009 2.374873
v 0.300000 1.090042 2.341907
v 0.300000 1.099410 2.351275
v 0.300000 1.099410 2.332539
v 0.300000 1.094726 2.343162
v 0.300000 1.098155 2.346591
v 0.300000 1.099410 2.372539
v 0.300000 1.090042 2.381907
v 0.300000 1.099410 2.391275
v 0.300000 1.098155 2.377223
v 0.300000 1.094726 2.380652
v 0.287000 1.075811 2.374873
v 0.287000 1.066443 2.365505
v 0.300000 0.949410 2.351274
v 0.300000 0.958778 2.341907
v 0.300000 0.949410 2.332539
v 0.300000 0.950665 2.346591
v 0.300000 0.954094 2.343162
v 0.300000 0.958778 2.381907
v 0.300000 0.949410 2.372539
v 0.300000 0.949410 2.391274
v 0.300000 0.954094 2.380651
v 0.300000 0.950665 2.377223
v 0.287000 1.083009 2.348940
v 0.287000 1.092377 2.358308
vn -1.0000 -0.0000 -0.0000
vn -1.0000 -0.0056 -0.0029
vn -1.0000 0.0022 -0.0007
vn -0.9999 0.0116 0.0020
vn -0.9999 -0.0011 -0.0131
vn -0.0000 -0.0000 1.0000
vn -0.0000 -0.0000 -1.0000
vn -0.0000 -1.0000 -0.0000
vn -0.0000 1.0000 -0.0000
vn -1.0000 -0.0022 0.0002
vn -1.0000 -0.0028 -0.0007
vt 0.395442 0.574335
vt 0.536034 0.574335
vt 0.536034 0.815181
vt 0.395442 0.815181
vt 0.751845 -0.000000
vt 0.884262 -0.000000
vt 0.884262 0.240846
vt 0.751845 0.240846
vt 0.751845 0.287168
vt 0.883188 0.287168
vt 0.883188 0.528014
vt 0.751845 0.528014
vt 0.875012 0.768860
vt 0.751845 0.768860
vt 0.751845 0.528014
vt 0.875012 0.528014
vt 0.395442 0.000000
vt 0.395442 0.266750
vt 0.341728 0.238957
vt 0.341728 0.060218
vt 0.000000 0.266750
vt 0.054560 0.238957
vt 0.000000 0.000000
vt 0.054560 0.060218
vt 0.395442 0.742500
vt 0.395442 1.000000
vt 0.341728 0.939782
vt 0.341728 0.770293
vt 0.000000 1.000000
vt 0.054560 0.939782
vt 0.000000 0.742500
vt 0.054560 0.770293
vt 0.672635 0.574335
vt 0.672172 0.761249
vt 0.665224 0.761249
vt 0.665224 0.574335
vt 0.591572 0.706753
vt 0.591572 0.574335
vt 0.598984 0.574335
vt 0.598984 0.706753
vt 0.614733 0.743824
vt 0.613807 0.574335
vt 0.620755 0.574335
vt 0.620755 0.743824
vt 0.744434 0.574335
vt 0.744434 0.861503
vt 0.737485 0.861503
vt 0.737485 0.574335
vt 0.584161 0.574335
vt 0.584161 0.705678
vt 0.576749 0.705678
vt 0.576749 0.574335
vt 0.627703 0.574335
vt 0.628166 0.743824
vt 0.620755 0.743824
vt 0.620755 0.574335
vt 0.650401 0.753074
vt 0.650401 0.574335
vt 0.657812 0.574335
vt 0.657812 0.753074
vt 0.730537 0.574335
vt 0.730537 0.815181
vt 0.723126 0.815181
vt 0.723126 0.574335
vt 0.536034 0.861503
vt 0.536034 0.574335
vt 0.543446 0.574335
vt 0.543446 0.861503
vt 0.550857 0.574335
vt 0.550857 0.861503
vt 0.543446 0.861503
vt 0.543446 0.574335
vt 0.715714 0.815181
vt 0.715714 0.574335
vt 0.723126 0.574335
vt 0.723126 0.815181
vt 0.613806 0.574335
vt 0.613806 0.714928
vt 0.606395 0.714928
vt 0.606395 0.574335
vt 0.650401 0.574335
vt 0.650401 0.753074
vt 0.642989 0.753074
vt 0.642989 0.574335
vt 0.576749 0.837020
vt 0.576749 0.705678
vt 0.584161 0.705678
vt 0.584161 0.837020
vt 0.715714 0.574335
vt 0.715714 0.815181
vt 0.708303 0.815181
vt 0.708303 0.574335
vt 0.700891 0.815181
vt 0.700891 0.574335
vt 0.708303 0.574335
vt 0.708303 0.815181
vt 0.395442 0.000000
vt 0.582356 0.000000
vt 0.559195 0.023161
vt 0.418603 0.023161
vt 0.582356 0.287168
vt 0.559195 0.264007
vt 0.395442 0.287168
vt 0.418603 0.264007
vt 0.395442 0.287168
vt 0.574181 0.287168
vt 0.551020 0.310328
vt 0.418603 0.310328
vt 0.574181 0.574335
vt 0.551020 0.551174
vt 0.395442 0.574335
vt 0.418603 0.551174
vt 0.728684 0.310328
vt 0.597342 0.310328
vt 0.751845 0.574335
vt 0.728684 0.551174
vt 0.597342 0.551174
vt 0.582356 -0.000000
vt 0.751845 0.000000
vt 0.728684 0.023161
vt 0.605517 0.023161
vt 0.751845 0.287168
vt 0.728684 0.264007
vt 0.582356 0.287168
vt 0.605517 0.264007
vt 0.693480 0.815181
vt 0.693480 0.574335
vt 0.558269 0.574335
vt 0.558269 0.861503
vt 0.693480 0.574335
vt 0.693480 0.815181
vt 0.686068 0.815181
vt 0.686068 0.574335
vt 0.730537 0.861503
vt 0.730537 0.574335
vt 0.585550 0.829920
vt 0.585550 0.706753
vt 0.591572 0.706753
vt 0.591572 0.829920
vt 0.642989 0.574335
vt 0.642989 0.751999
vt 0.635578 0.751999
vt 0.635578 0.574335
vt 0.591572 0.574335
vt 0.591572 0.706753
vt 0.584161 0.706753
vt 0.584161 0.574335
vt 0.680046 0.815181
vt 0.678657 0.574335
vt 0.686068 0.574335
vt 0.686068 0.815181
vt 0.565680 0.574335
vt 0.565680 0.861503
vt 0.678657 0.815181
vt 0.672635 0.815181
vt 0.672635 0.574335
vt 0.567070 0.574335
vt 0.573092 0.574335
vt 0.573092 0.861503
vt 0.751845 0.574335
vt 0.751845 0.861503
vt 0.598984 0.714928
vt 0.598984 0.706753
vt 0.597594 0.829920
vt 0.628166 0.751999
vt 0.628166 0.574335
vt 0.635578 0.574335
vt 0.635578 0.751999
vt 0.054560 0.714707
vt 0.341728 0.714707
vt 0.000000 0.541690
vt 0.000000 0.560218
vt 0.000000 0.550965
vt 0.658275 0.761249
vt 0.657812 0.606760
vt 0.657812 0.588232
vt 0.657812 0.574335
vt 0.665224 0.574335
vt 0.665224 0.761249
vt 0.341728 0.294543
vt 0.054560 0.294543
vt 0.573114 0.583588
vt 0.573092 0.765870
vt 0.377537 0.509264
vt 0.377537 0.490736
vt 0.395442 0.490736
vt 0.395442 0.500000
vt 0.395442 0.509264
vt 0.395442 0.562322
vt 0.341728 0.527793
vt 0.054560 0.527793
vt 0.027451 0.509264
vt 0.574181 0.574335
vt 0.574181 0.816835
vt 0.574163 0.583599
vt 0.341728 0.472207
vt 0.008922 0.509264
vt 0.008922 0.541690
vt 0.000000 0.509264
vt 0.054560 0.541689
vt 0.027451 0.541690
vt 0.027451 0.495075
vt 0.026870 0.492905
vt 0.031790 0.490736
vt 0.025281 0.491317
vt 0.023112 0.490736
vt 0.013262 0.490736
vt 0.011092 0.491317
vt 0.004583 0.490736
vt 0.009504 0.492905
vt 0.008922 0.495075
vt 0.023112 0.560218
vt 0.025281 0.559637
vt 0.031790 0.560218
vt 0.026870 0.558048
vt 0.027451 0.555879
vt 0.008922 0.555879
vt 0.009504 0.558048
vt 0.004583 0.560218
vt 0.011092 0.559637
vt 0.013262 0.560218
vt 0.395442 0.550309
vt 0.395442 0.557983
vt 0.395442 0.554649
vt 0.395442 0.538297
vt 0.395442 0.542636
vt 0.395442 0.545970
vt 0.395442 0.574335
vt 0.395442 0.568328
vt 0.395442 0.569996
vt 0.018187 0.490736
vt 0.054560 0.472207
vt 0.000000 0.500000
vt 0.000000 0.490736
vt 0.395442 0.562322
vt 0.395442 0.563989
vt 0.054560 0.560218
vt 0.018187 0.560218
vt 0.395442 0.538296
vt 0.395442 0.532290
vt 0.395442 0.536630
s 0
usemtl Wood
f 27/1/1 28/2/1 29/3/1 30/4/1
f 31/5/1 32/6/1 33/7/1 34/8/1
f 35/9/1 36/10/1 37/11/1 38/12/1
f 39/13/2 40/14/2 41/15/2 42/16/2
f 2/17/1 8/18/1 16/19/1 15/20/1
f 8/18/1 7/21/1 17/22/1 16/19/1
f 7/21/1 1/23/1 18/24/1 17/22/1
f 1/23/1 2/17/1 15/20/1 18/24/1
f 10/25/3 4/26/3 24/27/3 23/28/3
f 4/26/4 3/29/4 25/30/4 24/27/4
f 3/29/5 9/31/5 26/32/5 25/30/5
f 9/31/1 10/25/1 23/28/1 26/32/1
f 11/33/6 12/34/6 47/35/6 48/36/6
f 32/37/7 31/38/7 64/39/7 63/40/7
f 25/41/7 26/42/7 58/43/7 45/44/7
f 26/45/8 23/46/8 57/47/8 58/48/8
f 38/49/6 37/50/6 70/51/6 69/52/6
f 23/53/6 24/54/6 46/55/6 57/56/6
f 17/57/7 18/58/7 44/59/7 52/60/7
f 37/61/8 36/62/8 67/63/8 70/64/8
f 16/65/9 17/66/9 52/67/9 51/68/9
f 18/69/8 15/70/8 43/71/8 44/72/8
f 35/73/9 38/74/9 69/75/9 68/76/9
f 30/77/6 29/78/6 62/79/6 61/80/6
f 15/81/6 16/82/6 51/83/6 43/84/6
f 36/85/7 35/86/7 68/87/7 67/88/7
f 29/89/8 28/90/8 59/91/8 62/92/8
f 27/93/9 30/94/9 61/95/9 60/96/9
f 48/97/1 47/98/1 59/99/1 60/100/1
f 47/98/1 50/101/1 62/102/1 59/99/1
f 50/101/1 49/103/1 61/104/1 62/102/1
f 49/103/1 48/97/1 60/100/1 61/104/1
f 43/105/1 51/106/1 63/107/1 64/108/1
f 51/106/1 52/109/1 66/110/1 63/107/1
f 52/109/1 44/111/1 65/112/1 66/110/1
f 44/111/1 43/105/1 64/108/1 65/112/1
f 54/106/1 53/9/1 67/113/1 68/114/1
f 53/9/1 56/115/1 70/116/1 67/113/1
f 56/115/1 55/109/1 69/117/1 70/116/1
f 55/109/1 54/106/1 68/114/1 69/117/1
f 57/118/1 46/119/1 71/120/1 72/121/1
f 46/119/1 45/122/1 74/123/1 71/120/1
f 45/122/1 58/124/1 73/125/1 74/123/1
f 58/124/1 57/118/1 72/121/1 73/125/1
f 31/126/9 34/127/9 65/94/9 64/93/9
f 14/128/8 11/129/8 48/70/8 49/69/8
f 33/130/8 32/131/8 63/132/8 66/133/8
f 12/134/9 13/135/9 50/48/9 47/47/9
f 40/136/7 39/137/7 72/138/7 71/139/7
f 19/140/6 20/141/6 53/142/6 54/143/6
f 34/144/6 33/145/6 66/146/6 65/147/6
f 39/148/9 42/149/9 73/150/9 72/151/9
f 22/152/8 19/153/8 54/129/8 55/128/8
f 41/149/8 40/154/8 71/155/8 74/156/8
f 24/153/9 25/157/9 45/158/9 46/159/9
f 20/46/9 21/45/9 56/160/9 53/161/9
f 28/162/7 27/39/7 60/80/7 59/79/7
f 42/163/6 41/164/6 74/139/6 73/138/6
f 21/165/7 22/166/7 55/167/7 56/168/7
f 10/25/1 9/31/1 13/169/1 12/170/1
f 77/171/6 78/172/6 79/173/6
f 13/174/7 75/175/7 76/176/7 14/177/7 49/178/7 50/179/7
f 8/18/1 19/180/1 22/181/1 7/21/1
f 79/158/6 78/182/6 9/183/6
f 82/184/1 83/185/1 84/186/1 6/187/1 85/188/1
f 5/189/6 80/189/6 77/189/6 79/189/6
f 7/189/6 81/189/6 5/189/6
f 82/184/1 11/190/1 14/191/1 86/192/1
f 6/193/7 10/194/7 85/195/7
f 8/189/7 6/189/7 84/189/7
f 82/184/10 85/188/10 10/25/10 12/170/10 11/190/10
f 8/18/1 84/186/1 83/185/1 20/196/1 19/180/1
f 88/197/1 90/198/1 77/171/1 80/199/1
f 76/200/1 89/201/1 86/192/1 14/191/1
f 102/202/1 105/203/1 104/204/1
f 105/203/1 106/205/1 104/204/1
f 106/205/1 103/206/1 104/204/1
f 107/207/1 110/208/1 109/209/1
f 110/208/1 111/210/1 109/209/1
f 111/210/1 108/211/1 109/209/1
f 114/212/1 117/213/1 116/214/1
f 117/213/1 118/215/1 116/214/1
f 118/215/1 115/216/1 116/214/1
f 119/217/1 122/218/1 121/219/1
f 122/218/1 123/220/1 121/219/1
f 123/220/1 120/221/1 121/219/1
f 94/222/7 97/189/7 99/223/7 124/224/7
f 97/222/1 92/222/1 98/222/1
f 95/222/6 96/225/6 101/226/6 112/227/6
f 96/228/1 93/229/1 100/230/1
f 83/185/1 104/204/1 103/206/1 87/231/1 21/232/1 20/196/1
f 82/184/1 86/192/1 102/202/1 104/204/1 83/185/1
f 109/209/1 108/211/1 88/197/1 80/199/1 5/233/1 81/234/1
f 87/231/1 107/207/1 109/209/1 81/234/1 7/21/1 22/181/1 21/232/1
f 92/235/9 95/229/9 113/236/9
f 75/237/1 116/214/1 115/216/1 89/201/1 76/200/1
f 9/31/11 78/172/11 121/219/11 120/221/11 91/238/11 114/212/11 116/214/11 75/237/11 13/169/11
f 90/198/1 119/217/1 121/219/1 78/172/1 77/171/1
f 93/239/1 94/240/1 125/241/1
o Door_Frame
v 0.300000 2.158820 2.401168
v 0.300000 2.158820 1.547481
v 0.300000 0.000000 2.501168
v 0.300000 0.000000 1.447481
v 0.300000 2.258820 1.447481
v 0.300000 2.258820 2.501168
v 0.300000 0.000000 2.401168
v 0.300000 0.000000 1.547481
v 0.300000 2.258820 1.447481
v 0.300000 2.258820 2.501168
v 0.300000 0.558900 1.447481
v 0.300000 0.558900 2.501168
v 0.300000 0.139725 1.447481
v 0.300000 0.139725 2.501168
v 0.320000 2.258820 1.447481
v 0.320000 2.258820 2.501168
v 0.320000 0.558900 2.501168
v 0.320000 0.558900 1.447481
v 0.320000 0.139725 1.447481
v 0.320000 0.139725 2.501168
vn -1.0000 -0.0000 -0.0000
vn -0.0000 -0.0000 -1.0000
vn -0.0000 -0.0000 1.0000
vn -0.0000 1.0000 -0.0000
vt 0.422206 0.044271
vt 0.044271 0.044271
vt 0.000000 0.000000
vt 0.466477 0.000000
vt 0.044271 1.000000
vt 0.000000 1.000000
vt 0.422206 1.000000
vt 0.466477 1.000000
vt 0.466477 0.752570
vt 0.475331 0.000000
vt 0.475331 0.752570
vt 0.484185 0.000000
vt 0.484185 0.752570
vt 0.475331 0.752570
vt 0.484185 0.466477
vt 0.484185 0.000000
vt 0.493039 0.000000
vt 0.493039 0.466477
vt 0.484185 0.938142
vt 0.475331 0.938142
vt 0.466477 0.938142
s 0
usemtl Wood
f 127/242/12 126/243/12 131/244/12 130/245/12
f 126/243/12 132/246/12 128/247/12 131/244/12
f 133/248/12 127/242/12 130/245/12 129/249/12
f 136/250/13 134/245/13 140/251/13 143/252/13
f 135/253/14 137/254/14 142/255/14 141/251/14
f 134/256/15 135/257/15 141/258/15 140/259/15
f 137/254/14 139/260/14 145/261/14 142/255/14
f 138/262/13 136/250/13 143/252/13 144/261/13
o Walls
v 1.257500 2.479680 -3.000000
v 1.257500 1.883520 -3.000000
v -0.432500 1.883520 -3.000000
v -0.432500 2.479680 -3.000000
v -1.605000 0.139725 0.710000
v -0.750000 0.139725 0.510000
v -1.605000 0.139725 0.510000
v -3.020000 0.139725 0.710000
v -0.750000 0.139725 0.710000
v -0.750000 2.258800 0.510000
v -1.605000 2.258800 0.510000
v -0.750000 2.258800 0.710000
v -1.605000 2.258800 0.710000
v -0.432500 1.883520 -3.020000
v -0.432500 2.479680 -3.020000
v 0.020000 0.139725 3.020000
v -3.020000 2.700000 3.020000
v 0.020000 2.700000 3.020000
v 0.020000 2.700000 2.670000
v -3.020000 2.700000 -3.020000
v -3.020000 2.700000 -2.570000
v -3.320000 2.700000 -0.235000
v -3.020000 2.700000 -0.235000
v -3.320000 2.700000 -2.570000
v 0.020000 2.700000 0.510000
v 0.020000 2.700000 0.020000
v -3.020000 2.700000 0.710000
v 0.020000 2.700000 1.280000
v 0.020000 2.700000 0.710000
v -3.020000 2.700000 0.510000
v 1.257500 1.883520 -3.020000
v 1.520000 2.700000 0.020000
v -0.284875 0.558900 3.020000
v 1.257500 2.479680 -3.020000
v 1.520000 2.700000 -3.020000
v -1.267625 0.558900 3.020000
v -1.267625 2.519100 3.020000
v -0.284875 2.519100 3.020000
v -3.320000 0.648000 -0.376188
v -3.320000 2.660850 -0.376188
v -3.320000 2.660850 -2.434550
v -3.320000 0.558900 -0.376188
v -3.320000 0.558900 -2.434550
v -3.320000 0.648000 -2.434550
v 0.320000 2.258820 1.447481
v 0.320000 2.258820 2.501168
v 0.320000 2.700000 2.670000
v 0.320000 2.700000 1.280000
v -3.020000 0.139725 -2.570000
v -3.320000 0.139725 -2.570000
v 0.101286 2.479680 -3.000000
v -3.020000 0.139725 -0.235000
v -0.420919 1.883520 -3.000000
v -3.020000 0.139725 3.020000
v 1.512394 2.700000 0.020000
v 0.320000 0.139725 1.447481
v 0.320000 0.139725 2.501168
v 0.320000 0.139725 2.670000
v 0.020000 0.139725 1.280000
v 0.020000 0.139725 0.510000
v 0.020000 0.139725 0.710000
v -3.020000 0.139725 0.510000
v 1.520000 0.139725 0.020000
v 1.520000 0.139725 -3.020000
v -3.320000 0.139725 -0.235000
v 0.020000 0.139725 2.670000
v 0.020000 0.139725 0.020000
v -3.020000 0.139725 -3.020000
v 0.320000 0.139725 1.280000
vn -0.0000 -0.0000 1.0000
vn -0.0000 1.0000 -0.0000
vn -1.0000 -0.0000 -0.0000
vn -0.0000 -0.0000 -1.0000
vn 1.0000 -0.0000 -0.0000
vn -0.0000 -1.0000 -0.0000
vt 3.964626 0.980922
vt 3.964626 1.961845
vt 3.849686 1.961845
vt 3.849686 0.980922
vt 1.357310 2.501850
vt 1.357310 2.297340
vt 1.364973 1.854357
vt 1.364972 2.501850
vt 1.366782 2.904138
vt 1.535820 2.609127
vt 2.347705 2.609127
vt 2.347705 2.904138
vt 1.535820 2.281549
vt 1.366783 1.739418
vt 2.347705 1.739418
vt 2.347705 2.281549
vt 1.349647 2.894650
vt 1.349647 2.666242
vt 1.357310 2.666242
vt 1.357310 2.894650
vt 0.014328 3.019078
vt 0.183366 2.476946
vt 0.995250 2.476946
vt 0.995250 3.019078
vt 2.261395 2.904138
vt 2.261395 3.885061
vt 2.207301 3.724461
vt 2.207301 3.690324
vt 2.207301 2.919138
vt 3.328627 1.164720
vt 2.347705 1.164720
vt 2.417013 0.493330
vt 3.168028 0.493330
vt 1.357310 3.149342
vt 1.357310 2.506287
vt 1.364972 2.501850
vt 1.364972 3.149342
vt 1.357310 1.854357
vt 0.183366 2.149369
vt 0.014328 1.854357
vt 0.995250 1.854357
vt 0.995250 2.149369
vt 2.347705 1.739418
vt 1.679602 1.638846
vt 1.679602 0.991353
vt 2.347705 0.000000
vt 3.328627 1.164721
vt 3.328627 2.329441
vt 2.347705 2.329441
vt 2.347705 1.164721
vt 1.366782 1.739418
vt 1.451194 1.638846
vt 3.861181 0.980922
vt 3.861181 0.000000
vt 3.976120 0.000000
vt 3.976120 0.980922
vt 1.451194 0.991353
vt 1.366783 0.000000
vt 3.734747 0.980922
vt 3.734747 1.961845
vt 3.797013 0.169030
vt 3.797013 0.980922
vt 3.807437 3.310363
vt 3.232739 3.310363
vt 3.232739 2.329441
vt 3.804523 2.329441
vt 3.807437 2.329441
vt 3.393312 0.169030
vt 3.393312 0.980922
vt 3.328628 0.980922
vt 3.328628 0.000000
vt 3.734747 0.980922
vt 3.734747 1.961845
vt 3.547013 1.961845
vt 3.547013 0.980922
vt 1.280683 1.854357
vt 1.357310 1.854357
vt 1.280683 2.666242
vt 3.168028 0.116807
vt 3.328628 0.000000
vt 2.347705 0.000000
vt 2.417014 0.116807
vt 0.995250 3.816202
vt 0.995250 2.835280
vt 1.167660 2.835280
vt 1.167660 3.816202
vt 3.328628 1.961845
vt 0.014328 4.000000
vt 0.014328 3.019077
vt 0.899362 3.019077
vt 0.899362 4.000000
vt 0.995250 2.835279
vt 0.995250 1.854357
vt 1.280683 2.835279
vt 1.418678 2.919138
vt 1.366783 2.904138
vt 1.167660 3.816202
vt 1.167660 2.835280
vt 1.301756 2.835280
vt 1.301756 3.816202
vt 0.202062 1.851443
vt 1.366782 1.854357
vt 0.202062 1.854357
vt 3.922376 2.329441
vt 3.922376 3.310363
vt 2.261395 2.904138
vt 2.338021 2.904138
vt 2.338021 3.716023
vt 2.261395 3.716023
vt 1.366783 3.885061
vt 1.418678 3.690324
vt 1.418678 3.724461
vt 0.899362 3.346655
vt 0.975988 3.019077
vt 0.975988 3.346655
vt 1.357310 2.501850
vt 1.349647 2.666242
vt 1.349647 2.894650
vt 1.341985 2.894650
vt 1.341985 2.666242
vt 1.194373 0.114940
vt 1.366783 0.114940
vt 0.202062 1.279660
vt 0.014328 1.279660
vt 0.014328 0.114940
vt 0.299761 0.114940
vt 0.299761 0.000000
vt 1.194373 0.000000
vt 2.347705 3.494161
vt 2.347706 2.329441
vt 3.232740 2.329441
vt 3.232739 3.494161
vt 3.014354 3.494161
vt 3.014354 3.609100
vt 2.481802 3.609100
vt 2.481802 3.494161
s 0
usemtl Walls
f 169/263/16 195/264/16 194/265/16 166/266/16
f 149/267/17 196/268/17 179/269/17 160/270/17
f 174/271/16 157/272/16 154/273/16 206/274/16
f 158/275/16 172/276/16 153/277/16 150/278/16
f 148/279/18 149/280/18 160/281/18 159/282/18
f 175/283/19 156/284/19 152/285/19 207/286/19
f 167/287/20 210/288/20 187/289/20 184/290/20 185/291/20
f 199/292/19 162/293/19 182/294/19 181/295/19
f 147/296/21 198/297/21 159/298/21 176/299/21
f 179/269/17 196/268/17 146/300/17
f 155/301/19 170/302/19 205/303/19 151/304/19
f 170/302/19 155/301/19 156/284/19 175/283/19
f 174/271/16 172/276/16 158/275/16 157/272/16
f 209/305/16 176/306/16 159/307/16 213/308/16
f 209/309/18 208/310/18 177/311/18 180/312/18
f 209/305/16 180/313/16 179/314/16 176/306/16
f 210/315/19 167/316/19 168/317/19 197/318/19
f 159/307/16 160/319/16 165/320/16 213/308/16
f 193/321/16 173/266/16 204/265/16 214/322/16
f 190/323/18 193/316/18 214/315/18 201/324/18
f 208/325/19 212/326/19 171/327/19 200/328/19 177/329/19
f 191/330/18 202/331/18 203/332/18 192/333/18
f 171/334/18 212/335/18 205/336/18 170/337/18
f 156/338/20 158/339/20 150/281/20 152/340/20
f 178/341/19 161/342/19 199/292/19 181/295/19
f 163/343/19 183/344/19 182/294/19 162/293/19
f 213/345/20 165/346/20 166/347/20 194/348/20
f 193/316/18 190/323/18 191/330/18 192/333/18
f 204/349/18 173/332/18 174/337/18 206/336/18
f 153/350/20 172/351/20 162/352/20 199/353/20
f 165/320/16 160/319/16 179/314/16 180/313/16
f 197/354/20 168/355/20 175/338/20 207/356/20
f 167/287/20 185/291/20 186/357/20 169/358/20
f 161/359/18 163/360/18 164/361/18 211/362/18
f 200/363/21 180/364/21 177/365/21
f 164/329/19 192/366/19 203/367/19 211/325/19
f 157/368/18 155/369/18 151/370/18 154/371/18
f 195/372/20 169/358/20 186/357/20 189/373/20 188/374/20
f 157/375/21 158/352/21 156/376/21 155/377/21
f 159/298/21 198/297/21 148/378/21
f 187/289/20 210/288/20 195/372/20 188/374/20
f 146/379/20 147/380/20 176/381/20 179/382/20
f 163/343/19 161/342/19 178/341/19 183/344/19
f 166/383/21 165/384/21 180/364/21 200/363/21 171/385/21 170/386/21 175/387/21 168/388/21 167/389/21 169/390/21
f 163/391/21 162/392/21 172/393/21 174/394/21 173/395/21 193/396/21 192/397/21 164/398/21
o Window1
v -0.776250 1.933200 3.150000
v -0.776250 2.430000 3.150000
v -1.177500 0.648000 3.150000
v -1.177500 2.430000 3.150000
v -0.776250 0.648000 3.150000
v -0.375000 0.648000 3.150000
v -0.375000 2.430000 3.150000
v -0.375000 1.933200 3.150000
v -1.177500 1.933200 3.150000
v -1.147500 0.678000 3.150000
v -0.776250 0.678000 3.150000
v -0.405000 0.678000 3.150000
v -0.776250 2.400000 3.150000
v -0.405000 2.400000 3.150000
v -0.405000 1.933200 3.150000
v -1.147500 2.400000 3.150000
v -1.147500 1.933200 3.150000
v -0.746250 1.903200 3.200000
v -0.746250 0.708000 3.200000
v -0.435000 0.708000 3.200000
v -0.435000 1.903200 3.200000
v -0.435000 1.963200 3.200000
v -0.746250 1.963200 3.200000
v -0.435000 2.370000 3.200000
v -0.746250 2.370000 3.200000
v -0.806250 1.963200 3.200000
v -1.117500 1.963200 3.200000
v -0.806250 2.370000 3.200000
v -1.117500 2.370000 3.200000
v -1.117500 0.708000 3.200000
v -1.117500 1.903200 3.200000
v -0.806250 0.708000 3.200000
v -0.806250 1.903200 3.200000
v -0.746250 0.708000 3.163000
v -0.759250 0.695000 3.150000
v -0.759250 1.916200 3.150000
v -0.746250 1.903200 3.163000
v -0.422000 1.916200 3.150000
v -0.435000 1.903200 3.163000
v -0.435000 0.708000 3.163000
v -0.422000 0.695000 3.150000
v -0.435000 1.963200 3.163000
v -0.422000 1.950200 3.150000
v -0.759250 1.950200 3.150000
v -0.746250 1.963200 3.163000
v -0.759250 2.383000 3.150000
v -0.746250 2.370000 3.163000
v -0.435000 2.370000 3.163000
v -0.422000 2.383000 3.150000
v -0.806250 1.963200 3.163000
v -0.793250 1.950200 3.150000
v -1.130500 1.950200 3.150000
v -1.117500 1.963200 3.163000
v -1.130500 2.383000 3.150000
v -1.117500 2.370000 3.163000
v -0.806250 2.370000 3.163000
v -0.793250 2.383000 3.150000
v -1.117500 0.708000 3.163000
v -1.130500 0.695000 3.150000
v -1.130500 1.916200 3.150000
v -1.117500 1.903200 3.163000
v -0.793250 1.916200 3.150000
v -0.806250 1.903200 3.163000
v -0.806250 0.708000 3.163000
v -0.793250 0.695000 3.150000
v -0.776250 2.430000 3.200000
v -1.177500 0.648000 3.200000
v -1.177500 2.430000 3.200000
v -0.776250 0.648000 3.200000
v -0.375000 0.648000 3.200000
v -0.375000 2.430000 3.200000
v -0.375000 1.933200 3.200000
v -1.177500 1.933200 3.200000
vn -0.0000 -0.0000 -1.0000
vn 0.7071 -0.0000 -0.7071
vn -0.0000 0.7071 -0.7071
vn -0.0000 -0.7071 -0.7071
vn -0.7071 -0.0000 -0.7071
vn 1.0000 -0.0000 -0.0000
vn -0.0000 1.0000 -0.0000
vn -0.0000 -1.0000 -0.0000
vn -1.0000 -0.0000 -0.0000
vt 0.015464 0.903093
vt 0.206830 0.903093
vt 0.206830 0.918557
vt 0.000000 0.918557
vt 0.398196 0.903093
vt 0.413660 0.918557
vt 0.398196 0.015464
vt 0.206830 0.015464
vt 0.206830 0.000000
vt 0.413660 0.000000
vt 0.398196 0.256083
vt 0.413660 0.256083
vt 0.015464 0.015464
vt 0.000000 0.000000
vt 0.015464 0.256083
vt 0.000000 0.256083
vt 0.222294 0.271546
vt 0.222294 0.887629
vt 0.215593 0.894330
vt 0.215593 0.264845
vt 0.382732 0.887629
vt 0.389433 0.894330
vt 0.382732 0.271546
vt 0.389433 0.264845
vt 0.389433 0.247320
vt 0.215593 0.247320
vt 0.222294 0.240619
vt 0.382732 0.240619
vt 0.382732 0.030928
vt 0.389433 0.024227
vt 0.215593 0.024227
vt 0.222294 0.030928
vt 0.198067 0.247320
vt 0.024227 0.247320
vt 0.030928 0.240619
vt 0.191366 0.240619
vt 0.191366 0.030928
vt 0.198067 0.024227
vt 0.024227 0.024227
vt 0.030928 0.030928
vt 0.024227 0.894330
vt 0.024227 0.264845
vt 0.030928 0.271546
vt 0.030928 0.887629
vt 0.191366 0.887629
vt 0.198067 0.894330
vt 0.191366 0.271546
vt 0.198067 0.264845
vt 0.878866 0.616083
vt 0.878866 0.000000
vt 0.897938 0.000000
vt 0.897938 0.616083
vt 0.206830 0.256083
vt 1.000000 -0.000000
vt 1.000000 0.160438
vt 0.980928 0.160438
vt 0.980928 -0.000000
vt 0.955155 0.825773
vt 0.955155 0.986212
vt 0.936083 0.986212
vt 0.936083 0.825773
vt 0.917010 0.000000
vt 0.917010 0.616083
vt 0.897938 0.616083
vt 0.897938 0.000000
vt 1.000000 0.320876
vt 0.980928 0.320876
vt 0.897938 0.616083
vt 0.897938 0.825773
vt 0.878866 0.825773
vt 0.878866 0.616083
vt 0.897938 0.825773
vt 0.917010 0.616083
vt 0.917010 0.825773
vt 0.974227 0.827320
vt 0.974227 0.987758
vt 0.955155 0.987758
vt 0.955155 0.827320
vt 0.897938 0.986212
vt 0.878866 0.986212
vt 0.878866 0.825773
vt 0.936082 0.616083
vt 0.936082 0.825773
vt 0.917010 0.825773
vt 0.917010 0.616083
vt 0.936082 0.825773
vt 0.936082 0.616083
vt 0.955155 0.616083
vt 0.955155 0.825773
vt 0.993299 0.827320
vt 0.993299 0.987758
vt 0.974227 0.987758
vt 0.974227 0.827320
vt 0.917010 0.825773
vt 0.917010 0.986212
vt 0.897938 0.986212
vt 0.897938 0.825773
vt 0.917010 0.000000
vt 0.936082 0.000000
vt 0.936082 0.825773
vt 0.936082 0.986212
vt 0.917010 0.986212
vt 0.917010 0.825773
vt 0.955155 0.000000
vt 0.955155 0.616083
vt 0.936083 0.616083
vt 0.936083 0.000000
vt 0.827320 0.256083
vt 0.827320 0.000000
vt 0.853093 0.000000
vt 0.853093 0.256083
vt 0.980928 0.206830
vt 0.980928 0.413660
vt 0.955155 0.413660
vt 0.955155 0.206830
vt 0.827320 0.918557
vt 0.853093 0.918557
vt 0.980928 0.620490
vt 0.980928 0.827320
vt 0.955155 0.827320
vt 0.955155 0.620490
vt 0.980928 0.000000
vt 0.955155 0.000000
vt 0.878866 0.256083
vt 0.878866 0.918557
vt 0.853093 0.918557
vt 0.853093 0.256083
vt 0.878866 0.000000
vt 0.853093 0.000000
s 0
usemtl Wood
f 224/399/22 225/400/22 219/401/22 217/402/22
f 225/400/22 226/403/22 220/404/22 219/401/22
f 228/405/22 227/406/22 216/407/22 221/408/22
f 229/409/22 228/405/22 221/408/22 222/410/22
f 227/406/22 230/411/22 218/412/22 216/407/22
f 230/411/22 231/413/22 223/414/22 218/412/22
f 226/403/22 229/409/22 222/410/22 220/404/22
f 231/413/22 224/399/22 217/402/22 223/414/22
f 251/415/23 248/416/23 249/417/23 250/418/23
f 248/416/24 254/419/24 255/420/24 249/417/24
f 253/421/25 251/415/25 250/418/25 252/422/25
f 254/419/26 253/421/26 252/422/26 255/420/26
f 257/423/24 258/424/24 259/425/24 256/426/24
f 256/426/26 262/427/26 263/428/26 257/423/26
f 258/424/23 260/429/23 261/430/23 259/425/23
f 260/429/25 263/428/25 262/427/25 261/430/25
f 265/431/24 266/432/24 267/433/24 264/434/24
f 264/434/26 270/435/26 271/436/26 265/431/26
f 266/432/23 268/437/23 269/438/23 267/433/23
f 268/437/25 271/436/25 270/435/25 269/438/25
f 273/439/23 274/440/23 275/441/23 272/442/23
f 272/442/24 278/443/24 279/444/24 273/439/24
f 277/445/25 275/441/25 274/440/25 276/446/25
f 276/446/26 279/444/26 278/443/26 277/445/26
f 248/447/27 251/448/27 232/449/27 233/450/27
f 226/403/22 225/400/22 249/417/22 255/420/22
f 225/400/22 215/451/22 250/418/22 249/417/22
f 254/452/28 248/453/28 233/454/28 234/455/28
f 251/456/29 253/457/29 235/458/29 232/459/29
f 215/451/22 229/409/22 252/422/22 250/418/22
f 253/460/30 254/461/30 234/462/30 235/463/30
f 229/409/22 226/403/22 255/420/22 252/422/22
f 256/453/28 259/464/28 237/465/28 236/454/28
f 228/405/22 229/409/22 257/423/22 263/428/22
f 229/409/22 215/451/22 258/424/22 257/423/22
f 262/466/30 256/467/30 236/468/30 238/469/30
f 259/470/27 261/450/27 239/471/27 237/472/27
f 215/451/22 227/406/22 260/429/22 258/424/22
f 261/473/29 262/474/29 238/475/29 239/476/29
f 227/406/22 228/405/22 263/428/22 260/429/22
f 264/470/28 267/477/28 241/478/28 240/479/28
f 227/406/22 215/451/22 265/431/22 271/436/22
f 215/451/22 231/413/22 266/432/22 265/431/22
f 270/480/30 264/481/30 240/482/30 242/483/30
f 267/484/27 269/485/27 243/486/27 241/487/27
f 231/413/22 230/411/22 268/437/22 266/432/22
f 269/488/29 270/489/29 242/490/29 243/491/29
f 230/411/22 227/406/22 271/436/22 268/437/22
f 224/399/22 231/413/22 274/440/22 273/439/22
f 278/492/28 272/493/28 244/494/28 246/495/28
f 272/471/27 275/496/27 245/497/27 244/485/27
f 225/400/22 224/399/22 273/439/22 279/444/22
f 275/498/29 277/499/29 247/500/29 245/501/29
f 231/413/22 215/451/22 276/446/22 274/440/22
f 277/502/30 278/503/30 246/504/30 247/505/30
f 215/451/22 225/400/22 279/444/22 276/446/22
f 222/506/27 221/507/27 285/508/27 286/509/27
f 219/510/29 220/511/29 284/512/29 283/513/29
f 220/514/27 222/506/27 286/509/27 284/515/27
f 216/516/28 218/517/28 282/518/28 280/519/28
f 221/511/28 216/516/28 280/519/28 285/512/28
f 217/520/29 219/510/29 283/513/29 281/521/29
f 223/522/30 217/523/30 281/524/30 287/525/30
f 218/526/30 223/522/30 287/525/30 282/527/30
o Window1_Frame
v -1.267625 2.519100 3.000000
v -1.267625 0.558900 3.000000
v -0.284875 2.519100 3.000000
v -0.284875 0.558900 3.000000
v -1.177500 2.430000 3.150000
v -1.177500 0.648000 3.150000
v -0.375000 0.648000 3.150000
v -0.375000 2.430000 3.150000
v -1.177500 2.430000 3.000000
v -1.177500 0.648000 3.000000
v -0.375000 2.430000 3.000000
v -0.375000 0.648000 3.000000
v -0.284875 2.519100 3.020000
v -1.267625 2.519100 3.020000
v -1.267625 0.558900 3.020000
v -0.284875 0.558900 3.020000
v -1.267625 2.519100 3.000000
v -1.267625 0.558900 3.000000
v -0.284875 2.519100 3.000000
v -0.284875 0.558900 3.000000
vn -0.0000 -0.0000 -1.0000
vn -0.0000 -1.0000 -0.0000
vn 1.0000 -0.0000 -0.0000
vn -0.0000 1.0000 -0.0000
vn -1.0000 -0.0000 -0.0000
vt 0.524883 -0.409091
vt -0.293911 -0.409091
vt -0.385866 -0.500000
vt 0.616837 -0.500000
vt -0.293911 1.409091
vt -0.385866 1.500000
vt 0.524883 1.409091
vt 0.616837 1.500000
vt 1.075974 -0.500000
vt 1.075974 0.318794
vt 0.922929 0.318794
vt 0.922929 -0.500000
vt 0.769883 -0.500000
vt 0.769883 1.318182
vt 0.616837 1.318182
vt 1.075974 1.137588
vt 0.922929 1.137588
vt 0.922929 0.318794
vt 0.922929 1.318182
vt 1.137193 -0.500000
vt 1.137193 0.502704
vt 1.116786 0.502704
vt 1.116787 -0.500000
vt 1.157599 -0.500000
vt 1.157599 0.502704
vt 1.075974 1.500000
vt 1.096380 -0.500000
vt 1.096380 1.500000
vt 1.116787 1.500000
s 0
usemtl Wood
f 298/528/31 296/529/31 288/530/31 290/531/31
f 296/529/31 297/532/31 289/533/31 288/530/31
f 297/532/31 299/534/31 291/535/31 289/533/31
f 299/534/31 298/528/31 290/531/31 291/535/31
f 296/536/32 298/537/32 295/538/32 292/539/32
f 296/531/33 292/540/33 293/541/33 297/542/33
f 297/543/34 293/544/34 294/545/34 299/537/34
f 298/539/35 299/546/35 294/541/35 295/540/35
f 306/547/34 304/548/34 301/549/34 300/550/34
f 305/551/32 307/552/32 303/548/32 302/547/32
f 307/553/33 306/536/33 300/554/33 303/555/33
f 304/550/35 305/556/35 302/555/35 301/554/35
o Window2
v -3.450000 0.648000 -0.469750
v -3.450000 0.648000 -2.340988
v -3.450000 1.933200 -0.469750
v -3.450000 1.933200 -2.340988
v -3.450000 2.565000 -0.469750
v -3.450000 2.565000 -2.340988
v -3.450000 0.648000 -1.420369
v -3.450000 0.648000 -1.390369
v -3.450000 2.565000 -1.390369
v -3.450000 2.565000 -1.420369
v -3.450000 1.933200 -1.390369
v -3.450000 1.933200 -1.420369
v -3.450000 1.933200 -0.499750
v -3.450000 2.535000 -0.499750
v -3.450000 1.933200 -2.310988
v -3.450000 2.535000 -2.310988
v -3.450000 0.678000 -0.499750
v -3.450000 0.678000 -2.310988
v -3.450000 2.535000 -1.420369
v -3.450000 2.535000 -1.390369
v -3.450000 0.678000 -1.390369
v -3.450000 0.678000 -1.420369
v -3.450000 0.678000 -0.945059
v -3.450000 1.933200 -0.945059
v -3.450000 2.535000 -0.945059
v -3.450000 0.648000 -0.930059
v -3.450000 2.565000 -0.930059
v -3.450000 0.678000 -1.865678
v -3.450000 1.933200 -1.865678
v -3.450000 2.535000 -1.865678
v -3.450000 0.648000 -1.880678
v -3.450000 2.565000 -1.864567
v -3.500000 0.708000 -0.975059
v -3.500000 0.708000 -1.360369
v -3.500000 1.903200 -0.975059
v -3.500000 1.903200 -1.360369
v -3.500000 0.708000 -1.895678
v -3.500000 0.708000 -2.280988
v -3.500000 1.903200 -1.895678
v -3.500000 1.903200 -2.280988
v -3.500000 1.963200 -1.360369
v -3.500000 1.963200 -0.975059
v -3.500000 2.505000 -0.975059
v -3.500000 2.505000 -1.360369
v -3.500000 1.963200 -2.280988
v -3.500000 1.963200 -1.895678
v -3.500000 2.505000 -1.895678
v -3.500000 2.505000 -2.280988
v -3.500000 1.963200 -0.915059
v -3.500000 1.963200 -0.529750
v -3.500000 2.505000 -0.529750
v -3.500000 2.505000 -0.915059
v -3.500000 0.708000 -0.529750
v -3.500000 0.708000 -0.915059
v -3.500000 1.903200 -0.529750
v -3.500000 1.903200 -0.915059
v -3.500000 1.963200 -1.835678
v -3.500000 1.963200 -1.450369
v -3.500000 2.505000 -1.450369
v -3.500000 2.505000 -1.835678
v -3.500000 0.708000 -1.450369
v -3.500000 0.708000 -1.835678
v -3.500000 1.903200 -1.450369
v -3.500000 1.903200 -1.835678
v -3.463000 0.708000 -0.975059
v -3.450000 0.695000 -0.962059
v -3.450000 0.695000 -1.373369
v -3.463000 0.708000 -1.360369
v -3.450000 1.916200 -1.373369
v -3.463000 1.903200 -1.360369
v -3.463000 1.903200 -0.975059
v -3.450000 1.916200 -0.962059
v -3.463000 0.708000 -1.895678
v -3.450000 0.695000 -1.882678
v -3.450000 0.695000 -2.293988
v -3.463000 0.708000 -2.280988
v -3.450000 1.916200 -2.293988
v -3.463000 1.903200 -2.280988
v -3.463000 1.903200 -1.895678
v -3.450000 1.916200 -1.882678
v -3.463000 1.963200 -0.975059
v -3.450000 1.950200 -0.962059
v -3.450000 1.950200 -1.373369
v -3.463000 1.963200 -1.360369
v -3.450000 2.518000 -1.373369
v -3.463000 2.505000 -1.360369
v -3.463000 2.505000 -0.975059
v -3.450000 2.518000 -0.962059
v -3.463000 1.963200 -1.895678
v -3.450000 1.950200 -1.882678
v -3.450000 1.950200 -2.293988
v -3.463000 1.963200 -2.280988
v -3.450000 2.518000 -2.293988
v -3.463000 2.505000 -2.280988
v -3.463000 2.505000 -1.895678
v -3.450000 2.518000 -1.882678
v -3.463000 1.963200 -0.529750
v -3.450000 1.950200 -0.516750
v -3.450000 1.950200 -0.928059
v -3.463000 1.963200 -0.915059
v -3.450000 2.518000 -0.928059
v -3.463000 2.505000 -0.915059
v -3.463000 2.505000 -0.529750
v -3.450000 2.518000 -0.516750
v -3.463000 0.708000 -0.529750
v -3.450000 0.695000 -0.516750
v -3.450000 0.695000 -0.928059
v -3.463000 0.708000 -0.915059
v -3.450000 1.916200 -0.928059
v -3.463000 1.903200 -0.915059
v -3.463000 1.903200 -0.529750
v -3.450000 1.916200 -0.516750
v -3.463000 1.963200 -1.450369
v -3.450000 1.950200 -1.437369
v -3.450000 1.950200 -1.848678
v -3.463000 1.963200 -1.835678
v -3.450000 2.518000 -1.848678
v -3.463000 2.505000 -1.835678
v -3.463000 2.505000 -1.450369
v -3.450000 2.518000 -1.437369
v -3.463000 0.708000 -1.450369
v -3.450000 0.695000 -1.437369
v -3.450000 0.695000 -1.848678
v -3.463000 0.708000 -1.835678
v -3.450000 1.916200 -1.848678
v -3.463000 1.903200 -1.835678
v -3.463000 1.903200 -1.450369
v -3.450000 1.916200 -1.437369
v -3.500000 0.648000 -0.469750
v -3.500000 0.648000 -2.340988
v -3.500000 1.933200 -0.469750
v -3.500000 1.933200 -2.340988
v -3.500000 2.565000 -0.469750
v -3.500000 2.565000 -2.340988
v -3.500000 0.648000 -1.420369
v -3.500000 0.648000 -1.390369
v -3.500000 2.565000 -1.390369
v -3.500000 2.565000 -1.420369
v -3.500000 0.648000 -0.946170
v -3.500000 2.565000 -0.946170
v -3.500000 0.648000 -1.864567
v -3.500000 2.565000 -1.864567
vn 1.0000 -0.0000 -0.0000
vn 0.7071 0.7071 -0.0000
vn 0.7071 -0.0000 -0.7071
vn 0.7071 -0.0000 0.7071
vn 0.7071 -0.7071 -0.0000
vn -0.0000 1.0000 -0.0000
vn -0.0000 -0.0000 -1.0000
vn -0.0000 -0.0000 1.0000
vn -0.0000 -1.0000 -0.0000
vt 0.376932 0.258680
vt 0.376932 0.012283
vt 0.389215 0.012283
vt 0.389215 0.258680
vt 0.376932 0.772601
vt 0.389215 0.772601
vt 0.753864 0.258680
vt 0.753864 0.012283
vt 0.766147 0.000000
vt 0.766147 0.258680
vt 0.012283 0.012283
vt 0.012283 0.258680
vt 0.000000 0.258680
vt 0.000000 0.000000
vt 0.753864 0.772601
vt 0.766147 0.784884
vt 0.012283 0.772601
vt 0.000000 0.784884
vt 0.376932 0.000000
vt 0.389215 0.000000
vt 0.389215 0.784884
vt 0.376932 0.784884
vt 0.571540 0.772601
vt 0.577681 0.784884
vt 0.194607 0.772601
vt 0.188466 0.784884
vt 0.571540 0.012283
vt 0.577681 0.000000
vt 0.194607 0.012283
vt 0.195062 0.000000
vt 0.564579 0.765640
vt 0.396175 0.765640
vt 0.401498 0.760318
vt 0.559256 0.760318
vt 0.863183 0.494677
vt 0.863183 0.005323
vt 0.868505 0.000000
vt 0.868505 0.500000
vt 0.873828 0.005323
vt 0.873828 0.494677
vt 0.396175 0.265640
vt 0.564579 0.265640
vt 0.559256 0.270963
vt 0.401498 0.270963
vt 0.187647 0.765640
vt 0.019243 0.765640
vt 0.024566 0.760318
vt 0.182324 0.760318
vt 0.904126 0.494677
vt 0.904126 0.005323
vt 0.909449 0.000000
vt 0.909449 0.500000
vt 0.914771 0.005323
vt 0.914771 0.494677
vt 0.019243 0.265640
vt 0.187647 0.265640
vt 0.182324 0.270963
vt 0.024566 0.270963
vt 0.401498 0.246397
vt 0.559256 0.246397
vt 0.564579 0.251720
vt 0.396175 0.251720
vt 0.863183 0.727154
vt 0.863183 0.505323
vt 0.868505 0.732476
vt 0.894300 0.505323
vt 0.894300 0.727154
vt 0.888977 0.732476
vt 0.888977 0.500000
vt 0.396175 0.019243
vt 0.564579 0.019243
vt 0.559256 0.024566
vt 0.401498 0.024566
vt 0.024566 0.246397
vt 0.182324 0.246397
vt 0.187647 0.251720
vt 0.019243 0.251720
vt 0.924597 0.727154
vt 0.924597 0.505323
vt 0.929920 0.500000
vt 0.929920 0.732476
vt 0.929920 0.732476
vt 0.929920 0.500000
vt 0.935243 0.505323
vt 0.935243 0.727154
vt 0.019243 0.019243
vt 0.187647 0.019243
vt 0.182324 0.024566
vt 0.024566 0.024566
vt 0.583822 0.246397
vt 0.741581 0.246397
vt 0.746904 0.251720
vt 0.578500 0.251720
vt 0.863183 0.959630
vt 0.863183 0.737799
vt 0.868505 0.732476
vt 0.868505 0.964952
vt 0.888977 0.964952
vt 0.888977 0.732476
vt 0.894300 0.737799
vt 0.894300 0.959630
vt 0.578500 0.019243
vt 0.746904 0.019243
vt 0.741581 0.024566
vt 0.583822 0.024566
vt 0.746904 0.765640
vt 0.578500 0.765640
vt 0.583822 0.760318
vt 0.741581 0.760318
vt 0.945069 0.494677
vt 0.945069 0.005323
vt 0.950392 0.000000
vt 0.950392 0.500000
vt 0.955714 0.005323
vt 0.955714 0.494677
vt 0.578500 0.265640
vt 0.746904 0.265640
vt 0.741581 0.270963
vt 0.583822 0.270963
vt 0.206890 0.246397
vt 0.364649 0.246397
vt 0.369972 0.251720
vt 0.201568 0.251720
vt 0.945069 0.959630
vt 0.945069 0.737799
vt 0.950392 0.732476
vt 0.950392 0.964952
vt 0.909449 0.964952
vt 0.909449 0.732476
vt 0.914771 0.737799
vt 0.914771 0.959630
vt 0.201568 0.019243
vt 0.369972 0.019243
vt 0.364649 0.024566
vt 0.206890 0.024566
vt 0.369972 0.765640
vt 0.201568 0.765640
vt 0.206890 0.760318
vt 0.364649 0.760318
vt 0.986012 0.494677
vt 0.986012 0.005323
vt 0.991335 0.000000
vt 0.991335 0.500000
vt 0.868505 1.000000
vt 0.873828 0.505323
vt 0.873828 0.994677
vt 0.201568 0.265640
vt 0.369972 0.265640
vt 0.364649 0.270963
vt 0.206890 0.270963
vt 0.045447 0.784884
vt 0.045447 0.942642
vt 0.030298 0.942642
vt 0.030298 0.784884
vt 0.571540 0.258680
vt 0.848034 0.494677
vt 0.848034 0.005323
vt 0.888977 0.005323
vt 0.888977 0.494677
vt 0.060596 0.784884
vt 0.060596 0.942642
vt 0.166639 0.784884
vt 0.166639 0.942642
vt 0.151490 0.942642
vt 0.151490 0.784884
vt 0.194607 0.258680
vt 0.929920 0.005323
vt 0.929920 0.494677
vt 0.181788 0.784884
vt 0.181788 0.942642
vt 0.075745 0.784884
vt 0.075745 0.942642
vt 0.848034 0.727154
vt 0.848034 0.505323
vt 0.909449 0.505323
vt 0.909449 0.727154
vt 0.090894 0.784884
vt 0.090894 0.942642
vt 0.196937 0.784884
vt 0.196937 0.942642
vt 0.909448 0.727154
vt 0.909448 0.505323
vt 0.950392 0.505323
vt 0.950392 0.727154
vt 0.212086 0.784884
vt 0.212086 0.942642
vt 0.848034 0.959630
vt 0.848034 0.737799
vt 0.106043 0.784884
vt 0.106043 0.942642
vt 0.090894 0.942642
vt 0.090894 0.784884
vt 0.909449 0.737799
vt 0.909449 0.959630
vt 0.121192 0.784884
vt 0.121192 0.942642
vt 0.136341 0.784884
vt 0.136341 0.942642
vt 0.970863 0.005323
vt 0.970863 0.494677
vt 0.151490 0.784884
vt 0.151490 0.942642
vt 0.929920 0.959630
vt 0.929920 0.737799
vt 0.822239 0.766147
vt 0.822239 0.923906
vt 0.807090 0.923906
vt 0.807090 0.766147
vt 0.837388 0.766147
vt 0.837388 0.923906
vt 0.015149 0.784884
vt 0.015149 0.942642
vt 0.000000 0.942642
vt 0.000000 0.784884
vt 0.888977 0.505323
vt 0.888977 0.994677
vt 0.030298 0.784884
vt 0.030298 0.942642
vt 0.827562 0.389215
vt 0.827562 0.571085
vt 0.807090 0.571085
vt 0.807090 0.389215
vt 0.827562 0.188466
vt 0.827562 0.376932
vt 0.807090 0.376932
vt 0.807090 0.195062
vt 0.766147 0.784884
vt 0.766147 0.258680
vt 0.786619 0.258680
vt 0.786619 0.784884
vt 0.827562 0.577681
vt 0.848034 0.389215
vt 0.848034 0.571085
vt 0.807090 0.258680
vt 0.807090 0.784884
vt 0.786619 0.784884
vt 0.786619 0.258680
vt 0.827562 0.766147
vt 0.807090 0.766147
vt 0.848034 0.376932
vt 0.827562 0.188466
vt 0.848034 0.195062
vt 0.848034 0.766147
vt 0.766147 0.000000
vt 0.786619 0.000000
vt 0.827562 -0.000000
vt 0.807090 -0.000000
vt 0.848034 -0.000000
vt 0.807090 0.000000
vt 0.786619 0.000000
s 0
usemtl Wood
f 319/557/36 326/558/36 327/559/36 318/560/36
f 329/561/36 319/557/36 318/560/36 328/562/36
f 320/563/36 321/564/36 312/565/36 310/566/36
f 323/567/36 322/568/36 311/569/36 313/570/36
f 324/571/36 320/563/36 310/566/36 308/572/36
f 322/568/36 325/573/36 309/574/36 311/569/36
f 327/559/36 326/558/36 317/575/36 316/576/36
f 329/561/36 328/562/36 315/577/36 314/578/36
f 330/579/36 324/571/36 308/572/36 333/580/36
f 335/581/36 329/561/36 314/578/36 338/582/36
f 332/583/36 327/559/36 316/576/36 334/584/36
f 337/585/36 323/567/36 313/570/36 339/586/36
f 321/564/36 332/583/36 334/584/36 312/565/36
f 328/562/36 330/579/36 333/580/36 315/577/36
f 326/558/36 337/585/36 339/586/36 317/575/36
f 325/573/36 335/581/36 338/582/36 309/574/36
f 373/587/37 374/588/37 375/589/37 372/590/37
f 372/591/38 378/592/38 379/593/38 373/594/38
f 377/595/39 375/596/39 374/594/39 376/593/39
f 376/597/40 379/598/40 378/599/40 377/600/40
f 381/601/37 382/602/37 383/603/37 380/604/37
f 380/605/38 386/606/38 387/607/38 381/608/38
f 382/608/39 384/607/39 385/609/39 383/610/39
f 384/611/40 387/612/40 386/613/40 385/614/40
f 391/615/37 388/616/37 389/617/37 390/618/37
f 388/619/38 394/620/38 395/594/38 389/621/38
f 393/622/39 391/623/39 390/624/39 392/625/39
f 392/626/40 395/627/40 394/628/40 393/629/40
f 399/630/37 396/631/37 397/632/37 398/633/37
f 396/634/38 402/635/38 403/636/38 397/637/38
f 398/638/39 400/639/39 401/640/39 399/641/39
f 400/642/40 403/643/40 402/644/40 401/645/40
f 407/646/37 404/647/37 405/648/37 406/649/37
f 404/650/38 410/651/38 411/652/38 405/653/38
f 406/654/39 408/655/39 409/656/39 407/657/39
f 408/658/40 411/659/40 410/660/40 409/661/40
f 413/662/37 414/663/37 415/664/37 412/665/37
f 412/666/38 418/667/38 419/668/38 413/669/38
f 414/669/39 416/668/39 417/670/39 415/671/39
f 416/672/40 419/673/40 418/674/40 417/675/40
f 423/676/37 420/677/37 421/678/37 422/679/37
f 420/680/38 426/681/38 427/682/38 421/683/38
f 422/684/39 424/685/39 425/686/39 423/687/39
f 424/688/40 427/689/40 426/690/40 425/691/40
f 429/692/37 430/693/37 431/694/37 428/695/37
f 428/696/38 434/697/38 435/698/38 429/699/38
f 430/700/39 432/594/39 433/701/39 431/702/39
f 432/703/40 435/704/40 434/705/40 433/706/40
f 372/707/41 375/708/41 341/709/41 340/710/41
f 331/711/36 330/579/36 373/587/36 379/598/36
f 330/579/36 328/562/36 374/588/36 373/587/36
f 378/592/42 372/591/42 340/712/42 342/713/42
f 375/596/43 377/595/43 343/714/43 341/715/43
f 328/562/36 318/560/36 376/597/36 374/588/36
f 377/708/44 378/707/44 342/716/44 343/717/44
f 318/560/36 331/711/36 379/598/36 376/597/36
f 335/581/36 325/573/36 382/602/36 381/601/36
f 386/606/42 380/605/42 344/715/42 346/714/42
f 380/718/41 383/719/41 345/720/41 344/721/41
f 336/722/36 335/581/36 381/601/36 387/612/36
f 383/610/43 385/609/43 347/723/43 345/724/43
f 325/573/36 322/568/36 384/611/36 382/602/36
f 385/719/44 386/718/44 346/725/44 347/726/44
f 322/568/36 336/722/36 387/612/36 384/611/36
f 388/727/41 391/728/41 348/717/41 349/716/41
f 332/583/36 331/711/36 389/617/36 395/627/36
f 331/711/36 318/560/36 390/618/36 389/617/36
f 394/620/42 388/619/42 349/729/42 350/730/42
f 391/623/43 393/622/43 351/731/43 348/732/43
f 318/560/36 327/559/36 392/626/36 390/618/36
f 393/728/44 394/727/44 350/733/44 351/734/44
f 327/559/36 332/583/36 395/627/36 392/626/36
f 396/735/41 399/736/41 352/726/41 353/725/41
f 337/585/36 336/722/36 397/632/36 403/643/36
f 336/722/36 322/568/36 398/633/36 397/632/36
f 402/635/42 396/634/42 353/737/42 354/738/42
f 399/641/43 401/640/43 355/739/43 352/740/43
f 322/568/36 323/567/36 400/642/36 398/633/36
f 401/736/44 402/735/44 354/741/44 355/742/44
f 323/567/36 337/585/36 403/643/36 400/642/36
f 320/563/36 331/711/36 406/649/36 405/648/36
f 410/651/42 404/650/42 357/743/42 358/744/42
f 404/745/41 407/746/41 356/747/41 357/748/41
f 321/564/36 320/563/36 405/648/36 411/659/36
f 407/657/43 409/656/43 359/749/43 356/750/43
f 331/711/36 332/583/36 408/658/36 406/649/36
f 409/746/44 410/745/44 358/751/44 359/752/44
f 332/583/36 321/564/36 411/659/36 408/658/36
f 412/753/41 415/754/41 361/752/41 360/751/41
f 320/563/36 324/571/36 413/662/36 419/673/36
f 324/571/36 330/579/36 414/663/36 413/662/36
f 418/667/42 412/666/42 360/724/42 362/723/42
f 415/671/43 417/670/43 363/755/43 361/756/43
f 330/579/36 331/711/36 416/672/36 414/663/36
f 417/754/44 418/753/44 362/757/44 363/758/44
f 331/711/36 320/563/36 419/673/36 416/672/36
f 319/557/36 336/722/36 422/679/36 421/678/36
f 426/681/42 420/680/42 365/759/42 366/760/42
f 420/761/41 423/762/41 364/763/41 365/764/41
f 326/558/36 319/557/36 421/678/36 427/689/36
f 423/687/43 425/686/43 367/760/43 364/759/43
f 336/722/36 337/585/36 424/688/36 422/679/36
f 425/762/44 426/761/44 366/765/44 367/766/44
f 337/585/36 326/558/36 427/689/36 424/688/36
f 428/767/41 431/768/41 369/769/41 368/770/41
f 319/557/36 329/561/36 429/692/36 435/704/36
f 329/561/36 335/581/36 430/693/36 429/692/36
f 434/697/42 428/696/42 368/756/42 370/755/42
f 431/702/43 433/701/43 371/771/43 369/772/43
f 335/581/36 336/722/36 432/703/36 430/693/36
f 433/768/44 434/767/44 370/773/44 371/774/44
f 336/722/36 319/557/36 435/704/36 432/703/36
f 317/775/41 339/776/41 449/777/41 445/778/41
f 334/779/41 316/780/41 444/781/41 447/782/41
f 308/783/43 310/784/43 438/785/43 436/786/43
f 338/787/44 314/775/44 442/788/44 448/789/44
f 311/790/42 309/791/42 437/792/42 439/793/42
f 339/776/41 313/794/41 441/795/41 449/777/41
f 316/780/41 317/775/41 445/778/41 444/781/41
f 314/775/44 315/780/44 443/796/44 442/788/44
f 315/780/44 333/797/44 446/798/44 443/796/44
f 309/794/44 338/787/44 448/789/44 437/799/44
f 310/784/43 312/800/43 440/801/43 438/785/43
f 312/802/41 334/779/41 447/782/41 440/803/41
f 333/797/44 308/802/44 436/804/44 446/798/44
f 313/805/42 311/790/42 439/793/42 441/806/42
o Window2_Frame
v -3.300000 0.648000 -0.376188
v -3.300000 0.648000 -2.434550
v -3.300000 0.648000 -0.469750
v -3.300000 0.648000 -2.340988
v -3.450000 0.648000 -2.340988
v -3.300000 2.565000 -0.469750
v -3.300000 2.565000 -2.340988
v -3.450000 2.565000 -0.469750
v -3.450000 0.648000 -0.469750
v -3.450000 2.565000 -2.340988
v -3.300000 2.660850 -0.376188
v -3.300000 2.660850 -2.434550
v -3.320000 0.648000 -0.376188
v -3.320000 2.660850 -0.376188
v -3.320000 2.660850 -2.434550
v -3.320000 0.648000 -2.434550
vn 1.0000 -0.0000 -0.0000
vn -0.0000 -0.0000 -1.0000
vn -0.0000 -1.0000 -0.0000
vn -0.0000 -0.0000 1.0000
vn -0.0000 1.0000 -0.0000
vt -0.424014 1.149660
vt 1.095696 1.149660
vt 1.095696 1.223831
vt -0.500000 1.223831
vt 1.214609 -0.407944
vt 1.214609 1.111766
vt 1.095696 1.111766
vt 1.095696 -0.407944
vt 1.333522 1.075488
vt 1.333522 -0.407944
vt 1.452435 -0.407944
vt 1.452435 1.075488
vt 1.214609 -0.407944
vt 1.333522 -0.407944
vt 1.333522 1.111766
vt 1.214609 1.111766
vt -0.424014 -0.333772
vt -0.500000 -0.407944
vt 1.095696 -0.407944
vt 1.095696 -0.333772
vt 1.484145 -0.407944
vt 1.484145 1.187752
vt 1.468290 1.187752
vt 1.468290 -0.407944
vt 1.468290 1.223831
vt 1.452435 1.223831
vt 1.452435 -0.407944
vt 1.484145 1.187752
vt 1.500000 -0.407944
vt 1.500000 1.187752
s 0
usemtl Wood
f 456/807/45 453/808/45 451/809/45 461/810/45
f 455/811/46 452/812/46 458/813/46 457/814/46
f 456/815/47 455/816/47 457/817/47 459/818/47
f 456/819/48 459/820/48 454/821/48 453/822/48
f 455/823/45 456/807/45 461/810/45 460/824/45
f 450/825/45 452/826/45 455/823/45 460/824/45
f 461/827/46 451/828/46 465/829/46 464/830/46
f 460/830/49 461/831/49 464/832/49 463/833/49
f 450/834/48 460/827/48 463/835/48 462/836/48
o Window3
v 1.200000 2.430000 -3.150000
v -0.375000 2.430000 -3.150000
v -0.375000 1.933200 -3.150000
v 1.200000 1.933200 -3.150000
v 0.675000 2.430000 -3.150000
v 0.675000 2.430000 -3.100000
v 0.675000 1.933200 -3.150000
v -0.345000 2.400000 -3.150000
v -0.345000 1.963200 -3.150000
v 0.645000 1.963200 -3.150000
v 0.645000 2.400000 -3.150000
v 0.675000 1.933200 -3.100000
v -0.345000 2.400000 -3.100000
v -0.345000 1.963200 -3.100000
v 0.645000 2.400000 -3.100000
v 0.645000 1.963200 -3.100000
v -0.375000 2.430000 -3.100000
v -0.375000 1.933200 -3.100000
v 1.200000 1.933200 -3.200000
v 1.200000 2.430000 -3.200000
v 0.675000 1.933200 -3.200000
v 0.675000 1.933200 -3.150000
v 0.675000 2.430000 -3.200000
v 1.170000 2.400000 -3.150000
v 0.705000 2.400000 -3.150000
v 0.705000 2.400000 -3.200000
v 1.200000 2.430000 -3.150000
v 0.675000 2.430000 -3.150000
v 0.705000 1.963200 -3.200000
v 1.170000 1.963200 -3.200000
v 0.705000 1.963200 -3.150000
v 1.170000 1.963200 -3.150000
v 1.200000 1.933200 -3.150000
v 1.170000 2.400000 -3.200000
vn -0.0000 1.0000 -0.0000
vn 1.0000 -0.0000 -0.0000
vn -1.0000 -0.0000 -0.0000
vn -0.0000 -1.0000 -0.0000
vn -0.0000 -0.0000 1.0000
vt 0.442500 1.000000
vt 0.607500 1.000000
vt 0.607500 1.000000
vt 0.000000 0.000000
vt 0.437500 1.000000
vt 0.612500 1.000000
vt 0.700000 1.000000
vt 0.617500 1.000000
vt 0.695000 1.000000
vt 0.700000 1.000000
vt 0.695000 1.000000
s 0
usemtl Wood
f 474/837/50 479/837/50 481/838/50 475/838/50
f 474/837/51 473/837/51 478/837/51 479/837/51
f 476/839/52 475/838/52 481/838/52 480/839/52
f 473/837/53 476/839/53 480/839/53 478/837/53
f 470/840/50 467/840/50 482/840/50 471/840/50
f 482/841/54 483/841/54 479/837/54 478/837/54
f 482/841/54 478/837/54 480/839/54 471/842/54
f 477/842/54 471/842/54 480/839/54 481/838/54
f 483/841/54 477/842/54 481/838/54 479/837/54
f 467/840/52 468/840/52 483/840/52 482/840/52
f 468/840/53 472/840/53 477/840/53 483/840/53
f 477/840/50 472/840/50 486/840/50 487/840/50
f 471/842/51 477/842/51 487/842/51 493/842/51
f 469/840/52 466/840/52 485/840/52 484/840/52
f 466/840/53 470/840/53 488/840/53 485/840/53
f 472/840/50 469/840/50 484/840/50 486/840/50
f 470/840/50 471/840/50 493/840/50 488/840/50
f 492/843/54 493/842/54 490/844/54 489/845/54
f 491/844/53 499/845/53 489/845/53 490/844/53
f 485/840/50 488/840/50 493/840/50 492/840/50
f 488/840/52 486/840/52 487/840/52 493/840/52
f 498/846/54 492/843/54 489/845/54 497/847/54
f 493/842/54 487/842/54 496/844/54 490/844/54
f 487/842/54 498/846/54 497/847/54 496/844/54
f 486/840/53 484/840/53 498/840/53 487/840/53
f 499/845/52 495/847/52 497/847/52 489/845/52
f 494/844/51 491/844/51 490/844/51 496/844/51
f 484/840/51 485/840/51 492/840/51 498/840/51
f 495/847/50 494/844/50 496/844/50 497/847/50
o Window3_Frame
v 1.257500 2.479680 -3.000000
v -0.375000 2.430000 -3.000000
v 1.200000 2.430000 -3.000000
v 1.200000 2.430000 -3.150000
v -0.375000 2.430000 -3.150000
v -0.375000 1.933200 -3.000000
v 1.200000 1.933200 -3.000000
v -0.375000 1.933200 -3.150000
v 1.200000 1.933200 -3.150000
v 1.257500 1.883520 -3.000000
v -0.432500 1.883520 -3.000000
v -0.432500 2.479680 -3.000000
v -0.375000 2.430000 -3.000000
v -0.375000 2.430000 -3.150000
v -0.375000 1.933200 -3.000000
v -0.375000 1.933200 -3.150000
vn -0.0000 1.0000 -0.0000
vn -0.0000 -0.0000 1.0000
vn -0.0000 -1.0000 -0.0000
vn -1.0000 -0.0000 -0.0000
vn 1.0000 -0.0000 -0.0000
vt 0.396000 -0.500000
vt 0.573515 -0.500000
vt 0.573515 1.363905
vt 0.396000 1.363905
vt 0.337207 -0.431953
vt -0.250722 -0.431953
vt -0.309515 -0.500000
vt 0.573515 1.363905
vt 0.573515 -0.500000
vt 0.751030 -0.500000
vt 0.751029 1.363905
vt 0.928544 0.087929
vt 0.751029 0.087929
vt 0.751029 -0.500000
vt 0.928544 -0.500000
vt 0.337207 1.431953
vt 0.396000 1.500000
vt -0.250722 1.431953
vt -0.309515 1.500000
vt 0.751029 0.675858
vt 0.751029 0.087929
vt 0.928544 0.087929
vt 0.928544 0.675858
s 0
usemtl Wood
f 506/848/55 508/849/55 507/850/55 505/851/55
f 505/852/56 501/853/56 511/854/56 510/848/56
f 502/855/57 501/856/57 504/857/57 503/858/57
f 508/859/58 506/860/58 502/861/58 503/862/58
f 506/863/56 505/852/56 510/848/56 509/864/56
f 502/865/56 506/863/56 509/864/56 500/866/56
f 501/853/56 502/865/56 500/866/56 511/854/56
f 515/867/59 513/868/59 512/869/59 514/870/59
o Floor
v -3.000000 0.000000 3.000000
v 0.000000 0.000000 3.000000
v 0.000000 0.000000 1.300000
v 0.000000 0.000000 2.650000
v 0.300000 0.000000 1.300000
v 0.300000 0.000000 2.650000
v 0.000000 0.000000 0.730000
v -3.000000 0.000000 -3.000000
v -3.000000 0.000000 -2.550000
v -3.300000 0.000000 -0.255000
v -3.000000 0.000000 -0.255000
v -3.300000 0.000000 -2.550000
v -3.000000 0.000000 0.490000
v 0.000000 0.000000 0.490000
v 0.000000 0.000000 0.000000
v 1.500000 0.000000 0.000000
v 1.500000 0.000000 -3.000000
v -3.000000 0.000000 0.730000
v -0.770000 0.000000 0.730000
v -0.770000 0.000000 0.490000
v -1.585000 0.000000 0.730000
v -1.585000 0.000000 0.490000
v -0.200000 0.000000 2.800000
v -0.200000 0.000000 2.450000
v -2.800000 0.000000 -2.800000
v -2.800000 0.000000 -2.350000
v -3.100000 0.000000 -0.455000
v -2.800000 0.000000 -0.455000
v -3.100000 0.000000 -2.350000
v 0.100000 0.000000 1.500000
v -0.200000 0.000000 1.500000
v 0.100000 0.000000 2.450000
v -0.200000 0.000000 0.930000
v -0.200000 0.000000 0.290000
v -0.200000 0.000000 -0.200000
v 1.300000 0.000000 -0.200000
v -2.800000 0.000000 0.290000
v 1.300000 0.000000 -2.800000
v -2.800000 0.000000 2.800000
v -1.177500 0.000000 2.800000
v -2.800000 0.000000 0.930000
v -1.177500 0.000000 -2.800000
v -1.177500 0.000000 0.930000
v -1.177500 0.000000 0.290000
v -1.177500 0.000000 -3.000000
v -1.177500 0.000000 3.000000
v -0.200000 0.000000 -2.800000
v -0.200000 0.000000 -3.000000
v -1.177500 0.000000 -0.200000
v -2.800000 0.000000 -0.200000
v -1.177500 0.000000 -0.455000
v -0.200000 0.000000 -0.455000
v 1.300000 0.000000 -0.455000
v -0.200000 0.000000 -2.350000
v 1.500000 0.000000 -2.350000
v 1.300000 0.000000 -2.350000
v -1.177500 0.000000 -2.350000
v 1.500000 0.000000 -0.455000
v -3.000000 0.000000 -0.200000
v -2.800000 0.000000 1.500000
v -1.177500 0.000000 1.500000
v -3.000000 0.000000 1.500000
v -2.800000 0.000000 2.450000
v -3.000000 0.000000 2.450000
v -1.177500 0.000000 2.450000
vn -0.0000 1.0000 -0.0000
vt 1.033333 0.183333
vt 1.033333 0.500000
vt 0.933333 0.500000
vt 0.933333 0.183333
vt 0.933333 0.066667
vt 1.000000 0.000000
vt 1.000000 0.116667
vt 0.066667 1.783333
vt 0.066667 1.933333
vt 0.000000 2.000000
vt 0.000000 1.850000
vt 0.066667 1.151667
vt -0.033333 1.151667
vt -0.100000 1.085000
vt 0.000000 1.085000
vt -0.033333 1.783333
vt -0.100000 1.850000
vt 1.100000 0.566667
vt 1.000000 0.566667
vt 1.100000 0.116667
vt 0.933333 0.690000
vt 1.000000 0.756667
vt 0.933333 1.066667
vt 0.933333 0.903333
vt 1.000000 0.836667
vt 1.000000 1.000000
vt 1.433333 1.066667
vt 1.500000 1.000000
vt 0.066667 0.903333
vt 0.066667 1.066667
vt 0.000000 1.066667
vt 0.000000 0.836667
vt 1.433333 1.933333
vt 1.433333 1.783333
vt 1.500000 1.783333
vt 1.500000 2.000000
vt 0.607500 0.066667
vt 0.607500 0.000000
vt 0.607500 1.933333
vt 0.607500 2.000000
vt 0.607500 0.903333
vt 0.471667 0.836667
vt 0.066667 0.066667
vt 0.066667 0.183333
vt 0.000000 0.183333
vt 0.000000 0.000000
vt 0.066667 0.690000
vt 0.607500 0.690000
vt 0.471667 0.756667
vt 0.000000 0.756667
vt 0.743333 0.756667
vt 0.743333 0.836667
vt 0.607500 1.066667
vt 0.607500 1.783333
vt 0.933333 1.783333
vt 0.933333 1.933333
vt 0.607500 0.183333
vt 0.933333 2.000000
vt 0.607500 0.500000
vt 0.607500 1.151667
vt 0.933333 1.151667
vt 1.433333 1.151667
vt 1.500000 1.151667
vt 0.066667 0.500000
vt 0.000000 0.500000
s 0
usemtl Floor
f 547/871/60 545/872/60 546/873/60 539/874/60
f 539/874/60 538/875/60 517/876/60 519/877/60
f 541/878/60 540/879/60 523/880/60 524/881/60
f 543/882/60 542/883/60 525/884/60 526/885/60
f 544/886/60 541/878/60 524/881/60 527/887/60
f 546/873/60 545/872/60 520/888/60 518/889/60
f 547/871/60 539/874/60 519/877/60 521/890/60
f 548/891/60 546/873/60 518/889/60 522/892/60
f 550/893/60 549/894/60 529/895/60 530/896/60
f 551/897/60 550/893/60 530/896/60 531/898/60
f 552/899/60 565/900/60 574/901/60 528/902/60
f 553/903/60 571/904/60 570/905/60 532/906/60
f 542/883/60 544/886/60 527/887/60 525/884/60
f 538/875/60 555/907/60 561/908/60 517/876/60
f 545/872/60 547/871/60 521/890/60 520/888/60
f 540/879/60 557/909/60 560/910/60 523/880/60
f 559/911/60 552/899/60 528/902/60 537/912/60
f 554/913/60 578/914/60 579/915/60 516/916/60
f 556/917/60 558/918/60 536/919/60 533/920/60
f 559/911/60 558/918/60 534/921/60 535/922/60
f 549/894/60 559/911/60 535/922/60 529/895/60
f 558/918/60 559/911/60 537/912/60 536/919/60
f 548/891/60 522/892/60 534/921/60 558/918/60
f 559/911/60 564/923/60 565/900/60 552/899/60
f 557/909/60 572/924/60 569/925/60 562/926/60
f 561/908/60 555/907/60 554/913/60 516/916/60
f 555/907/60 580/927/60 578/914/60 554/913/60
f 560/910/60 557/909/60 562/926/60 563/928/60
f 562/926/60 569/925/60 571/904/60 553/903/60
f 539/874/60 546/873/60 576/929/60 580/927/60
f 563/928/60 562/926/60 553/903/60 532/906/60
f 543/882/60 541/878/60 544/886/60 542/883/60
f 550/893/60 564/923/60 559/911/60 549/894/60
f 565/900/60 564/923/60 566/930/60 543/882/60
f 567/931/60 566/930/60 564/923/60 550/893/60
f 543/882/60 566/930/60 572/924/60 541/878/60
f 568/932/60 567/931/60 550/893/60 551/897/60
f 541/878/60 572/924/60 557/909/60 540/879/60
f 571/904/60 569/925/60 567/931/60 568/932/60
f 569/925/60 572/924/60 566/930/60 567/931/60
f 570/905/60 571/904/60 568/932/60 573/933/60
f 573/933/60 568/932/60 551/897/60 531/898/60
f 574/901/60 565/900/60 543/882/60 526/885/60
f 575/934/60 576/929/60 558/918/60 556/917/60
f 577/935/60 575/934/60 556/917/60 533/920/60
f 576/929/60 546/873/60 548/891/60 558/918/60
f 578/914/60 580/927/60 576/929/60 575/934/60
f 579/915/60 578/914/60 575/934/60 577/935/60
f 580/927/60 555/907/60 538/875/60 539/874/60
o Baseboard
v -3.000000 0.000000 3.000000
v 0.000000 0.000000 3.000000
v 0.000000 0.000000 1.300000
v 0.000000 0.000000 2.650000
v 0.300000 0.000000 1.300000
v 0.300000 0.000000 2.650000
v 0.000000 0.000000 0.730000
v 0.300000 0.000000 2.501168
v 0.300000 0.000000 1.447481
v -3.000000 0.000000 -3.000000
v -3.000000 0.000000 -2.550000
v -3.300000 0.000000 -0.255000
v -3.000000 0.000000 -0.255000
v -3.300000 0.000000 -2.550000
v -3.000000 0.000000 0.490000
v 0.000000 0.000000 0.490000
v 0.000000 0.000000 0.000000
v 1.500000 0.000000 0.000000
v 1.500000 0.000000 -3.000000
v -3.300000 0.000000 -0.376189
v -3.300000 0.000000 -2.434550
v 0.000000 0.139725 3.000000
v 0.000000 0.139725 0.490000
v -1.605000 0.139725 0.710000
v 1.500000 0.139725 0.000000
v 1.500000 0.139725 -3.000000
v -3.300000 0.139725 -0.255000
v 0.000000 0.139725 2.650000
v 0.000000 0.139725 0.000000
v -3.000000 0.139725 -3.000000
v -3.000000 0.139725 -2.550000
v -3.300000 0.139725 -2.550000
v -3.000000 0.139725 -0.255000
v -0.750000 0.139725 0.510000
v -1.605000 0.139725 0.510000
v 0.300000 0.139725 1.300000
v -3.000000 0.139725 3.000000
v -3.020000 0.139725 0.710000
v 0.300000 0.139725 1.447481
v -0.750000 0.139725 0.710000
v 0.300000 0.139725 2.501168
v 0.300000 0.139725 2.650000
v 0.000000 0.139725 1.300000
v -3.300000 0.139725 -0.376188
v -3.300000 0.139725 -2.434550
v 0.020000 0.139725 3.020000
v -3.020000 0.139725 -2.570000
v -3.320000 0.139725 -2.570000
v -3.020000 0.139725 -0.235000
v -3.020000 0.139725 3.020000
v 0.320000 0.139725 1.447481
v 0.320000 0.139725 2.501168
v 0.320000 0.139725 2.670000
v 0.020000 0.139725 1.280000
v 0.020000 0.139725 0.510000
v 0.020000 0.139725 0.710000
v -3.020000 0.139725 0.510000
v 1.520000 0.139725 0.020000
v 1.520000 0.139725 -3.020000
v -3.320000 0.139725 -0.235000
v 0.020000 0.139725 2.670000
v 0.020000 0.139725 0.020000
v -3.020000 0.139725 -3.020000
v 0.320000 0.139725 1.280000
v -3.320000 0.139725 -0.376188
v -3.320000 0.139725 -2.434550
v -3.000000 0.000000 0.730000
v 0.000000 0.139725 0.730000
v -3.000000 0.139725 0.730000
v -3.000000 0.139725 0.490000
v -0.770000 0.000000 0.730000
v -0.770000 0.000000 0.490000
v -0.770000 0.139725 0.730000
v -0.770000 0.139725 0.490000
v -1.585000 0.000000 0.730000
v -1.585000 0.000000 0.490000
v -1.585000 0.139725 0.730000
v -1.585000 0.139725 0.490000
vn 1.0000 -0.0000 -0.0000
vn -0.0000 -0.0000 1.0000
vn -0.0000 1.0000 -0.0000
vn -1.0000 -0.0000 -0.0000
vn -0.0000 -0.0000 -1.0000
vt 1.236687 -0.459871
vt 1.236687 -0.500000
vt 1.282953 -0.500000
vt 1.282953 -0.459871
vt 1.329220 0.753311
vt 1.329220 0.653973
vt 1.375486 0.653973
vt 1.375486 0.753311
vt 1.236687 0.259934
vt 1.236687 0.221705
vt 1.282953 0.221705
vt 1.282953 0.259934
vt 0.640842 0.337748
vt 0.647465 0.331126
vt 0.647465 0.493377
vt 0.640842 0.500000
vt -0.352535 1.493377
vt 1.137531 1.493377
vt 1.144153 1.500000
vt -0.359158 1.500000
vt 1.282953 0.158940
vt 1.282953 -0.003311
vt 1.329220 -0.003311
vt 1.329220 0.158940
vt -0.352535 -0.493378
vt -0.359158 -0.500000
vt 0.647465 -0.500000
vt 0.640842 -0.493378
vt 1.329220 1.060872
vt 1.329220 1.011590
vt 1.375486 1.011590
vt 1.375486 1.060872
vt 1.329220 1.109706
vt 1.329220 1.060872
vt 1.375486 1.060871
vt 1.375486 1.109706
vt 1.329220 0.455298
vt 1.375487 0.455298
vt 1.375487 0.554636
vt 1.329220 0.554636
vt 1.375486 0.339404
vt 1.329220 0.339404
vt 1.329220 0.190397
vt 1.375486 0.190397
vt 1.329220 0.753311
vt 1.375486 0.753311
vt 1.375486 0.852649
vt 1.329220 0.852649
vt 1.329220 0.339404
vt 1.375486 0.339404
vt 1.375486 0.455298
vt 1.329220 0.455298
vt 1.236687 -0.500000
vt 1.236687 0.493377
vt 1.190420 0.493377
vt 1.190420 -0.500000
vt 1.329220 0.554636
vt 1.375486 0.554636
vt 1.375486 0.653974
vt 1.329220 0.653974
vt -0.352535 0.258278
vt -0.359158 0.264901
vt 1.329220 -0.500000
vt 1.282953 -0.500000
vt -0.352535 0.337748
vt -0.352535 0.584437
vt -0.359158 0.577815
vt -0.359158 0.331126
vt 0.740180 -0.328201
vt 0.740180 -0.377483
vt 0.746802 -0.384106
vt 0.746802 -0.328201
vt 1.329220 -0.245033
vt 1.375486 -0.245033
vt 1.375486 0.001656
vt 1.329220 0.001656
vt 1.137531 0.500000
vt 1.144153 0.493377
vt 1.282953 1.011589
vt 1.236687 1.011589
vt 0.640842 0.069536
vt 0.740180 0.069536
vt 0.746802 0.076159
vt 0.647465 0.076159
vt 0.640842 -0.377483
vt 0.647465 -0.384106
vt -0.451873 0.584437
vt -0.458496 0.577815
vt -0.352535 1.344371
vt -0.359158 1.350993
vt 1.190420 1.486755
vt 1.190420 0.493377
vt 1.236687 0.493377
vt 1.236687 1.486755
vt -0.451873 0.624566
vt -0.451873 1.306142
vt -0.458496 1.306142
vt -0.458496 0.624566
vt 1.144153 -0.500000
vt 1.190420 -0.500000
vt 1.190420 0.990066
vt 1.144153 0.990066
vt 0.740180 0.020702
vt 0.746802 0.020702
vt -0.451873 1.344371
vt -0.458496 1.350993
vt 1.375486 -0.500000
vt 1.375486 -0.245033
vt 1.329220 -0.245033
vt 1.329220 -0.500000
vt 1.329220 0.627483
vt 1.282953 0.627483
vt 1.282953 0.158940
vt 1.329220 0.158940
vt 0.109385 0.264901
vt 0.116008 0.258278
vt 1.329220 1.096027
vt 1.329220 1.350993
vt 1.282953 1.350993
vt 1.282953 1.096027
vt 1.282953 0.627483
vt 1.329220 0.627483
vt 0.640842 0.258278
vt 0.647465 0.264901
vt 0.392498 0.264901
vt 0.385875 0.258278
vt 0.109385 0.331126
vt 0.116008 0.337748
vt 1.329220 0.190397
vt 1.329220 0.001656
vt 1.375486 0.001656
vt 1.375486 0.190397
vt 0.392498 0.331126
vt 0.385875 0.337748
vt 1.375486 1.011589
vt 1.329220 1.011589
vt 1.329220 0.932119
vt 1.375486 0.932119
vt 1.329220 0.852649
s 0
usemtl Wood
f 624/936/61 607/937/61 592/938/61 600/939/61
f 611/940/62 612/941/62 594/942/62 591/943/62
f 612/944/61 625/945/61 601/946/61 594/947/61
f 603/948/63 635/949/63 642/950/63 609/951/63
f 610/952/63 606/953/63 639/954/63 643/955/63
f 624/936/61 600/939/61 601/946/61 625/945/61
f 603/956/64 609/957/64 597/958/64 596/959/64
f 617/960/63 630/961/63 626/962/63 602/963/63
f 622/964/64 621/965/64 588/966/64 586/967/64
f 585/968/64 589/969/64 619/970/64 616/971/64
f 584/972/65 608/973/65 622/974/65 586/975/65
f 590/976/61 610/977/61 611/978/61 591/979/61
f 592/980/65 607/981/65 613/982/65 593/983/65
f 582/984/64 602/985/64 608/986/64 584/987/64
f 599/988/64 598/989/64 605/990/64 606/991/64
f 585/992/62 616/993/62 623/994/62 583/995/62
f 649/996/63 618/997/63 630/961/63 617/960/63
f 598/998/65 597/958/65 609/957/65 605/999/65
f 650/1000/63 613/1001/63 629/1002/63 637/1003/63
f 621/1004/63 622/1005/63 633/1006/63 632/1007/63
f 593/1008/61 613/1009/61 650/1010/61 595/1011/61
f 605/1012/63 609/951/63 642/950/63 638/1013/63
f 581/947/61 647/1014/61 649/1015/61 617/944/61
f 623/1016/63 616/1017/63 644/1018/63 634/1019/63
f 606/953/63 605/1012/63 638/1013/63 639/954/63
f 608/1020/63 602/963/63 626/962/63 641/1021/63
f 613/1001/63 607/1022/63 640/1023/63 629/1002/63
f 611/1024/63 610/952/63 643/955/63 627/1025/63
f 622/1005/63 608/1020/63 641/1021/63 633/1006/63
f 617/1026/65 602/1027/65 582/1028/65 581/1029/65
f 624/1030/63 625/1031/63 646/1032/63 645/1033/63
f 610/1034/62 590/1035/62 599/1036/62 606/1037/62
f 616/1017/63 619/1038/63 631/1039/63 644/1018/63
f 625/1031/63 612/1040/63 628/1041/63 646/1032/63
f 612/1040/63 611/1024/63 627/1025/63 628/1041/63
f 607/1022/63 624/1030/63 645/1033/63 640/1023/63
f 648/1042/62 653/1043/62 651/1044/62 587/1045/62
f 655/1046/62 657/1047/62 649/1048/62 647/1049/62
f 604/1050/63 618/997/63 649/996/63 657/1051/63
f 654/1052/65 603/1053/65 596/1054/65 652/1055/65
f 595/1052/65 650/1055/65 658/1056/65 656/1057/65
f 648/1058/63 636/1059/63 620/1060/63 653/1061/63
f 615/1062/63 658/1063/63 650/1000/63 637/1003/63
f 636/1059/63 648/1058/63 623/1016/63 634/1019/63
f 587/1064/64 583/1065/64 623/1066/64 648/1067/64
f 614/1068/63 635/949/63 603/948/63 654/1069/63
f 651/1070/64 653/1071/64 654/1072/64 652/1073/64
f 620/1060/63 614/1068/63 654/1069/63 653/1061/63
f 656/1074/61 658/982/61 657/1073/61 655/1072/61
f 615/1062/63 604/1050/63 657/1051/63 658/1063/63
o Window2_Slab
v -3.300000 0.558900 -0.376188
v -3.300000 0.558900 -2.434550
v -3.300000 0.648000 -0.376188
v -3.300000 0.648000 -2.434550
v -3.200000 0.558900 -0.376188
v -3.200000 0.648000 -0.376188
v -3.200000 0.558900 -2.434550
v -3.200000 0.648000 -2.434550
v -3.300000 0.648000 -0.469750
v -3.300000 0.648000 -2.340988
v -3.450000 0.648000 -2.340988
v -3.450000 0.648000 -0.469750
v -3.320000 0.648000 -0.376188
v -3.320000 0.558900 -0.376188
v -3.320000 0.558900 -2.434550
v -3.320000 0.648000 -2.434550
vn -0.0000 1.0000 -0.0000
vn -0.0000 -1.0000 -0.0000
vn -0.0000 -0.0000 -1.0000
vn -0.0000 -0.0000 1.0000
vn 1.0000 -0.0000 -0.0000
vn -1.0000 -0.0000 -0.0000
vt 0.291721 4.000000
vt 0.291721 0.000000
vt 0.486050 0.000000
vt 0.486050 4.000000
vt 0.680379 0.000000
vt 0.680379 4.000000
vt 1.238687 0.000000
vt 1.238687 0.194329
vt 1.065540 0.194329
vt 1.065540 0.000000
vt 1.065540 0.466390
vt 1.065540 0.272061
vt 1.238687 0.272061
vt 1.238687 0.466390
vt 1.065540 0.000000
vt 1.065540 4.000000
vt 0.892393 3.999999
vt 0.892393 0.000000
vt 0.000228 3.818181
vt 0.000228 0.181818
vt 0.291721 0.181818
vt 0.291721 3.818181
vt 0.892393 0.000000
vt 0.892393 4.000000
vt 0.719245 4.000000
vt 0.719245 3.818182
vt 0.719246 0.181819
vt 0.719246 0.000000
vt 1.238687 0.233195
vt 1.065540 0.233195
vt 0.719245 0.000000
vt 0.719245 4.000000
s 0
usemtl Slab
f 662/1075/66 661/1076/66 664/1077/66 666/1078/66
f 659/1079/67 660/1080/67 665/1078/67 663/1077/67
f 665/1081/68 660/1082/68 662/1083/68 666/1084/68
f 664/1085/69 661/1086/69 659/1087/69 663/1088/69
f 663/1089/70 665/1090/70 666/1091/70 664/1092/70
f 669/1093/66 670/1094/66 667/1095/66 668/1096/66
f 661/1076/66 662/1075/66 668/1096/66 667/1095/66
f 660/1097/71 659/1098/71 661/1099/71 667/1100/71 668/1101/71 662/1102/71
f 673/1103/68 674/1104/68 662/1083/68 660/1082/68
f 659/1079/67 672/1105/67 673/1106/67 660/1080/67
f 672/1103/69 659/1087/69 661/1086/69 671/1104/69
o Door_Handle
v 0.300000 1.059410 2.341907
v 0.300000 1.099410 2.361907
v 0.300000 1.059410 2.381907
v 0.300000 0.989410 2.341907
v 0.300000 0.989410 2.381907
v 0.300000 0.949410 2.361907
v 0.287000 1.066443 2.361907
v 0.287000 1.092377 2.361907
v 0.287000 1.099410 2.361907
v 0.287000 1.059410 2.381907
v 0.287000 1.059410 2.341907
v 0.287000 1.059410 2.361907
v 0.287000 0.989410 2.381907
v 0.287000 0.989410 2.361907
v 0.287000 0.989410 2.341907
v 0.287000 0.949410 2.361907
v 0.287000 1.092377 2.348940
v 0.287000 1.066443 2.374873
v 0.287000 1.092377 2.374873
v 0.287000 1.066443 2.348940
v 0.287000 0.982377 2.361907
v 0.287000 0.982377 2.374873
v 0.287000 0.982377 2.348940
v 0.287000 0.956443 2.348940
v 0.287000 0.956443 2.361907
v 0.287000 0.956443 2.374873
v 0.267000 1.066443 2.361907
v 0.267000 1.092377 2.361907
v 0.257000 1.066443 2.348940
v 0.257000 1.092377 2.348940
v 0.257000 1.066443 2.361907
v 0.257000 1.066443 2.374873
v 0.257000 1.092377 2.374873
v 0.257000 1.092377 2.361907
v 0.267000 1.066443 2.248940
v 0.267000 1.092377 2.248940
v 0.257000 1.066443 2.248940
v 0.257000 1.092377 2.248940
v 0.287000 1.066443 2.358308
v 0.287000 1.075811 2.348940
v 0.287000 1.067698 2.353624
v 0.287000 1.071127 2.350195
v 0.287000 1.092377 2.365505
v 0.287000 1.083009 2.374873
v 0.287000 1.091121 2.370189
v 0.287000 1.087692 2.373618
v 0.300000 1.090042 2.341907
v 0.300000 1.099410 2.351275
v 0.300000 1.094726 2.343162
v 0.300000 1.098155 2.346591
v 0.300000 1.099410 2.372539
v 0.300000 1.090042 2.381907
v 0.300000 1.098155 2.377223
v 0.300000 1.094726 2.380652
v 0.287000 1.075811 2.374873
v 0.287000 1.066443 2.365505
v 0.287000 1.071127 2.373618
v 0.287000 1.067698 2.370189
v 0.300000 0.949410 2.351274
v 0.300000 0.958778 2.341907
v 0.300000 0.950665 2.346591
v 0.300000 0.954094 2.343162
v 0.300000 0.958778 2.381907
v 0.300000 0.949410 2.372539
v 0.300000 0.954094 2.380651
v 0.300000 0.950665 2.377223
v 0.287000 1.083009 2.348940
v 0.287000 1.092377 2.358308
v 0.287000 1.087692 2.350195
v 0.287000 1.091121 2.353624
v 0.287000 1.099410 2.351275
v 0.287000 1.090042 2.341907
v 0.287000 1.092786 2.348531
v 0.287000 1.098155 2.346591
v 0.287000 1.094726 2.343162
v 0.287000 1.090042 2.381907
v 0.287000 1.099410 2.372539
v 0.287000 1.092786 2.375283
v 0.287000 1.094726 2.380652
v 0.287000 1.098155 2.377223
v 0.287000 0.958778 2.341907
v 0.287000 0.949410 2.351274
v 0.287000 0.956034 2.348531
v 0.287000 0.954094 2.343162
v 0.287000 0.950665 2.346591
v 0.287000 0.949410 2.372539
v 0.287000 0.958778 2.381907
v 0.287000 0.956034 2.375282
v 0.287000 0.950665 2.377223
v 0.287000 0.954094 2.380651
v 0.267000 1.075811 2.348940
v 0.267000 1.066443 2.358308
v 0.267000 1.066443 2.348940
v 0.267000 1.071127 2.350195
v 0.267000 1.067698 2.353624
v 0.267000 1.092377 2.358308
v 0.267000 1.083009 2.348940
v 0.267000 1.092377 2.348940
v 0.267000 1.091121 2.353624
v 0.267000 1.087692 2.350195
v 0.267000 1.066443 2.365505
v 0.267000 1.075811 2.374873
v 0.267000 1.067698 2.370189
v 0.267000 1.071127 2.373618
v 0.267000 1.083009 2.374873
v 0.267000 1.092377 2.365505
v 0.267000 1.087692 2.373618
v 0.267000 1.091121 2.370189
vn -0.0000 -0.0000 1.0000
vn -0.0000 -0.0000 -1.0000
vn -1.0000 -0.0000 -0.0000
vn -0.0000 -1.0000 -0.0000
vn 1.0000 -0.0000 -0.0000
vn 0.2357 -0.9387 0.2515
vn 0.3872 -0.6519 0.6520
vn 0.2356 -0.2515 0.9387
vn 0.2356 0.2515 0.9387
vn 0.3872 0.6519 0.6520
vn 0.2357 0.9387 0.2515
vn -0.0000 0.9659 0.2588
vn -0.0000 0.7071 0.7071
vn -0.0000 0.2588 0.9659
vn -0.0000 0.2588 -0.9659
vn -0.0000 0.7071 -0.7071
vn -0.0000 0.9659 -0.2588
vn -0.0000 -0.2588 0.9659
vn -0.0000 -0.7071 0.7071
vn -0.0000 -0.9659 0.2588
vn -0.0000 -0.9659 -0.2588
vn -0.0000 -0.7071 -0.7071
vn -0.0000 -0.2588 -0.9659
vn -0.0000 1.0000 -0.0000
vt 0.500000 0.145209
vt 0.500000 0.145145
vt 0.500000 0.149307
vt 0.500000 0.149365
vt 0.500000 0.147225
vt 0.500000 0.147287
vt 0.500000 0.147293
vt 0.500000 0.147314
vt 0.500000 0.145968
vt 0.500000 0.145945
vt 0.500000 0.147221
vt 0.500000 0.148571
vt 0.500000 0.149307
vt 0.500000 0.145872
vt 0.500000 0.148640
vt 0.500000 0.148661
vt 0.500000 0.148559
vt 0.500000 0.148571
vt 0.500000 0.147208
vt 0.500000 0.145872
vt 0.500000 0.145855
vt 0.500000 0.147596
vt 0.500000 0.148084
vt 0.500000 0.148441
vt 0.500000 0.146832
vt 0.500000 0.146344
vt 0.500000 0.145986
vt 0.500000 0.145866
vt 0.500000 0.145869
vt 0.500000 0.145871
vt 0.500000 0.148563
vt 0.500000 0.148561
vt 0.500000 0.148559
vt 0.500000 0.148312
vt 0.500000 0.148800
vt 0.500000 0.148601
vt 0.500000 0.149157
vt 0.500000 0.149288
vt 0.500000 0.145123
vt 0.500000 0.145120
vt 0.500000 0.145812
vt 0.500000 0.145117
vt 0.500000 0.145812
vt 0.500000 0.145117
vt 0.500000 0.149390
vt 0.500000 0.149393
vt 0.500000 0.148704
vt 0.500000 0.149396
vt 0.500000 0.149397
vt 0.500000 0.146216
vt 0.500000 0.145730
vt 0.500000 0.145926
vt 0.500000 0.145374
vt 0.500000 0.145243
vt 0.500000 0.148206
vt 0.500000 0.147840
vt 0.500000 0.147583
vt 0.500000 0.148071
vt 0.500000 0.148062
vt 0.500000 0.146847
vt 0.500000 0.146359
vt 0.500000 0.145871
vt 0.500000 0.146003
vt 0.500000 0.145861
vt 0.500000 0.145858
vt 0.500000 0.145856
vt 0.500000 0.145858
vt 0.500000 0.149292
vt 0.500000 0.149290
vt 0.500000 0.145235
vt 0.500000 0.145239
vt 0.500000 0.145239
vt 0.500000 0.145605
vt 0.500000 0.146094
vt 0.500000 0.148424
vt 0.500000 0.148911
vt 0.500000 0.146847
vt 0.500000 0.145866
vt 0.500000 0.148567
vt 0.500000 0.148567
vt 0.500000 0.148569
vt 0.500000 0.148569
vt 0.500000 0.148246
vt 0.500000 0.148517
vt 0.500000 0.148562
vt 0.500000 0.147204
vt 0.500000 0.147320
vt 0.500000 0.148180
vt 0.500000 0.148309
vt 0.500000 0.148559
vt 0.500000 0.148347
vt 0.500000 0.148275
vt 0.500000 0.148223
vt 0.500000 0.148143
s 0
usemtl Metal
f 679/1107/72 677/1108/72 684/1108/72 687/1107/72
f 675/1109/73 678/1110/73 689/1110/73 685/1109/73
f 686/1111/74 688/1112/74 687/1107/74 684/1108/74
f 695/1113/74 699/1114/74 700/1115/74 696/1116/74
f 681/1117/74 694/1118/74 685/1119/74 686/1111/74
f 692/1120/74 681/1117/74 686/1111/74 684/1108/74
f 695/1113/74 696/1116/74 687/1107/74 688/1112/74
f 697/1121/74 695/1113/74 688/1112/74 689/1110/74
f 697/1121/74 698/1122/74 699/1114/74 695/1113/74
f 689/1110/74 688/1112/74 686/1111/74 685/1109/74
f 704/1123/74 703/1124/74 705/1117/74 708/1125/74
f 708/1125/74 705/1117/74 706/1126/74 707/1127/74
f 703/1124/74 704/1123/74 712/1123/74 711/1124/74
f 710/1123/73 709/1124/73 711/1124/73 712/1123/73
f 713/1128/74 715/1129/74 694/1118/74
f 715/1129/74 716/1130/74 694/1118/74
f 716/1130/74 714/1124/74 694/1118/74
f 717/1131/74 719/1132/74 693/1127/74
f 719/1132/74 720/1133/74 693/1127/74
f 720/1133/74 718/1127/74 693/1127/74
f 729/1134/74 731/1135/74 692/1120/74
f 731/1135/74 732/1136/74 692/1120/74
f 732/1136/74 730/1126/74 692/1120/74
f 741/1137/74 743/1138/74 691/1123/74
f 743/1138/74 744/1139/74 691/1123/74
f 744/1139/74 742/1123/74 691/1123/74
f 745/1140/74 748/1141/74 747/1142/74
f 748/1141/74 749/1143/74 747/1142/74
f 749/1143/74 746/1144/74 747/1142/74
f 750/1145/74 753/1146/74 752/1147/74
f 753/1146/74 754/1148/74 752/1149/74
f 754/1148/74 751/1150/74 752/1149/74
f 755/1151/74 758/1152/74 757/1153/74
f 758/1152/74 759/1154/74 757/1153/74
f 759/1154/74 756/1155/74 757/1153/74
f 760/1156/74 763/1157/74 762/1158/74
f 763/1157/74 764/1159/74 762/1158/74
f 764/1159/74 761/1160/74 762/1158/74
f 703/1124/75 767/1161/75 766/1162/75
f 770/1163/76 773/1164/76 772/1165/76
f 775/1166/77 777/1167/77 706/1168/77
f 777/1167/78 778/1169/78 706/1168/78
f 778/1169/79 776/1126/79 706/1168/79
f 779/1170/80 781/1171/80 707/1127/80
f 781/1171/81 782/1172/81 707/1127/81
f 782/1172/82 780/1127/82 707/1127/82
f 717/1131/83 780/1131/83 782/1132/83 719/1132/83
f 719/1132/84 782/1132/84 781/1171/84 720/1173/84
f 720/1173/85 781/1171/85 779/1170/85 718/1170/85
f 721/1174/86 746/1174/86 749/1175/86 723/1175/86
f 723/1175/87 749/1175/87 748/1141/87 724/1141/87
f 724/1141/88 748/1141/88 745/1140/88 722/1140/88
f 737/1176/89 761/1176/89 764/1177/89 739/1178/89
f 739/1178/90 764/1177/90 763/1157/90 740/1157/90
f 740/1157/91 763/1157/91 760/1156/91 738/1156/91
f 750/1145/85 726/1145/85 728/1146/85 753/1146/85
f 753/1146/84 728/1146/84 727/1179/84 754/1179/84
f 754/1179/83 727/1179/83 725/1180/83 751/1180/83
f 733/1181/92 756/1181/92 759/1182/92 735/1182/92
f 735/1182/93 759/1182/93 758/1152/93 736/1152/93
f 736/1152/94 758/1152/94 755/1151/94 734/1151/94
f 775/1166/91 730/1183/91 732/1167/91 777/1167/91
f 777/1167/90 732/1167/90 731/1135/90 778/1135/90
f 778/1135/89 731/1135/89 729/1134/89 776/1184/89
f 765/1185/94 714/1186/94 716/1187/94 768/1188/94
f 768/1188/93 716/1187/93 715/1129/93 769/1189/93
f 769/1189/92 715/1129/92 713/1128/92 766/1162/92
f 770/1163/88 742/1163/88 744/1164/88 773/1164/88
f 773/1164/87 744/1164/87 743/1138/87 774/1190/87
f 774/1190/86 743/1138/86 741/1137/86 771/1191/86
f 713/1128/75 681/1117/75 701/1117/75 766/1162/75
f 741/1137/73 714/1186/73 765/1185/73 771/1191/73
f 717/1131/95 682/1125/95 702/1125/95 780/1131/95
f 729/1134/72 718/1170/72 779/1170/72 776/1184/72
f 676/1192/95 722/1140/95 745/1140/95 683/1192/95
f 721/1174/73 675/1119/73 685/1119/73 746/1174/73
f 677/1108/72 726/1145/72 750/1145/72 684/1108/72
f 725/1180/95 676/1192/95 683/1192/95 751/1180/95
f 681/1117/75 730/1183/75 775/1166/75 701/1117/75
f 678/1110/73 734/1151/73 755/1151/73 689/1110/73
f 733/1181/75 680/1193/75 690/1193/75 756/1181/75
f 680/1193/75 738/1156/75 760/1156/75 690/1193/75
f 737/1176/72 679/1107/72 687/1107/72 761/1176/72
f 682/1125/95 742/1163/95 770/1163/95 702/1125/95
f 694/1118/74 691/1123/74 747/1142/74 746/1174/74 685/1119/74
f 691/1123/74 682/1125/74 683/1192/74 745/1140/74 747/1142/74
f 682/1125/74 693/1127/74 752/1147/74 751/1180/74 683/1192/74
f 693/1127/74 692/1120/74 684/1108/74 750/1145/74 752/1147/74
f 698/1122/74 697/1121/74 689/1110/74 755/1151/74 757/1153/74
f 699/1114/74 698/1122/74 757/1153/74 756/1181/74 690/1193/74
f 696/1116/74 700/1115/74 762/1158/74 761/1176/74 687/1107/74
f 700/1115/74 699/1114/74 690/1193/74 760/1156/74 762/1158/74
f 772/1194/76 771/1191/76 765/1185/76 767/1195/76 709/1124/76 710/1123/76
f 703/1124/75 766/1162/75 701/1117/75 705/1117/75
f 767/1195/75 703/1124/75 711/1124/75 709/1124/75
f 702/1125/95 770/1163/95 704/1123/95 708/1125/95
f 704/1196/95 772/1194/95 710/1123/95 712/1123/95
f 706/1168/72 776/1184/72 779/1170/72 707/1127/72
f 701/1117/75 775/1166/75 706/1126/75 705/1117/75
f 707/1127/95 780/1131/95 702/1125/95 708/1125/95
f 768/1188/76 767/1197/76 765/1185/76
f 769/1189/76 766/1162/76 767/1198/76
f 704/1196/95 770/1163/95 772/1194/95
f 771/1191/76 772/1199/76 774/1190/76
f 772/1200/76 773/1164/76 774/1190/76
f 767/1197/76 768/1188/76 769/1189/76
o Window2_Glass
v -3.500000 0.648000 -0.469750
v -3.500000 0.648000 -2.340988
v -3.500000 2.565000 -0.469750
v -3.500000 2.565000 -2.340988
v -3.500000 0.648000 -0.469750
v -3.500000 2.565000 -0.469750
v -3.500000 0.648000 -2.340988
v -3.500000 2.565000 -2.340988
v -3.530000 0.648000 -0.469750
v -3.530000 2.565000 -0.469750
v -3.530000 0.648000 -2.340988
v -3.530000 2.565000 -2.340988
vn 1.0000 -0.0000 -0.0000
vn -0.0000 -1.0000 -0.0000
vn -0.0000 1.0000 -0.0000
vn -1.0000 -0.0000 -0.0000
vn -0.0000 -0.0000 -1.0000
vn -0.0000 -0.0000 1.0000
vt 0.000000 0.000000
vt 0.976128 0.000000
vt 0.976128 1.000000
vt 0.000000 1.000000
s 0
usemtl Glass
f 786/1201/96 785/1202/96 783/1203/96 784/1204/96
f 787/1203/97 791/1203/97 793/1204/97 789/1204/97
f 786/1201/98 790/1201/98 788/1202/98 785/1202/98
f 785/1202/98 788/1202/98 787/1203/98 783/1203/98
f 783/1203/98 787/1203/98 789/1204/98 784/1204/98
f 784/1204/98 789/1204/98 790/1201/98 786/1201/98
f 794/1201/99 793/1204/99 791/1203/99 792/1202/99
f 789/1204/100 793/1204/100 794/1201/100 790/1201/100
f 790/1201/98 794/1201/98 792/1202/98 788/1202/98
f 788/1202/101 792/1202/101 791/1203/101 787/1203/101
o Window1_Glass
v -1.177500 0.648000 3.200000
v -1.177500 2.430000 3.200000
v -0.375000 0.648000 3.200000
v -0.375000 2.430000 3.200000
v -1.177500 0.648000 3.230000
v -0.375000 0.648000 3.230000
v -1.177500 2.430000 3.230000
v -0.375000 2.430000 3.230000
vn -0.0000 -0.0000 -1.0000
vn -0.0000 -0.0000 1.0000
vn -0.0000 1.0000 -0.0000
vn 1.0000 -0.0000 -0.0000
vn -0.0000 -1.0000 -0.0000
vn -1.0000 -0.0000 -0.0000
vt 0.413660 0.918557
vt 0.413660 0.000000
vt 0.827320 0.000000
vt 0.827320 0.918557
s 0
usemtl Glass
f 795/1205/102 796/1206/102 798/1207/102 797/1208/102
f 799/1205/103 800/1208/103 802/1207/103 801/1206/103
f 796/1206/104 801/1206/104 802/1207/104 798/1207/104
f 798/1207/105 802/1207/105 800/1208/105 797/1208/105
f 797/1208/106 800/1208/106 799/1205/106 795/1205/106
f 795/1205/107 799/1205/107 801/1206/107 796/1206/107
o Window3_Glass
v -0.375000 2.430000 -3.150000
v -0.375000 1.933200 -3.150000
v 0.675000 2.430000 -3.150000
v 0.675000 1.933200 -3.150000
v 1.200000 1.933200 -3.200000
v 1.200000 2.430000 -3.200000
v 0.675000 1.933200 -3.200000
v 0.675000 1.933200 -3.150000
v 0.675000 2.430000 -3.200000
v 0.675000 2.430000 -3.150000
v -0.375000 2.430000 -3.180000
v -0.375000 1.933200 -3.180000
v 0.675000 1.933200 -3.180000
v 0.675000 2.430000 -3.180000
v 1.200000 1.933200 -3.230000
v 1.200000 2.430000 -3.230000
v 0.675000 2.430000 -3.230000
v 0.675000 1.933200 -3.230000
vn -0.0000 -0.0000 1.0000
vn -0.0000 -0.0000 -1.0000
vn 1.0000 -0.0000 -0.0000
vn -1.0000 -0.0000 -0.0000
vn -0.0000 1.0000 -0.0000
vn -0.0000 -1.0000 -0.0000
vt 0.000000 0.000000
s 0
usemtl Glass
f 807/1209/108 808/1209/108 811/1209/108 809/1209/108
f 803/1209/108 804/1209/108 806/1209/108 812/1209/108 810/1209/108 805/1209/108
f 817/1209/109 820/1209/109 819/1209/109 818/1209/109
f 810/1209/110 815/1209/110 816/1209/110 805/1209/110
f 812/1209/111 816/1209/111 815/1209/111 810/1209/111
f 807/1209/110 817/1209/110 818/1209/110 808/1209/110
f 803/1209/111 813/1209/111 814/1209/111 804/1209/111
f 811/1209/111 819/1209/111 820/1209/111 809/1209/111
f 808/1209/112 818/1209/112 819/1209/112 811/1209/112
f 804/1209/113 814/1209/113 815/1209/113 806/1209/113
f 806/1209/110 815/1209/110 816/1209/110 812/1209/110
f 809/1209/113 820/1209/113 817/1209/113 807/1209/113
f 805/1209/112 816/1209/112 813/1209/112 803/1209/112
f 813/1209/109 816/1209/109 815/1209/109 814/1209/109
o Collision
v 1.878500 -0.135000 1.232500
v 1.878500 2.835000 1.232500
v 1.878500 2.835000 2.717500
v 1.878500 -0.135000 2.717500
v 0.151500 -0.135000 1.232500
v 0.151500 2.835000 1.232500
v 0.151500 -0.135000 2.717500
v 0.151500 2.835000 2.717500
vn -0.0000 -1.0000 -0.0000
vn 1.0000 -0.0000 -0.0000
vn -1.0000 -0.0000 -0.0000
vn -0.0000 1.0000 -0.0000
vn -0.0000 -0.0000 1.0000
vn -0.0000 -0.0000 -1.0000
vt 0.375000 0.000000
vt 0.375000 0.750000
vt 0.625000 0.750000
vt 0.625000 0.000000
vt 0.625000 0.047917
vt 0.375000 0.047917
s 0
f 825/1210/114 821/1211/114 824/1211/114 827/1210/114
f 821/1211/115 822/1212/115 823/1212/115 824/1211/115
f 826/1213/116 825/1210/116 827/1210/116 828/1213/116
f 826/1213/117 828/1214/117 823/1212/117 822/1212/117
f 823/1212/118 828/1213/118 827/1215/118 824/1211/118
f 822/1212/119 821/1211/119 825/1210/119 826/1213/119
o Collision.001
v -0.090000 -0.135000 1.365000
v -0.090000 2.835000 1.365000
v -0.090000 -0.135000 -0.065000
v -0.090000 2.835000 -0.065000
v 1.890000 -0.135000 1.365000
v 1.890000 2.835000 1.365000
v 1.890000 -0.135000 -0.065000
v 1.890000 2.835000 -0.065000
vn -1.0000 -0.0000 -0.0000
vn 1.0000 -0.0000 -0.0000
vn -0.0000 -1.0000 -0.0000
vn -0.0000 1.0000 -0.0000
vn -0.0000 -0.0000 1.0000
vn -0.0000 -0.0000 -1.0000
vt 0.375000 0.000000
vt 0.625000 0.000000
vt 0.625000 0.250000
vt 0.375000 0.250000
vt 0.375000 0.500000
vt 0.625000 0.500000
vt 0.625000 0.750000
vt 0.375000 0.750000
vt 0.125000 0.500000
vt 0.125000 0.750000
vt 0.875000 0.500000
vt 0.875000 0.750000
s 0
f 829/1216/120 830/1217/120 832/1218/120 831/1219/120
f 835/1220/121 836/1221/121 834/1222/121 833/1223/121
f 831/1224/122 835/1220/122 833/1223/122 829/1225/122
f 836/1221/123 832/1226/123 830/1227/123 834/1222/123
f 829/1225/124 833/1223/124 834/1222/124 830/1227/124
f 832/1226/125 836/1221/125 835/1220/125 831/1224/125
o Collision.003
v -3.225000 -0.135000 -2.985000
v -3.225000 2.835000 -2.985000
v -3.225000 -0.135000 -3.315000
v -3.225000 2.835000 -3.315000
v 1.725000 -0.135000 -2.985000
v 1.725000 2.835000 -2.985000
v 1.725000 -0.135000 -3.315000
v 1.725000 2.835000 -3.315000
vn -0.0000 1.0000 -0.0000
vn -0.0000 -0.0000 -1.0000
vn -0.0000 -1.0000 -0.0000
vn -0.0000 -0.0000 1.0000
vn 1.0000 -0.0000 -0.0000
vn -1.0000 -0.0000 -0.0000
vt 0.875000 0.750000
vt 0.375000 0.000000
vt 0.625000 0.000000
vt 0.125000 0.750000
s 0
f 840/1228/126 838/1228/126 842/1228/126 844/1228/126
f 839/1229/127 840/1230/127 844/1230/127 843/1229/127
f 837/1231/128 839/1231/128 843/1231/128 841/1231/128
f 838/1230/129 837/1229/129 841/1229/129 842/1230/129
f 842/1228/130 841/1231/130 843/1229/130 844/1228/130
f 838/1228/131 840/1228/131 839/1229/131 837/1231/131
o Collision.002
v 1.485000 -0.135000 -3.465000
v 1.485000 2.835000 -3.465000
v 1.815000 -0.135000 -3.465000
v 1.815000 2.835000 -3.465000
v 1.485000 -0.135000 0.165000
v 1.485000 2.835000 0.165000
v 1.815000 -0.135000 0.165000
v 1.815000 2.835000 0.165000
vn -0.0000 -0.0000 -1.0000
vn 1.0000 -0.0000 -0.0000
vn -0.0000 1.0000 -0.0000
vn -0.0000 -1.0000 -0.0000
vn -0.0000 -0.0000 1.0000
vn -1.0000 -0.0000 -0.0000
vt 0.375000 0.000000
vt 0.625000 0.000000
vt 0.875000 0.750000
vt 0.125000 0.750000
s 0
f 845/1232/132 846/1233/132 848/1233/132 847/1232/132
f 848/1233/133 852/1233/133 851/1232/133 847/1232/133
f 846/1234/134 850/1234/134 852/1234/134 848/1234/134
f 847/1235/135 851/1235/135 849/1235/135 845/1235/135
f 850/1233/136 849/1232/136 851/1232/136 852/1233/136
f 846/1234/137 845/1235/137 849/1232/137 850/1234/137
o Collision.004
v -2.970000 -0.135000 -2.512500
v -2.970000 2.835000 -2.512500
v -3.630000 -0.135000 -2.512500
v -3.630000 2.835000 -2.512500
v -2.970000 -0.135000 -3.337500
v -2.970000 2.835000 -3.337500
v -3.630000 -0.135000 -3.337500
v -3.630000 2.835000 -3.337500
vn -0.0000 -1.0000 -0.0000
vn 1.0000 -0.0000 -0.0000
vn -0.0000 1.0000 -0.0000
vn -1.0000 -0.0000 -0.0000
vn -0.0000 -0.0000 -1.0000
vn -0.0000 -0.0000 1.0000
vt 0.125000 0.750000
vt 0.250000 0.375000
vt 0.625000 0.000000
vt 0.375000 0.000000
vt 0.375000 0.000000
vt 0.875000 0.750000
s 0
f 853/1236/138 855/1236/138 859/1236/138 857/1237/138
f 854/1238/139 853/1239/139 857/1240/139 858/1238/139
f 856/1241/140 854/1241/140 858/1241/140 860/1241/140
f 855/1239/141 856/1238/141 860/1238/141 859/1239/141
f 858/1238/142 857/1239/142 859/1239/142 860/1238/142
f 854/1241/143 856/1241/143 855/1239/143 853/1236/143
o Collision.005
v -3.180000 -0.135000 -0.140250
v -3.180000 2.835000 -0.140250
v -3.620000 -0.135000 -0.140250
v -3.620000 2.835000 -0.140250
v -3.180000 -0.135000 -2.664750
v -3.180000 2.835000 -2.664750
v -3.620000 -0.135000 -2.664750
v -3.620000 2.835000 -2.664750
vn -0.0000 1.0000 -0.0000
vn -1.0000 -0.0000 -0.0000
vn -0.0000 -1.0000 -0.0000
vn 1.0000 -0.0000 -0.0000
vn -0.0000 -0.0000 1.0000
vn -0.0000 -0.0000 -1.0000
vt 0.875000 0.750000
vt 0.375000 0.000000
vt 0.625000 0.000000
vt 0.125000 0.750000
s 0
f 864/1242/144 862/1242/144 866/1242/144 868/1242/144
f 863/1243/145 864/1244/145 868/1244/145 867/1243/145
f 861/1245/146 863/1245/146 867/1245/146 865/1245/146
f 862/1244/147 861/1243/147 865/1243/147 866/1244/147
f 862/1242/148 864/1242/148 863/1243/148 861/1245/148
f 866/1242/149 865/1245/149 867/1243/149 868/1242/149
o Collision.006
v -2.970000 -0.135000 3.477750
v -2.970000 2.835000 3.477750
v -3.630000 -0.135000 3.477750
v -3.630000 2.835000 3.477750
v -2.970000 -0.135000 -0.432750
v -2.970000 2.835000 -0.432750
v -3.630000 -0.135000 -0.432750
v -3.630000 2.835000 -0.432750
vn -0.0000 -0.0000 1.0000
vn -0.0000 1.0000 -0.0000
vn -1.0000 -0.0000 -0.0000
vn -0.0000 -1.0000 -0.0000
vn -0.0000 -0.0000 -1.0000
vn 1.0000 -0.0000 -0.0000
vt 0.375000 1.000000
vt 0.625000 1.000000
vt 0.875000 0.750000
vt 0.375000 0.000000
vt 0.625000 0.000000
vt 0.250000 0.875000
vt 0.125000 0.750000
s 0
f 869/1246/150 870/1247/150 872/1247/150 871/1246/150
f 872/1248/151 870/1248/151 874/1248/151 876/1248/151
f 871/1249/152 872/1250/152 876/1250/152 875/1249/152
f 869/1251/153 871/1252/153 875/1252/153 873/1252/153
f 874/1248/154 873/1252/154 875/1249/154 876/1248/154
f 870/1248/155 869/1251/155 873/1249/155 874/1248/155
o Collision.007
v 0.150000 -0.135000 2.985000
v 0.150000 2.835000 2.985000
v 0.150000 -0.135000 3.315000
v 0.150000 2.835000 3.315000
v -3.150000 -0.135000 2.985000
v -3.150000 2.835000 2.985000
v -3.150000 -0.135000 3.315000
v -3.150000 2.835000 3.315000
vn -0.0000 -0.0000 -1.0000
vn -0.0000 1.0000 -0.0000
vn -0.0000 -0.0000 1.0000
vn -0.0000 -1.0000 -0.0000
vn -1.0000 -0.0000 -0.0000
vt 0.625000 0.000000
vt 0.375000 0.000000
vt 0.875000 0.750000
vt 0.375000 1.000000
vt 0.625000 1.000000
vt 0.125000 0.750000
s 0
f 878/1253/156 877/1254/156 881/1254/156 882/1253/156
f 880/1255/157 878/1255/157 882/1255/157 884/1255/157
f 879/1256/158 880/1257/158 884/1257/158 883/1256/158
f 877/1258/159 879/1258/159 883/1258/159 881/1258/159
f 882/1255/160 881/1258/160 883/1256/160 884/1255/160
o Collision.008
v -0.090000 -0.135000 2.617500
v -0.090000 2.835000 2.617500
v 1.890000 2.835000 2.617500
v 1.890000 -0.135000 2.617500
v -0.090000 -0.135000 3.332500
v -0.090000 2.835000 3.332500
v 1.890000 2.835000 3.332500
v 1.890000 -0.135000 3.332500
vn -0.0000 -1.0000 -0.0000
vn -0.0000 -0.0000 1.0000
vn -0.0000 1.0000 -0.0000
vn 1.0000 -0.0000 -0.0000
vn -0.0000 -0.0000 -1.0000
vn -1.0000 -0.0000 -0.0000
vt 0.125000 0.750000
vt 0.375000 0.750000
vt 0.125000 0.750000
vt 0.625000 0.750000
vt 0.625000 1.000000
vt 0.375000 1.000000
vt 0.875000 0.750000
vt 0.875000 0.750000
vt 0.625000 0.000000
vt 0.375000 0.000000
s 0
f 885/1259/161 888/1260/161 892/1260/161 889/1261/161
f 892/1260/162 891/1262/162 890/1263/162 889/1264/162
f 887/1262/163 886/1265/163 890/1266/163 891/1262/163
f 888/1260/164 887/1262/164 891/1262/164 892/1260/164
f 885/1259/165 886/1265/165 887/1262/165 888/1260/165
f 886/1267/166 885/1268/166 889/1261/166 890/1263/166
o Collision.009
v -3.070750 -0.135000 0.742000
v -3.070750 2.835000 0.742000
v -3.070750 -0.135000 0.478000
v -3.070750 2.835000 0.478000
v -1.514250 -0.135000 0.742000
v -1.514250 2.835000 0.742000
v -1.514250 -0.135000 0.478000
v -1.514250 2.835000 0.478000
vn -0.0000 1.0000 -0.0000
vn -0.0000 -0.0000 -1.0000
vn -0.0000 -1.0000 -0.0000
vn -0.0000 -0.0000 1.0000
vn 1.0000 -0.0000 -0.0000
vn -1.0000 -0.0000 -0.0000
vt 0.875000 0.750000
vt 0.375000 0.000000
vt 0.625000 0.000000
vt 0.125000 0.750000
s 0
f 896/1269/167 894/1269/167 898/1269/167 900/1269/167
f 895/1270/168 896/1271/168 900/1271/168 899/1270/168
f 893/1272/169 895/1272/169 899/1272/169 897/1272/169
f 894/1271/170 893/1270/170 897/1270/170 898/1271/170
f 898/1269/171 897/1272/171 899/1270/171 900/1269/171
f 894/1269/172 896/1269/172 895/1270/172 893/1272/172
o Collision.010
v -0.808500 -0.135000 0.742000
v -0.808500 2.835000 0.742000
v -0.808500 -0.135000 0.478000
v -0.808500 2.835000 0.478000
v 0.038500 -0.135000 0.742000
v 0.038500 2.835000 0.742000
v 0.038500 -0.135000 0.478000
v 0.038500 2.835000 0.478000
vn -0.0000 1.0000 -0.0000
vn 1.0000 -0.0000 -0.0000
vn -0.0000 -0.0000 1.0000
vn -0.0000 -1.0000 -0.0000
vn -0.0000 -0.0000 -1.0000
vn -1.0000 -0.0000 -0.0000
vt 0.875000 0.750000
vt 0.625000 0.000000
vt 0.375000 0.000000
vt 0.125000 0.750000
s 0
f 904/1273/173 902/1273/173 906/1273/173 908/1273/173
f 906/1274/174 905/1275/174 907/1275/174 908/1274/174
f 902/1274/175 901/1275/175 905/1275/175 906/1274/175
f 901/1276/176 903/1276/176 907/1276/176 905/1276/176
f 903/1275/177 904/1274/177 908/1274/177 907/1275/177
f 902/1273/178 904/1273/178 903/1275/178 901/1276/178
