# Blender 5.0.0
# www.blender.org
mtllib azure.mtl
o azurepencil
v -0.009870 -0.000290 -0.028445
v -0.009870 -0.000290 0.197169
v -0.008530 0.004710 -0.028445
v -0.008530 0.004710 0.197169
v -0.004870 0.008370 -0.028445
v -0.004870 0.008370 0.197169
v 0.000130 0.009710 -0.028445
v 0.000130 0.009710 0.197169
v 0.005130 0.008370 -0.028445
v 0.005130 0.008370 0.197169
v 0.008790 0.004710 -0.028445
v 0.008790 0.004710 0.197169
v 0.010130 -0.000290 -0.028445
v 0.010130 -0.000290 0.197169
v 0.008790 -0.005290 -0.028445
v 0.008790 -0.005290 0.197169
v 0.005130 -0.008950 -0.028445
v 0.005130 -0.008950 0.197169
v 0.000130 -0.010290 -0.028445
v 0.000130 -0.010290 0.197169
v -0.004870 -0.008950 -0.028445
v -0.004870 -0.008950 0.197169
v -0.008530 -0.005290 -0.028445
v -0.008530 -0.005290 0.197169
v -0.009870 -0.000290 0.197169
v -0.008530 0.004710 0.197169
v -0.004870 0.008370 0.197169
v 0.000130 0.009710 0.197169
v 0.005130 0.008370 0.197169
v 0.008790 0.004710 0.197169
v 0.010130 -0.000290 0.197169
v 0.008790 -0.005290 0.197169
v 0.005130 -0.008950 0.197169
v 0.000130 -0.010290 0.197169
v -0.004870 -0.008950 0.197169
v -0.008530 -0.005290 0.197169
v 0.000130 -0.000290 0.221555
v 0.004460 0.002210 0.209362
v 0.000130 0.004710 0.209362
v 0.004460 -0.002790 0.209362
v 0.000130 -0.005290 0.209362
v -0.004200 -0.002790 0.209362
v -0.004200 0.002210 0.209362
v -0.003117 -0.000290 0.213638
v -0.005606 0.003022 0.205403
v 0.001754 -0.003102 0.213638
v 0.001754 0.002522 0.213638
v 0.005866 0.003022 0.205403
v -0.001493 0.002522 0.213638
v 0.000130 -0.006913 0.205403
v 0.003377 -0.000290 0.213638
v 0.000130 0.006333 0.205403
v -0.001493 -0.003102 0.213638
v 0.005866 -0.003602 0.205403
v -0.005606 -0.003602 0.205403
v -0.005309 -0.004179 -0.028445
v -0.005428 -0.003906 -0.028445
v -0.005535 -0.003646 -0.028445
v -0.005629 -0.003397 -0.028445
v -0.005712 -0.003159 -0.028445
v -0.005783 -0.002929 -0.028445
v -0.005843 -0.002705 -0.028445
v -0.005893 -0.002487 -0.028445
v -0.005933 -0.002272 -0.028445
v -0.005964 -0.002058 -0.028445
v -0.005985 -0.001845 -0.028445
v -0.005997 -0.001630 -0.028445
v -0.006001 -0.001411 -0.028445
v -0.005982 -0.000995 -0.028445
v -0.005925 -0.000606 -0.028445
v -0.005832 -0.000247 -0.028445
v -0.005704 0.000082 -0.028445
v -0.005543 0.000378 -0.028445
v -0.005348 0.000641 -0.028445
v -0.005122 0.000867 -0.028445
v -0.004867 0.001056 -0.028445
v -0.004582 0.001206 -0.028445
v -0.004270 0.001315 -0.028445
v -0.003932 0.001381 -0.028445
v -0.003568 0.001404 -0.028445
v -0.003211 0.001382 -0.028445
v -0.002879 0.001315 -0.028445
v -0.002575 0.001203 -0.028445
v -0.002298 0.001046 -0.028445
v -0.002050 0.000845 -0.028445
v -0.001832 0.000599 -0.028445
v -0.001645 0.000308 -0.028445
v -0.001490 -0.000028 -0.028445
v -0.001367 -0.000408 -0.028445
v -0.001278 -0.000833 -0.028445
v -0.001224 -0.001302 -0.028445
v -0.001206 -0.001817 -0.028445
v 0.000941 -0.001817 -0.028445
v 0.000939 -0.001262 -0.028445
v 0.000990 -0.000755 -0.028445
v 0.001091 -0.000296 -0.028445
v 0.001238 0.000115 -0.028445
v 0.001428 0.000478 -0.028445
v 0.001657 0.000793 -0.028445
v 0.001922 0.001059 -0.028445
v 0.002219 0.001278 -0.028445
v 0.002545 0.001448 -0.028445
v 0.002896 0.001569 -0.028445
v 0.003269 0.001642 -0.028445
v 0.003661 0.001666 -0.028445
v 0.004043 0.001645 -0.028445
v 0.004400 0.001583 -0.028445
v 0.004732 0.001481 -0.028445
v 0.005035 0.001341 -0.028445
v 0.005309 0.001165 -0.028445
v 0.005552 0.000954 -0.028445
v 0.005762 0.000709 -0.028445
v 0.005937 0.000433 -0.028445
v 0.006077 0.000126 -0.028445
v 0.006178 -0.000208 -0.028445
v 0.006240 -0.000571 -0.028445
v 0.006262 -0.000958 -0.028445
v 0.006253 -0.001256 -0.028445
v 0.006228 -0.001555 -0.028445
v 0.006185 -0.001853 -0.028445
v 0.006125 -0.002153 -0.028445
v 0.006049 -0.002452 -0.028445
v 0.005954 -0.002753 -0.028445
v 0.005843 -0.003055 -0.028445
v 0.005714 -0.003358 -0.028445
v 0.005567 -0.003662 -0.028445
v 0.005403 -0.003968 -0.028445
v 0.005221 -0.004275 -0.028445
v 0.005021 -0.004584 -0.028445
v 0.007550 -0.004584 -0.028445
v 0.007694 -0.004292 -0.028445
v 0.007826 -0.004000 -0.028445
v 0.007947 -0.003708 -0.028445
v 0.008056 -0.003417 -0.028445
v 0.008153 -0.003127 -0.028445
v 0.008239 -0.002837 -0.028445
v 0.008312 -0.002548 -0.028445
v 0.008372 -0.002260 -0.028445
v 0.008419 -0.001974 -0.028445
v 0.008453 -0.001689 -0.028445
v 0.008473 -0.001406 -0.028445
v 0.008480 -0.001125 -0.028445
v 0.008439 -0.000393 -0.028445
v 0.008317 0.000299 -0.028445
v 0.008118 0.000945 -0.028445
v 0.007847 0.001541 -0.028445
v 0.007507 0.002083 -0.028445
v 0.007102 0.002567 -0.028445
v 0.006638 0.002988 -0.028445
v 0.006116 0.003343 -0.028445
v 0.005541 0.003626 -0.028445
v 0.004918 0.003833 -0.028445
v 0.004250 0.003961 -0.028445
v 0.003542 0.004004 -0.028445
v 0.003124 0.003989 -0.028445
v 0.002710 0.003944 -0.028445
v 0.002304 0.003867 -0.028445
v 0.001909 0.003759 -0.028445
v 0.001530 0.003618 -0.028445
v 0.001171 0.003444 -0.028445
v 0.000836 0.003236 -0.028445
v 0.000530 0.002994 -0.028445
v 0.000257 0.002716 -0.028445
v 0.000021 0.002403 -0.028445
v -0.000174 0.002053 -0.028445
v -0.000323 0.001666 -0.028445
v -0.000531 0.002018 -0.028445
v -0.000749 0.002334 -0.028445
v -0.000981 0.002615 -0.028445
v -0.001227 0.002862 -0.028445
v -0.001490 0.003076 -0.028445
v -0.001773 0.003259 -0.028445
v -0.002076 0.003411 -0.028445
v -0.002401 0.003533 -0.028445
v -0.002752 0.003626 -0.028445
v -0.003130 0.003691 -0.028445
v -0.003536 0.003729 -0.028445
v -0.003973 0.003742 -0.028445
v -0.004598 0.003703 -0.028445
v -0.005183 0.003589 -0.028445
v -0.005724 0.003402 -0.028445
v -0.006220 0.003146 -0.028445
v -0.006667 0.002823 -0.028445
v -0.007063 0.002436 -0.028445
v -0.007406 0.001989 -0.028445
v -0.007692 0.001484 -0.028445
v -0.007919 0.000924 -0.028445
v -0.008085 0.000312 -0.028445
v -0.008186 -0.000348 -0.028445
v -0.008220 -0.001053 -0.028445
v -0.008216 -0.001352 -0.028445
v -0.008202 -0.001639 -0.028445
v -0.008179 -0.001917 -0.028445
v -0.008147 -0.002187 -0.028445
v -0.008105 -0.002449 -0.028445
v -0.008053 -0.002705 -0.028445
v -0.007991 -0.002957 -0.028445
v -0.007920 -0.003204 -0.028445
v -0.007838 -0.003449 -0.028445
v -0.007745 -0.003692 -0.028445
v -0.007642 -0.003935 -0.028445
v -0.007528 -0.004179 -0.028445
v -0.008220 -0.001053 -0.028605
v -0.008216 -0.001352 -0.028605
v -0.008186 -0.000348 -0.028605
v -0.008202 -0.001639 -0.028605
v -0.008179 -0.001917 -0.028605
v -0.008085 0.000312 -0.028605
v -0.008147 -0.002187 -0.028605
v -0.008105 -0.002449 -0.028605
v -0.008053 -0.002705 -0.028605
v -0.007919 0.000924 -0.028605
v -0.007991 -0.002957 -0.028605
v -0.007920 -0.003204 -0.028605
v -0.007838 -0.003449 -0.028605
v -0.007692 0.001484 -0.028605
v -0.007745 -0.003692 -0.028605
v -0.007642 -0.003935 -0.028605
v -0.007406 0.001989 -0.028605
v -0.007528 -0.004179 -0.028605
v -0.005309 -0.004179 -0.028605
v -0.005428 -0.003906 -0.028605
v -0.005535 -0.003646 -0.028605
v -0.005629 -0.003397 -0.028605
v -0.005712 -0.003159 -0.028605
v -0.005783 -0.002929 -0.028605
v -0.005843 -0.002705 -0.028605
v -0.007063 0.002436 -0.028605
v -0.005893 -0.002487 -0.028605
v -0.005933 -0.002272 -0.028605
v -0.006667 0.002823 -0.028605
v -0.005964 -0.002058 -0.028605
v -0.005985 -0.001845 -0.028605
v -0.005997 -0.001630 -0.028605
v -0.006220 0.003146 -0.028605
v -0.006001 -0.001411 -0.028605
v -0.005982 -0.000995 -0.028605
v -0.005724 0.003402 -0.028605
v -0.005925 -0.000606 -0.028605
v -0.005832 -0.000247 -0.028605
v -0.005704 0.000082 -0.028605
v -0.005183 0.003589 -0.028605
v -0.005543 0.000378 -0.028605
v -0.005348 0.000641 -0.028605
v -0.005122 0.000867 -0.028605
v -0.004598 0.003703 -0.028605
v -0.004867 0.001056 -0.028605
v -0.004582 0.001206 -0.028605
v -0.003973 0.003742 -0.028605
v -0.004270 0.001315 -0.028605
v -0.003932 0.001381 -0.028605
v -0.003536 0.003729 -0.028605
v -0.003568 0.001404 -0.028605
v -0.003211 0.001382 -0.028605
v -0.003130 0.003691 -0.028605
v -0.002879 0.001315 -0.028605
v -0.002752 0.003626 -0.028605
v -0.002575 0.001203 -0.028605
v -0.002401 0.003533 -0.028605
v -0.002298 0.001046 -0.028605
v -0.002076 0.003411 -0.028605
v -0.002050 0.000845 -0.028605
v -0.001773 0.003259 -0.028605
v -0.001832 0.000599 -0.028605
v -0.001645 0.000308 -0.028605
v -0.001490 0.003076 -0.028605
v -0.001490 -0.000028 -0.028605
v -0.001227 0.002862 -0.028605
v -0.001367 -0.000408 -0.028605
v -0.001278 -0.000833 -0.028605
v -0.001224 -0.001302 -0.028605
v -0.000981 0.002615 -0.028605
v -0.001206 -0.001817 -0.028605
v 0.000941 -0.001817 -0.028605
v -0.000749 0.002334 -0.028605
v -0.000531 0.002018 -0.028605
v -0.000323 0.001666 -0.028605
v -0.000174 0.002053 -0.028605
v 0.000021 0.002403 -0.028605
v 0.000257 0.002716 -0.028605
v 0.000530 0.002994 -0.028605
v 0.000836 0.003236 -0.028605
v 0.000939 -0.001262 -0.028605
v 0.001171 0.003444 -0.028605
v 0.000990 -0.000755 -0.028605
v 0.001091 -0.000296 -0.028605
v 0.001238 0.000115 -0.028605
v 0.001530 0.003618 -0.028605
v 0.001428 0.000478 -0.028605
v 0.001657 0.000793 -0.028605
v 0.001909 0.003759 -0.028605
v 0.001922 0.001059 -0.028605
v 0.002304 0.003867 -0.028605
v 0.002219 0.001278 -0.028605
v 0.002545 0.001448 -0.028605
v 0.002710 0.003944 -0.028605
v 0.002896 0.001569 -0.028605
v 0.003124 0.003989 -0.028605
v 0.003269 0.001642 -0.028605
v 0.003542 0.004004 -0.028605
v 0.003661 0.001666 -0.028605
v 0.004250 0.003961 -0.028605
v 0.004043 0.001645 -0.028605
v 0.004400 0.001583 -0.028605
v 0.004918 0.003833 -0.028605
v 0.004732 0.001481 -0.028605
v 0.005035 0.001341 -0.028605
v 0.005541 0.003626 -0.028605
v 0.005021 -0.004584 -0.028605
v 0.007550 -0.004584 -0.028605
v 0.005221 -0.004275 -0.028605
v 0.005309 0.001165 -0.028605
v 0.005403 -0.003968 -0.028605
v 0.005552 0.000954 -0.028605
v 0.005567 -0.003662 -0.028605
v 0.006116 0.003343 -0.028605
v 0.005762 0.000709 -0.028605
v 0.005714 -0.003358 -0.028605
v 0.005843 -0.003055 -0.028605
v 0.005937 0.000433 -0.028605
v 0.005954 -0.002753 -0.028605
v 0.006077 0.000126 -0.028605
v 0.006049 -0.002452 -0.028605
v 0.006125 -0.002153 -0.028605
v 0.006178 -0.000208 -0.028605
v 0.006638 0.002988 -0.028605
v 0.006185 -0.001853 -0.028605
v 0.006240 -0.000571 -0.028605
v 0.006228 -0.001555 -0.028605
v 0.006253 -0.001256 -0.028605
v 0.006262 -0.000958 -0.028605
v 0.007102 0.002567 -0.028605
v 0.007507 0.002083 -0.028605
v 0.007847 0.001541 -0.028605
v 0.007694 -0.004292 -0.028605
v 0.007826 -0.004000 -0.028605
v 0.007947 -0.003708 -0.028605
v 0.008118 0.000945 -0.028605
v 0.008056 -0.003417 -0.028605
v 0.008153 -0.003127 -0.028605
v 0.008317 0.000299 -0.028605
v 0.008239 -0.002837 -0.028605
v 0.008312 -0.002548 -0.028605
v 0.008372 -0.002260 -0.028605
v 0.008439 -0.000393 -0.028605
v 0.008419 -0.001974 -0.028605
v 0.008453 -0.001689 -0.028605
v 0.008480 -0.001125 -0.028605
v 0.008473 -0.001406 -0.028605
vn -0.9659 0.2588 -0.0000
vn -0.7071 0.7071 -0.0000
vn -0.2588 0.9659 -0.0000
vn 0.2588 0.9659 -0.0000
vn 0.7071 0.7071 -0.0000
vn 0.9659 0.2588 -0.0000
vn 0.9659 -0.2588 -0.0000
vn 0.7071 -0.7071 -0.0000
vn 0.2588 -0.9659 -0.0000
vn -0.2588 -0.9659 -0.0000
vn -0.0000 1.0000 -0.0000
vn -0.7071 -0.7071 -0.0000
vn -0.9659 -0.2588 -0.0000
vn -0.0000 -0.0000 -1.0000
vn -0.8981 0.2405 0.3683
vn 0.6574 -0.6574 0.3682
vn 0.6574 0.6574 0.3682
vn -0.8981 -0.2405 0.3682
vn -0.6574 0.6575 0.3682
vn 0.2405 -0.8981 0.3682
vn 0.8981 0.2405 0.3683
vn -0.2406 0.8980 0.3683
vn -0.2405 -0.8980 0.3684
vn 0.8981 -0.2405 0.3682
vn 0.2406 0.8981 0.3682
vn -0.6574 -0.6574 0.3682
vn 0.2406 0.8980 0.3683
vn 0.8981 -0.2406 0.3682
vn -0.2407 -0.8981 0.3682
vn -0.2406 0.8981 0.3682
vn 0.8981 0.2406 0.3682
vn 0.2406 -0.8980 0.3683
vn -0.6574 0.6574 0.3682
vn -0.8980 -0.2406 0.3683
vn -0.8980 0.2406 0.3683
vn -0.0000 -0.0000 1.0000
vn -0.0000 0.0007 1.0000
vn -0.0000 0.0002 1.0000
vn -0.0000 0.0001 1.0000
vn -0.0000 -0.0003 1.0000
vn -0.0000 -0.0032 1.0000
vn -0.0000 -0.0001 1.0000
vn -0.0000 0.0767 0.9971
vn -0.0000 -0.0995 0.9950
vn -0.0000 0.0172 0.9999
vn -0.0000 -0.0004 1.0000
vn -0.0000 0.2425 0.9701
vn -0.0000 -0.0013 1.0000
vn -0.0000 0.0003 1.0000
vn -0.0000 -0.0005 1.0000
vn -0.0000 0.0006 1.0000
vn -0.0000 -0.0006 1.0000
vn -0.0000 0.0005 1.0000
vn -0.0000 0.0014 1.0000
vn -0.0000 -0.0017 1.0000
vn -0.0000 -0.0002 1.0000
vn -0.0000 -0.0018 1.0000
vn -0.0000 0.0018 1.0000
vn -0.0000 -0.0010 1.0000
vn -0.0000 -0.0008 1.0000
vn -0.0000 -0.0020 1.0000
vn -0.0000 0.0023 1.0000
vn -0.0000 -0.0014 1.0000
vn -0.0000 0.0020 1.0000
vn -0.0000 -0.0009 1.0000
vn -0.0000 0.0074 1.0000
vn -0.0000 0.0007 -1.0000
vn -0.0000 -0.0001 -1.0000
vn -0.0000 -0.0034 -1.0000
vn -0.0000 0.0001 -1.0000
vn -0.0000 0.0002 -1.0000
vn -0.0000 -0.0007 -1.0000
vn -0.0000 0.0003 -1.0000
vn -0.0000 -0.0003 -1.0000
vn -0.0000 0.0005 -1.0000
vn -0.0000 -0.0006 -1.0000
vn -0.0000 -0.0004 -1.0000
vn -0.0000 -0.0005 -1.0000
vn -0.0000 0.0019 -1.0000
vn -0.0000 -0.0017 -1.0000
vn -0.0000 -0.0019 -1.0000
vn -0.0000 -0.0012 -1.0000
vn -0.0000 -0.0008 -1.0000
vn -0.0000 0.0010 -1.0000
vn -0.0000 -0.0015 -1.0000
vn -0.0000 -0.0002 -1.0000
vn -0.0000 -0.0013 -1.0000
vn -0.0000 0.0008 -1.0000
vn -0.7486 -0.6630 -0.0000
vn -0.7588 -0.6513 -0.0000
vn -0.4597 0.8881 -0.0000
vn 0.8089 -0.5879 -0.0000
vn 0.9560 0.2934 -0.0000
vn -0.9711 -0.2386 -0.0000
vn 0.9895 -0.1447 -0.0000
vn 0.9593 -0.2823 -0.0000
vn -0.8406 -0.5416 -0.0000
vn -0.9604 -0.2787 -0.0000
vn -0.9005 0.4349 -0.0000
vn 0.9682 -0.2501 -0.0000
vn -0.3486 0.9373 -0.0000
vn 0.9697 -0.2442 -0.0000
vn 0.7099 -0.7043 -0.0000
vn -0.9482 -0.3176 -0.0000
vn 0.5436 0.8394 -0.0000
vn -0.9200 0.3918 -0.0000
vn 0.9320 -0.3626 -0.0000
vn 0.9789 -0.2046 -0.0000
vn -0.9076 -0.4198 -0.0000
vn -0.8439 -0.5365 -0.0000
vn -0.2647 0.9643 -0.0000
vn -0.9265 0.3764 -0.0000
vn -0.3266 0.9452 -0.0000
vn 0.5919 -0.8060 -0.0000
vn 0.9847 0.1744 -0.0000
vn -0.9350 -0.3545 -0.0000
vn 0.6316 0.7753 -0.0000
vn -0.9380 0.3467 -0.0000
vn 0.8776 -0.4793 -0.0000
vn 0.9866 -0.1633 -0.0000
vn -0.9516 -0.3074 -0.0000
vn -0.9104 -0.4137 -0.0000
vn 0.4618 -0.8870 -0.0000
vn -0.9205 -0.3907 -0.0000
vn 0.8029 -0.5961 -0.0000
vn 0.9929 -0.1191 -0.0000
vn -0.9790 -0.2040 -0.0000
vn -0.9538 0.3004 -0.0000
vn 0.7078 -0.7064 -0.0000
vn -0.1854 0.9827 -0.0000
vn -0.8698 0.4934 -0.0000
vn -0.9934 -0.1144 -0.0000
vn 0.3269 -0.9450 -0.0000
vn 0.9984 0.0566 -0.0000
vn -0.9063 -0.4227 -0.0000
vn -0.9688 0.2478 -0.0000
vn 0.9974 -0.0722 -0.0000
vn -0.9572 -0.2895 -0.0000
vn -0.1920 0.9814 -0.0000
vn 0.9997 -0.0246 -0.0000
vn -0.0000 -1.0000 -0.0000
vn 0.7084 0.7058 -0.0000
vn 0.5943 -0.8042 -0.0000
vn -0.1094 0.9940 -0.0000
vn 0.9171 0.3987 -0.0000
vn -0.9994 -0.0352 -0.0000
vn 0.1919 -0.9814 -0.0000
vn 0.5617 0.8273 -0.0000
vn 0.4652 -0.8852 -0.0000
vn 0.9254 0.3789 -0.0000
vn -0.9808 0.1953 -0.0000
vn -0.0359 0.9994 -0.0000
vn 0.9352 0.3541 -0.0000
vn -0.9856 -0.1691 -0.0000
vn -0.0618 0.9981 -0.0000
vn 0.0621 -0.9981 -0.0000
vn 0.7714 0.6363 -0.0000
vn 0.3303 -0.9439 -0.0000
vn 0.9447 0.3279 -0.0000
vn 0.8222 0.5692 -0.0000
vn -0.9900 0.1413 -0.0000
vn 0.1932 -0.9812 -0.0000
vn 0.0614 0.9981 -0.0000
vn -0.0550 -0.9985 -0.0000
vn 0.9550 0.2965 -0.0000
vn 0.8617 0.5074 -0.0000
vn -0.9964 0.0843 -0.0000
vn -0.9985 -0.0545 -0.0000
vn 0.0285 0.9996 -0.0000
vn -0.1721 -0.9851 -0.0000
vn 0.9655 0.2605 -0.0000
vn -0.9329 0.3602 -0.0000
vn 0.0619 -0.9981 -0.0000
vn -0.8738 0.4863 -0.0000
vn -0.9996 0.0288 -0.0000
vn -0.0624 -0.9981 -0.0000
vn 0.1879 0.9822 -0.0000
vn -0.7939 0.6080 -0.0000
vn -0.2940 -0.9558 -0.0000
vn 0.9748 0.2229 -0.0000
vn -0.7986 0.6019 -0.0000
vn 0.6714 0.7411 -0.0000
vn 0.0943 0.9955 -0.0000
vn -0.4185 -0.9082 -0.0000
vn 0.9831 0.1831 -0.0000
vn -0.7124 0.7018 -0.0000
vn -0.9999 -0.0144 -0.0000
vn -0.1989 -0.9800 -0.0000
vn 0.7678 0.6406 -0.0000
vn -0.6207 0.7840 -0.0000
vn -0.9988 0.0486 -0.0000
vn 0.3156 0.9489 -0.0000
vn -0.6983 0.7159 -0.0000
vn 1.0000 0.0039 -0.0000
vn 0.8465 0.5324 -0.0000
vn -0.9988 -0.0481 -0.0000
vn 0.1696 0.9855 -0.0000
vn 0.9901 0.1407 -0.0000
vn 0.8976 -0.4408 -0.0000
vn -0.3445 -0.9388 -0.0000
vn -0.9966 -0.0819 -0.0000
vn -0.8401 0.5424 -0.0000
vn 0.9951 0.0985 -0.0000
vn -0.5270 0.8499 -0.0000
vn 0.9109 -0.4126 -0.0000
vn -0.5410 -0.8410 -0.0000
vn 0.9949 -0.1008 -0.0000
vn 0.2562 0.9666 -0.0000
vn 0.9983 0.0575 -0.0000
vn 0.9233 -0.3841 -0.0000
vn -0.9885 0.1512 -0.0000
vn -0.4934 -0.8698 -0.0000
vn 0.9767 -0.2148 -0.0000
vn -0.9929 -0.1188 -0.0000
vn -0.8602 0.5100 -0.0000
vn -0.6566 -0.7543 -0.0000
vn -0.5853 0.8108 -0.0000
vn 0.9417 -0.3364 -0.0000
vn 0.9103 0.4140 -0.0000
vn -0.9875 -0.1577 -0.0000
vn 0.3500 0.9368 -0.0000
vn 0.9998 0.0186 -0.0000
vn 0.9366 -0.3504 -0.0000
vn -0.6304 -0.7763 -0.0000
vn -0.9802 -0.1981 -0.0000
vn -0.8813 0.4725 -0.0000
vn 0.9989 -0.0458 -0.0000
vn -0.4368 0.8996 -0.0000
vn 0.9482 -0.3176 -0.0000
vn 0.8858 -0.4641 -0.0000
vn 0.4483 0.8939 -0.0000
vn 0.4422 0.8969 -0.0000
vn -0.9653 0.2612 -0.0000
vt 1.000000 0.500000
vt 1.000000 1.000000
vt 0.916667 1.000000
vt 0.916667 0.500000
vt 0.833333 1.000000
vt 0.833333 0.500000
vt 0.750000 1.000000
vt 0.750000 0.500000
vt 0.666667 1.000000
vt 0.666667 0.500000
vt 0.583333 1.000000
vt 0.583333 0.500000
vt 0.500000 1.000000
vt 0.500000 0.500000
vt 0.416667 1.000000
vt 0.416667 0.500000
vt 0.333333 1.000000
vt 0.333333 0.500000
vt 0.250000 1.000000
vt 0.250000 0.500000
vt 0.166667 1.000000
vt 0.166667 0.500000
vt 0.083333 1.000000
vt 0.083333 0.500000
vt 0.000000 1.000000
vt 0.000000 0.500000
vt 0.750000 0.490000
vt 0.870000 0.457846
vt 0.957846 0.370000
vt 0.990000 0.250000
vt 0.957846 0.130000
vt 0.870000 0.042154
vt 0.750000 0.010000
vt 0.630000 0.042154
vt 0.542154 0.130000
vt 0.510000 0.250000
vt 0.542154 0.370000
vt 0.630000 0.457846
vt 0.943723 1.000000
vt 0.388528 1.000000
vt 0.375000 1.000000
vt 0.583333 1.000000
vt 0.610390 1.000000
vt 0.055195 1.000000
vt 0.041667 1.000000
vt 0.888528 1.000000
vt 0.875000 1.000000
vt 0.277056 1.000000
vt 0.555195 1.000000
vt 0.541667 1.000000
vt 0.777056 1.000000
vt 0.221862 1.000000
vt 0.208333 1.000000
vt 0.443723 1.000000
vt 0.721862 1.000000
vt 0.708333 1.000000
vt 0.083333 1.000000
vt 0.110390 1.000000
vt 0.924658 0.000000
vt 0.910959 0.000000
vt 0.917808 0.000000
vt 0.931507 0.000000
vt 0.938356 0.000000
vt 0.904110 0.000000
vt 0.945205 0.000000
vt 0.952055 0.000000
vt 0.958904 0.000000
vt 0.897260 0.000000
vt 0.965753 0.000000
vt 0.972603 0.000000
vt 0.979452 0.000000
vt 0.890411 0.000000
vt 0.986301 0.000000
vt 0.993151 0.000000
vt 0.883562 0.000000
vt 1.000000 0.000000
vt 0.000000 0.000000
vt 0.006849 0.000000
vt 0.013699 0.000000
vt 0.020548 0.000000
vt 0.027397 0.000000
vt 0.034247 0.000000
vt 0.041096 0.000000
vt 0.876712 0.000000
vt 0.047945 0.000000
vt 0.054795 0.000000
vt 0.869863 0.000000
vt 0.061644 0.000000
vt 0.068493 0.000000
vt 0.075342 0.000000
vt 0.863014 0.000000
vt 0.082192 0.000000
vt 0.089041 0.000000
vt 0.856164 0.000000
vt 0.095890 0.000000
vt 0.102740 0.000000
vt 0.109589 0.000000
vt 0.849315 0.000000
vt 0.116438 0.000000
vt 0.123288 0.000000
vt 0.130137 0.000000
vt 0.842466 0.000000
vt 0.136986 0.000000
vt 0.143836 0.000000
vt 0.835616 0.000000
vt 0.150685 0.000000
vt 0.157534 0.000000
vt 0.828767 0.000000
vt 0.164384 0.000000
vt 0.171233 0.000000
vt 0.821918 0.000000
vt 0.178082 0.000000
vt 0.815068 0.000000
vt 0.184932 0.000000
vt 0.808219 0.000000
vt 0.191781 0.000000
vt 0.801370 0.000000
vt 0.198630 0.000000
vt 0.794521 0.000000
vt 0.205479 0.000000
vt 0.212329 0.000000
vt 0.787671 0.000000
vt 0.219178 0.000000
vt 0.780822 0.000000
vt 0.226027 0.000000
vt 0.232877 0.000000
vt 0.239726 0.000000
vt 0.773973 0.000000
vt 0.246575 0.000000
vt 0.253425 0.000000
vt 0.767123 0.000000
vt 0.760274 0.000000
vt 0.753425 0.000000
vt 0.746575 0.000000
vt 0.739726 0.000000
vt 0.732877 0.000000
vt 0.726027 0.000000
vt 0.719178 0.000000
vt 0.260274 0.000000
vt 0.712329 0.000000
vt 0.267123 0.000000
vt 0.273973 0.000000
vt 0.280822 0.000000
vt 0.705479 0.000000
vt 0.287671 0.000000
vt 0.294521 0.000000
vt 0.698630 0.000000
vt 0.301370 0.000000
vt 0.691781 0.000000
vt 0.308219 0.000000
vt 0.315068 0.000000
vt 0.684932 0.000000
vt 0.321918 0.000000
vt 0.678082 0.000000
vt 0.328767 0.000000
vt 0.671233 0.000000
vt 0.335616 0.000000
vt 0.664384 0.000000
vt 0.342466 0.000000
vt 0.349315 0.000000
vt 0.657534 0.000000
vt 0.356164 0.000000
vt 0.363014 0.000000
vt 0.650685 0.000000
vt 0.506849 0.000000
vt 0.493151 0.000000
vt 0.500000 0.000000
vt 0.369863 0.000000
vt 0.486301 0.000000
vt 0.376712 0.000000
vt 0.479452 0.000000
vt 0.643836 0.000000
vt 0.383562 0.000000
vt 0.472603 0.000000
vt 0.465753 0.000000
vt 0.390411 0.000000
vt 0.458904 0.000000
vt 0.397260 0.000000
vt 0.452055 0.000000
vt 0.445205 0.000000
vt 0.404110 0.000000
vt 0.636986 0.000000
vt 0.438356 0.000000
vt 0.410959 0.000000
vt 0.431507 0.000000
vt 0.424658 0.000000
vt 0.417808 0.000000
vt 0.630137 0.000000
vt 0.623288 0.000000
vt 0.616438 0.000000
vt 0.513699 0.000000
vt 0.520548 0.000000
vt 0.527397 0.000000
vt 0.609589 0.000000
vt 0.534247 0.000000
vt 0.541096 0.000000
vt 0.602740 0.000000
vt 0.547945 0.000000
vt 0.554795 0.000000
vt 0.561644 0.000000
vt 0.595890 0.000000
vt 0.568493 0.000000
vt 0.575342 0.000000
vt 0.589041 0.000000
vt 0.582192 0.000000
s 0
usemtl middle.006
f 20/19/11 18/17/11 33/17/11 34/19/11
f 18/17/11 16/15/11 32/15/11 33/17/11
f 16/15/11 14/13/11 31/13/11 32/15/11
f 14/13/11 12/11/11 30/11/11 31/13/11
f 12/11/11 10/9/11 29/9/11 30/11/11
f 10/9/11 8/7/11 28/7/11 29/9/11
f 2/25/11 24/23/11 36/23/11 25/25/11
f 4/3/11 2/2/11 25/2/11 26/3/11
f 8/7/11 6/5/11 27/5/11 28/7/11
f 24/23/11 22/21/11 35/21/11 36/23/11
f 6/5/11 4/3/11 26/3/11 27/5/11
f 22/21/11 20/19/11 34/19/11 35/21/11
f 36/23/26 35/21/26 53/58/26 55/57/26
f 29/9/27 28/7/27 52/55/27 47/9/27
f 32/15/28 31/13/28 51/54/28 54/15/28
f 35/21/29 34/19/29 50/52/29 53/21/29
f 28/7/30 27/5/30 49/51/30 52/7/30
f 31/13/31 30/11/31 48/49/31 51/13/31
f 34/19/32 33/17/32 46/48/32 50/19/32
f 27/5/33 26/3/33 45/46/33 49/5/33
f 25/25/34 36/23/34 55/44/34 44/25/34
f 30/11/17 29/9/17 47/43/17 48/42/17
f 33/17/16 32/15/16 54/40/16 46/17/16
f 26/3/35 25/2/35 44/39/35 45/3/35
usemtl point.006
f 45/3/15 44/39/15 37/3/15 43/3/15
f 46/17/16 54/40/16 40/41/16 37/17/16
f 48/42/17 47/43/17 37/11/17 38/11/17
f 44/25/18 55/44/18 42/45/18 37/25/18
f 49/5/19 45/46/19 43/47/19 37/5/19
f 50/19/20 46/48/20 37/19/20 41/19/20
f 51/13/21 48/49/21 38/50/21 37/13/21
f 52/7/22 49/51/22 37/7/22 39/7/22
f 53/21/23 50/52/23 41/53/23 37/21/23
f 54/15/24 51/54/24 37/15/24 40/15/24
f 47/9/25 52/55/25 39/56/25 37/9/25
f 55/57/26 53/58/26 37/23/26 42/23/26
usemtl shaft.006
f 1/1/1 2/2/1 4/3/1 3/4/1
f 3/4/2 4/3/2 6/5/2 5/6/2
f 5/6/3 6/5/3 8/7/3 7/8/3
f 7/8/4 8/7/4 10/9/4 9/10/4
f 9/10/5 10/9/5 12/11/5 11/12/5
f 11/12/6 12/11/6 14/13/6 13/14/6
f 13/14/7 14/13/7 16/15/7 15/16/7
f 15/16/8 16/15/8 18/17/8 17/18/8
f 17/18/9 18/17/9 20/19/9 19/20/9
f 19/20/10 20/19/10 22/21/10 21/22/10
f 21/22/12 22/21/12 24/23/12 23/24/12
f 23/24/13 24/23/13 2/25/13 1/26/13
f 1/27/14 3/28/14 5/29/14 7/30/14 9/31/14 11/32/14 13/33/14 15/34/14 17/35/14 19/36/14 21/37/14 23/38/14
usemtl Material.031
f 191/59/36 189/60/36 190/61/36
f 192/62/36 189/60/36 191/59/36
f 193/63/36 189/60/36 192/62/36
f 193/63/37 188/64/37 189/60/37
f 194/65/36 188/64/36 193/63/36
f 195/66/36 188/64/36 194/65/36
f 196/67/38 188/64/38 195/66/38
f 196/67/36 187/68/36 188/64/36
f 197/69/36 187/68/36 196/67/36
f 198/70/36 187/68/36 197/69/36
f 199/71/39 187/68/39 198/70/39
f 199/71/36 186/72/36 187/68/36
f 200/73/36 186/72/36 199/71/36
f 201/74/39 186/72/39 200/73/39
f 201/74/36 185/75/36 186/72/36
f 202/76/40 185/75/40 201/74/40
f 56/77/36 57/78/36 202/76/36
f 57/78/41 58/79/41 202/76/41
f 58/79/36 59/80/36 202/76/36
f 59/80/36 60/81/36 202/76/36
f 60/81/42 185/75/42 202/76/42
f 60/81/43 61/82/43 185/75/43
f 61/82/36 62/83/36 185/75/36
f 62/83/36 184/84/36 185/75/36
f 62/83/44 63/85/44 184/84/44
f 63/85/45 64/86/45 184/84/45
f 64/86/46 183/87/46 184/84/46
f 64/86/47 65/88/47 183/87/47
f 65/88/36 66/89/36 183/87/36
f 66/89/36 67/90/36 183/87/36
f 67/90/36 182/91/36 183/87/36
f 67/90/36 68/92/36 182/91/36
f 68/92/48 69/93/48 182/91/48
f 69/93/38 181/94/38 182/91/38
f 70/95/36 181/94/36 69/93/36
f 71/96/36 181/94/36 70/95/36
f 72/97/36 181/94/36 71/96/36
f 72/97/49 180/98/49 181/94/49
f 73/99/36 180/98/36 72/97/36
f 74/100/36 180/98/36 73/99/36
f 75/101/36 180/98/36 74/100/36
f 75/101/36 179/102/36 180/98/36
f 76/103/36 179/102/36 75/101/36
f 77/104/36 179/102/36 76/103/36
f 77/104/36 178/105/36 179/102/36
f 78/106/36 178/105/36 77/104/36
f 79/107/49 178/105/49 78/106/49
f 79/107/50 177/108/50 178/105/50
f 80/109/51 177/108/51 79/107/51
f 81/110/40 177/108/40 80/109/40
f 81/110/36 176/111/36 177/108/36
f 82/112/38 176/111/38 81/110/38
f 82/112/36 175/113/36 176/111/36
f 83/114/36 175/113/36 82/112/36
f 83/114/52 174/115/52 175/113/52
f 84/116/36 174/115/36 83/114/36
f 84/116/36 173/117/36 174/115/36
f 85/118/36 173/117/36 84/116/36
f 85/118/36 172/119/36 173/117/36
f 86/120/36 172/119/36 85/118/36
f 87/121/42 172/119/42 86/120/42
f 87/121/49 171/122/49 172/119/49
f 88/123/36 171/122/36 87/121/36
f 88/123/36 170/124/36 171/122/36
f 89/125/53 170/124/53 88/123/53
f 90/126/36 170/124/36 89/125/36
f 91/127/40 170/124/40 90/126/40
f 91/127/36 169/128/36 170/124/36
f 92/129/36 169/128/36 91/127/36
f 93/130/36 169/128/36 92/129/36
f 93/130/54 168/131/54 169/128/54
f 93/130/51 167/132/51 168/131/51
f 93/130/55 166/133/55 167/132/55
f 93/130/53 165/134/53 166/133/53
f 93/130/36 164/135/36 165/134/36
f 93/130/46 163/136/46 164/135/46
f 93/130/38 162/137/38 163/136/38
f 93/130/36 161/138/36 162/137/36
f 93/130/36 94/139/36 161/138/36
f 94/139/36 160/140/36 161/138/36
f 95/141/36 160/140/36 94/139/36
f 96/142/36 160/140/36 95/141/36
f 97/143/42 160/140/42 96/142/42
f 97/143/36 159/144/36 160/140/36
f 98/145/36 159/144/36 97/143/36
f 99/146/56 159/144/56 98/145/56
f 99/146/36 158/147/36 159/144/36
f 100/148/36 158/147/36 99/146/36
f 100/148/36 157/149/36 158/147/36
f 101/150/36 157/149/36 100/148/36
f 102/151/36 157/149/36 101/150/36
f 102/151/36 156/152/36 157/149/36
f 103/153/36 156/152/36 102/151/36
f 103/153/36 155/154/36 156/152/36
f 104/155/36 155/154/36 103/153/36
f 104/155/36 154/156/36 155/154/36
f 105/157/36 154/156/36 104/155/36
f 105/157/36 153/158/36 154/156/36
f 106/159/36 153/158/36 105/157/36
f 107/160/36 153/158/36 106/159/36
f 107/160/36 152/161/36 153/158/36
f 108/162/51 152/161/51 107/160/51
f 109/163/49 152/161/49 108/162/49
f 109/163/36 151/164/36 152/161/36
f 130/165/57 128/166/57 129/167/57
f 110/168/36 151/164/36 109/163/36
f 130/165/58 127/169/58 128/166/58
f 111/170/46 151/164/46 110/168/46
f 130/165/52 126/171/52 127/169/52
f 111/170/36 150/172/36 151/164/36
f 112/173/37 150/172/37 111/170/37
f 130/165/49 125/174/49 126/171/49
f 130/165/59 124/175/59 125/174/59
f 113/176/60 150/172/60 112/173/60
f 130/165/54 123/177/54 124/175/54
f 114/178/36 150/172/36 113/176/36
f 130/165/46 122/179/46 123/177/46
f 130/165/61 121/180/61 122/179/61
f 115/181/42 150/172/42 114/178/42
f 115/181/36 149/182/36 150/172/36
f 130/165/62 120/183/62 121/180/62
f 116/184/48 149/182/48 115/181/48
f 130/165/63 119/185/63 120/183/63
f 130/165/64 118/186/64 119/185/64
f 117/187/64 149/182/64 116/184/64
f 130/165/65 117/187/65 118/186/65
f 130/165/42 149/182/42 117/187/42
f 130/165/36 148/188/36 149/182/36
f 130/165/36 147/189/36 148/188/36
f 130/165/36 146/190/36 147/189/36
f 131/191/36 146/190/36 130/165/36
f 132/192/36 146/190/36 131/191/36
f 133/193/39 146/190/39 132/192/39
f 133/193/36 145/194/36 146/190/36
f 134/195/36 145/194/36 133/193/36
f 135/196/36 145/194/36 134/195/36
f 135/196/36 144/197/36 145/194/36
f 136/198/36 144/197/36 135/196/36
f 137/199/36 144/197/36 136/198/36
f 138/200/42 144/197/42 137/199/42
f 138/200/36 143/201/36 144/197/36
f 139/202/36 143/201/36 138/200/36
f 140/203/36 143/201/36 139/202/36
f 140/203/36 142/204/36 143/201/36
f 141/205/66 142/204/66 140/203/66
f 204/59/14 203/61/14 205/60/14
f 206/62/14 204/59/14 205/60/14
f 207/63/14 206/62/14 205/60/14
f 207/63/67 205/60/67 208/64/67
f 209/65/14 207/63/14 208/64/14
f 210/66/14 209/65/14 208/64/14
f 211/67/14 210/66/14 208/64/14
f 211/67/14 208/64/14 212/68/14
f 213/69/14 211/67/14 212/68/14
f 214/70/14 213/69/14 212/68/14
f 215/71/68 214/70/68 212/68/68
f 215/71/14 212/68/14 216/72/14
f 217/73/14 215/71/14 216/72/14
f 218/74/14 217/73/14 216/72/14
f 218/74/14 216/72/14 219/75/14
f 220/76/14 218/74/14 219/75/14
f 221/77/14 220/76/14 222/78/14
f 222/78/14 220/76/14 223/79/14
f 223/79/69 220/76/69 224/80/69
f 224/80/14 220/76/14 225/81/14
f 225/81/70 220/76/70 219/75/70
f 225/81/14 219/75/14 226/82/14
f 226/82/14 219/75/14 227/83/14
f 227/83/71 219/75/71 228/84/71
f 227/83/14 228/84/14 229/85/14
f 229/85/14 228/84/14 230/86/14
f 230/86/14 228/84/14 231/87/14
f 230/86/14 231/87/14 232/88/14
f 232/88/14 231/87/14 233/89/14
f 233/89/14 231/87/14 234/90/14
f 234/90/14 231/87/14 235/91/14
f 234/90/14 235/91/14 236/92/14
f 236/92/14 235/91/14 237/93/14
f 237/93/14 235/91/14 238/94/14
f 239/95/14 237/93/14 238/94/14
f 240/96/14 239/95/14 238/94/14
f 241/97/14 240/96/14 238/94/14
f 241/97/14 238/94/14 242/98/14
f 243/99/14 241/97/14 242/98/14
f 244/100/14 243/99/14 242/98/14
f 245/101/14 244/100/14 242/98/14
f 245/101/14 242/98/14 246/102/14
f 247/103/72 245/101/72 246/102/72
f 248/104/73 247/103/73 246/102/73
f 248/104/14 246/102/14 249/105/14
f 250/106/14 248/104/14 249/105/14
f 251/107/74 250/106/74 249/105/74
f 251/107/75 249/105/75 252/108/75
f 253/109/14 251/107/14 252/108/14
f 254/110/68 253/109/68 252/108/68
f 254/110/75 252/108/75 255/111/75
f 256/112/74 254/110/74 255/111/74
f 256/112/14 255/111/14 257/113/14
f 258/114/71 256/112/71 257/113/71
f 258/114/14 257/113/14 259/115/14
f 260/116/14 258/114/14 259/115/14
f 260/116/76 259/115/76 261/117/76
f 262/118/14 260/116/14 261/117/14
f 262/118/73 261/117/73 263/119/73
f 264/120/77 262/118/77 263/119/77
f 265/121/14 264/120/14 263/119/14
f 265/121/14 263/119/14 266/122/14
f 267/123/14 265/121/14 266/122/14
f 267/123/14 266/122/14 268/124/14
f 269/125/78 267/123/78 268/124/78
f 270/126/14 269/125/14 268/124/14
f 271/127/14 270/126/14 268/124/14
f 271/127/14 268/124/14 272/128/14
f 273/129/14 271/127/14 272/128/14
f 274/130/68 273/129/68 272/128/68
f 274/130/78 272/128/78 275/131/78
f 274/130/79 275/131/79 276/132/79
f 274/130/80 276/132/80 277/133/80
f 274/130/71 277/133/71 278/134/71
f 274/130/71 278/134/71 279/135/71
f 274/130/77 279/135/77 280/136/77
f 274/130/14 280/136/14 281/137/14
f 274/130/14 281/137/14 282/138/14
f 274/130/14 282/138/14 283/139/14
f 283/139/14 282/138/14 284/140/14
f 285/141/81 283/139/81 284/140/81
f 286/142/67 285/141/67 284/140/67
f 287/143/14 286/142/14 284/140/14
f 287/143/14 284/140/14 288/144/14
f 289/145/14 287/143/14 288/144/14
f 290/146/14 289/145/14 288/144/14
f 290/146/14 288/144/14 291/147/14
f 292/148/14 290/146/14 291/147/14
f 292/148/14 291/147/14 293/149/14
f 294/150/14 292/148/14 293/149/14
f 295/151/73 294/150/73 293/149/73
f 295/151/14 293/149/14 296/152/14
f 297/153/14 295/151/14 296/152/14
f 297/153/14 296/152/14 298/154/14
f 299/155/14 297/153/14 298/154/14
f 299/155/78 298/154/78 300/156/78
f 301/157/74 299/155/74 300/156/74
f 301/157/14 300/156/14 302/158/14
f 303/159/14 301/157/14 302/158/14
f 304/160/14 303/159/14 302/158/14
f 304/160/14 302/158/14 305/161/14
f 306/162/14 304/160/14 305/161/14
f 307/163/73 306/162/73 305/161/73
f 307/163/74 305/161/74 308/164/74
f 310/165/82 309/167/82 311/166/82
f 312/168/14 307/163/14 308/164/14
f 310/165/14 311/166/14 313/169/14
f 314/170/14 312/168/14 308/164/14
f 310/165/73 313/169/73 315/171/73
f 314/170/14 308/164/14 316/172/14
f 317/173/14 314/170/14 316/172/14
f 310/165/83 315/171/83 318/174/83
f 310/165/67 318/174/67 319/175/67
f 320/176/14 317/173/14 316/172/14
f 310/165/84 319/175/84 321/177/84
f 322/178/14 320/176/14 316/172/14
f 310/165/77 321/177/77 323/179/77
f 310/165/85 323/179/85 324/180/85
f 325/181/86 322/178/86 316/172/86
f 325/181/14 316/172/14 326/182/14
f 310/165/71 324/180/71 327/183/71
f 328/184/14 325/181/14 326/182/14
f 310/165/73 327/183/73 329/185/73
f 310/165/67 329/185/67 330/186/67
f 331/187/14 328/184/14 326/182/14
f 310/165/87 330/186/87 331/187/87
f 310/165/70 331/187/70 326/182/70
f 310/165/14 326/182/14 332/188/14
f 310/165/14 332/188/14 333/189/14
f 310/165/14 333/189/14 334/190/14
f 335/191/14 310/165/14 334/190/14
f 336/192/14 335/191/14 334/190/14
f 337/193/71 336/192/71 334/190/71
f 337/193/14 334/190/14 338/194/14
f 339/195/14 337/193/14 338/194/14
f 340/196/14 339/195/14 338/194/14
f 340/196/14 338/194/14 341/197/14
f 342/198/14 340/196/14 341/197/14
f 343/199/74 342/198/74 341/197/74
f 344/200/68 343/199/68 341/197/68
f 344/200/14 341/197/14 345/201/14
f 346/202/88 344/200/88 345/201/88
f 347/203/73 346/202/73 345/201/73
f 347/203/14 345/201/14 348/204/14
f 349/205/14 347/203/14 348/204/14
f 85/118/89 262/118/89 264/120/89 86/120/89
f 111/170/90 314/170/90 317/173/90 112/173/90
f 181/94/91 238/94/91 235/91/91 182/91/91
f 98/145/92 289/145/92 290/146/92 99/146/92
f 144/197/93 341/197/93 338/194/93 145/194/93
f 196/67/94 211/67/94 213/69/94 197/69/94
f 69/93/95 237/93/95 239/95/95 70/95/95
f 135/196/96 340/196/96 342/198/96 136/198/96
f 86/120/97 264/120/97 265/121/97 87/121/97
f 197/69/98 213/69/98 214/70/98 198/70/98
f 125/174/99 318/174/99 315/171/99 126/171/99
f 70/95/100 239/95/100 240/96/100 71/96/100
f 158/147/101 291/147/101 288/144/101 159/144/101
f 136/198/102 342/198/102 343/199/102 137/199/102
f 99/146/103 290/146/103 292/148/103 100/148/103
f 198/70/104 214/70/104 215/71/104 199/71/104
f 171/122/105 266/122/105 263/119/105 172/119/105
f 124/175/106 319/175/106 318/174/106 125/174/106
f 71/96/107 240/96/107 241/97/107 72/97/107
f 137/199/108 343/199/108 344/200/108 138/200/108
f 87/121/109 265/121/109 267/123/109 88/123/109
f 112/173/110 317/173/110 320/176/110 113/176/110
f 157/149/111 293/149/111 291/147/111 158/147/111
f 186/72/112 216/72/112 212/68/112 187/68/112
f 180/98/113 242/98/113 238/94/113 181/94/113
f 100/148/114 292/148/114 294/150/114 101/150/114
f 143/201/115 345/201/115 341/197/115 144/197/115
f 199/71/116 215/71/116 217/73/116 200/73/116
f 170/124/117 268/124/117 266/122/117 171/122/117
f 123/177/118 321/177/118 319/175/118 124/175/118
f 72/97/119 241/97/119 243/99/119 73/99/119
f 138/200/120 344/200/120 346/202/120 139/202/120
f 88/123/121 267/123/121 269/125/121 89/125/121
f 113/176/122 320/176/122 322/178/122 114/178/122
f 101/150/123 294/150/123 295/151/123 102/151/123
f 200/73/124 217/73/124 218/74/124 201/74/124
f 73/99/125 243/99/125 244/100/125 74/100/125
f 139/202/126 346/202/126 347/203/126 140/203/126
f 89/125/127 269/125/127 270/126/127 90/126/127
f 122/179/128 323/179/128 321/177/128 123/177/128
f 74/100/129 244/100/129 245/101/129 75/101/129
f 156/152/130 296/152/130 293/149/130 157/149/130
f 185/75/131 219/75/131 216/72/131 186/72/131
f 90/126/132 270/126/132 271/127/132 91/127/132
f 102/151/133 295/151/133 297/153/133 103/153/133
f 142/204/134 348/204/134 345/201/134 143/201/134
f 201/74/135 218/74/135 220/76/135 202/76/135
f 121/180/136 324/180/136 323/179/136 122/179/136
f 140/203/137 347/203/137 349/205/137 141/205/137
f 114/178/138 322/178/138 325/181/138 115/181/138
f 179/102/139 246/102/139 242/98/139 180/98/139
f 141/205/140 349/205/140 348/204/140 142/204/140
f 202/76/141 220/76/141 221/77/141 56/77/141
f 169/128/142 272/128/142 268/124/142 170/124/142
f 75/101/143 245/101/143 247/103/143 76/103/143
f 155/154/144 298/154/144 296/152/144 156/152/144
f 56/77/145 221/77/145 222/78/145 57/78/145
f 91/127/146 271/127/146 273/129/146 92/129/146
f 103/153/147 297/153/147 299/155/147 104/155/147
f 149/182/148 326/182/148 316/172/148 150/172/148
f 76/103/149 247/103/149 248/104/149 77/104/149
f 57/78/150 222/78/150 223/79/150 58/79/150
f 92/129/141 273/129/141 274/130/141 93/130/141
f 120/183/151 327/183/151 324/180/151 121/180/151
f 154/156/152 300/156/152 298/154/152 155/154/152
f 58/79/153 223/79/153 224/80/153 59/80/153
f 115/181/154 325/181/154 328/184/154 116/184/154
f 178/105/155 249/105/155 246/102/155 179/102/155
f 104/155/156 299/155/156 301/157/156 105/157/156
f 168/131/157 275/131/157 272/128/157 169/128/157
f 77/104/158 248/104/158 250/106/158 78/106/158
f 59/80/159 224/80/159 225/81/159 60/81/159
f 167/132/160 276/132/160 275/131/160 168/131/160
f 119/185/161 329/185/161 327/183/161 120/183/161
f 78/106/162 250/106/162 251/107/162 79/107/162
f 153/158/163 302/158/163 300/156/163 154/156/163
f 105/157/164 301/157/164 303/159/164 106/159/164
f 60/81/165 225/81/165 226/82/165 61/82/165
f 166/133/166 277/133/166 276/132/166 167/132/166
f 118/186/167 330/186/167 329/185/167 119/185/167
f 116/184/168 328/184/168 331/187/168 117/187/168
f 177/108/169 252/108/169 249/105/169 178/105/169
f 106/159/170 303/159/170 304/160/170 107/160/170
f 61/82/171 226/82/171 227/83/171 62/83/171
f 165/134/172 278/134/172 277/133/172 166/133/172
f 79/107/173 251/107/173 253/109/173 80/109/173
f 164/135/174 279/135/174 278/134/174 165/134/174
f 117/187/175 331/187/175 330/186/175 118/186/175
f 80/109/176 253/109/176 254/110/176 81/110/176
f 152/161/177 305/161/177 302/158/177 153/158/177
f 184/84/178 228/84/178 219/75/178 185/75/178
f 107/160/179 304/160/179 306/162/179 108/162/179
f 62/83/180 227/83/180 229/85/180 63/85/180
f 163/136/181 280/136/181 279/135/181 164/135/181
f 148/188/182 332/188/182 326/182/182 149/182/182
f 176/111/183 255/111/183 252/108/183 177/108/183
f 108/162/184 306/162/184 307/163/184 109/163/184
f 63/85/185 229/85/185 230/86/185 64/86/185
f 162/137/186 281/137/186 280/136/186 163/136/186
f 190/61/187 203/61/187 204/59/187 191/59/187
f 81/110/188 254/110/188 256/112/188 82/112/188
f 147/189/189 333/189/189 332/188/189 148/188/189
f 161/138/190 282/138/190 281/137/190 162/137/190
f 189/60/191 205/60/191 203/61/191 190/61/191
f 151/164/192 308/164/192 305/161/192 152/161/192
f 183/87/193 231/87/193 228/84/193 184/84/193
f 93/130/194 274/130/194 283/139/194 94/139/194
f 146/190/195 334/190/195 333/189/195 147/189/195
f 191/59/196 204/59/196 206/62/196 192/62/196
f 175/113/197 257/113/197 255/111/197 176/111/197
f 129/167/141 309/167/141 310/165/141 130/165/141
f 64/86/198 230/86/198 232/88/198 65/88/198
f 130/165/199 310/165/199 335/191/199 131/191/199
f 82/112/200 256/112/200 258/114/200 83/114/200
f 192/62/201 206/62/201 207/63/201 193/63/201
f 128/166/202 311/166/202 309/167/202 129/167/202
f 65/88/203 232/88/203 233/89/203 66/89/203
f 160/140/204 284/140/204 282/138/204 161/138/204
f 131/191/205 335/191/205 336/192/205 132/192/205
f 109/163/206 307/163/206 312/168/206 110/168/206
f 94/139/207 283/139/207 285/141/207 95/141/207
f 174/115/208 259/115/208 257/113/208 175/113/208
f 66/89/209 233/89/209 234/90/209 67/90/209
f 132/192/210 336/192/210 337/193/210 133/193/210
f 188/64/211 208/64/211 205/60/211 189/60/211
f 83/114/212 258/114/212 260/116/212 84/116/212
f 95/141/213 285/141/213 286/142/213 96/142/213
f 193/63/214 207/63/214 209/65/214 194/65/214
f 127/169/215 313/169/215 311/166/215 128/166/215
f 110/168/216 312/168/216 314/170/216 111/170/216
f 182/91/217 235/91/217 231/87/217 183/87/217
f 96/142/218 286/142/218 287/143/218 97/143/218
f 145/194/219 338/194/219 334/190/219 146/190/219
f 194/65/220 209/65/220 210/66/220 195/66/220
f 173/117/221 261/117/221 259/115/221 174/115/221
f 67/90/222 234/90/222 236/92/222 68/92/222
f 133/193/223 337/193/223 339/195/223 134/195/223
f 84/116/224 260/116/224 262/118/224 85/118/224
f 195/66/225 210/66/225 211/67/225 196/67/225
f 126/171/226 315/171/226 313/169/226 127/169/226
f 68/92/227 236/92/227 237/93/227 69/93/227
f 159/144/228 288/144/228 284/140/228 160/140/228
f 134/195/229 339/195/229 340/196/229 135/196/229
f 97/143/230 287/143/230 289/145/230 98/145/230
f 172/119/231 263/119/231 261/117/231 173/117/231
f 150/172/232 316/172/232 308/164/232 151/164/232
f 187/68/233 212/68/233 208/64/233 188/64/233
