# Blender 5.0.1
# www.blender.org
mtllib Background.mtl
o Sphere
v 0.000000 20.000000 0.000000
v 0.000000 16.629393 -11.111404
v 0.000000 11.111404 -16.629393
v 0.000000 3.901806 -19.615705
v 0.000000 0.000000 -20.000000
v 0.000000 -3.901806 -19.615705
v 0.000000 -11.111404 -16.629393
v 0.000000 -20.000000 0.000000
v 0.761205 19.615705 -3.826834
v 1.493157 18.477591 -7.506606
v 2.167728 16.629393 -10.897902
v 2.758994 14.142136 -13.870398
v 3.244233 11.111404 -16.309862
v 3.604799 7.653669 -18.122547
v 3.826834 3.901806 -19.238794
v 3.901806 0.000000 -19.615705
v 3.826834 -3.901806 -19.238794
v 3.604799 -7.653669 -18.122547
v 3.244233 -11.111404 -16.309862
v 2.758994 -14.142136 -13.870398
v 2.167728 -16.629393 -10.897902
v 1.493157 -18.477591 -7.506606
v 0.761205 -19.615705 -3.826834
v 1.493157 19.615705 -3.604799
v 2.928932 18.477591 -7.071068
v 4.252151 16.629393 -10.265598
v 5.411961 14.142136 -13.065629
v 6.363792 11.111404 -15.363552
v 7.071067 7.653669 -17.071068
v 7.506605 3.901806 -18.122547
v 7.653668 0.000000 -18.477589
v 7.506605 -3.901806 -18.122547
v 7.071067 -7.653669 -17.071068
v 6.363792 -11.111404 -15.363552
v 5.411961 -14.142136 -13.065629
v 4.252151 -16.629393 -10.265598
v 2.928932 -18.477591 -7.071068
v 1.493157 -19.615705 -3.604799
v 2.167727 19.615705 -3.244233
v 4.252151 18.477591 -6.363793
v 6.173165 16.629393 -9.238794
v 7.856950 14.142136 -11.758756
v 9.238794 11.111404 -13.826832
v 10.265598 7.653669 -15.363554
v 10.897902 3.901806 -16.309862
v 11.111404 0.000000 -16.629389
v 10.897902 -3.901806 -16.309862
v 10.265598 -7.653669 -15.363554
v 9.238794 -11.111404 -13.826832
v 7.856950 -14.142136 -11.758756
v 6.173165 -16.629393 -9.238794
v 4.252151 -18.477591 -6.363793
v 2.167727 -19.615705 -3.244233
v 2.758994 19.615705 -2.758993
v 5.411961 18.477591 -5.411961
v 7.856949 16.629393 -7.856948
v 10.000000 14.142136 -10.000000
v 11.758755 11.111404 -11.758753
v 13.065628 7.653669 -13.065629
v 13.870398 3.901806 -13.870397
v 14.142136 0.000000 -14.142132
v 13.870398 -3.901806 -13.870397
v 13.065628 -7.653669 -13.065629
v 11.758755 -11.111404 -11.758753
v 10.000000 -14.142136 -10.000000
v 7.856949 -16.629393 -7.856948
v 5.411961 -18.477591 -5.411961
v 2.758994 -19.615705 -2.758993
v 3.244233 19.615705 -2.167727
v 6.363793 18.477591 -4.252150
v 9.238794 16.629393 -6.173164
v 11.758756 14.142136 -7.856950
v 13.826833 11.111404 -9.238792
v 15.363552 7.653669 -10.265599
v 16.309862 3.901806 -10.897900
v 16.629391 0.000000 -11.111401
v 16.309862 -3.901806 -10.897900
v 15.363552 -7.653669 -10.265599
v 13.826833 -11.111404 -9.238792
v 11.758756 -14.142136 -7.856950
v 9.238794 -16.629393 -6.173164
v 6.363793 -18.477591 -4.252150
v 3.244233 -19.615705 -2.167727
v 3.604798 19.615705 -1.493156
v 7.071067 18.477591 -2.928932
v 10.265598 16.629393 -4.252149
v 13.065629 14.142136 -5.411961
v 15.363552 11.111404 -6.363790
v 17.071066 7.653669 -7.071068
v 18.122547 3.901806 -7.506603
v 18.477589 0.000000 -7.653665
v 18.122547 -3.901806 -7.506603
v 17.071066 -7.653669 -7.071068
v 15.363552 -11.111404 -6.363790
v 13.065629 -14.142136 -5.411961
v 10.265598 -16.629393 -4.252149
v 7.071067 -18.477591 -2.928932
v 3.604798 -19.615705 -1.493156
v 3.826833 19.615705 -0.761204
v 7.506605 18.477591 -1.493156
v 10.897902 16.629393 -2.167726
v 13.870398 14.142136 -2.758994
v 16.309860 11.111404 -3.244231
v 18.122547 7.653669 -3.604800
v 19.238792 3.901806 -3.826832
v 19.615702 0.000000 -3.901803
v 19.238792 -3.901806 -3.826832
v 18.122547 -7.653669 -3.604800
v 16.309860 -11.111404 -3.244231
v 13.870398 -14.142136 -2.758994
v 10.897902 -16.629393 -2.167726
v 7.506605 -18.477591 -1.493156
v 3.826833 -19.615705 -0.761204
v 3.901805 19.615705 0.000000
v 7.653668 18.477591 0.000000
v 11.111403 16.629393 0.000001
v 14.142134 14.142136 -0.000000
v 16.629389 11.111404 0.000002
v 18.477589 7.653669 -0.000001
v 19.615704 3.901806 0.000002
v 19.999994 0.000000 0.000003
v 19.615704 -3.901806 0.000002
v 18.477589 -7.653669 -0.000001
v 16.629389 -11.111404 0.000002
v 14.142134 -14.142136 -0.000000
v 11.111403 -16.629393 0.000001
v 7.653668 -18.477591 0.000000
v 3.901805 -19.615705 0.000000
v 3.826833 19.615705 0.761205
v 7.506605 18.477591 1.493157
v 10.897900 16.629393 2.167728
v 13.870397 14.142136 2.758993
v 16.309858 11.111404 3.244235
v 18.122547 7.653669 3.604798
v 19.238792 3.901806 3.826835
v 19.615698 0.000000 3.901809
v 19.238792 -3.901806 3.826835
v 18.122547 -7.653669 3.604798
v 16.309858 -11.111404 3.244235
v 13.870397 -14.142136 2.758993
v 10.897900 -16.629393 2.167728
v 7.506605 -18.477591 1.493157
v 3.826833 -19.615705 0.761205
v 3.604798 19.615705 1.493156
v 7.071067 18.477591 2.928932
v 10.265596 16.629393 4.252151
v 13.065628 14.142136 5.411960
v 15.363550 11.111404 6.363793
v 17.071066 7.653669 7.071066
v 18.122543 3.901806 7.506606
v 18.477581 0.000000 7.653669
v 18.122543 -3.901806 7.506606
v 17.071066 -7.653669 7.071066
v 15.363550 -11.111404 6.363793
v 13.065628 -14.142136 5.411960
v 10.265596 -16.629393 4.252151
v 7.071067 -18.477591 2.928932
v 3.604798 -19.615705 1.493156
v 3.244232 19.615705 2.167727
v 6.363792 18.477591 4.252151
v 9.238791 16.629393 6.173165
v 11.758755 14.142136 7.856948
v 13.826829 11.111404 9.238794
v 15.363552 7.653669 10.265597
v 16.309858 3.901806 10.897902
v 16.629383 0.000000 11.111403
v 16.309858 -3.901806 10.897902
v 15.363552 -7.653669 10.265597
v 13.826829 -11.111404 9.238794
v 11.758755 -14.142136 7.856948
v 9.238791 -16.629393 6.173165
v 6.363792 -18.477591 4.252151
v 3.244232 -19.615705 2.167727
v 2.758992 19.615705 2.758993
v 5.411959 18.477591 5.411961
v 7.856946 16.629393 7.856948
v 9.999999 14.142136 9.999999
v 11.758751 11.111404 11.758753
v 13.065628 7.653669 13.065626
v 13.870394 3.901806 13.870397
v 14.142124 0.000000 14.142133
v 13.870394 -3.901806 13.870397
v 13.065628 -7.653669 13.065626
v 11.758751 -11.111404 11.758753
v 9.999999 -14.142136 9.999999
v 7.856946 -16.629393 7.856948
v 5.411959 -18.477591 5.411961
v 2.758992 -19.615705 2.758993
v 2.167726 19.615705 3.244232
v 4.252149 18.477591 6.363792
v 6.173162 16.629393 9.238793
v 7.856948 14.142136 11.758755
v 9.238791 11.111404 13.826830
v 10.265598 7.653669 15.363551
v 10.897898 3.901806 16.309860
v 11.111394 0.000000 16.629387
v 10.897898 -3.901806 16.309860
v 10.265598 -7.653669 15.363551
v 9.238791 -11.111404 13.826830
v 7.856948 -14.142136 11.758755
v 6.173162 -16.629393 9.238793
v 4.252149 -18.477591 6.363792
v 2.167726 -19.615705 3.244232
v 1.493156 19.615705 3.604797
v 2.928931 18.477591 7.071066
v 4.252147 16.629393 10.265596
v 5.411960 14.142136 13.065628
v 6.363789 11.111404 15.363550
v 7.071067 7.653669 17.071064
v 7.506600 3.901806 18.122543
v 7.653659 0.000000 18.477583
v 7.506600 -3.901806 18.122543
v 7.071067 -7.653669 17.071064
v 6.363789 -11.111404 15.363550
v 5.411960 -14.142136 13.065628
v 4.252147 -16.629393 10.265596
v 2.928931 -18.477591 7.071066
v 1.493156 -19.615705 3.604797
v 0.761204 19.615705 3.826832
v 1.493155 18.477591 7.506604
v 2.167725 16.629393 10.897898
v 2.758993 14.142136 13.870397
v 3.244231 11.111404 16.309856
v 3.604799 7.653669 18.122543
v 3.826830 3.901806 19.238789
v 3.901798 0.000000 19.615696
v 3.826830 -3.901806 19.238789
v 3.604799 -7.653669 18.122543
v 3.244231 -11.111404 16.309856
v 2.758993 -14.142136 13.870397
v 2.167725 -16.629393 10.897898
v 1.493155 -18.477591 7.506604
v 0.761204 -19.615705 3.826832
v -0.000000 19.615705 3.901804
v -0.000001 18.477591 7.653666
v -0.000002 16.629393 11.111399
v -0.000000 14.142136 14.142133
v -0.000002 11.111404 16.629387
v 0.000001 7.653669 18.477585
v -0.000003 3.901806 19.615700
v -0.000007 0.000000 19.999987
v -0.000003 -3.901806 19.615700
v 0.000001 -7.653669 18.477585
v -0.000002 -11.111404 16.629387
v -0.000000 -14.142136 14.142133
v -0.000002 -16.629393 11.111399
v -0.000001 -18.477591 7.653666
v -0.000000 -19.615705 3.901804
v -0.761204 19.615705 3.826832
v -1.493157 18.477591 7.506604
v -2.167728 16.629393 10.897896
v -2.758994 14.142136 13.870396
v -3.244234 11.111404 16.309856
v -3.604797 7.653669 18.122543
v -3.826836 3.901806 19.238789
v -3.901810 0.000000 19.615690
v -3.826836 -3.901806 19.238789
v -3.604797 -7.653669 18.122543
v -3.244234 -11.111404 16.309856
v -2.758994 -14.142136 13.870396
v -2.167728 -16.629393 10.897896
v -1.493157 -18.477591 7.506604
v -0.761204 -19.615705 3.826832
v -1.493156 19.615705 3.604796
v -2.928932 18.477591 7.071066
v -4.252150 16.629393 10.265593
v -5.411960 14.142136 13.065626
v -6.363792 11.111404 15.363548
v -7.071065 7.653669 17.071062
v -7.506605 3.901806 18.122541
v -7.653670 0.000000 18.477575
v -7.506605 -3.901806 18.122541
v -7.071065 -7.653669 17.071062
v -6.363792 -11.111404 15.363548
v -5.411960 -14.142136 13.065626
v -4.252150 -16.629393 10.265593
v -2.928932 -18.477591 7.071066
v -1.493156 -19.615705 3.604796
v -2.167726 19.615705 3.244231
v -4.252150 18.477591 6.363791
v -6.173163 16.629393 9.238788
v -7.856948 14.142136 11.758753
v -9.238792 11.111404 13.826827
v -10.265594 7.653669 15.363550
v -10.897902 3.901806 16.309855
v -11.111403 0.000000 16.629375
v -10.897902 -3.901806 16.309855
v -10.265594 -7.653669 15.363550
v -9.238792 -11.111404 13.826827
v -7.856948 -14.142136 11.758753
v -6.173163 -16.629393 9.238788
v -4.252150 -18.477591 6.363791
v -2.167726 -19.615705 3.244231
v -2.758992 19.615705 2.758991
v -5.411960 18.477591 5.411959
v -7.856946 16.629393 7.856942
v -9.999998 14.142136 9.999998
v -11.758752 11.111404 11.758748
v -13.065624 7.653669 13.065625
v -13.870396 3.901806 13.870391
v -14.142130 0.000000 14.142118
v -13.870396 -3.901806 13.870391
v -13.065624 -7.653669 13.065625
v -11.758752 -11.111404 11.758748
v -9.999998 -14.142136 9.999998
v -7.856946 -16.629393 7.856942
v -5.411960 -18.477591 5.411959
v -2.758992 -19.615705 2.758991
v -3.244231 19.615705 2.167726
v -6.363791 18.477591 4.252148
v -9.238791 16.629393 6.173159
v -11.758753 14.142136 7.856947
v -13.826829 11.111404 9.238789
v -15.363549 7.653669 10.265596
v -16.309858 3.901806 10.897894
v -16.629383 0.000000 11.111388
v -16.309858 -3.901806 10.897894
v -15.363549 -7.653669 10.265596
v -13.826829 -11.111404 9.238789
v -11.758753 -14.142136 7.856947
v -9.238791 -16.629393 6.173159
v -6.363791 -18.477591 4.252148
v -3.244231 -19.615705 2.167726
v -3.604796 19.615705 1.493155
v -7.071065 18.477591 2.928930
v -10.265593 16.629393 4.252145
v -13.065626 14.142136 5.411959
v -15.363548 11.111404 6.363787
v -17.071060 7.653669 7.071065
v -18.122543 3.901806 7.506598
v -18.477577 0.000000 7.653654
v -18.122543 -3.901806 7.506598
v -17.071060 -7.653669 7.071065
v -15.363548 -11.111404 6.363787
v -13.065626 -14.142136 5.411959
v -10.265593 -16.629393 4.252145
v -7.071065 -18.477591 2.928930
v -3.604796 -19.615705 1.493155
v -3.826831 19.615705 0.761204
v -7.506602 18.477591 1.493155
v -10.897894 16.629393 2.167723
v -13.870396 14.142136 2.758993
v -16.309855 11.111404 3.244229
v -18.122541 7.653669 3.604798
v -19.238789 3.901806 3.826828
v -19.615688 0.000000 3.901794
v -19.238789 -3.901806 3.826828
v -18.122541 -7.653669 3.604798
v -16.309855 -11.111404 3.244229
v -13.870396 -14.142136 2.758993
v -10.897894 -16.629393 2.167723
v -7.506602 -18.477591 1.493155
v -3.826831 -19.615705 0.761204
v -3.901803 19.615705 -0.000000
v -7.653665 18.477591 -0.000001
v -11.111395 16.629393 -0.000003
v -14.142132 14.142136 -0.000001
v -16.629383 11.111404 -0.000003
v -18.477583 7.653669 -0.000000
v -19.615696 3.901806 -0.000005
v -19.999981 0.000000 -0.000009
v -19.615696 -3.901806 -0.000005
v -18.477583 -7.653669 -0.000000
v -16.629383 -11.111404 -0.000003
v -14.142132 -14.142136 -0.000001
v -11.111395 -16.629393 -0.000003
v -7.653665 -18.477591 -0.000001
v -3.901803 -19.615705 -0.000000
v -3.826831 19.615705 -0.761204
v -7.506602 18.477591 -1.493157
v -10.897893 16.629393 -2.167729
v -13.870394 14.142136 -2.758994
v -16.309853 11.111404 -3.244235
v -18.122541 7.653669 -3.604798
v -19.238785 3.901806 -3.826838
v -19.615685 0.000000 -3.901812
v -19.238785 -3.901806 -3.826838
v -18.122541 -7.653669 -3.604798
v -16.309853 -11.111404 -3.244235
v -13.870394 -14.142136 -2.758994
v -10.897893 -16.629393 -2.167729
v -7.506602 -18.477591 -1.493157
v -3.826831 -19.615705 -0.761204
v -3.604796 19.615705 -1.493156
v -7.071064 18.477591 -2.928932
v -10.265589 16.629393 -4.252150
v -13.065625 14.142136 -5.411960
v -15.363544 11.111404 -6.363792
v -17.071060 7.653669 -7.071065
v -18.122538 3.901806 -7.506607
v -18.477570 0.000000 -7.653670
v -18.122538 -3.901806 -7.506607
v -17.071060 -7.653669 -7.071065
v -15.363544 -11.111404 -6.363792
v -13.065625 -14.142136 -5.411960
v -10.265589 -16.629393 -4.252150
v -7.071064 -18.477591 -2.928932
v -3.604796 -19.615705 -1.493156
v -3.244230 19.615705 -2.167726
v -6.363789 18.477591 -4.252149
v -9.238785 16.629393 -6.173163
v -11.758752 14.142136 -7.856948
v -13.826823 11.111404 -9.238792
v -15.363548 7.653669 -10.265594
v -16.309851 3.901806 -10.897902
v -16.629370 0.000000 -11.111402
v -16.309851 -3.901806 -10.897902
v -15.363548 -7.653669 -10.265594
v -13.826823 -11.111404 -9.238792
v -11.758752 -14.142136 -7.856948
v -9.238785 -16.629393 -6.173163
v -6.363789 -18.477591 -4.252149
v -3.244230 -19.615705 -2.167726
v -2.758991 19.615705 -2.758991
v -5.411958 18.477591 -5.411959
v -7.856939 16.629393 -7.856945
v -9.999996 14.142136 -9.999998
v -11.758745 11.111404 -11.758751
v -13.065623 7.653669 -13.065623
v -13.870387 3.901806 -13.870394
v -14.142114 0.000000 -14.142127
v -13.870387 -3.901806 -13.870394
v -13.065623 -7.653669 -13.065623
v -11.758745 -11.111404 -11.758751
v -9.999996 -14.142136 -9.999998
v -7.856939 -16.629393 -7.856945
v -5.411958 -18.477591 -5.411959
v -2.758991 -19.615705 -2.758991
v -2.167725 19.615705 -3.244231
v -4.252147 18.477591 -6.363790
v -6.173156 16.629393 -9.238789
v -7.856946 14.142136 -11.758753
v -9.238786 11.111404 -13.826827
v -10.265594 7.653669 -15.363548
v -10.897892 3.901806 -16.309856
v -11.111384 0.000000 -16.629379
v -10.897892 -3.901806 -16.309856
v -10.265594 -7.653669 -15.363548
v -9.238786 -11.111404 -13.826827
v -7.856946 -14.142136 -11.758753
v -6.173156 -16.629393 -9.238789
v -4.252147 -18.477591 -6.363790
v -2.167725 -19.615705 -3.244231
v -1.493155 19.615705 -3.604795
v -2.928930 18.477591 -7.071065
v -4.252142 16.629393 -10.265590
v -5.411958 14.142136 -13.065626
v -6.363784 11.111404 -15.363545
v -7.071064 7.653669 -17.071060
v -7.506596 3.901806 -18.122540
v -7.653651 0.000000 -18.477571
v -7.506596 -3.901806 -18.122540
v -7.071064 -7.653669 -17.071060
v -6.363784 -11.111404 -15.363545
v -5.411958 -14.142136 -13.065626
v -4.252142 -16.629393 -10.265590
v -2.928930 -18.477591 -7.071065
v -1.493155 -19.615705 -3.604795
v -0.761204 19.615705 -3.826830
v -1.493155 18.477591 -7.506602
v -2.167721 16.629393 -10.897890
v -2.758991 14.142136 -13.870396
v -3.244226 11.111404 -16.309851
v -3.604796 7.653669 -18.122540
v -3.826827 3.901806 -19.238785
v -3.901793 0.000000 -19.615685
v -3.826827 -3.901806 -19.238785
v -3.604796 -7.653669 -18.122540
v -3.244226 -11.111404 -16.309851
v -2.758991 -14.142136 -13.870396
v -2.167721 -16.629393 -10.897890
v -1.493155 -18.477591 -7.506602
v -0.761204 -19.615705 -3.826830
v 0.000000 19.615705 -3.901802
v 0.000001 18.477591 -7.653665
v 0.000002 14.142136 -14.142132
v 0.000001 7.653669 -18.477581
v 0.000001 -7.653669 -18.477581
v 0.000002 -14.142136 -14.142132
v 0.000004 -16.629393 -11.111391
v 0.000001 -18.477591 -7.653665
v 0.000000 -19.615705 -3.901802
vn -0.0624 -0.7715 0.6332
vn -0.0759 0.6326 0.7708
vn -0.0759 -0.6326 0.7708
vn -0.0624 0.7715 0.6332
vn -0.0865 -0.4696 0.8786
vn -0.0464 0.8810 0.4709
vn -0.0938 -0.2890 0.9527
vn -0.0286 0.9565 0.2902
vn -0.0975 -0.0975 0.9904
vn -0.0097 -0.9951 0.0980
vn -0.0097 0.9951 0.0980
vn -0.0975 0.0975 0.9904
vn -0.0286 -0.9565 0.2902
vn -0.0938 0.2890 0.9527
vn -0.0464 -0.8810 0.4709
vn -0.0865 0.4696 0.8786
vn -0.2779 0.2890 0.9161
vn -0.1374 -0.8810 0.4528
vn -0.2563 0.4696 0.8448
vn -0.1847 -0.7715 0.6088
vn -0.2248 0.6326 0.7412
vn -0.2248 -0.6326 0.7412
vn -0.1847 0.7715 0.6088
vn -0.2563 -0.4696 0.8448
vn -0.1374 0.8810 0.4528
vn -0.2779 -0.2890 0.9161
vn -0.0846 0.9565 0.2790
vn -0.2889 -0.0976 0.9524
vn -0.0286 -0.9951 0.0942
vn -0.0286 0.9951 0.0942
vn -0.2889 0.0976 0.9524
vn -0.0846 -0.9565 0.2790
vn -0.2230 0.8810 0.4173
vn -0.4513 -0.2890 0.8443
vn -0.1374 0.9565 0.2571
vn -0.4691 -0.0975 0.8777
vn -0.0464 -0.9951 0.0869
vn -0.0464 0.9951 0.0869
vn -0.4691 0.0975 0.8777
vn -0.1374 -0.9565 0.2571
vn -0.4513 0.2890 0.8443
vn -0.2230 -0.8810 0.4173
vn -0.4162 0.4696 0.7786
vn -0.2999 -0.7715 0.5611
vn -0.3651 0.6326 0.6831
vn -0.3651 -0.6326 0.6831
vn -0.2999 0.7715 0.5611
vn -0.4162 -0.4696 0.7786
vn -0.5601 0.4696 0.6825
vn -0.4036 -0.7715 0.4918
vn -0.4913 0.6326 0.5987
vn -0.4913 -0.6326 0.5987
vn -0.4036 0.7715 0.4918
vn -0.5601 -0.4696 0.6825
vn -0.3002 0.8810 0.3658
vn -0.6073 -0.2890 0.7400
vn -0.1850 0.9565 0.2254
vn -0.6314 -0.0975 0.7693
vn -0.0625 -0.9951 0.0761
vn -0.0625 0.9951 0.0761
vn -0.6314 0.0975 0.7693
vn -0.1850 -0.9565 0.2254
vn -0.6073 0.2890 0.7400
vn -0.3002 -0.8810 0.3658
vn -0.2254 0.9565 0.1850
vn -0.7693 -0.0975 0.6314
vn -0.0761 -0.9951 0.0625
vn -0.0761 0.9951 0.0625
vn -0.7693 0.0975 0.6314
vn -0.2254 -0.9565 0.1850
vn -0.7400 0.2890 0.6073
vn -0.3658 -0.8810 0.3002
vn -0.6825 0.4696 0.5601
vn -0.4918 -0.7715 0.4036
vn -0.5987 0.6326 0.4913
vn -0.5987 -0.6326 0.4913
vn -0.4918 0.7715 0.4036
vn -0.6825 -0.4696 0.5601
vn -0.3658 0.8810 0.3002
vn -0.7400 -0.2890 0.6073
vn -0.5611 -0.7715 0.2999
vn -0.6831 0.6326 0.3651
vn -0.6831 -0.6326 0.3651
vn -0.5611 0.7715 0.2999
vn -0.7786 -0.4696 0.4162
vn -0.4173 0.8810 0.2230
vn -0.8443 -0.2890 0.4513
vn -0.2571 0.9565 0.1374
vn -0.8777 -0.0975 0.4691
vn -0.0869 -0.9951 0.0464
vn -0.0869 0.9951 0.0464
vn -0.8777 0.0975 0.4691
vn -0.2571 -0.9565 0.1374
vn -0.8443 0.2890 0.4513
vn -0.4173 -0.8810 0.2230
vn -0.7786 0.4696 0.4162
vn -0.9524 -0.0975 0.2889
vn -0.0942 -0.9951 0.0286
vn -0.0942 0.9951 0.0286
vn -0.9524 0.0975 0.2889
vn -0.2790 -0.9565 0.0846
vn -0.9161 0.2890 0.2779
vn -0.4528 -0.8810 0.1374
vn -0.8448 0.4696 0.2563
vn -0.6088 -0.7715 0.1847
vn -0.7412 0.6326 0.2248
vn -0.7412 -0.6326 0.2248
vn -0.6088 0.7715 0.1847
vn -0.8448 -0.4696 0.2563
vn -0.4528 0.8810 0.1374
vn -0.9161 -0.2890 0.2779
vn -0.2790 0.9565 0.0846
vn -0.7708 0.6326 0.0759
vn -0.7708 -0.6326 0.0759
vn -0.6332 0.7715 0.0624
vn -0.8786 -0.4696 0.0865
vn -0.4709 0.8810 0.0464
vn -0.9527 -0.2890 0.0938
vn -0.2902 0.9565 0.0286
vn -0.9904 -0.0975 0.0975
vn -0.0980 -0.9951 0.0097
vn -0.0980 0.9951 0.0097
vn -0.9904 0.0975 0.0975
vn -0.2902 -0.9565 0.0286
vn -0.9527 0.2890 0.0938
vn -0.4709 -0.8810 0.0464
vn -0.8786 0.4696 0.0865
vn -0.6332 -0.7715 0.0624
vn -0.0980 -0.9951 -0.0097
vn -0.0980 0.9951 -0.0097
vn -0.9904 0.0975 -0.0976
vn -0.2902 -0.9565 -0.0286
vn -0.9527 0.2890 -0.0938
vn -0.4709 -0.8810 -0.0464
vn -0.8786 0.4696 -0.0865
vn -0.6332 -0.7715 -0.0624
vn -0.7708 0.6326 -0.0759
vn -0.7708 -0.6326 -0.0759
vn -0.6332 0.7715 -0.0624
vn -0.8786 -0.4696 -0.0865
vn -0.4709 0.8810 -0.0464
vn -0.9527 -0.2890 -0.0938
vn -0.2902 0.9565 -0.0286
vn -0.9904 -0.0975 -0.0976
vn -0.7412 -0.6326 -0.2248
vn -0.6088 0.7715 -0.1847
vn -0.8448 -0.4696 -0.2563
vn -0.4528 0.8810 -0.1374
vn -0.9161 -0.2890 -0.2779
vn -0.2790 0.9565 -0.0846
vn -0.9524 -0.0975 -0.2889
vn -0.0942 -0.9951 -0.0286
vn -0.0942 0.9951 -0.0286
vn -0.9524 0.0975 -0.2889
vn -0.2790 -0.9565 -0.0846
vn -0.9161 0.2890 -0.2779
vn -0.4528 -0.8810 -0.1374
vn -0.8448 0.4696 -0.2563
vn -0.6088 -0.7715 -0.1847
vn -0.7412 0.6326 -0.2248
vn -0.8777 0.0975 -0.4691
vn -0.2571 -0.9565 -0.1374
vn -0.8443 0.2890 -0.4513
vn -0.4173 -0.8810 -0.2230
vn -0.7786 0.4696 -0.4162
vn -0.5611 -0.7715 -0.2999
vn -0.6831 0.6326 -0.3651
vn -0.6831 -0.6326 -0.3651
vn -0.5611 0.7715 -0.2999
vn -0.7786 -0.4696 -0.4162
vn -0.4173 0.8810 -0.2230
vn -0.8443 -0.2890 -0.4513
vn -0.2571 0.9565 -0.1374
vn -0.8777 -0.0975 -0.4691
vn -0.0869 -0.9951 -0.0464
vn -0.0869 0.9951 -0.0464
vn -0.4918 0.7715 -0.4036
vn -0.6825 -0.4696 -0.5601
vn -0.3658 0.8810 -0.3002
vn -0.7400 -0.2890 -0.6073
vn -0.2254 0.9565 -0.1850
vn -0.7693 -0.0975 -0.6314
vn -0.0761 -0.9951 -0.0625
vn -0.0761 0.9951 -0.0625
vn -0.7693 0.0975 -0.6314
vn -0.2254 -0.9565 -0.1850
vn -0.7400 0.2890 -0.6073
vn -0.3658 -0.8810 -0.3002
vn -0.6825 0.4696 -0.5601
vn -0.4918 -0.7715 -0.4036
vn -0.5987 0.6326 -0.4913
vn -0.5987 -0.6326 -0.4913
vn -0.6073 0.2890 -0.7400
vn -0.3002 -0.8810 -0.3658
vn -0.5601 0.4696 -0.6825
vn -0.4036 -0.7715 -0.4918
vn -0.4913 0.6326 -0.5987
vn -0.4913 -0.6326 -0.5987
vn -0.4036 0.7715 -0.4918
vn -0.5601 -0.4696 -0.6825
vn -0.3002 0.8810 -0.3658
vn -0.6073 -0.2890 -0.7400
vn -0.1850 0.9565 -0.2254
vn -0.6314 -0.0975 -0.7693
vn -0.0625 -0.9951 -0.0761
vn -0.0625 0.9951 -0.0761
vn -0.6314 0.0975 -0.7693
vn -0.1850 -0.9565 -0.2254
vn -0.2230 0.8810 -0.4173
vn -0.4513 -0.2890 -0.8443
vn -0.1374 0.9565 -0.2571
vn -0.4691 -0.0975 -0.8777
vn -0.0464 -0.9951 -0.0869
vn -0.0464 0.9951 -0.0869
vn -0.4691 0.0975 -0.8777
vn -0.1374 -0.9565 -0.2571
vn -0.4513 0.2890 -0.8443
vn -0.2230 -0.8810 -0.4173
vn -0.4162 0.4696 -0.7786
vn -0.2999 -0.7715 -0.5611
vn -0.3651 0.6326 -0.6831
vn -0.3651 -0.6326 -0.6831
vn -0.2999 0.7715 -0.5611
vn -0.4162 -0.4696 -0.7786
vn -0.1374 -0.8810 -0.4528
vn -0.2563 0.4696 -0.8448
vn -0.1847 -0.7715 -0.6088
vn -0.2248 0.6326 -0.7412
vn -0.2248 -0.6326 -0.7412
vn -0.1847 0.7715 -0.6088
vn -0.2563 -0.4696 -0.8448
vn -0.1374 0.8810 -0.4528
vn -0.2779 -0.2890 -0.9161
vn -0.0846 0.9565 -0.2790
vn -0.2889 -0.0975 -0.9524
vn -0.0286 -0.9951 -0.0942
vn -0.0286 0.9951 -0.0942
vn -0.2889 0.0975 -0.9524
vn -0.0846 -0.9565 -0.2790
vn -0.2779 0.2890 -0.9161
vn -0.0938 -0.2890 -0.9527
vn -0.0286 0.9565 -0.2902
vn -0.0975 -0.0975 -0.9904
vn -0.0097 -0.9951 -0.0980
vn -0.0097 0.9951 -0.0980
vn -0.0975 0.0975 -0.9904
vn -0.0286 -0.9565 -0.2902
vn -0.0938 0.2890 -0.9527
vn -0.0464 -0.8810 -0.4709
vn -0.0865 0.4696 -0.8786
vn -0.0624 -0.7715 -0.6332
vn -0.0759 0.6326 -0.7708
vn -0.0759 -0.6326 -0.7708
vn -0.0624 0.7715 -0.6332
vn -0.0865 -0.4696 -0.8786
vn -0.0464 0.8810 -0.4709
vn 0.0865 0.4696 -0.8786
vn 0.0624 -0.7715 -0.6332
vn 0.0759 0.6326 -0.7708
vn 0.0759 -0.6326 -0.7708
vn 0.0624 0.7715 -0.6332
vn 0.0865 -0.4696 -0.8786
vn 0.0464 0.8810 -0.4709
vn 0.0938 -0.2890 -0.9527
vn 0.0286 0.9565 -0.2902
vn 0.0976 -0.0975 -0.9904
vn 0.0097 -0.9951 -0.0980
vn 0.0097 0.9951 -0.0980
vn 0.0976 0.0975 -0.9904
vn 0.0286 -0.9565 -0.2902
vn 0.0938 0.2890 -0.9527
vn 0.0464 -0.8810 -0.4709
vn 0.0846 0.9565 -0.2790
vn 0.2889 -0.0975 -0.9524
vn 0.0286 -0.9951 -0.0942
vn 0.0286 0.9951 -0.0942
vn 0.2889 0.0975 -0.9524
vn 0.0846 -0.9565 -0.2790
vn 0.2779 0.2890 -0.9161
vn 0.1374 -0.8810 -0.4528
vn 0.2563 0.4696 -0.8448
vn 0.1847 -0.7715 -0.6088
vn 0.2248 0.6326 -0.7412
vn 0.2248 -0.6326 -0.7412
vn 0.1847 0.7715 -0.6088
vn 0.2563 -0.4696 -0.8448
vn 0.1374 0.8810 -0.4528
vn 0.2779 -0.2890 -0.9161
vn 0.2999 -0.7715 -0.5611
vn 0.3651 0.6326 -0.6831
vn 0.3651 -0.6326 -0.6831
vn 0.2999 0.7715 -0.5611
vn 0.4162 -0.4696 -0.7786
vn 0.2230 0.8810 -0.4173
vn 0.4513 -0.2890 -0.8443
vn 0.1374 0.9565 -0.2571
vn 0.4691 -0.0975 -0.8777
vn 0.0464 -0.9951 -0.0869
vn 0.0464 0.9951 -0.0869
vn 0.4691 0.0975 -0.8777
vn 0.1374 -0.9565 -0.2571
vn 0.4513 0.2890 -0.8443
vn 0.2231 -0.8810 -0.4173
vn 0.4162 0.4696 -0.7786
vn 0.6314 -0.0975 -0.7693
vn 0.0625 -0.9951 -0.0761
vn 0.0625 0.9951 -0.0761
vn 0.6314 0.0975 -0.7693
vn 0.1850 -0.9565 -0.2254
vn 0.6073 0.2890 -0.7400
vn 0.3002 -0.8810 -0.3658
vn 0.5601 0.4696 -0.6825
vn 0.4036 -0.7715 -0.4918
vn 0.4913 0.6326 -0.5987
vn 0.4913 -0.6326 -0.5987
vn 0.4036 0.7715 -0.4918
vn 0.5601 -0.4696 -0.6825
vn 0.3002 0.8810 -0.3658
vn 0.6073 -0.2890 -0.7400
vn 0.1850 0.9565 -0.2254
vn 0.5987 0.6326 -0.4913
vn 0.5987 -0.6326 -0.4913
vn 0.4918 0.7715 -0.4036
vn 0.6825 -0.4696 -0.5601
vn 0.3658 0.8810 -0.3002
vn 0.7400 -0.2890 -0.6073
vn 0.2254 0.9565 -0.1850
vn 0.7693 -0.0975 -0.6314
vn 0.0761 -0.9951 -0.0625
vn 0.0761 0.9951 -0.0625
vn 0.7693 0.0975 -0.6314
vn 0.2254 -0.9565 -0.1850
vn 0.7400 0.2890 -0.6073
vn 0.3658 -0.8810 -0.3002
vn 0.6825 0.4696 -0.5601
vn 0.4918 -0.7715 -0.4036
vn 0.0869 0.9951 -0.0464
vn 0.8777 0.0975 -0.4691
vn 0.2571 -0.9565 -0.1374
vn 0.8443 0.2890 -0.4513
vn 0.4173 -0.8810 -0.2230
vn 0.7786 0.4696 -0.4162
vn 0.5611 -0.7715 -0.2999
vn 0.6831 0.6326 -0.3651
vn 0.6831 -0.6326 -0.3651
vn 0.5611 0.7715 -0.2999
vn 0.7786 -0.4696 -0.4162
vn 0.4173 0.8810 -0.2230
vn 0.8443 -0.2890 -0.4513
vn 0.2571 0.9565 -0.1374
vn 0.8777 -0.0975 -0.4691
vn 0.0869 -0.9951 -0.0464
vn 0.6088 0.7715 -0.1847
vn 0.8448 -0.4696 -0.2563
vn 0.4528 0.8810 -0.1374
vn 0.9161 -0.2890 -0.2779
vn 0.2790 0.9565 -0.0846
vn 0.9524 -0.0975 -0.2889
vn 0.0942 -0.9951 -0.0286
vn 0.0942 0.9951 -0.0286
vn 0.9524 0.0975 -0.2889
vn 0.2790 -0.9565 -0.0846
vn 0.9161 0.2890 -0.2779
vn 0.4528 -0.8810 -0.1374
vn 0.8448 0.4696 -0.2563
vn 0.6088 -0.7715 -0.1847
vn 0.7412 0.6326 -0.2248
vn 0.7412 -0.6326 -0.2248
vn 0.2902 -0.9565 -0.0286
vn 0.9527 0.2890 -0.0938
vn 0.4709 -0.8810 -0.0464
vn 0.8786 0.4696 -0.0865
vn 0.6332 -0.7715 -0.0624
vn 0.7708 0.6326 -0.0759
vn 0.7708 -0.6326 -0.0759
vn 0.6332 0.7715 -0.0624
vn 0.8786 -0.4696 -0.0865
vn 0.4709 0.8810 -0.0464
vn 0.9527 -0.2890 -0.0938
vn 0.2902 0.9565 -0.0286
vn 0.9904 -0.0975 -0.0975
vn 0.0980 -0.9951 -0.0097
vn 0.0980 0.9951 -0.0097
vn 0.9904 0.0975 -0.0975
vn 0.8786 -0.4696 0.0865
vn 0.4709 0.8810 0.0464
vn 0.9527 -0.2890 0.0938
vn 0.2902 0.9565 0.0286
vn 0.9904 -0.0975 0.0976
vn 0.0980 -0.9951 0.0097
vn 0.0980 0.9951 0.0097
vn 0.9904 0.0975 0.0976
vn 0.2902 -0.9565 0.0286
vn 0.9527 0.2890 0.0938
vn 0.4709 -0.8810 0.0464
vn 0.8786 0.4696 0.0865
vn 0.6332 -0.7715 0.0624
vn 0.7708 0.6326 0.0759
vn 0.7708 -0.6326 0.0759
vn 0.6332 0.7715 0.0624
vn 0.9161 0.2890 0.2779
vn 0.4528 -0.8810 0.1374
vn 0.8448 0.4696 0.2563
vn 0.6088 -0.7715 0.1847
vn 0.7412 0.6326 0.2248
vn 0.7412 -0.6326 0.2248
vn 0.6088 0.7715 0.1847
vn 0.8448 -0.4696 0.2563
vn 0.4528 0.8810 0.1374
vn 0.9161 -0.2890 0.2779
vn 0.2790 0.9565 0.0846
vn 0.9524 -0.0975 0.2889
vn 0.0942 -0.9951 0.0286
vn 0.0942 0.9951 0.0286
vn 0.9524 0.0975 0.2889
vn 0.2790 -0.9565 0.0846
vn 0.4173 0.8810 0.2231
vn 0.8443 -0.2890 0.4513
vn 0.2571 0.9565 0.1374
vn 0.8777 -0.0975 0.4691
vn 0.0869 -0.9951 0.0464
vn 0.0869 0.9951 0.0464
vn 0.8777 0.0975 0.4691
vn 0.2571 -0.9565 0.1374
vn 0.8443 0.2890 0.4513
vn 0.4173 -0.8810 0.2231
vn 0.7786 0.4696 0.4162
vn 0.5611 -0.7715 0.2999
vn 0.6831 0.6326 0.3651
vn 0.6831 -0.6326 0.3651
vn 0.5611 0.7715 0.2999
vn 0.7786 -0.4696 0.4162
vn 0.3658 -0.8810 0.3002
vn 0.6825 0.4696 0.5601
vn 0.4918 -0.7715 0.4036
vn 0.5987 0.6326 0.4913
vn 0.5987 -0.6326 0.4913
vn 0.4918 0.7715 0.4036
vn 0.6825 -0.4696 0.5601
vn 0.3658 0.8810 0.3002
vn 0.7400 -0.2890 0.6073
vn 0.2254 0.9565 0.1850
vn 0.7693 -0.0975 0.6314
vn 0.0761 -0.9951 0.0625
vn 0.0761 0.9951 0.0625
vn 0.7693 0.0975 0.6314
vn 0.2254 -0.9565 0.1850
vn 0.7400 0.2890 0.6073
vn 0.6073 -0.2890 0.7400
vn 0.1850 0.9565 0.2254
vn 0.6314 -0.0975 0.7693
vn 0.0625 -0.9951 0.0761
vn 0.0625 0.9951 0.0761
vn 0.6314 0.0975 0.7693
vn 0.1850 -0.9565 0.2254
vn 0.6073 0.2890 0.7400
vn 0.3002 -0.8810 0.3658
vn 0.5601 0.4696 0.6825
vn 0.4036 -0.7715 0.4918
vn 0.4913 0.6326 0.5987
vn 0.4913 -0.6326 0.5987
vn 0.4036 0.7715 0.4918
vn 0.5601 -0.4696 0.6825
vn 0.3002 0.8810 0.3658
vn 0.4162 0.4696 0.7786
vn 0.2999 -0.7715 0.5611
vn 0.3651 0.6326 0.6831
vn 0.3651 -0.6326 0.6831
vn 0.2999 0.7715 0.5611
vn 0.4162 -0.4696 0.7786
vn 0.2230 0.8810 0.4173
vn 0.4513 -0.2890 0.8443
vn 0.1374 0.9565 0.2571
vn 0.4691 -0.0975 0.8777
vn 0.0464 -0.9951 0.0869
vn 0.0464 0.9951 0.0869
vn 0.4691 0.0975 0.8777
vn 0.1374 -0.9565 0.2571
vn 0.4513 0.2890 0.8443
vn 0.2230 -0.8810 0.4173
vn 0.0846 0.9565 0.2790
vn 0.2889 -0.0975 0.9524
vn 0.0286 -0.9951 0.0942
vn 0.0286 0.9951 0.0942
vn 0.2889 0.0975 0.9524
vn 0.0846 -0.9565 0.2790
vn 0.2779 0.2890 0.9161
vn 0.1374 -0.8810 0.4528
vn 0.2563 0.4696 0.8448
vn 0.1847 -0.7715 0.6088
vn 0.2248 0.6326 0.7412
vn 0.2248 -0.6326 0.7412
vn 0.1847 0.7715 0.6088
vn 0.2563 -0.4696 0.8448
vn 0.1374 0.8810 0.4528
vn 0.2779 -0.2890 0.9161
vn 0.0759 0.6326 0.7708
vn 0.0759 -0.6326 0.7708
vn 0.0624 0.7715 0.6332
vn 0.0865 -0.4696 0.8786
vn 0.0464 0.8810 0.4709
vn 0.0938 -0.2890 0.9527
vn 0.0286 0.9565 0.2902
vn 0.0976 -0.0975 0.9904
vn 0.0097 -0.9951 0.0980
vn 0.0097 0.9951 0.0980
vn 0.0976 0.0975 0.9904
vn 0.0286 -0.9565 0.2902
vn 0.0938 0.2890 0.9527
vn 0.0464 -0.8810 0.4709
vn 0.0865 0.4696 0.8786
vn 0.0624 -0.7715 0.6332
vt 0.750000 0.750000
vt 0.718750 0.750000
vt 0.718750 0.812500
vt 0.750000 0.812500
vt 0.750000 0.250000
vt 0.718750 0.250000
vt 0.718750 0.312500
vt 0.750000 0.312500
vt 0.750000 0.687500
vt 0.718750 0.687500
vt 0.750000 0.187500
vt 0.718750 0.187500
vt 0.750000 0.625000
vt 0.718750 0.625000
vt 0.750000 0.125000
vt 0.718750 0.125000
vt 0.750000 0.562500
vt 0.718750 0.562500
vt 0.750000 0.062500
vt 0.718750 0.062500
vt 0.750000 0.500000
vt 0.718750 0.500000
vt 0.750000 0.937500
vt 0.718750 0.937500
vt 0.734375 1.000000
vt 0.734375 0.000000
vt 0.750000 0.437500
vt 0.718750 0.437500
vt 0.750000 0.875000
vt 0.718750 0.875000
vt 0.750000 0.375000
vt 0.718750 0.375000
vt 0.687500 0.375000
vt 0.687500 0.437500
vt 0.687500 0.812500
vt 0.687500 0.875000
vt 0.687500 0.312500
vt 0.687500 0.750000
vt 0.687500 0.250000
vt 0.687500 0.687500
vt 0.687500 0.187500
vt 0.687500 0.625000
vt 0.687500 0.125000
vt 0.687500 0.562500
vt 0.687500 0.062500
vt 0.687500 0.500000
vt 0.687500 0.937500
vt 0.703125 1.000000
vt 0.703125 0.000000
vt 0.656250 0.125000
vt 0.656250 0.187500
vt 0.656250 0.562500
vt 0.656250 0.625000
vt 0.656250 0.062500
vt 0.656250 0.500000
vt 0.656250 0.937500
vt 0.671875 1.000000
vt 0.671875 0.000000
vt 0.656250 0.437500
vt 0.656250 0.875000
vt 0.656250 0.375000
vt 0.656250 0.812500
vt 0.656250 0.312500
vt 0.656250 0.750000
vt 0.656250 0.250000
vt 0.656250 0.687500
vt 0.625000 0.312500
vt 0.625000 0.375000
vt 0.625000 0.750000
vt 0.625000 0.812500
vt 0.625000 0.250000
vt 0.625000 0.687500
vt 0.625000 0.187500
vt 0.625000 0.625000
vt 0.625000 0.125000
vt 0.625000 0.562500
vt 0.625000 0.062500
vt 0.625000 0.500000
vt 0.625000 0.937500
vt 0.640625 1.000000
vt 0.640625 0.000000
vt 0.625000 0.437500
vt 0.625000 0.875000
vt 0.593750 0.062500
vt 0.593750 0.125000
vt 0.593750 0.500000
vt 0.593750 0.562500
vt 0.593750 0.937500
vt 0.609375 1.000000
vt 0.609375 0.000000
vt 0.593750 0.437500
vt 0.593750 0.875000
vt 0.593750 0.375000
vt 0.593750 0.812500
vt 0.593750 0.312500
vt 0.593750 0.750000
vt 0.593750 0.250000
vt 0.593750 0.687500
vt 0.593750 0.187500
vt 0.593750 0.625000
vt 0.562500 0.750000
vt 0.562500 0.812500
vt 0.562500 0.250000
vt 0.562500 0.312500
vt 0.562500 0.687500
vt 0.562500 0.187500
vt 0.562500 0.625000
vt 0.562500 0.125000
vt 0.562500 0.562500
vt 0.562500 0.062500
vt 0.562500 0.500000
vt 0.562500 0.937500
vt 0.578125 1.000000
vt 0.578125 0.000000
vt 0.562500 0.437500
vt 0.562500 0.875000
vt 0.562500 0.375000
vt 0.531250 0.500000
vt 0.531250 0.562500
vt 0.531250 0.937500
vt 0.546875 1.000000
vt 0.546875 0.000000
vt 0.531250 0.062500
vt 0.531250 0.437500
vt 0.531250 0.875000
vt 0.531250 0.375000
vt 0.531250 0.812500
vt 0.531250 0.312500
vt 0.531250 0.750000
vt 0.531250 0.250000
vt 0.531250 0.687500
vt 0.531250 0.187500
vt 0.531250 0.625000
vt 0.531250 0.125000
vt 0.500000 0.250000
vt 0.500000 0.312500
vt 0.500000 0.687500
vt 0.500000 0.750000
vt 0.500000 0.187500
vt 0.500000 0.625000
vt 0.500000 0.125000
vt 0.500000 0.562500
vt 0.500000 0.062500
vt 0.500000 0.500000
vt 0.500000 0.937500
vt 0.515625 1.000000
vt 0.515625 0.000000
vt 0.500000 0.437500
vt 0.500000 0.875000
vt 0.500000 0.375000
vt 0.500000 0.812500
vt 0.468750 0.937500
vt 0.484375 1.000000
vt 0.484375 0.000000
vt 0.468750 0.062500
vt 0.468750 0.437500
vt 0.468750 0.500000
vt 0.468750 0.875000
vt 0.468750 0.375000
vt 0.468750 0.812500
vt 0.468750 0.312500
vt 0.468750 0.750000
vt 0.468750 0.250000
vt 0.468750 0.687500
vt 0.468750 0.187500
vt 0.468750 0.625000
vt 0.468750 0.125000
vt 0.468750 0.562500
vt 0.437500 0.687500
vt 0.437500 0.750000
vt 0.437500 0.187500
vt 0.437500 0.250000
vt 0.437500 0.625000
vt 0.437500 0.125000
vt 0.437500 0.562500
vt 0.437500 0.062500
vt 0.437500 0.500000
vt 0.437500 0.937500
vt 0.453125 1.000000
vt 0.453125 0.000000
vt 0.437500 0.437500
vt 0.437500 0.875000
vt 0.437500 0.375000
vt 0.437500 0.812500
vt 0.437500 0.312500
vt 0.406250 0.437500
vt 0.406250 0.500000
vt 0.406250 0.875000
vt 0.406250 0.937500
vt 0.406250 0.375000
vt 0.406250 0.812500
vt 0.406250 0.312500
vt 0.406250 0.750000
vt 0.406250 0.250000
vt 0.406250 0.687500
vt 0.406250 0.187500
vt 0.406250 0.625000
vt 0.406250 0.125000
vt 0.406250 0.562500
vt 0.406250 0.062500
vt 0.421875 1.000000
vt 0.421875 0.000000
vt 0.375000 0.187500
vt 0.375000 0.250000
vt 0.375000 0.625000
vt 0.375000 0.687500
vt 0.375000 0.125000
vt 0.375000 0.562500
vt 0.375000 0.062500
vt 0.375000 0.500000
vt 0.375000 0.937500
vt 0.390625 1.000000
vt 0.390625 0.000000
vt 0.375000 0.437500
vt 0.375000 0.875000
vt 0.375000 0.375000
vt 0.375000 0.812500
vt 0.375000 0.312500
vt 0.375000 0.750000
vt 0.343750 0.375000
vt 0.343750 0.437500
vt 0.343750 0.812500
vt 0.343750 0.875000
vt 0.343750 0.312500
vt 0.343750 0.750000
vt 0.343750 0.250000
vt 0.343750 0.687500
vt 0.343750 0.187500
vt 0.343750 0.625000
vt 0.343750 0.125000
vt 0.343750 0.562500
vt 0.343750 0.062500
vt 0.343750 0.500000
vt 0.343750 0.937500
vt 0.359375 1.000000
vt 0.359375 0.000000
vt 0.312500 0.125000
vt 0.312500 0.187500
vt 0.312500 0.562500
vt 0.312500 0.625000
vt 0.312500 0.062500
vt 0.312500 0.500000
vt 0.312500 0.937500
vt 0.328125 1.000000
vt 0.328125 0.000000
vt 0.312500 0.437500
vt 0.312500 0.875000
vt 0.312500 0.375000
vt 0.312500 0.812500
vt 0.312500 0.312500
vt 0.312500 0.750000
vt 0.312500 0.250000
vt 0.312500 0.687500
vt 0.281250 0.812500
vt 0.281250 0.875000
vt 0.281250 0.312500
vt 0.281250 0.375000
vt 0.281250 0.750000
vt 0.281250 0.250000
vt 0.281250 0.687500
vt 0.281250 0.187500
vt 0.281250 0.625000
vt 0.281250 0.125000
vt 0.281250 0.562500
vt 0.281250 0.062500
vt 0.281250 0.500000
vt 0.281250 0.937500
vt 0.296875 1.000000
vt 0.296875 0.000000
vt 0.281250 0.437500
vt 0.250000 0.562500
vt 0.250000 0.625000
vt 0.250000 0.062500
vt 0.250000 0.125000
vt 0.250000 0.500000
vt 0.250000 0.937500
vt 0.265625 1.000000
vt 0.265625 0.000000
vt 0.250000 0.437500
vt 0.250000 0.875000
vt 0.250000 0.375000
vt 0.250000 0.812500
vt 0.250000 0.312500
vt 0.250000 0.750000
vt 0.250000 0.250000
vt 0.250000 0.687500
vt 0.250000 0.187500
vt 0.218750 0.312500
vt 0.218750 0.375000
vt 0.218750 0.750000
vt 0.218750 0.812500
vt 0.218750 0.250000
vt 0.218750 0.687500
vt 0.218750 0.187500
vt 0.218750 0.625000
vt 0.218750 0.125000
vt 0.218750 0.562500
vt 0.218750 0.062500
vt 0.218750 0.500000
vt 0.218750 0.937500
vt 0.234375 1.000000
vt 0.234375 0.000000
vt 0.218750 0.437500
vt 0.218750 0.875000
vt 0.187500 0.062500
vt 0.187500 0.125000
vt 0.187500 0.500000
vt 0.187500 0.562500
vt 0.187500 0.937500
vt 0.203125 1.000000
vt 0.203125 0.000000
vt 0.187500 0.437500
vt 0.187500 0.875000
vt 0.187500 0.375000
vt 0.187500 0.812500
vt 0.187500 0.312500
vt 0.187500 0.750000
vt 0.187500 0.250000
vt 0.187500 0.687500
vt 0.187500 0.187500
vt 0.187500 0.625000
vt 0.156250 0.750000
vt 0.156250 0.812500
vt 0.156250 0.250000
vt 0.156250 0.312500
vt 0.156250 0.687500
vt 0.156250 0.187500
vt 0.156250 0.625000
vt 0.156250 0.125000
vt 0.156250 0.562500
vt 0.156250 0.062500
vt 0.156250 0.500000
vt 0.156250 0.937500
vt 0.171875 1.000000
vt 0.171875 0.000000
vt 0.156250 0.437500
vt 0.156250 0.875000
vt 0.156250 0.375000
vt 0.125000 0.500000
vt 0.125000 0.562500
vt 0.125000 0.937500
vt 0.140625 1.000000
vt 0.140625 0.000000
vt 0.125000 0.062500
vt 0.125000 0.437500
vt 0.125000 0.875000
vt 0.125000 0.375000
vt 0.125000 0.812500
vt 0.125000 0.312500
vt 0.125000 0.750000
vt 0.125000 0.250000
vt 0.125000 0.687500
vt 0.125000 0.187500
vt 0.125000 0.625000
vt 0.125000 0.125000
vt 0.093750 0.250000
vt 0.093750 0.312500
vt 0.093750 0.687500
vt 0.093750 0.750000
vt 0.093750 0.187500
vt 0.093750 0.625000
vt 0.093750 0.125000
vt 0.093750 0.562500
vt 0.093750 0.062500
vt 0.093750 0.500000
vt 0.093750 0.937500
vt 0.109375 1.000000
vt 0.109375 0.000000
vt 0.093750 0.437500
vt 0.093750 0.875000
vt 0.093750 0.375000
vt 0.093750 0.812500
vt 0.078125 0.000000
vt 0.062500 0.062500
vt 0.062500 0.437500
vt 0.062500 0.500000
vt 0.062500 0.875000
vt 0.062500 0.937500
vt 0.062500 0.375000
vt 0.062500 0.812500
vt 0.062500 0.312500
vt 0.062500 0.750000
vt 0.062500 0.250000
vt 0.062500 0.687500
vt 0.062500 0.187500
vt 0.062500 0.625000
vt 0.062500 0.125000
vt 0.062500 0.562500
vt 0.078125 1.000000
vt 0.031250 0.187500
vt 0.031250 0.250000
vt 0.031250 0.625000
vt 0.031250 0.687500
vt 0.031250 0.125000
vt 0.031250 0.562500
vt 0.031250 0.062500
vt 0.031250 0.500000
vt 0.031250 0.937500
vt 0.046875 1.000000
vt 0.046875 0.000000
vt 0.031250 0.437500
vt 0.031250 0.875000
vt 0.031250 0.375000
vt 0.031250 0.812500
vt 0.031250 0.312500
vt 0.031250 0.750000
vt 0.000000 0.875000
vt 0.000000 0.937500
vt 0.000000 0.375000
vt 0.000000 0.437500
vt 0.000000 0.812500
vt 0.000000 0.312500
vt 0.000000 0.750000
vt 0.000000 0.250000
vt 0.000000 0.687500
vt 0.000000 0.187500
vt 0.000000 0.625000
vt 0.000000 0.125000
vt 0.000000 0.562500
vt 0.000000 0.062500
vt 0.000000 0.500000
vt 0.015625 1.000000
vt 0.015625 0.000000
vt 1.000000 0.625000
vt 0.968750 0.625000
vt 0.968750 0.687500
vt 1.000000 0.687500
vt 1.000000 0.125000
vt 0.968750 0.125000
vt 0.968750 0.187500
vt 1.000000 0.187500
vt 1.000000 0.562500
vt 0.968750 0.562500
vt 1.000000 0.062500
vt 0.968750 0.062500
vt 1.000000 0.500000
vt 0.968750 0.500000
vt 1.000000 0.937500
vt 0.968750 0.937500
vt 0.984375 1.000000
vt 0.984375 0.000000
vt 1.000000 0.437500
vt 0.968750 0.437500
vt 1.000000 0.875000
vt 0.968750 0.875000
vt 1.000000 0.375000
vt 0.968750 0.375000
vt 1.000000 0.812500
vt 0.968750 0.812500
vt 1.000000 0.312500
vt 0.968750 0.312500
vt 1.000000 0.750000
vt 0.968750 0.750000
vt 1.000000 0.250000
vt 0.968750 0.250000
vt 0.937500 0.375000
vt 0.937500 0.437500
vt 0.937500 0.812500
vt 0.937500 0.875000
vt 0.937500 0.312500
vt 0.937500 0.750000
vt 0.937500 0.250000
vt 0.937500 0.687500
vt 0.937500 0.187500
vt 0.937500 0.625000
vt 0.937500 0.125000
vt 0.937500 0.562500
vt 0.937500 0.062500
vt 0.937500 0.500000
vt 0.937500 0.937500
vt 0.953125 1.000000
vt 0.953125 0.000000
vt 0.906250 0.125000
vt 0.906250 0.187500
vt 0.906250 0.562500
vt 0.906250 0.625000
vt 0.906250 0.062500
vt 0.906250 0.500000
vt 0.906250 0.937500
vt 0.921875 1.000000
vt 0.921875 0.000000
vt 0.906250 0.437500
vt 0.906250 0.875000
vt 0.906250 0.375000
vt 0.906250 0.812500
vt 0.906250 0.312500
vt 0.906250 0.750000
vt 0.906250 0.250000
vt 0.906250 0.687500
vt 0.875000 0.812500
vt 0.875000 0.875000
vt 0.875000 0.312500
vt 0.875000 0.375000
vt 0.875000 0.750000
vt 0.875000 0.250000
vt 0.875000 0.687500
vt 0.875000 0.187500
vt 0.875000 0.625000
vt 0.875000 0.125000
vt 0.875000 0.562500
vt 0.875000 0.062500
vt 0.875000 0.500000
vt 0.875000 0.937500
vt 0.890625 1.000000
vt 0.890625 0.000000
vt 0.875000 0.437500
vt 0.843750 0.562500
vt 0.843750 0.625000
vt 0.843750 0.062500
vt 0.843750 0.125000
vt 0.843750 0.500000
vt 0.843750 0.937500
vt 0.859375 1.000000
vt 0.859375 0.000000
vt 0.843750 0.437500
vt 0.843750 0.875000
vt 0.843750 0.375000
vt 0.843750 0.812500
vt 0.843750 0.312500
vt 0.843750 0.750000
vt 0.843750 0.250000
vt 0.843750 0.687500
vt 0.843750 0.187500
vt 0.812500 0.312500
vt 0.812500 0.375000
vt 0.812500 0.750000
vt 0.812500 0.812500
vt 0.812500 0.250000
vt 0.812500 0.687500
vt 0.812500 0.187500
vt 0.812500 0.625000
vt 0.812500 0.125000
vt 0.812500 0.562500
vt 0.812500 0.062500
vt 0.812500 0.500000
vt 0.812500 0.937500
vt 0.828125 1.000000
vt 0.828125 0.000000
vt 0.812500 0.437500
vt 0.812500 0.875000
vt 0.781250 0.062500
vt 0.781250 0.125000
vt 0.781250 0.500000
vt 0.781250 0.562500
vt 0.781250 0.937500
vt 0.796875 1.000000
vt 0.796875 0.000000
vt 0.781250 0.437500
vt 0.781250 0.875000
vt 0.781250 0.375000
vt 0.781250 0.812500
vt 0.781250 0.312500
vt 0.781250 0.750000
vt 0.781250 0.250000
vt 0.781250 0.687500
vt 0.781250 0.187500
vt 0.781250 0.625000
vt 0.765625 1.000000
vt 0.765625 0.000000
s 0
usemtl Material.001
f 476/1/1 12/2/1 11/3/1 2/4/1
f 479/5/2 20/6/2 19/7/2 7/8/2
f 3/9/3 13/10/3 12/2/3 476/1/3
f 480/11/4 21/12/4 20/6/4 479/5/4
f 477/13/5 14/14/5 13/10/5 3/9/5
f 481/15/6 22/16/6 21/12/6 480/11/6
f 4/17/7 15/18/7 14/14/7 477/13/7
f 482/19/8 23/20/8 22/16/8 481/15/8
f 5/21/9 16/22/9 15/18/9 4/17/9
f 474/23/10 9/24/10 1/25/10
f 8/26/11 23/20/11 482/19/11
f 6/27/12 17/28/12 16/22/12 5/21/12
f 475/29/13 10/30/13 9/24/13 474/23/13
f 478/31/14 18/32/14 17/28/14 6/27/14
f 2/4/15 11/3/15 10/30/15 475/29/15
f 7/8/16 19/7/16 18/32/16 478/31/16
f 18/32/17 33/33/17 32/34/17 17/28/17
f 11/3/18 26/35/18 25/36/18 10/30/18
f 19/7/19 34/37/19 33/33/19 18/32/19
f 12/2/20 27/38/20 26/35/20 11/3/20
f 20/6/21 35/39/21 34/37/21 19/7/21
f 13/10/22 28/40/22 27/38/22 12/2/22
f 21/12/23 36/41/23 35/39/23 20/6/23
f 14/14/24 29/42/24 28/40/24 13/10/24
f 22/16/25 37/43/25 36/41/25 21/12/25
f 15/18/26 30/44/26 29/42/26 14/14/26
f 23/20/27 38/45/27 37/43/27 22/16/27
f 16/22/28 31/46/28 30/44/28 15/18/28
f 9/24/29 24/47/29 1/48/29
f 8/49/30 38/45/30 23/20/30
f 17/28/31 32/34/31 31/46/31 16/22/31
f 10/30/32 25/36/32 24/47/32 9/24/32
f 37/43/33 52/50/33 51/51/33 36/41/33
f 30/44/34 45/52/34 44/53/34 29/42/34
f 38/45/35 53/54/35 52/50/35 37/43/35
f 31/46/36 46/55/36 45/52/36 30/44/36
f 24/47/37 39/56/37 1/57/37
f 8/58/38 53/54/38 38/45/38
f 32/34/39 47/59/39 46/55/39 31/46/39
f 25/36/40 40/60/40 39/56/40 24/47/40
f 33/33/41 48/61/41 47/59/41 32/34/41
f 26/35/42 41/62/42 40/60/42 25/36/42
f 34/37/43 49/63/43 48/61/43 33/33/43
f 27/38/44 42/64/44 41/62/44 26/35/44
f 35/39/45 50/65/45 49/63/45 34/37/45
f 28/40/46 43/66/46 42/64/46 27/38/46
f 36/41/47 51/51/47 50/65/47 35/39/47
f 29/42/48 44/53/48 43/66/48 28/40/48
f 49/63/49 64/67/49 63/68/49 48/61/49
f 42/64/50 57/69/50 56/70/50 41/62/50
f 50/65/51 65/71/51 64/67/51 49/63/51
f 43/66/52 58/72/52 57/69/52 42/64/52
f 51/51/53 66/73/53 65/71/53 50/65/53
f 44/53/54 59/74/54 58/72/54 43/66/54
f 52/50/55 67/75/55 66/73/55 51/51/55
f 45/52/56 60/76/56 59/74/56 44/53/56
f 53/54/57 68/77/57 67/75/57 52/50/57
f 46/55/58 61/78/58 60/76/58 45/52/58
f 39/56/59 54/79/59 1/80/59
f 8/81/60 68/77/60 53/54/60
f 47/59/61 62/82/61 61/78/61 46/55/61
f 40/60/62 55/83/62 54/79/62 39/56/62
f 48/61/63 63/68/63 62/82/63 47/59/63
f 41/62/64 56/70/64 55/83/64 40/60/64
f 68/77/65 83/84/65 82/85/65 67/75/65
f 61/78/66 76/86/66 75/87/66 60/76/66
f 54/79/67 69/88/67 1/89/67
f 8/90/68 83/84/68 68/77/68
f 62/82/69 77/91/69 76/86/69 61/78/69
f 55/83/70 70/92/70 69/88/70 54/79/70
f 63/68/71 78/93/71 77/91/71 62/82/71
f 56/70/72 71/94/72 70/92/72 55/83/72
f 64/67/73 79/95/73 78/93/73 63/68/73
f 57/69/74 72/96/74 71/94/74 56/70/74
f 65/71/75 80/97/75 79/95/75 64/67/75
f 58/72/76 73/98/76 72/96/76 57/69/76
f 66/73/77 81/99/77 80/97/77 65/71/77
f 59/74/78 74/100/78 73/98/78 58/72/78
f 67/75/79 82/85/79 81/99/79 66/73/79
f 60/76/80 75/87/80 74/100/80 59/74/80
f 72/96/81 87/101/81 86/102/81 71/94/81
f 80/97/82 95/103/82 94/104/82 79/95/82
f 73/98/83 88/105/83 87/101/83 72/96/83
f 81/99/84 96/106/84 95/103/84 80/97/84
f 74/100/85 89/107/85 88/105/85 73/98/85
f 82/85/86 97/108/86 96/106/86 81/99/86
f 75/87/87 90/109/87 89/107/87 74/100/87
f 83/84/88 98/110/88 97/108/88 82/85/88
f 76/86/89 91/111/89 90/109/89 75/87/89
f 69/88/90 84/112/90 1/113/90
f 8/114/91 98/110/91 83/84/91
f 77/91/92 92/115/92 91/111/92 76/86/92
f 70/92/93 85/116/93 84/112/93 69/88/93
f 78/93/94 93/117/94 92/115/94 77/91/94
f 71/94/95 86/102/95 85/116/95 70/92/95
f 79/95/96 94/104/96 93/117/96 78/93/96
f 91/111/97 106/118/97 105/119/97 90/109/97
f 84/112/98 99/120/98 1/121/98
f 8/122/99 113/123/99 98/110/99
f 92/115/100 107/124/100 106/118/100 91/111/100
f 85/116/101 100/125/101 99/120/101 84/112/101
f 93/117/102 108/126/102 107/124/102 92/115/102
f 86/102/103 101/127/103 100/125/103 85/116/103
f 94/104/104 109/128/104 108/126/104 93/117/104
f 87/101/105 102/129/105 101/127/105 86/102/105
f 95/103/106 110/130/106 109/128/106 94/104/106
f 88/105/107 103/131/107 102/129/107 87/101/107
f 96/106/108 111/132/108 110/130/108 95/103/108
f 89/107/109 104/133/109 103/131/109 88/105/109
f 97/108/110 112/134/110 111/132/110 96/106/110
f 90/109/111 105/119/111 104/133/111 89/107/111
f 98/110/112 113/123/112 112/134/112 97/108/112
f 110/130/113 125/135/113 124/136/113 109/128/113
f 103/131/114 118/137/114 117/138/114 102/129/114
f 111/132/115 126/139/115 125/135/115 110/130/115
f 104/133/116 119/140/116 118/137/116 103/131/116
f 112/134/117 127/141/117 126/139/117 111/132/117
f 105/119/118 120/142/118 119/140/118 104/133/118
f 113/123/119 128/143/119 127/141/119 112/134/119
f 106/118/120 121/144/120 120/142/120 105/119/120
f 99/120/121 114/145/121 1/146/121
f 8/147/122 128/143/122 113/123/122
f 107/124/123 122/148/123 121/144/123 106/118/123
f 100/125/124 115/149/124 114/145/124 99/120/124
f 108/126/125 123/150/125 122/148/125 107/124/125
f 101/127/126 116/151/126 115/149/126 100/125/126
f 109/128/127 124/136/127 123/150/127 108/126/127
f 102/129/128 117/138/128 116/151/128 101/127/128
f 114/145/129 129/152/129 1/153/129
f 8/154/130 143/155/130 128/143/130
f 122/148/131 137/156/131 136/157/131 121/144/131
f 115/149/132 130/158/132 129/152/132 114/145/132
f 123/150/133 138/159/133 137/156/133 122/148/133
f 116/151/134 131/160/134 130/158/134 115/149/134
f 124/136/135 139/161/135 138/159/135 123/150/135
f 117/138/136 132/162/136 131/160/136 116/151/136
f 125/135/137 140/163/137 139/161/137 124/136/137
f 118/137/138 133/164/138 132/162/138 117/138/138
f 126/139/139 141/165/139 140/163/139 125/135/139
f 119/140/140 134/166/140 133/164/140 118/137/140
f 127/141/141 142/167/141 141/165/141 126/139/141
f 120/142/142 135/168/142 134/166/142 119/140/142
f 128/143/143 143/155/143 142/167/143 127/141/143
f 121/144/144 136/157/144 135/168/144 120/142/144
f 133/164/145 148/169/145 147/170/145 132/162/145
f 141/165/146 156/171/146 155/172/146 140/163/146
f 134/166/147 149/173/147 148/169/147 133/164/147
f 142/167/148 157/174/148 156/171/148 141/165/148
f 135/168/149 150/175/149 149/173/149 134/166/149
f 143/155/150 158/176/150 157/174/150 142/167/150
f 136/157/151 151/177/151 150/175/151 135/168/151
f 129/152/152 144/178/152 1/179/152
f 8/180/153 158/176/153 143/155/153
f 137/156/154 152/181/154 151/177/154 136/157/154
f 130/158/155 145/182/155 144/178/155 129/152/155
f 138/159/156 153/183/156 152/181/156 137/156/156
f 131/160/157 146/184/157 145/182/157 130/158/157
f 139/161/158 154/185/158 153/183/158 138/159/158
f 132/162/159 147/170/159 146/184/159 131/160/159
f 140/163/160 155/172/160 154/185/160 139/161/160
f 152/181/161 167/186/161 166/187/161 151/177/161
f 145/182/162 160/188/162 159/189/162 144/178/162
f 153/183/163 168/190/163 167/186/163 152/181/163
f 146/184/164 161/191/164 160/188/164 145/182/164
f 154/185/165 169/192/165 168/190/165 153/183/165
f 147/170/166 162/193/166 161/191/166 146/184/166
f 155/172/167 170/194/167 169/192/167 154/185/167
f 148/169/168 163/195/168 162/193/168 147/170/168
f 156/171/169 171/196/169 170/194/169 155/172/169
f 149/173/170 164/197/170 163/195/170 148/169/170
f 157/174/171 172/198/171 171/196/171 156/171/171
f 150/175/172 165/199/172 164/197/172 149/173/172
f 158/176/173 173/200/173 172/198/173 157/174/173
f 151/177/174 166/187/174 165/199/174 150/175/174
f 144/178/175 159/189/175 1/201/175
f 8/202/176 173/200/176 158/176/176
f 171/196/177 186/203/177 185/204/177 170/194/177
f 164/197/178 179/205/178 178/206/178 163/195/178
f 172/198/179 187/207/179 186/203/179 171/196/179
f 165/199/180 180/208/180 179/205/180 164/197/180
f 173/200/181 188/209/181 187/207/181 172/198/181
f 166/187/182 181/210/182 180/208/182 165/199/182
f 159/189/183 174/211/183 1/212/183
f 8/213/184 188/209/184 173/200/184
f 167/186/185 182/214/185 181/210/185 166/187/185
f 160/188/186 175/215/186 174/211/186 159/189/186
f 168/190/187 183/216/187 182/214/187 167/186/187
f 161/191/188 176/217/188 175/215/188 160/188/188
f 169/192/189 184/218/189 183/216/189 168/190/189
f 162/193/190 177/219/190 176/217/190 161/191/190
f 170/194/191 185/204/191 184/218/191 169/192/191
f 163/195/192 178/206/192 177/219/192 162/193/192
f 183/216/193 198/220/193 197/221/193 182/214/193
f 176/217/194 191/222/194 190/223/194 175/215/194
f 184/218/195 199/224/195 198/220/195 183/216/195
f 177/219/196 192/225/196 191/222/196 176/217/196
f 185/204/197 200/226/197 199/224/197 184/218/197
f 178/206/198 193/227/198 192/225/198 177/219/198
f 186/203/199 201/228/199 200/226/199 185/204/199
f 179/205/200 194/229/200 193/227/200 178/206/200
f 187/207/201 202/230/201 201/228/201 186/203/201
f 180/208/202 195/231/202 194/229/202 179/205/202
f 188/209/203 203/232/203 202/230/203 187/207/203
f 181/210/204 196/233/204 195/231/204 180/208/204
f 174/211/205 189/234/205 1/235/205
f 8/236/206 203/232/206 188/209/206
f 182/214/207 197/221/207 196/233/207 181/210/207
f 175/215/208 190/223/208 189/234/208 174/211/208
f 202/230/209 217/237/209 216/238/209 201/228/209
f 195/231/210 210/239/210 209/240/210 194/229/210
f 203/232/211 218/241/211 217/237/211 202/230/211
f 196/233/212 211/242/212 210/239/212 195/231/212
f 189/234/213 204/243/213 1/244/213
f 8/245/214 218/241/214 203/232/214
f 197/221/215 212/246/215 211/242/215 196/233/215
f 190/223/216 205/247/216 204/243/216 189/234/216
f 198/220/217 213/248/217 212/246/217 197/221/217
f 191/222/218 206/249/218 205/247/218 190/223/218
f 199/224/219 214/250/219 213/248/219 198/220/219
f 192/225/220 207/251/220 206/249/220 191/222/220
f 200/226/221 215/252/221 214/250/221 199/224/221
f 193/227/222 208/253/222 207/251/222 192/225/222
f 201/228/223 216/238/223 215/252/223 200/226/223
f 194/229/224 209/240/224 208/253/224 193/227/224
f 206/249/225 221/254/225 220/255/225 205/247/225
f 214/250/226 229/256/226 228/257/226 213/248/226
f 207/251/227 222/258/227 221/254/227 206/249/227
f 215/252/228 230/259/228 229/256/228 214/250/228
f 208/253/229 223/260/229 222/258/229 207/251/229
f 216/238/230 231/261/230 230/259/230 215/252/230
f 209/240/231 224/262/231 223/260/231 208/253/231
f 217/237/232 232/263/232 231/261/232 216/238/232
f 210/239/233 225/264/233 224/262/233 209/240/233
f 218/241/234 233/265/234 232/263/234 217/237/234
f 211/242/235 226/266/235 225/264/235 210/239/235
f 204/243/236 219/267/236 1/268/236
f 8/269/237 233/265/237 218/241/237
f 212/246/238 227/270/238 226/266/238 211/242/238
f 205/247/239 220/255/239 219/267/239 204/243/239
f 213/248/240 228/257/240 227/270/240 212/246/240
f 225/264/241 240/271/241 239/272/241 224/262/241
f 233/265/242 248/273/242 247/274/242 232/263/242
f 226/266/243 241/275/243 240/271/243 225/264/243
f 219/267/244 234/276/244 1/277/244
f 8/278/245 248/273/245 233/265/245
f 227/270/246 242/279/246 241/275/246 226/266/246
f 220/255/247 235/280/247 234/276/247 219/267/247
f 228/257/248 243/281/248 242/279/248 227/270/248
f 221/254/249 236/282/249 235/280/249 220/255/249
f 229/256/250 244/283/250 243/281/250 228/257/250
f 222/258/251 237/284/251 236/282/251 221/254/251
f 230/259/252 245/285/252 244/283/252 229/256/252
f 223/260/253 238/286/253 237/284/253 222/258/253
f 231/261/254 246/287/254 245/285/254 230/259/254
f 224/262/255 239/272/255 238/286/255 223/260/255
f 232/263/256 247/274/256 246/287/256 231/261/256
f 244/283/257 259/288/257 258/289/257 243/281/257
f 237/284/258 252/290/258 251/291/258 236/282/258
f 245/285/259 260/292/259 259/288/259 244/283/259
f 238/286/260 253/293/260 252/290/260 237/284/260
f 246/287/261 261/294/261 260/292/261 245/285/261
f 239/272/262 254/295/262 253/293/262 238/286/262
f 247/274/263 262/296/263 261/294/263 246/287/263
f 240/271/264 255/297/264 254/295/264 239/272/264
f 248/273/265 263/298/265 262/296/265 247/274/265
f 241/275/266 256/299/266 255/297/266 240/271/266
f 234/276/267 249/300/267 1/301/267
f 8/302/268 263/298/268 248/273/268
f 242/279/269 257/303/269 256/299/269 241/275/269
f 235/280/270 250/304/270 249/300/270 234/276/270
f 243/281/271 258/289/271 257/303/271 242/279/271
f 236/282/272 251/291/272 250/304/272 235/280/272
f 263/298/273 278/305/273 277/306/273 262/296/273
f 256/299/274 271/307/274 270/308/274 255/297/274
f 249/300/275 264/309/275 1/310/275
f 8/311/276 278/305/276 263/298/276
f 257/303/277 272/312/277 271/307/277 256/299/277
f 250/304/278 265/313/278 264/309/278 249/300/278
f 258/289/279 273/314/279 272/312/279 257/303/279
f 251/291/280 266/315/280 265/313/280 250/304/280
f 259/288/281 274/316/281 273/314/281 258/289/281
f 252/290/282 267/317/282 266/315/282 251/291/282
f 260/292/283 275/318/283 274/316/283 259/288/283
f 253/293/284 268/319/284 267/317/284 252/290/284
f 261/294/285 276/320/285 275/318/285 260/292/285
f 254/295/286 269/321/286 268/319/286 253/293/286
f 262/296/287 277/306/287 276/320/287 261/294/287
f 255/297/288 270/308/288 269/321/288 254/295/288
f 267/317/289 282/322/289 281/323/289 266/315/289
f 275/318/290 290/324/290 289/325/290 274/316/290
f 268/319/291 283/326/291 282/322/291 267/317/291
f 276/320/292 291/327/292 290/324/292 275/318/292
f 269/321/293 284/328/293 283/326/293 268/319/293
f 277/306/294 292/329/294 291/327/294 276/320/294
f 270/308/295 285/330/295 284/328/295 269/321/295
f 278/305/296 293/331/296 292/329/296 277/306/296
f 271/307/297 286/332/297 285/330/297 270/308/297
f 264/309/298 279/333/298 1/334/298
f 8/335/299 293/331/299 278/305/299
f 272/312/300 287/336/300 286/332/300 271/307/300
f 265/313/301 280/337/301 279/333/301 264/309/301
f 273/314/302 288/338/302 287/336/302 272/312/302
f 266/315/303 281/323/303 280/337/303 265/313/303
f 274/316/304 289/325/304 288/338/304 273/314/304
f 286/332/305 301/339/305 300/340/305 285/330/305
f 279/333/306 294/341/306 1/342/306
f 8/343/307 308/344/307 293/331/307
f 287/336/308 302/345/308 301/339/308 286/332/308
f 280/337/309 295/346/309 294/341/309 279/333/309
f 288/338/310 303/347/310 302/345/310 287/336/310
f 281/323/311 296/348/311 295/346/311 280/337/311
f 289/325/312 304/349/312 303/347/312 288/338/312
f 282/322/313 297/350/313 296/348/313 281/323/313
f 290/324/314 305/351/314 304/349/314 289/325/314
f 283/326/315 298/352/315 297/350/315 282/322/315
f 291/327/316 306/353/316 305/351/316 290/324/316
f 284/328/317 299/354/317 298/352/317 283/326/317
f 292/329/318 307/355/318 306/353/318 291/327/318
f 285/330/319 300/340/319 299/354/319 284/328/319
f 293/331/320 308/344/320 307/355/320 292/329/320
f 305/351/321 320/356/321 319/357/321 304/349/321
f 298/352/322 313/358/322 312/359/322 297/350/322
f 306/353/323 321/360/323 320/356/323 305/351/323
f 299/354/324 314/361/324 313/358/324 298/352/324
f 307/355/325 322/362/325 321/360/325 306/353/325
f 300/340/326 315/363/326 314/361/326 299/354/326
f 308/344/327 323/364/327 322/362/327 307/355/327
f 301/339/328 316/365/328 315/363/328 300/340/328
f 294/341/329 309/366/329 1/367/329
f 8/368/330 323/364/330 308/344/330
f 302/345/331 317/369/331 316/365/331 301/339/331
f 295/346/332 310/370/332 309/366/332 294/341/332
f 303/347/333 318/371/333 317/369/333 302/345/333
f 296/348/334 311/372/334 310/370/334 295/346/334
f 304/349/335 319/357/335 318/371/335 303/347/335
f 297/350/336 312/359/336 311/372/336 296/348/336
f 8/373/337 338/374/337 323/364/337
f 317/369/338 332/375/338 331/376/338 316/365/338
f 310/370/339 325/377/339 324/378/339 309/366/339
f 318/371/340 333/379/340 332/375/340 317/369/340
f 311/372/341 326/380/341 325/377/341 310/370/341
f 319/357/342 334/381/342 333/379/342 318/371/342
f 312/359/343 327/382/343 326/380/343 311/372/343
f 320/356/344 335/383/344 334/381/344 319/357/344
f 313/358/345 328/384/345 327/382/345 312/359/345
f 321/360/346 336/385/346 335/383/346 320/356/346
f 314/361/347 329/386/347 328/384/347 313/358/347
f 322/362/348 337/387/348 336/385/348 321/360/348
f 315/363/349 330/388/349 329/386/349 314/361/349
f 323/364/350 338/374/350 337/387/350 322/362/350
f 316/365/351 331/376/351 330/388/351 315/363/351
f 309/366/352 324/378/352 1/389/352
f 336/385/353 351/390/353 350/391/353 335/383/353
f 329/386/354 344/392/354 343/393/354 328/384/354
f 337/387/355 352/394/355 351/390/355 336/385/355
f 330/388/356 345/395/356 344/392/356 329/386/356
f 338/374/357 353/396/357 352/394/357 337/387/357
f 331/376/358 346/397/358 345/395/358 330/388/358
f 324/378/359 339/398/359 1/399/359
f 8/400/360 353/396/360 338/374/360
f 332/375/361 347/401/361 346/397/361 331/376/361
f 325/377/362 340/402/362 339/398/362 324/378/362
f 333/379/363 348/403/363 347/401/363 332/375/363
f 326/380/364 341/404/364 340/402/364 325/377/364
f 334/381/365 349/405/365 348/403/365 333/379/365
f 327/382/366 342/406/366 341/404/366 326/380/366
f 335/383/367 350/391/367 349/405/367 334/381/367
f 328/384/368 343/393/368 342/406/368 327/382/368
f 340/402/369 355/407/369 354/408/369 339/398/369
f 348/403/370 363/409/370 362/410/370 347/401/370
f 341/404/371 356/411/371 355/407/371 340/402/371
f 349/405/372 364/412/372 363/409/372 348/403/372
f 342/406/373 357/413/373 356/411/373 341/404/373
f 350/391/374 365/414/374 364/412/374 349/405/374
f 343/393/375 358/415/375 357/413/375 342/406/375
f 351/390/376 366/416/376 365/414/376 350/391/376
f 344/392/377 359/417/377 358/415/377 343/393/377
f 352/394/378 367/418/378 366/416/378 351/390/378
f 345/395/379 360/419/379 359/417/379 344/392/379
f 353/396/380 368/420/380 367/418/380 352/394/380
f 346/397/381 361/421/381 360/419/381 345/395/381
f 339/398/382 354/408/382 1/422/382
f 8/423/383 368/420/383 353/396/383
f 347/401/384 362/410/384 361/421/384 346/397/384
f 359/424/385 374/425/385 373/426/385 358/427/385
f 367/428/386 382/429/386 381/430/386 366/431/386
f 360/432/387 375/433/387 374/425/387 359/424/387
f 368/434/388 383/435/388 382/429/388 367/428/388
f 361/436/389 376/437/389 375/433/389 360/432/389
f 354/438/390 369/439/390 1/440/390
f 8/441/391 383/435/391 368/434/391
f 362/442/392 377/443/392 376/437/392 361/436/392
f 355/444/393 370/445/393 369/439/393 354/438/393
f 363/446/394 378/447/394 377/443/394 362/442/394
f 356/448/395 371/449/395 370/445/395 355/444/395
f 364/450/396 379/451/396 378/447/396 363/446/396
f 357/452/397 372/453/397 371/449/397 356/448/397
f 365/454/398 380/455/398 379/451/398 364/450/398
f 358/427/399 373/426/399 372/453/399 357/452/399
f 366/431/400 381/430/400 380/455/400 365/454/400
f 378/447/401 393/456/401 392/457/401 377/443/401
f 371/449/402 386/458/402 385/459/402 370/445/402
f 379/451/403 394/460/403 393/456/403 378/447/403
f 372/453/404 387/461/404 386/458/404 371/449/404
f 380/455/405 395/462/405 394/460/405 379/451/405
f 373/426/406 388/463/406 387/461/406 372/453/406
f 381/430/407 396/464/407 395/462/407 380/455/407
f 374/425/408 389/465/408 388/463/408 373/426/408
f 382/429/409 397/466/409 396/464/409 381/430/409
f 375/433/410 390/467/410 389/465/410 374/425/410
f 383/435/411 398/468/411 397/466/411 382/429/411
f 376/437/412 391/469/412 390/467/412 375/433/412
f 369/439/413 384/470/413 1/471/413
f 8/472/414 398/468/414 383/435/414
f 377/443/415 392/457/415 391/469/415 376/437/415
f 370/445/416 385/459/416 384/470/416 369/439/416
f 397/466/417 412/473/417 411/474/417 396/464/417
f 390/467/418 405/475/418 404/476/418 389/465/418
f 398/468/419 413/477/419 412/473/419 397/466/419
f 391/469/420 406/478/420 405/475/420 390/467/420
f 384/470/421 399/479/421 1/480/421
f 8/481/422 413/477/422 398/468/422
f 392/457/423 407/482/423 406/478/423 391/469/423
f 385/459/424 400/483/424 399/479/424 384/470/424
f 393/456/425 408/484/425 407/482/425 392/457/425
f 386/458/426 401/485/426 400/483/426 385/459/426
f 394/460/427 409/486/427 408/484/427 393/456/427
f 387/461/428 402/487/428 401/485/428 386/458/428
f 395/462/429 410/488/429 409/486/429 394/460/429
f 388/463/430 403/489/430 402/487/430 387/461/430
f 396/464/431 411/474/431 410/488/431 395/462/431
f 389/465/432 404/476/432 403/489/432 388/463/432
f 401/485/433 416/490/433 415/491/433 400/483/433
f 409/486/434 424/492/434 423/493/434 408/484/434
f 402/487/435 417/494/435 416/490/435 401/485/435
f 410/488/436 425/495/436 424/492/436 409/486/436
f 403/489/437 418/496/437 417/494/437 402/487/437
f 411/474/438 426/497/438 425/495/438 410/488/438
f 404/476/439 419/498/439 418/496/439 403/489/439
f 412/473/440 427/499/440 426/497/440 411/474/440
f 405/475/441 420/500/441 419/498/441 404/476/441
f 413/477/442 428/501/442 427/499/442 412/473/442
f 406/478/443 421/502/443 420/500/443 405/475/443
f 399/479/444 414/503/444 1/504/444
f 8/505/445 428/501/445 413/477/445
f 407/482/446 422/506/446 421/502/446 406/478/446
f 400/483/447 415/491/447 414/503/447 399/479/447
f 408/484/448 423/493/448 422/506/448 407/482/448
f 420/500/449 435/507/449 434/508/449 419/498/449
f 428/501/450 443/509/450 442/510/450 427/499/450
f 421/502/451 436/511/451 435/507/451 420/500/451
f 414/503/452 429/512/452 1/513/452
f 8/514/453 443/509/453 428/501/453
f 422/506/454 437/515/454 436/511/454 421/502/454
f 415/491/455 430/516/455 429/512/455 414/503/455
f 423/493/456 438/517/456 437/515/456 422/506/456
f 416/490/457 431/518/457 430/516/457 415/491/457
f 424/492/458 439/519/458 438/517/458 423/493/458
f 417/494/459 432/520/459 431/518/459 416/490/459
f 425/495/460 440/521/460 439/519/460 424/492/460
f 418/496/461 433/522/461 432/520/461 417/494/461
f 426/497/462 441/523/462 440/521/462 425/495/462
f 419/498/463 434/508/463 433/522/463 418/496/463
f 427/499/464 442/510/464 441/523/464 426/497/464
f 439/519/465 454/524/465 453/525/465 438/517/465
f 432/520/466 447/526/466 446/527/466 431/518/466
f 440/521/467 455/528/467 454/524/467 439/519/467
f 433/522/468 448/529/468 447/526/468 432/520/468
f 441/523/469 456/530/469 455/528/469 440/521/469
f 434/508/470 449/531/470 448/529/470 433/522/470
f 442/510/471 457/532/471 456/530/471 441/523/471
f 435/507/472 450/533/472 449/531/472 434/508/472
f 443/509/473 458/534/473 457/532/473 442/510/473
f 436/511/474 451/535/474 450/533/474 435/507/474
f 429/512/475 444/536/475 1/537/475
f 8/538/476 458/534/476 443/509/476
f 437/515/477 452/539/477 451/535/477 436/511/477
f 430/516/478 445/540/478 444/536/478 429/512/478
f 438/517/479 453/525/479 452/539/479 437/515/479
f 431/518/480 446/527/480 445/540/480 430/516/480
f 458/534/481 473/541/481 472/542/481 457/532/481
f 451/535/482 466/543/482 465/544/482 450/533/482
f 444/536/483 459/545/483 1/546/483
f 8/547/484 473/541/484 458/534/484
f 452/539/485 467/548/485 466/543/485 451/535/485
f 445/540/486 460/549/486 459/545/486 444/536/486
f 453/525/487 468/550/487 467/548/487 452/539/487
f 446/527/488 461/551/488 460/549/488 445/540/488
f 454/524/489 469/552/489 468/550/489 453/525/489
f 447/526/490 462/553/490 461/551/490 446/527/490
f 455/528/491 470/554/491 469/552/491 454/524/491
f 448/529/492 463/555/492 462/553/492 447/526/492
f 456/530/493 471/556/493 470/554/493 455/528/493
f 449/531/494 464/557/494 463/555/494 448/529/494
f 457/532/495 472/542/495 471/556/495 456/530/495
f 450/533/496 465/544/496 464/557/496 449/531/496
f 470/554/497 479/5/497 7/8/497 469/552/497
f 463/555/498 3/9/498 476/1/498 462/553/498
f 471/556/499 480/11/499 479/5/499 470/554/499
f 464/557/500 477/13/500 3/9/500 463/555/500
f 472/542/501 481/15/501 480/11/501 471/556/501
f 465/544/502 4/17/502 477/13/502 464/557/502
f 473/541/503 482/19/503 481/15/503 472/542/503
f 466/543/504 5/21/504 4/17/504 465/544/504
f 459/545/505 474/23/505 1/558/505
f 8/559/506 482/19/506 473/541/506
f 467/548/507 6/27/507 5/21/507 466/543/507
f 460/549/508 475/29/508 474/23/508 459/545/508
f 468/550/509 478/31/509 6/27/509 467/548/509
f 461/551/510 2/4/510 475/29/510 460/549/510
f 469/552/511 7/8/511 478/31/511 468/550/511
f 462/553/512 476/1/512 2/4/512 461/551/512
