# Blender 5.0.0
# www.blender.org
mtllib blue.mtl
o bluepencil
v -0.012356 0.000339 -0.046988
v -0.012356 0.000339 0.178626
v -0.011016 0.005339 -0.046988
v -0.011016 0.005339 0.178626
v -0.007356 0.008999 -0.046988
v -0.007356 0.008999 0.178626
v -0.002356 0.010339 -0.046988
v -0.002356 0.010339 0.178626
v 0.002644 0.008999 -0.046988
v 0.002644 0.008999 0.178626
v 0.006304 0.005339 -0.046988
v 0.006304 0.005339 0.178626
v 0.007644 0.000339 -0.046988
v 0.007644 0.000339 0.178626
v 0.006304 -0.004661 -0.046988
v 0.006304 -0.004661 0.178626
v 0.002644 -0.008321 -0.046988
v 0.002644 -0.008321 0.178626
v -0.002356 -0.009661 -0.046988
v -0.002356 -0.009661 0.178626
v -0.007356 -0.008321 -0.046988
v -0.007356 -0.008321 0.178626
v -0.011016 -0.004661 -0.046988
v -0.011016 -0.004661 0.178626
v -0.012356 0.000339 0.178626
v -0.011016 0.005339 0.178626
v -0.007356 0.008999 0.178626
v -0.002356 0.010339 0.178626
v 0.002644 0.008999 0.178626
v 0.006304 0.005339 0.178626
v 0.007644 0.000339 0.178626
v 0.006304 -0.004661 0.178626
v 0.002644 -0.008321 0.178626
v -0.002356 -0.009661 0.178626
v -0.007356 -0.008321 0.178626
v -0.011016 -0.004661 0.178626
v -0.002356 0.000339 0.203012
v 0.001974 0.002839 0.190819
v -0.002356 0.005339 0.190819
v 0.001974 -0.002161 0.190819
v -0.002356 -0.004661 0.190819
v -0.006686 -0.002161 0.190819
v -0.006686 0.002839 0.190819
v -0.005603 0.000339 0.195095
v -0.008092 0.003651 0.186861
v -0.000733 -0.002473 0.195095
v -0.000733 0.003151 0.195095
v 0.003380 0.003651 0.186861
v -0.003979 0.003151 0.195095
v -0.002356 -0.006284 0.186861
v 0.000891 0.000339 0.195095
v -0.002356 0.006962 0.186861
v -0.003979 -0.002473 0.195095
v 0.003380 -0.002973 0.186861
v -0.008092 -0.002973 0.186861
v -0.009513 -0.003333 -0.046988
v -0.009513 0.002970 -0.046988
v -0.002128 0.002970 -0.046988
v -0.002271 0.002217 -0.046988
v -0.002329 0.001518 -0.046988
v -0.002309 0.000877 -0.046988
v -0.002216 0.000294 -0.046988
v -0.002058 -0.000227 -0.046988
v -0.001840 -0.000686 -0.046988
v -0.001568 -0.001079 -0.046988
v -0.001250 -0.001406 -0.046988
v -0.000891 -0.001663 -0.046988
v -0.000497 -0.001850 -0.046988
v -0.000076 -0.001963 -0.046988
v 0.000368 -0.002001 -0.046988
v 0.000711 -0.001974 -0.046988
v 0.001041 -0.001895 -0.046988
v 0.001356 -0.001768 -0.046988
v 0.001651 -0.001597 -0.046988
v 0.001923 -0.001385 -0.046988
v 0.002170 -0.001136 -0.046988
v 0.002388 -0.000853 -0.046988
v 0.002573 -0.000541 -0.046988
v 0.002723 -0.000203 -0.046988
v 0.002834 0.000158 -0.046988
v 0.002903 0.000537 -0.046988
v 0.002926 0.000932 -0.046988
v 0.002919 0.001191 -0.046988
v 0.002897 0.001451 -0.046988
v 0.002860 0.001711 -0.046988
v 0.002809 0.001971 -0.046988
v 0.002744 0.002230 -0.046988
v 0.002664 0.002489 -0.046988
v 0.002569 0.002747 -0.046988
v 0.002461 0.003005 -0.046988
v 0.002338 0.003263 -0.046988
v 0.002202 0.003520 -0.046988
v 0.002051 0.003776 -0.046988
v 0.001886 0.004031 -0.046988
v 0.003987 0.004031 -0.046988
v 0.004136 0.003729 -0.046988
v 0.004269 0.003436 -0.046988
v 0.004387 0.003149 -0.046988
v 0.004491 0.002868 -0.046988
v 0.004581 0.002591 -0.046988
v 0.004658 0.002315 -0.046988
v 0.004722 0.002039 -0.046988
v 0.004773 0.001761 -0.046988
v 0.004812 0.001480 -0.046988
v 0.004839 0.001194 -0.046988
v 0.004856 0.000901 -0.046988
v 0.004861 0.000599 -0.046988
v 0.004822 -0.000056 -0.046988
v 0.004707 -0.000677 -0.046988
v 0.004521 -0.001258 -0.046988
v 0.004268 -0.001796 -0.046988
v 0.003952 -0.002288 -0.046988
v 0.003577 -0.002727 -0.046988
v 0.003147 -0.003110 -0.046988
v 0.002667 -0.003434 -0.046988
v 0.002141 -0.003693 -0.046988
v 0.001572 -0.003883 -0.046988
v 0.000966 -0.004000 -0.046988
v 0.000326 -0.004040 -0.046988
v -0.000315 -0.004000 -0.046988
v -0.000926 -0.003880 -0.046988
v -0.001501 -0.003684 -0.046988
v -0.002034 -0.003414 -0.046988
v -0.002520 -0.003073 -0.046988
v -0.002953 -0.002662 -0.046988
v -0.003327 -0.002184 -0.046988
v -0.003637 -0.001642 -0.046988
v -0.003877 -0.001039 -0.046988
v -0.004042 -0.000376 -0.046988
v -0.004127 0.000344 -0.046988
v -0.004125 0.001119 -0.046988
v -0.007682 0.001119 -0.046988
v -0.007682 -0.003333 -0.046988
v -0.009513 0.002970 -0.047415
v -0.002128 0.002970 -0.047415
v -0.007682 0.001119 -0.047415
v -0.009513 -0.003333 -0.047415
v -0.007682 -0.003333 -0.047415
v -0.004125 0.001119 -0.047415
v -0.004127 0.000344 -0.047415
v -0.004042 -0.000376 -0.047415
v -0.003877 -0.001039 -0.047415
v -0.003637 -0.001642 -0.047415
v -0.003327 -0.002184 -0.047415
v -0.002271 0.002217 -0.047415
v -0.002953 -0.002662 -0.047415
v -0.002329 0.001518 -0.047415
v -0.002520 -0.003073 -0.047415
v -0.002309 0.000877 -0.047415
v -0.002034 -0.003414 -0.047415
v -0.002216 0.000294 -0.047415
v -0.002058 -0.000227 -0.047415
v -0.001840 -0.000686 -0.047415
v -0.001501 -0.003684 -0.047415
v -0.001568 -0.001079 -0.047415
v -0.001250 -0.001406 -0.047415
v -0.000926 -0.003880 -0.047415
v -0.000891 -0.001663 -0.047415
v -0.000315 -0.004000 -0.047415
v -0.000497 -0.001850 -0.047415
v -0.000076 -0.001963 -0.047415
v 0.000326 -0.004040 -0.047415
v 0.000368 -0.002001 -0.047415
v 0.000966 -0.004000 -0.047415
v 0.000711 -0.001974 -0.047415
v 0.001041 -0.001895 -0.047415
v 0.001572 -0.003883 -0.047415
v 0.001356 -0.001768 -0.047415
v 0.001651 -0.001597 -0.047415
v 0.002141 -0.003693 -0.047415
v 0.001923 -0.001385 -0.047415
v 0.001886 0.004031 -0.047415
v 0.003987 0.004031 -0.047415
v 0.002051 0.003776 -0.047415
v 0.002170 -0.001136 -0.047415
v 0.002202 0.003520 -0.047415
v 0.002667 -0.003434 -0.047415
v 0.002388 -0.000853 -0.047415
v 0.002338 0.003263 -0.047415
v 0.002461 0.003005 -0.047415
v 0.002573 -0.000541 -0.047415
v 0.002569 0.002747 -0.047415
v 0.002664 0.002489 -0.047415
v 0.002723 -0.000203 -0.047415
v 0.002744 0.002230 -0.047415
v 0.003147 -0.003110 -0.047415
v 0.002834 0.000158 -0.047415
v 0.002809 0.001971 -0.047415
v 0.002860 0.001711 -0.047415
v 0.002903 0.000537 -0.047415
v 0.002897 0.001451 -0.047415
v 0.002919 0.001191 -0.047415
v 0.002926 0.000932 -0.047415
v 0.003577 -0.002727 -0.047415
v 0.003952 -0.002288 -0.047415
v 0.004268 -0.001796 -0.047415
v 0.004136 0.003729 -0.047415
v 0.004269 0.003436 -0.047415
v 0.004521 -0.001258 -0.047415
v 0.004387 0.003149 -0.047415
v 0.004491 0.002868 -0.047415
v 0.004581 0.002591 -0.047415
v 0.004707 -0.000677 -0.047415
v 0.004658 0.002315 -0.047415
v 0.004722 0.002039 -0.047415
v 0.004822 -0.000056 -0.047415
v 0.004773 0.001761 -0.047415
v 0.004812 0.001480 -0.047415
v 0.004839 0.001194 -0.047415
v 0.004861 0.000599 -0.047415
v 0.004856 0.000901 -0.047415
vn -0.9659 0.2588 -0.0000
vn -0.7071 0.7071 -0.0000
vn -0.2588 0.9659 -0.0000
vn 0.2588 0.9659 -0.0000
vn 0.7071 0.7071 -0.0000
vn 0.9659 0.2588 -0.0000
vn 0.9659 -0.2588 -0.0000
vn 0.7071 -0.7071 -0.0000
vn 0.2588 -0.9659 -0.0000
vn -0.2588 -0.9659 -0.0000
vn -0.0000 1.0000 -0.0000
vn -0.7071 -0.7071 -0.0000
vn -0.9659 -0.2588 -0.0000
vn -0.0000 -0.0000 -1.0000
vn -0.8981 0.2405 0.3683
vn 0.6574 -0.6575 0.3682
vn 0.6574 0.6575 0.3682
vn -0.8981 -0.2405 0.3683
vn -0.6574 0.6575 0.3682
vn 0.2405 -0.8981 0.3683
vn 0.8980 0.2405 0.3683
vn -0.2405 0.8981 0.3683
vn -0.2405 -0.8981 0.3683
vn 0.8981 -0.2405 0.3683
vn 0.2405 0.8981 0.3683
vn -0.6574 -0.6575 0.3682
vn -0.6574 -0.6574 0.3682
vn 0.2406 0.8981 0.3682
vn 0.8981 -0.2406 0.3682
vn -0.2406 -0.8981 0.3682
vn -0.2406 0.8980 0.3682
vn 0.8981 0.2406 0.3682
vn 0.2406 -0.8981 0.3682
vn -0.8981 -0.2406 0.3682
vn 0.6574 0.6574 0.3682
vn 0.6574 -0.6574 0.3682
vn -0.8981 0.2406 0.3682
vn -0.0000 0.0005 1.0000
vn -0.0000 -0.0000 1.0000
vn -0.0000 -0.0006 1.0000
vn -0.0000 0.0017 1.0000
vn -0.0000 0.0001 1.0000
vn -0.0000 0.0003 1.0000
vn -0.0000 -0.0009 1.0000
vn -0.0000 -0.0055 1.0000
vn -0.0000 0.0024 1.0000
vn -0.0000 -0.0005 1.0000
vn -0.0000 -0.0003 1.0000
vn -0.0000 -0.0013 1.0000
vn -0.0000 0.0020 1.0000
vn -0.0000 -0.0018 1.0000
vn -0.0000 0.0016 1.0000
vn -0.0000 -0.0004 1.0000
vn -0.0000 -0.0023 1.0000
vn -0.0000 0.0012 1.0000
vn -0.0000 0.0004 1.0000
vn -0.0000 0.0009 1.0000
vn -0.0000 -0.0016 1.0000
vn -0.0000 -0.0001 1.0000
vn -0.0000 0.0002 1.0000
vn -0.0000 -0.0010 1.0000
vn -0.0000 0.0008 1.0000
vn -0.0000 0.0006 -1.0000
vn -0.0000 -0.0002 -1.0000
vn -0.0000 -0.0006 -1.0000
vn -0.0000 0.0004 -1.0000
vn -0.0000 0.0002 -1.0000
vn -0.0000 -0.0011 -1.0000
vn -0.0000 0.0001 -1.0000
vn -0.0000 -0.0003 -1.0000
vn -0.0000 -0.0007 -1.0000
vn -0.0000 -0.0004 -1.0000
vn -0.0000 -0.0015 -1.0000
vn -0.0000 0.0007 -1.0000
vn -0.0000 0.0016 -1.0000
vn -0.0000 0.0017 -1.0000
vn -0.0000 -0.0016 -1.0000
vn -0.0000 0.0025 -1.0000
vn -0.0000 -0.0001 -1.0000
vn -0.0000 0.0005 -1.0000
vn -0.0000 0.0010 -1.0000
vn -0.0000 -0.0008 -1.0000
vn 0.8408 -0.5413 -0.0000
vn 0.3171 -0.9484 -0.0000
vn -0.3225 -0.9466 -0.0000
vn -0.8681 -0.4964 -0.0000
vn 0.8976 0.4407 -0.0000
vn -0.9556 -0.2946 -0.0000
vn -0.6142 0.7892 -0.0000
vn 0.5827 0.8127 -0.0000
vn 0.9982 -0.0596 -0.0000
vn 0.9826 -0.1859 -0.0000
vn 0.9985 0.0552 -0.0000
vn 0.9107 0.4130 -0.0000
vn 0.5586 -0.8295 -0.0000
vn 0.9998 0.0174 -0.0000
vn -0.9556 0.2946 -0.0000
vn -0.1917 -0.9814 -0.0000
vn -0.7875 -0.6163 -0.0000
vn -0.8403 -0.5421 -0.0000
vn 0.4279 0.9038 -0.0000
vn 0.9965 -0.0830 -0.0000
vn 0.9050 -0.4255 -0.0000
vn -0.7104 0.7038 -0.0000
vn 0.9243 0.3817 -0.0000
vn -0.9695 -0.2451 -0.0000
vn 0.2595 0.9657 -0.0000
vn -0.6881 -0.7256 -0.0000
vn 0.9378 0.3473 -0.0000
vn -0.9812 -0.1929 -0.0000
vn -0.8618 -0.5073 -0.0000
vn 0.9995 0.0320 -0.0000
vn -0.9838 0.1794 -0.0000
vn -0.0627 -0.9980 -0.0000
vn 0.9512 0.3085 -0.0000
vn 0.4414 -0.8973 -0.0000
vn 0.0857 0.9963 -0.0000
vn -0.7921 0.6103 -0.0000
vn -0.5749 -0.8182 -0.0000
vn -1.0000 -0.0000 -0.0000
vn -0.9902 -0.1399 -0.0000
vn 0.9876 0.1568 -0.0000
vn 0.9523 -0.3052 -0.0000
vn 1.0000 -0.0000 -0.0000
vn 0.0625 -0.9980 -0.0000
vn 0.9634 0.2681 -0.0000
vn -0.0000 -1.0000 -0.0000
vn -0.9965 -0.0841 -0.0000
vn -0.8827 -0.4699 -0.0000
vn -0.0787 0.9969 -0.0000
vn 0.9567 0.2909 -0.0000
vn -0.9982 0.0598 -0.0000
vn 0.9742 0.2256 -0.0000
vn -0.9029 -0.4299 -0.0000
vn -0.2321 0.9727 -0.0000
vn 0.9034 0.4288 -0.0000
vn -1.0000 0.0025 -0.0000
vn -0.8600 0.5103 -0.0000
vn -0.9996 -0.0284 -0.0000
vn 0.9833 -0.1818 -0.0000
vn -0.9931 -0.1169 -0.0000
vn 0.1900 -0.9818 -0.0000
vn -0.4520 -0.8920 -0.0000
vn 0.9834 0.1814 -0.0000
vn -0.9217 -0.3879 -0.0000
vn -0.3747 0.9271 -0.0000
vn 0.8234 0.5674 -0.0000
vn 0.6655 -0.7464 -0.0000
vn 0.9905 0.1377 -0.0000
vn -0.9703 -0.2419 -0.0000
vn -0.9392 -0.3433 -0.0000
vn -0.5026 0.8645 -0.0000
vn 0.7162 0.6979 -0.0000
vn 0.7607 -0.6491 -0.0000
vn -0.9144 0.4047 -0.0000
vn 0.9955 0.0945 -0.0000
vn -0.9289 -0.3702 -0.0000
vt 1.000000 0.500000
vt 1.000000 1.000000
vt 0.916667 1.000000
vt 0.916667 0.500000
vt 0.833333 1.000000
vt 0.833333 0.500000
vt 0.750000 1.000000
vt 0.750000 0.500000
vt 0.666667 1.000000
vt 0.666667 0.500000
vt 0.583333 1.000000
vt 0.583333 0.500000
vt 0.500000 1.000000
vt 0.500000 0.500000
vt 0.416667 1.000000
vt 0.416667 0.500000
vt 0.333333 1.000000
vt 0.333333 0.500000
vt 0.250000 1.000000
vt 0.250000 0.500000
vt 0.166667 1.000000
vt 0.166667 0.500000
vt 0.083333 1.000000
vt 0.083333 0.500000
vt 0.000000 1.000000
vt 0.000000 0.500000
vt 0.750000 0.490000
vt 0.870000 0.457846
vt 0.957846 0.370000
vt 0.990000 0.250000
vt 0.957846 0.130000
vt 0.870000 0.042154
vt 0.750000 0.010000
vt 0.630000 0.042154
vt 0.542154 0.130000
vt 0.510000 0.250000
vt 0.542154 0.370000
vt 0.630000 0.457846
vt 0.943723 1.000000
vt 0.388528 1.000000
vt 0.375000 1.000000
vt 0.583333 1.000000
vt 0.610390 1.000000
vt 0.055195 1.000000
vt 0.041667 1.000000
vt 0.888528 1.000000
vt 0.875000 1.000000
vt 0.277056 1.000000
vt 0.555195 1.000000
vt 0.541667 1.000000
vt 0.777056 1.000000
vt 0.221862 1.000000
vt 0.208333 1.000000
vt 0.443723 1.000000
vt 0.721862 1.000000
vt 0.708333 1.000000
vt 0.083333 1.000000
vt 0.110390 1.000000
vt 0.025974 0.000000
vt 0.012987 0.000000
vt 0.987013 0.000000
vt 0.000000 0.000000
vt 1.000000 0.000000
vt 0.974026 0.000000
vt 0.961039 0.000000
vt 0.948052 0.000000
vt 0.935065 0.000000
vt 0.922078 0.000000
vt 0.909091 0.000000
vt 0.038961 0.000000
vt 0.896104 0.000000
vt 0.051948 0.000000
vt 0.883117 0.000000
vt 0.064935 0.000000
vt 0.870130 0.000000
vt 0.077922 0.000000
vt 0.090909 0.000000
vt 0.103896 0.000000
vt 0.857143 0.000000
vt 0.116883 0.000000
vt 0.129870 0.000000
vt 0.844156 0.000000
vt 0.142857 0.000000
vt 0.831169 0.000000
vt 0.155844 0.000000
vt 0.168831 0.000000
vt 0.818182 0.000000
vt 0.181818 0.000000
vt 0.805195 0.000000
vt 0.194805 0.000000
vt 0.207792 0.000000
vt 0.792208 0.000000
vt 0.220779 0.000000
vt 0.233766 0.000000
vt 0.779221 0.000000
vt 0.246753 0.000000
vt 0.506494 0.000000
vt 0.493506 0.000000
vt 0.480519 0.000000
vt 0.259740 0.000000
vt 0.467532 0.000000
vt 0.766234 0.000000
vt 0.272727 0.000000
vt 0.454545 0.000000
vt 0.441558 0.000000
vt 0.285714 0.000000
vt 0.428571 0.000000
vt 0.415584 0.000000
vt 0.298701 0.000000
vt 0.402597 0.000000
vt 0.753247 0.000000
vt 0.311688 0.000000
vt 0.389610 0.000000
vt 0.376623 0.000000
vt 0.324675 0.000000
vt 0.363636 0.000000
vt 0.350649 0.000000
vt 0.337662 0.000000
vt 0.740260 0.000000
vt 0.727273 0.000000
vt 0.714286 0.000000
vt 0.519481 0.000000
vt 0.532468 0.000000
vt 0.701299 0.000000
vt 0.545455 0.000000
vt 0.558442 0.000000
vt 0.571429 0.000000
vt 0.688312 0.000000
vt 0.584416 0.000000
vt 0.597403 0.000000
vt 0.675325 0.000000
vt 0.610390 0.000000
vt 0.623377 0.000000
vt 0.636364 0.000000
vt 0.662338 0.000000
vt 0.649351 0.000000
s 0
usemtl middle.005
f 20/19/11 18/17/11 33/17/11 34/19/11
f 18/17/11 16/15/11 32/15/11 33/17/11
f 16/15/11 14/13/11 31/13/11 32/15/11
f 14/13/11 12/11/11 30/11/11 31/13/11
f 12/11/11 10/9/11 29/9/11 30/11/11
f 10/9/11 8/7/11 28/7/11 29/9/11
f 2/25/11 24/23/11 36/23/11 25/25/11
f 4/3/11 2/2/11 25/2/11 26/3/11
f 8/7/11 6/5/11 27/5/11 28/7/11
f 24/23/11 22/21/11 35/21/11 36/23/11
f 6/5/11 4/3/11 26/3/11 27/5/11
f 22/21/11 20/19/11 34/19/11 35/21/11
f 36/23/27 35/21/27 53/58/27 55/57/27
f 29/9/28 28/7/28 52/55/28 47/9/28
f 32/15/29 31/13/29 51/54/29 54/15/29
f 35/21/30 34/19/30 50/52/30 53/21/30
f 28/7/31 27/5/31 49/51/31 52/7/31
f 31/13/32 30/11/32 48/49/32 51/13/32
f 34/19/33 33/17/33 46/48/33 50/19/33
f 27/5/19 26/3/19 45/46/19 49/5/19
f 25/25/34 36/23/34 55/44/34 44/25/34
f 30/11/35 29/9/35 47/43/35 48/42/35
f 33/17/36 32/15/36 54/40/36 46/17/36
f 26/3/37 25/2/37 44/39/37 45/3/37
usemtl point.005
f 45/3/15 44/39/15 37/3/15 43/3/15
f 46/17/16 54/40/16 40/41/16 37/17/16
f 48/42/17 47/43/17 37/11/17 38/11/17
f 44/25/18 55/44/18 42/45/18 37/25/18
f 49/5/19 45/46/19 43/47/19 37/5/19
f 50/19/20 46/48/20 37/19/20 41/19/20
f 51/13/21 48/49/21 38/50/21 37/13/21
f 52/7/22 49/51/22 37/7/22 39/7/22
f 53/21/23 50/52/23 41/53/23 37/21/23
f 54/15/24 51/54/24 37/15/24 40/15/24
f 47/9/25 52/55/25 39/56/25 37/9/25
f 55/57/26 53/58/26 37/23/26 42/23/26
usemtl shaft.005
f 1/1/1 2/2/1 4/3/1 3/4/1
f 3/4/2 4/3/2 6/5/2 5/6/2
f 5/6/3 6/5/3 8/7/3 7/8/3
f 7/8/4 8/7/4 10/9/4 9/10/4
f 9/10/5 10/9/5 12/11/5 11/12/5
f 11/12/6 12/11/6 14/13/6 13/14/6
f 13/14/7 14/13/7 16/15/7 15/16/7
f 15/16/8 16/15/8 18/17/8 17/18/8
f 17/18/9 18/17/9 20/19/9 19/20/9
f 19/20/10 20/19/10 22/21/10 21/22/10
f 21/22/12 22/21/12 24/23/12 23/24/12
f 23/24/13 24/23/13 2/25/13 1/26/13
f 1/27/14 3/28/14 5/29/14 7/30/14 9/31/14 11/32/14 13/33/14 15/34/14 17/35/14 19/36/14 21/37/14 23/38/14
usemtl Material.030
f 58/59/38 57/60/38 132/61/38
f 132/61/39 57/60/39 56/62/39
f 132/61/39 56/62/39 133/63/39
f 58/59/40 132/61/40 131/64/40
f 131/64/41 130/65/41 129/66/41
f 58/59/42 131/64/42 129/66/42
f 58/59/43 129/66/43 128/67/43
f 58/59/44 128/67/44 127/68/44
f 58/59/38 127/68/38 126/69/38
f 58/59/45 126/69/45 59/70/45
f 59/70/39 126/69/39 125/71/39
f 59/70/46 125/71/46 60/72/46
f 60/72/39 125/71/39 124/73/39
f 60/72/39 124/73/39 61/74/39
f 61/74/39 124/73/39 123/75/39
f 62/76/39 61/74/39 123/75/39
f 63/77/47 62/76/47 123/75/47
f 64/78/39 63/77/39 123/75/39
f 64/78/39 123/75/39 122/79/39
f 65/80/39 64/78/39 122/79/39
f 66/81/42 65/80/42 122/79/42
f 66/81/39 122/79/39 121/82/39
f 67/83/39 66/81/39 121/82/39
f 67/83/39 121/82/39 120/84/39
f 68/85/40 67/83/40 120/84/40
f 69/86/48 68/85/48 120/84/48
f 69/86/39 120/84/39 119/87/39
f 70/88/39 69/86/39 119/87/39
f 70/88/39 119/87/39 118/89/39
f 71/90/39 70/88/39 118/89/39
f 72/91/39 71/90/39 118/89/39
f 72/91/39 118/89/39 117/92/39
f 73/93/39 72/91/39 117/92/39
f 74/94/39 73/93/39 117/92/39
f 74/94/39 117/92/39 116/95/39
f 75/96/39 74/94/39 116/95/39
f 95/97/49 94/98/49 93/99/49
f 76/100/39 75/96/39 116/95/39
f 95/97/50 93/99/50 92/101/50
f 76/100/39 116/95/39 115/102/39
f 77/103/39 76/100/39 115/102/39
f 95/97/51 92/101/51 91/104/51
f 95/97/52 91/104/52 90/105/52
f 78/106/53 77/103/53 115/102/53
f 95/97/54 90/105/54 89/107/54
f 95/97/55 89/107/55 88/108/55
f 79/109/43 78/106/43 115/102/43
f 95/97/56 88/108/56 87/110/56
f 79/109/48 115/102/48 114/111/48
f 80/112/39 79/109/39 114/111/39
f 95/97/57 87/110/57 86/113/57
f 95/97/42 86/113/42 85/114/42
f 81/115/39 80/112/39 114/111/39
f 95/97/58 85/114/58 84/116/58
f 95/97/57 84/116/57 83/117/57
f 82/118/39 81/115/39 114/111/39
f 95/97/39 83/117/39 82/118/39
f 95/97/59 82/118/59 114/111/59
f 95/97/60 114/111/60 113/119/60
f 95/97/39 113/119/39 112/120/39
f 95/97/42 112/120/42 111/121/42
f 96/122/48 95/97/48 111/121/48
f 97/123/60 96/122/60 111/121/60
f 97/123/39 111/121/39 110/124/39
f 98/125/39 97/123/39 110/124/39
f 99/126/39 98/125/39 110/124/39
f 100/127/60 99/126/60 110/124/60
f 100/127/39 110/124/39 109/128/39
f 101/129/47 100/127/47 109/128/47
f 102/130/39 101/129/39 109/128/39
f 102/130/39 109/128/39 108/131/39
f 103/132/39 102/130/39 108/131/39
f 104/133/61 103/132/61 108/131/61
f 105/134/53 104/133/53 108/131/53
f 105/134/62 108/131/62 107/135/62
f 106/136/39 105/134/39 107/135/39
f 135/59/14 136/61/14 134/60/14
f 136/61/14 137/62/14 134/60/14
f 136/61/14 138/63/14 137/62/14
f 135/59/63 139/64/63 136/61/63
f 139/64/14 141/66/14 140/65/14
f 135/59/64 141/66/64 139/64/64
f 135/59/63 142/67/63 141/66/63
f 135/59/65 143/68/65 142/67/65
f 135/59/66 144/69/66 143/68/66
f 135/59/14 145/70/14 144/69/14
f 145/70/14 146/71/14 144/69/14
f 145/70/14 147/72/14 146/71/14
f 147/72/67 148/73/67 146/71/67
f 147/72/68 149/74/68 148/73/68
f 149/74/14 150/75/14 148/73/14
f 151/76/14 150/75/14 149/74/14
f 152/77/14 150/75/14 151/76/14
f 153/78/67 150/75/67 152/77/67
f 153/78/14 154/79/14 150/75/14
f 155/80/14 154/79/14 153/78/14
f 156/81/69 154/79/69 155/80/69
f 156/81/14 157/82/14 154/79/14
f 158/83/70 157/82/70 156/81/70
f 158/83/70 159/84/70 157/82/70
f 160/85/14 159/84/14 158/83/14
f 161/86/70 159/84/70 160/85/70
f 161/86/66 162/87/66 159/84/66
f 163/88/14 162/87/14 161/86/14
f 163/88/14 164/89/14 162/87/14
f 165/90/14 164/89/14 163/88/14
f 166/91/14 164/89/14 165/90/14
f 166/91/14 167/92/14 164/89/14
f 168/93/14 167/92/14 166/91/14
f 169/94/66 167/92/66 168/93/66
f 169/94/14 170/95/14 167/92/14
f 171/96/71 170/95/71 169/94/71
f 173/97/64 174/99/64 172/98/64
f 175/100/72 170/95/72 171/96/72
f 173/97/73 176/101/73 174/99/73
f 175/100/14 177/102/14 170/95/14
f 178/103/74 177/102/74 175/100/74
f 173/97/74 179/104/74 176/101/74
f 173/97/71 180/105/71 179/104/71
f 181/106/72 177/102/72 178/103/72
f 173/97/75 182/107/75 180/105/75
f 173/97/14 183/108/14 182/107/14
f 184/109/14 177/102/14 181/106/14
f 173/97/69 185/110/69 183/108/69
f 184/109/14 186/111/14 177/102/14
f 187/112/14 186/111/14 184/109/14
f 173/97/71 188/113/71 185/110/71
f 173/97/76 189/114/76 188/113/76
f 190/115/14 186/111/14 187/112/14
f 173/97/77 191/116/77 189/114/77
f 173/97/65 192/117/65 191/116/65
f 193/118/14 186/111/14 190/115/14
f 173/97/78 193/118/78 192/117/78
f 173/97/14 186/111/14 193/118/14
f 173/97/14 194/119/14 186/111/14
f 173/97/14 195/120/14 194/119/14
f 173/97/79 196/121/79 195/120/79
f 197/122/14 196/121/14 173/97/14
f 198/123/14 196/121/14 197/122/14
f 198/123/14 199/124/14 196/121/14
f 200/125/14 199/124/14 198/123/14
f 201/126/14 199/124/14 200/125/14
f 202/127/69 199/124/69 201/126/69
f 202/127/14 203/128/14 199/124/14
f 204/129/80 203/128/80 202/127/80
f 205/130/14 203/128/14 204/129/14
f 205/130/14 206/131/14 203/128/14
f 207/132/14 206/131/14 205/130/14
f 208/133/81 206/131/81 207/132/81
f 209/134/66 206/131/66 208/133/66
f 209/134/82 210/135/82 206/131/82
f 211/136/14 210/135/14 209/134/14
f 111/121/83 112/120/83 195/120/83 196/121/83
f 116/95/84 117/92/84 167/92/84 170/95/84
f 121/82/85 122/79/85 154/79/85 157/82/85
f 126/69/86 127/68/86 143/68/86 144/69/86
f 95/97/87 96/122/87 197/122/87 173/97/87
f 87/110/88 88/108/88 183/108/88 185/110/88
f 74/94/89 75/96/89 171/96/89 169/94/89
f 66/81/90 67/83/90 158/83/90 156/81/90
f 107/135/91 108/131/91 206/131/91 210/135/91
f 58/59/92 59/70/92 145/70/92 135/59/92
f 105/134/93 106/136/93 211/136/93 209/134/93
f 96/122/94 97/123/94 198/123/94 197/122/94
f 114/111/95 115/102/95 177/102/95 186/111/95
f 94/98/11 95/97/11 173/97/11 172/98/11
f 106/136/96 107/135/96 210/135/96 211/136/96
f 79/109/97 80/112/97 187/112/97 184/109/97
f 120/84/98 121/82/98 157/82/98 159/84/98
f 125/71/99 126/69/99 144/69/99 146/71/99
f 93/99/100 94/98/100 172/98/100 174/99/100
f 67/83/101 68/85/101 160/85/101 158/83/101
f 59/70/102 60/72/102 147/72/102 145/70/102
f 110/124/103 111/121/103 196/121/103 199/124/103
f 75/96/104 76/100/104 175/100/104 171/96/104
f 97/123/105 98/125/105 200/125/105 198/123/105
f 86/113/106 87/110/106 185/110/106 188/113/106
f 68/85/107 69/86/107 161/86/107 160/85/107
f 124/73/108 125/71/108 146/71/108 148/73/108
f 98/125/109 99/126/109 201/126/109 200/125/109
f 57/60/11 58/59/11 135/59/11 134/60/11
f 85/114/110 86/113/110 188/113/110 189/114/110
f 92/101/111 93/99/111 174/99/111 176/101/111
f 60/72/112 61/74/112 149/74/112 147/72/112
f 80/112/113 81/115/113 190/115/113 187/112/113
f 119/87/114 120/84/114 159/84/114 162/87/114
f 99/126/115 100/127/115 202/127/115 201/126/115
f 115/102/116 116/95/116 170/95/116 177/102/116
f 69/86/117 70/88/117 163/88/117 161/86/117
f 76/100/118 77/103/118 178/103/118 175/100/118
f 123/75/119 124/73/119 148/73/119 150/75/119
f 56/62/120 57/60/120 134/60/120 137/62/120
f 84/116/121 85/114/121 189/114/121 191/116/121
f 61/74/122 62/76/122 151/76/122 149/74/122
f 109/128/123 110/124/123 199/124/123 203/128/123
f 132/61/124 133/63/124 138/63/124 136/61/124
f 118/89/125 119/87/125 162/87/125 164/89/125
f 100/127/126 101/129/126 204/129/126 202/127/126
f 133/63/127 56/62/127 137/62/127 138/63/127
f 83/117/128 84/116/128 191/116/128 192/117/128
f 91/104/129 92/101/129 176/101/129 179/104/129
f 70/88/130 71/90/130 165/90/130 163/88/130
f 62/76/131 63/77/131 152/77/131 151/76/131
f 81/115/132 82/118/132 193/118/132 190/115/132
f 101/129/133 102/130/133 205/130/133 204/129/133
f 131/64/127 132/61/127 136/61/127 139/64/127
f 90/105/134 91/104/134 179/104/134 180/105/134
f 71/90/135 72/91/135 166/91/135 165/90/135
f 63/77/136 64/78/136 153/78/136 152/77/136
f 130/65/137 131/64/137 139/64/137 140/65/137
f 77/103/138 78/106/138 181/106/138 178/103/138
f 82/118/139 83/117/139 192/117/139 193/118/139
f 108/131/140 109/128/140 203/128/140 206/131/140
f 129/66/141 130/65/141 140/65/141 141/66/141
f 117/92/142 118/89/142 164/89/142 167/92/142
f 122/79/143 123/75/143 150/75/143 154/79/143
f 102/130/144 103/132/144 207/132/144 205/130/144
f 89/107/145 90/105/145 180/105/145 182/107/145
f 72/91/146 73/93/146 168/93/146 166/91/146
f 64/78/147 65/80/147 155/80/147 153/78/147
f 113/119/148 114/111/148 186/111/148 194/119/148
f 103/132/149 104/133/149 208/133/149 207/132/149
f 128/67/150 129/66/150 141/66/150 142/67/150
f 88/108/151 89/107/151 182/107/151 183/108/151
f 73/93/152 74/94/152 169/94/152 168/93/152
f 65/80/153 66/81/153 156/81/153 155/80/153
f 112/120/154 113/119/154 194/119/154 195/120/154
f 78/106/155 79/109/155 184/109/155 181/106/155
f 104/133/156 105/134/156 209/134/156 208/133/156
f 127/68/157 128/67/157 142/67/157 143/68/157
