# Blender 5.0.1
# www.blender.org
mtllib Book.mtl
o innercover
v 0.017910 0.199851 0.068940
v 0.017910 0.000149 0.068940
v -0.017273 0.199851 0.068940
v -0.017273 0.000149 0.068940
v 0.017592 0.004458 -0.065526
v -0.017592 0.004458 -0.065526
v -0.017592 0.195542 -0.065526
v 0.017592 0.195542 -0.065526
v -0.017302 0.006243 0.068710
v 0.017882 0.193757 0.068710
v -0.017302 0.193757 0.068710
v 0.017882 0.006243 0.068710
v 0.017179 0.199851 0.072635
v 0.013088 0.199851 0.073569
v 0.008982 0.199851 0.074375
v 0.004845 0.199851 0.074941
v 0.000665 0.199851 0.075154
v -0.003569 0.199851 0.074941
v -0.007847 0.199851 0.074375
v -0.012155 0.199851 0.073569
v -0.016479 0.199851 0.072635
v -0.016479 0.000149 0.072635
v -0.012155 0.000149 0.073569
v -0.007847 0.000149 0.074375
v -0.003569 0.000149 0.074941
v 0.000665 0.000149 0.075154
v 0.004845 0.000149 0.074941
v 0.008982 0.000149 0.074375
v 0.013088 0.000149 0.073569
v 0.017179 0.000149 0.072635
v 0.014490 0.199851 0.069719
v 0.011061 0.199851 0.070436
v 0.007616 0.199851 0.071025
v 0.004147 0.199851 0.071422
v 0.000647 0.199851 0.071565
v -0.002890 0.199851 0.071422
v -0.006457 0.199851 0.071025
v -0.010049 0.199851 0.070436
v -0.013657 0.199851 0.069719
v -0.013657 0.000149 0.069719
v -0.010049 0.000149 0.070436
v -0.006457 0.000149 0.071025
v -0.002890 0.000149 0.071422
v 0.000647 0.000149 0.071565
v 0.004147 0.000149 0.071422
v 0.007616 0.000149 0.071025
v 0.011061 0.000149 0.070436
v 0.014490 0.000149 0.069719
v 0.014455 0.193757 0.069443
v 0.011021 0.193757 0.070115
v 0.007571 0.193757 0.070663
v 0.004098 0.193757 0.071025
v 0.000595 0.193757 0.071153
v -0.002939 0.193757 0.071025
v -0.006503 0.193757 0.070663
v -0.010090 0.193757 0.070115
v -0.013692 0.193757 0.069443
v -0.013692 0.006243 0.069443
v -0.010090 0.006243 0.070115
v -0.006503 0.006243 0.070663
v -0.002939 0.006243 0.071025
v 0.000595 0.006243 0.071153
v 0.004098 0.006243 0.071025
v 0.007571 0.006243 0.070663
v 0.011021 0.006243 0.070115
v 0.014455 0.006243 0.069443
v -0.019526 0.000149 0.071965
v -0.020807 0.000149 0.070374
v -0.019771 0.000149 0.070880
v -0.020016 0.000149 0.071758
v -0.020431 0.000149 0.071383
v -0.020709 0.000149 0.070897
v 0.019992 0.199851 0.071981
v 0.021265 0.199851 0.070374
v 0.020253 0.199851 0.070855
v 0.020480 0.199851 0.071768
v 0.020893 0.199851 0.071387
v 0.021169 0.199851 0.070898
v -0.020807 0.199851 0.070374
v -0.019526 0.199851 0.071965
v -0.019771 0.199851 0.070880
v -0.020709 0.199851 0.070897
v -0.020431 0.199851 0.071383
v -0.020016 0.199851 0.071758
v 0.021265 0.000149 0.070374
v 0.019992 0.000149 0.071981
v 0.020253 0.000149 0.070855
v 0.021169 0.000149 0.070898
v 0.020893 0.000149 0.071387
v 0.020480 0.000149 0.071768
v 0.017598 0.199851 -0.067209
v 0.017592 0.197225 -0.069835
v 0.017592 0.197994 -0.067978
v 0.017596 0.199651 -0.068214
v 0.017594 0.199082 -0.069066
v 0.017592 0.198230 -0.069635
v 0.021041 0.000149 -0.067209
v 0.021036 0.002775 -0.069835
v 0.021039 0.000349 -0.068214
v 0.021038 0.000918 -0.069066
v 0.021037 0.001770 -0.069635
v -0.017592 0.197225 -0.069835
v -0.017586 0.199851 -0.067209
v -0.017592 0.197994 -0.067978
v -0.017591 0.198230 -0.069635
v -0.017590 0.199082 -0.069066
v -0.017588 0.199651 -0.068214
v -0.017586 0.000149 -0.067209
v -0.017592 0.002775 -0.069835
v -0.017592 0.002006 -0.067978
v -0.017588 0.000349 -0.068214
v -0.017590 0.000918 -0.069066
v -0.017591 0.001770 -0.069635
v -0.021036 0.002775 -0.069835
v -0.021032 0.000149 -0.067209
v -0.021036 0.001770 -0.069635
v -0.021035 0.000918 -0.069066
v -0.021034 0.000349 -0.068214
v 0.021036 0.197225 -0.069835
v 0.021041 0.199851 -0.067209
v 0.021037 0.198230 -0.069635
v 0.021038 0.199082 -0.069066
v 0.021039 0.199651 -0.068214
v 0.017592 0.002775 -0.069835
v 0.017598 0.000149 -0.067209
v 0.017592 0.002006 -0.067978
v 0.017592 0.001770 -0.069635
v 0.017594 0.000918 -0.069066
v 0.017596 0.000349 -0.068214
v -0.021032 0.199851 -0.067209
v -0.021036 0.197225 -0.069835
v -0.021034 0.199651 -0.068214
v -0.021035 0.199082 -0.069066
v -0.021036 0.198230 -0.069635
vn 0.1968 -0.0432 -0.9795
vn 0.2048 -0.0395 -0.9780
vn 0.1970 -0.0432 -0.9795
vn -0.2069 0.0454 -0.9773
vn -0.2156 0.0416 -0.9756
vn 0.2048 0.0395 -0.9780
vn 0.1968 0.0432 -0.9795
vn 0.1970 0.0432 -0.9795
vn 0.1724 0.0506 -0.9837
vn 0.1728 0.0505 -0.9837
vn 0.1307 0.0576 -0.9897
vn 0.1312 0.0576 -0.9897
vn 0.0716 0.0634 -0.9954
vn 0.0722 0.0634 -0.9954
vn -0.0004 0.0661 -0.9978
vn -0.0000 0.0661 -0.9978
vn -0.0736 0.0645 -0.9952
vn -0.0734 0.0645 -0.9952
vn -0.1355 0.0595 -0.9890
vn -0.1803 0.0528 -0.9822
vn -0.1804 0.0528 -0.9822
vn -0.2156 -0.0416 -0.9756
vn -0.2068 -0.0454 -0.9773
vn -0.2069 -0.0454 -0.9773
vn -0.1803 -0.0528 -0.9822
vn -0.1804 -0.0528 -0.9822
vn -0.1355 -0.0595 -0.9890
vn -0.0736 -0.0645 -0.9952
vn -0.0734 -0.0646 -0.9952
vn -0.0004 -0.0661 -0.9978
vn -0.0000 -0.0661 -0.9978
vn 0.0716 -0.0634 -0.9954
vn 0.0722 -0.0634 -0.9954
vn 0.1307 -0.0576 -0.9897
vn 0.1312 -0.0576 -0.9897
vn 0.1724 -0.0506 -0.9837
vn 0.1728 -0.0505 -0.9837
vn -0.0000 -1.0000 -0.0000
vn -0.0000 1.0000 -0.0000
vn -1.0000 0.0033 0.0021
vn -1.0000 0.0024 0.0014
vn -1.0000 0.0018 0.0009
vn -1.0000 0.0020 0.0003
vn -1.0000 0.0009 -0.0001
vn -1.0000 0.0002 -0.0001
vn 1.0000 -0.0002 0.0001
vn 1.0000 -0.0009 0.0001
vn 1.0000 -0.0018 -0.0009
vn 1.0000 -0.0020 -0.0003
vn 1.0000 -0.0024 -0.0014
vn 1.0000 -0.0033 -0.0021
vn 1.0000 0.0033 -0.0021
vn 1.0000 0.0024 -0.0014
vn 1.0000 0.0018 -0.0009
vn 1.0000 0.0020 -0.0003
vn 1.0000 0.0009 0.0001
vn 1.0000 0.0002 0.0001
vn -1.0000 -0.0002 -0.0001
vn -1.0000 -0.0009 -0.0001
vn -1.0000 -0.0018 0.0009
vn -1.0000 -0.0020 0.0003
vn -1.0000 -0.0024 0.0014
vn -1.0000 -0.0033 0.0021
vn -0.0000 -0.0980 -0.9952
vn -0.0000 -0.3828 -0.9238
vn -0.0000 -0.3826 -0.9239
vn -0.0000 -0.7072 -0.7070
vn -0.0000 -0.7070 -0.7072
vn -0.0000 -0.9240 -0.3824
vn -0.0000 -0.9238 -0.3829
vn -0.0000 -0.9952 -0.0979
vn -0.0000 -0.9952 -0.0981
vn -0.0000 -0.9952 -0.0982
vn -0.0000 -0.9240 -0.3825
vn -0.0000 -0.7070 -0.7073
vn -0.0000 0.9952 -0.0982
vn -0.0000 0.9952 -0.0979
vn -0.0000 0.9239 -0.3825
vn -0.0000 0.9238 -0.3829
vn -0.0000 0.7072 -0.7070
vn -0.0000 0.7070 -0.7073
vn -0.0000 0.3828 -0.9238
vn -0.0000 0.3826 -0.9239
vn -0.0000 0.0980 -0.9952
vn -0.0000 0.9952 -0.0981
vn -0.0000 0.9240 -0.3824
vn -0.0000 0.7070 -0.7072
vn -1.0000 -0.0018 0.0011
vn -1.0000 0.0018 0.0011
vn -1.0000 0.0036 0.0023
vn 1.0000 -0.0036 -0.0023
vn 1.0000 -0.0018 -0.0011
vn 1.0000 0.0018 -0.0011
vn 1.0000 0.0036 -0.0023
vn -1.0000 -0.0036 0.0023
vt 0.341771 0.186352
vt 0.346823 0.190601
vt 0.340304 0.193465
vt 0.337191 0.192240
vt 0.292609 0.849516
vt 0.287835 0.845370
vt 0.294452 0.842608
vt 0.297367 0.843796
vt 0.345660 0.846361
vt 0.340331 0.850380
vt 0.335973 0.844138
vt 0.339190 0.843142
vt 0.334851 0.853342
vt 0.331567 0.845288
vt 0.328873 0.855501
vt 0.326654 0.846294
vt 0.322489 0.856806
vt 0.321467 0.846962
vt 0.315924 0.857179
vt 0.316188 0.847173
vt 0.309443 0.856561
vt 0.310989 0.846851
vt 0.303287 0.855025
vt 0.306018 0.846075
vt 0.297652 0.852658
vt 0.301414 0.844989
vt 0.288906 0.189726
vt 0.293990 0.185739
vt 0.298557 0.191870
vt 0.295518 0.192847
vt 0.299223 0.182792
vt 0.302732 0.190731
vt 0.304964 0.180619
vt 0.307425 0.189728
vt 0.311170 0.179264
vt 0.312450 0.189048
vt 0.317665 0.178815
vt 0.317667 0.188828
vt 0.324214 0.179355
vt 0.322929 0.189143
vt 0.330554 0.180833
vt 0.328069 0.189915
vt 0.336446 0.183181
vt 0.332903 0.191017
vt 0.341787 0.179148
vt 0.348050 0.183992
vt 0.334367 0.175241
vt 0.326169 0.172755
vt 0.317681 0.171855
vt 0.309291 0.172632
vt 0.301327 0.174918
vt 0.294145 0.178486
vt 0.287950 0.182802
vt 0.292380 0.856708
vt 0.286463 0.852003
vt 0.299442 0.860599
vt 0.307367 0.863145
vt 0.315755 0.864143
vt 0.324263 0.863452
vt 0.332500 0.861199
vt 0.340008 0.857579
vt 0.346449 0.853109
vt 0.351829 0.187035
vt 0.352236 0.187680
vt 0.351514 0.188612
vt 0.352393 0.188326
vt 0.352367 0.188828
vt 0.352257 0.189168
vt 0.283003 0.849047
vt 0.282602 0.848374
vt 0.283356 0.847387
vt 0.282462 0.847695
vt 0.282509 0.847170
vt 0.282644 0.846827
vt 0.351224 0.848106
vt 0.351451 0.848732
vt 0.350309 0.848825
vt 0.351305 0.849580
vt 0.350867 0.850073
vt 0.350389 0.850514
vt 0.283580 0.188038
vt 0.283324 0.187581
vt 0.284347 0.187257
vt 0.283244 0.186870
vt 0.283476 0.185987
vt 0.284073 0.185170
vt 0.287308 0.655470
vt 0.287198 0.655257
vt 0.288376 0.654993
vt 0.287185 0.654997
vt 0.287194 0.654737
vt 0.287302 0.654523
vt 0.348329 0.654599
vt 0.348443 0.654820
vt 0.347253 0.655083
vt 0.348456 0.655088
vt 0.348444 0.655358
vt 0.348332 0.655581
vt 0.348129 0.380658
vt 0.348241 0.380875
vt 0.347060 0.381143
vt 0.348255 0.381138
vt 0.348246 0.381401
vt 0.348136 0.381617
vt 0.287099 0.381553
vt 0.286986 0.381335
vt 0.288172 0.381073
vt 0.286973 0.381070
vt 0.286983 0.380804
vt 0.287093 0.380584
vt 0.352191 0.382036
vt 0.351665 0.381469
vt 0.351473 0.381127
vt 0.351647 0.380788
vt 0.352157 0.380230
vt 0.283047 0.380136
vt 0.283560 0.380709
vt 0.283741 0.381059
vt 0.283557 0.381409
vt 0.283039 0.381979
vt 0.283287 0.655901
vt 0.283799 0.655345
vt 0.283974 0.655010
vt 0.283780 0.654671
vt 0.283251 0.654105
vt 0.352382 0.656027
vt 0.351873 0.655452
vt 0.351694 0.655099
vt 0.351877 0.654746
vt 0.352393 0.654173
vt 0.292654 0.381090
vt 0.292838 0.654980
vt 0.342766 0.655056
vt 0.342593 0.381165
s 1
usemtl cover
f 40/1/1 4/2/2 9/3/2 58/4/3
f 31/5/4 1/6/5 10/7/5 49/8/4
f 3/9/6 39/10/7 57/11/8 11/12/6
f 39/10/7 38/13/9 56/14/10 57/11/8
f 38/13/9 37/15/11 55/16/12 56/14/10
f 37/15/11 36/17/13 54/18/14 55/16/12
f 36/17/13 35/19/15 53/20/16 54/18/14
f 35/19/15 34/21/17 52/22/18 53/20/16
f 34/21/17 33/23/19 51/24/19 52/22/18
f 33/23/19 32/25/20 50/26/21 51/24/19
f 32/25/20 31/5/4 49/8/4 50/26/21
f 2/27/22 48/28/23 66/29/24 12/30/22
f 48/28/23 47/31/25 65/32/26 66/29/24
f 47/31/25 46/33/27 64/34/27 65/32/26
f 46/33/27 45/35/28 63/36/29 64/34/27
f 45/35/28 44/37/30 62/38/31 63/36/29
f 44/37/30 43/39/32 61/40/33 62/38/31
f 43/39/32 42/41/34 60/42/35 61/40/33
f 42/41/34 41/43/36 59/44/37 60/42/35
f 41/43/36 40/1/1 58/4/3 59/44/37
f 40/1/38 41/43/38 23/45/38 22/46/38
f 41/43/38 42/41/38 24/47/38 23/45/38
f 42/41/38 43/39/38 25/48/38 24/47/38
f 43/39/38 44/37/38 26/49/38 25/48/38
f 44/37/38 45/35/38 27/50/38 26/49/38
f 45/35/38 46/33/38 28/51/38 27/50/38
f 46/33/38 47/31/38 29/52/38 28/51/38
f 47/31/38 48/28/38 30/53/38 29/52/38
f 31/5/39 32/25/39 14/54/39 13/55/39
f 32/25/39 33/23/39 15/56/39 14/54/39
f 33/23/39 34/21/39 16/57/39 15/56/39
f 34/21/39 35/19/39 17/58/39 16/57/39
f 35/19/39 36/17/39 18/59/39 17/58/39
f 36/17/39 37/15/39 19/60/39 18/59/39
f 37/15/39 38/13/39 20/61/39 19/60/39
f 38/13/39 39/10/39 21/62/39 20/61/39
f 67/63/38 70/64/38 69/65/38
f 70/64/38 71/66/38 69/65/38
f 71/66/38 72/67/38 69/65/38
f 72/67/38 68/68/38 69/65/38
f 73/69/39 76/70/39 75/71/39
f 76/70/39 77/72/39 75/71/39
f 77/72/39 78/73/39 75/71/39
f 78/73/39 74/74/39 75/71/39
f 79/75/39 82/76/39 81/77/39
f 82/76/39 83/78/39 81/77/39
f 83/78/39 84/79/39 81/77/39
f 84/79/39 80/80/39 81/77/39
f 85/81/38 88/82/38 87/83/38
f 88/82/38 89/84/38 87/83/38
f 89/84/38 90/85/38 87/83/38
f 90/85/38 86/86/38 87/83/38
f 4/2/38 40/1/38 22/46/38 67/63/38 69/65/38
f 1/6/39 31/5/39 13/55/39 73/69/39 75/71/39
f 39/10/39 3/9/39 81/77/39 80/80/39 21/62/39
f 48/28/38 2/27/38 87/83/38 86/86/38 30/53/38
f 91/87/40 94/88/41 93/89/42
f 94/88/41 95/90/43 93/89/42
f 95/90/43 96/91/44 93/89/42
f 96/91/44 92/92/45 93/89/42
f 102/93/46 105/94/47 104/95/48
f 105/94/47 106/96/49 104/95/48
f 106/96/49 107/97/50 104/95/48
f 107/97/50 103/98/51 104/95/48
f 108/99/52 111/100/53 110/101/54
f 111/100/53 112/102/55 110/101/54
f 112/102/55 113/103/56 110/101/54
f 113/103/56 109/104/57 110/101/54
f 124/105/58 127/106/59 126/107/60
f 127/106/59 128/108/61 126/107/60
f 128/108/61 129/109/62 126/107/60
f 129/109/62 125/110/63 126/107/60
f 114/111/64 109/104/64 113/103/65 116/112/66
f 116/112/66 113/103/65 112/102/67 117/113/68
f 117/113/68 112/102/67 111/100/69 118/114/70
f 118/114/70 111/100/69 108/99/71 115/115/72
f 97/116/71 125/110/73 129/109/70 99/117/74
f 99/117/74 129/109/70 128/108/75 100/118/67
f 100/118/67 128/108/75 127/106/66 101/119/65
f 101/119/65 127/106/66 124/105/64 98/120/64
f 91/87/76 120/121/77 123/122/78 94/88/79
f 94/88/79 123/122/78 122/123/80 95/90/81
f 95/90/81 122/123/80 121/124/82 96/91/83
f 96/91/83 121/124/82 119/125/84 92/92/84
f 130/126/85 103/98/77 107/97/86 132/127/79
f 132/127/79 107/97/86 106/96/80 133/128/87
f 133/128/87 106/96/80 105/94/82 134/129/83
f 134/129/83 105/94/82 102/93/84 131/130/84
f 93/89/42 92/92/45 124/105/58 126/107/60 5/131/88 8/132/89
f 91/87/76 1/6/39 75/71/39 74/74/39 120/121/77
f 124/105/64 92/92/84 119/125/84 98/120/64
f 1/6/90 91/87/40 93/89/42 8/132/89 10/7/90
f 2/27/38 125/110/73 97/116/71 85/81/38 87/83/38
f 104/95/48 103/98/51 3/9/91 11/12/91 7/133/92
f 3/9/39 103/98/77 130/126/85 79/75/39 81/77/39
f 110/101/54 109/104/57 102/93/46 104/95/48 7/133/92 6/134/93
f 102/93/84 109/104/64 114/111/64 131/130/84
f 108/99/71 4/2/38 69/65/38 68/68/38 115/115/72
f 4/2/94 108/99/52 110/101/54 6/134/93 9/3/94
f 126/107/60 125/110/63 2/27/95 12/30/95 5/131/88
o outhercover
v 0.017179 0.199851 0.072635
v 0.013088 0.199851 0.073569
v 0.008982 0.199851 0.074375
v 0.004845 0.199851 0.074941
v 0.000665 0.199851 0.075154
v -0.003569 0.199851 0.074941
v -0.007847 0.199851 0.074375
v -0.012155 0.199851 0.073569
v -0.016479 0.199851 0.072635
v -0.016479 0.000149 0.072635
v -0.012155 0.000149 0.073569
v -0.007847 0.000149 0.074375
v -0.003569 0.000149 0.074941
v 0.000665 0.000149 0.075154
v 0.004845 0.000149 0.074941
v 0.008982 0.000149 0.074375
v 0.013088 0.000149 0.073569
v 0.017179 0.000149 0.072635
v -0.019526 0.000149 0.071965
v -0.020807 0.000149 0.070374
v -0.020016 0.000149 0.071758
v -0.020431 0.000149 0.071383
v -0.020709 0.000149 0.070897
v 0.019992 0.199851 0.071981
v 0.021265 0.199851 0.070374
v 0.020480 0.199851 0.071768
v 0.020893 0.199851 0.071387
v 0.021169 0.199851 0.070898
v -0.020807 0.199851 0.070374
v -0.019526 0.199851 0.071965
v -0.020709 0.199851 0.070897
v -0.020431 0.199851 0.071383
v -0.020016 0.199851 0.071758
v 0.021265 0.000149 0.070374
v 0.019992 0.000149 0.071981
v 0.021169 0.000149 0.070898
v 0.020893 0.000149 0.071387
v 0.020480 0.000149 0.071768
v 0.021041 0.000149 -0.067209
v 0.021036 0.002775 -0.069835
v 0.021039 0.000349 -0.068214
v 0.021038 0.000918 -0.069066
v 0.021037 0.001770 -0.069635
v -0.021036 0.002775 -0.069835
v -0.021032 0.000149 -0.067209
v -0.021036 0.001770 -0.069635
v -0.021035 0.000918 -0.069066
v -0.021034 0.000349 -0.068214
v 0.021036 0.197225 -0.069835
v 0.021041 0.199851 -0.067209
v 0.021037 0.198230 -0.069635
v 0.021038 0.199082 -0.069066
v 0.021039 0.199651 -0.068214
v -0.021032 0.199851 -0.067209
v -0.021036 0.197225 -0.069835
v -0.021034 0.199651 -0.068214
v -0.021035 0.199082 -0.069066
v -0.021036 0.198230 -0.069635
vn 0.2246 -0.0000 0.9745
vn 0.2077 -0.0000 0.9782
vn 0.1641 -0.0000 0.9864
vn 0.0933 -0.0000 0.9956
vn 0.0003 -0.0000 1.0000
vn -0.0908 -0.0000 0.9959
vn -0.1576 -0.0000 0.9875
vn -0.1976 -0.0000 0.9803
vn -0.2129 -0.0000 0.9771
vn -0.3035 -0.0000 0.9528
vn -0.9956 -0.0000 0.0935
vn -0.5374 -0.0000 0.8433
vn -0.7788 -0.0000 0.6273
vn -0.9384 -0.0000 0.3455
vn 0.3147 -0.0000 0.9492
vn 0.9959 -0.0000 0.0900
vn 0.5461 -0.0000 0.8377
vn 0.7836 -0.0000 0.6213
vn 0.9402 -0.0000 0.3407
vn 1.0000 -0.0000 -0.0016
vn -1.0000 -0.0000 0.0016
vt 0.551188 0.046794
vt 0.550691 0.966873
vt 0.538542 0.966866
vt 0.539038 0.046786
vt 0.526424 0.966858
vt 0.526921 0.046779
vt 0.514335 0.966851
vt 0.514832 0.046772
vt 0.502214 0.966844
vt 0.502711 0.046764
vt 0.489939 0.966836
vt 0.490436 0.046757
vt 0.477444 0.966829
vt 0.477941 0.046749
vt 0.464753 0.966821
vt 0.465250 0.046741
vt 0.451944 0.966813
vt 0.452441 0.046734
vt 0.443408 0.046728
vt 0.442911 0.966807
vt 0.441371 0.966807
vt 0.441868 0.046727
vt 0.439750 0.966806
vt 0.440247 0.046726
vt 0.438130 0.966805
vt 0.438626 0.046725
vt 0.436590 0.966804
vt 0.437087 0.046724
vt 0.559053 0.966878
vt 0.559549 0.046799
vt 0.561091 0.046800
vt 0.560595 0.966879
vt 0.562718 0.046801
vt 0.562221 0.966880
vt 0.564344 0.046802
vt 0.563847 0.966881
vt 0.565886 0.046803
vt 0.565389 0.966882
vt 0.964269 0.047046
vt 0.967178 0.047968
vt 0.969644 0.050593
vt 0.971290 0.054519
vt 0.971867 0.059150
vt 0.971383 0.955030
vt 0.970801 0.959660
vt 0.969151 0.963584
vt 0.966683 0.966206
vt 0.963772 0.967125
vt 0.038207 0.966561
vt 0.035298 0.965638
vt 0.032832 0.963014
vt 0.031186 0.959087
vt 0.030609 0.954456
vt 0.031093 0.058576
vt 0.031674 0.053946
vt 0.033325 0.050022
vt 0.035793 0.047400
vt 0.038704 0.046481
s 1
usemtl cover
f 152/135/96 135/136/96 136/137/97 151/138/97
f 151/138/97 136/137/97 137/139/98 150/140/98
f 150/140/98 137/139/98 138/141/99 149/142/99
f 149/142/99 138/141/99 139/143/100 148/144/100
f 148/144/100 139/143/100 140/145/101 147/146/101
f 147/146/101 140/145/101 141/147/102 146/148/102
f 146/148/102 141/147/102 142/149/103 145/150/103
f 145/150/103 142/149/103 143/151/104 144/152/104
f 153/153/105 164/154/105 167/155/107 155/156/107
f 155/156/107 167/155/107 166/157/108 156/158/108
f 156/158/108 166/157/108 165/159/109 157/160/109
f 157/160/109 165/159/109 163/161/106 154/162/106
f 158/163/110 169/164/110 172/165/112 160/166/112
f 160/166/112 172/165/112 171/167/113 161/168/113
f 161/168/113 171/167/113 170/169/114 162/170/114
f 162/170/114 170/169/114 168/171/111 159/172/111
f 144/152/104 143/151/104 164/154/105 153/153/105
f 169/164/110 158/163/110 135/136/96 152/135/96
f 173/173/115 175/174/115 176/175/115 177/176/115 174/177/115 183/178/115 185/179/115 186/180/115 187/181/115 184/182/115 159/172/111 168/171/111
f 154/162/106 163/161/106 188/183/116 190/184/116 191/185/116 192/186/116 189/187/116 178/188/116 180/189/116 181/190/116 182/191/116 179/192/116
o pages
v 0.017592 0.004458 -0.065526
v -0.017592 0.004458 -0.065526
v -0.017592 0.195542 -0.065526
v 0.017592 0.195542 -0.065526
v -0.017302 0.006243 0.068710
v 0.017882 0.193757 0.068710
v -0.017302 0.193757 0.068710
v 0.017882 0.006243 0.068710
v 0.014455 0.193757 0.069443
v 0.011021 0.193757 0.070115
v 0.007571 0.193757 0.070663
v 0.004098 0.193757 0.071025
v 0.000595 0.193757 0.071153
v -0.002939 0.193757 0.071025
v -0.006503 0.193757 0.070663
v -0.010090 0.193757 0.070115
v -0.013692 0.193757 0.069443
v -0.013692 0.006243 0.069443
v -0.010090 0.006243 0.070115
v -0.006503 0.006243 0.070663
v -0.002939 0.006243 0.071025
v 0.000595 0.006243 0.071153
v 0.004098 0.006243 0.071025
v 0.007571 0.006243 0.070663
v 0.011021 0.006243 0.070115
v 0.014455 0.006243 0.069443
vn -0.0000 0.9999 0.0131
vn -0.0000 -0.9999 0.0131
vn -0.0000 -0.0000 -1.0000
vt 0.695776 0.304789
vt 0.941127 0.307882
vt 0.942910 0.342290
vt 0.944581 0.376626
vt 0.946021 0.410813
vt 0.947121 0.444779
vt 0.947788 0.478465
vt 0.947984 0.511845
vt 0.947748 0.544946
vt 0.947171 0.577825
vt 0.946364 0.610556
vt 0.945444 0.643214
vt 0.700093 0.640121
vt 0.350920 0.639651
vt 0.105640 0.642084
vt 0.103880 0.609423
vt 0.102230 0.576689
vt 0.100806 0.543807
vt 0.099717 0.510705
vt 0.099054 0.477323
vt 0.098854 0.443638
vt 0.099079 0.409674
vt 0.099640 0.375490
vt 0.100426 0.341157
vt 0.101323 0.306752
vt 0.346603 0.304320
s 1
usemtl pages
f 195/193/117 199/194/117 209/195/117 208/196/117 207/197/117 206/198/117 205/199/117 204/200/117 203/201/117 202/202/117 201/203/117 198/204/117 196/205/117
f 193/206/118 200/207/118 218/208/118 217/209/118 216/210/118 215/211/118 214/212/118 213/213/118 212/214/118 211/215/118 210/216/118 197/217/118 194/218/118
f 195/193/119 196/205/119 193/206/119 194/218/119
