# Blender 5.0.0
# www.blender.org
mtllib ButtonClear.mtl
o buttonClear
v 1.944027 1.109082 0.790949
v 1.944027 1.032158 0.790949
v 1.944027 1.109082 0.867873
v 1.960575 1.097579 0.802452
v 1.960575 1.043661 0.802452
v 1.960575 1.097579 0.856370
v 1.960575 1.043661 0.856370
v 1.944027 1.032158 0.867873
v 1.961323 1.086751 0.812923
v 1.961323 1.087261 0.814174
v 1.961323 1.087722 0.815379
v 1.961323 1.088134 0.816542
v 1.961323 1.088499 0.817666
v 1.961323 1.088817 0.818756
v 1.961323 1.089090 0.819816
v 1.961323 1.089318 0.820849
v 1.961323 1.089503 0.821860
v 1.961323 1.089644 0.822853
v 1.961323 1.089745 0.823832
v 1.961323 1.089804 0.824800
v 1.961323 1.089824 0.825762
v 1.961323 1.089653 0.828667
v 1.961323 1.089153 0.831416
v 1.961323 1.088342 0.833991
v 1.961323 1.087239 0.836374
v 1.961323 1.085861 0.838545
v 1.961323 1.084227 0.840487
v 1.961323 1.082355 0.842181
v 1.961323 1.080264 0.843608
v 1.961323 1.077972 0.844751
v 1.961323 1.075497 0.845589
v 1.961323 1.072857 0.846106
v 1.961323 1.070071 0.846283
v 1.961323 1.068056 0.846154
v 1.961323 1.065965 0.845763
v 1.961323 1.063846 0.845103
v 1.961323 1.061748 0.844169
v 1.961323 1.059717 0.842955
v 1.961323 1.057801 0.841454
v 1.961323 1.056050 0.839661
v 1.961323 1.054509 0.837569
v 1.961323 1.053228 0.835172
v 1.961323 1.052253 0.832464
v 1.961323 1.051633 0.829439
v 1.961323 1.051416 0.826091
v 1.961323 1.051444 0.824662
v 1.961323 1.051527 0.823304
v 1.961323 1.051661 0.822014
v 1.961323 1.051843 0.820785
v 1.961323 1.052071 0.819613
v 1.961323 1.052342 0.818492
v 1.961323 1.052653 0.817417
v 1.961323 1.053001 0.816382
v 1.961323 1.053384 0.815382
v 1.961323 1.053798 0.814412
v 1.961323 1.054240 0.813466
v 1.961323 1.054708 0.812539
v 1.961323 1.060579 0.812539
v 1.961323 1.059920 0.813603
v 1.961323 1.059314 0.814680
v 1.961323 1.058762 0.815768
v 1.961323 1.058264 0.816863
v 1.961323 1.057823 0.817965
v 1.961323 1.057438 0.819068
v 1.961323 1.057110 0.820172
v 1.961323 1.056840 0.821273
v 1.961323 1.056629 0.822369
v 1.961323 1.056477 0.823457
v 1.961323 1.056385 0.824534
v 1.961323 1.056354 0.825598
v 1.961323 1.056473 0.827786
v 1.961323 1.056824 0.829844
v 1.961323 1.057394 0.831760
v 1.961323 1.058173 0.833523
v 1.961323 1.059149 0.835121
v 1.961323 1.060312 0.836544
v 1.961323 1.061649 0.837779
v 1.961323 1.063150 0.838815
v 1.961323 1.064803 0.839640
v 1.961323 1.066597 0.840244
v 1.961323 1.068522 0.840615
v 1.961323 1.070565 0.840741
v 1.961323 1.072576 0.840611
v 1.961323 1.074484 0.840230
v 1.961323 1.076275 0.839613
v 1.961323 1.077936 0.838774
v 1.961323 1.079453 0.837728
v 1.961323 1.080812 0.836489
v 1.961323 1.081999 0.835072
v 1.961323 1.083002 0.833490
v 1.961323 1.083805 0.831760
v 1.961323 1.084396 0.829895
v 1.961323 1.084761 0.827909
v 1.961323 1.084885 0.825817
v 1.961323 1.084860 0.824741
v 1.961323 1.084784 0.823677
v 1.961323 1.084655 0.822622
v 1.961323 1.084473 0.821572
v 1.961323 1.084237 0.820524
v 1.961323 1.083946 0.819473
v 1.961323 1.083599 0.818417
v 1.961323 1.083195 0.817351
v 1.961323 1.082733 0.816273
v 1.961323 1.082212 0.815178
v 1.961323 1.081631 0.814062
v 1.961323 1.080990 0.812923
vn 0.5708 -0.0000 -0.8211
vn 0.5708 0.8211 -0.0000
vn 1.0000 -0.0000 -0.0000
vn 0.5708 -0.0000 0.8211
vn 0.5708 -0.8211 -0.0000
vn 1.0000 -0.0000 0.0001
vn 1.0000 -0.0000 -0.0003
vt 0.509615 0.576923
vt 0.490385 0.576923
vt 0.509615 0.596154
vt 0.490385 0.596154
vt 0.134021 0.000000
vt 0.113402 0.000000
vt 0.123711 0.000000
vt 0.103093 0.000000
vt 0.092784 0.000000
vt 0.144330 0.000000
vt 0.082474 0.000000
vt 0.072165 0.000000
vt 0.061856 0.000000
vt 0.154639 0.000000
vt 0.051546 0.000000
vt 0.041237 0.000000
vt 0.030928 0.000000
vt 0.164948 0.000000
vt 0.020619 0.000000
vt 0.010309 0.000000
vt 0.000000 0.000000
vt 0.175258 0.000000
vt 0.896907 0.000000
vt 0.907216 0.000000
vt 0.917526 0.000000
vt 0.927835 0.000000
vt 0.938144 0.000000
vt 0.948454 0.000000
vt 0.958763 0.000000
vt 0.969072 0.000000
vt 0.979381 0.000000
vt 0.989691 0.000000
vt 1.000000 0.000000
vt 0.185567 0.000000
vt 0.876289 0.000000
vt 0.886598 0.000000
vt 0.865979 0.000000
vt 0.855670 0.000000
vt 0.845361 0.000000
vt 0.195876 0.000000
vt 0.835052 0.000000
vt 0.824742 0.000000
vt 0.206186 0.000000
vt 0.814433 0.000000
vt 0.804124 0.000000
vt 0.216495 0.000000
vt 0.793814 0.000000
vt 0.226804 0.000000
vt 0.783505 0.000000
vt 0.773196 0.000000
vt 0.237113 0.000000
vt 0.762887 0.000000
vt 0.247423 0.000000
vt 0.752577 0.000000
vt 0.742268 0.000000
vt 0.257732 0.000000
vt 0.731959 0.000000
vt 0.268041 0.000000
vt 0.721649 0.000000
vt 0.278351 0.000000
vt 0.711340 0.000000
vt 0.288660 0.000000
vt 0.701031 0.000000
vt 0.298969 0.000000
vt 0.690722 0.000000
vt 0.515464 0.000000
vt 0.494845 0.000000
vt 0.505155 0.000000
vt 0.680412 0.000000
vt 0.525773 0.000000
vt 0.309278 0.000000
vt 0.536082 0.000000
vt 0.670103 0.000000
vt 0.546392 0.000000
vt 0.556701 0.000000
vt 0.659794 0.000000
vt 0.567010 0.000000
vt 0.319588 0.000000
vt 0.577320 0.000000
vt 0.649485 0.000000
vt 0.587629 0.000000
vt 0.597938 0.000000
vt 0.639175 0.000000
vt 0.608247 0.000000
vt 0.618557 0.000000
vt 0.628866 0.000000
vt 0.329897 0.000000
vt 0.484536 0.000000
vt 0.340206 0.000000
vt 0.474227 0.000000
vt 0.463918 0.000000
vt 0.453608 0.000000
vt 0.350515 0.000000
vt 0.443299 0.000000
vt 0.432990 0.000000
vt 0.422680 0.000000
vt 0.360825 0.000000
vt 0.412371 0.000000
vt 0.402062 0.000000
vt 0.391753 0.000000
vt 0.371134 0.000000
vt 0.381443 0.000000
s 0
usemtl Cap.001
f 1/1/1 4/1/1 5/2/1 2/2/1
f 3/3/2 6/3/2 4/1/2 1/1/2
f 5/2/3 4/1/3 6/3/3 7/4/3
f 8/4/4 7/4/4 6/3/4 3/3/4
f 2/2/5 5/2/5 7/4/5 8/4/5
usemtl White_Matte.001
f 22/5/6 20/6/6 21/7/6
f 22/5/3 19/8/3 20/6/3
f 22/5/3 18/9/3 19/8/3
f 23/10/3 18/9/3 22/5/3
f 23/10/3 17/11/3 18/9/3
f 23/10/3 16/12/3 17/11/3
f 23/10/3 15/13/3 16/12/3
f 24/14/3 15/13/3 23/10/3
f 24/14/3 14/15/3 15/13/3
f 24/14/3 13/16/3 14/15/3
f 24/14/3 12/17/3 13/16/3
f 25/18/3 12/17/3 24/14/3
f 25/18/3 11/19/3 12/17/3
f 25/18/3 10/20/3 11/19/3
f 25/18/3 9/21/3 10/20/3
f 26/22/3 9/21/3 25/18/3
f 26/22/3 96/23/3 9/21/3
f 96/23/7 97/24/7 9/21/7
f 97/24/3 98/25/3 9/21/3
f 98/25/3 99/26/3 9/21/3
f 99/26/3 100/27/3 9/21/3
f 100/27/3 101/28/3 9/21/3
f 101/28/3 102/29/3 9/21/3
f 102/29/3 103/30/3 9/21/3
f 103/30/3 104/31/3 9/21/3
f 104/31/3 105/32/3 9/21/3
f 105/32/3 106/33/3 9/21/3
f 27/34/3 94/35/3 26/22/3
f 94/35/3 95/36/3 26/22/3
f 95/36/3 96/23/3 26/22/3
f 27/34/3 93/37/3 94/35/3
f 27/34/3 92/38/3 93/37/3
f 27/34/3 91/39/3 92/38/3
f 28/40/3 91/39/3 27/34/3
f 28/40/3 90/41/3 91/39/3
f 28/40/3 89/42/3 90/41/3
f 29/43/3 89/42/3 28/40/3
f 29/43/3 88/44/3 89/42/3
f 29/43/3 87/45/3 88/44/3
f 30/46/3 87/45/3 29/43/3
f 30/46/3 86/47/3 87/45/3
f 31/48/3 86/47/3 30/46/3
f 31/48/6 85/49/6 86/47/6
f 31/48/3 84/50/3 85/49/3
f 32/51/3 84/50/3 31/48/3
f 32/51/3 83/52/3 84/50/3
f 33/53/3 83/52/3 32/51/3
f 33/53/3 82/54/3 83/52/3
f 33/53/6 81/55/6 82/54/6
f 34/56/3 81/55/3 33/53/3
f 34/56/3 80/57/3 81/55/3
f 35/58/3 80/57/3 34/56/3
f 35/58/3 79/59/3 80/57/3
f 36/60/3 79/59/3 35/58/3
f 36/60/3 78/61/3 79/59/3
f 37/62/3 78/61/3 36/60/3
f 37/62/3 77/63/3 78/61/3
f 38/64/3 77/63/3 37/62/3
f 38/64/3 76/65/3 77/63/3
f 59/66/3 57/67/3 58/68/3
f 38/64/6 75/69/6 76/65/6
f 60/70/3 57/67/3 59/66/3
f 39/71/3 75/69/3 38/64/3
f 61/72/3 57/67/3 60/70/3
f 39/71/3 74/73/3 75/69/3
f 62/74/3 57/67/3 61/72/3
f 63/75/3 57/67/3 62/74/3
f 39/71/3 73/76/3 74/73/3
f 64/77/3 57/67/3 63/75/3
f 40/78/3 73/76/3 39/71/3
f 65/79/3 57/67/3 64/77/3
f 40/78/3 72/80/3 73/76/3
f 66/81/3 57/67/3 65/79/3
f 67/82/3 57/67/3 66/81/3
f 40/78/3 71/83/3 72/80/3
f 68/84/3 57/67/3 67/82/3
f 69/85/3 57/67/3 68/84/3
f 40/78/3 70/86/3 71/83/3
f 70/86/3 57/67/3 69/85/3
f 40/78/3 57/67/3 70/86/3
f 41/87/3 57/67/3 40/78/3
f 41/87/3 56/88/3 57/67/3
f 42/89/3 56/88/3 41/87/3
f 42/89/3 55/90/3 56/88/3
f 42/89/3 54/91/3 55/90/3
f 42/89/3 53/92/3 54/91/3
f 43/93/3 53/92/3 42/89/3
f 43/93/3 52/94/3 53/92/3
f 43/93/3 51/95/3 52/94/3
f 43/93/3 50/96/3 51/95/3
f 44/97/3 50/96/3 43/93/3
f 44/97/3 49/98/3 50/96/3
f 44/97/3 48/99/3 49/98/3
f 44/97/3 47/100/3 48/99/3
f 45/101/3 47/100/3 44/97/3
f 45/101/3 46/102/3 47/100/3
