# Blender 5.0.0
# www.blender.org
mtllib ButtonEnter.mtl
o buttonEnter
v 1.944027 1.109082 0.635309
v 1.944027 1.032158 0.635309
v 1.944027 1.109082 0.712232
v 1.960575 1.097579 0.646812
v 1.960575 1.043661 0.646812
v 1.960575 1.097579 0.700729
v 1.960575 1.043661 0.700729
v 1.944027 1.032158 0.712232
v 1.961323 1.091635 0.655322
v 1.961323 1.091635 0.661247
v 1.961323 1.062373 0.673709
v 1.961323 1.091635 0.686233
v 1.961323 1.091635 0.692220
v 1.961323 1.049605 0.674198
v 1.961323 1.049605 0.672977
vn 0.5708 -0.0000 -0.8211
vn 0.5708 0.8211 -0.0000
vn 1.0000 -0.0000 -0.0000
vn 0.5707 -0.0000 0.8211
vn 0.5708 -0.8211 -0.0000
vn 1.0000 -0.0000 0.0001
vt 0.509615 0.576923
vt 0.490385 0.576923
vt 0.509615 0.596154
vt 0.490385 0.596154
vt 0.833333 0.000000
vt 0.500000 0.000000
vt 0.666667 0.000000
vt 0.333333 0.000000
vt 0.000000 0.000000
vt 0.166667 0.000000
vt 1.000000 0.000000
s 0
usemtl Cap.001
f 1/1/1 4/1/1 5/2/1 2/2/1
f 3/3/2 6/3/2 4/1/2 1/1/2
f 5/2/3 4/1/3 6/3/3 7/4/3
f 8/4/4 7/4/4 6/3/4 3/3/4
f 2/2/5 5/2/5 7/4/5 8/4/5
usemtl White_Matte.001
f 14/5/3 12/6/3 13/7/3
f 14/5/3 11/8/3 12/6/3
f 11/8/3 9/9/3 10/10/3
f 11/8/6 15/11/6 9/9/6
f 14/5/3 15/11/3 11/8/3
