# Blender 5.0.0
# www.blender.org
mtllib Button6.mtl
o button6
v 1.944027 1.263568 0.635949
v 1.944027 1.186645 0.635949
v 1.944027 1.263568 0.712872
v 1.960575 1.252065 0.647452
v 1.960575 1.198148 0.647452
v 1.960575 1.252065 0.701369
v 1.960575 1.198148 0.701369
v 1.944027 1.186645 0.712872
v 1.961323 1.245015 0.670856
v 1.961323 1.243279 0.673276
v 1.961323 1.241430 0.675502
v 1.961323 1.239481 0.677529
v 1.961323 1.237440 0.679356
v 1.961323 1.235316 0.680979
v 1.961323 1.233120 0.682396
v 1.961323 1.230861 0.683602
v 1.961323 1.228549 0.684596
v 1.961323 1.226194 0.685374
v 1.961323 1.223804 0.685933
v 1.961323 1.221391 0.686271
v 1.961323 1.218964 0.686384
v 1.961323 1.216972 0.686280
v 1.961323 1.215100 0.685975
v 1.961323 1.213357 0.685477
v 1.961323 1.211754 0.684796
v 1.961323 1.210302 0.683941
v 1.961323 1.209009 0.682921
v 1.961323 1.207887 0.681747
v 1.961323 1.206947 0.680427
v 1.961323 1.206197 0.678969
v 1.961323 1.205649 0.677385
v 1.961323 1.205312 0.675682
v 1.961323 1.205198 0.673871
v 1.961323 1.205306 0.672343
v 1.961323 1.205619 0.670871
v 1.961323 1.206123 0.669468
v 1.961323 1.206803 0.668150
v 1.961323 1.207645 0.666933
v 1.961323 1.208632 0.665829
v 1.961323 1.209751 0.664854
v 1.961323 1.210987 0.664023
v 1.961323 1.212325 0.663352
v 1.961323 1.213750 0.662853
v 1.961323 1.215247 0.662544
v 1.961323 1.216802 0.662437
v 1.961323 1.218375 0.662532
v 1.961323 1.219872 0.662811
v 1.961323 1.221282 0.663263
v 1.961323 1.222593 0.663876
v 1.961323 1.223794 0.664640
v 1.961323 1.224872 0.665544
v 1.961323 1.225816 0.666578
v 1.961323 1.226615 0.667729
v 1.961323 1.227257 0.668988
v 1.961323 1.227729 0.670344
v 1.961323 1.228022 0.671785
v 1.961323 1.228121 0.673302
v 1.961323 1.228105 0.673930
v 1.961323 1.228059 0.674534
v 1.961323 1.227985 0.675117
v 1.961323 1.227885 0.675676
v 1.961323 1.227764 0.676213
v 1.961323 1.227624 0.676729
v 1.961323 1.227467 0.677223
v 1.961323 1.227296 0.677696
v 1.961323 1.227114 0.678149
v 1.961323 1.226923 0.678582
v 1.961323 1.226727 0.678994
v 1.961323 1.226529 0.679388
v 1.961323 1.227883 0.678924
v 1.961323 1.229237 0.678333
v 1.961323 1.230582 0.677626
v 1.961323 1.231909 0.676811
v 1.961323 1.233209 0.675898
v 1.961323 1.234471 0.674894
v 1.961323 1.235687 0.673810
v 1.961323 1.236848 0.672655
v 1.961323 1.237943 0.671437
v 1.961323 1.238965 0.670166
v 1.961323 1.239903 0.668850
v 1.961323 1.240749 0.667500
v 1.961323 1.220784 0.680583
v 1.961323 1.221159 0.679993
v 1.961323 1.221488 0.679444
v 1.961323 1.221776 0.678927
v 1.961323 1.222022 0.678433
v 1.961323 1.222231 0.677957
v 1.961323 1.222405 0.677489
v 1.961323 1.222545 0.677023
v 1.961323 1.222654 0.676550
v 1.961323 1.222735 0.676063
v 1.961323 1.222790 0.675554
v 1.961323 1.222822 0.675015
v 1.961323 1.222831 0.674439
v 1.961323 1.222779 0.673536
v 1.961323 1.222626 0.672679
v 1.961323 1.222378 0.671875
v 1.961323 1.222041 0.671130
v 1.961323 1.221622 0.670449
v 1.961323 1.221125 0.669839
v 1.961323 1.220557 0.669306
v 1.961323 1.219924 0.668856
v 1.961323 1.219232 0.668496
v 1.961323 1.218486 0.668231
v 1.961323 1.217693 0.668068
v 1.961323 1.216859 0.668012
v 1.961323 1.215933 0.668063
v 1.961323 1.215064 0.668214
v 1.961323 1.214256 0.668460
v 1.961323 1.213513 0.668798
v 1.961323 1.212841 0.669221
v 1.961323 1.212244 0.669725
v 1.961323 1.211727 0.670307
v 1.961323 1.211293 0.670961
v 1.961323 1.210948 0.671683
v 1.961323 1.210695 0.672469
v 1.961323 1.210541 0.673313
v 1.961323 1.210488 0.674212
v 1.961323 1.210569 0.675214
v 1.961323 1.210808 0.676189
v 1.961323 1.211201 0.677119
v 1.961323 1.211742 0.677987
v 1.961323 1.212425 0.678775
v 1.961323 1.213247 0.679466
v 1.961323 1.214201 0.680042
v 1.961323 1.215283 0.680485
v 1.961323 1.216487 0.680779
v 1.961323 1.217809 0.680904
v 1.961323 1.219243 0.680845
vn 0.5707 -0.0000 -0.8211
vn 0.5708 0.8211 -0.0000
vn 1.0000 -0.0000 -0.0000
vn 0.5707 -0.0000 0.8211
vn 0.5708 -0.8211 -0.0000
vn 1.0000 -0.0000 0.0001
vn 1.0000 -0.0000 -0.0001
vn 1.0000 -0.0000 0.0002
vn 1.0000 -0.0000 -0.0005
vn 1.0000 -0.0000 0.0005
vn 1.0000 -0.0000 0.0004
vn 1.0000 -0.0000 -0.0004
vt 0.509615 0.576923
vt 0.490385 0.576923
vt 0.509615 0.596154
vt 0.490385 0.596154
vt 0.008333 0.000000
vt 0.600000 0.000000
vt 0.000000 0.000000
vt 0.016667 0.000000
vt 0.025000 0.000000
vt 0.591667 0.000000
vt 0.583333 0.000000
vt 0.033333 0.000000
vt 0.575000 0.000000
vt 0.566667 0.000000
vt 0.041667 0.000000
vt 0.558333 0.000000
vt 0.550000 0.000000
vt 0.050000 0.000000
vt 0.541667 0.000000
vt 0.533333 0.000000
vt 0.058333 0.000000
vt 0.525000 0.000000
vt 0.066667 0.000000
vt 0.516667 0.000000
vt 0.508333 0.000000
vt 0.075000 0.000000
vt 0.408333 0.000000
vt 0.391667 0.000000
vt 0.400000 0.000000
vt 0.416667 0.000000
vt 0.425000 0.000000
vt 0.383333 0.000000
vt 0.433333 0.000000
vt 0.441667 0.000000
vt 0.500000 0.000000
vt 0.450000 0.000000
vt 0.375000 0.000000
vt 0.458333 0.000000
vt 0.466667 0.000000
vt 0.475000 0.000000
vt 0.366667 0.000000
vt 0.483333 0.000000
vt 0.491667 0.000000
vt 0.358333 0.000000
vt 0.083333 0.000000
vt 0.350000 0.000000
vt 0.341667 0.000000
vt 0.091667 0.000000
vt 0.683333 0.000000
vt 0.691667 0.000000
vt 0.700000 0.000000
vt 0.708333 0.000000
vt 0.333333 0.000000
vt 0.716667 0.000000
vt 0.725000 0.000000
vt 0.675000 0.000000
vt 0.666667 0.000000
vt 0.733333 0.000000
vt 0.325000 0.000000
vt 0.658333 0.000000
vt 0.650000 0.000000
vt 0.741667 0.000000
vt 0.641667 0.000000
vt 0.750000 0.000000
vt 0.633333 0.000000
vt 0.625000 0.000000
vt 0.758333 0.000000
vt 0.616667 0.000000
vt 0.100000 0.000000
vt 0.316667 0.000000
vt 0.608333 0.000000
vt 0.766667 0.000000
vt 1.000000 0.000000
vt 0.775000 0.000000
vt 0.783333 0.000000
vt 0.308333 0.000000
vt 0.991667 0.000000
vt 0.791667 0.000000
vt 0.108333 0.000000
vt 0.800000 0.000000
vt 0.300000 0.000000
vt 0.983333 0.000000
vt 0.808333 0.000000
vt 0.116667 0.000000
vt 0.816667 0.000000
vt 0.291667 0.000000
vt 0.975000 0.000000
vt 0.825000 0.000000
vt 0.966667 0.000000
vt 0.283333 0.000000
vt 0.125000 0.000000
vt 0.833333 0.000000
vt 0.841667 0.000000
vt 0.958333 0.000000
vt 0.275000 0.000000
vt 0.850000 0.000000
vt 0.133333 0.000000
vt 0.950000 0.000000
vt 0.858333 0.000000
vt 0.941667 0.000000
vt 0.266667 0.000000
vt 0.866667 0.000000
vt 0.141667 0.000000
vt 0.933333 0.000000
vt 0.875000 0.000000
vt 0.883333 0.000000
vt 0.925000 0.000000
vt 0.258333 0.000000
vt 0.891667 0.000000
vt 0.916667 0.000000
vt 0.900000 0.000000
vt 0.908333 0.000000
vt 0.150000 0.000000
vt 0.250000 0.000000
vt 0.158333 0.000000
vt 0.241667 0.000000
vt 0.166667 0.000000
vt 0.233333 0.000000
vt 0.175000 0.000000
vt 0.225000 0.000000
vt 0.183333 0.000000
vt 0.216667 0.000000
vt 0.191667 0.000000
vt 0.208333 0.000000
vt 0.200000 0.000000
s 0
usemtl Cap.001
f 1/1/1 4/1/1 5/2/1 2/2/1
f 3/3/2 6/3/2 4/1/2 1/1/2
f 5/2/3 4/1/3 6/3/3 7/4/3
f 8/4/4 7/4/4 6/3/4 3/3/4
f 2/2/5 5/2/5 7/4/5 8/4/5
usemtl White_Matte.001
f 10/5/3 81/6/3 9/7/3
f 11/8/3 81/6/3 10/5/3
f 12/9/3 81/6/3 11/8/3
f 12/9/3 80/10/3 81/6/3
f 12/9/3 79/11/3 80/10/3
f 13/12/3 79/11/3 12/9/3
f 13/12/3 78/13/3 79/11/3
f 13/12/6 77/14/6 78/13/6
f 14/15/3 77/14/3 13/12/3
f 14/15/3 76/16/3 77/14/3
f 14/15/3 75/17/3 76/16/3
f 15/18/3 75/17/3 14/15/3
f 15/18/3 74/19/3 75/17/3
f 15/18/3 73/20/3 74/19/3
f 16/21/3 73/20/3 15/18/3
f 16/21/3 72/22/3 73/20/3
f 17/23/6 72/22/6 16/21/6
f 17/23/7 71/24/7 72/22/7
f 17/23/3 70/25/3 71/24/3
f 18/26/7 70/25/7 17/23/7
f 58/27/3 56/28/3 57/29/3
f 59/30/3 56/28/3 58/27/3
f 60/31/3 56/28/3 59/30/3
f 60/31/3 55/32/3 56/28/3
f 61/33/8 55/32/8 60/31/8
f 62/34/3 55/32/3 61/33/3
f 18/26/6 69/35/6 70/25/6
f 63/36/3 55/32/3 62/34/3
f 63/36/3 54/37/3 55/32/3
f 64/38/3 54/37/3 63/36/3
f 65/39/3 54/37/3 64/38/3
f 66/40/3 54/37/3 65/39/3
f 66/40/3 53/41/3 54/37/3
f 67/42/3 53/41/3 66/40/3
f 68/43/3 53/41/3 67/42/3
f 69/35/3 53/41/3 68/43/3
f 69/35/3 52/44/3 53/41/3
f 18/26/3 52/44/3 69/35/3
f 19/45/3 52/44/3 18/26/3
f 19/45/3 51/46/3 52/44/3
f 19/45/3 50/47/3 51/46/3
f 20/48/3 91/49/3 19/45/3
f 91/49/3 92/50/3 19/45/3
f 92/50/3 50/47/3 19/45/3
f 92/50/3 93/51/3 50/47/3
f 93/51/9 94/52/9 50/47/9
f 94/52/3 49/53/3 50/47/3
f 95/54/3 49/53/3 94/52/3
f 96/55/3 49/53/3 95/54/3
f 20/48/10 90/56/10 91/49/10
f 20/48/11 89/57/11 90/56/11
f 97/58/3 49/53/3 96/55/3
f 97/58/3 48/59/3 49/53/3
f 20/48/12 88/60/12 89/57/12
f 20/48/8 87/61/8 88/60/8
f 98/62/3 48/59/3 97/58/3
f 20/48/3 86/63/3 87/61/3
f 99/64/3 48/59/3 98/62/3
f 20/48/3 85/65/3 86/63/3
f 20/48/7 84/66/7 85/65/7
f 100/67/3 48/59/3 99/64/3
f 20/48/3 83/68/3 84/66/3
f 21/69/3 83/68/3 20/48/3
f 100/67/3 47/70/3 48/59/3
f 21/69/10 82/71/10 83/68/10
f 101/72/3 47/70/3 100/67/3
f 21/69/3 129/73/3 82/71/3
f 102/74/3 47/70/3 101/72/3
f 103/75/3 47/70/3 102/74/3
f 103/75/3 46/76/3 47/70/3
f 21/69/3 128/77/3 129/73/3
f 104/78/3 46/76/3 103/75/3
f 22/79/3 128/77/3 21/69/3
f 105/80/3 46/76/3 104/78/3
f 105/80/3 45/81/3 46/76/3
f 22/79/3 127/82/3 128/77/3
f 106/83/7 45/81/7 105/80/7
f 23/84/3 127/82/3 22/79/3
f 107/85/3 45/81/3 106/83/3
f 107/85/3 44/86/3 45/81/3
f 23/84/3 126/87/3 127/82/3
f 108/88/3 44/86/3 107/85/3
f 23/84/3 125/89/3 126/87/3
f 108/88/3 43/90/3 44/86/3
f 24/91/3 125/89/3 23/84/3
f 109/92/3 43/90/3 108/88/3
f 110/93/3 43/90/3 109/92/3
f 24/91/3 124/94/3 125/89/3
f 110/93/3 42/95/3 43/90/3
f 111/96/3 42/95/3 110/93/3
f 25/97/3 124/94/3 24/91/3
f 25/97/3 123/98/3 124/94/3
f 112/99/7 42/95/7 111/96/7
f 25/97/3 122/100/3 123/98/3
f 112/99/3 41/101/3 42/95/3
f 113/102/3 41/101/3 112/99/3
f 26/103/3 122/100/3 25/97/3
f 26/103/6 121/104/6 122/100/6
f 114/105/7 41/101/7 113/102/7
f 115/106/3 41/101/3 114/105/3
f 26/103/3 120/107/3 121/104/3
f 115/106/3 40/108/3 41/101/3
f 116/109/3 40/108/3 115/106/3
f 26/103/3 119/110/3 120/107/3
f 117/111/3 40/108/3 116/109/3
f 26/103/3 118/112/3 119/110/3
f 118/112/8 40/108/8 117/111/8
f 26/103/3 40/108/3 118/112/3
f 27/113/3 40/108/3 26/103/3
f 27/113/3 39/114/3 40/108/3
f 28/115/3 39/114/3 27/113/3
f 28/115/3 38/116/3 39/114/3
f 29/117/3 38/116/3 28/115/3
f 29/117/3 37/118/3 38/116/3
f 30/119/3 37/118/3 29/117/3
f 30/119/3 36/120/3 37/118/3
f 31/121/3 36/120/3 30/119/3
f 31/121/6 35/122/6 36/120/6
f 32/123/3 35/122/3 31/121/3
f 32/123/3 34/124/3 35/122/3
f 33/125/3 34/124/3 32/123/3
