# Blender 5.0.0
# www.blender.org
mtllib Button4.mtl
o button4
v 1.961323 1.243126 0.820582
v 1.961323 1.243126 0.822773
v 1.961323 1.221117 0.840766
v 1.961323 1.218770 0.840766
v 1.961323 1.218770 0.825693
v 1.961323 1.207087 0.825693
v 1.961323 1.207087 0.820582
v 1.961323 1.218770 0.820582
v 1.961323 1.218770 0.816775
v 1.961323 1.223359 0.816775
v 1.961323 1.223359 0.820582
v 1.961323 1.233477 0.825798
v 1.961323 1.233477 0.825693
v 1.961323 1.223359 0.825693
v 1.961323 1.223359 0.833934
v 1.944026 1.263568 0.790309
v 1.944026 1.186645 0.790309
v 1.944026 1.263568 0.867232
v 1.960575 1.252065 0.801812
v 1.960575 1.198148 0.801812
v 1.960575 1.252065 0.855729
v 1.960575 1.198148 0.855729
v 1.944026 1.186645 0.867232
vn 1.0000 -0.0000 -0.0000
vn 1.0000 -0.0000 -0.0001
vn -0.0000 1.0000 -0.0000
vn 0.5708 -0.0000 -0.8211
vn 0.5707 0.8211 -0.0000
vn 0.5708 -0.0000 0.8211
vn 0.5708 -0.8211 -0.0000
vt 0.142857 0.000000
vt 0.000000 0.000000
vt 0.071429 0.000000
vt 0.785714 0.000000
vt 0.857143 0.000000
vt 0.714286 0.000000
vt 1.000000 0.000000
vt 0.928571 0.000000
vt 0.642857 0.000000
vt 0.571429 0.000000
vt 0.214286 0.000000
vt 0.285714 0.000000
vt 0.357143 0.000000
vt 0.500000 0.000000
vt 0.428571 0.000000
vt 0.509615 0.576923
vt 0.490385 0.576923
vt 0.509615 0.596154
vt 0.490385 0.596154
s 0
usemtl Cap.001
f 16/16/4 19/16/4 20/17/4 17/17/4
f 18/18/5 21/18/5 19/16/5 16/16/5
f 20/17/1 19/16/1 21/18/1 22/19/1
f 23/19/6 22/19/6 21/18/6 18/18/6
f 17/17/7 20/17/7 22/19/7 23/19/7
usemtl White_Matte.001
f 3/1/1 1/2/1 2/3/1
f 3/1/1 12/4/1 1/2/1
f 12/4/1 13/5/1 1/2/1
f 13/5/1 11/6/1 1/2/1
f 3/1/2 15/7/2 12/4/2
f 14/8/1 11/6/1 13/5/1
f 3/1/1 14/8/1 15/7/1
f 3/1/1 11/6/1 14/8/1
f 3/1/1 10/9/1 11/6/1
f 3/1/1 9/10/1 10/9/1
f 4/11/1 9/10/1 3/1/1
f 5/12/3 9/10/3 4/11/3
f 6/13/1 8/14/1 5/12/1
f 8/14/3 9/10/3 5/12/3
f 6/13/1 7/15/1 8/14/1
