# Blender 5.0.0
# www.blender.org
mtllib Button2.mtl
o button2
v 1.961323 1.287907 0.739184
v 1.961323 1.287907 0.753995
v 1.961323 1.290374 0.751946
v 1.961323 1.292654 0.750109
v 1.961323 1.294767 0.748476
v 1.961323 1.296736 0.747042
v 1.961323 1.298579 0.745801
v 1.961323 1.300319 0.744745
v 1.961323 1.301977 0.743869
v 1.961323 1.303572 0.743167
v 1.961323 1.305127 0.742632
v 1.961323 1.306661 0.742257
v 1.961323 1.308196 0.742037
v 1.961323 1.309753 0.741965
v 1.961323 1.311493 0.742064
v 1.961323 1.313131 0.742354
v 1.961323 1.314658 0.742827
v 1.961323 1.316064 0.743474
v 1.961323 1.317340 0.744284
v 1.961323 1.318477 0.745249
v 1.961323 1.319465 0.746359
v 1.961323 1.320294 0.747606
v 1.961323 1.320956 0.748979
v 1.961323 1.321440 0.750470
v 1.961323 1.321738 0.752069
v 1.961323 1.321839 0.753768
v 1.961323 1.321814 0.754543
v 1.961323 1.321739 0.755311
v 1.961323 1.321614 0.756073
v 1.961323 1.321438 0.756830
v 1.961323 1.321210 0.757583
v 1.961323 1.320931 0.758335
v 1.961323 1.320600 0.759087
v 1.961323 1.320217 0.759841
v 1.961323 1.319780 0.760598
v 1.961323 1.319291 0.761360
v 1.961323 1.318748 0.762127
v 1.961323 1.318151 0.762903
v 1.961323 1.311172 0.762903
v 1.961323 1.312109 0.762129
v 1.961323 1.312937 0.761365
v 1.961323 1.313663 0.760612
v 1.961323 1.314290 0.759868
v 1.961323 1.314825 0.759133
v 1.961323 1.315271 0.758406
v 1.961323 1.315635 0.757686
v 1.961323 1.315921 0.756972
v 1.961323 1.316135 0.756264
v 1.961323 1.316281 0.755561
v 1.961323 1.316365 0.754861
v 1.961323 1.316392 0.754165
v 1.961323 1.316330 0.753235
v 1.961323 1.316149 0.752353
v 1.961323 1.315856 0.751524
v 1.961323 1.315454 0.750754
v 1.961323 1.314953 0.750050
v 1.961323 1.314356 0.749420
v 1.961323 1.313671 0.748868
v 1.961323 1.312903 0.748402
v 1.961323 1.312059 0.748028
v 1.961323 1.311144 0.747753
v 1.961323 1.310166 0.747584
v 1.961323 1.309129 0.747526
v 1.961323 1.308346 0.747545
v 1.961323 1.307609 0.747601
v 1.961323 1.306909 0.747696
v 1.961323 1.306237 0.747828
v 1.961323 1.305585 0.747999
v 1.961323 1.304944 0.748207
v 1.961323 1.304305 0.748452
v 1.961323 1.303660 0.748736
v 1.961323 1.303000 0.749058
v 1.961323 1.302317 0.749417
v 1.961323 1.301601 0.749814
v 1.961323 1.300844 0.750249
v 1.961323 1.299412 0.751124
v 1.961323 1.297933 0.752093
v 1.961323 1.296417 0.753141
v 1.961323 1.294876 0.754253
v 1.961323 1.293321 0.755415
v 1.961323 1.291765 0.756612
v 1.961323 1.290219 0.757829
v 1.961323 1.288693 0.759051
v 1.961323 1.287199 0.760264
v 1.961323 1.285749 0.761452
v 1.961323 1.284355 0.762602
v 1.961323 1.283027 0.763697
v 1.961323 1.282630 0.763697
v 1.961323 1.282630 0.739184
v 1.944027 1.340696 0.712979
v 1.944027 1.263773 0.712979
v 1.944027 1.340696 0.789903
v 1.960575 1.329193 0.724482
v 1.960575 1.275276 0.724482
v 1.960575 1.329193 0.778400
v 1.960575 1.275276 0.778400
v 1.944027 1.263773 0.789903
vn 1.0000 -0.0000 -0.0000
vn 1.0000 -0.0000 -0.0001
vn 1.0000 -0.0000 0.0001
vn 1.0000 -0.0000 -0.0003
vn 1.0000 -0.0000 0.0004
vn 1.0000 -0.0000 0.0003
vn 0.5708 -0.0000 -0.8211
vn 0.5708 0.8211 -0.0000
vn 0.5707 -0.0000 0.8211
vn 0.5708 -0.8211 -0.0000
vt 0.295455 0.000000
vt 0.272727 0.000000
vt 0.284091 0.000000
vt 0.306818 0.000000
vt 0.318182 0.000000
vt 0.261364 0.000000
vt 0.329545 0.000000
vt 0.250000 0.000000
vt 0.340909 0.000000
vt 0.352273 0.000000
vt 0.238636 0.000000
vt 0.363636 0.000000
vt 0.375000 0.000000
vt 0.227273 0.000000
vt 0.386364 0.000000
vt 0.397727 0.000000
vt 0.215909 0.000000
vt 0.409091 0.000000
vt 0.420455 0.000000
vt 0.204545 0.000000
vt 0.431818 0.000000
vt 0.443182 0.000000
vt 0.454545 0.000000
vt 0.465909 0.000000
vt 0.477273 0.000000
vt 0.488636 0.000000
vt 0.500000 0.000000
vt 0.511364 0.000000
vt 0.522727 0.000000
vt 0.534091 0.000000
vt 0.545455 0.000000
vt 0.556818 0.000000
vt 0.568182 0.000000
vt 0.193182 0.000000
vt 0.579545 0.000000
vt 0.590909 0.000000
vt 0.602273 0.000000
vt 0.181818 0.000000
vt 0.613636 0.000000
vt 0.625000 0.000000
vt 0.636364 0.000000
vt 0.170455 0.000000
vt 0.647727 0.000000
vt 0.659091 0.000000
vt 0.159091 0.000000
vt 0.670455 0.000000
vt 0.681818 0.000000
vt 0.147727 0.000000
vt 0.693182 0.000000
vt 0.704545 0.000000
vt 0.136364 0.000000
vt 0.715909 0.000000
vt 0.727273 0.000000
vt 0.125000 0.000000
vt 0.738636 0.000000
vt 0.750000 0.000000
vt 0.113636 0.000000
vt 0.761364 0.000000
vt 0.772727 0.000000
vt 0.102273 0.000000
vt 0.784091 0.000000
vt 0.795455 0.000000
vt 0.806818 0.000000
vt 0.090909 0.000000
vt 0.818182 0.000000
vt 0.829545 0.000000
vt 0.079545 0.000000
vt 0.840909 0.000000
vt 0.852273 0.000000
vt 0.068182 0.000000
vt 0.863636 0.000000
vt 0.056818 0.000000
vt 0.875000 0.000000
vt 0.045455 0.000000
vt 0.886364 0.000000
vt 0.897727 0.000000
vt 0.034091 0.000000
vt 0.909091 0.000000
vt 0.022727 0.000000
vt 0.920455 0.000000
vt 0.011364 0.000000
vt 0.931818 0.000000
vt 0.943182 0.000000
vt 0.000000 0.000000
vt 1.000000 0.000000
vt 0.954545 0.000000
vt 0.965909 0.000000
vt 0.977273 0.000000
vt 0.988636 0.000000
vt 0.509615 0.576923
vt 0.490385 0.576923
vt 0.509615 0.596154
vt 0.490385 0.596154
s 0
usemtl Cap.001
f 90/90/7 93/90/7 94/91/7 91/91/7
f 92/92/8 95/92/8 93/90/8 90/90/8
f 94/91/1 93/90/1 95/92/1 96/93/1
f 97/93/9 96/93/9 95/92/9 92/92/9
f 91/91/10 94/91/10 96/93/10 97/93/10
usemtl White_Matte.001
f 27/1/1 25/2/1 26/3/1
f 28/4/1 25/2/1 27/1/1
f 29/5/2 25/2/2 28/4/2
f 29/5/1 24/6/1 25/2/1
f 30/7/1 24/6/1 29/5/1
f 30/7/1 23/8/1 24/6/1
f 31/9/3 23/8/3 30/7/3
f 32/10/1 23/8/1 31/9/1
f 32/10/1 22/11/1 23/8/1
f 33/12/2 22/11/2 32/10/2
f 34/13/1 22/11/1 33/12/1
f 34/13/1 21/14/1 22/11/1
f 35/15/1 21/14/1 34/13/1
f 36/16/1 21/14/1 35/15/1
f 36/16/1 20/17/1 21/14/1
f 37/18/1 20/17/1 36/16/1
f 38/19/1 20/17/1 37/18/1
f 38/19/1 19/20/1 20/17/1
f 39/21/4 40/22/4 38/19/4
f 40/22/5 41/23/5 38/19/5
f 41/23/1 42/24/1 38/19/1
f 42/24/1 43/25/1 38/19/1
f 43/25/1 44/26/1 38/19/1
f 44/26/1 45/27/1 38/19/1
f 45/27/6 46/28/6 38/19/6
f 46/28/4 47/29/4 38/19/4
f 47/29/1 48/30/1 38/19/1
f 48/30/1 49/31/1 38/19/1
f 49/31/1 50/32/1 38/19/1
f 50/32/1 19/20/1 38/19/1
f 50/32/1 51/33/1 19/20/1
f 51/33/1 18/34/1 19/20/1
f 52/35/1 18/34/1 51/33/1
f 53/36/1 18/34/1 52/35/1
f 54/37/1 18/34/1 53/36/1
f 54/37/1 17/38/1 18/34/1
f 55/39/1 17/38/1 54/37/1
f 56/40/1 17/38/1 55/39/1
f 57/41/1 17/38/1 56/40/1
f 57/41/1 16/42/1 17/38/1
f 58/43/1 16/42/1 57/41/1
f 59/44/1 16/42/1 58/43/1
f 59/44/1 15/45/1 16/42/1
f 60/46/1 15/45/1 59/44/1
f 61/47/1 15/45/1 60/46/1
f 61/47/1 14/48/1 15/45/1
f 62/49/1 14/48/1 61/47/1
f 63/50/1 14/48/1 62/49/1
f 63/50/2 13/51/2 14/48/2
f 64/52/1 13/51/1 63/50/1
f 65/53/1 13/51/1 64/52/1
f 65/53/1 12/54/1 13/51/1
f 66/55/3 12/54/3 65/53/3
f 67/56/1 12/54/1 66/55/1
f 67/56/1 11/57/1 12/54/1
f 68/58/1 11/57/1 67/56/1
f 69/59/1 11/57/1 68/58/1
f 69/59/1 10/60/1 11/57/1
f 70/61/1 10/60/1 69/59/1
f 71/62/1 10/60/1 70/61/1
f 72/63/1 10/60/1 71/62/1
f 72/63/3 9/64/3 10/60/3
f 73/65/1 9/64/1 72/63/1
f 74/66/1 9/64/1 73/65/1
f 74/66/1 8/67/1 9/64/1
f 75/68/1 8/67/1 74/66/1
f 76/69/1 8/67/1 75/68/1
f 76/69/1 7/70/1 8/67/1
f 77/71/1 7/70/1 76/69/1
f 77/71/1 6/72/1 7/70/1
f 78/73/1 6/72/1 77/71/1
f 78/73/1 5/74/1 6/72/1
f 79/75/1 5/74/1 78/73/1
f 80/76/1 5/74/1 79/75/1
f 80/76/1 4/77/1 5/74/1
f 81/78/1 4/77/1 80/76/1
f 81/78/1 3/79/1 4/77/1
f 82/80/1 3/79/1 81/78/1
f 82/80/1 2/81/1 3/79/1
f 83/82/1 2/81/1 82/80/1
f 84/83/1 2/81/1 83/82/1
f 84/83/1 1/84/1 2/81/1
f 84/83/1 89/85/1 1/84/1
f 85/86/1 89/85/1 84/83/1
f 86/87/1 89/85/1 85/86/1
f 87/88/1 89/85/1 86/87/1
f 88/89/1 89/85/1 87/88/1
