# Blender 5.0.0
# www.blender.org
mtllib Button5.mtl
o button5
v 1.944027 1.263568 0.712979
v 1.944027 1.186645 0.712979
v 1.944027 1.263568 0.789902
v 1.960575 1.252065 0.724482
v 1.960575 1.198148 0.724482
v 1.960575 1.252065 0.778399
v 1.960575 1.198148 0.778399
v 1.944027 1.186645 0.789902
v 1.961323 1.243537 0.742906
v 1.961323 1.243537 0.759069
v 1.961323 1.224600 0.759069
v 1.961323 1.224966 0.757137
v 1.961323 1.225115 0.755346
v 1.961323 1.225062 0.753701
v 1.961323 1.224825 0.752207
v 1.961323 1.224419 0.750870
v 1.961323 1.223860 0.749694
v 1.961323 1.223164 0.748684
v 1.961323 1.222348 0.747847
v 1.961323 1.221427 0.747186
v 1.961323 1.220418 0.746708
v 1.961323 1.219336 0.746418
v 1.961323 1.218199 0.746320
v 1.961323 1.217319 0.746389
v 1.961323 1.216472 0.746592
v 1.961323 1.215666 0.746917
v 1.961323 1.214909 0.747357
v 1.961323 1.214211 0.747901
v 1.961323 1.213578 0.748540
v 1.961323 1.213020 0.749265
v 1.961323 1.212544 0.750066
v 1.961323 1.212160 0.750933
v 1.961323 1.211875 0.751858
v 1.961323 1.211698 0.752830
v 1.961323 1.211637 0.753841
v 1.961323 1.211656 0.754508
v 1.961323 1.211713 0.755174
v 1.961323 1.211807 0.755841
v 1.961323 1.211938 0.756506
v 1.961323 1.212106 0.757171
v 1.961323 1.212311 0.757835
v 1.961323 1.212553 0.758498
v 1.961323 1.212831 0.759160
v 1.961323 1.213145 0.759820
v 1.961323 1.213496 0.760478
v 1.961323 1.213882 0.761135
v 1.961323 1.214305 0.761789
v 1.961323 1.208917 0.761789
v 1.961323 1.208537 0.761015
v 1.961323 1.208195 0.760263
v 1.961323 1.207892 0.759529
v 1.961323 1.207625 0.758808
v 1.961323 1.207394 0.758096
v 1.961323 1.207197 0.757388
v 1.961323 1.207033 0.756681
v 1.961323 1.206902 0.755969
v 1.961323 1.206802 0.755248
v 1.961323 1.206731 0.754514
v 1.961323 1.206690 0.753762
v 1.961323 1.206677 0.752987
v 1.961323 1.206777 0.751308
v 1.961323 1.207071 0.749717
v 1.961323 1.207548 0.748226
v 1.961323 1.208198 0.746845
v 1.961323 1.209009 0.745586
v 1.961323 1.209971 0.744459
v 1.961323 1.211072 0.743476
v 1.961323 1.212303 0.742647
v 1.961323 1.213653 0.741983
v 1.961323 1.215110 0.741495
v 1.961323 1.216665 0.741195
v 1.961323 1.218305 0.741092
v 1.961323 1.219951 0.741195
v 1.961323 1.221518 0.741501
v 1.961323 1.222992 0.742004
v 1.961323 1.224359 0.742696
v 1.961323 1.225604 0.743573
v 1.961323 1.226714 0.744626
v 1.961323 1.227673 0.745851
v 1.961323 1.228468 0.747240
v 1.961323 1.229085 0.748788
v 1.961323 1.229509 0.750489
v 1.961323 1.229725 0.752335
v 1.961323 1.229721 0.754321
v 1.961323 1.238842 0.754321
v 1.961323 1.238842 0.742906
vn 0.5707 -0.0000 -0.8211
vn 0.5708 0.8211 -0.0000
vn 1.0000 -0.0000 -0.0000
vn 0.5707 -0.0000 0.8211
vn 0.5708 -0.8211 -0.0000
vn 1.0000 -0.0000 -0.0001
vn 1.0000 -0.0000 0.0001
vn 1.0000 -0.0000 0.0004
vn 1.0000 -0.0000 0.0002
vn 1.0000 -0.0000 -0.0004
vn 1.0000 -0.0000 -0.0002
vn 1.0000 -0.0000 0.0003
vt 0.509615 0.576923
vt 0.490385 0.576923
vt 0.509615 0.596154
vt 0.490385 0.596154
vt 0.025974 0.000000
vt 0.987013 0.000000
vt 0.012987 0.000000
vt 0.000000 0.000000
vt 1.000000 0.000000
vt 0.974026 0.000000
vt 0.948052 0.000000
vt 0.961039 0.000000
vt 0.935065 0.000000
vt 0.922078 0.000000
vt 0.909091 0.000000
vt 0.038961 0.000000
vt 0.896104 0.000000
vt 0.051948 0.000000
vt 0.883117 0.000000
vt 0.064935 0.000000
vt 0.870130 0.000000
vt 0.077922 0.000000
vt 0.090909 0.000000
vt 0.103896 0.000000
vt 0.857143 0.000000
vt 0.116883 0.000000
vt 0.129870 0.000000
vt 0.844156 0.000000
vt 0.142857 0.000000
vt 0.831169 0.000000
vt 0.155844 0.000000
vt 0.168831 0.000000
vt 0.818182 0.000000
vt 0.181818 0.000000
vt 0.805195 0.000000
vt 0.194805 0.000000
vt 0.207792 0.000000
vt 0.792208 0.000000
vt 0.220779 0.000000
vt 0.233766 0.000000
vt 0.779221 0.000000
vt 0.246753 0.000000
vt 0.506494 0.000000
vt 0.480519 0.000000
vt 0.493506 0.000000
vt 0.259740 0.000000
vt 0.467532 0.000000
vt 0.766234 0.000000
vt 0.272727 0.000000
vt 0.454545 0.000000
vt 0.441558 0.000000
vt 0.285714 0.000000
vt 0.428571 0.000000
vt 0.415584 0.000000
vt 0.298701 0.000000
vt 0.402597 0.000000
vt 0.753247 0.000000
vt 0.311688 0.000000
vt 0.389610 0.000000
vt 0.376623 0.000000
vt 0.324675 0.000000
vt 0.363636 0.000000
vt 0.350649 0.000000
vt 0.337662 0.000000
vt 0.740260 0.000000
vt 0.727273 0.000000
vt 0.714286 0.000000
vt 0.519481 0.000000
vt 0.532468 0.000000
vt 0.701299 0.000000
vt 0.545455 0.000000
vt 0.558442 0.000000
vt 0.571429 0.000000
vt 0.688312 0.000000
vt 0.584416 0.000000
vt 0.597403 0.000000
vt 0.675325 0.000000
vt 0.610390 0.000000
vt 0.623377 0.000000
vt 0.636364 0.000000
vt 0.662338 0.000000
vt 0.649351 0.000000
s 0
usemtl Cap.001
f 1/1/1 4/1/1 5/2/1 2/2/1
f 3/3/2 6/3/2 4/1/2 1/1/2
f 5/2/3 4/1/3 6/3/3 7/4/3
f 8/4/4 7/4/4 6/3/4 3/3/4
f 2/2/5 5/2/5 7/4/5 8/4/5
usemtl White_Matte.001
f 11/5/3 85/6/3 10/7/3
f 85/6/3 9/8/3 10/7/3
f 85/6/3 86/9/3 9/8/3
f 11/5/6 84/10/6 85/6/6
f 84/10/6 82/11/6 83/12/6
f 11/5/7 82/11/7 84/10/7
f 11/5/6 81/13/6 82/11/6
f 11/5/3 80/14/3 81/13/3
f 11/5/3 79/15/3 80/14/3
f 11/5/3 12/16/3 79/15/3
f 12/16/3 78/17/3 79/15/3
f 12/16/8 13/18/8 78/17/8
f 13/18/3 77/19/3 78/17/3
f 13/18/3 14/20/3 77/19/3
f 14/20/3 76/21/3 77/19/3
f 15/22/3 76/21/3 14/20/3
f 16/23/3 76/21/3 15/22/3
f 17/24/3 76/21/3 16/23/3
f 17/24/3 75/25/3 76/21/3
f 18/26/7 75/25/7 17/24/7
f 19/27/3 75/25/3 18/26/3
f 19/27/3 74/28/3 75/25/3
f 20/29/3 74/28/3 19/27/3
f 20/29/7 73/30/7 74/28/7
f 21/31/3 73/30/3 20/29/3
f 22/32/3 73/30/3 21/31/3
f 22/32/3 72/33/3 73/30/3
f 23/34/3 72/33/3 22/32/3
f 23/34/3 71/35/3 72/33/3
f 24/36/3 71/35/3 23/34/3
f 25/37/6 71/35/6 24/36/6
f 25/37/3 70/38/3 71/35/3
f 26/39/3 70/38/3 25/37/3
f 27/40/3 70/38/3 26/39/3
f 27/40/3 69/41/3 70/38/3
f 28/42/3 69/41/3 27/40/3
f 48/43/3 46/44/3 47/45/3
f 29/46/3 69/41/3 28/42/3
f 48/43/7 45/47/7 46/44/7
f 29/46/6 68/48/6 69/41/6
f 30/49/3 68/48/3 29/46/3
f 48/43/9 44/50/9 45/47/9
f 48/43/10 43/51/10 44/50/10
f 31/52/3 68/48/3 30/49/3
f 48/43/9 42/53/9 43/51/9
f 48/43/11 41/54/11 42/53/11
f 32/55/3 68/48/3 31/52/3
f 48/43/3 40/56/3 41/54/3
f 32/55/3 67/57/3 68/48/3
f 33/58/3 67/57/3 32/55/3
f 48/43/7 39/59/7 40/56/7
f 48/43/6 38/60/6 39/59/6
f 34/61/3 67/57/3 33/58/3
f 48/43/12 37/62/12 38/60/12
f 48/43/6 36/63/6 37/62/6
f 35/64/3 67/57/3 34/61/3
f 48/43/6 35/64/6 36/63/6
f 48/43/3 67/57/3 35/64/3
f 48/43/3 66/65/3 67/57/3
f 48/43/3 65/66/3 66/65/3
f 48/43/3 64/67/3 65/66/3
f 49/68/3 64/67/3 48/43/3
f 50/69/3 64/67/3 49/68/3
f 50/69/3 63/70/3 64/67/3
f 51/71/3 63/70/3 50/69/3
f 52/72/3 63/70/3 51/71/3
f 53/73/3 63/70/3 52/72/3
f 53/73/3 62/74/3 63/70/3
f 54/75/3 62/74/3 53/73/3
f 55/76/3 62/74/3 54/75/3
f 55/76/3 61/77/3 62/74/3
f 56/78/3 61/77/3 55/76/3
f 57/79/3 61/77/3 56/78/3
f 58/80/7 61/77/7 57/79/7
f 58/80/3 60/81/3 61/77/3
f 59/82/3 60/81/3 58/80/3
