# Blender 5.0.0
# www.blender.org
mtllib Button0.mtl
o button0
v 1.944027 1.109082 0.712979
v 1.944027 1.032158 0.712979
v 1.944027 1.109082 0.789902
v 1.960575 1.097579 0.724482
v 1.960575 1.043661 0.724482
v 1.960575 1.097579 0.778399
v 1.960575 1.043661 0.778399
v 1.944027 1.032158 0.789902
v 1.961323 1.070620 0.738729
v 1.961323 1.073567 0.738834
v 1.961323 1.076331 0.739141
v 1.961323 1.078899 0.739643
v 1.961323 1.081255 0.740330
v 1.961323 1.083388 0.741194
v 1.961323 1.085281 0.742225
v 1.961323 1.086922 0.743415
v 1.961323 1.088296 0.744755
v 1.961323 1.089389 0.746237
v 1.961323 1.090187 0.747851
v 1.961323 1.090676 0.749588
v 1.961323 1.090842 0.751441
v 1.961323 1.090676 0.753293
v 1.961323 1.090187 0.755030
v 1.961323 1.089389 0.756644
v 1.961323 1.088296 0.758126
v 1.961323 1.086922 0.759466
v 1.961323 1.085281 0.760656
v 1.961323 1.083388 0.761688
v 1.961323 1.081255 0.762551
v 1.961323 1.078899 0.763238
v 1.961323 1.076331 0.763740
v 1.961323 1.073567 0.764047
v 1.961323 1.070620 0.764152
v 1.961323 1.067673 0.764047
v 1.961323 1.064909 0.763740
v 1.961323 1.062341 0.763238
v 1.961323 1.059984 0.762551
v 1.961323 1.057852 0.761688
v 1.961323 1.055959 0.760656
v 1.961323 1.054318 0.759466
v 1.961323 1.052944 0.758126
v 1.961323 1.051851 0.756644
v 1.961323 1.051053 0.755030
v 1.961323 1.050563 0.753293
v 1.961323 1.050397 0.751441
v 1.961323 1.050563 0.749588
v 1.961323 1.051053 0.747851
v 1.961323 1.051851 0.746237
v 1.961323 1.052944 0.744755
v 1.961323 1.054318 0.743415
v 1.961323 1.055959 0.742225
v 1.961323 1.057852 0.741194
v 1.961323 1.059984 0.740330
v 1.961323 1.062341 0.739643
v 1.961323 1.064909 0.739141
v 1.961323 1.067673 0.738834
v 1.961323 1.070620 0.744392
v 1.961323 1.068386 0.744446
v 1.961323 1.066310 0.744609
v 1.961323 1.064400 0.744875
v 1.961323 1.062661 0.745243
v 1.961323 1.061102 0.745709
v 1.961323 1.059729 0.746269
v 1.961323 1.058548 0.746921
v 1.961323 1.057566 0.747661
v 1.961323 1.056791 0.748487
v 1.961323 1.056229 0.749394
v 1.961323 1.055886 0.750379
v 1.961323 1.055771 0.751441
v 1.961323 1.055886 0.752502
v 1.961323 1.056229 0.753487
v 1.961323 1.056791 0.754395
v 1.961323 1.057566 0.755220
v 1.961323 1.058548 0.755960
v 1.961323 1.059729 0.756612
v 1.961323 1.061102 0.757172
v 1.961323 1.062661 0.757638
v 1.961323 1.064400 0.758006
v 1.961323 1.066310 0.758272
v 1.961323 1.068386 0.758435
v 1.961323 1.070620 0.758490
v 1.961323 1.072854 0.758435
v 1.961323 1.074930 0.758272
v 1.961323 1.076840 0.758006
v 1.961323 1.078578 0.757638
v 1.961323 1.080138 0.757172
v 1.961323 1.081511 0.756612
v 1.961323 1.082692 0.755960
v 1.961323 1.083674 0.755220
v 1.961323 1.084449 0.754395
v 1.961323 1.085011 0.753487
v 1.961323 1.085353 0.752502
v 1.961323 1.085469 0.751441
v 1.961323 1.085353 0.750379
v 1.961323 1.085011 0.749394
v 1.961323 1.084449 0.748487
v 1.961323 1.083674 0.747661
v 1.961323 1.082692 0.746921
v 1.961323 1.081511 0.746269
v 1.961323 1.080138 0.745709
v 1.961323 1.078578 0.745243
v 1.961323 1.076840 0.744875
v 1.961323 1.074930 0.744609
v 1.961323 1.072854 0.744446
vn 0.5707 -0.0000 -0.8211
vn 0.5708 0.8211 -0.0000
vn 1.0000 -0.0000 -0.0000
vn 0.5707 -0.0000 0.8211
vn 0.5708 -0.8211 -0.0000
vn 1.0000 -0.0000 0.0001
vn 1.0000 -0.0000 -0.0001
vn 1.0000 -0.0000 -0.0002
vt 0.509615 0.576923
vt 0.490385 0.576923
vt 0.509615 0.596154
vt 0.490385 0.596154
vt 0.136842 0.000000
vt 0.115789 0.000000
vt 0.126316 0.000000
vt 0.105263 0.000000
vt 0.147368 0.000000
vt 0.094737 0.000000
vt 0.157895 0.000000
vt 0.084211 0.000000
vt 0.168421 0.000000
vt 0.073684 0.000000
vt 0.178947 0.000000
vt 0.063158 0.000000
vt 0.189474 0.000000
vt 0.884211 0.000000
vt 0.873684 0.000000
vt 0.894737 0.000000
vt 0.905263 0.000000
vt 0.863158 0.000000
vt 0.052632 0.000000
vt 0.200000 0.000000
vt 0.915789 0.000000
vt 0.852632 0.000000
vt 0.926316 0.000000
vt 0.842105 0.000000
vt 0.936842 0.000000
vt 0.831579 0.000000
vt 0.042105 0.000000
vt 0.210526 0.000000
vt 0.947368 0.000000
vt 0.821053 0.000000
vt 0.957895 0.000000
vt 0.810526 0.000000
vt 0.221053 0.000000
vt 0.031579 0.000000
vt 0.968421 0.000000
vt 0.800000 0.000000
vt 0.231579 0.000000
vt 0.021053 0.000000
vt 0.978947 0.000000
vt 0.789474 0.000000
vt 0.989474 0.000000
vt 0.778947 0.000000
vt 0.242105 0.000000
vt 0.010526 0.000000
vt 1.000000 0.000000
vt 0.768421 0.000000
vt 0.252632 0.000000
vt 0.000000 0.000000
vt 0.505263 0.000000
vt 0.757895 0.000000
vt 0.263158 0.000000
vt 0.747368 0.000000
vt 0.515789 0.000000
vt 0.494737 0.000000
vt 0.736842 0.000000
vt 0.526316 0.000000
vt 0.273684 0.000000
vt 0.484211 0.000000
vt 0.726316 0.000000
vt 0.536842 0.000000
vt 0.284211 0.000000
vt 0.473684 0.000000
vt 0.715789 0.000000
vt 0.547368 0.000000
vt 0.705263 0.000000
vt 0.557895 0.000000
vt 0.294737 0.000000
vt 0.463158 0.000000
vt 0.694737 0.000000
vt 0.568421 0.000000
vt 0.305263 0.000000
vt 0.452632 0.000000
vt 0.684211 0.000000
vt 0.578947 0.000000
vt 0.673684 0.000000
vt 0.589474 0.000000
vt 0.315789 0.000000
vt 0.442105 0.000000
vt 0.663158 0.000000
vt 0.600000 0.000000
vt 0.652632 0.000000
vt 0.610526 0.000000
vt 0.642105 0.000000
vt 0.621053 0.000000
vt 0.326316 0.000000
vt 0.431579 0.000000
vt 0.631579 0.000000
vt 0.336842 0.000000
vt 0.421053 0.000000
vt 0.347368 0.000000
vt 0.410526 0.000000
vt 0.357895 0.000000
vt 0.400000 0.000000
vt 0.368421 0.000000
vt 0.389474 0.000000
vt 0.378947 0.000000
s 0
usemtl Cap.001
f 1/1/1 4/1/1 5/2/1 2/2/1
f 3/3/2 6/3/2 4/1/2 1/1/2
f 5/2/3 4/1/3 6/3/3 7/4/3
f 8/4/4 7/4/4 6/3/4 3/3/4
f 2/2/5 5/2/5 7/4/5 8/4/5
usemtl White_Matte.001
f 22/5/3 20/6/3 21/7/3
f 22/5/3 19/8/3 20/6/3
f 23/9/3 19/8/3 22/5/3
f 23/9/3 18/10/3 19/8/3
f 24/11/3 18/10/3 23/9/3
f 24/11/3 17/12/3 18/10/3
f 25/13/3 17/12/3 24/11/3
f 25/13/3 16/14/3 17/12/3
f 26/15/3 16/14/3 25/13/3
f 26/15/3 15/16/3 16/14/3
f 27/17/3 93/18/3 26/15/3
f 93/18/3 15/16/3 26/15/3
f 27/17/3 92/19/3 93/18/3
f 94/20/6 15/16/6 93/18/6
f 95/21/3 15/16/3 94/20/3
f 27/17/3 91/22/3 92/19/3
f 95/21/3 14/23/3 15/16/3
f 28/24/3 91/22/3 27/17/3
f 96/25/3 14/23/3 95/21/3
f 28/24/3 90/26/3 91/22/3
f 97/27/3 14/23/3 96/25/3
f 28/24/3 89/28/3 90/26/3
f 98/29/3 14/23/3 97/27/3
f 28/24/3 88/30/3 89/28/3
f 98/29/3 13/31/3 14/23/3
f 29/32/3 88/30/3 28/24/3
f 99/33/3 13/31/3 98/29/3
f 29/32/3 87/34/3 88/30/3
f 100/35/3 13/31/3 99/33/3
f 29/32/3 86/36/3 87/34/3
f 30/37/3 86/36/3 29/32/3
f 100/35/3 12/38/3 13/31/3
f 101/39/3 12/38/3 100/35/3
f 30/37/3 85/40/3 86/36/3
f 31/41/3 85/40/3 30/37/3
f 101/39/3 11/42/3 12/38/3
f 102/43/3 11/42/3 101/39/3
f 31/41/3 84/44/3 85/40/3
f 103/45/3 11/42/3 102/43/3
f 31/41/3 83/46/3 84/44/3
f 32/47/3 83/46/3 31/41/3
f 103/45/7 10/48/7 11/42/7
f 104/49/3 10/48/3 103/45/3
f 32/47/3 82/50/3 83/46/3
f 33/51/3 82/50/3 32/47/3
f 104/49/3 9/52/3 10/48/3
f 57/53/3 9/52/3 104/49/3
f 33/51/3 81/54/3 82/50/3
f 34/55/3 81/54/3 33/51/3
f 34/55/3 80/56/3 81/54/3
f 58/57/3 9/52/3 57/53/3
f 58/57/3 56/58/3 9/52/3
f 34/55/3 79/59/3 80/56/3
f 59/60/3 56/58/3 58/57/3
f 35/61/3 79/59/3 34/55/3
f 59/60/7 55/62/7 56/58/7
f 35/61/3 78/63/3 79/59/3
f 60/64/3 55/62/3 59/60/3
f 36/65/3 78/63/3 35/61/3
f 60/64/3 54/66/3 55/62/3
f 36/65/3 77/67/3 78/63/3
f 61/68/3 54/66/3 60/64/3
f 36/65/3 76/69/3 77/67/3
f 62/70/3 54/66/3 61/68/3
f 37/71/3 76/69/3 36/65/3
f 62/70/3 53/72/3 54/66/3
f 37/71/3 75/73/3 76/69/3
f 63/74/3 53/72/3 62/70/3
f 38/75/3 75/73/3 37/71/3
f 63/74/7 52/76/7 53/72/7
f 38/75/3 74/77/3 75/73/3
f 64/78/3 52/76/3 63/74/3
f 38/75/3 73/79/3 74/77/3
f 65/80/3 52/76/3 64/78/3
f 39/81/3 73/79/3 38/75/3
f 65/80/3 51/82/3 52/76/3
f 39/81/3 72/83/3 73/79/3
f 66/84/7 51/82/7 65/80/7
f 39/81/3 71/85/3 72/83/3
f 67/86/3 51/82/3 66/84/3
f 39/81/3 70/87/3 71/85/3
f 68/88/3 51/82/3 67/86/3
f 40/89/3 70/87/3 39/81/3
f 68/88/3 50/90/3 51/82/3
f 40/89/6 69/91/6 70/87/6
f 69/91/8 50/90/8 68/88/8
f 40/89/3 50/90/3 69/91/3
f 41/92/3 50/90/3 40/89/3
f 41/92/3 49/93/3 50/90/3
f 42/94/3 49/93/3 41/92/3
f 42/94/3 48/95/3 49/93/3
f 43/96/3 48/95/3 42/94/3
f 43/96/3 47/97/3 48/95/3
f 44/98/3 47/97/3 43/96/3
f 44/98/3 46/99/3 47/97/3
f 45/100/3 46/99/3 44/98/3
