# Blender 5.0.0
# www.blender.org
mtllib Button8.mtl
o button8
v 1.944027 1.186209 0.712979
v 1.944027 1.109286 0.712979
v 1.944027 1.186209 0.789902
v 1.960575 1.174706 0.724482
v 1.960575 1.120789 0.724482
v 1.960575 1.174706 0.778399
v 1.960575 1.120789 0.778399
v 1.944027 1.109286 0.789902
v 1.961323 1.138614 0.738758
v 1.961323 1.139608 0.738797
v 1.961323 1.140581 0.738913
v 1.961323 1.141528 0.739106
v 1.961323 1.142445 0.739377
v 1.961323 1.143327 0.739724
v 1.961323 1.144170 0.740147
v 1.961323 1.144969 0.740647
v 1.961323 1.145720 0.741223
v 1.961323 1.146419 0.741875
v 1.961323 1.147060 0.742603
v 1.961323 1.147640 0.743406
v 1.961323 1.148155 0.744285
v 1.961323 1.148729 0.743479
v 1.961323 1.149341 0.742747
v 1.961323 1.149988 0.742089
v 1.961323 1.150665 0.741503
v 1.961323 1.151367 0.740990
v 1.961323 1.152089 0.740547
v 1.961323 1.152827 0.740175
v 1.961323 1.153576 0.739872
v 1.961323 1.154331 0.739638
v 1.961323 1.155089 0.739472
v 1.961323 1.155843 0.739373
v 1.961323 1.156590 0.739340
v 1.961323 1.158198 0.739442
v 1.961323 1.159726 0.739742
v 1.961323 1.161163 0.740226
v 1.961323 1.162498 0.740885
v 1.961323 1.163719 0.741706
v 1.961323 1.164815 0.742678
v 1.961323 1.165773 0.743789
v 1.961323 1.166584 0.745028
v 1.961323 1.167234 0.746384
v 1.961323 1.167712 0.747844
v 1.961323 1.168008 0.749398
v 1.961323 1.168109 0.751033
v 1.961323 1.168009 0.752727
v 1.961323 1.167717 0.754338
v 1.961323 1.167244 0.755854
v 1.961323 1.166601 0.757263
v 1.961323 1.165799 0.758551
v 1.961323 1.164851 0.759709
v 1.961323 1.163767 0.760722
v 1.961323 1.162559 0.761578
v 1.961323 1.161237 0.762266
v 1.961323 1.159814 0.762772
v 1.961323 1.158300 0.763085
v 1.961323 1.156707 0.763192
v 1.961323 1.155871 0.763156
v 1.961323 1.155051 0.763049
v 1.961323 1.154250 0.762873
v 1.961323 1.153468 0.762630
v 1.961323 1.152709 0.762321
v 1.961323 1.151973 0.761948
v 1.961323 1.151262 0.761514
v 1.961323 1.150579 0.761020
v 1.961323 1.149925 0.760468
v 1.961323 1.149301 0.759859
v 1.961323 1.148711 0.759196
v 1.961323 1.148155 0.758480
v 1.961323 1.147584 0.759385
v 1.961323 1.146976 0.760211
v 1.961323 1.146330 0.760957
v 1.961323 1.145645 0.761623
v 1.961323 1.144920 0.762211
v 1.961323 1.144155 0.762719
v 1.961323 1.143349 0.763149
v 1.961323 1.142501 0.763500
v 1.961323 1.141610 0.763773
v 1.961323 1.140676 0.763967
v 1.961323 1.139697 0.764084
v 1.961323 1.138672 0.764123
v 1.961323 1.137118 0.764009
v 1.961323 1.135635 0.763676
v 1.961323 1.134234 0.763137
v 1.961323 1.132928 0.762408
v 1.961323 1.131730 0.761500
v 1.961323 1.130651 0.760429
v 1.961323 1.129705 0.759207
v 1.961323 1.128903 0.757849
v 1.961323 1.128258 0.756367
v 1.961323 1.127782 0.754777
v 1.961323 1.127487 0.753091
v 1.961323 1.127386 0.751324
v 1.961323 1.127486 0.749586
v 1.961323 1.127778 0.747929
v 1.961323 1.128249 0.746367
v 1.961323 1.128888 0.744912
v 1.961323 1.129683 0.743579
v 1.961323 1.130622 0.742380
v 1.961323 1.131694 0.741329
v 1.961323 1.132885 0.740439
v 1.961323 1.134185 0.739724
v 1.961323 1.135581 0.739196
v 1.961323 1.137061 0.738870
v 1.961323 1.156707 0.745041
v 1.961323 1.155918 0.745098
v 1.961323 1.155156 0.745264
v 1.961323 1.154430 0.745531
v 1.961323 1.153746 0.745892
v 1.961323 1.153114 0.746340
v 1.961323 1.152540 0.746867
v 1.961323 1.152033 0.747465
v 1.961323 1.151600 0.748127
v 1.961323 1.151250 0.748845
v 1.961323 1.150990 0.749613
v 1.961323 1.150828 0.750423
v 1.961323 1.150773 0.751266
v 1.961323 1.150830 0.752097
v 1.961323 1.150995 0.752899
v 1.961323 1.151260 0.753662
v 1.961323 1.151617 0.754380
v 1.961323 1.152059 0.755043
v 1.961323 1.152576 0.755644
v 1.961323 1.153161 0.756174
v 1.961323 1.153806 0.756627
v 1.961323 1.154503 0.756993
v 1.961323 1.155244 0.757264
v 1.961323 1.156020 0.757433
v 1.961323 1.156823 0.757491
v 1.961323 1.157684 0.757438
v 1.961323 1.158490 0.757284
v 1.961323 1.159238 0.757032
v 1.961323 1.159924 0.756687
v 1.961323 1.160542 0.756254
v 1.961323 1.161092 0.755738
v 1.961323 1.161567 0.755143
v 1.961323 1.161964 0.754474
v 1.961323 1.162280 0.753736
v 1.961323 1.162510 0.752932
v 1.961323 1.162651 0.752069
v 1.961323 1.162699 0.751150
v 1.961323 1.162646 0.750284
v 1.961323 1.162493 0.749465
v 1.961323 1.162245 0.748698
v 1.961323 1.161908 0.747989
v 1.961323 1.161488 0.747343
v 1.961323 1.160990 0.746765
v 1.961323 1.160420 0.746261
v 1.961323 1.159786 0.745836
v 1.961323 1.159091 0.745497
v 1.961323 1.158342 0.745247
v 1.961323 1.157546 0.745094
v 1.961323 1.139080 0.744459
v 1.961323 1.138259 0.744509
v 1.961323 1.137463 0.744658
v 1.961323 1.136699 0.744904
v 1.961323 1.135977 0.745248
v 1.961323 1.135306 0.745689
v 1.961323 1.134695 0.746227
v 1.961323 1.134153 0.746860
v 1.961323 1.133689 0.747588
v 1.961323 1.133312 0.748411
v 1.961323 1.133032 0.749328
v 1.961323 1.132857 0.750338
v 1.961323 1.132797 0.751441
v 1.961323 1.132850 0.752433
v 1.961323 1.133008 0.753372
v 1.961323 1.133263 0.754249
v 1.961323 1.133611 0.755060
v 1.961323 1.134047 0.755799
v 1.961323 1.134564 0.756458
v 1.961323 1.135157 0.757033
v 1.961323 1.135822 0.757517
v 1.961323 1.136552 0.757903
v 1.961323 1.137341 0.758187
v 1.961323 1.138186 0.758362
v 1.961323 1.139080 0.758422
v 1.961323 1.139985 0.758364
v 1.961323 1.140838 0.758195
v 1.961323 1.141632 0.757918
v 1.961323 1.142363 0.757538
v 1.961323 1.143027 0.757060
v 1.961323 1.143617 0.756487
v 1.961323 1.144130 0.755825
v 1.961323 1.144561 0.755078
v 1.961323 1.144904 0.754249
v 1.961323 1.145156 0.753345
v 1.961323 1.145310 0.752368
v 1.961323 1.145362 0.751324
v 1.961323 1.145308 0.750346
v 1.961323 1.145148 0.749422
v 1.961323 1.144888 0.748558
v 1.961323 1.144535 0.747760
v 1.961323 1.144095 0.747035
v 1.961323 1.143574 0.746387
v 1.961323 1.142977 0.745822
v 1.961323 1.142312 0.745347
v 1.961323 1.141583 0.744968
v 1.961323 1.140797 0.744689
v 1.961323 1.139961 0.744518
vn 0.5707 -0.0000 -0.8211
vn 0.5708 0.8211 -0.0000
vn 1.0000 -0.0000 -0.0000
vn 0.5707 -0.0000 0.8211
vn 0.5708 -0.8211 -0.0000
vn 1.0000 -0.0000 -0.0001
vn 1.0000 -0.0000 0.0001
vn 1.0000 -0.0000 0.0004
vn 1.0000 -0.0000 -0.0002
vn 1.0000 -0.0000 -0.0003
vn 1.0000 -0.0000 0.0002
vt 0.509615 0.576923
vt 0.490385 0.576923
vt 0.509615 0.596154
vt 0.490385 0.596154
vt 0.193717 0.000000
vt 0.183246 0.000000
vt 0.188482 0.000000
vt 0.198953 0.000000
vt 0.178010 0.000000
vt 0.204188 0.000000
vt 0.172775 0.000000
vt 0.209424 0.000000
vt 0.167539 0.000000
vt 0.214660 0.000000
vt 0.162304 0.000000
vt 0.219895 0.000000
vt 0.157068 0.000000
vt 0.225131 0.000000
vt 0.151832 0.000000
vt 0.230366 0.000000
vt 0.691099 0.000000
vt 0.146597 0.000000
vt 0.685864 0.000000
vt 0.696335 0.000000
vt 0.680628 0.000000
vt 0.701571 0.000000
vt 0.235602 0.000000
vt 0.675393 0.000000
vt 0.141361 0.000000
vt 0.706806 0.000000
vt 0.670157 0.000000
vt 0.712042 0.000000
vt 0.664921 0.000000
vt 0.717277 0.000000
vt 0.659686 0.000000
vt 0.722513 0.000000
vt 0.240838 0.000000
vt 0.136126 0.000000
vt 0.654450 0.000000
vt 0.727749 0.000000
vt 0.649215 0.000000
vt 0.732984 0.000000
vt 0.643979 0.000000
vt 0.246073 0.000000
vt 0.738220 0.000000
vt 0.130890 0.000000
vt 0.638743 0.000000
vt 0.743455 0.000000
vt 0.633508 0.000000
vt 0.748691 0.000000
vt 0.251309 0.000000
vt 0.125654 0.000000
vt 0.628272 0.000000
vt 0.502618 0.000000
vt 0.623037 0.000000
vt 0.256545 0.000000
vt 0.507853 0.000000
vt 0.120419 0.000000
vt 0.617801 0.000000
vt 0.513089 0.000000
vt 0.261780 0.000000
vt 0.115183 0.000000
vt 0.612565 0.000000
vt 0.518325 0.000000
vt 0.109948 0.000000
vt 0.267016 0.000000
vt 0.607330 0.000000
vt 0.523560 0.000000
vt 0.104712 0.000000
vt 0.272251 0.000000
vt 0.602094 0.000000
vt 0.528796 0.000000
vt 0.099476 0.000000
vt 0.277487 0.000000
vt 0.596859 0.000000
vt 0.534031 0.000000
vt 0.094241 0.000000
vt 0.282723 0.000000
vt 0.591623 0.000000
vt 0.539267 0.000000
vt 0.089005 0.000000
vt 0.586387 0.000000
vt 0.544503 0.000000
vt 0.287958 0.000000
vt 0.581152 0.000000
vt 0.549738 0.000000
vt 0.083770 0.000000
vt 0.293194 0.000000
vt 0.575916 0.000000
vt 0.554974 0.000000
vt 0.570681 0.000000
vt 0.560209 0.000000
vt 0.565445 0.000000
vt 0.078534 0.000000
vt 0.298429 0.000000
vt 0.073298 0.000000
vt 0.303665 0.000000
vt 0.068063 0.000000
vt 0.308901 0.000000
vt 0.062827 0.000000
vt 0.314136 0.000000
vt 0.319372 0.000000
vt 0.057592 0.000000
vt 0.052356 0.000000
vt 0.324607 0.000000
vt 0.047120 0.000000
vt 0.329843 0.000000
vt 0.041885 0.000000
vt 0.335079 0.000000
vt 0.942408 0.000000
vt 0.036649 0.000000
vt 0.340314 0.000000
vt 0.937173 0.000000
vt 0.947644 0.000000
vt 0.931937 0.000000
vt 0.952880 0.000000
vt 0.926702 0.000000
vt 0.958115 0.000000
vt 0.031414 0.000000
vt 0.345550 0.000000
vt 0.921466 0.000000
vt 0.963351 0.000000
vt 0.916230 0.000000
vt 0.968586 0.000000
vt 0.026178 0.000000
vt 0.350785 0.000000
vt 0.910995 0.000000
vt 0.973822 0.000000
vt 0.905759 0.000000
vt 0.979058 0.000000
vt 0.356021 0.000000
vt 0.020942 0.000000
vt 0.900524 0.000000
vt 0.984293 0.000000
vt 0.361257 0.000000
vt 0.015707 0.000000
vt 0.895288 0.000000
vt 0.989529 0.000000
vt 0.890052 0.000000
vt 0.366492 0.000000
vt 0.994764 0.000000
vt 0.010471 0.000000
vt 0.884817 0.000000
vt 1.000000 0.000000
vt 0.371728 0.000000
vt 0.005236 0.000000
vt 0.879581 0.000000
vt 0.753927 0.000000
vt 0.376963 0.000000
vt 0.000000 0.000000
vt 0.874346 0.000000
vt 0.759162 0.000000
vt 0.382199 0.000000
vt 0.497382 0.000000
vt 0.764398 0.000000
vt 0.869110 0.000000
vt 0.769634 0.000000
vt 0.863874 0.000000
vt 0.387435 0.000000
vt 0.492147 0.000000
vt 0.774869 0.000000
vt 0.858639 0.000000
vt 0.780105 0.000000
vt 0.853403 0.000000
vt 0.392670 0.000000
vt 0.486911 0.000000
vt 0.785340 0.000000
vt 0.848168 0.000000
vt 0.790576 0.000000
vt 0.842932 0.000000
vt 0.397906 0.000000
vt 0.481675 0.000000
vt 0.795812 0.000000
vt 0.837696 0.000000
vt 0.801047 0.000000
vt 0.832461 0.000000
vt 0.806283 0.000000
vt 0.827225 0.000000
vt 0.811518 0.000000
vt 0.821990 0.000000
vt 0.403141 0.000000
vt 0.476440 0.000000
vt 0.816754 0.000000
vt 0.408377 0.000000
vt 0.471204 0.000000
vt 0.413613 0.000000
vt 0.465969 0.000000
vt 0.418848 0.000000
vt 0.460733 0.000000
vt 0.424084 0.000000
vt 0.455497 0.000000
vt 0.429319 0.000000
vt 0.450262 0.000000
vt 0.434555 0.000000
vt 0.445026 0.000000
vt 0.439791 0.000000
s 0
usemtl Cap.001
f 1/1/1 4/1/1 5/2/1 2/2/1
f 3/3/2 6/3/2 4/1/2 1/1/2
f 5/2/3 4/1/3 6/3/3 7/4/3
f 8/4/4 7/4/4 6/3/4 3/3/4
f 2/2/5 5/2/5 7/4/5 8/4/5
usemtl White_Matte.001
f 46/5/6 44/6/6 45/7/6
f 47/8/3 44/6/3 46/5/3
f 47/8/7 43/9/7 44/6/7
f 48/10/3 43/9/3 47/8/3
f 48/10/3 42/11/3 43/9/3
f 49/12/3 42/11/3 48/10/3
f 49/12/3 41/13/3 42/11/3
f 50/14/3 41/13/3 49/12/3
f 50/14/3 40/15/3 41/13/3
f 51/16/3 40/15/3 50/14/3
f 51/16/3 39/17/3 40/15/3
f 52/18/3 39/17/3 51/16/3
f 52/18/3 38/19/3 39/17/3
f 53/20/3 38/19/3 52/18/3
f 53/20/3 141/21/3 38/19/3
f 141/21/3 37/22/3 38/19/3
f 53/20/6 140/23/6 141/21/6
f 142/24/3 37/22/3 141/21/3
f 53/20/3 139/25/3 140/23/3
f 143/26/3 37/22/3 142/24/3
f 54/27/3 139/25/3 53/20/3
f 54/27/6 138/28/6 139/25/6
f 143/26/3 36/29/3 37/22/3
f 144/30/8 36/29/8 143/26/8
f 54/27/7 137/31/7 138/28/7
f 145/32/9 36/29/9 144/30/9
f 54/27/3 136/33/3 137/31/3
f 146/34/7 36/29/7 145/32/7
f 54/27/3 135/35/3 136/33/3
f 147/36/3 36/29/3 146/34/3
f 55/37/3 135/35/3 54/27/3
f 147/36/3 35/38/3 36/29/3
f 55/37/3 134/39/3 135/35/3
f 148/40/3 35/38/3 147/36/3
f 55/37/6 133/41/6 134/39/6
f 149/42/3 35/38/3 148/40/3
f 55/37/7 132/43/7 133/41/7
f 56/44/3 132/43/3 55/37/3
f 150/45/3 35/38/3 149/42/3
f 150/45/3 34/46/3 35/38/3
f 56/44/6 131/47/6 132/43/6
f 151/48/3 34/46/3 150/45/3
f 56/44/3 130/49/3 131/47/3
f 152/50/3 34/46/3 151/48/3
f 57/51/3 130/49/3 56/44/3
f 152/50/6 33/52/6 34/46/6
f 57/51/3 129/53/3 130/49/3
f 105/54/3 33/52/3 152/50/3
f 57/51/3 128/55/3 129/53/3
f 58/56/3 128/55/3 57/51/3
f 106/57/3 33/52/3 105/54/3
f 106/57/3 32/58/3 33/52/3
f 58/56/3 127/59/3 128/55/3
f 107/60/3 32/58/3 106/57/3
f 59/61/3 127/59/3 58/56/3
f 107/60/3 31/62/3 32/58/3
f 59/61/3 126/63/3 127/59/3
f 108/64/3 31/62/3 107/60/3
f 108/64/3 30/65/3 31/62/3
f 60/66/3 126/63/3 59/61/3
f 60/66/3 125/67/3 126/63/3
f 109/68/3 30/65/3 108/64/3
f 109/68/6 29/69/6 30/65/6
f 61/70/3 125/67/3 60/66/3
f 61/70/3 124/71/3 125/67/3
f 110/72/3 29/69/3 109/68/3
f 110/72/3 28/73/3 29/69/3
f 62/74/3 124/71/3 61/70/3
f 62/74/3 123/75/3 124/71/3
f 111/76/3 28/73/3 110/72/3
f 111/76/3 27/77/3 28/73/3
f 63/78/3 123/75/3 62/74/3
f 63/78/6 122/79/6 123/75/6
f 112/80/3 27/77/3 111/76/3
f 112/80/3 26/81/3 27/77/3
f 63/78/3 121/82/3 122/79/3
f 113/83/3 26/81/3 112/80/3
f 64/84/3 121/82/3 63/78/3
f 64/84/3 120/85/3 121/82/3
f 114/86/3 26/81/3 113/83/3
f 114/86/3 25/87/3 26/81/3
f 65/88/3 120/85/3 64/84/3
f 65/88/3 119/89/3 120/85/3
f 115/90/3 25/87/3 114/86/3
f 65/88/3 118/91/3 119/89/3
f 116/92/3 25/87/3 115/90/3
f 65/88/3 117/93/3 118/91/3
f 117/93/3 25/87/3 116/92/3
f 65/88/3 25/87/3 117/93/3
f 65/88/3 24/94/3 25/87/3
f 66/95/3 24/94/3 65/88/3
f 66/95/3 23/96/3 24/94/3
f 67/97/3 23/96/3 66/95/3
f 67/97/3 22/98/3 23/96/3
f 68/99/3 22/98/3 67/97/3
f 68/99/3 21/100/3 22/98/3
f 69/101/3 21/100/3 68/99/3
f 70/102/3 21/100/3 69/101/3
f 70/102/3 20/103/3 21/100/3
f 70/102/3 19/104/3 20/103/3
f 71/105/3 19/104/3 70/102/3
f 71/105/3 18/106/3 19/104/3
f 72/107/3 18/106/3 71/105/3
f 72/107/3 17/108/3 18/106/3
f 73/109/3 17/108/3 72/107/3
f 73/109/3 189/110/3 17/108/3
f 189/110/3 16/111/3 17/108/3
f 74/112/3 189/110/3 73/109/3
f 74/112/6 188/113/6 189/110/6
f 190/114/3 16/111/3 189/110/3
f 74/112/7 187/115/7 188/113/7
f 191/116/7 16/111/7 190/114/7
f 74/112/6 186/117/6 187/115/6
f 192/118/3 16/111/3 191/116/3
f 192/118/3 15/119/3 16/111/3
f 75/120/3 186/117/3 74/112/3
f 75/120/3 185/121/3 186/117/3
f 193/122/3 15/119/3 192/118/3
f 75/120/3 184/123/3 185/121/3
f 194/124/3 15/119/3 193/122/3
f 194/124/3 14/125/3 15/119/3
f 76/126/3 184/123/3 75/120/3
f 76/126/6 183/127/6 184/123/6
f 195/128/3 14/125/3 194/124/3
f 76/126/3 182/129/3 183/127/3
f 196/130/3 14/125/3 195/128/3
f 77/131/3 182/129/3 76/126/3
f 196/130/3 13/132/3 14/125/3
f 77/131/7 181/133/7 182/129/7
f 197/134/7 13/132/7 196/130/7
f 78/135/3 181/133/3 77/131/3
f 197/134/3 12/136/3 13/132/3
f 78/135/3 180/137/3 181/133/3
f 198/138/3 12/136/3 197/134/3
f 78/135/7 179/139/7 180/137/7
f 79/140/3 179/139/3 78/135/3
f 199/141/3 12/136/3 198/138/3
f 199/141/3 11/142/3 12/136/3
f 79/140/3 178/143/3 179/139/3
f 200/144/3 11/142/3 199/141/3
f 80/145/3 178/143/3 79/140/3
f 200/144/3 10/146/3 11/142/3
f 80/145/3 177/147/3 178/143/3
f 153/148/3 10/146/3 200/144/3
f 81/149/3 177/147/3 80/145/3
f 153/148/3 9/150/3 10/146/3
f 81/149/3 176/151/3 177/147/3
f 154/152/3 9/150/3 153/148/3
f 82/153/3 176/151/3 81/149/3
f 154/152/3 104/154/3 9/150/3
f 155/155/3 104/154/3 154/152/3
f 82/153/3 175/156/3 176/151/3
f 156/157/3 104/154/3 155/155/3
f 82/153/3 174/158/3 175/156/3
f 83/159/3 174/158/3 82/153/3
f 156/157/3 103/160/3 104/154/3
f 157/161/3 103/160/3 156/157/3
f 83/159/3 173/162/3 174/158/3
f 158/163/3 103/160/3 157/161/3
f 83/159/3 172/164/3 173/162/3
f 84/165/3 172/164/3 83/159/3
f 158/163/6 102/166/6 103/160/6
f 159/167/7 102/166/7 158/163/7
f 84/165/6 171/168/6 172/164/6
f 160/169/3 102/166/3 159/167/3
f 84/165/7 170/170/7 171/168/7
f 85/171/3 170/170/3 84/165/3
f 160/169/7 101/172/7 102/166/7
f 161/173/6 101/172/6 160/169/6
f 85/171/3 169/174/3 170/170/3
f 162/175/3 101/172/3 161/173/3
f 85/171/3 168/176/3 169/174/3
f 163/177/3 101/172/3 162/175/3
f 85/171/3 167/178/3 168/176/3
f 164/179/3 101/172/3 163/177/3
f 85/171/3 166/180/3 167/178/3
f 86/181/3 166/180/3 85/171/3
f 164/179/3 100/182/3 101/172/3
f 165/183/10 100/182/10 164/179/10
f 86/181/11 165/183/11 166/180/11
f 86/181/3 100/182/3 165/183/3
f 87/184/3 100/182/3 86/181/3
f 87/184/3 99/185/3 100/182/3
f 88/186/3 99/185/3 87/184/3
f 88/186/3 98/187/3 99/185/3
f 89/188/3 98/187/3 88/186/3
f 89/188/3 97/189/3 98/187/3
f 90/190/3 97/189/3 89/188/3
f 90/190/3 96/191/3 97/189/3
f 91/192/3 96/191/3 90/190/3
f 91/192/3 95/193/3 96/191/3
f 92/194/3 95/193/3 91/192/3
f 92/194/3 94/195/3 95/193/3
f 93/196/3 94/195/3 92/194/3
