# Blender 5.0.0
# www.blender.org
mtllib Button1.mtl
o button1
v 1.944027 1.340696 0.790309
v 1.944027 1.263773 0.790309
v 1.944027 1.340696 0.867232
v 1.960575 1.329193 0.801812
v 1.960575 1.275276 0.801812
v 1.960575 1.329193 0.855729
v 1.960575 1.275276 0.855729
v 1.944027 1.263773 0.867232
v 1.961323 1.323420 0.825726
v 1.961323 1.323420 0.831815
v 1.961323 1.281049 0.831815
v 1.961323 1.281049 0.825726
vn 0.5707 -0.0000 -0.8211
vn 0.5708 0.8211 -0.0000
vn 1.0000 -0.0000 -0.0000
vn 0.5707 -0.0000 0.8211
vn 0.5708 -0.8211 -0.0000
vt 0.509615 0.576923
vt 0.490385 0.576923
vt 0.509615 0.596154
vt 0.490385 0.596154
vt 0.666667 0.000000
vt 0.000000 0.000000
vt 0.333333 0.000000
vt 1.000000 0.000000
s 0
usemtl Cap.001
f 1/1/1 4/1/1 5/2/1 2/2/1
f 3/3/2 6/3/2 4/1/2 1/1/2
f 5/2/3 4/1/3 6/3/3 7/4/3
f 8/4/4 7/4/4 6/3/4 3/3/4
f 2/2/5 5/2/5 7/4/5 8/4/5
usemtl White_Matte.001
f 11/5/3 9/6/3 10/7/3
f 11/5/3 12/8/3 9/6/3
