# Blender 5.0.0
# www.blender.org
mtllib Button3.mtl
o button3
v 1.961323 1.316558 0.684651
v 1.961323 1.316872 0.683932
v 1.961323 1.317152 0.683248
v 1.961323 1.317400 0.682594
v 1.961323 1.317617 0.681966
v 1.961323 1.317805 0.681360
v 1.961323 1.317964 0.680772
v 1.961323 1.318096 0.680196
v 1.961323 1.318201 0.679630
v 1.961323 1.318281 0.679068
v 1.961323 1.318337 0.678505
v 1.961323 1.318370 0.677939
v 1.961323 1.318380 0.677363
v 1.961323 1.318330 0.676267
v 1.961323 1.318181 0.675244
v 1.961323 1.317936 0.674297
v 1.961323 1.317599 0.673431
v 1.961323 1.317173 0.672651
v 1.961323 1.316661 0.671960
v 1.961323 1.316066 0.671364
v 1.961323 1.315393 0.670867
v 1.961323 1.314643 0.670472
v 1.961323 1.313821 0.670185
v 1.961323 1.312930 0.670010
v 1.961323 1.311972 0.669950
v 1.961323 1.311032 0.670009
v 1.961323 1.310159 0.670186
v 1.961323 1.309357 0.670480
v 1.961323 1.308629 0.670893
v 1.961323 1.307976 0.671423
v 1.961323 1.307402 0.672071
v 1.961323 1.306909 0.672836
v 1.961323 1.306500 0.673719
v 1.961323 1.306177 0.674721
v 1.961323 1.305943 0.675840
v 1.961323 1.305801 0.677077
v 1.961323 1.305753 0.678432
v 1.961323 1.300098 0.678432
v 1.961323 1.300104 0.676971
v 1.961323 1.299969 0.675636
v 1.961323 1.299704 0.674428
v 1.961323 1.299317 0.673345
v 1.961323 1.298817 0.672389
v 1.961323 1.298214 0.671560
v 1.961323 1.297516 0.670858
v 1.961323 1.296734 0.670283
v 1.961323 1.295875 0.669835
v 1.961323 1.294950 0.669515
v 1.961323 1.293967 0.669323
v 1.961323 1.292936 0.669259
v 1.961323 1.291931 0.669315
v 1.961323 1.290989 0.669478
v 1.961323 1.290117 0.669747
v 1.961323 1.289318 0.670116
v 1.961323 1.288597 0.670580
v 1.961323 1.287957 0.671136
v 1.961323 1.287405 0.671780
v 1.961323 1.286942 0.672507
v 1.961323 1.286575 0.673314
v 1.961323 1.286308 0.674196
v 1.961323 1.286144 0.675150
v 1.961323 1.286088 0.676170
v 1.961323 1.286111 0.676955
v 1.961323 1.286178 0.677741
v 1.961323 1.286290 0.678528
v 1.961323 1.286447 0.679316
v 1.961323 1.286649 0.680106
v 1.961323 1.286897 0.680897
v 1.961323 1.287191 0.681692
v 1.961323 1.287531 0.682489
v 1.961323 1.287917 0.683291
v 1.961323 1.288350 0.684096
v 1.961323 1.288829 0.684905
v 1.961323 1.289355 0.685719
v 1.961323 1.282696 0.685719
v 1.961323 1.282318 0.684950
v 1.961323 1.281969 0.684181
v 1.961323 1.281650 0.683413
v 1.961323 1.281363 0.682645
v 1.961323 1.281106 0.681881
v 1.961323 1.280882 0.681117
v 1.961323 1.280690 0.680357
v 1.961323 1.280532 0.679600
v 1.961323 1.280408 0.678846
v 1.961323 1.280318 0.678096
v 1.961323 1.280264 0.677351
v 1.961323 1.280246 0.676610
v 1.961323 1.280355 0.674681
v 1.961323 1.280677 0.672861
v 1.961323 1.281200 0.671160
v 1.961323 1.281914 0.669590
v 1.961323 1.282809 0.668162
v 1.961323 1.283874 0.666887
v 1.961323 1.285098 0.665778
v 1.961323 1.286472 0.664845
v 1.961323 1.287985 0.664100
v 1.961323 1.289626 0.663553
v 1.961323 1.291384 0.663217
v 1.961323 1.293250 0.663102
v 1.961323 1.294349 0.663142
v 1.961323 1.295440 0.663261
v 1.961323 1.296510 0.663464
v 1.961323 1.297550 0.663749
v 1.961323 1.298549 0.664120
v 1.961323 1.299494 0.664578
v 1.961323 1.300375 0.665126
v 1.961323 1.301180 0.665764
v 1.961323 1.301900 0.666495
v 1.961323 1.302521 0.667320
v 1.961323 1.303035 0.668241
v 1.961323 1.303428 0.669259
v 1.961323 1.303975 0.668333
v 1.961323 1.304550 0.667502
v 1.961323 1.305160 0.666762
v 1.961323 1.305808 0.666111
v 1.961323 1.306502 0.665546
v 1.961323 1.307245 0.665065
v 1.961323 1.308043 0.664666
v 1.961323 1.308901 0.664345
v 1.961323 1.309824 0.664100
v 1.961323 1.310819 0.663928
v 1.961323 1.311889 0.663827
v 1.961323 1.313040 0.663793
v 1.961323 1.314686 0.663896
v 1.961323 1.316225 0.664197
v 1.961323 1.317650 0.664689
v 1.961323 1.318955 0.665364
v 1.961323 1.320133 0.666215
v 1.961323 1.321176 0.667233
v 1.961323 1.322078 0.668411
v 1.961323 1.322832 0.669741
v 1.961323 1.323430 0.671215
v 1.961323 1.323866 0.672824
v 1.961323 1.324133 0.674563
v 1.961323 1.324223 0.676421
v 1.961323 1.324211 0.677207
v 1.961323 1.324175 0.677964
v 1.961323 1.324115 0.678697
v 1.961323 1.324030 0.679407
v 1.961323 1.323920 0.680097
v 1.961323 1.323783 0.680772
v 1.961323 1.323621 0.681433
v 1.961323 1.323432 0.682085
v 1.961323 1.323216 0.682729
v 1.961323 1.322973 0.683370
v 1.961323 1.322701 0.684010
v 1.961323 1.322401 0.684651
v 1.944027 1.340696 0.635949
v 1.944027 1.263773 0.635949
v 1.944027 1.340696 0.712872
v 1.960575 1.329193 0.647452
v 1.960575 1.275276 0.647452
v 1.960575 1.329193 0.701369
v 1.960575 1.275276 0.701369
v 1.944027 1.263773 0.712872
vn 1.0000 -0.0000 -0.0000
vn 0.9995 -0.0000 0.0312
vn 1.0000 -0.0000 -0.0014
vn 1.0000 -0.0000 0.0012
vn 1.0000 -0.0000 -0.0002
vn 1.0000 -0.0000 0.0001
vn 1.0000 -0.0000 -0.0001
vn 1.0000 -0.0000 -0.0004
vn 1.0000 -0.0000 0.0002
vn 1.0000 -0.0000 -0.0003
vn 0.5707 -0.0000 -0.8211
vn 0.5708 0.8211 -0.0000
vn 0.5707 -0.0000 0.8211
vn 0.5708 -0.8211 -0.0000
vt 0.924658 0.000000
vt 0.910959 0.000000
vt 0.917808 0.000000
vt 0.931507 0.000000
vt 0.938356 0.000000
vt 0.904110 0.000000
vt 0.945205 0.000000
vt 0.952055 0.000000
vt 0.958904 0.000000
vt 0.897260 0.000000
vt 0.965753 0.000000
vt 0.972603 0.000000
vt 0.979452 0.000000
vt 0.890411 0.000000
vt 0.986301 0.000000
vt 0.993151 0.000000
vt 0.883562 0.000000
vt 1.000000 0.000000
vt 0.000000 0.000000
vt 0.006849 0.000000
vt 0.013699 0.000000
vt 0.020548 0.000000
vt 0.027397 0.000000
vt 0.034247 0.000000
vt 0.041096 0.000000
vt 0.876712 0.000000
vt 0.047945 0.000000
vt 0.054795 0.000000
vt 0.869863 0.000000
vt 0.061644 0.000000
vt 0.068493 0.000000
vt 0.075342 0.000000
vt 0.863014 0.000000
vt 0.082192 0.000000
vt 0.089041 0.000000
vt 0.856164 0.000000
vt 0.095890 0.000000
vt 0.102740 0.000000
vt 0.109589 0.000000
vt 0.849315 0.000000
vt 0.116438 0.000000
vt 0.123288 0.000000
vt 0.130137 0.000000
vt 0.842466 0.000000
vt 0.136986 0.000000
vt 0.143836 0.000000
vt 0.835616 0.000000
vt 0.150685 0.000000
vt 0.157534 0.000000
vt 0.828767 0.000000
vt 0.164384 0.000000
vt 0.171233 0.000000
vt 0.821918 0.000000
vt 0.178082 0.000000
vt 0.815068 0.000000
vt 0.184932 0.000000
vt 0.808219 0.000000
vt 0.191781 0.000000
vt 0.801370 0.000000
vt 0.198630 0.000000
vt 0.794521 0.000000
vt 0.205479 0.000000
vt 0.212329 0.000000
vt 0.787671 0.000000
vt 0.219178 0.000000
vt 0.780822 0.000000
vt 0.226027 0.000000
vt 0.232877 0.000000
vt 0.239726 0.000000
vt 0.773973 0.000000
vt 0.246575 0.000000
vt 0.253425 0.000000
vt 0.767123 0.000000
vt 0.760274 0.000000
vt 0.753425 0.000000
vt 0.746575 0.000000
vt 0.739726 0.000000
vt 0.732877 0.000000
vt 0.726027 0.000000
vt 0.719178 0.000000
vt 0.260274 0.000000
vt 0.712329 0.000000
vt 0.267123 0.000000
vt 0.273973 0.000000
vt 0.280822 0.000000
vt 0.705479 0.000000
vt 0.287671 0.000000
vt 0.294521 0.000000
vt 0.698630 0.000000
vt 0.301370 0.000000
vt 0.691781 0.000000
vt 0.308219 0.000000
vt 0.315068 0.000000
vt 0.684932 0.000000
vt 0.321918 0.000000
vt 0.678082 0.000000
vt 0.328767 0.000000
vt 0.671233 0.000000
vt 0.335616 0.000000
vt 0.664384 0.000000
vt 0.342466 0.000000
vt 0.349315 0.000000
vt 0.657534 0.000000
vt 0.356164 0.000000
vt 0.363014 0.000000
vt 0.650685 0.000000
vt 0.506849 0.000000
vt 0.493151 0.000000
vt 0.500000 0.000000
vt 0.369863 0.000000
vt 0.486301 0.000000
vt 0.376712 0.000000
vt 0.479452 0.000000
vt 0.643836 0.000000
vt 0.383562 0.000000
vt 0.472603 0.000000
vt 0.465753 0.000000
vt 0.390411 0.000000
vt 0.458904 0.000000
vt 0.397260 0.000000
vt 0.452055 0.000000
vt 0.445205 0.000000
vt 0.404110 0.000000
vt 0.636986 0.000000
vt 0.438356 0.000000
vt 0.410959 0.000000
vt 0.431507 0.000000
vt 0.424658 0.000000
vt 0.417808 0.000000
vt 0.630137 0.000000
vt 0.623288 0.000000
vt 0.616438 0.000000
vt 0.513699 0.000000
vt 0.520548 0.000000
vt 0.527397 0.000000
vt 0.609589 0.000000
vt 0.534247 0.000000
vt 0.541096 0.000000
vt 0.602740 0.000000
vt 0.547945 0.000000
vt 0.554795 0.000000
vt 0.561644 0.000000
vt 0.595890 0.000000
vt 0.568493 0.000000
vt 0.575342 0.000000
vt 0.589041 0.000000
vt 0.582192 0.000000
vt 0.509615 0.576923
vt 0.490385 0.576923
vt 0.509615 0.596154
vt 0.490385 0.596154
s 0
usemtl Cap.001
f 148/148/11 151/148/11 152/149/11 149/149/11
f 150/150/12 153/150/12 151/148/12 148/148/12
f 152/149/1 151/148/1 153/150/1 154/151/1
f 155/151/13 154/151/13 153/150/13 150/150/13
f 149/149/14 152/149/14 154/151/14 155/151/14
usemtl White_Matte.001
f 136/1/1 134/2/1 135/3/1
f 137/4/1 134/2/1 136/1/1
f 138/5/1 134/2/1 137/4/1
f 138/5/1 133/6/1 134/2/1
f 139/7/1 133/6/1 138/5/1
f 140/8/1 133/6/1 139/7/1
f 141/9/1 133/6/1 140/8/1
f 141/9/1 132/10/1 133/6/1
f 142/11/1 132/10/1 141/9/1
f 143/12/1 132/10/1 142/11/1
f 144/13/1 132/10/1 143/12/1
f 144/13/1 131/14/1 132/10/1
f 145/15/1 131/14/1 144/13/1
f 146/16/1 131/14/1 145/15/1
f 146/16/1 130/17/1 131/14/1
f 147/18/1 130/17/1 146/16/1
f 1/19/1 2/20/1 147/18/1
f 2/20/1 3/21/1 147/18/1
f 3/21/1 4/22/1 147/18/1
f 4/22/1 5/23/1 147/18/1
f 5/23/1 130/17/1 147/18/1
f 5/23/1 6/24/1 130/17/1
f 6/24/1 7/25/1 130/17/1
f 7/25/1 129/26/1 130/17/1
f 7/25/1 8/27/1 129/26/1
f 8/27/1 9/28/1 129/26/1
f 9/28/1 128/29/1 129/26/1
f 9/28/2 10/30/2 128/29/2
f 10/30/3 11/31/3 128/29/3
f 11/31/1 12/32/1 128/29/1
f 12/32/1 127/33/1 128/29/1
f 12/32/4 13/34/4 127/33/4
f 13/34/5 14/35/5 127/33/5
f 14/35/1 126/36/1 127/33/1
f 15/37/1 126/36/1 14/35/1
f 16/38/1 126/36/1 15/37/1
f 17/39/1 126/36/1 16/38/1
f 17/39/1 125/40/1 126/36/1
f 18/41/1 125/40/1 17/39/1
f 19/42/1 125/40/1 18/41/1
f 20/43/1 125/40/1 19/42/1
f 20/43/1 124/44/1 125/40/1
f 21/45/6 124/44/6 20/43/6
f 22/46/1 124/44/1 21/45/1
f 22/46/1 123/47/1 124/44/1
f 23/48/1 123/47/1 22/46/1
f 24/49/1 123/47/1 23/48/1
f 24/49/1 122/50/1 123/47/1
f 25/51/1 122/50/1 24/49/1
f 26/52/1 122/50/1 25/51/1
f 26/52/1 121/53/1 122/50/1
f 27/54/1 121/53/1 26/52/1
f 27/54/1 120/55/1 121/53/1
f 28/56/1 120/55/1 27/54/1
f 28/56/1 119/57/1 120/55/1
f 29/58/1 119/57/1 28/56/1
f 29/58/1 118/59/1 119/57/1
f 30/60/1 118/59/1 29/58/1
f 30/60/1 117/61/1 118/59/1
f 31/62/1 117/61/1 30/60/1
f 32/63/1 117/61/1 31/62/1
f 32/63/1 116/64/1 117/61/1
f 33/65/1 116/64/1 32/63/1
f 33/65/1 115/66/1 116/64/1
f 34/67/1 115/66/1 33/65/1
f 35/68/1 115/66/1 34/67/1
f 36/69/1 115/66/1 35/68/1
f 36/69/1 114/70/1 115/66/1
f 37/71/1 114/70/1 36/69/1
f 38/72/1 114/70/1 37/71/1
f 38/72/5 113/73/5 114/70/5
f 38/72/1 112/74/1 113/73/1
f 38/72/1 111/75/1 112/74/1
f 38/72/1 110/76/1 111/75/1
f 38/72/6 109/77/6 110/76/6
f 38/72/7 108/78/7 109/77/7
f 38/72/1 107/79/1 108/78/1
f 38/72/1 106/80/1 107/79/1
f 38/72/8 39/81/8 106/80/8
f 39/81/1 105/82/1 106/80/1
f 40/83/1 105/82/1 39/81/1
f 41/84/1 105/82/1 40/83/1
f 42/85/1 105/82/1 41/84/1
f 42/85/1 104/86/1 105/82/1
f 43/87/1 104/86/1 42/85/1
f 44/88/1 104/86/1 43/87/1
f 44/88/1 103/89/1 104/86/1
f 45/90/1 103/89/1 44/88/1
f 45/90/1 102/91/1 103/89/1
f 46/92/7 102/91/7 45/90/7
f 47/93/1 102/91/1 46/92/1
f 47/93/1 101/94/1 102/91/1
f 48/95/1 101/94/1 47/93/1
f 48/95/1 100/96/1 101/94/1
f 49/97/1 100/96/1 48/95/1
f 49/97/1 99/98/1 100/96/1
f 50/99/1 99/98/1 49/97/1
f 50/99/1 98/100/1 99/98/1
f 51/101/6 98/100/6 50/99/6
f 52/102/1 98/100/1 51/101/1
f 52/102/1 97/103/1 98/100/1
f 53/104/1 97/103/1 52/102/1
f 54/105/1 97/103/1 53/104/1
f 54/105/1 96/106/1 97/103/1
f 75/107/1 73/108/1 74/109/1
f 55/110/1 96/106/1 54/105/1
f 75/107/7 72/111/7 73/108/7
f 56/112/7 96/106/7 55/110/7
f 75/107/6 71/113/6 72/111/6
f 56/112/1 95/114/1 96/106/1
f 57/115/1 95/114/1 56/112/1
f 75/107/1 70/116/1 71/113/1
f 75/107/1 69/117/1 70/116/1
f 58/118/1 95/114/1 57/115/1
f 75/107/7 68/119/7 69/117/7
f 59/120/1 95/114/1 58/118/1
f 75/107/6 67/121/6 68/119/6
f 75/107/1 66/122/1 67/121/1
f 60/123/1 95/114/1 59/120/1
f 60/123/1 94/124/1 95/114/1
f 75/107/6 65/125/6 66/122/6
f 61/126/9 94/124/9 60/123/9
f 75/107/7 64/127/7 65/125/7
f 75/107/9 63/128/9 64/127/9
f 62/129/10 94/124/10 61/126/10
f 75/107/5 62/129/5 63/128/5
f 75/107/1 94/124/1 62/129/1
f 75/107/1 93/130/1 94/124/1
f 75/107/1 92/131/1 93/130/1
f 75/107/1 91/132/1 92/131/1
f 76/133/1 91/132/1 75/107/1
f 77/134/1 91/132/1 76/133/1
f 78/135/1 91/132/1 77/134/1
f 78/135/1 90/136/1 91/132/1
f 79/137/1 90/136/1 78/135/1
f 80/138/1 90/136/1 79/137/1
f 80/138/1 89/139/1 90/136/1
f 81/140/7 89/139/7 80/138/7
f 82/141/1 89/139/1 81/140/1
f 83/142/1 89/139/1 82/141/1
f 83/142/1 88/143/1 89/139/1
f 84/144/1 88/143/1 83/142/1
f 85/145/1 88/143/1 84/144/1
f 85/145/1 87/146/1 88/143/1
f 86/147/1 87/146/1 85/145/1
