# Blender 5.0.0
# www.blender.org
mtllib Button7.mtl
o button7
v 1.944027 1.186209 0.790309
v 1.944027 1.109286 0.790309
v 1.944027 1.186209 0.867232
v 1.960575 1.174706 0.801812
v 1.960575 1.120789 0.801812
v 1.960575 1.174706 0.855729
v 1.960575 1.120789 0.855729
v 1.944027 1.109286 0.867232
v 1.961323 1.166576 0.816754
v 1.961323 1.166576 0.840787
v 1.961323 1.161508 0.840787
v 1.961323 1.161508 0.824711
v 1.961323 1.130990 0.838335
v 1.961323 1.128919 0.833594
vn 0.5707 -0.0000 -0.8211
vn 0.5708 0.8211 -0.0000
vn 1.0000 -0.0000 -0.0000
vn 0.5707 -0.0000 0.8211
vn 0.5708 -0.8211 -0.0000
vt 0.509615 0.576923
vt 0.490385 0.576923
vt 0.509615 0.596154
vt 0.490385 0.596154
vt 0.400000 0.000000
vt 0.000000 0.000000
vt 0.200000 0.000000
vt 0.600000 0.000000
vt 1.000000 0.000000
vt 0.800000 0.000000
s 0
usemtl Cap.001
f 1/1/1 4/1/1 5/2/1 2/2/1
f 3/3/2 6/3/2 4/1/2 1/1/2
f 5/2/3 4/1/3 6/3/3 7/4/3
f 8/4/4 7/4/4 6/3/4 3/3/4
f 2/2/5 5/2/5 7/4/5 8/4/5
usemtl White_Matte.001
f 11/5/3 9/6/3 10/7/3
f 11/5/3 12/8/3 9/6/3
f 12/8/3 14/9/3 9/6/3
f 13/10/3 14/9/3 12/8/3
