# Blender 5.0.0
# www.blender.org
mtllib Button9.mtl
o button9
v 1.944027 1.186209 0.635949
v 1.944027 1.109286 0.635949
v 1.944027 1.186209 0.712872
v 1.960575 1.174706 0.647452
v 1.960575 1.120789 0.647452
v 1.960575 1.174706 0.701369
v 1.960575 1.120789 0.701369
v 1.944027 1.109286 0.712872
v 1.961323 1.129422 0.677631
v 1.961323 1.130800 0.675589
v 1.961323 1.132353 0.673659
v 1.961323 1.134062 0.671855
v 1.961323 1.135905 0.670188
v 1.961323 1.137862 0.668671
v 1.961323 1.139913 0.667316
v 1.961323 1.142038 0.666136
v 1.961323 1.144214 0.665142
v 1.961323 1.146423 0.664348
v 1.961323 1.148643 0.663765
v 1.961323 1.150854 0.663407
v 1.961323 1.153036 0.663284
v 1.961323 1.154865 0.663382
v 1.961323 1.156601 0.663668
v 1.961323 1.158232 0.664132
v 1.961323 1.159744 0.664764
v 1.961323 1.161125 0.665554
v 1.961323 1.162362 0.666492
v 1.961323 1.163444 0.667566
v 1.961323 1.164357 0.668768
v 1.961323 1.165089 0.670088
v 1.961323 1.165627 0.671514
v 1.961323 1.165960 0.673037
v 1.961323 1.166073 0.674646
v 1.961323 1.165966 0.676247
v 1.961323 1.165657 0.677744
v 1.961323 1.165164 0.679131
v 1.961323 1.164506 0.680402
v 1.961323 1.163701 0.681549
v 1.961323 1.162768 0.682566
v 1.961323 1.161724 0.683445
v 1.961323 1.160589 0.684179
v 1.961323 1.159380 0.684763
v 1.961323 1.158116 0.685188
v 1.961323 1.156816 0.685449
v 1.961323 1.155497 0.685537
v 1.961323 1.154071 0.685446
v 1.961323 1.152707 0.685181
v 1.961323 1.151417 0.684753
v 1.961323 1.150212 0.684174
v 1.961323 1.149105 0.683454
v 1.961323 1.148108 0.682605
v 1.961323 1.147231 0.681638
v 1.961323 1.146487 0.680565
v 1.961323 1.145888 0.679396
v 1.961323 1.145446 0.678144
v 1.961323 1.145171 0.676818
v 1.961323 1.145077 0.675432
v 1.961323 1.145089 0.674956
v 1.961323 1.145124 0.674475
v 1.961323 1.145182 0.673990
v 1.961323 1.145262 0.673504
v 1.961323 1.145362 0.673019
v 1.961323 1.145483 0.672539
v 1.961323 1.145624 0.672065
v 1.961323 1.145783 0.671600
v 1.961323 1.145961 0.671146
v 1.961323 1.146156 0.670707
v 1.961323 1.146368 0.670285
v 1.961323 1.146596 0.669882
v 1.961323 1.145461 0.670190
v 1.961323 1.144312 0.670616
v 1.961323 1.143154 0.671156
v 1.961323 1.141992 0.671809
v 1.961323 1.140832 0.672572
v 1.961323 1.139678 0.673442
v 1.961323 1.138536 0.674417
v 1.961323 1.137412 0.675494
v 1.961323 1.136310 0.676670
v 1.961323 1.135236 0.677944
v 1.961323 1.134195 0.679312
v 1.961323 1.133192 0.680772
v 1.961323 1.155549 0.680406
v 1.961323 1.156353 0.680356
v 1.961323 1.157113 0.680208
v 1.961323 1.157824 0.679968
v 1.961323 1.158481 0.679642
v 1.961323 1.159079 0.679234
v 1.961323 1.159613 0.678750
v 1.961323 1.160079 0.678195
v 1.961323 1.160471 0.677575
v 1.961323 1.160784 0.676894
v 1.961323 1.161014 0.676158
v 1.961323 1.161156 0.675372
v 1.961323 1.161204 0.674542
v 1.961323 1.161143 0.673731
v 1.961323 1.160967 0.672954
v 1.961323 1.160684 0.672217
v 1.961323 1.160302 0.671528
v 1.961323 1.159831 0.670893
v 1.961323 1.159280 0.670320
v 1.961323 1.158656 0.669816
v 1.961323 1.157969 0.669387
v 1.961323 1.157228 0.669042
v 1.961323 1.156441 0.668786
v 1.961323 1.155616 0.668627
v 1.961323 1.154764 0.668573
v 1.961323 1.154544 0.668573
v 1.961323 1.154329 0.668574
v 1.961323 1.154115 0.668577
v 1.961323 1.153901 0.668582
v 1.961323 1.153684 0.668592
v 1.961323 1.153461 0.668605
v 1.961323 1.153231 0.668625
v 1.961323 1.152991 0.668650
v 1.961323 1.152739 0.668683
v 1.961323 1.152472 0.668724
v 1.961323 1.152188 0.668774
v 1.961323 1.151884 0.668835
v 1.961323 1.151560 0.669321
v 1.961323 1.151268 0.669809
v 1.961323 1.151007 0.670297
v 1.961323 1.150777 0.670784
v 1.961323 1.150576 0.671265
v 1.961323 1.150405 0.671741
v 1.961323 1.150262 0.672207
v 1.961323 1.150146 0.672663
v 1.961323 1.150058 0.673105
v 1.961323 1.149996 0.673532
v 1.961323 1.149959 0.673942
v 1.961323 1.149947 0.674332
v 1.961323 1.149998 0.675156
v 1.961323 1.150147 0.675946
v 1.961323 1.150388 0.676695
v 1.961323 1.150713 0.677396
v 1.961323 1.151116 0.678042
v 1.961323 1.151589 0.678626
v 1.961323 1.152128 0.679139
v 1.961323 1.152724 0.679576
v 1.961323 1.153370 0.679928
v 1.961323 1.154061 0.680189
v 1.961323 1.154790 0.680350
vn 0.5707 -0.0000 -0.8211
vn 0.5708 0.8211 -0.0000
vn 1.0000 -0.0000 -0.0000
vn 0.5707 -0.0000 0.8211
vn 0.5708 -0.8211 -0.0000
vn 1.0000 -0.0000 -0.0001
vn 1.0000 -0.0000 0.0001
vn 1.0000 -0.0000 -0.0004
vn 1.0000 -0.0000 0.0002
vn 1.0000 -0.0000 0.0009
vt 0.509615 0.576923
vt 0.490385 0.576923
vt 0.509615 0.596154
vt 0.490385 0.596154
vt 0.189394 0.000000
vt 0.174242 0.000000
vt 0.181818 0.000000
vt 0.196970 0.000000
vt 0.166667 0.000000
vt 0.204545 0.000000
vt 0.159091 0.000000
vt 0.212121 0.000000
vt 0.151515 0.000000
vt 0.219697 0.000000
vt 0.143939 0.000000
vt 0.227273 0.000000
vt 0.136364 0.000000
vt 0.234848 0.000000
vt 0.128788 0.000000
vt 0.242424 0.000000
vt 0.636364 0.000000
vt 0.643939 0.000000
vt 0.651515 0.000000
vt 0.628788 0.000000
vt 0.659091 0.000000
vt 0.121212 0.000000
vt 0.621212 0.000000
vt 0.666667 0.000000
vt 0.613636 0.000000
vt 0.674242 0.000000
vt 0.250000 0.000000
vt 0.606061 0.000000
vt 0.681818 0.000000
vt 0.598485 0.000000
vt 0.689394 0.000000
vt 0.113636 0.000000
vt 0.590909 0.000000
vt 0.257576 0.000000
vt 0.696970 0.000000
vt 0.583333 0.000000
vt 0.704545 0.000000
vt 0.575758 0.000000
vt 0.106061 0.000000
vt 0.265152 0.000000
vt 0.712121 0.000000
vt 0.568182 0.000000
vt 0.719697 0.000000
vt 0.560606 0.000000
vt 0.272727 0.000000
vt 0.098485 0.000000
vt 0.727273 0.000000
vt 0.553030 0.000000
vt 0.734848 0.000000
vt 1.000000 0.000000
vt 0.280303 0.000000
vt 0.090909 0.000000
vt 0.992424 0.000000
vt 0.742424 0.000000
vt 0.750000 0.000000
vt 0.757576 0.000000
vt 0.765152 0.000000
vt 0.287879 0.000000
vt 0.984848 0.000000
vt 0.772727 0.000000
vt 0.780303 0.000000
vt 0.787879 0.000000
vt 0.977273 0.000000
vt 0.795455 0.000000
vt 0.083333 0.000000
vt 0.803030 0.000000
vt 0.810606 0.000000
vt 0.969697 0.000000
vt 0.295455 0.000000
vt 0.818182 0.000000
vt 0.825758 0.000000
vt 0.962121 0.000000
vt 0.833333 0.000000
vt 0.954545 0.000000
vt 0.840909 0.000000
vt 0.303030 0.000000
vt 0.848485 0.000000
vt 0.946970 0.000000
vt 0.856061 0.000000
vt 0.075758 0.000000
vt 0.863636 0.000000
vt 0.939394 0.000000
vt 0.871212 0.000000
vt 0.878788 0.000000
vt 0.931818 0.000000
vt 0.886364 0.000000
vt 0.310606 0.000000
vt 0.924242 0.000000
vt 0.893939 0.000000
vt 0.901515 0.000000
vt 0.916667 0.000000
vt 0.909091 0.000000
vt 0.318182 0.000000
vt 0.068182 0.000000
vt 0.325758 0.000000
vt 0.333333 0.000000
vt 0.454545 0.000000
vt 0.446970 0.000000
vt 0.462121 0.000000
vt 0.340909 0.000000
vt 0.060606 0.000000
vt 0.439394 0.000000
vt 0.431818 0.000000
vt 0.424242 0.000000
vt 0.348485 0.000000
vt 0.416667 0.000000
vt 0.409091 0.000000
vt 0.401515 0.000000
vt 0.469697 0.000000
vt 0.356061 0.000000
vt 0.393939 0.000000
vt 0.386364 0.000000
vt 0.378788 0.000000
vt 0.363636 0.000000
vt 0.371212 0.000000
vt 0.477273 0.000000
vt 0.053030 0.000000
vt 0.484848 0.000000
vt 0.045455 0.000000
vt 0.492424 0.000000
vt 0.500000 0.000000
vt 0.037879 0.000000
vt 0.507576 0.000000
vt 0.515152 0.000000
vt 0.030303 0.000000
vt 0.522727 0.000000
vt 0.530303 0.000000
vt 0.022727 0.000000
vt 0.537879 0.000000
vt 0.545455 0.000000
vt 0.015152 0.000000
vt 0.000000 0.000000
vt 0.007576 0.000000
s 0
usemtl Cap.001
f 1/1/1 4/1/1 5/2/1 2/2/1
f 3/3/2 6/3/2 4/1/2 1/1/2
f 5/2/3 4/1/3 6/3/3 7/4/3
f 8/4/4 7/4/4 6/3/4 3/3/4
f 2/2/5 5/2/5 7/4/5 8/4/5
usemtl White_Matte.001
f 34/5/6 32/6/6 33/7/6
f 35/8/3 32/6/3 34/5/3
f 35/8/3 31/9/3 32/6/3
f 36/10/3 31/9/3 35/8/3
f 36/10/3 30/11/3 31/9/3
f 37/12/3 30/11/3 36/10/3
f 37/12/3 29/13/3 30/11/3
f 38/14/3 29/13/3 37/12/3
f 38/14/3 28/15/3 29/13/3
f 39/16/3 28/15/3 38/14/3
f 39/16/3 27/17/3 28/15/3
f 40/18/3 27/17/3 39/16/3
f 40/18/3 26/19/3 27/17/3
f 41/20/3 93/21/3 40/18/3
f 93/21/3 94/22/3 40/18/3
f 94/22/7 26/19/7 40/18/7
f 95/23/3 26/19/3 94/22/3
f 41/20/7 92/24/7 93/21/7
f 96/25/3 26/19/3 95/23/3
f 96/25/3 25/26/3 26/19/3
f 41/20/3 91/27/3 92/24/3
f 97/28/3 25/26/3 96/25/3
f 41/20/3 90/29/3 91/27/3
f 98/30/7 25/26/7 97/28/7
f 42/31/3 90/29/3 41/20/3
f 42/31/3 89/32/3 90/29/3
f 99/33/3 25/26/3 98/30/3
f 42/31/3 88/34/3 89/32/3
f 100/35/3 25/26/3 99/33/3
f 100/35/3 24/36/3 25/26/3
f 42/31/3 87/37/3 88/34/3
f 43/38/3 87/37/3 42/31/3
f 101/39/3 24/36/3 100/35/3
f 43/38/6 86/40/6 87/37/6
f 102/41/3 24/36/3 101/39/3
f 43/38/3 85/42/3 86/40/3
f 102/41/3 23/43/3 24/36/3
f 44/44/3 85/42/3 43/38/3
f 103/45/3 23/43/3 102/41/3
f 44/44/6 84/46/6 85/42/6
f 104/47/3 23/43/3 103/45/3
f 44/44/3 83/48/3 84/46/3
f 45/49/3 83/48/3 44/44/3
f 104/47/6 22/50/6 23/43/6
f 105/51/3 22/50/3 104/47/3
f 45/49/3 82/52/3 83/48/3
f 106/53/3 22/50/3 105/51/3
f 45/49/6 141/54/6 82/52/6
f 46/55/3 141/54/3 45/49/3
f 106/53/3 21/56/3 22/50/3
f 46/55/3 140/57/3 141/54/3
f 107/58/3 21/56/3 106/53/3
f 108/59/3 21/56/3 107/58/3
f 109/60/3 21/56/3 108/59/3
f 110/61/3 21/56/3 109/60/3
f 47/62/3 140/57/3 46/55/3
f 47/62/6 139/63/6 140/57/6
f 111/64/3 21/56/3 110/61/3
f 112/65/3 21/56/3 111/64/3
f 113/66/7 21/56/7 112/65/7
f 47/62/7 138/67/7 139/63/7
f 114/68/3 21/56/3 113/66/3
f 114/68/3 20/69/3 21/56/3
f 115/70/3 20/69/3 114/68/3
f 116/71/3 20/69/3 115/70/3
f 47/62/3 137/72/3 138/67/3
f 48/73/3 137/72/3 47/62/3
f 117/74/3 20/69/3 116/71/3
f 118/75/3 20/69/3 117/74/3
f 48/73/3 136/76/3 137/72/3
f 119/77/3 20/69/3 118/75/3
f 48/73/3 135/78/3 136/76/3
f 120/79/6 20/69/6 119/77/6
f 49/80/3 135/78/3 48/73/3
f 121/81/3 20/69/3 120/79/3
f 49/80/3 134/82/3 135/78/3
f 122/83/3 20/69/3 121/81/3
f 122/83/7 19/84/7 20/69/7
f 123/85/8 19/84/8 122/83/8
f 49/80/3 133/86/3 134/82/3
f 124/87/9 19/84/9 123/85/9
f 125/88/3 19/84/3 124/87/3
f 49/80/3 132/89/3 133/86/3
f 126/90/3 19/84/3 125/88/3
f 50/91/3 132/89/3 49/80/3
f 50/91/7 131/92/7 132/89/7
f 127/93/3 19/84/3 126/90/3
f 128/94/3 19/84/3 127/93/3
f 50/91/3 130/95/3 131/92/3
f 129/96/3 19/84/3 128/94/3
f 130/95/3 19/84/3 129/96/3
f 50/91/3 19/84/3 130/95/3
f 51/97/3 19/84/3 50/91/3
f 51/97/3 18/98/3 19/84/3
f 52/99/3 18/98/3 51/97/3
f 53/100/3 69/101/3 52/99/3
f 69/101/3 18/98/3 52/99/3
f 53/100/3 68/102/3 69/101/3
f 70/103/3 18/98/3 69/101/3
f 54/104/3 68/102/3 53/100/3
f 70/103/3 17/105/3 18/98/3
f 54/104/3 67/106/3 68/102/3
f 54/104/3 66/107/3 67/106/3
f 54/104/3 65/108/3 66/107/3
f 55/109/3 65/108/3 54/104/3
f 55/109/6 64/110/6 65/108/6
f 55/109/3 63/111/3 64/110/3
f 55/109/3 62/112/3 63/111/3
f 71/113/3 17/105/3 70/103/3
f 56/114/3 62/112/3 55/109/3
f 56/114/3 61/115/3 62/112/3
f 56/114/3 60/116/3 61/115/3
f 56/114/3 59/117/3 60/116/3
f 57/118/3 59/117/3 56/114/3
f 57/118/3 58/119/3 59/117/3
f 72/120/3 17/105/3 71/113/3
f 72/120/3 16/121/3 17/105/3
f 73/122/7 16/121/7 72/120/7
f 73/122/3 15/123/3 16/121/3
f 74/124/3 15/123/3 73/122/3
f 75/125/3 15/123/3 74/124/3
f 75/125/3 14/126/3 15/123/3
f 76/127/3 14/126/3 75/125/3
f 77/128/3 14/126/3 76/127/3
f 77/128/3 13/129/3 14/126/3
f 78/130/3 13/129/3 77/128/3
f 79/131/3 13/129/3 78/130/3
f 79/131/3 12/132/3 13/129/3
f 80/133/3 12/132/3 79/131/3
f 81/134/3 12/132/3 80/133/3
f 81/134/3 11/135/3 12/132/3
f 9/136/3 11/135/3 81/134/3
f 9/136/10 10/137/10 11/135/10
