# Blender 5.0.0
# www.blender.org
mtllib Canvas.mtl
o Canvas
v -0.332139 -0.431593 -0.004215
v 0.330867 -0.429487 -0.012075
v -0.335124 0.448655 -0.020233
v 0.327881 0.450761 -0.028092
v -0.331785 -0.431046 0.025777
v -0.334771 0.449202 0.009760
v 0.331220 -0.428940 0.017918
v 0.328235 0.451308 0.001901
vn -0.0118 -0.0182 -0.9998
vn 0.0118 0.0182 0.9998
vn -0.0034 0.9998 -0.0182
vn 0.0034 -0.9998 0.0182
vn 0.9999 0.0032 -0.0118
vn -0.9999 -0.0032 0.0119
vt 0.000000 0.000000
vt 0.000000 1.000000
vt 1.000000 1.000000
vt 1.000000 0.000000
s 0
usemtl Canvas
f 1/1/1 3/2/1 4/3/1 2/4/1
f 4/3/3 3/2/3 6/2/3 8/3/3
f 1/1/4 2/4/4 7/4/4 5/1/4
f 2/4/5 4/3/5 8/3/5 7/4/5
f 3/2/6 1/1/6 5/1/6 6/2/6
usemtl Canvas_Picture
f 5/1/2 7/4/2 8/3/2 6/2/2
