# Blender 5.0.0
# www.blender.org
mtllib Collisions.mtl
o Table_Collision
v 7.084801 2.834410 0.033894
v 7.084801 2.834410 0.860263
v 7.084801 -0.135000 0.033894
v 7.084801 -0.135000 0.860263
v 5.966228 2.834410 0.033894
v 5.966228 2.834410 0.860263
v 5.966228 -0.135000 0.033894
v 5.966228 -0.135000 0.860263
vn -0.0000 -0.0000 1.0000
vn -0.0000 -1.0000 -0.0000
vn -0.0000 -0.0000 -1.0000
vn -1.0000 -0.0000 -0.0000
vn 1.0000 -0.0000 -0.0000
vn -0.0000 1.0000 -0.0000
vt 0.000000 0.000000
vt 1.000000 0.000000
vt 1.000000 1.000000
vt 0.000000 1.000000
s 0
f 6/1/1 8/2/1 4/3/1 2/4/1
f 4/1/2 8/2/2 7/3/2 3/4/2
f 7/1/3 5/2/3 1/3/3 3/4/3
f 5/1/4 7/2/4 8/3/4 6/4/4
f 2/1/5 4/2/5 3/3/5 1/4/5
f 1/1/6 5/2/6 6/3/6 2/4/6
o Sofa_Collision
v 7.131269 2.834410 -2.140578
v 7.131269 2.834410 0.235233
v 7.131269 -0.135000 -2.140578
v 7.131269 -0.135000 0.235233
v 6.021941 2.834410 -2.140578
v 6.021941 2.834410 0.235233
v 6.021941 -0.135000 -2.140578
v 6.021941 -0.135000 0.235233
vn -0.0000 -0.0000 1.0000
vn -0.0000 -1.0000 -0.0000
vn -0.0000 -0.0000 -1.0000
vn -1.0000 -0.0000 -0.0000
vn 1.0000 -0.0000 -0.0000
vn -0.0000 1.0000 -0.0000
vt 0.000000 0.000000
vt 1.000000 0.000000
vt 1.000000 1.000000
vt 0.000000 1.000000
s 0
f 14/5/7 16/6/7 12/7/7 10/8/7
f 12/5/8 16/6/8 15/7/8 11/8/8
f 15/5/9 13/6/9 9/7/9 11/8/9
f 13/5/10 15/6/10 16/7/10 14/8/10
f 10/5/11 12/6/11 11/7/11 9/8/11
f 9/5/12 13/6/12 14/7/12 10/8/12
o Library_Collision.002
v 7.088944 2.834410 0.817131
v 7.088944 2.834410 1.540205
v 7.088944 -0.135000 0.817131
v 7.088944 -0.135000 1.540205
v 6.562014 2.834410 0.817131
v 6.562014 2.834410 1.540205
v 6.562014 -0.135000 0.817131
v 6.562014 -0.135000 1.540205
vn -0.0000 -0.0000 1.0000
vn -0.0000 -1.0000 -0.0000
vn -0.0000 -0.0000 -1.0000
vn -1.0000 -0.0000 -0.0000
vn 1.0000 -0.0000 -0.0000
vn -0.0000 1.0000 -0.0000
vt 0.000000 0.000000
vt 1.000000 0.000000
vt 1.000000 1.000000
vt 0.000000 1.000000
s 0
f 22/9/13 24/10/13 20/11/13 18/12/13
f 20/9/14 24/10/14 23/11/14 19/12/14
f 23/9/15 21/10/15 17/11/15 19/12/15
f 21/9/16 23/10/16 24/11/16 22/12/16
f 18/9/17 20/10/17 19/11/17 17/12/17
f 17/9/18 21/10/18 22/11/18 18/12/18
o Library_Collision.001
v 1.349036 2.834410 -1.841936
v 2.389464 2.834410 -1.841936
v 1.349036 -0.135000 -1.841936
v 2.389464 -0.135000 -1.841936
v 1.349036 2.834410 -1.533789
v 2.389464 2.834410 -1.533789
v 1.349036 -0.135000 -1.533789
v 2.389464 -0.135000 -1.533789
vn 1.0000 -0.0000 -0.0000
vn -0.0000 -1.0000 -0.0000
vn -1.0000 -0.0000 -0.0000
vn -0.0000 -0.0000 1.0000
vn -0.0000 -0.0000 -1.0000
vn -0.0000 1.0000 -0.0000
vt 0.000000 0.000000
vt 1.000000 0.000000
vt 1.000000 1.000000
vt 0.000000 1.000000
s 0
f 30/13/19 32/14/19 28/15/19 26/16/19
f 28/13/20 32/14/20 31/15/20 27/16/20
f 31/13/21 29/14/21 25/15/21 27/16/21
f 29/13/22 31/14/22 32/15/22 30/16/22
f 26/13/23 28/14/23 27/15/23 25/16/23
f 25/13/24 29/14/24 30/15/24 26/16/24
o Library_Collision
v 1.681935 2.834410 -2.955527
v 1.681935 2.834410 -1.537552
v 1.681935 -0.135000 -2.955527
v 1.681935 -0.135000 -1.537552
v 1.373789 2.834410 -2.955527
v 1.373789 2.834410 -1.537552
v 1.373789 -0.135000 -2.955527
v 1.373789 -0.135000 -1.537552
vn -0.0000 -0.0000 1.0000
vn -0.0000 -1.0000 -0.0000
vn -0.0000 -0.0000 -1.0000
vn -1.0000 -0.0000 -0.0000
vn 1.0000 -0.0000 -0.0000
vn -0.0000 1.0000 -0.0000
vt 0.000000 0.000000
vt 1.000000 0.000000
vt 1.000000 1.000000
vt 0.000000 1.000000
s 0
f 38/17/25 40/18/25 36/19/25 34/20/25
f 36/17/26 40/18/26 39/19/26 35/20/26
f 39/17/27 37/18/27 33/19/27 35/20/27
f 37/17/28 39/18/28 40/19/28 38/20/28
f 34/17/29 36/18/29 35/19/29 33/20/29
f 33/17/30 37/18/30 38/19/30 34/20/30
o Lamp_Collision
v 6.237535 2.834410 1.235343
v 6.237535 2.834410 1.555561
v 6.237535 -0.135000 1.235343
v 6.237535 -0.135000 1.555561
v 5.913981 2.834410 1.235343
v 5.913981 2.834410 1.555561
v 5.913981 -0.135000 1.235343
v 5.913981 -0.135000 1.555561
vn -0.0000 -0.0000 1.0000
vn -0.0000 -1.0000 -0.0000
vn -0.0000 -0.0000 -1.0000
vn -1.0000 -0.0000 -0.0000
vn 1.0000 -0.0000 -0.0000
vn -0.0000 1.0000 -0.0000
vt 0.000000 0.000000
vt 1.000000 0.000000
vt 1.000000 1.000000
vt 0.000000 1.000000
s 0
f 46/21/31 48/22/31 44/23/31 42/24/31
f 44/21/32 48/22/32 47/23/32 43/24/32
f 47/21/33 45/22/33 41/23/33 43/24/33
f 45/21/34 47/22/34 48/23/34 46/24/34
f 42/21/35 44/22/35 43/23/35 41/24/35
f 41/21/36 45/22/36 46/23/36 42/24/36
o Desk_Collision.002
v 4.354710 2.834410 1.217623
v 4.354710 2.834410 1.826629
v 4.354710 -0.135000 1.217623
v 4.354710 -0.135000 1.826629
v 2.942119 2.834410 1.217623
v 2.942119 2.834410 1.826629
v 2.942119 -0.135000 1.217623
v 2.942119 -0.135000 1.826629
vn -0.0000 -0.0000 1.0000
vn -0.0000 -1.0000 -0.0000
vn -0.0000 -0.0000 -1.0000
vn -1.0000 -0.0000 -0.0000
vn 1.0000 -0.0000 -0.0000
vn -0.0000 1.0000 -0.0000
vt 0.000000 0.000000
vt 1.000000 0.000000
vt 1.000000 1.000000
vt 0.000000 1.000000
s 0
f 54/25/37 56/26/37 52/27/37 50/28/37
f 52/25/38 56/26/38 55/27/38 51/28/38
f 55/25/39 53/26/39 49/27/39 51/28/39
f 53/25/40 55/26/40 56/27/40 54/28/40
f 50/25/41 52/26/41 51/27/41 49/28/41
f 49/25/42 53/26/42 54/27/42 50/28/42
o Chair_Collision.001
v 3.739667 2.834410 0.961529
v 3.739667 2.834410 1.837042
v 3.739667 -0.135000 0.961529
v 3.739667 -0.135000 1.837042
v 3.376997 2.834410 0.961529
v 3.376997 2.834410 1.837042
v 3.376997 -0.135000 0.961529
v 3.376997 -0.135000 1.837042
vn -0.0000 -0.0000 1.0000
vn -0.0000 -1.0000 -0.0000
vn -0.0000 -0.0000 -1.0000
vn -1.0000 -0.0000 -0.0000
vn 1.0000 -0.0000 -0.0000
vn -0.0000 1.0000 -0.0000
vt 0.000000 0.000000
vt 1.000000 0.000000
vt 1.000000 1.000000
vt 0.000000 1.000000
s 0
f 62/29/43 64/30/43 60/31/43 58/32/43
f 60/29/44 64/30/44 63/31/44 59/32/44
f 63/29/45 61/30/45 57/31/45 59/32/45
f 61/29/46 63/30/46 64/31/46 62/32/46
f 58/29/47 60/30/47 59/31/47 57/32/47
f 57/29/48 61/30/48 62/31/48 58/32/48
o Drawer_Collision
v 4.867765 2.834410 0.779101
v 4.867765 2.834410 1.812063
v 4.867765 -0.135000 0.779101
v 4.867765 -0.135000 1.812063
v 4.228898 2.834410 0.779101
v 4.228898 2.834410 1.812063
v 4.228898 -0.135000 0.779101
v 4.228898 -0.135000 1.812063
vn -0.0000 -0.0000 1.0000
vn -0.0000 -1.0000 -0.0000
vn -0.0000 -0.0000 -1.0000
vn -1.0000 -0.0000 -0.0000
vn 1.0000 -0.0000 -0.0000
vn -0.0000 1.0000 -0.0000
vt 0.000000 0.000000
vt 1.000000 0.000000
vt 1.000000 1.000000
vt 0.000000 1.000000
s 0
f 70/33/49 72/34/49 68/35/49 66/36/49
f 68/33/50 72/34/50 71/35/50 67/36/50
f 71/33/51 69/34/51 65/35/51 67/36/51
f 69/33/52 71/34/52 72/35/52 70/36/52
f 66/33/53 68/34/53 67/35/53 65/36/53
f 65/33/54 69/34/54 70/35/54 66/36/54
o Easle_Collision
v 4.300552 2.834410 -1.550899
v 4.300552 2.834410 -0.517938
v 4.300552 -0.135000 -1.550899
v 4.300552 -0.135000 -0.517938
v 3.376112 2.834410 -1.550899
v 3.376112 2.834410 -0.517938
v 3.376112 -0.135000 -1.550899
v 3.376112 -0.135000 -0.517938
vn -0.0000 -0.0000 1.0000
vn -0.0000 -1.0000 -0.0000
vn -0.0000 -0.0000 -1.0000
vn -1.0000 -0.0000 -0.0000
vn 1.0000 -0.0000 -0.0000
vn -0.0000 1.0000 -0.0000
vt 0.000000 0.000000
vt 1.000000 0.000000
vt 1.000000 1.000000
vt 0.000000 1.000000
s 0
f 78/37/55 80/38/55 76/39/55 74/40/55
f 76/37/56 80/38/56 79/39/56 75/40/56
f 79/37/57 77/38/57 73/39/57 75/40/57
f 77/37/58 79/38/58 80/39/58 78/40/58
f 74/37/59 76/38/59 75/39/59 73/40/59
f 73/37/60 77/38/60 78/39/60 74/40/60
o Chair_Collision
v -0.089049 2.834410 -2.058237
v -0.089049 2.834410 -1.494804
v -0.089049 -0.135000 -2.058237
v -0.089049 -0.135000 -1.494804
v -0.662202 2.834410 -2.058237
v -0.662202 2.834410 -1.494804
v -0.662202 -0.135000 -2.058237
v -0.662202 -0.135000 -1.494804
vn -0.0000 -0.0000 1.0000
vn -0.0000 -1.0000 -0.0000
vn -0.0000 -0.0000 -1.0000
vn -1.0000 -0.0000 -0.0000
vn 1.0000 -0.0000 -0.0000
vn -0.0000 1.0000 -0.0000
vt 0.000000 0.000000
vt 1.000000 0.000000
vt 1.000000 1.000000
vt 0.000000 1.000000
s 0
f 86/41/61 88/42/61 84/43/61 82/44/61
f 84/41/62 88/42/62 87/43/62 83/44/62
f 87/41/63 85/42/63 81/43/63 83/44/63
f 85/41/64 87/42/64 88/43/64 86/44/64
f 82/41/65 84/42/65 83/43/65 81/44/65
f 81/41/66 85/42/66 86/43/66 82/44/66
o Desk_Collision.001
v -1.270695 2.834410 -2.816823
v 0.541683 2.834410 -2.816823
v -1.270695 -0.135000 -2.816823
v 0.541683 -0.135000 -2.816823
v -1.270695 2.834410 -2.262159
v 0.541683 2.834410 -2.262159
v -1.270695 -0.135000 -2.262159
v 0.541683 -0.135000 -2.262159
vn 1.0000 -0.0000 -0.0000
vn -0.0000 -1.0000 -0.0000
vn -1.0000 -0.0000 -0.0000
vn -0.0000 -0.0000 1.0000
vn -0.0000 -0.0000 -1.0000
vn -0.0000 1.0000 -0.0000
vt 0.000000 0.000000
vt 1.000000 0.000000
vt 1.000000 1.000000
vt 0.000000 1.000000
s 0
f 94/45/67 96/46/67 92/47/67 90/48/67
f 92/45/68 96/46/68 95/47/68 91/48/68
f 95/45/69 93/46/69 89/47/69 91/48/69
f 93/45/70 95/46/70 96/47/70 94/48/70
f 90/45/71 92/46/71 91/47/71 89/48/71
f 89/45/72 93/46/72 94/47/72 90/48/72
o Desk_Collision
v -0.561206 2.834410 -2.826153
v -0.561206 2.834410 -1.013775
v -0.561206 -0.135000 -2.826153
v -0.561206 -0.135000 -1.013775
v -1.115870 2.834410 -2.826153
v -1.115870 2.834410 -1.013775
v -1.115870 -0.135000 -2.826153
v -1.115870 -0.135000 -1.013775
vn -0.0000 -0.0000 1.0000
vn -0.0000 -1.0000 -0.0000
vn -0.0000 -0.0000 -1.0000
vn -1.0000 -0.0000 -0.0000
vn 1.0000 -0.0000 -0.0000
vn -0.0000 1.0000 -0.0000
vt 0.000000 0.000000
vt 1.000000 0.000000
vt 1.000000 1.000000
vt 0.000000 1.000000
s 0
f 102/49/73 104/50/73 100/51/73 98/52/73
f 100/49/74 104/50/74 103/51/74 99/52/74
f 103/49/75 101/50/75 97/51/75 99/52/75
f 101/49/76 103/50/76 104/51/76 102/52/76
f 98/49/77 100/50/77 99/51/77 97/52/77
f 97/49/78 101/50/78 102/51/78 98/52/78
o Collision.010
v 1.194620 -0.135000 -0.619679
v 1.194620 2.835000 -0.619679
v 1.458620 -0.135000 -0.619679
v 1.458620 2.835000 -0.619679
v 1.194620 -0.135000 0.257321
v 1.194620 2.835000 0.257321
v 1.458620 -0.135000 0.257321
v 1.458620 2.835000 0.257321
vn -0.0000 1.0000 -0.0000
vn -0.0000 -0.0000 1.0000
vn -1.0000 -0.0000 -0.0000
vn -0.0000 -1.0000 -0.0000
vn 1.0000 -0.0000 -0.0000
vn -0.0000 -0.0000 -1.0000
vt 0.875000 0.750000
vt 0.625000 0.000000
vt 0.375000 0.000000
vt 0.125000 0.750000
s 0
f 108/53/79 106/53/79 110/53/79 112/53/79
f 110/54/80 109/55/80 111/55/80 112/54/80
f 106/54/81 105/55/81 109/55/81 110/54/81
f 105/56/82 107/56/82 111/56/82 109/56/82
f 107/55/83 108/54/83 112/54/83 111/55/83
f 106/53/84 108/53/84 107/55/84 105/56/84
o Collision.009
v 1.194620 -0.135000 -2.851929
v 1.194620 2.835000 -2.851929
v 1.458620 -0.135000 -2.851929
v 1.458620 2.835000 -2.851929
v 1.194620 -0.135000 -1.445429
v 1.194620 2.835000 -1.445429
v 1.458620 -0.135000 -1.445429
v 1.458620 2.835000 -1.445429
vn -0.0000 1.0000 -0.0000
vn 1.0000 -0.0000 -0.0000
vn -0.0000 -1.0000 -0.0000
vn -1.0000 -0.0000 -0.0000
vn -0.0000 -0.0000 1.0000
vn -0.0000 -0.0000 -1.0000
vt 0.875000 0.750000
vt 0.375000 0.000000
vt 0.625000 0.000000
vt 0.125000 0.750000
s 0
f 116/57/85 114/57/85 118/57/85 120/57/85
f 115/58/86 116/59/86 120/59/86 119/58/86
f 113/60/87 115/60/87 119/60/87 117/60/87
f 114/59/88 113/58/88 117/58/88 118/59/88
f 118/57/89 117/60/89 119/58/89 120/57/89
f 114/57/90 116/57/90 115/58/90 113/60/90
o Collision.008
v -0.680880 -0.135000 0.128821
v -0.680880 2.835000 0.128821
v -0.680880 2.835000 2.108821
v -0.680880 -0.135000 2.108821
v -1.395880 -0.135000 0.128821
v -1.395880 2.835000 0.128821
v -1.395880 2.835000 2.108821
v -1.395880 -0.135000 2.108821
vn -0.0000 -1.0000 -0.0000
vn -1.0000 -0.0000 -0.0000
vn -0.0000 1.0000 -0.0000
vn -0.0000 -0.0000 1.0000
vn 1.0000 -0.0000 -0.0000
vn -0.0000 -0.0000 -1.0000
vt 0.125000 0.750000
vt 0.375000 0.750000
vt 0.125000 0.750000
vt 0.625000 0.750000
vt 0.625000 1.000000
vt 0.375000 1.000000
vt 0.875000 0.750000
vt 0.875000 0.750000
vt 0.625000 0.000000
vt 0.375000 0.000000
s 0
f 121/61/91 124/62/91 128/62/91 125/63/91
f 128/62/92 127/64/92 126/65/92 125/66/92
f 123/64/93 122/67/93 126/68/93 127/64/93
f 124/62/94 123/64/94 127/64/94 128/62/94
f 121/61/95 122/67/95 123/64/95 124/62/95
f 122/69/96 121/70/96 125/63/96 126/65/96
o Collision.007
v -1.048380 -0.135000 0.368821
v -1.048380 2.835000 0.368821
v -1.378380 -0.135000 0.368821
v -1.378380 2.835000 0.368821
v -1.048380 -0.135000 -2.931179
v -1.048380 2.835000 -2.931179
v -1.378380 -0.135000 -2.931179
v -1.378380 2.835000 -2.931179
vn 1.0000 -0.0000 -0.0000
vn -0.0000 1.0000 -0.0000
vn -1.0000 -0.0000 -0.0000
vn -0.0000 -1.0000 -0.0000
vn -0.0000 -0.0000 -1.0000
vt 0.625000 0.000000
vt 0.375000 0.000000
vt 0.875000 0.750000
vt 0.375000 1.000000
vt 0.625000 1.000000
vt 0.125000 0.750000
s 0
f 130/71/97 129/72/97 133/72/97 134/71/97
f 132/73/98 130/73/98 134/73/98 136/73/98
f 131/74/99 132/75/99 136/75/99 135/74/99
f 129/76/100 131/76/100 135/76/100 133/76/100
f 134/73/101 133/76/101 135/74/101 136/73/101
o Collision.006
v -1.541130 -0.135000 -2.751179
v -1.541130 2.835000 -2.751179
v -1.541130 -0.135000 -3.411180
v -1.541130 2.835000 -3.411180
v 4.369370 -0.135000 -2.751179
v 4.369370 2.835000 -2.751179
v 4.369370 -0.135000 -3.411179
v 4.369370 2.835000 -3.411179
vn -1.0000 -0.0000 -0.0000
vn -0.0000 1.0000 -0.0000
vn -0.0000 -0.0000 -1.0000
vn -0.0000 -1.0000 -0.0000
vn 1.0000 -0.0000 -0.0000
vn -0.0000 -0.0000 1.0000
vt 0.375000 1.000000
vt 0.625000 1.000000
vt 0.875000 0.750000
vt 0.375000 0.000000
vt 0.625000 0.000000
vt 0.250000 0.875000
vt 0.125000 0.750000
s 0
f 137/77/102 138/78/102 140/78/102 139/77/102
f 140/79/103 138/79/103 142/79/103 144/79/103
f 139/80/104 140/81/104 144/81/104 143/80/104
f 137/82/105 139/83/105 143/83/105 141/83/105
f 142/79/106 141/83/106 143/80/106 144/79/106
f 138/79/107 137/82/107 141/80/107 142/79/107
o Collision.005
v 4.076870 -0.135000 -2.931361
v 4.076870 2.835000 -2.931361
v 4.076870 -0.135000 -3.729175
v 4.076870 2.835000 -3.729175
v 6.601370 -0.135000 -2.931361
v 6.601370 2.835000 -2.931361
v 6.601370 -0.135000 -3.729174
v 6.601370 2.835000 -3.729174
v 4.076870 -0.135000 -2.333001
v 4.076870 2.835000 -2.333001
v 6.601370 -0.135000 -2.333001
v 6.601370 2.835000 -2.333001
vn -0.0000 1.0000 -0.0000
vn -0.0000 -0.0000 -1.0000
vn -0.0000 -1.0000 -0.0000
vn -1.0000 -0.0000 -0.0000
vn 1.0000 -0.0000 -0.0000
vn -0.0000 -0.0000 1.0000
vt 0.875000 0.750000
vt 0.375000 0.000000
vt 0.625000 0.000000
vt 0.125000 0.750000
s 0
f 148/84/108 146/84/108 150/84/108 152/84/108
f 147/85/109 148/86/109 152/86/109 151/85/109
f 145/87/110 147/87/110 151/87/110 149/87/110
f 150/84/108 146/84/108 154/84/108 156/84/108
f 146/84/111 148/84/111 147/85/111 145/87/111
f 150/84/112 149/87/112 151/85/112 152/84/112
f 154/86/113 153/85/113 155/85/113 156/86/113
f 149/87/112 150/84/112 156/84/112 155/87/112
f 146/84/111 145/87/111 153/87/111 154/84/111
f 145/87/110 149/87/110 155/87/110 153/87/110
o Collision.004
v 6.449120 -0.135000 -2.751179
v 6.449120 2.835000 -2.751179
v 6.449120 -0.135000 -3.411179
v 6.449120 2.835000 -3.411179
v 7.274120 -0.135000 -2.751179
v 7.274120 2.835000 -2.751179
v 7.274120 -0.135000 -3.411179
v 7.274120 2.835000 -3.411179
vn -0.0000 -1.0000 -0.0000
vn -0.0000 -0.0000 1.0000
vn -0.0000 1.0000 -0.0000
vn -0.0000 -0.0000 -1.0000
vn 1.0000 -0.0000 -0.0000
vn -1.0000 -0.0000 -0.0000
vt 0.125000 0.750000
vt 0.250000 0.375000
vt 0.625000 0.000000
vt 0.375000 0.000000
vt 0.375000 0.000000
vt 0.875000 0.750000
s 0
f 157/88/114 159/88/114 163/88/114 161/89/114
f 158/90/115 157/91/115 161/92/115 162/90/115
f 160/93/116 158/93/116 162/93/116 164/93/116
f 159/91/117 160/90/117 164/90/117 163/91/117
f 162/90/118 161/91/118 163/91/118 164/90/118
f 158/93/119 160/93/119 159/91/119 157/88/119
o Collision.003
v 6.921620 -0.135000 -3.006179
v 6.921620 2.835000 -3.006179
v 7.251620 -0.135000 -3.006179
v 7.251620 2.835000 -3.006179
v 6.921620 -0.135000 1.943821
v 6.921620 2.835000 1.943821
v 7.251620 -0.135000 1.943821
v 7.251620 2.835000 1.943821
vn -0.0000 1.0000 -0.0000
vn 1.0000 -0.0000 -0.0000
vn -0.0000 -1.0000 -0.0000
vn -1.0000 -0.0000 -0.0000
vn -0.0000 -0.0000 1.0000
vn -0.0000 -0.0000 -1.0000
vt 0.875000 0.750000
vt 0.375000 0.000000
vt 0.625000 0.000000
vt 0.125000 0.750000
s 0
f 168/94/120 166/94/120 170/94/120 172/94/120
f 167/95/121 168/96/121 172/96/121 171/95/121
f 165/97/122 167/97/122 171/97/122 169/97/122
f 166/96/123 165/95/123 169/95/123 170/96/123
f 170/94/124 169/97/124 171/95/124 172/94/124
f 166/94/125 168/94/125 167/95/125 165/97/125
o Collision.002
v 7.401620 -0.135000 1.703821
v 7.401620 2.835000 1.703821
v 7.401620 -0.135000 2.033821
v 7.401620 2.835000 2.033821
v 1.771620 -0.135000 1.703821
v 1.771620 2.835000 1.703821
v 1.771620 -0.135000 2.033821
v 1.771620 2.835000 2.033821
vn 1.0000 -0.0000 -0.0000
vn -0.0000 -0.0000 1.0000
vn -0.0000 1.0000 -0.0000
vn -0.0000 -1.0000 -0.0000
vn -1.0000 -0.0000 -0.0000
vn -0.0000 -0.0000 -1.0000
vt 0.375000 0.000000
vt 0.625000 0.000000
vt 0.875000 0.750000
vt 0.125000 0.750000
s 0
f 173/98/126 174/99/126 176/99/126 175/98/126
f 176/99/127 180/99/127 179/98/127 175/98/127
f 174/100/128 178/100/128 180/100/128 176/100/128
f 175/101/129 179/101/129 177/101/129 173/101/129
f 178/99/130 177/98/130 179/98/130 180/99/130
f 174/100/131 173/101/131 177/98/131 178/100/131
o Collision.001
v 0.571620 -0.135000 0.128821
v 0.571620 2.835000 0.128821
v 2.001621 -0.135000 0.128821
v 2.001621 2.835000 0.128821
v 0.571620 -0.135000 2.108821
v 0.571620 2.835000 2.108821
v 2.001620 -0.135000 2.108821
v 2.001620 2.835000 2.108821
vn -0.0000 -0.0000 -1.0000
vn -0.0000 -0.0000 1.0000
vn -0.0000 -1.0000 -0.0000
vn -0.0000 1.0000 -0.0000
vn -1.0000 -0.0000 -0.0000
vn 1.0000 -0.0000 -0.0000
vt 0.375000 0.000000
vt 0.625000 0.000000
vt 0.625000 0.250000
vt 0.375000 0.250000
vt 0.375000 0.500000
vt 0.625000 0.500000
vt 0.625000 0.750000
vt 0.375000 0.750000
vt 0.125000 0.500000
vt 0.125000 0.750000
vt 0.875000 0.500000
vt 0.875000 0.750000
s 0
f 181/102/132 182/103/132 184/104/132 183/105/132
f 187/106/133 188/107/133 186/108/133 185/109/133
f 183/110/134 187/106/134 185/109/134 181/111/134
f 188/107/135 184/112/135 182/113/135 186/108/135
f 181/111/136 185/109/136 186/108/136 182/113/136
f 184/112/137 188/107/137 187/106/137 183/110/137
o Collision
v 0.704120 -0.135000 2.097321
v 0.704120 2.835000 2.097321
v -0.780880 2.835000 2.097321
v -0.780880 -0.135000 2.097321
v 0.704120 -0.135000 0.370321
v 0.704120 2.835000 0.370321
v -0.780880 -0.135000 0.370321
v -0.780880 2.835000 0.370321
vn -0.0000 -1.0000 -0.0000
vn -0.0000 -0.0000 1.0000
vn -0.0000 -0.0000 -1.0000
vn -0.0000 1.0000 -0.0000
vn -1.0000 -0.0000 -0.0000
vn 1.0000 -0.0000 -0.0000
vt 0.375000 0.000000
vt 0.375000 0.750000
vt 0.625000 0.750000
vt 0.625000 0.000000
vt 0.625000 0.047917
vt 0.375000 0.047917
s 0
f 193/114/138 189/115/138 192/115/138 195/114/138
f 189/115/139 190/116/139 191/116/139 192/115/139
f 194/117/140 193/114/140 195/114/140 196/117/140
f 194/117/141 196/118/141 191/116/141 190/116/141
f 191/116/142 196/117/142 195/119/142 192/115/142
f 190/116/143 189/115/143 193/114/143 194/117/143
o Armchair_Collision
v 3.735835 2.834410 -2.822217
v 3.735835 2.834410 -1.809914
v 3.735835 -0.135000 -2.822217
v 3.735835 -0.135000 -1.809914
v 2.903839 2.834410 -2.822217
v 2.903839 2.834410 -1.809914
v 2.903839 -0.135000 -2.822217
v 2.903839 -0.135000 -1.809914
vn -0.0000 -0.0000 1.0000
vn -0.0000 -1.0000 -0.0000
vn -0.0000 -0.0000 -1.0000
vn -1.0000 -0.0000 -0.0000
vn 1.0000 -0.0000 -0.0000
vn -0.0000 1.0000 -0.0000
vt 0.000000 0.000000
vt 1.000000 0.000000
vt 1.000000 1.000000
vt 0.000000 1.000000
s 0
f 202/120/144 204/121/144 200/122/144 198/123/144
f 200/120/145 204/121/145 203/122/145 199/123/145
f 203/120/146 201/121/146 197/122/146 199/123/146
f 201/120/147 203/121/147 204/122/147 202/123/147
f 198/120/148 200/121/148 199/122/148 197/123/148
f 197/120/149 201/121/149 202/122/149 198/123/149
