# Blender 5.0.0
# www.blender.org
mtllib Door.mtl
o Door2_Collision
v 1.572359 2.834410 -1.503946
v 1.572359 2.834410 -0.564890
v 1.572359 -0.135000 -1.503946
v 1.572359 -0.135000 -0.564890
v 1.079324 2.834410 -1.503946
v 1.079324 2.834410 -0.564890
v 1.079324 -0.135000 -1.503946
v 1.079324 -0.135000 -0.564890
vn -0.0000 -0.0000 1.0000
vn -0.0000 -1.0000 -0.0000
vn -0.0000 -0.0000 -1.0000
vn -1.0000 -0.0000 -0.0000
vn 1.0000 -0.0000 -0.0000
vn -0.0000 1.0000 -0.0000
vt 0.000000 0.000000
vt 1.000000 0.000000
vt 1.000000 1.000000
vt 0.000000 1.000000
s 0
f 6/1/1 8/2/1 4/3/1 2/4/1
f 4/1/2 8/2/2 7/3/2 3/4/2
f 7/1/3 5/2/3 1/3/3 3/4/3
f 5/1/4 7/2/4 8/3/4 6/4/4
f 2/1/5 4/2/5 3/3/5 1/4/5
f 1/1/6 5/2/6 6/3/6 2/4/6
o Door2_Handles
v 1.379465 1.085205 -1.423701
v 1.414852 1.085205 -1.423701
v 1.379465 1.081754 -1.423360
v 1.414852 1.081754 -1.423360
v 1.379465 1.078434 -1.422354
v 1.414852 1.078434 -1.422354
v 1.379465 1.075376 -1.420719
v 1.414852 1.075376 -1.420719
v 1.379465 1.072694 -1.418518
v 1.414852 1.072694 -1.418518
v 1.379465 1.070494 -1.415837
v 1.414852 1.070494 -1.415837
v 1.379465 1.068859 -1.412778
v 1.414852 1.068859 -1.412778
v 1.379465 1.067852 -1.409459
v 1.414852 1.067852 -1.409459
v 1.379465 1.067512 -1.406007
v 1.414852 1.067512 -1.406007
v 1.379465 1.067852 -1.402555
v 1.414852 1.067852 -1.402555
v 1.379465 1.068859 -1.399236
v 1.414852 1.068859 -1.399236
v 1.379465 1.070494 -1.396177
v 1.414852 1.070494 -1.396177
v 1.379465 1.072694 -1.393496
v 1.414852 1.072694 -1.393496
v 1.379465 1.075376 -1.391295
v 1.414852 1.075376 -1.391295
v 1.379465 1.078434 -1.389660
v 1.414852 1.078434 -1.389660
v 1.379465 1.081754 -1.388654
v 1.414852 1.081754 -1.388654
v 1.379465 1.085205 -1.388314
v 1.414852 1.085205 -1.388314
v 1.379465 1.088657 -1.388654
v 1.414852 1.088657 -1.388654
v 1.379465 1.091976 -1.389660
v 1.414852 1.091976 -1.389660
v 1.379465 1.095035 -1.391295
v 1.414852 1.095035 -1.391295
v 1.379465 1.097717 -1.393496
v 1.414852 1.097717 -1.393496
v 1.379465 1.099917 -1.396177
v 1.414852 1.099917 -1.396177
v 1.379465 1.101552 -1.399236
v 1.414852 1.101552 -1.399236
v 1.379465 1.102559 -1.402555
v 1.414852 1.102559 -1.402555
v 1.379465 1.102559 -1.409459
v 1.414852 1.102559 -1.409459
v 1.379465 1.101552 -1.412778
v 1.414852 1.101552 -1.412778
v 1.379465 1.099917 -1.415837
v 1.414852 1.099917 -1.415837
v 1.379465 1.097717 -1.418518
v 1.414852 1.097717 -1.418518
v 1.379465 1.095035 -1.420719
v 1.414852 1.095035 -1.420719
v 1.379465 1.091976 -1.422354
v 1.414852 1.091976 -1.422354
v 1.379465 1.088657 -1.423360
v 1.414852 1.088657 -1.423360
v 1.414852 1.080910 -1.438480
v 1.414852 1.085205 -1.438675
v 1.414852 1.076779 -1.437901
v 1.414852 1.072972 -1.436961
v 1.414852 1.069636 -1.435695
v 1.414852 1.066897 -1.434154
v 1.414852 1.064862 -1.432395
v 1.414852 1.063610 -1.430486
v 1.414852 1.063187 -1.278876
v 1.414852 1.063610 -1.276891
v 1.414852 1.064862 -1.274982
v 1.414852 1.066897 -1.273224
v 1.414852 1.069636 -1.271682
v 1.414852 1.072972 -1.270416
v 1.414852 1.076779 -1.269476
v 1.414852 1.080910 -1.268897
v 1.414852 1.085205 -1.268702
v 1.414852 1.089501 -1.268897
v 1.414852 1.093632 -1.269476
v 1.414852 1.097438 -1.270416
v 1.414852 1.100775 -1.271682
v 1.414852 1.103514 -1.273224
v 1.414852 1.105548 -1.274982
v 1.414852 1.106801 -1.276891
v 1.414852 1.107224 -1.278876
v 1.414852 1.106801 -1.430486
v 1.414852 1.105548 -1.432395
v 1.414852 1.103514 -1.434154
v 1.414852 1.100775 -1.435695
v 1.414852 1.097438 -1.436961
v 1.414852 1.093632 -1.437901
v 1.414852 1.089501 -1.438480
v 1.432953 1.080910 -1.438480
v 1.432953 1.085205 -1.438675
v 1.432953 1.076779 -1.437901
v 1.432953 1.072972 -1.436961
v 1.432953 1.069636 -1.435695
v 1.432953 1.066897 -1.434154
v 1.432953 1.064862 -1.432395
v 1.432953 1.063610 -1.430486
v 1.432953 1.063187 -1.278876
v 1.432953 1.063610 -1.276891
v 1.432953 1.064862 -1.274982
v 1.432953 1.066897 -1.273224
v 1.432953 1.069636 -1.271682
v 1.432953 1.072972 -1.270416
v 1.432953 1.076779 -1.269476
v 1.432953 1.080910 -1.268897
v 1.432953 1.085205 -1.268702
v 1.432953 1.089501 -1.268897
v 1.432953 1.093632 -1.269476
v 1.432953 1.097438 -1.270416
v 1.432953 1.100775 -1.271682
v 1.432953 1.103514 -1.273224
v 1.432953 1.105548 -1.274982
v 1.432953 1.106801 -1.276891
v 1.432953 1.107224 -1.278876
v 1.432953 1.106801 -1.430486
v 1.432953 1.105548 -1.432395
v 1.432953 1.103514 -1.434154
v 1.432953 1.100775 -1.435695
v 1.432953 1.097438 -1.436961
v 1.432953 1.093632 -1.437901
v 1.432953 1.089501 -1.438480
v 1.379465 1.085205 -1.371341
v 1.379465 1.093767 -1.372007
v 1.379465 1.101999 -1.373980
v 1.379465 1.109586 -1.377184
v 1.379465 1.116237 -1.381495
v 1.379465 1.121694 -1.386748
v 1.379465 1.125750 -1.392741
v 1.379465 1.128247 -1.399244
v 1.379465 1.129090 -1.406007
v 1.379465 1.128247 -1.412770
v 1.379465 1.125750 -1.419273
v 1.379465 1.121694 -1.425266
v 1.379465 1.116237 -1.430519
v 1.379465 1.109586 -1.434831
v 1.379465 1.101999 -1.438034
v 1.379465 1.093767 -1.440007
v 1.379465 1.085205 -1.440673
v 1.362058 1.085205 -1.371341
v 1.362058 1.093767 -1.372007
v 1.362058 1.101999 -1.373980
v 1.362058 1.109586 -1.377184
v 1.362058 1.116237 -1.381495
v 1.362058 1.121694 -1.386748
v 1.362058 1.125750 -1.392741
v 1.362058 1.128247 -1.399244
v 1.362058 1.129090 -1.406007
v 1.362058 1.128247 -1.412770
v 1.362058 1.125750 -1.419273
v 1.362058 1.121694 -1.425266
v 1.362058 1.116237 -1.430519
v 1.362058 1.109586 -1.434831
v 1.362058 1.101999 -1.438034
v 1.362058 1.093767 -1.440007
v 1.362058 1.085205 -1.440673
v 1.379465 0.947050 -1.440673
v 1.379465 0.938488 -1.440007
v 1.379465 0.930256 -1.438034
v 1.379465 0.922669 -1.434830
v 1.379465 0.916019 -1.430519
v 1.379465 0.910561 -1.425266
v 1.379465 0.906506 -1.419273
v 1.379465 0.904008 -1.412770
v 1.379465 0.904008 -1.399244
v 1.379465 0.906506 -1.392741
v 1.379465 0.910561 -1.386748
v 1.379465 0.916019 -1.381495
v 1.379465 0.922669 -1.377184
v 1.379465 0.930256 -1.373980
v 1.379465 0.938488 -1.372007
v 1.379465 0.947050 -1.371341
v 1.362058 0.947050 -1.440673
v 1.362058 0.938488 -1.440007
v 1.362058 0.930256 -1.438034
v 1.362058 0.922669 -1.434830
v 1.362058 0.916019 -1.430519
v 1.362058 0.910561 -1.425266
v 1.362058 0.906506 -1.419273
v 1.362058 0.904008 -1.412770
v 1.362058 0.904008 -1.399244
v 1.362058 0.906506 -1.392741
v 1.362058 0.910561 -1.386748
v 1.362058 0.916019 -1.381495
v 1.362058 0.922669 -1.377184
v 1.362058 0.930256 -1.373980
v 1.362058 0.938488 -1.372007
v 1.362058 0.947050 -1.371341
v 1.362058 1.016128 -1.371341
v 1.362058 1.016128 -1.440673
v 1.379465 1.016128 -1.371341
v 1.379465 1.016128 -1.440673
v 1.379465 1.102729 -1.407733
v 1.414852 1.102729 -1.407733
v 1.379465 0.937985 -1.401464
v 1.379465 1.102729 -1.404281
v 1.414852 1.102729 -1.404281
v 1.414852 1.107013 -1.277883
v 1.432953 1.107013 -1.277883
v 1.379465 0.937985 -1.410550
v 1.362058 0.964745 -1.440673
v 1.379465 0.964745 -1.440673
v 1.362058 0.964745 -1.371341
v 1.379465 0.964745 -1.371341
v 1.379465 0.972947 -1.400940
v 1.379465 0.974305 -1.406007
v 1.379465 0.972947 -1.411074
v 1.379465 0.969238 -1.414784
v 1.379465 0.969238 -1.397230
v 1.379465 0.964170 -1.416142
v 1.379465 0.959103 -1.414784
v 1.379465 0.964170 -1.395872
v 1.379465 0.959103 -1.397230
v 1.379465 0.955393 -1.410550
v 1.379465 0.955393 -1.401464
v 1.367027 0.972947 -1.400940
v 1.367027 0.974305 -1.406007
v 1.367027 0.972947 -1.411074
v 1.367027 0.969238 -1.414784
v 1.367027 0.937985 -1.401464
v 1.367027 0.969238 -1.397230
v 1.367027 0.955393 -1.401464
v 1.367027 0.937985 -1.410550
v 1.367027 0.955393 -1.410550
v 1.367027 0.964170 -1.416142
v 1.367027 0.959103 -1.414784
v 1.367027 0.964170 -1.395872
v 1.367027 0.959103 -1.397230
v 1.367027 0.964201 -1.406007
v 1.272215 1.085205 -1.423701
v 1.236828 1.085205 -1.423701
v 1.272215 1.081754 -1.423360
v 1.236828 1.081754 -1.423360
v 1.272215 1.078434 -1.422354
v 1.236828 1.078434 -1.422354
v 1.272215 1.075376 -1.420719
v 1.236828 1.075376 -1.420719
v 1.272215 1.072694 -1.418518
v 1.236828 1.072694 -1.418518
v 1.272215 1.070494 -1.415837
v 1.236828 1.070494 -1.415837
v 1.272215 1.068859 -1.412778
v 1.236828 1.068859 -1.412778
v 1.272215 1.067852 -1.409459
v 1.236828 1.067852 -1.409459
v 1.272215 1.067512 -1.406007
v 1.236828 1.067512 -1.406007
v 1.272215 1.067852 -1.402555
v 1.236828 1.067852 -1.402555
v 1.272215 1.068859 -1.399236
v 1.236828 1.068859 -1.399236
v 1.272215 1.070494 -1.396177
v 1.236828 1.070494 -1.396177
v 1.272215 1.072694 -1.393496
v 1.236828 1.072694 -1.393496
v 1.272215 1.075376 -1.391295
v 1.236828 1.075376 -1.391295
v 1.272215 1.078434 -1.389660
v 1.236828 1.078434 -1.389660
v 1.272215 1.081754 -1.388654
v 1.236828 1.081754 -1.388654
v 1.272215 1.085205 -1.388314
v 1.236828 1.085205 -1.388314
v 1.272215 1.088657 -1.388654
v 1.236828 1.088657 -1.388654
v 1.272215 1.091976 -1.389660
v 1.236828 1.091976 -1.389660
v 1.272215 1.095035 -1.391295
v 1.236828 1.095035 -1.391295
v 1.272215 1.097717 -1.393496
v 1.236828 1.097717 -1.393496
v 1.272215 1.099917 -1.396177
v 1.236828 1.099917 -1.396177
v 1.272215 1.101552 -1.399236
v 1.236828 1.101552 -1.399236
v 1.272215 1.102559 -1.402555
v 1.236828 1.102559 -1.402555
v 1.272215 1.102559 -1.409459
v 1.236828 1.102559 -1.409459
v 1.272215 1.101552 -1.412778
v 1.236828 1.101552 -1.412778
v 1.272215 1.099917 -1.415837
v 1.236828 1.099917 -1.415837
v 1.272215 1.097717 -1.418518
v 1.236828 1.097717 -1.418518
v 1.272215 1.095035 -1.420719
v 1.236828 1.095035 -1.420719
v 1.272215 1.091976 -1.422354
v 1.236828 1.091976 -1.422354
v 1.272215 1.088657 -1.423360
v 1.236828 1.088657 -1.423360
v 1.236828 1.080910 -1.438480
v 1.236828 1.085205 -1.438675
v 1.236828 1.076779 -1.437901
v 1.236828 1.072972 -1.436961
v 1.236828 1.069636 -1.435695
v 1.236828 1.066897 -1.434154
v 1.236828 1.064862 -1.432395
v 1.236828 1.063610 -1.430486
v 1.236828 1.063187 -1.278876
v 1.236828 1.063610 -1.276891
v 1.236828 1.064862 -1.274982
v 1.236828 1.066897 -1.273224
v 1.236828 1.069636 -1.271682
v 1.236828 1.072972 -1.270416
v 1.236828 1.076779 -1.269476
v 1.236828 1.080910 -1.268897
v 1.236828 1.085205 -1.268702
v 1.236828 1.089501 -1.268897
v 1.236828 1.093632 -1.269476
v 1.236828 1.097438 -1.270416
v 1.236828 1.100775 -1.271682
v 1.236828 1.103514 -1.273224
v 1.236828 1.105548 -1.274982
v 1.236828 1.106801 -1.276891
v 1.236828 1.107224 -1.278876
v 1.236828 1.106801 -1.430486
v 1.236828 1.105548 -1.432395
v 1.236828 1.103514 -1.434154
v 1.236828 1.100775 -1.435695
v 1.236828 1.097438 -1.436961
v 1.236828 1.093632 -1.437901
v 1.236828 1.089501 -1.438480
v 1.218727 1.080910 -1.438480
v 1.218727 1.085205 -1.438675
v 1.218727 1.076779 -1.437901
v 1.218727 1.072972 -1.436961
v 1.218727 1.069636 -1.435695
v 1.218727 1.066897 -1.434154
v 1.218727 1.064862 -1.432395
v 1.218727 1.063610 -1.430486
v 1.218727 1.063187 -1.278876
v 1.218727 1.063610 -1.276891
v 1.218727 1.064862 -1.274982
v 1.218727 1.066897 -1.273224
v 1.218727 1.069636 -1.271682
v 1.218727 1.072972 -1.270416
v 1.218727 1.076779 -1.269476
v 1.218727 1.080910 -1.268897
v 1.218727 1.085205 -1.268702
v 1.218727 1.089501 -1.268897
v 1.218727 1.093632 -1.269476
v 1.218727 1.097438 -1.270416
v 1.218727 1.100775 -1.271682
v 1.218727 1.103514 -1.273224
v 1.218727 1.105548 -1.274982
v 1.218727 1.106801 -1.276891
v 1.218727 1.107224 -1.278876
v 1.218727 1.106801 -1.430486
v 1.218727 1.105548 -1.432395
v 1.218727 1.103514 -1.434154
v 1.218727 1.100775 -1.435695
v 1.218727 1.097438 -1.436961
v 1.218727 1.093632 -1.437901
v 1.218727 1.089501 -1.438480
v 1.272215 1.085205 -1.371341
v 1.272215 1.093767 -1.372007
v 1.272215 1.101999 -1.373980
v 1.272215 1.109586 -1.377184
v 1.272215 1.116237 -1.381495
v 1.272215 1.121694 -1.386748
v 1.272215 1.125750 -1.392741
v 1.272215 1.128247 -1.399244
v 1.272215 1.129090 -1.406007
v 1.272215 1.128247 -1.412770
v 1.272215 1.125750 -1.419273
v 1.272215 1.121694 -1.425266
v 1.272215 1.116237 -1.430519
v 1.272215 1.109586 -1.434831
v 1.272215 1.101999 -1.438034
v 1.272215 1.093767 -1.440007
v 1.272215 1.085205 -1.440673
v 1.289622 1.085205 -1.371341
v 1.289622 1.093767 -1.372007
v 1.289622 1.101999 -1.373980
v 1.289622 1.109586 -1.377184
v 1.289622 1.116237 -1.381495
v 1.289622 1.121694 -1.386748
v 1.289622 1.125750 -1.392741
v 1.289622 1.128247 -1.399244
v 1.289622 1.129090 -1.406007
v 1.289622 1.128247 -1.412770
v 1.289622 1.125750 -1.419273
v 1.289622 1.121694 -1.425266
v 1.289622 1.116237 -1.430519
v 1.289622 1.109586 -1.434831
v 1.289622 1.101999 -1.438034
v 1.289622 1.093767 -1.440007
v 1.289622 1.085205 -1.440673
v 1.272215 0.947050 -1.440673
v 1.272215 0.938488 -1.440007
v 1.272215 0.930256 -1.438034
v 1.272215 0.922669 -1.434830
v 1.272215 0.916019 -1.430519
v 1.272215 0.910561 -1.425266
v 1.272215 0.906506 -1.419273
v 1.272215 0.904008 -1.412770
v 1.272215 0.904008 -1.399244
v 1.272215 0.906506 -1.392741
v 1.272215 0.910561 -1.386748
v 1.272215 0.916019 -1.381495
v 1.272215 0.922669 -1.377184
v 1.272215 0.930256 -1.373980
v 1.272215 0.938488 -1.372007
v 1.272215 0.947050 -1.371341
v 1.289622 0.947050 -1.440673
v 1.289622 0.938488 -1.440007
v 1.289622 0.930256 -1.438034
v 1.289622 0.922669 -1.434830
v 1.289622 0.916019 -1.430519
v 1.289622 0.910561 -1.425266
v 1.289622 0.906506 -1.419273
v 1.289622 0.904008 -1.412770
v 1.289622 0.904008 -1.399244
v 1.289622 0.906506 -1.392741
v 1.289622 0.910561 -1.386748
v 1.289622 0.916019 -1.381495
v 1.289622 0.922669 -1.377184
v 1.289622 0.930256 -1.373980
v 1.289622 0.938488 -1.372007
v 1.289622 0.947050 -1.371341
v 1.289622 1.016128 -1.371341
v 1.289622 1.016128 -1.440673
v 1.272215 1.016128 -1.371341
v 1.272215 1.016128 -1.440673
v 1.272215 1.102729 -1.407733
v 1.236828 1.102729 -1.407733
v 1.272215 0.937985 -1.401464
v 1.272215 1.102729 -1.404281
v 1.236828 1.102729 -1.404281
v 1.236828 1.107013 -1.277883
v 1.218727 1.107013 -1.277883
v 1.272215 0.937985 -1.410550
v 1.289622 0.964745 -1.440673
v 1.272215 0.964745 -1.440673
v 1.289622 0.964745 -1.371341
v 1.272215 0.964745 -1.371341
v 1.272215 0.972947 -1.400940
v 1.272215 0.974305 -1.406007
v 1.272215 0.972947 -1.411074
v 1.272215 0.969238 -1.414784
v 1.272215 0.969238 -1.397230
v 1.272215 0.964170 -1.416142
v 1.272215 0.959103 -1.414784
v 1.272215 0.964170 -1.395872
v 1.272215 0.959103 -1.397230
v 1.272215 0.955393 -1.410550
v 1.272215 0.955393 -1.401464
v 1.284653 0.972947 -1.400940
v 1.284653 0.974305 -1.406007
v 1.284653 0.972947 -1.411074
v 1.284653 0.969238 -1.414784
v 1.284653 0.937985 -1.401464
v 1.284653 0.969238 -1.397230
v 1.284653 0.955393 -1.401464
v 1.284653 0.937985 -1.410550
v 1.284653 0.955393 -1.410550
v 1.284653 0.964170 -1.416142
v 1.284653 0.959103 -1.414784
v 1.284653 0.964170 -1.395872
v 1.284653 0.959103 -1.397230
v 1.284653 0.964201 -1.406007
vn -0.0000 -0.0980 -0.9952
vn -0.0000 -0.2903 -0.9569
vn -0.0000 -0.4714 -0.8819
vn -0.0000 -0.6344 -0.7730
vn -0.0000 -0.7730 -0.6344
vn -0.0000 -0.8819 -0.4714
vn -0.0000 -0.9569 -0.2903
vn -0.0000 -0.9952 -0.0980
vn -0.0000 -0.9952 0.0980
vn -0.0000 -0.9569 0.2903
vn -0.0000 -0.8819 0.4714
vn -0.0000 -0.7730 0.6344
vn -0.0000 -0.6344 0.7730
vn -0.0000 -0.4714 0.8819
vn -0.0000 -0.2903 0.9569
vn -0.0000 -0.0980 0.9952
vn -0.0000 0.0980 0.9952
vn -0.0000 0.2903 0.9569
vn -0.0000 0.4714 0.8819
vn -0.0000 0.6344 0.7730
vn -0.0000 0.7730 0.6344
vn -0.0000 0.8819 0.4714
vn -0.0000 0.9569 0.2903
vn -0.0000 0.9952 -0.0980
vn -0.0000 0.9569 -0.2903
vn -0.0000 0.8819 -0.4714
vn -0.0000 0.7730 -0.6344
vn -0.0000 0.6344 -0.7730
vn -0.0000 0.4714 -0.8819
vn -0.0000 0.2903 -0.9569
vn -0.0000 0.0980 -0.9952
vn -0.0000 0.3546 0.9350
vn -1.0000 -0.0000 -0.0000
vn 1.0000 -0.0000 -0.0000
vn -0.0000 -0.8360 -0.5488
vn -0.0000 0.4906 0.8714
vn -0.0000 -1.0000 -0.0028
vn -0.0000 0.6539 0.7565
vn -0.0000 -0.9780 0.2085
vn -0.0000 0.8359 0.5488
vn -0.0000 -0.8360 0.5488
vn -0.0000 0.9780 0.2085
vn -0.0000 -0.6539 0.7565
vn -0.0000 -0.4906 0.8714
vn -0.0000 0.8360 -0.5488
vn -0.0000 -0.3546 0.9350
vn -0.0000 0.6540 -0.7565
vn -0.0000 -0.2398 0.9708
vn -0.0000 -0.0454 -0.9990
vn -0.0000 0.4906 -0.8714
vn -0.0000 -0.1388 0.9903
vn -0.0000 -0.1388 -0.9903
vn -0.0000 0.3546 -0.9350
vn -0.0000 -0.0455 0.9990
vn -0.0000 -0.2398 -0.9708
vn -0.0000 0.2398 -0.9708
vn -0.0000 0.0455 0.9990
vn -0.0000 -0.3546 -0.9350
vn -0.0000 0.1388 -0.9903
vn -0.0000 0.1388 0.9903
vn -0.0000 -0.4906 -0.8714
vn -0.0000 0.0454 -0.9990
vn -0.0000 0.2398 0.9708
vn -0.0000 -0.6540 -0.7565
vn -0.0000 0.6935 0.7205
vn -0.0000 0.8282 0.5604
vn -0.0000 0.9335 0.3585
vn -0.0000 0.9923 0.1237
vn -0.0000 0.9923 -0.1237
vn -0.0000 0.9335 -0.3585
vn -0.0000 0.8282 -0.5604
vn -0.0000 0.6935 -0.7205
vn -0.0000 0.5440 -0.8391
vn -0.0000 0.3890 -0.9213
vn -0.0000 0.0776 0.9970
vn -0.0000 0.2330 -0.9725
vn -0.0000 0.2330 0.9725
vn -0.0000 0.0776 -0.9970
vn -0.0000 0.3890 0.9213
vn -0.0000 0.5440 0.8391
vn -0.0000 -0.2330 -0.9725
vn -0.0000 -0.0776 0.9970
vn -0.0000 -0.3890 -0.9212
vn -0.0000 -0.5440 -0.8391
vn -0.0000 -0.6935 -0.7205
vn -0.0000 -0.8282 -0.5604
vn -0.0000 -0.9335 -0.3585
vn -0.0000 -0.9335 0.3585
vn -0.0000 -0.8282 0.5604
vn -0.0000 -0.6935 0.7205
vn -0.0000 -0.5440 0.8391
vn -0.0000 -0.3890 0.9213
vn -0.0000 -0.0776 -0.9970
vn -0.0000 -0.2330 0.9725
vn -0.0000 -0.0000 -1.0000
vn -0.0000 -0.0000 1.0000
vn -0.0000 -1.0000 -0.0000
vn -0.0000 0.9952 0.0980
vn -0.0000 1.0000 -0.0000
vn -0.0000 0.7522 -0.6590
vn -0.0000 -0.9659 -0.2588
vn -0.0000 -0.9659 0.2588
vn -0.0000 0.2588 -0.9659
vn -0.0000 0.7521 0.6590
vn -0.0000 0.2588 0.9659
vn -0.0000 -0.2588 -0.9659
vn -0.0000 -0.2588 0.9659
vn -0.0000 -0.7071 -0.7071
vn -0.0000 -0.7071 0.7071
vn -0.0000 1.0000 -0.0028
vt 0.151365 0.890855
vt 0.151365 0.781473
vt 0.162034 0.781473
vt 0.162034 0.890855
vt 0.172294 0.781473
vt 0.172294 0.890855
vt 0.181749 0.781473
vt 0.181749 0.890855
vt 0.190037 0.781473
vt 0.190037 0.890855
vt 0.407765 0.662303
vt 0.407765 0.771692
vt 0.399591 0.771692
vt 0.399591 0.662303
vt 0.390220 0.771692
vt 0.390220 0.662303
vt 0.380012 0.771692
vt 0.380012 0.662303
vt 0.369360 0.771692
vt 0.369360 0.662303
vt 0.358674 0.771692
vt 0.358674 0.662303
vt 0.348364 0.771692
vt 0.348364 0.662303
vt 0.338826 0.771692
vt 0.338826 0.662303
vt 0.330426 0.771692
vt 0.330426 0.662303
vt 0.487066 0.758546
vt 0.487066 0.867928
vt 0.478778 0.867928
vt 0.478778 0.758546
vt 0.469323 0.867928
vt 0.469323 0.758546
vt 0.459063 0.867928
vt 0.459063 0.758546
vt 0.448394 0.867928
vt 0.448394 0.758546
vt 0.437724 0.867928
vt 0.437724 0.758546
vt 0.427464 0.867928
vt 0.427464 0.758546
vt 0.418009 0.867928
vt 0.418009 0.758546
vt 0.409721 0.867928
vt 0.409721 0.758546
vt 0.077847 0.786993
vt 0.077847 0.896365
vt 0.069369 0.896365
vt 0.069369 0.786993
vt 0.059774 0.896365
vt 0.059774 0.786993
vt 0.049430 0.896365
vt 0.049430 0.786993
vt 0.033419 0.786993
vt 0.033419 0.896365
vt 0.028102 0.896365
vt 0.028102 0.786993
vt 0.017936 0.896365
vt 0.017936 0.786993
vt 0.008631 0.896365
vt 0.008631 0.786993
vt 0.000542 0.896365
vt 0.000542 0.786993
vt 0.112692 0.890855
vt 0.112692 0.781473
vt 0.120980 0.781473
vt 0.120980 0.890855
vt 0.130435 0.781473
vt 0.130435 0.890855
vt 0.140695 0.781473
vt 0.140695 0.890855
vt 0.111609 0.676804
vt 0.111609 0.686941
vt 0.056617 0.686941
vt 0.056617 0.676804
vt 0.666264 0.451495
vt 0.675999 0.454478
vt 0.673398 0.498849
vt 0.661278 0.497116
vt 0.650112 0.494325
vt 0.640328 0.490584
vt 0.632303 0.486037
vt 0.626345 0.480857
vt 0.622683 0.475245
vt 0.622683 0.030224
vt 0.623941 0.024402
vt 0.627634 0.018810
vt 0.633621 0.013664
vt 0.641672 0.009161
vt 0.651476 0.005474
vt 0.662658 0.002746
vt 0.674787 0.001080
vt 0.687397 0.000542
vt 0.700005 0.001151
vt 0.712124 0.002884
vt 0.723291 0.005674
vt 0.733074 0.009416
vt 0.741100 0.013964
vt 0.747058 0.019143
vt 0.750720 0.024755
vt 0.751333 0.027670
vt 0.751946 0.030584
vt 0.749462 0.475599
vt 0.745768 0.481190
vt 0.739781 0.486337
vt 0.731731 0.490839
vt 0.721926 0.494526
vt 0.710745 0.497254
vt 0.698616 0.498920
vt 0.696262 0.454534
vt 0.706013 0.451606
vt 0.715006 0.446832
vt 0.722894 0.440395
vt 0.729375 0.432543
vt 0.734199 0.423577
vt 0.737181 0.413843
vt 0.737695 0.408779
vt 0.737723 0.398646
vt 0.737238 0.393579
vt 0.734310 0.383828
vt 0.729536 0.374836
vt 0.723099 0.366948
vt 0.715247 0.360467
vt 0.706281 0.355643
vt 0.696547 0.352660
vt 0.686418 0.351634
vt 0.676283 0.352604
vt 0.666532 0.355532
vt 0.657540 0.360306
vt 0.649652 0.366743
vt 0.643171 0.374595
vt 0.638346 0.383560
vt 0.635364 0.393295
vt 0.634338 0.403424
vt 0.635307 0.413559
vt 0.638235 0.423310
vt 0.643010 0.432302
vt 0.649447 0.440190
vt 0.657299 0.446671
vt 0.675723 0.501150
vt 0.688330 0.500542
vt 0.700941 0.501080
vt 0.713070 0.502746
vt 0.724252 0.505474
vt 0.734056 0.509161
vt 0.742107 0.513663
vt 0.748094 0.518810
vt 0.751787 0.524401
vt 0.754271 0.969415
vt 0.753658 0.972330
vt 0.753045 0.975244
vt 0.749383 0.980857
vt 0.743425 0.986036
vt 0.735399 0.990584
vt 0.725616 0.994325
vt 0.714450 0.997116
vt 0.702330 0.998849
vt 0.689723 0.999458
vt 0.677112 0.998919
vt 0.664983 0.997254
vt 0.653801 0.994526
vt 0.643997 0.990839
vt 0.635946 0.986336
vt 0.629959 0.981190
vt 0.626266 0.975598
vt 0.625008 0.969776
vt 0.625008 0.524755
vt 0.628670 0.519143
vt 0.634628 0.513963
vt 0.642654 0.509416
vt 0.652437 0.505674
vt 0.663603 0.502884
vt 0.936514 0.458169
vt 0.936514 0.463723
vt 0.883245 0.463723
vt 0.883245 0.458169
vt 0.111609 0.668485
vt 0.056617 0.668485
vt 0.936514 0.012079
vt 0.883245 0.012079
vt 0.111609 0.662303
vt 0.056617 0.662303
vt 0.936514 0.006218
vt 0.883245 0.006218
vt 0.990873 0.457940
vt 0.990873 0.463660
vt 0.937597 0.463660
vt 0.937597 0.457940
vt 0.936514 0.000542
vt 0.883245 0.000542
vt 0.990873 0.455002
vt 0.937597 0.455002
vt 0.111609 0.779728
vt 0.111609 0.785910
vt 0.056617 0.785910
vt 0.056617 0.779728
vt 0.111609 0.771408
vt 0.056617 0.771408
vt 0.990873 0.000542
vt 0.990873 0.006051
vt 0.937597 0.006051
vt 0.937597 0.000542
vt 0.111609 0.761271
vt 0.056617 0.761271
vt 0.513270 0.640037
vt 0.513270 0.633855
vt 0.568262 0.633855
vt 0.568262 0.640037
vt 0.111609 0.749706
vt 0.056617 0.749706
vt 0.513270 0.708710
vt 0.513270 0.695659
vt 0.568262 0.695659
vt 0.568262 0.708710
vt 0.513270 0.648357
vt 0.568262 0.648357
vt 0.111609 0.737157
vt 0.056617 0.737157
vt 0.513270 0.721259
vt 0.568262 0.721259
vt 0.513270 0.658494
vt 0.568262 0.658494
vt 0.111609 0.724106
vt 0.056617 0.724106
vt 0.513270 0.732824
vt 0.568262 0.732824
vt 0.513270 0.670059
vt 0.568262 0.670059
vt 0.111609 0.711056
vt 0.056617 0.711056
vt 0.513270 0.742961
vt 0.568262 0.742961
vt 0.513270 0.682608
vt 0.568262 0.682608
vt 0.111609 0.698507
vt 0.056617 0.698507
vt 0.513270 0.751281
vt 0.568262 0.751281
vt 0.513270 0.757462
vt 0.568262 0.757462
vt 0.409721 0.016884
vt 0.409721 0.000542
vt 0.461846 0.000542
vt 0.461846 0.016884
vt 0.112692 0.780390
vt 0.112692 0.761661
vt 0.166079 0.761661
vt 0.166079 0.780390
vt 0.112692 0.741505
vt 0.166079 0.741505
vt 0.112692 0.720698
vt 0.166079 0.720698
vt 0.112692 0.700038
vt 0.166079 0.700038
vt 0.112692 0.680321
vt 0.166079 0.680321
vt 0.112692 0.662303
vt 0.166079 0.662303
vt 0.515054 0.000542
vt 0.515054 0.016884
vt 0.462929 0.016884
vt 0.462929 0.000542
vt 0.515054 0.036798
vt 0.462929 0.036798
vt 0.515054 0.059517
vt 0.462929 0.059517
vt 0.409721 0.109806
vt 0.409721 0.084169
vt 0.461846 0.084169
vt 0.461846 0.109806
vt 0.515054 0.084169
vt 0.462929 0.084169
vt 0.409721 0.059517
vt 0.461846 0.059517
vt 0.515054 0.109806
vt 0.462929 0.109806
vt 0.409721 0.036798
vt 0.461846 0.036798
vt 0.515054 0.549145
vt 0.515054 0.573797
vt 0.462929 0.573797
vt 0.462929 0.549145
vt 0.409721 0.549145
vt 0.409721 0.523508
vt 0.461846 0.523508
vt 0.461846 0.549145
vt 0.515054 0.596516
vt 0.462929 0.596516
vt 0.515054 0.616430
vt 0.462929 0.616430
vt 0.515054 0.632772
vt 0.462929 0.632772
vt 0.276029 0.780259
vt 0.276029 0.762111
vt 0.329343 0.762111
vt 0.329343 0.780259
vt 0.276029 0.742323
vt 0.329343 0.742323
vt 0.276029 0.700902
vt 0.276029 0.680861
vt 0.329343 0.680861
vt 0.329343 0.700902
vt 0.276029 0.662303
vt 0.329343 0.662303
vt 0.409721 0.632772
vt 0.409721 0.616430
vt 0.461846 0.616430
vt 0.461846 0.632772
vt 0.409721 0.596516
vt 0.461846 0.596516
vt 0.409721 0.573797
vt 0.461846 0.573797
vt 0.515054 0.523508
vt 0.462929 0.523508
vt 0.515054 0.316657
vt 0.462929 0.316657
vt 0.461846 0.316657
vt 0.409721 0.316657
vt 0.318644 0.561488
vt 0.325160 0.661220
vt 0.285458 0.661220
vt 0.291974 0.561488
vt 0.203556 0.482941
vt 0.275561 0.484627
vt 0.279547 0.499502
vt 0.203556 0.534881
vt 0.560783 0.920520
vt 0.571455 0.970492
vt 0.545373 0.976061
vt 0.534702 0.926090
vt 0.990873 0.452065
vt 0.937597 0.452065
vt 0.044084 0.896365
vt 0.044084 0.786993
vt 0.621470 0.817405
vt 0.594805 0.817405
vt 0.594805 0.780888
vt 0.621470 0.780888
vt 0.409721 0.470521
vt 0.461846 0.470521
vt 0.462929 0.470521
vt 0.515054 0.470521
vt 0.335058 0.484627
vt 0.407063 0.482941
vt 0.407063 0.534881
vt 0.331072 0.499502
vt 0.407063 0.332118
vt 0.331072 0.469753
vt 0.291974 0.510390
vt 0.266370 0.653890
vt 0.248778 0.641986
vt 0.233359 0.625966
vt 0.220705 0.606446
vt 0.211301 0.584176
vt 0.205511 0.560011
vt 0.279547 0.469753
vt 0.203556 0.332118
vt 0.621470 0.686036
vt 0.621470 0.737134
vt 0.584961 0.737134
vt 0.584961 0.686036
vt 0.583878 0.720225
vt 0.569731 0.720225
vt 0.569731 0.677581
vt 0.583878 0.677581
vt 0.575470 0.928291
vt 0.575470 0.912538
vt 0.614314 0.912538
vt 0.614314 0.928291
vt 0.575470 0.944183
vt 0.614314 0.944183
vt 0.079478 0.924916
vt 0.079478 0.940776
vt 0.040551 0.940776
vt 0.040551 0.924916
vt 0.621470 0.779805
vt 0.606964 0.779805
vt 0.606964 0.738217
vt 0.621470 0.738217
vt 0.111609 0.824141
vt 0.096475 0.824141
vt 0.096475 0.786993
vt 0.111609 0.786993
vt 0.079478 0.909058
vt 0.040551 0.909058
vt 0.081340 0.824141
vt 0.081340 0.786993
vt 0.475677 0.737135
vt 0.475677 0.686037
vt 0.512187 0.686037
vt 0.512187 0.737135
vt 0.079478 0.897448
vt 0.040551 0.897448
vt 0.575470 0.955958
vt 0.614314 0.955958
vt 0.542343 0.898023
vt 0.536150 0.869018
vt 0.551528 0.869809
vt 0.514061 0.888945
vt 0.522436 0.876022
vt 0.564451 0.878184
vt 0.520274 0.918037
vt 0.513270 0.904323
vt 0.571455 0.891898
vt 0.570663 0.907276
vt 0.686128 0.455504
vt 0.686005 0.499458
vt 0.195358 0.948584
vt 0.195358 0.938403
vt 0.197343 0.928417
vt 0.201240 0.919011
vt 0.206896 0.910545
vt 0.214095 0.903346
vt 0.222560 0.897690
vt 0.231966 0.893794
vt 0.236959 0.892800
vt 0.247042 0.891807
vt 0.252132 0.891807
vt 0.262118 0.893793
vt 0.271524 0.897689
vt 0.279989 0.903346
vt 0.287189 0.910545
vt 0.292845 0.919010
vt 0.296741 0.928416
vt 0.298728 0.938401
vt 0.298728 0.948582
vt 0.296742 0.958568
vt 0.292846 0.967974
vt 0.287189 0.976439
vt 0.279990 0.983638
vt 0.271525 0.989295
vt 0.262119 0.993191
vt 0.252134 0.995177
vt 0.241953 0.995177
vt 0.231967 0.993192
vt 0.222561 0.989296
vt 0.214096 0.983639
vt 0.206896 0.976440
vt 0.201240 0.967975
vt 0.197344 0.958569
vt 0.320183 0.458865
vt 0.305309 0.454879
vt 0.290435 0.458865
vt 0.203557 0.129356
vt 0.205512 0.104225
vt 0.211302 0.080061
vt 0.220705 0.057791
vt 0.233359 0.038270
vt 0.248779 0.022251
vt 0.266371 0.010347
vt 0.285459 0.003017
vt 0.305310 0.000542
vt 0.325161 0.003017
vt 0.344249 0.010347
vt 0.361841 0.022251
vt 0.377260 0.038270
vt 0.389915 0.057791
vt 0.399318 0.080061
vt 0.405108 0.104226
vt 0.407063 0.129356
vt 0.405107 0.560011
vt 0.399317 0.584176
vt 0.389914 0.606446
vt 0.377260 0.625966
vt 0.361840 0.641986
vt 0.344248 0.653890
vt 0.318644 0.510390
vt 0.369098 0.772776
vt 0.379768 0.772776
vt 0.379768 0.882158
vt 0.369098 0.882158
vt 0.390028 0.772776
vt 0.390028 0.882158
vt 0.399483 0.772776
vt 0.399483 0.882158
vt 0.407771 0.772776
vt 0.407771 0.882158
vt 0.590609 0.867935
vt 0.582434 0.867935
vt 0.582434 0.758546
vt 0.590609 0.758546
vt 0.573063 0.867935
vt 0.573063 0.758546
vt 0.562856 0.867935
vt 0.562856 0.758546
vt 0.552204 0.867935
vt 0.552204 0.758546
vt 0.541518 0.867935
vt 0.541518 0.758546
vt 0.531207 0.867935
vt 0.531207 0.758546
vt 0.521669 0.867935
vt 0.521669 0.758546
vt 0.513270 0.867935
vt 0.513270 0.758546
vt 0.329343 0.890724
vt 0.321055 0.890724
vt 0.321055 0.781342
vt 0.329343 0.781342
vt 0.311600 0.890724
vt 0.311600 0.781342
vt 0.301340 0.890724
vt 0.301340 0.781342
vt 0.290670 0.890724
vt 0.290670 0.781342
vt 0.280001 0.890724
vt 0.280001 0.781342
vt 0.269741 0.890724
vt 0.269741 0.781342
vt 0.260286 0.890724
vt 0.260286 0.781342
vt 0.251998 0.890724
vt 0.251998 0.781342
vt 0.487027 0.978383
vt 0.478549 0.978383
vt 0.478549 0.869011
vt 0.487027 0.869011
vt 0.468954 0.978383
vt 0.468954 0.869011
vt 0.458610 0.978383
vt 0.458610 0.869011
vt 0.442599 0.978383
vt 0.437282 0.978383
vt 0.437282 0.869011
vt 0.442599 0.869011
vt 0.427116 0.978383
vt 0.427116 0.869011
vt 0.417810 0.978383
vt 0.417810 0.869011
vt 0.409721 0.978383
vt 0.409721 0.869011
vt 0.330426 0.772776
vt 0.338714 0.772776
vt 0.338714 0.882158
vt 0.330426 0.882158
vt 0.348169 0.772776
vt 0.348169 0.882158
vt 0.358429 0.772776
vt 0.358429 0.882158
vt 0.000542 0.676804
vt 0.055534 0.676804
vt 0.055534 0.686941
vt 0.000542 0.686941
vt 0.797391 0.048394
vt 0.788399 0.053168
vt 0.780511 0.059605
vt 0.774030 0.067457
vt 0.769206 0.076422
vt 0.766223 0.086157
vt 0.765197 0.096286
vt 0.766167 0.106421
vt 0.769095 0.116172
vt 0.773869 0.125164
vt 0.780306 0.133052
vt 0.788158 0.139533
vt 0.797123 0.144357
vt 0.806858 0.147340
vt 0.816987 0.148366
vt 0.827122 0.147396
vt 0.836873 0.144468
vt 0.845865 0.139694
vt 0.853753 0.133257
vt 0.860234 0.125405
vt 0.865058 0.116440
vt 0.868041 0.106705
vt 0.868554 0.101641
vt 0.868582 0.091508
vt 0.868097 0.086441
vt 0.865169 0.076690
vt 0.860395 0.067698
vt 0.853958 0.059810
vt 0.846106 0.053329
vt 0.837141 0.048505
vt 0.827406 0.045522
vt 0.830007 0.001150
vt 0.842127 0.002884
vt 0.853293 0.005674
vt 0.863076 0.009416
vt 0.871102 0.013963
vt 0.877060 0.019143
vt 0.880722 0.024755
vt 0.880722 0.469776
vt 0.880093 0.472688
vt 0.879464 0.475599
vt 0.875771 0.481191
vt 0.869783 0.486337
vt 0.861733 0.490840
vt 0.851928 0.494526
vt 0.840747 0.497254
vt 0.828618 0.498920
vt 0.816007 0.499459
vt 0.803400 0.498849
vt 0.791280 0.497116
vt 0.780114 0.494326
vt 0.770330 0.490584
vt 0.762305 0.486037
vt 0.756347 0.480857
vt 0.752685 0.475245
vt 0.751459 0.469416
vt 0.753943 0.024401
vt 0.757636 0.018810
vt 0.763623 0.013663
vt 0.771674 0.009161
vt 0.781478 0.005474
vt 0.792660 0.002746
vt 0.804789 0.001080
vt 0.807142 0.045466
vt 0.805035 0.998850
vt 0.792915 0.997116
vt 0.781749 0.994326
vt 0.771965 0.990584
vt 0.763940 0.986037
vt 0.757982 0.980857
vt 0.754320 0.975245
vt 0.754320 0.530224
vt 0.755578 0.524402
vt 0.759271 0.518810
vt 0.765258 0.513664
vt 0.773309 0.509161
vt 0.783113 0.505474
vt 0.794295 0.502746
vt 0.806424 0.501080
vt 0.819034 0.500542
vt 0.831642 0.501151
vt 0.843761 0.502884
vt 0.854928 0.505674
vt 0.864711 0.509416
vt 0.872737 0.513964
vt 0.878695 0.519143
vt 0.882357 0.524755
vt 0.882970 0.527670
vt 0.883583 0.530585
vt 0.881099 0.975599
vt 0.877405 0.981190
vt 0.871418 0.986337
vt 0.863368 0.990839
vt 0.853563 0.994526
vt 0.842382 0.997254
vt 0.830253 0.998920
vt 0.817642 0.999458
vt 0.883245 0.922433
vt 0.936514 0.922433
vt 0.936514 0.927988
vt 0.883245 0.927988
vt 0.000542 0.668485
vt 0.055534 0.668485
vt 0.883245 0.476344
vt 0.936514 0.476344
vt 0.000542 0.662303
vt 0.055534 0.662303
vt 0.883245 0.470483
vt 0.936514 0.470483
vt 0.937597 0.922141
vt 0.990873 0.922141
vt 0.990873 0.927862
vt 0.937597 0.927862
vt 0.883245 0.464806
vt 0.936514 0.464806
vt 0.937597 0.919204
vt 0.990873 0.919204
vt 0.000542 0.779728
vt 0.055534 0.779728
vt 0.055534 0.785910
vt 0.000542 0.785910
vt 0.000542 0.771408
vt 0.055534 0.771408
vt 0.937597 0.464744
vt 0.990873 0.464744
vt 0.990873 0.470253
vt 0.937597 0.470253
vt 0.000542 0.761271
vt 0.055534 0.761271
vt 0.464714 0.640037
vt 0.409721 0.640037
vt 0.409721 0.633856
vt 0.464714 0.633856
vt 0.000542 0.749706
vt 0.055534 0.749706
vt 0.464714 0.708710
vt 0.409721 0.708710
vt 0.409721 0.695659
vt 0.464714 0.695659
vt 0.464714 0.648357
vt 0.409721 0.648357
vt 0.000542 0.737157
vt 0.055534 0.737157
vt 0.464714 0.721259
vt 0.409721 0.721259
vt 0.464714 0.658494
vt 0.409721 0.658494
vt 0.000542 0.724106
vt 0.055534 0.724106
vt 0.464714 0.732824
vt 0.409721 0.732824
vt 0.464714 0.670059
vt 0.409721 0.670059
vt 0.000542 0.711056
vt 0.055534 0.711056
vt 0.464714 0.742961
vt 0.409721 0.742961
vt 0.464714 0.682608
vt 0.409721 0.682608
vt 0.000542 0.698507
vt 0.055534 0.698507
vt 0.464714 0.751281
vt 0.409721 0.751281
vt 0.464714 0.757463
vt 0.409721 0.757463
vt 0.621470 0.016884
vt 0.569345 0.016884
vt 0.569345 0.000542
vt 0.621470 0.000542
vt 0.220550 0.780390
vt 0.167163 0.780390
vt 0.167163 0.761661
vt 0.220550 0.761661
vt 0.167163 0.741505
vt 0.220550 0.741505
vt 0.167163 0.720698
vt 0.220550 0.720698
vt 0.167163 0.700038
vt 0.220550 0.700038
vt 0.167163 0.680321
vt 0.220550 0.680321
vt 0.167163 0.662303
vt 0.220550 0.662303
vt 0.516137 0.000542
vt 0.568262 0.000542
vt 0.568262 0.016884
vt 0.516137 0.016884
vt 0.568262 0.036798
vt 0.516137 0.036798
vt 0.568262 0.059517
vt 0.516137 0.059517
vt 0.621470 0.109806
vt 0.569345 0.109806
vt 0.569345 0.084169
vt 0.621470 0.084169
vt 0.568262 0.084169
vt 0.516137 0.084169
vt 0.569345 0.059517
vt 0.621470 0.059517
vt 0.568262 0.109806
vt 0.516137 0.109806
vt 0.569345 0.036798
vt 0.621470 0.036798
vt 0.516137 0.549145
vt 0.568262 0.549145
vt 0.568262 0.573797
vt 0.516137 0.573797
vt 0.621470 0.549144
vt 0.569345 0.549144
vt 0.569345 0.523507
vt 0.621470 0.523507
vt 0.568262 0.596516
vt 0.516137 0.596516
vt 0.568262 0.616430
vt 0.516137 0.616430
vt 0.568262 0.632772
vt 0.516137 0.632772
vt 0.274946 0.780259
vt 0.221633 0.780259
vt 0.221633 0.762111
vt 0.274946 0.762111
vt 0.221633 0.742323
vt 0.274946 0.742323
vt 0.274946 0.700902
vt 0.221633 0.700902
vt 0.221633 0.680861
vt 0.274946 0.680861
vt 0.221633 0.662303
vt 0.274946 0.662303
vt 0.621470 0.632772
vt 0.569345 0.632772
vt 0.569345 0.616429
vt 0.621470 0.616429
vt 0.569345 0.596515
vt 0.621470 0.596515
vt 0.569345 0.573796
vt 0.621470 0.573796
vt 0.516137 0.523508
vt 0.568262 0.523508
vt 0.568262 0.316657
vt 0.516137 0.316657
vt 0.621470 0.316657
vt 0.569345 0.316657
vt 0.089305 0.561488
vt 0.115975 0.561488
vt 0.122491 0.661220
vt 0.082789 0.661220
vt 0.204393 0.482941
vt 0.204393 0.534881
vt 0.128403 0.499502
vt 0.132388 0.484627
vt 0.368498 0.939619
vt 0.342416 0.934050
vt 0.331745 0.984021
vt 0.357827 0.989591
vt 0.937597 0.916267
vt 0.990873 0.916267
vt 0.453263 0.978383
vt 0.453263 0.869011
vt 0.621470 0.818488
vt 0.621470 0.855005
vt 0.594805 0.855005
vt 0.594805 0.818488
vt 0.621470 0.470520
vt 0.569345 0.470520
vt 0.568262 0.470521
vt 0.516137 0.470521
vt 0.072892 0.484627
vt 0.076877 0.499502
vt 0.000887 0.534881
vt 0.000887 0.482941
vt 0.000887 0.332118
vt 0.076877 0.469753
vt 0.202438 0.560011
vt 0.196648 0.584176
vt 0.187245 0.606446
vt 0.174590 0.625966
vt 0.159171 0.641986
vt 0.141579 0.653890
vt 0.115975 0.510390
vt 0.128403 0.469753
vt 0.204393 0.332118
vt 0.584961 0.633855
vt 0.621470 0.633855
vt 0.621470 0.684953
vt 0.584961 0.684953
vt 0.583877 0.633855
vt 0.583877 0.676498
vt 0.569731 0.676498
vt 0.569731 0.633855
vt 0.611381 0.884771
vt 0.572538 0.884771
vt 0.572538 0.869018
vt 0.611381 0.869018
vt 0.611381 0.900664
vt 0.572538 0.900664
vt 0.000542 0.924917
vt 0.039468 0.924917
vt 0.039468 0.940776
vt 0.000542 0.940776
vt 0.512187 0.738218
vt 0.512187 0.779805
vt 0.497681 0.779805
vt 0.497681 0.738218
vt 0.111609 0.825224
vt 0.111609 0.862372
vt 0.096475 0.862372
vt 0.096475 0.825224
vt 0.000542 0.909058
vt 0.039468 0.909058
vt 0.081340 0.862372
vt 0.081340 0.825224
vt 0.512187 0.684953
vt 0.475677 0.684953
vt 0.475677 0.633855
vt 0.512187 0.633855
vt 0.000542 0.897448
vt 0.039468 0.897448
vt 0.611381 0.912439
vt 0.572538 0.912439
vt 0.360856 0.911552
vt 0.380764 0.889551
vt 0.367050 0.882547
vt 0.351672 0.883339
vt 0.338749 0.891713
vt 0.389139 0.902474
vt 0.331745 0.905427
vt 0.332537 0.920806
vt 0.382926 0.931566
vt 0.389930 0.917852
vt 0.817400 0.000542
vt 0.817277 0.044496
vt 0.133896 0.891939
vt 0.144076 0.891939
vt 0.154062 0.893924
vt 0.163468 0.897820
vt 0.171934 0.903477
vt 0.179133 0.910676
vt 0.184789 0.919141
vt 0.188685 0.928547
vt 0.190672 0.938532
vt 0.190672 0.948713
vt 0.188686 0.958699
vt 0.184790 0.968105
vt 0.179134 0.976570
vt 0.171935 0.983770
vt 0.163469 0.989426
vt 0.154063 0.993322
vt 0.144078 0.995309
vt 0.133897 0.995309
vt 0.123911 0.993323
vt 0.114505 0.989427
vt 0.106040 0.983770
vt 0.098841 0.976571
vt 0.093184 0.968106
vt 0.089288 0.958700
vt 0.088295 0.953708
vt 0.087302 0.943624
vt 0.087302 0.938534
vt 0.089288 0.928548
vt 0.093184 0.919142
vt 0.098840 0.910677
vt 0.106039 0.903477
vt 0.114504 0.897821
vt 0.123910 0.893925
vt 0.087766 0.458865
vt 0.000887 0.129356
vt 0.002842 0.104225
vt 0.008632 0.080061
vt 0.018035 0.057791
vt 0.030690 0.038270
vt 0.046109 0.022251
vt 0.063701 0.010347
vt 0.082789 0.003017
vt 0.102640 0.000542
vt 0.122491 0.003017
vt 0.141579 0.010347
vt 0.159171 0.022251
vt 0.174590 0.038270
vt 0.187245 0.057791
vt 0.196648 0.080061
vt 0.202438 0.104225
vt 0.204393 0.129356
vt 0.117514 0.458865
vt 0.102640 0.454879
vt 0.089305 0.510390
vt 0.063701 0.653890
vt 0.046109 0.641986
vt 0.030690 0.625966
vt 0.018035 0.606446
vt 0.008632 0.584176
vt 0.002842 0.560011
s 0
usemtl Brushed_Metal.001
f 9/5/7 10/6/7 12/7/7 11/8/7
f 11/8/8 12/7/8 14/9/8 13/10/8
f 13/10/9 14/9/9 16/11/9 15/12/9
f 15/12/10 16/11/10 18/13/10 17/14/10
f 17/15/11 18/16/11 20/17/11 19/18/11
f 19/18/12 20/17/12 22/19/12 21/20/12
f 21/20/13 22/19/13 24/21/13 23/22/13
f 23/22/14 24/21/14 26/23/14 25/24/14
f 25/24/15 26/23/15 28/25/15 27/26/15
f 27/26/16 28/25/16 30/27/16 29/28/16
f 29/28/17 30/27/17 32/29/17 31/30/17
f 31/30/18 32/29/18 34/31/18 33/32/18
f 33/33/19 34/34/19 36/35/19 35/36/19
f 35/36/20 36/35/20 38/37/20 37/38/20
f 37/38/21 38/37/21 40/39/21 39/40/21
f 39/40/22 40/39/22 42/41/22 41/42/22
f 41/42/23 42/41/23 44/43/23 43/44/23
f 43/44/24 44/43/24 46/45/24 45/46/24
f 45/46/25 46/45/25 48/47/25 47/48/25
f 47/48/26 48/47/26 50/49/26 49/50/26
f 49/51/27 50/52/27 52/53/27 51/54/27
f 51/54/28 52/53/28 54/55/28 53/56/28
f 53/56/29 54/55/29 56/57/29 55/58/29
f 205/59/30 206/60/30 58/61/30 57/62/30
f 57/62/31 58/61/31 60/63/31 59/64/31
f 59/64/32 60/63/32 62/65/32 61/66/32
f 61/66/33 62/65/33 64/67/33 63/68/33
f 63/69/34 64/70/34 66/71/34 65/72/34
f 65/72/35 66/71/35 68/73/35 67/74/35
f 67/74/36 68/73/36 70/75/36 69/76/36
f 69/76/37 70/75/37 10/6/37 9/5/37
f 91/77/38 90/78/38 122/79/38 123/80/38
f 14/81/39 12/82/39 71/83/39 73/84/39 74/85/39 75/86/39 76/87/39 77/88/39 78/89/39 79/90/39 80/91/39 81/92/39 82/93/39 83/94/39 84/95/39 85/96/39 86/97/39 87/98/39 88/99/39 89/100/39 90/101/39 91/102/39 92/103/39 93/104/39 94/105/39 210/106/39 95/107/39 96/108/39 97/109/39 98/110/39 99/111/39 100/112/39 101/113/39 102/114/39 70/115/39 68/116/39 66/117/39 64/118/39 62/119/39 60/120/39 58/121/39 206/122/39 209/123/39 56/124/39 54/125/39 52/126/39 50/127/39 48/128/39 46/129/39 44/130/39 42/131/39 40/132/39 38/133/39 36/134/39 34/135/39 32/136/39 30/137/39 28/138/39 26/139/39 24/140/39 22/141/39 20/142/39 18/143/39 16/144/39
f 103/145/40 104/146/40 134/147/40 133/148/40 132/149/40 131/150/40 130/151/40 129/152/40 128/153/40 127/154/40 211/155/40 126/156/40 125/157/40 124/158/40 123/159/40 122/160/40 121/161/40 120/162/40 119/163/40 118/164/40 117/165/40 116/166/40 115/167/40 114/168/40 113/169/40 112/170/40 111/171/40 110/172/40 109/173/40 108/174/40 107/175/40 106/176/40 105/177/40
f 78/178/41 77/179/41 109/180/41 110/181/41
f 92/182/42 91/77/42 123/80/42 124/183/42
f 79/184/43 78/178/43 110/181/43 111/185/43
f 93/186/44 92/182/44 124/183/44 125/187/44
f 80/188/45 79/184/45 111/185/45 112/189/45
f 94/190/46 93/191/46 125/192/46 126/193/46
f 81/194/47 80/188/47 112/189/47 113/195/47
f 210/196/48 94/190/48 126/193/48 211/197/48
f 82/198/49 81/199/49 113/200/49 114/201/49
f 83/202/50 82/198/50 114/201/50 115/203/50
f 97/204/51 96/205/51 128/206/51 129/207/51
f 84/208/52 83/202/52 115/203/52 116/209/52
f 98/210/53 97/211/53 129/212/53 130/213/53
f 85/214/54 84/208/54 116/209/54 117/215/54
f 71/216/55 72/217/55 104/218/55 103/219/55
f 99/220/56 98/210/56 130/213/56 131/221/56
f 86/222/57 85/214/57 117/215/57 118/223/57
f 73/224/58 71/216/58 103/219/58 105/225/58
f 100/226/59 99/220/59 131/221/59 132/227/59
f 87/228/60 86/222/60 118/223/60 119/229/60
f 74/230/61 73/224/61 105/225/61 106/231/61
f 101/232/62 100/226/62 132/227/62 133/233/62
f 88/234/63 87/228/63 119/229/63 120/235/63
f 75/236/64 74/230/64 106/231/64 107/237/64
f 102/238/65 101/232/65 133/233/65 134/239/65
f 89/240/66 88/234/66 120/235/66 121/241/66
f 76/242/67 75/236/67 107/237/67 108/243/67
f 72/217/68 102/238/68 134/239/68 104/218/68
f 90/78/69 89/240/69 121/241/69 122/79/69
f 77/244/70 76/242/70 108/243/70 109/245/70
f 139/246/71 140/247/71 157/248/71 156/249/71
f 140/250/72 141/251/72 158/252/72 157/253/72
f 141/251/73 142/254/73 159/255/73 158/252/73
f 142/254/74 143/256/74 160/257/74 159/255/74
f 143/256/75 144/258/75 161/259/75 160/257/75
f 144/258/76 145/260/76 162/261/76 161/259/76
f 145/260/77 146/262/77 163/263/77 162/261/77
f 146/264/78 147/265/78 164/266/78 163/267/78
f 147/265/79 148/268/79 165/269/79 164/266/79
f 148/268/80 149/270/80 166/271/80 165/269/80
f 135/272/81 136/273/81 153/274/81 152/275/81
f 149/270/82 150/276/82 167/277/82 166/271/82
f 136/273/83 137/278/83 154/279/83 153/274/83
f 150/276/84 151/280/84 168/281/84 167/277/84
f 137/278/85 138/282/85 155/283/85 154/279/85
f 138/282/86 139/246/86 156/249/86 155/283/86
f 170/284/87 171/285/87 187/286/87 186/287/87
f 183/288/88 184/289/88 200/290/88 199/291/88
f 171/285/89 172/292/89 188/293/89 187/286/89
f 172/292/90 173/294/90 189/295/90 188/293/90
f 173/294/91 174/296/91 190/297/91 189/295/91
f 174/298/92 175/299/92 191/300/92 190/301/92
f 175/299/93 176/302/93 192/303/93 191/300/93
f 177/304/94 178/305/94 194/306/94 193/307/94
f 178/305/95 179/308/95 195/309/95 194/306/95
f 179/310/96 180/311/96 196/312/96 195/313/96
f 180/311/97 181/314/97 197/315/97 196/312/97
f 181/314/98 182/316/98 198/317/98 197/315/98
f 169/318/99 170/284/99 186/287/99 185/319/99
f 182/316/100 183/288/100 199/291/100 198/317/100
f 168/281/101 151/280/101 204/320/101 202/321/101
f 135/272/102 152/275/102 201/322/102 203/323/102
f 207/324/40 177/325/40 176/326/40 212/327/40
f 214/328/40 222/329/40 223/330/40 169/331/40
f 234/332/40 232/333/40 235/334/40 236/335/40
f 176/302/103 177/304/103 193/307/103 192/303/103
f 95/336/48 210/196/48 211/197/48 127/337/48
f 55/58/104 56/57/104 209/338/104 208/339/104
f 207/340/105 212/341/105 235/342/105 232/343/105
f 216/344/102 215/345/102 200/290/102 184/289/102
f 213/346/101 214/347/101 169/318/101 185/319/101
f 224/348/40 216/349/40 184/350/40 225/351/40
f 203/352/40 216/349/40 224/348/40 221/353/40
f 223/330/40 226/354/40 212/327/40 176/326/40 175/355/40 174/356/40 173/357/40 172/358/40 171/359/40 170/360/40 169/331/40
f 220/361/40 222/329/40 214/328/40 204/362/40
f 202/321/101 204/320/101 214/347/101 213/346/101
f 203/323/102 201/322/102 215/345/102 216/344/102
f 227/363/101 207/364/101 232/365/101 234/366/101
f 225/367/106 227/368/106 234/369/106 240/370/106
f 218/371/107 217/372/107 228/373/107 229/374/107
f 219/375/108 218/371/108 229/374/108 230/376/108
f 224/377/109 225/378/109 240/379/109 239/380/109
f 226/381/110 223/382/110 238/383/110 236/384/110
f 223/385/111 222/386/111 237/387/111 238/388/111
f 221/389/112 224/377/112 239/380/112 233/390/112
f 222/386/113 220/391/113 231/392/113 237/387/113
f 212/393/102 226/394/102 236/395/102 235/396/102
f 217/397/114 221/389/114 233/390/114 228/398/114
f 220/399/115 219/375/115 230/376/115 231/400/115
f 234/332/40 236/335/40 241/401/40
f 241/401/40 229/402/40 228/403/40
f 241/401/40 231/404/40 230/405/40
f 241/401/40 228/403/40 233/406/40
f 241/401/40 230/405/40 229/402/40
f 241/401/40 238/407/40 237/408/40
f 241/401/40 239/409/40 240/410/40
f 241/401/40 236/335/40 238/407/40
f 241/401/40 240/410/40 234/332/40
f 241/401/40 237/408/40 231/404/40
f 241/401/40 233/406/40 239/409/40
f 95/336/116 127/337/116 128/206/116 96/205/116
f 12/82/39 10/411/39 70/115/39 102/114/39 72/412/39 71/83/39
f 206/60/105 205/59/105 208/339/105 209/338/105
f 9/413/40 69/414/40 67/415/40 65/416/40 63/417/40 61/418/40 59/419/40 57/420/40 205/421/40 208/422/40 55/423/40 53/424/40 51/425/40 49/426/40 47/427/40 45/428/40 43/429/40 41/430/40 39/431/40 37/432/40 35/433/40 33/434/40 31/435/40 29/436/40 27/437/40 25/438/40 23/439/40 21/440/40 19/441/40 17/442/40 15/443/40 13/444/40 11/445/40
f 217/446/40 218/447/40 219/448/40 220/361/40 204/362/40 151/449/40 150/450/40 149/451/40 148/452/40 147/453/40 146/454/40 145/455/40 144/456/40 143/457/40 142/458/40 141/459/40 140/460/40 139/461/40 138/462/40 137/463/40 136/464/40 135/465/40 203/352/40 221/353/40
f 184/350/40 183/466/40 182/467/40 181/468/40 180/469/40 179/470/40 178/471/40 177/325/40 207/324/40 227/472/40 225/351/40
f 242/473/7 244/474/7 245/475/7 243/476/7
f 244/474/8 246/477/8 247/478/8 245/475/8
f 246/477/9 248/479/9 249/480/9 247/478/9
f 248/479/10 250/481/10 251/482/10 249/480/10
f 250/483/11 252/484/11 253/485/11 251/486/11
f 252/484/12 254/487/12 255/488/12 253/485/12
f 254/487/13 256/489/13 257/490/13 255/488/13
f 256/489/14 258/491/14 259/492/14 257/490/14
f 258/491/15 260/493/15 261/494/15 259/492/15
f 260/493/16 262/495/16 263/496/16 261/494/16
f 262/495/17 264/497/17 265/498/17 263/496/17
f 264/497/18 266/499/18 267/500/18 265/498/18
f 266/501/19 268/502/19 269/503/19 267/504/19
f 268/502/20 270/505/20 271/506/20 269/503/20
f 270/505/21 272/507/21 273/508/21 271/506/21
f 272/507/22 274/509/22 275/510/22 273/508/22
f 274/509/23 276/511/23 277/512/23 275/510/23
f 276/511/24 278/513/24 279/514/24 277/512/24
f 278/513/25 280/515/25 281/516/25 279/514/25
f 280/515/26 282/517/26 283/518/26 281/516/26
f 282/519/27 284/520/27 285/521/27 283/522/27
f 284/520/28 286/523/28 287/524/28 285/521/28
f 286/523/29 288/525/29 289/526/29 287/524/29
f 438/527/30 290/528/30 291/529/30 439/530/30
f 290/528/31 292/531/31 293/532/31 291/529/31
f 292/531/32 294/533/32 295/534/32 293/532/32
f 294/533/33 296/535/33 297/536/33 295/534/33
f 296/537/34 298/538/34 299/539/34 297/540/34
f 298/538/35 300/541/35 301/542/35 299/539/35
f 300/541/36 302/543/36 303/544/36 301/542/36
f 302/543/37 242/473/37 243/476/37 303/544/37
f 324/545/38 356/546/38 355/547/38 323/548/38
f 247/549/40 249/550/40 251/551/40 253/552/40 255/553/40 257/554/40 259/555/40 261/556/40 263/557/40 265/558/40 267/559/40 269/560/40 271/561/40 273/562/40 275/563/40 277/564/40 279/565/40 281/566/40 283/567/40 285/568/40 287/569/40 289/570/40 442/571/40 439/572/40 291/573/40 293/574/40 295/575/40 297/576/40 299/577/40 301/578/40 303/579/40 335/580/40 334/581/40 333/582/40 332/583/40 331/584/40 330/585/40 329/586/40 328/587/40 443/588/40 327/589/40 326/590/40 325/591/40 324/592/40 323/593/40 322/594/40 321/595/40 320/596/40 319/597/40 318/598/40 317/599/40 316/600/40 315/601/40 314/602/40 313/603/40 312/604/40 311/605/40 310/606/40 309/607/40 308/608/40 307/609/40 306/610/40 304/611/40 245/612/40
f 336/613/39 338/614/39 339/615/39 340/616/39 341/617/39 342/618/39 343/619/39 344/620/39 345/621/39 346/622/39 347/623/39 348/624/39 349/625/39 350/626/39 351/627/39 352/628/39 353/629/39 354/630/39 355/631/39 356/632/39 357/633/39 358/634/39 359/635/39 444/636/39 360/637/39 361/638/39 362/639/39 363/640/39 364/641/39 365/642/39 366/643/39 367/644/39 337/645/39
f 311/646/41 343/647/41 342/648/41 310/649/41
f 325/650/42 357/651/42 356/546/42 324/545/42
f 312/652/43 344/653/43 343/647/43 311/646/43
f 326/654/44 358/655/44 357/651/44 325/650/44
f 313/656/45 345/657/45 344/653/45 312/652/45
f 327/658/46 359/659/46 358/660/46 326/661/46
f 314/662/47 346/663/47 345/657/47 313/656/47
f 443/664/48 444/665/48 359/659/48 327/658/48
f 315/666/49 347/667/49 346/668/49 314/669/49
f 316/670/50 348/671/50 347/667/50 315/666/50
f 330/672/51 362/673/51 361/674/51 329/675/51
f 317/676/52 349/677/52 348/671/52 316/670/52
f 331/678/53 363/679/53 362/680/53 330/681/53
f 318/682/54 350/683/54 349/677/54 317/676/54
f 304/684/55 336/685/55 337/686/55 305/687/55
f 332/688/56 364/689/56 363/679/56 331/678/56
f 319/690/57 351/691/57 350/683/57 318/682/57
f 306/692/58 338/693/58 336/685/58 304/684/58
f 333/694/59 365/695/59 364/689/59 332/688/59
f 320/696/60 352/697/60 351/691/60 319/690/60
f 307/698/61 339/699/61 338/693/61 306/692/61
f 334/700/62 366/701/62 365/695/62 333/694/62
f 321/702/63 353/703/63 352/697/63 320/696/63
f 308/704/64 340/705/64 339/699/64 307/698/64
f 335/706/65 367/707/65 366/701/65 334/700/65
f 322/708/66 354/709/66 353/703/66 321/702/66
f 309/710/67 341/711/67 340/705/67 308/704/67
f 305/687/68 337/686/68 367/707/68 335/706/68
f 323/548/69 355/547/69 354/709/69 322/708/69
f 310/712/70 342/713/70 341/711/70 309/710/70
f 372/714/71 389/715/71 390/716/71 373/717/71
f 373/718/72 390/719/72 391/720/72 374/721/72
f 374/721/73 391/720/73 392/722/73 375/723/73
f 375/723/74 392/722/74 393/724/74 376/725/74
f 376/725/75 393/724/75 394/726/75 377/727/75
f 377/727/76 394/726/76 395/728/76 378/729/76
f 378/729/77 395/728/77 396/730/77 379/731/77
f 379/732/78 396/733/78 397/734/78 380/735/78
f 380/735/79 397/734/79 398/736/79 381/737/79
f 381/737/80 398/736/80 399/738/80 382/739/80
f 368/740/81 385/741/81 386/742/81 369/743/81
f 382/739/82 399/738/82 400/744/82 383/745/82
f 369/743/83 386/742/83 387/746/83 370/747/83
f 383/745/84 400/744/84 401/748/84 384/749/84
f 370/747/85 387/746/85 388/750/85 371/751/85
f 371/751/86 388/750/86 389/715/86 372/714/86
f 403/752/87 419/753/87 420/754/87 404/755/87
f 416/756/88 432/757/88 433/758/88 417/759/88
f 404/755/89 420/754/89 421/760/89 405/761/89
f 405/761/90 421/760/90 422/762/90 406/763/90
f 406/763/91 422/762/91 423/764/91 407/765/91
f 407/766/92 423/767/92 424/768/92 408/769/92
f 408/769/93 424/768/93 425/770/93 409/771/93
f 410/772/94 426/773/94 427/774/94 411/775/94
f 411/775/95 427/774/95 428/776/95 412/777/95
f 412/778/96 428/779/96 429/780/96 413/781/96
f 413/781/97 429/780/97 430/782/97 414/783/97
f 414/783/98 430/782/98 431/784/98 415/785/98
f 402/786/99 418/787/99 419/753/99 403/752/99
f 415/785/100 431/784/100 432/757/100 416/756/100
f 401/748/101 435/788/101 437/789/101 384/749/101
f 368/740/102 436/790/102 434/791/102 385/741/102
f 440/792/39 445/793/39 409/794/39 410/795/39
f 447/796/39 402/797/39 456/798/39 455/799/39
f 467/800/39 469/801/39 468/802/39 465/803/39
f 409/771/103 425/770/103 426/773/103 410/772/103
f 328/804/48 360/805/48 444/665/48 443/664/48
f 288/525/104 441/806/104 442/807/104 289/526/104
f 440/808/105 465/809/105 468/810/105 445/811/105
f 449/812/102 417/759/102 433/758/102 448/813/102
f 446/814/101 418/787/101 402/786/101 447/815/101
f 457/816/39 458/817/39 417/818/39 449/819/39
f 436/820/39 454/821/39 457/816/39 449/819/39
f 456/798/39 402/797/39 403/822/39 404/823/39 405/824/39 406/825/39 407/826/39 408/827/39 409/794/39 445/793/39 459/828/39
f 453/829/39 437/830/39 447/796/39 455/799/39
f 435/788/101 446/814/101 447/815/101 437/789/101
f 436/790/102 449/812/102 448/813/102 434/791/102
f 460/831/101 467/832/101 465/833/101 440/834/101
f 458/835/106 473/836/106 467/837/106 460/838/106
f 451/839/107 462/840/107 461/841/107 450/842/107
f 452/843/108 463/844/108 462/840/108 451/839/108
f 457/845/109 472/846/109 473/847/109 458/848/109
f 459/849/110 469/850/110 471/851/110 456/852/110
f 456/853/111 471/854/111 470/855/111 455/856/111
f 454/857/112 466/858/112 472/846/112 457/845/112
f 455/856/113 470/855/113 464/859/113 453/860/113
f 445/861/102 468/862/102 469/863/102 459/864/102
f 450/865/114 461/866/114 466/858/114 454/857/114
f 453/867/115 464/868/115 463/844/115 452/843/115
f 467/800/39 474/869/39 469/801/39
f 474/869/39 461/870/39 462/871/39
f 474/869/39 463/872/39 464/873/39
f 474/869/39 466/874/39 461/870/39
f 474/869/39 462/871/39 463/872/39
f 474/869/39 470/875/39 471/876/39
f 474/869/39 473/877/39 472/878/39
f 474/869/39 471/876/39 469/801/39
f 474/869/39 467/800/39 473/877/39
f 474/869/39 464/873/39 470/875/39
f 474/869/39 472/878/39 466/874/39
f 328/804/116 329/675/116 361/674/116 360/805/116
f 245/612/40 304/611/40 305/879/40 335/580/40 303/579/40 243/880/40
f 439/530/105 442/807/105 441/806/105 438/527/105
f 242/881/39 244/882/39 246/883/39 248/884/39 250/885/39 252/886/39 254/887/39 256/888/39 258/889/39 260/890/39 262/891/39 264/892/39 266/893/39 268/894/39 270/895/39 272/896/39 274/897/39 276/898/39 278/899/39 280/900/39 282/901/39 284/902/39 286/903/39 288/904/39 441/905/39 438/906/39 290/907/39 292/908/39 294/909/39 296/910/39 298/911/39 300/912/39 302/913/39
f 450/914/39 454/821/39 436/820/39 368/915/39 369/916/39 370/917/39 371/918/39 372/919/39 373/920/39 374/921/39 375/922/39 376/923/39 377/924/39 378/925/39 379/926/39 380/927/39 381/928/39 382/929/39 383/930/39 384/931/39 437/830/39 453/829/39 452/932/39 451/933/39
f 417/818/39 458/817/39 460/934/39 440/792/39 410/795/39 411/935/39 412/936/39 413/937/39 414/938/39 415/939/39 416/940/39
o Door2
v 1.361684 2.169662 -1.465538
v 1.361684 2.169662 -0.603314
v 1.361684 -0.010745 -1.465538
v 1.361684 -0.010745 -0.603314
v 1.361684 1.079458 -1.465538
v 1.361684 1.079458 -0.603314
v 1.361684 1.588038 -1.465538
v 1.361684 1.588038 -0.603314
v 1.361331 0.550710 -1.465538
v 1.361331 0.550710 -0.603314
v 1.361684 2.050014 -1.357131
v 1.361684 2.050018 -0.710036
v 1.361684 0.108900 -0.710037
v 1.360718 0.108908 -1.357127
v 1.361684 1.025100 -0.708371
v 1.361331 0.605069 -0.708371
v 1.361684 1.025092 -1.358811
v 1.361331 0.605076 -1.358811
v 1.361684 1.643217 -0.709954
v 1.361684 1.643221 -1.357210
v 1.361684 1.533680 -0.708371
v 1.361684 1.133817 -0.708371
v 1.361684 1.533672 -1.358811
v 1.361684 1.133825 -1.358811
v 1.361331 0.495531 -0.709954
v 1.361331 0.495527 -1.357211
v 1.351584 2.050025 -1.357124
v 1.351584 2.050030 -0.710029
v 1.351584 0.108912 -0.710029
v 1.350618 0.108920 -1.357120
v 1.351584 1.025111 -0.708363
v 1.351231 0.605080 -0.708363
v 1.351584 1.025104 -1.358804
v 1.351231 0.605088 -1.358804
v 1.351584 1.643229 -0.709946
v 1.351584 1.643233 -1.357203
v 1.351584 1.533692 -0.708363
v 1.351584 1.133829 -0.708363
v 1.351584 1.533684 -1.358804
v 1.351584 1.133837 -1.358804
v 1.351231 0.495543 -0.709947
v 1.351231 0.495539 -1.357203
v 1.351584 2.002917 -1.310024
v 1.351584 2.002920 -0.757128
v 1.351565 0.156021 -0.757128
v 1.350669 0.156029 -1.310020
v 1.351545 0.978002 -0.755472
v 1.351270 0.652190 -0.755472
v 1.351544 0.977995 -1.311694
v 1.351270 0.652197 -1.311694
v 1.351584 1.690338 -0.757065
v 1.351584 1.690342 -1.310084
v 1.351584 1.486582 -0.755472
v 1.351584 1.180939 -0.755472
v 1.351584 1.486575 -1.311694
v 1.351584 1.180946 -1.311694
v 1.351180 0.448434 -0.757066
v 1.351250 0.448430 -1.310084
v 1.361615 0.942639 -0.790830
v 1.343970 0.978011 -0.755467
v 1.343695 0.652199 -0.755467
v 1.361400 0.687529 -0.790830
v 1.343695 0.652206 -1.311689
v 1.361400 0.687535 -1.276352
v 1.361615 0.942634 -1.276352
v 1.343970 0.978004 -1.311689
v 1.344009 2.002929 -0.757123
v 1.361684 1.967558 -0.792479
v 1.344009 1.690347 -0.757060
v 1.361684 1.725677 -0.792430
v 1.344009 1.690351 -1.310079
v 1.361684 1.725680 -1.274735
v 1.361684 1.967555 -1.274688
v 1.344009 2.002925 -1.310018
v 1.361684 1.451219 -0.790830
v 1.344009 1.486591 -0.755467
v 1.344009 1.180948 -0.755467
v 1.361684 1.216278 -0.790830
v 1.344009 1.180955 -1.311689
v 1.361684 1.216284 -1.276352
v 1.361684 1.451214 -1.276352
v 1.344009 1.486584 -1.311689
v 1.361331 0.413072 -0.792431
v 1.343605 0.448443 -0.757060
v 1.361561 0.191360 -0.792478
v 1.343990 0.156030 -0.757123
v 1.343094 0.156038 -1.310015
v 1.360896 0.191366 -1.274686
v 1.361275 0.413069 -1.274734
v 1.343675 0.448439 -1.310078
v 1.289997 2.169662 -1.465538
v 1.289997 2.169662 -0.603314
v 1.289997 -0.010745 -1.465538
v 1.289997 -0.010745 -0.603314
v 1.289997 1.079458 -1.465538
v 1.289997 1.079458 -0.603314
v 1.289997 1.588038 -1.465538
v 1.289997 1.588038 -0.603314
v 1.290350 0.550710 -1.465538
v 1.290350 0.550710 -0.603314
v 1.289997 2.050014 -1.357131
v 1.289997 2.050018 -0.710036
v 1.289997 0.108900 -0.710037
v 1.290963 0.108908 -1.357127
v 1.289997 1.025100 -0.708371
v 1.290350 0.605069 -0.708371
v 1.289997 1.025092 -1.358811
v 1.290350 0.605076 -1.358811
v 1.289997 1.643217 -0.709954
v 1.289997 1.643221 -1.357210
v 1.289997 1.533680 -0.708371
v 1.289997 1.133817 -0.708371
v 1.289997 1.533672 -1.358811
v 1.289997 1.133825 -1.358811
v 1.290350 0.495531 -0.709954
v 1.290350 0.495527 -1.357211
v 1.300097 2.050025 -1.357124
v 1.300097 2.050030 -0.710029
v 1.300097 0.108912 -0.710029
v 1.301063 0.108920 -1.357120
v 1.300097 1.025111 -0.708363
v 1.300450 0.605080 -0.708363
v 1.300097 1.025104 -1.358804
v 1.300450 0.605088 -1.358804
v 1.300097 1.643229 -0.709946
v 1.300097 1.643233 -1.357203
v 1.300097 1.533692 -0.708363
v 1.300097 1.133829 -0.708363
v 1.300097 1.533684 -1.358804
v 1.300097 1.133837 -1.358804
v 1.300450 0.495543 -0.709947
v 1.300450 0.495539 -1.357203
v 1.300097 2.002917 -1.310024
v 1.300097 2.002920 -0.757128
v 1.300116 0.156021 -0.757128
v 1.301012 0.156029 -1.310020
v 1.300136 0.978002 -0.755472
v 1.300411 0.652190 -0.755472
v 1.300136 0.977995 -1.311694
v 1.300411 0.652197 -1.311694
v 1.300097 1.690338 -0.757065
v 1.300097 1.690342 -1.310084
v 1.300097 1.486582 -0.755472
v 1.300097 1.180939 -0.755472
v 1.300097 1.486575 -1.311694
v 1.300097 1.180946 -1.311694
v 1.300501 0.448434 -0.757066
v 1.300431 0.448430 -1.310084
v 1.290066 0.942639 -0.790830
v 1.307711 0.978011 -0.755467
v 1.307986 0.652199 -0.755467
v 1.290281 0.687529 -0.790830
v 1.307986 0.652206 -1.311689
v 1.290281 0.687535 -1.276352
v 1.290066 0.942634 -1.276352
v 1.307711 0.978004 -1.311689
v 1.307672 2.002929 -0.757123
v 1.289997 1.967558 -0.792479
v 1.307672 1.690347 -0.757060
v 1.289997 1.725677 -0.792430
v 1.307672 1.690351 -1.310079
v 1.289997 1.725680 -1.274735
v 1.289997 1.967555 -1.274688
v 1.307672 2.002925 -1.310018
v 1.289997 1.451219 -0.790830
v 1.307672 1.486591 -0.755467
v 1.307672 1.180948 -0.755467
v 1.289997 1.216278 -0.790830
v 1.307672 1.180955 -1.311689
v 1.289997 1.216284 -1.276352
v 1.289997 1.451214 -1.276352
v 1.307672 1.486584 -1.311689
v 1.290350 0.413072 -0.792431
v 1.308076 0.448443 -0.757060
v 1.290120 0.191360 -0.792478
v 1.307691 0.156030 -0.757123
v 1.308587 0.156038 -1.310015
v 1.290785 0.191366 -1.274686
v 1.290406 0.413069 -1.274734
v 1.308006 0.448439 -1.310078
vn 1.0000 -0.0007 -0.0000
vn 1.0000 -0.0000 -0.0000
vn 1.0000 0.0007 0.0002
vn 1.0000 0.0040 -0.0006
vn 1.0000 -0.0003 0.0045
vn -0.0000 -0.0000 -1.0000
vn -0.0000 -1.0000 -0.0000
vn -0.0000 1.0000 -0.0000
vn -0.0000 -0.0000 1.0000
vn 0.0012 1.0000 -0.0000
vn -0.0012 -1.0000 -0.0000
vn -0.0008 -0.0000 -1.0000
vn 0.0008 -0.0000 1.0000
vn 0.0008 0.0002 1.0000
vn 1.0000 -0.0003 -0.0016
vn 1.0000 -0.0008 -0.0000
vn 1.0000 0.0011 -0.0007
vn 1.0000 -0.0003 0.0001
vn 1.0000 -0.0018 -0.0007
vn -0.0008 -0.0002 -1.0000
vn 0.0008 -0.0002 1.0000
vn -0.0008 0.0002 -1.0000
vn 0.8945 0.4470 -0.0000
vn 0.8942 -0.4477 -0.0014
vn 0.8945 -0.0008 0.4471
vn 0.8948 0.4464 -0.0000
vn 0.8940 -0.4480 -0.0000
vn 0.8945 0.0001 0.4471
vn 0.8943 -0.4474 -0.0000
vn 0.8944 0.0001 -0.4473
vn 0.8945 -0.0000 0.4471
vn 0.8944 -0.0000 -0.4473
vn 0.8948 0.0010 0.4465
vn 0.8947 0.4468 -0.0000
vn 0.8941 -0.0018 -0.4479
vn 0.8944 -0.0008 -0.4473
vn -0.0007 -0.0000 -1.0000
vn 0.0007 -0.0000 1.0000
vn -0.0007 -0.0002 -1.0000
vn 0.0007 -0.0002 1.0000
vn -0.0007 0.0002 -1.0000
vn 1.0000 -0.0003 -0.0007
vn -1.0000 -0.0007 -0.0000
vn -1.0000 -0.0000 -0.0000
vn -1.0000 0.0007 0.0002
vn -1.0000 0.0040 -0.0006
vn -1.0000 -0.0003 0.0045
vn -0.0012 1.0000 -0.0000
vn 0.0012 -1.0000 -0.0000
vn 0.0008 -0.0000 -1.0000
vn -0.0008 -0.0000 1.0000
vn -0.0008 0.0002 1.0000
vn -1.0000 -0.0003 -0.0016
vn -1.0000 -0.0008 -0.0000
vn -1.0000 0.0011 -0.0007
vn -1.0000 -0.0003 0.0001
vn -1.0000 -0.0018 -0.0007
vn 0.0008 -0.0002 -1.0000
vn -0.0008 -0.0002 1.0000
vn 0.0008 0.0002 -1.0000
vn -0.8945 0.4470 -0.0000
vn -0.8942 -0.4477 -0.0014
vn -0.8945 -0.0008 0.4471
vn -0.8948 0.4464 -0.0000
vn -0.8940 -0.4480 -0.0000
vn -0.8945 0.0001 0.4471
vn -0.8943 -0.4474 -0.0000
vn -0.8944 0.0001 -0.4473
vn -0.8945 -0.0000 0.4471
vn -0.8944 -0.0000 -0.4473
vn -0.8948 0.0010 0.4465
vn -0.8947 0.4468 -0.0000
vn -0.8941 -0.0018 -0.4479
vn -0.8944 -0.0008 -0.4473
vn 0.0007 -0.0000 -1.0000
vn -0.0007 -0.0000 1.0000
vn 0.0007 -0.0002 -1.0000
vn -0.0007 -0.0002 1.0000
vn 0.0007 0.0002 -1.0000
vn -1.0000 -0.0003 -0.0007
vt 0.580247 0.365466
vt 0.580247 0.542485
vt 0.545075 0.524286
vt 0.545075 0.383665
vt 0.327316 0.383667
vt 0.291585 0.365466
vt 0.291585 0.542485
vt 0.327316 0.524283
vt 0.580247 0.000479
vt 0.580247 0.195200
vt 0.544545 0.176727
vt 0.544518 0.040535
vt 0.291585 0.000479
vt 0.327878 0.040536
vt 0.291585 0.195200
vt 0.327852 0.176725
vt 0.545075 0.347267
vt 0.545075 0.213398
vt 0.327316 0.213401
vt 0.327316 0.347265
vt 0.544545 0.560958
vt 0.327852 0.560959
vt 0.580247 0.730453
vt 0.544518 0.690397
vt 0.291585 0.730453
vt 0.327880 0.690394
vt 0.636831 0.195200
vt 0.582070 0.195200
vt 0.582070 0.000479
vt 0.636831 0.000479
vt 0.694210 0.000433
vt 0.748971 0.000433
vt 0.748971 0.289095
vt 0.694210 0.289095
vt 0.694210 0.387264
vt 0.748971 0.387264
vt 0.748971 0.675926
vt 0.694210 0.675926
vt 0.638654 0.365466
vt 0.693416 0.365466
vt 0.693179 0.542485
vt 0.638891 0.542485
vt 0.636831 0.365466
vt 0.582070 0.365466
vt 0.638654 0.195200
vt 0.693416 0.195200
vt 0.693416 0.730453
vt 0.638654 0.730453
vt 0.636595 0.542485
vt 0.582306 0.542485
vt 0.218104 0.884774
vt 0.000345 0.884774
vt 0.000347 0.878011
vt 0.218107 0.878011
vt 0.884774 0.876543
vt 0.667014 0.876543
vt 0.667012 0.869781
vt 0.884771 0.869781
vt 0.777778 0.240030
vt 0.777778 0.380651
vt 0.771015 0.380658
vt 0.771015 0.240037
vt 0.779246 0.162544
vt 0.779246 0.021928
vt 0.786008 0.021935
vt 0.786008 0.162551
vt 0.894472 0.658436
vt 0.894472 0.441797
vt 0.901235 0.441780
vt 0.901235 0.658419
vt 0.244266 0.172822
vt 0.244266 0.043386
vt 0.251029 0.043403
vt 0.251029 0.172840
vt 0.882716 0.901235
vt 0.666077 0.901235
vt 0.666074 0.894472
vt 0.882714 0.894472
vt 0.882716 0.893004
vt 0.666023 0.893004
vt 0.666020 0.886241
vt 0.882713 0.886241
vt 0.638654 0.000479
vt 0.693416 0.000479
vt 0.873117 0.422475
vt 0.873115 0.237372
vt 0.888886 0.221604
vt 0.888889 0.438243
vt 0.461656 0.984228
vt 0.646757 0.984228
vt 0.662525 1.000000
vt 0.445887 1.000000
vt 0.204393 0.858714
vt 0.204393 0.749636
vt 0.220165 0.733864
vt 0.220165 0.874486
vt 0.018177 0.749638
vt 0.002405 0.733867
vt 0.018177 0.858712
vt 0.002405 0.874483
vt 0.768469 0.422497
vt 0.752697 0.438272
vt 0.768469 0.237353
vt 0.752697 0.221578
vt 0.646780 0.852541
vt 0.646780 0.750216
vt 0.662551 0.734444
vt 0.662551 0.868313
vt 0.460564 0.750218
vt 0.444792 0.734446
vt 0.460564 0.852539
vt 0.444792 0.868310
vt 0.646777 0.886333
vt 0.662551 0.870561
vt 0.461633 0.886336
vt 0.445858 0.870565
vt 0.786008 0.242409
vt 0.786008 0.378601
vt 0.779246 0.378597
vt 0.779246 0.242405
vt 0.894472 0.438269
vt 0.894472 0.221576
vt 0.901235 0.221578
vt 0.901235 0.438272
vt 0.240151 0.522634
vt 0.240151 0.386445
vt 0.246914 0.386441
vt 0.246914 0.522630
vt 0.526749 0.388765
vt 0.526749 0.522634
vt 0.519986 0.522630
vt 0.519986 0.388761
vt 0.438272 0.884774
vt 0.220512 0.884774
vt 0.220510 0.878011
vt 0.438269 0.878011
vt 0.886241 0.658434
vt 0.886241 0.440674
vt 0.893004 0.440677
vt 0.893004 0.658436
vt 0.787476 0.154321
vt 0.787476 0.020457
vt 0.794239 0.020453
vt 0.794239 0.154317
vt 0.234568 0.043400
vt 0.234568 0.172840
vt 0.227805 0.172823
vt 0.227805 0.043383
vt 0.514403 0.320988
vt 0.329301 0.320988
vt 0.341138 0.309148
vt 0.502576 0.309148
vt 0.905814 0.553498
vt 0.905814 0.368396
vt 0.917696 0.380262
vt 0.917617 0.541700
vt 0.224280 0.216025
vt 0.224280 0.325103
vt 0.212440 0.313273
vt 0.212440 0.227865
vt 0.038064 0.216027
vt 0.049894 0.227867
vt 0.226337 0.168724
vt 0.040121 0.168724
vt 0.051952 0.156870
vt 0.214498 0.156870
vt 0.329280 0.216339
vt 0.341122 0.228169
vt 0.917696 0.000041
vt 0.917696 0.185185
vt 0.905861 0.173353
vt 0.905861 0.011883
vt 0.226848 0.670782
vt 0.226848 0.566136
vt 0.238683 0.577977
vt 0.238683 0.658954
vt 0.330245 0.518519
vt 0.330246 0.416193
vt 0.342085 0.428023
vt 0.342084 0.506679
vt 0.516461 0.518519
vt 0.504631 0.506679
vt 0.038064 0.333844
vt 0.224280 0.333844
vt 0.212450 0.345679
vt 0.049903 0.345679
vt 0.790634 0.341564
vt 0.790634 0.239243
vt 0.802469 0.251085
vt 0.802469 0.329736
vt 0.514403 0.564655
vt 0.514403 0.662551
vt 0.502564 0.650724
vt 0.502564 0.576498
vt 0.329260 0.564696
vt 0.341095 0.576533
vt 0.798827 0.557613
vt 0.798827 0.459720
vt 0.810658 0.471515
vt 0.810700 0.545738
vt 0.523145 0.154321
vt 0.523145 0.045248
vt 0.534979 0.057069
vt 0.534979 0.142473
vt 0.521677 0.327161
vt 0.521677 0.218083
vt 0.526749 0.218077
vt 0.526749 0.327155
vt 0.049894 0.313271
vt 0.332301 0.153364
vt 0.518517 0.153364
vt 0.518519 0.158436
vt 0.332302 0.158436
vt 0.038064 0.496986
vt 0.224280 0.496986
vt 0.224278 0.502058
vt 0.038062 0.502058
vt 0.534979 0.218087
vt 0.534979 0.327160
vt 0.529907 0.327155
vt 0.529907 0.218082
vt 0.934156 0.000081
vt 0.934156 0.185183
vt 0.929084 0.185185
vt 0.929084 0.000083
vt 0.502592 0.228171
vt 0.038138 0.148145
vt 0.038138 0.043497
vt 0.043210 0.043500
vt 0.043210 0.148148
vt 0.925926 0.000041
vt 0.925926 0.185185
vt 0.920854 0.185183
vt 0.920854 0.000039
vt 0.522634 0.566133
vt 0.522634 0.670779
vt 0.517562 0.670782
vt 0.517562 0.566136
vt 0.534023 0.666664
vt 0.534023 0.564338
vt 0.539095 0.564341
vt 0.539095 0.666667
vt 0.504632 0.428027
vt 0.040119 0.513446
vt 0.226336 0.513446
vt 0.226337 0.518519
vt 0.040121 0.518519
vt 0.038064 0.505216
vt 0.224280 0.505216
vt 0.224278 0.510288
vt 0.038062 0.510288
vt 0.794239 0.459405
vt 0.794239 0.561725
vt 0.789167 0.561728
vt 0.789167 0.459408
vt 0.513446 0.150189
vt 0.513446 0.052293
vt 0.518519 0.052309
vt 0.518519 0.150206
vt 0.341127 0.650757
vt 0.917696 0.549421
vt 0.917696 0.734565
vt 0.912624 0.734568
vt 0.912623 0.549424
vt 0.925926 0.374554
vt 0.925926 0.559656
vt 0.920854 0.559671
vt 0.920854 0.374568
vt 0.810700 0.021448
vt 0.810700 0.119342
vt 0.805628 0.119324
vt 0.805628 0.021431
vt 0.000433 0.365466
vt 0.035604 0.383665
vt 0.035604 0.524286
vt 0.000433 0.542485
vt 0.289095 0.365466
vt 0.253364 0.383667
vt 0.253364 0.524283
vt 0.289095 0.542485
vt 0.000433 0.000479
vt 0.036162 0.040535
vt 0.036134 0.176727
vt 0.000433 0.195200
vt 0.289095 0.000479
vt 0.252801 0.040536
vt 0.252828 0.176725
vt 0.289095 0.195200
vt 0.035604 0.213398
vt 0.035604 0.347267
vt 0.253364 0.213401
vt 0.253364 0.347265
vt 0.252828 0.560959
vt 0.036135 0.560958
vt 0.036162 0.690397
vt 0.000433 0.730453
vt 0.252800 0.690394
vt 0.289095 0.730453
vt 0.664957 0.884774
vt 0.664954 0.878011
vt 0.882713 0.878011
vt 0.882716 0.884774
vt 0.886241 0.660839
vt 0.893004 0.660841
vt 0.893004 0.878601
vt 0.886241 0.878598
vt 0.771015 0.021923
vt 0.777778 0.021930
vt 0.777778 0.162551
vt 0.771015 0.162544
vt 0.777778 0.600816
vt 0.771015 0.600823
vt 0.771015 0.460207
vt 0.777778 0.460200
vt 0.894472 0.661944
vt 0.901235 0.661962
vt 0.901235 0.878601
vt 0.894472 0.878583
vt 0.234568 0.345662
vt 0.227805 0.345679
vt 0.227805 0.216243
vt 0.234568 0.216225
vt 0.221630 0.901235
vt 0.221632 0.894472
vt 0.438272 0.894472
vt 0.438269 0.901235
vt 0.894472 0.001411
vt 0.901235 0.001414
vt 0.901235 0.218107
vt 0.894472 0.218104
vt 0.873117 0.017209
vt 0.888889 0.001440
vt 0.888889 0.218080
vt 0.873117 0.202311
vt 0.864887 0.457540
vt 0.880659 0.441772
vt 0.880659 0.658410
vt 0.864887 0.642642
vt 0.238341 0.858714
vt 0.222570 0.874486
vt 0.222570 0.733864
vt 0.238341 0.749636
vt 0.440329 0.733867
vt 0.424558 0.749638
vt 0.424558 0.858712
vt 0.440329 0.874483
vt 0.768469 0.017188
vt 0.752697 0.001414
vt 0.768471 0.202332
vt 0.752700 0.218107
vt 0.680728 0.852541
vt 0.664957 0.868313
vt 0.664957 0.734444
vt 0.680728 0.750216
vt 0.882716 0.734446
vt 0.866945 0.750218
vt 0.866945 0.852539
vt 0.882716 0.868310
vt 0.751219 0.658436
vt 0.766991 0.642662
vt 0.751223 0.441743
vt 0.766994 0.457518
vt 0.229863 0.386442
vt 0.236626 0.386438
vt 0.236626 0.522630
vt 0.229863 0.522634
vt 0.001414 0.901235
vt 0.001411 0.894472
vt 0.218104 0.894472
vt 0.218107 0.901235
vt 0.786008 0.598765
vt 0.779246 0.598761
vt 0.779246 0.462572
vt 0.786008 0.462576
vt 0.528217 0.386707
vt 0.534979 0.386703
vt 0.534979 0.520572
vt 0.528217 0.520576
vt 0.000345 0.893004
vt 0.000348 0.886241
vt 0.218107 0.886241
vt 0.218104 0.893004
vt 0.220512 0.893004
vt 0.220510 0.886241
vt 0.438269 0.886241
vt 0.438272 0.893004
vt 0.543210 0.522634
vt 0.536447 0.522630
vt 0.536447 0.388766
vt 0.543210 0.388770
vt 0.236036 0.043400
vt 0.242798 0.043384
vt 0.242798 0.172823
vt 0.236036 0.172840
vt 0.518519 0.043500
vt 0.506691 0.055340
vt 0.345253 0.055340
vt 0.333416 0.043500
vt 0.905814 0.179095
vt 0.917617 0.190894
vt 0.917696 0.352331
vt 0.905814 0.364198
vt 0.226337 0.154321
vt 0.214498 0.142481
vt 0.214498 0.057073
vt 0.226337 0.045243
vt 0.040121 0.154319
vt 0.051951 0.142479
vt 0.038064 0.329218
vt 0.049903 0.317363
vt 0.212450 0.317363
vt 0.224280 0.329218
vt 0.345237 0.136318
vt 0.333396 0.148148
vt 0.903803 0.732552
vt 0.915638 0.744393
vt 0.915638 0.905863
vt 0.903803 0.917696
vt 0.228395 0.493827
vt 0.216560 0.481999
vt 0.216560 0.401023
vt 0.228395 0.389181
vt 0.038064 0.387387
vt 0.049903 0.399227
vt 0.049904 0.477882
vt 0.038065 0.489712
vt 0.224280 0.387387
vt 0.212450 0.399226
vt 0.038064 0.493827
vt 0.049903 0.481992
vt 0.212450 0.481992
vt 0.224280 0.493827
vt 0.518519 0.318930
vt 0.506684 0.307102
vt 0.506684 0.228451
vt 0.518519 0.216609
vt 0.224280 0.662551
vt 0.212440 0.650709
vt 0.212440 0.576483
vt 0.224280 0.564655
vt 0.039136 0.662511
vt 0.050971 0.650674
vt 0.814815 0.417695
vt 0.802942 0.405821
vt 0.802983 0.331597
vt 0.814815 0.319802
vt 0.248971 0.329218
vt 0.237137 0.317371
vt 0.237137 0.231966
vt 0.248971 0.220145
vt 0.514403 0.497942
vt 0.509331 0.497937
vt 0.509331 0.388859
vt 0.514403 0.388865
vt 0.051951 0.057075
vt 0.332300 0.166667
vt 0.332302 0.161595
vt 0.518519 0.161595
vt 0.518517 0.166667
vt 0.332302 0.174897
vt 0.332301 0.169825
vt 0.518517 0.169825
vt 0.518519 0.174897
vt 0.538138 0.218087
vt 0.543210 0.218082
vt 0.543210 0.327155
vt 0.538138 0.327160
vt 0.929084 0.187324
vt 0.934156 0.187326
vt 0.934156 0.372428
vt 0.929084 0.372426
vt 0.506707 0.136316
vt 0.246914 0.670779
vt 0.241842 0.670782
vt 0.241842 0.566134
vt 0.246914 0.566131
vt 0.920854 0.187284
vt 0.925926 0.187282
vt 0.925926 0.372426
vt 0.920854 0.372428
vt 0.525792 0.566133
vt 0.530864 0.566136
vt 0.530864 0.670782
vt 0.525792 0.670779
vt 0.335391 0.679009
vt 0.330319 0.679012
vt 0.330319 0.576687
vt 0.335391 0.576684
vt 0.212451 0.477878
vt 0.332300 0.337449
vt 0.332302 0.332377
vt 0.518519 0.332377
vt 0.518517 0.337449
vt 0.332302 0.329218
vt 0.332301 0.324146
vt 0.518517 0.324146
vt 0.518519 0.329218
vt 0.797397 0.021133
vt 0.802469 0.021136
vt 0.802469 0.123457
vt 0.797397 0.123454
vt 0.043210 0.320971
vt 0.038138 0.320988
vt 0.038138 0.223091
vt 0.043210 0.223075
vt 0.051003 0.576450
vt 0.923868 0.925926
vt 0.918796 0.925923
vt 0.918796 0.740779
vt 0.923868 0.740782
vt 0.932099 0.934156
vt 0.927027 0.934142
vt 0.927027 0.749040
vt 0.932099 0.749054
vt 0.813858 0.019391
vt 0.818930 0.019374
vt 0.818930 0.117267
vt 0.813858 0.117284
vt 0.636831 0.730453
vt 0.582070 0.730453
s 0
usemtl White_Wood.001
f 480/941/117 484/942/117 490/943/117 489/944/117
f 480/941/118 489/944/118 491/945/118 479/946/118
f 484/942/118 483/947/118 492/948/118 490/943/118
f 479/946/117 491/945/117 492/948/117 483/947/117
f 476/949/118 482/950/118 493/951/118 486/952/118
f 475/953/118 476/949/118 486/952/118 485/954/118
f 482/950/118 481/955/118 494/956/118 493/951/118
f 481/955/118 475/953/118 485/954/118 494/956/118
f 482/950/118 480/941/118 496/957/118 495/958/118
f 482/950/118 495/958/118 497/959/118 481/955/118
f 480/941/118 479/946/118 498/960/118 496/957/118
f 479/946/118 481/955/118 497/959/118 498/960/118
f 483/947/118 484/942/118 499/961/118 500/962/118
f 484/942/119 478/963/119 487/964/119 499/961/119
f 478/963/120 477/965/120 488/966/120 487/964/120
f 477/965/121 483/947/121 500/962/121 488/966/121
f 481/967/122 571/968/122 565/969/122 475/970/122
f 478/971/123 568/972/123 567/973/123 477/974/123
f 475/975/124 565/976/124 566/977/124 476/978/124
f 480/979/125 570/980/125 574/981/125 484/982/125
f 479/983/122 569/984/122 571/968/122 481/967/122
f 482/985/125 572/986/125 570/980/125 480/979/125
f 574/981/125 568/987/125 478/988/125 484/982/125
f 483/989/122 573/990/122 569/984/122 479/983/122
f 490/991/126 492/992/126 508/993/126 506/994/126
f 491/995/127 489/996/127 505/997/127 507/998/127
f 489/999/128 490/1000/128 506/1001/128 505/1002/128
f 492/1003/129 491/1004/129 507/1005/129 508/1006/129
f 487/1007/126 488/1008/126 504/1009/126 503/1010/126
f 488/1011/130 500/1012/130 516/1013/130 504/1014/130
f 485/1015/127 486/1016/127 502/1017/127 501/1018/127
f 500/1019/127 499/1020/127 515/1021/127 516/1022/127
f 476/1023/125 566/1024/125 572/986/125 482/985/125
f 518/1025/118 517/1026/118 501/1027/118 502/1028/118
f 520/1029/131 519/1030/131 503/1031/131 504/1032/131
f 522/1033/132 521/1034/132 505/1035/132 506/1036/132
f 521/1034/132 523/1037/132 507/1038/132 505/1035/132
f 524/1039/132 522/1033/132 506/1036/132 508/1040/132
f 525/1041/118 518/1025/118 502/1028/118 509/1042/118
f 526/1043/118 525/1041/118 509/1042/118 510/1044/118
f 517/1026/118 526/1043/118 510/1044/118 501/1027/118
f 528/1045/118 527/1046/118 511/1047/118 512/1048/118
f 527/1046/118 529/1049/118 513/1050/118 511/1047/118
f 530/1051/118 528/1045/118 512/1048/118 514/1052/118
f 529/1049/118 530/1051/118 514/1052/118 513/1050/118
f 519/1030/133 531/1053/133 515/1054/133 503/1031/133
f 531/1053/134 532/1055/134 516/1056/134 515/1054/134
f 532/1055/135 520/1029/135 504/1032/135 516/1056/135
f 523/1037/132 524/1039/132 508/1040/132 507/1038/132
f 486/1057/136 493/1058/136 509/1059/136 502/1060/136
f 493/1061/126 494/1062/126 510/1063/126 509/1064/126
f 494/1065/137 485/1066/137 501/1067/137 510/1068/137
f 495/1069/128 496/1070/128 512/1071/128 511/1072/128
f 497/1073/127 495/1074/127 511/1075/127 513/1076/127
f 496/1077/126 498/1078/126 514/1079/126 512/1080/126
f 498/1081/129 497/1082/129 513/1083/129 514/1084/129
f 499/1085/138 487/1086/138 503/1087/138 515/1088/138
f 548/1089/139 541/1090/139 542/1091/139 547/1092/139
f 560/1093/140 561/1094/140 562/1095/140 559/1096/140
f 534/1097/141 535/1098/141 536/1099/141 533/1100/141
f 540/1101/142 534/1097/142 533/1100/142 539/1102/142
f 535/1103/143 537/1104/143 538/1105/143 536/1106/143
f 541/1090/144 543/1107/144 544/1108/144 542/1091/144
f 543/1109/145 545/1110/145 546/1111/145 544/1112/145
f 545/1113/146 548/1114/146 547/1115/146 546/1116/146
f 550/1117/147 551/1118/147 552/1119/147 549/1120/147
f 556/1121/139 550/1117/139 549/1120/139 555/1122/139
f 551/1123/145 553/1124/145 554/1125/145 552/1126/145
f 553/1127/148 556/1128/148 555/1129/148 554/1130/148
f 558/1131/149 560/1132/149 559/1133/149 557/1134/149
f 564/1135/150 558/1131/150 557/1134/150 563/1136/150
f 561/1137/151 564/1138/151 563/1139/151 562/1140/151
f 537/1141/152 540/1142/152 539/1143/152 538/1144/152
f 535/1145/153 534/1146/153 521/1147/153 522/1148/153
f 533/1100/132 536/1099/132 538/1149/132 539/1102/132
f 534/1150/127 540/1151/127 523/1152/127 521/1153/127
f 537/1154/126 535/1155/126 522/1156/126 524/1157/126
f 540/1158/154 537/1159/154 524/1160/154 523/1161/154
f 541/1162/127 548/1163/127 517/1164/127 518/1165/127
f 547/1092/118 542/1091/118 544/1108/118 546/1166/118
f 543/1167/155 541/1168/155 518/1169/155 525/1170/155
f 545/1171/126 543/1172/126 525/1173/126 526/1174/126
f 548/1175/156 545/1176/156 526/1177/156 517/1178/156
f 551/1179/153 550/1180/153 527/1181/153 528/1182/153
f 549/1120/118 552/1119/118 554/1183/118 555/1122/118
f 550/1184/127 556/1185/127 529/1186/127 527/1187/127
f 553/1188/126 551/1189/126 528/1190/126 530/1191/126
f 556/1192/154 553/1193/154 530/1194/154 529/1195/154
f 560/1196/157 558/1197/157 531/1198/157 519/1199/157
f 559/1133/158 562/1200/158 563/1136/158 557/1134/158
f 558/1201/127 564/1202/127 532/1203/127 531/1204/127
f 561/1205/126 560/1206/126 519/1207/126 520/1208/126
f 564/1209/130 561/1210/130 520/1211/130 532/1212/130
f 570/1213/159 579/1214/159 580/1215/159 574/1216/159
f 570/1213/160 569/1217/160 581/1218/160 579/1214/160
f 574/1216/160 580/1215/160 582/1219/160 573/1220/160
f 569/1217/159 573/1220/159 582/1219/159 581/1218/159
f 566/1221/160 576/1222/160 583/1223/160 572/1224/160
f 565/1225/160 575/1226/160 576/1222/160 566/1221/160
f 572/1224/160 583/1223/160 584/1227/160 571/1228/160
f 571/1228/160 584/1227/160 575/1226/160 565/1225/160
f 572/1224/160 585/1229/160 586/1230/160 570/1213/160
f 572/1224/160 571/1228/160 587/1231/160 585/1229/160
f 570/1213/160 586/1230/160 588/1232/160 569/1217/160
f 569/1217/160 588/1232/160 587/1231/160 571/1228/160
f 573/1220/160 590/1233/160 589/1234/160 574/1216/160
f 574/1216/161 589/1234/161 577/1235/161 568/1236/161
f 568/1236/162 577/1235/162 578/1237/162 567/1238/162
f 567/1238/163 578/1237/163 590/1233/163 573/1220/163
f 580/1239/164 596/1240/164 598/1241/164 582/1242/164
f 581/1243/165 597/1244/165 595/1245/165 579/1246/165
f 579/1247/166 595/1248/166 596/1249/166 580/1250/166
f 582/1251/167 598/1252/167 597/1253/167 581/1254/167
f 577/1255/164 593/1256/164 594/1257/164 578/1258/164
f 578/1259/168 594/1260/168 606/1261/168 590/1262/168
f 575/1263/165 591/1264/165 592/1265/165 576/1266/165
f 590/1267/165 606/1268/165 605/1269/165 589/1270/165
f 608/1271/160 592/1272/160 591/1273/160 607/1274/160
f 610/1275/169 594/1276/169 593/1277/169 609/1278/169
f 612/1279/170 596/1280/170 595/1281/170 611/1282/170
f 611/1282/170 595/1281/170 597/1283/170 613/1284/170
f 614/1285/170 598/1286/170 596/1280/170 612/1279/170
f 615/1287/160 599/1288/160 592/1272/160 608/1271/160
f 616/1289/160 600/1290/160 599/1288/160 615/1287/160
f 607/1274/160 591/1273/160 600/1290/160 616/1289/160
f 618/1291/160 602/1292/160 601/1293/160 617/1294/160
f 617/1294/160 601/1293/160 603/1295/160 619/1296/160
f 620/1297/160 604/1298/160 602/1292/160 618/1291/160
f 619/1296/160 603/1295/160 604/1298/160 620/1297/160
f 609/1278/171 593/1277/171 605/1299/171 621/1300/171
f 621/1300/172 605/1299/172 606/1301/172 622/1302/172
f 622/1302/173 606/1301/173 594/1276/173 610/1275/173
f 613/1284/170 597/1283/170 598/1286/170 614/1285/170
f 576/1303/174 592/1304/174 599/1305/174 583/1306/174
f 583/1307/164 599/1308/164 600/1309/164 584/1310/164
f 584/1311/175 600/1312/175 591/1313/175 575/1314/175
f 585/1315/166 601/1316/166 602/1317/166 586/1318/166
f 587/1319/165 603/1320/165 601/1321/165 585/1322/165
f 586/1323/164 602/1324/164 604/1325/164 588/1326/164
f 588/1327/167 604/1328/167 603/1329/167 587/1330/167
f 589/1331/176 605/1332/176 593/1333/176 577/1334/176
f 638/1335/177 637/1336/177 632/1337/177 631/1338/177
f 650/1339/178 649/1340/178 652/1341/178 651/1342/178
f 624/1343/179 623/1344/179 626/1345/179 625/1346/179
f 630/1347/180 629/1348/180 623/1344/180 624/1343/180
f 625/1349/181 626/1350/181 628/1351/181 627/1352/181
f 631/1338/182 632/1337/182 634/1353/182 633/1354/182
f 633/1355/183 634/1356/183 636/1357/183 635/1358/183
f 635/1359/184 636/1360/184 637/1361/184 638/1362/184
f 640/1363/185 639/1364/185 642/1365/185 641/1366/185
f 646/1367/177 645/1368/177 639/1364/177 640/1363/177
f 641/1369/183 642/1370/183 644/1371/183 643/1372/183
f 643/1373/186 644/1374/186 645/1375/186 646/1376/186
f 648/1377/187 647/1378/187 649/1379/187 650/1380/187
f 654/1381/188 653/1382/188 647/1378/188 648/1377/188
f 651/1383/189 652/1384/189 653/1385/189 654/1386/189
f 627/1387/190 628/1388/190 629/1389/190 630/1390/190
f 625/1391/191 612/1392/191 611/1393/191 624/1394/191
f 623/1344/170 629/1348/170 628/1395/170 626/1345/170
f 624/1396/165 611/1397/165 613/1398/165 630/1399/165
f 627/1400/164 614/1401/164 612/1402/164 625/1403/164
f 630/1404/192 613/1405/192 614/1406/192 627/1407/192
f 631/1408/165 608/1409/165 607/1410/165 638/1411/165
f 637/1336/160 636/1412/160 634/1353/160 632/1337/160
f 633/1413/193 615/1414/193 608/1415/193 631/1416/193
f 635/1417/164 616/1418/164 615/1419/164 633/1420/164
f 638/1421/194 607/1422/194 616/1423/194 635/1424/194
f 641/1425/191 618/1426/191 617/1427/191 640/1428/191
f 639/1364/160 645/1368/160 644/1429/160 642/1365/160
f 640/1430/165 617/1431/165 619/1432/165 646/1433/165
f 643/1434/164 620/1435/164 618/1436/164 641/1437/164
f 646/1438/192 619/1439/192 620/1440/192 643/1441/192
f 650/1442/195 609/1443/195 621/1444/195 648/1445/195
f 649/1379/196 647/1378/196 653/1382/196 652/1446/196
f 648/1447/165 621/1448/165 622/1449/165 654/1450/165
f 651/1451/164 610/1452/164 609/1453/164 650/1454/164
f 654/1455/168 622/1456/168 610/1457/168 651/1458/168
f 477/1459/122 567/1460/122 573/990/122 483/989/122
