# Blender 5.0.0
# www.blender.org
mtllib Easle.mtl
o Easle
v -0.081541 2.102594 0.441499
v 0.166281 2.100856 0.442048
v -0.081528 2.093699 0.407558
v 0.166293 2.091961 0.408108
v -0.080729 2.209569 0.413464
v 0.167093 2.207832 0.414013
v -0.080716 2.200675 0.379523
v 0.167106 2.198937 0.380073
v 0.040801 0.003433 0.037307
v 0.057415 1.399161 0.584402
v 0.040949 0.015835 0.005663
v 0.057562 1.411563 0.552758
v 0.018075 0.003703 0.037307
v 0.034688 1.399431 0.584402
v 0.018222 0.016105 0.005663
v 0.034836 1.411833 0.552758
v 0.049437 0.016437 0.964430
v 0.068703 2.447884 0.312151
v 0.049876 0.006988 0.929221
v 0.069141 2.438436 0.276942
v 0.021104 0.016558 0.964045
v 0.040369 2.448005 0.311766
v 0.021542 0.007109 0.928836
v 0.040808 2.438557 0.276557
v 0.050140 1.162045 0.477172
v 0.055663 1.243344 0.632085
v 0.052129 1.180467 0.467433
v 0.057652 1.261766 0.622346
v 0.034712 1.163576 0.476918
v 0.040235 1.244875 0.631831
v 0.036701 1.181999 0.467179
v 0.042224 1.263298 0.622092
v 0.476624 0.021852 0.963686
v 0.233738 1.668140 0.517273
v 0.478483 0.012717 0.928987
v 0.235597 1.659005 0.482574
v 0.454263 0.018469 0.963378
v 0.211377 1.664758 0.516966
v 0.456122 0.009335 0.928679
v 0.213236 1.655623 0.482267
v -0.389649 0.020599 0.963686
v -0.118963 1.662545 0.517273
v -0.390664 0.011332 0.928987
v -0.119978 1.653279 0.482574
v -0.411976 0.024196 0.963378
v -0.141291 1.666143 0.516966
v -0.412991 0.014929 0.928679
v -0.142306 1.656876 0.482267
v -0.325294 0.804250 0.713540
v 0.411648 0.799082 0.715172
v -0.325281 0.795372 0.679602
v 0.411661 0.790205 0.681234
v -0.324885 0.858180 0.699433
v 0.412057 0.853012 0.701065
v -0.324872 0.849302 0.665496
v 0.412070 0.844135 0.667128
v -0.396516 1.040391 0.735606
v 0.481654 1.034207 0.737466
v -0.396499 1.029099 0.689882
v 0.481671 1.022915 0.691742
v -0.396106 1.094514 0.722240
v 0.482063 1.088330 0.724100
v -0.396089 1.083222 0.676516
v 0.482080 1.077038 0.678376
v -0.187404 1.564803 0.506229
v 0.272258 1.561568 0.510689
v -0.187198 1.558370 0.480340
v 0.272464 1.555135 0.484800
v -0.186900 1.618194 0.492966
v 0.272763 1.614958 0.497426
v -0.186694 1.611760 0.467077
v 0.272969 1.608525 0.471537
v -0.325289 1.027968 0.689842
v 0.411652 1.022806 0.691491
v -0.325274 1.017975 0.652145
v 0.411667 1.012813 0.653794
v -0.324891 1.080361 0.675954
v 0.412050 1.075199 0.677602
v -0.324876 1.070369 0.638257
v 0.412065 1.065206 0.639906
vn 0.0073 0.9673 -0.2535
vn -0.0004 0.2535 0.9673
vn -0.0073 -0.9673 0.2535
vn 0.0004 -0.2535 -0.9673
vn 1.0000 -0.0070 0.0022
vn -1.0000 0.0070 -0.0022
vn -0.9999 0.0119 -0.0000
vn -0.0043 -0.3649 0.9310
vn 0.9999 -0.0119 -0.0000
vn 0.0043 0.3649 -0.9310
vn 0.0111 0.9310 0.3649
vn -0.0111 -0.9310 -0.3649
vn -0.9999 0.0043 -0.0136
vn -0.0120 0.2592 0.9658
vn 0.9999 -0.0043 0.0136
vn 0.0120 -0.2592 -0.9658
vn 0.0077 0.9658 -0.2591
vn -0.0076 -0.9658 0.2591
vn -0.9950 0.0988 -0.0164
vn -0.0950 -0.8801 0.4652
vn 0.9950 -0.0988 0.0164
vn 0.0950 0.8801 -0.4652
vn 0.0316 0.4645 0.8850
vn -0.0316 -0.4645 -0.8850
vn -0.9887 -0.1495 -0.0136
vn -0.0517 0.2542 0.9658
vn 0.9887 0.1495 0.0136
vn 0.0517 -0.2542 -0.9658
vn -0.1410 0.9555 -0.2591
vn 0.1410 -0.9555 0.2591
vn -0.9872 0.1590 -0.0136
vn 0.0283 0.2579 0.9658
vn 0.9872 -0.1590 0.0136
vn -0.0283 -0.2579 -0.9658
vn 0.1571 0.9530 -0.2591
vn -0.1571 -0.9530 0.2591
vn 0.0073 0.9674 -0.2531
vn -0.0004 0.2531 0.9675
vn -0.0073 -0.9674 0.2531
vn 0.0004 -0.2531 -0.9675
vn 0.0073 0.9708 -0.2398
vn -0.0004 0.2398 0.9708
vn -0.0073 -0.9708 0.2398
vn 0.0004 -0.2398 -0.9708
vn 1.0000 -0.0070 0.0021
vn -1.0000 0.0070 -0.0021
vn 0.0092 0.9705 -0.2411
vn -0.0077 0.2411 0.9705
vn -0.0092 -0.9705 0.2411
vn 0.0077 -0.2411 -0.9705
vn 0.9999 -0.0070 0.0097
vn -0.9999 0.0070 -0.0097
vn 0.0073 0.9666 -0.2562
vn -0.0004 0.2562 0.9666
vn -0.0073 -0.9666 0.2562
vn 0.0004 -0.2562 -0.9666
vt 0.160226 0.596055
vt 0.160226 0.560889
vt 0.195381 0.560907
vt 0.195381 0.596074
vt 0.525764 0.590491
vt 0.560912 0.590485
vt 0.560912 0.625656
vt 0.525764 0.625663
vt 0.208934 0.596074
vt 0.208934 0.560907
vt 0.244090 0.560889
vt 0.244090 0.596055
vt 0.509948 0.625670
vt 0.474799 0.625664
vt 0.474799 0.590493
vt 0.509948 0.590499
vt 0.304608 0.560754
vt 0.339780 0.560754
vt 0.339780 0.595926
vt 0.304608 0.595926
vt 0.255978 0.560754
vt 0.291150 0.560754
vt 0.291150 0.595926
vt 0.255978 0.595926
vt 0.102796 0.971352
vt 0.102796 0.005944
vt 0.119622 0.028648
vt 0.119622 0.994056
vt 0.355162 0.005944
vt 0.354894 0.902434
vt 0.351668 0.902529
vt 0.351936 0.006039
vt 0.131511 0.994056
vt 0.131511 0.028648
vt 0.148337 0.005944
vt 0.148337 0.971352
vt 0.370275 0.033365
vt 0.370543 0.929854
vt 0.367318 0.929759
vt 0.367050 0.033270
vt 0.367318 0.005944
vt 0.370543 0.006039
vt 0.355162 0.929759
vt 0.351936 0.929854
vt 0.054370 0.807307
vt 0.054370 0.006544
vt 0.090907 0.005944
vt 0.090907 0.806707
vt 0.386462 0.005944
vt 0.386462 0.806497
vt 0.382432 0.806500
vt 0.382432 0.005948
vt 0.005944 0.806707
vt 0.005944 0.005944
vt 0.042482 0.006544
vt 0.042482 0.807307
vt 0.402381 0.005948
vt 0.402381 0.806500
vt 0.398351 0.806497
vt 0.398351 0.005944
vt 0.625870 0.006272
vt 0.629892 0.005944
vt 0.629892 0.042472
vt 0.625870 0.042799
vt 0.591478 0.395381
vt 0.595499 0.395708
vt 0.595499 0.432235
vt 0.591478 0.431908
vt 0.579589 0.283240
vt 0.579589 0.454571
vt 0.572800 0.450294
vt 0.572800 0.278962
vt 0.620604 0.450293
vt 0.620604 0.279117
vt 0.622803 0.278962
vt 0.622803 0.450138
vt 0.570276 0.005944
vt 0.570276 0.177276
vt 0.563487 0.181554
vt 0.563487 0.010222
vt 0.611783 0.177120
vt 0.611783 0.005944
vt 0.613982 0.006099
vt 0.613982 0.177275
vt 0.563487 0.212618
vt 0.565678 0.212192
vt 0.565678 0.218627
vt 0.563487 0.219053
vt 0.563487 0.193442
vt 0.565678 0.193869
vt 0.565678 0.200303
vt 0.563487 0.199877
vt 0.255978 0.548866
vt 0.255978 0.006892
vt 0.291935 0.005944
vt 0.291935 0.547918
vt 0.432708 0.006798
vt 0.432708 0.549852
vt 0.429433 0.548999
vt 0.429433 0.005944
vt 0.303823 0.547918
vt 0.303823 0.005944
vt 0.339780 0.006892
vt 0.339780 0.548866
vt 0.417545 0.005944
vt 0.417545 0.548999
vt 0.414270 0.549852
vt 0.414270 0.006798
vt 0.625870 0.104849
vt 0.629030 0.103689
vt 0.629030 0.139643
vt 0.625870 0.140803
vt 0.625870 0.054688
vt 0.629030 0.055847
vt 0.629030 0.091801
vt 0.625870 0.090641
vt 0.160226 0.549000
vt 0.160226 0.006934
vt 0.196213 0.005944
vt 0.196213 0.548011
vt 0.444597 0.549669
vt 0.444597 0.006816
vt 0.447809 0.005944
vt 0.447809 0.548798
vt 0.208102 0.548011
vt 0.208102 0.005944
vt 0.244090 0.006934
vt 0.244090 0.549000
vt 0.459698 0.548798
vt 0.459698 0.005944
vt 0.462911 0.006816
vt 0.462911 0.549669
vt 0.634997 0.551607
vt 0.631804 0.550964
vt 0.631804 0.514978
vt 0.634997 0.515620
vt 0.634997 0.502447
vt 0.631805 0.503089
vt 0.631805 0.467102
vt 0.634997 0.466460
vt 0.525764 0.383536
vt 0.525764 0.278962
vt 0.560911 0.278980
vt 0.560911 0.383553
vt 0.572800 0.570981
vt 0.572800 0.466460
vt 0.590529 0.466462
vt 0.590529 0.570983
vt 0.525764 0.500041
vt 0.525764 0.395467
vt 0.560911 0.395450
vt 0.560911 0.500023
vt 0.582165 0.110468
vt 0.582165 0.005946
vt 0.599894 0.005944
vt 0.599894 0.110465
vt 0.285596 0.607814
vt 0.303325 0.607838
vt 0.303325 0.643002
vt 0.285596 0.642978
vt 0.255978 0.607838
vt 0.273707 0.607814
vt 0.273707 0.642978
vt 0.255978 0.643002
vt 0.474799 0.130565
vt 0.474799 0.005950
vt 0.521978 0.005944
vt 0.521978 0.130559
vt 0.533866 0.130518
vt 0.533866 0.005970
vt 0.551599 0.005944
vt 0.551599 0.130493
vt 0.474799 0.267068
vt 0.474799 0.142453
vt 0.521978 0.142459
vt 0.521978 0.267073
vt 0.533866 0.266955
vt 0.533866 0.142406
vt 0.551599 0.142432
vt 0.551599 0.266980
vt 0.444597 0.561558
vt 0.462329 0.562271
vt 0.462329 0.609478
vt 0.444597 0.608765
vt 0.414976 0.562454
vt 0.432708 0.561741
vt 0.432708 0.608948
vt 0.414976 0.609661
vt 0.525764 0.577249
vt 0.525764 0.511930
vt 0.552453 0.513277
vt 0.552453 0.578597
vt 0.602417 0.609015
vt 0.602417 0.543699
vt 0.619916 0.543733
vt 0.619916 0.609050
vt 0.474799 0.578604
vt 0.474799 0.513285
vt 0.501488 0.511937
vt 0.501488 0.577257
vt 0.602417 0.531810
vt 0.602418 0.466494
vt 0.619916 0.466460
vt 0.619916 0.531776
vt 0.315213 0.607814
vt 0.332711 0.608450
vt 0.332711 0.635189
vt 0.315213 0.634553
vt 0.563487 0.240241
vt 0.580985 0.239605
vt 0.580985 0.266344
vt 0.563487 0.266980
vt 0.474799 0.383536
vt 0.474799 0.278962
vt 0.513875 0.278987
vt 0.513875 0.383561
vt 0.582165 0.226878
vt 0.582165 0.122356
vt 0.599403 0.122365
vt 0.599403 0.226886
vt 0.474799 0.500049
vt 0.474799 0.395475
vt 0.513875 0.395450
vt 0.513875 0.500023
vt 0.591478 0.383492
vt 0.591478 0.278971
vt 0.608715 0.278962
vt 0.608715 0.383484
vt 0.611783 0.189301
vt 0.629021 0.189163
vt 0.629021 0.228256
vt 0.611783 0.228393
vt 0.573290 0.582872
vt 0.590529 0.583009
vt 0.590529 0.622102
vt 0.573290 0.621965
s 0
usemtl Material
f 1/1/1 2/2/1 4/3/1 3/4/1
f 3/5/2 4/6/2 8/7/2 7/8/2
f 7/9/3 8/10/3 6/11/3 5/12/3
f 5/13/4 6/14/4 2/15/4 1/16/4
f 3/17/5 7/18/5 5/19/5 1/20/5
f 8/21/6 4/22/6 2/23/6 6/24/6
f 9/25/7 10/26/7 12/27/7 11/28/7
f 11/29/8 12/30/8 16/31/8 15/32/8
f 15/33/9 16/34/9 14/35/9 13/36/9
f 13/37/10 14/38/10 10/39/10 9/40/10
f 11/41/11 15/42/11 13/37/11 9/40/11
f 16/31/12 12/30/12 10/43/12 14/44/12
f 17/45/13 18/46/13 20/47/13 19/48/13
f 19/49/14 20/50/14 24/51/14 23/52/14
f 23/53/15 24/54/15 22/55/15 21/56/15
f 21/57/16 22/58/16 18/59/16 17/60/16
f 19/61/17 23/62/17 21/63/17 17/64/17
f 24/65/18 20/66/18 18/67/18 22/68/18
f 25/69/19 26/70/19 28/71/19 27/72/19
f 27/73/20 28/74/20 32/75/20 31/76/20
f 31/77/21 32/78/21 30/79/21 29/80/21
f 29/81/22 30/82/22 26/83/22 25/84/22
f 27/85/23 31/86/23 29/87/23 25/88/23
f 32/89/24 28/90/24 26/91/24 30/92/24
f 33/93/25 34/94/25 36/95/25 35/96/25
f 35/97/26 36/98/26 40/99/26 39/100/26
f 39/101/27 40/102/27 38/103/27 37/104/27
f 37/105/28 38/106/28 34/107/28 33/108/28
f 35/109/29 39/110/29 37/111/29 33/112/29
f 40/113/30 36/114/30 34/115/30 38/116/30
f 41/117/31 42/118/31 44/119/31 43/120/31
f 43/121/32 44/122/32 48/123/32 47/124/32
f 47/125/33 48/126/33 46/127/33 45/128/33
f 45/129/34 46/130/34 42/131/34 41/132/34
f 43/133/35 47/134/35 45/135/35 41/136/35
f 48/137/36 44/138/36 42/139/36 46/140/36
f 49/141/37 50/142/37 52/143/37 51/144/37
f 51/145/38 52/146/38 56/147/38 55/148/38
f 55/149/39 56/150/39 54/151/39 53/152/39
f 53/153/40 54/154/40 50/155/40 49/156/40
f 51/157/5 55/158/5 53/159/5 49/160/5
f 56/161/6 52/162/6 50/163/6 54/164/6
f 57/165/41 58/166/41 60/167/41 59/168/41
f 59/169/42 60/170/42 64/171/42 63/172/42
f 63/173/43 64/174/43 62/175/43 61/176/43
f 61/177/44 62/178/44 58/179/44 57/180/44
f 59/181/45 63/182/45 61/183/45 57/184/45
f 64/185/46 60/186/46 58/187/46 62/188/46
f 65/189/47 66/190/47 68/191/47 67/192/47
f 67/193/48 68/194/48 72/195/48 71/196/48
f 71/197/49 72/198/49 70/199/49 69/200/49
f 69/201/50 70/202/50 66/203/50 65/204/50
f 67/205/51 71/206/51 69/207/51 65/208/51
f 72/209/52 68/210/52 66/211/52 70/212/52
f 73/213/53 74/214/53 76/215/53 75/216/53
f 75/217/54 76/218/54 80/219/54 79/220/54
f 79/221/55 80/222/55 78/223/55 77/224/55
f 77/225/56 78/226/56 74/227/56 73/228/56
f 75/229/5 79/230/5 77/231/5 73/232/5
f 80/233/6 76/234/6 74/235/6 78/236/6
o Portal1
v -0.361488 1.077630 0.704150
v 0.436096 1.077630 0.704150
v -0.361488 2.095408 0.411468
v 0.436096 2.095408 0.411468
v -0.361488 2.097608 0.419119
v -0.361488 1.079830 0.711800
v 0.436096 1.079830 0.711800
v 0.436096 2.097608 0.419119
vn -0.0000 -0.2764 -0.9611
vn -0.0000 0.2764 0.9611
vn -0.0000 0.9611 -0.2764
vn -0.0000 -0.9611 0.2764
vn 1.0000 -0.0000 -0.0000
vn -1.0000 -0.0000 -0.0000
vt 0.000000 0.000000
vt 0.000000 1.000000
vt 1.000000 1.000000
vt 1.000000 0.000000
vt 0.108174 0.000000
vt 0.891826 0.000000
vt 0.891826 1.000000
vt 0.108174 1.000000
s 0
usemtl Canvas
f 81/237/57 83/238/57 84/239/57 82/240/57
f 84/239/59 83/238/59 85/238/59 88/239/59
f 81/237/60 82/240/60 87/240/60 86/237/60
f 82/240/61 84/239/61 88/239/61 87/240/61
f 83/238/62 81/237/62 86/237/62 85/238/62
usemtl Portal1
f 86/241/58 87/242/58 88/243/58 85/244/58
