# Blender 5.0.0
# www.blender.org
mtllib MacGuffin.mtl
o Photo3.001
v 0.288000 -0.432000 -0.022977
v -0.288000 -0.432000 -0.022977
v 0.288000 0.432000 -0.022977
v -0.288000 0.432000 -0.022977
v -0.230400 0.345600 -0.004097
v 0.230400 0.345600 -0.004097
v 0.230400 -0.345600 -0.004097
v -0.230400 -0.345600 -0.004097
v 0.236666 -0.354999 0.001663
v 0.230400 -0.345600 -0.001052
v -0.230400 -0.345600 -0.001052
v -0.236666 -0.354999 0.001663
v 0.230400 0.345600 -0.001052
v 0.236666 0.354999 0.001663
v -0.236666 0.354999 0.001663
v -0.230400 0.345600 -0.001052
v -0.288000 0.432000 0.004708
v -0.281734 0.422601 0.007423
v 0.281734 0.422601 0.007423
v 0.288000 0.432000 0.004708
v 0.288000 -0.432000 0.004708
v 0.281734 -0.422601 0.007423
v -0.281734 -0.422601 0.007423
v -0.288000 -0.432000 0.004708
v 0.256985 -0.385477 0.004543
v 0.261415 -0.392123 0.004543
v -0.261415 -0.392123 0.004543
v -0.256985 -0.385477 0.004543
v 0.256985 0.385477 0.004543
v 0.261415 0.392123 0.004543
v -0.261415 0.392123 0.004543
v -0.256985 0.385477 0.004543
v 0.256985 0.385477 0.002623
v 0.261415 0.392123 0.002623
v -0.261415 0.392123 0.002623
v -0.256985 0.385477 0.002623
v -0.261415 -0.392123 0.002623
v -0.256985 -0.385477 0.002623
v 0.256985 -0.385477 0.002623
v 0.261415 -0.392123 0.002623
vn -0.0000 -0.0000 1.0000
vn -0.0000 0.2775 0.9607
vn -0.0000 -0.2775 0.9607
vn 0.3976 -0.0000 0.9176
vn -0.3976 -0.0000 0.9176
vn -0.0000 1.0000 -0.0000
vn -1.0000 -0.0000 -0.0000
vn 1.0000 -0.0000 -0.0000
vn -0.0000 -1.0000 -0.0000
vn -0.0000 0.0941 0.9956
vn -0.1403 -0.0000 0.9901
vn 0.1403 -0.0000 0.9901
vn -0.0000 -0.0941 0.9956
vn -0.0000 -0.0000 -1.0000
vt 0.115218 0.135615
vt 0.844420 0.133474
vt 0.844422 0.866521
vt 0.115219 0.864382
vt 0.025195 0.952310
vt 0.934445 0.971037
vt 0.945219 0.983916
vt 0.014421 0.962843
vt 0.934444 0.028962
vt 0.025194 0.047688
vt 0.014420 0.037155
vt 0.945219 0.016084
vt 0.111987 0.867388
vt 0.847654 0.871667
vt 0.858264 0.884290
vt 0.101378 0.877723
vt 0.847651 0.128328
vt 0.111986 0.132609
vt 0.101376 0.122275
vt 0.858261 0.115704
vt 0.000000 0.977012
vt 0.000000 0.022985
vt 0.959639 1.000000
vt 0.959639 0.000000
vt 0.058175 0.079977
vt 0.901462 0.064524
vt 0.899509 0.068315
vt 0.060129 0.081820
vt 0.901464 0.935472
vt 0.058177 0.920019
vt 0.060130 0.918176
vt 0.899510 0.931680
vt 0.068813 0.909812
vt 0.890828 0.919148
vt 0.892755 0.922930
vt 0.066885 0.911618
vt 0.890826 0.080847
vt 0.892753 0.077065
vt 0.068811 0.090184
vt 0.066884 0.088379
vt 0.969743 0.489983
vt 0.969743 0.510017
vt 0.989896 0.510500
vt 0.989896 0.489500
s 0
usemtl MacGuffin
f 8/1/1 7/2/1 6/3/1 5/4/1
f 18/5/2 19/6/2 20/7/2 17/8/2
f 22/9/3 23/10/3 24/11/3 21/12/3
f 21/12/4 20/7/4 19/6/4 22/9/4
f 17/8/5 24/11/5 23/10/5 18/5/5
f 16/13/3 13/14/3 14/15/3 15/16/3
f 10/17/2 11/18/2 12/19/2 9/20/2
f 9/20/5 14/15/5 13/14/5 10/17/5
f 15/16/4 12/19/4 11/18/4 16/13/4
f 11/18/6 10/17/6 7/2/6 8/1/6
f 10/17/7 13/14/7 6/3/7 7/2/7
f 16/13/8 11/18/8 8/1/8 5/4/8
f 13/14/9 16/13/9 5/4/9 6/3/9
f 4/21/7 2/22/7 24/11/7 17/8/7
f 17/8/6 20/7/6 3/23/6 4/21/6
f 1/24/8 3/23/8 20/7/8 21/12/8
f 2/22/9 1/24/9 21/12/9 24/11/9
f 27/25/6 26/26/6 40/27/6 37/28/6
f 30/29/9 31/30/9 35/31/9 34/32/9
f 32/33/6 29/34/6 33/35/6 36/36/6
f 29/34/8 25/37/8 39/38/8 33/35/8
f 9/20/10 12/19/10 28/39/10 25/37/10
f 30/29/11 26/26/11 22/9/11 19/6/11
f 14/15/11 9/20/11 25/37/11 29/34/11
f 26/26/10 27/25/10 23/10/10 22/9/10
f 27/25/12 31/30/12 18/5/12 23/10/12
f 12/19/12 15/16/12 32/33/12 28/39/12
f 31/30/13 30/29/13 19/6/13 18/5/13
f 15/16/13 14/15/13 29/34/13 32/33/13
f 34/32/1 35/31/1 36/36/1 33/35/1
f 35/31/1 37/28/1 38/40/1 36/36/1
f 40/27/1 34/32/1 33/35/1 39/38/1
f 37/28/1 40/27/1 39/38/1 38/40/1
f 26/26/7 30/29/7 34/32/7 40/27/7
f 28/39/7 32/33/7 36/36/7 38/40/7
f 31/30/8 27/25/8 37/28/8 35/31/8
f 25/37/9 28/39/9 38/40/9 39/38/9
f 2/41/14 4/42/14 3/43/14 1/44/14
