# Blender 5.0.0
# www.blender.org
mtllib orange.mtl
o orangepencil
v -0.010000 -0.000000 -0.040235
v -0.010000 -0.000000 0.185379
v -0.008660 0.005000 -0.040235
v -0.008660 0.005000 0.185379
v -0.005000 0.008660 -0.040235
v -0.005000 0.008660 0.185379
v 0.000000 0.010000 -0.040235
v 0.000000 0.010000 0.185379
v 0.005000 0.008660 -0.040235
v 0.005000 0.008660 0.185379
v 0.008660 0.005000 -0.040235
v 0.008660 0.005000 0.185379
v 0.010000 -0.000000 -0.040235
v 0.010000 -0.000000 0.185379
v 0.008660 -0.005000 -0.040235
v 0.008660 -0.005000 0.185379
v 0.005000 -0.008661 -0.040235
v 0.005000 -0.008661 0.185379
v 0.000000 -0.010000 -0.040235
v 0.000000 -0.010000 0.185379
v -0.005000 -0.008661 -0.040235
v -0.005000 -0.008661 0.185379
v -0.008660 -0.005000 -0.040235
v -0.008660 -0.005000 0.185379
v -0.010000 -0.000000 0.185379
v -0.008660 0.005000 0.185379
v -0.005000 0.008660 0.185379
v 0.000000 0.010000 0.185379
v 0.005000 0.008660 0.185379
v 0.008660 0.005000 0.185379
v 0.010000 -0.000000 0.185379
v 0.008660 -0.005000 0.185379
v 0.005000 -0.008661 0.185379
v 0.000000 -0.010000 0.185379
v -0.005000 -0.008661 0.185379
v -0.008660 -0.005000 0.185379
v 0.000000 -0.000000 0.209765
v 0.004330 0.002500 0.197572
v 0.000000 0.005000 0.197572
v 0.004330 -0.002500 0.197572
v 0.000000 -0.005000 0.197572
v -0.004330 -0.002500 0.197572
v -0.004330 0.002500 0.197572
v -0.003247 -0.000000 0.201848
v -0.005736 0.003311 0.193614
v 0.001623 -0.002812 0.201848
v 0.001623 0.002811 0.201848
v 0.005736 0.003311 0.193614
v -0.001623 0.002811 0.201848
v 0.000000 -0.006624 0.193614
v 0.003247 -0.000000 0.201848
v 0.000000 0.006623 0.193614
v -0.001623 -0.002812 0.201848
v 0.005736 -0.003312 0.193614
v -0.005736 -0.003312 0.193614
v 0.000000 0.004559 -0.040235
v -0.001057 0.004521 -0.040235
v -0.002048 0.004411 -0.040235
v -0.002969 0.004231 -0.040235
v -0.003814 0.003984 -0.040235
v -0.004579 0.003675 -0.040235
v -0.005258 0.003305 -0.040235
v -0.005847 0.002878 -0.040235
v -0.006340 0.002397 -0.040235
v -0.006732 0.001866 -0.040235
v -0.007018 0.001287 -0.040235
v -0.007193 0.000664 -0.040235
v -0.007253 -0.000000 -0.040235
v -0.007193 -0.000665 -0.040235
v -0.007018 -0.001288 -0.040235
v -0.006732 -0.001867 -0.040235
v -0.006340 -0.002398 -0.040235
v -0.005847 -0.002879 -0.040235
v -0.005258 -0.003306 -0.040235
v -0.004579 -0.003675 -0.040235
v -0.003814 -0.003985 -0.040235
v -0.002969 -0.004232 -0.040235
v -0.002048 -0.004412 -0.040235
v -0.001057 -0.004522 -0.040235
v 0.000000 -0.004559 -0.040235
v 0.001057 -0.004522 -0.040235
v 0.002048 -0.004412 -0.040235
v 0.002969 -0.004232 -0.040235
v 0.003814 -0.003985 -0.040235
v 0.004579 -0.003675 -0.040235
v 0.005258 -0.003306 -0.040235
v 0.005847 -0.002879 -0.040235
v 0.006340 -0.002398 -0.040235
v 0.006732 -0.001867 -0.040235
v 0.007018 -0.001288 -0.040235
v 0.007193 -0.000665 -0.040235
v 0.007253 -0.000000 -0.040235
v 0.007193 0.000664 -0.040235
v 0.007018 0.001287 -0.040235
v 0.006732 0.001866 -0.040235
v 0.006340 0.002397 -0.040235
v 0.005847 0.002878 -0.040235
v 0.005258 0.003305 -0.040235
v 0.004579 0.003675 -0.040235
v 0.003814 0.003984 -0.040235
v 0.002969 0.004231 -0.040235
v 0.002048 0.004411 -0.040235
v 0.001057 0.004521 -0.040235
v 0.000000 0.002528 -0.040235
v 0.000801 0.002508 -0.040235
v 0.001546 0.002450 -0.040235
v 0.002231 0.002354 -0.040235
v 0.002854 0.002222 -0.040235
v 0.003413 0.002055 -0.040235
v 0.003906 0.001854 -0.040235
v 0.004330 0.001621 -0.040235
v 0.004682 0.001355 -0.040235
v 0.004960 0.001059 -0.040235
v 0.005161 0.000734 -0.040235
v 0.005284 0.000380 -0.040235
v 0.005326 -0.000000 -0.040235
v 0.005284 -0.000381 -0.040235
v 0.005161 -0.000734 -0.040235
v 0.004960 -0.001060 -0.040235
v 0.004682 -0.001356 -0.040235
v 0.004330 -0.001621 -0.040235
v 0.003906 -0.001855 -0.040235
v 0.003413 -0.002056 -0.040235
v 0.002854 -0.002223 -0.040235
v 0.002231 -0.002355 -0.040235
v 0.001546 -0.002451 -0.040235
v 0.000801 -0.002509 -0.040235
v 0.000000 -0.002528 -0.040235
v -0.000801 -0.002509 -0.040235
v -0.001546 -0.002451 -0.040235
v -0.002231 -0.002355 -0.040235
v -0.002854 -0.002223 -0.040235
v -0.003414 -0.002056 -0.040235
v -0.003906 -0.001855 -0.040235
v -0.004330 -0.001621 -0.040235
v -0.004682 -0.001356 -0.040235
v -0.004960 -0.001060 -0.040235
v -0.005162 -0.000734 -0.040235
v -0.005284 -0.000381 -0.040235
v -0.005326 -0.000000 -0.040235
v -0.005284 0.000380 -0.040235
v -0.005162 0.000734 -0.040235
v -0.004960 0.001059 -0.040235
v -0.004682 0.001355 -0.040235
v -0.004330 0.001621 -0.040235
v -0.003906 0.001854 -0.040235
v -0.003414 0.002055 -0.040235
v -0.002854 0.002222 -0.040235
v -0.002231 0.002354 -0.040235
v -0.001546 0.002450 -0.040235
v -0.000801 0.002508 -0.040235
v -0.007253 -0.000000 -0.040334
v -0.007193 -0.000665 -0.040334
v -0.007193 0.000664 -0.040334
v -0.007018 0.001287 -0.040334
v -0.007018 -0.001288 -0.040334
v -0.006732 0.001866 -0.040334
v -0.006732 -0.001867 -0.040334
v -0.006340 0.002397 -0.040334
v -0.006340 -0.002398 -0.040334
v -0.005847 0.002878 -0.040334
v -0.005847 -0.002879 -0.040334
v -0.005258 0.003305 -0.040334
v -0.005258 -0.003306 -0.040334
v -0.005326 -0.000000 -0.040334
v -0.005284 -0.000381 -0.040334
v -0.005284 0.000380 -0.040334
v -0.005162 0.000734 -0.040334
v -0.005162 -0.000734 -0.040334
v -0.004579 0.003675 -0.040334
v -0.004579 -0.003675 -0.040334
v -0.004960 0.001059 -0.040334
v -0.004960 -0.001060 -0.040334
v -0.004682 0.001355 -0.040334
v -0.004682 -0.001356 -0.040334
v -0.004330 0.001621 -0.040334
v -0.004330 -0.001621 -0.040334
v -0.003814 0.003984 -0.040334
v -0.003814 -0.003985 -0.040334
v -0.003906 0.001854 -0.040334
v -0.003906 -0.001855 -0.040334
v -0.003414 0.002055 -0.040334
v -0.003414 -0.002056 -0.040334
v -0.002969 -0.004232 -0.040334
v -0.002969 0.004231 -0.040334
v -0.002854 0.002222 -0.040334
v -0.002854 -0.002223 -0.040334
v -0.002048 -0.004412 -0.040334
v -0.002048 0.004411 -0.040334
v -0.002231 0.002354 -0.040334
v -0.002231 -0.002355 -0.040334
v -0.001546 0.002450 -0.040334
v -0.001546 -0.002451 -0.040334
v -0.001057 -0.004522 -0.040334
v -0.001057 0.004521 -0.040334
v -0.000801 0.002508 -0.040334
v -0.000801 -0.002509 -0.040334
v 0.000000 -0.004559 -0.040334
v 0.000000 0.004559 -0.040334
v 0.000000 0.002528 -0.040334
v 0.000000 -0.002528 -0.040334
v 0.001057 -0.004522 -0.040334
v 0.000801 -0.002509 -0.040334
v 0.000801 0.002508 -0.040334
v 0.001057 0.004521 -0.040334
v 0.001546 -0.002451 -0.040334
v 0.001546 0.002450 -0.040334
v 0.002048 -0.004412 -0.040334
v 0.002048 0.004411 -0.040334
v 0.002231 -0.002355 -0.040334
v 0.002231 0.002354 -0.040334
v 0.002969 -0.004232 -0.040334
v 0.002969 0.004231 -0.040334
v 0.002854 -0.002223 -0.040334
v 0.002854 0.002222 -0.040334
v 0.003413 -0.002056 -0.040334
v 0.003413 0.002055 -0.040334
v 0.003814 -0.003985 -0.040334
v 0.003814 0.003984 -0.040334
v 0.003906 -0.001855 -0.040334
v 0.003906 0.001854 -0.040334
v 0.004579 -0.003675 -0.040334
v 0.004579 0.003675 -0.040334
v 0.004330 -0.001621 -0.040334
v 0.004330 0.001621 -0.040334
v 0.004682 -0.001356 -0.040334
v 0.004682 0.001355 -0.040334
v 0.005258 -0.003306 -0.040334
v 0.005258 0.003305 -0.040334
v 0.004960 -0.001060 -0.040334
v 0.004960 0.001059 -0.040334
v 0.005161 -0.000734 -0.040334
v 0.005161 0.000734 -0.040334
v 0.005284 -0.000381 -0.040334
v 0.005284 0.000380 -0.040334
v 0.005847 -0.002879 -0.040334
v 0.005847 0.002878 -0.040334
v 0.005326 -0.000000 -0.040334
v 0.006340 -0.002398 -0.040334
v 0.006340 0.002397 -0.040334
v 0.006732 -0.001867 -0.040334
v 0.006732 0.001866 -0.040334
v 0.007018 -0.001288 -0.040334
v 0.007018 0.001287 -0.040334
v 0.007193 -0.000665 -0.040334
v 0.007193 0.000664 -0.040334
v 0.007253 -0.000000 -0.040334
vn -0.9659 0.2588 -0.0000
vn -0.7071 0.7071 -0.0000
vn -0.2588 0.9659 -0.0000
vn 0.2588 0.9659 -0.0000
vn 0.7071 0.7071 -0.0000
vn 0.9659 0.2588 -0.0000
vn 0.9659 -0.2588 -0.0000
vn 0.7071 -0.7071 -0.0000
vn 0.2588 -0.9659 -0.0000
vn -0.2588 -0.9659 -0.0000
vn -0.0000 1.0000 -0.0000
vn -0.7071 -0.7071 -0.0000
vn -0.9659 -0.2588 -0.0000
vn -0.0000 -0.0000 -1.0000
vn -0.8980 0.2406 0.3683
vn 0.6574 -0.6574 0.3682
vn 0.6574 0.6575 0.3682
vn -0.8980 -0.2406 0.3683
vn -0.6574 0.6575 0.3682
vn 0.2405 -0.8981 0.3682
vn 0.8980 0.2407 0.3683
vn -0.2406 0.8981 0.3682
vn -0.2405 -0.8981 0.3681
vn 0.8980 -0.2407 0.3683
vn 0.2406 0.8981 0.3682
vn -0.6575 -0.6574 0.3682
vn -0.6574 -0.6574 0.3682
vn 0.2406 0.8980 0.3683
vn 0.8980 -0.2406 0.3683
vn -0.2406 -0.8980 0.3683
vn -0.2406 0.8980 0.3683
vn 0.8980 0.2406 0.3683
vn 0.2406 -0.8981 0.3682
vn -0.6574 0.6574 0.3683
vn -0.8980 -0.2407 0.3682
vn 0.6574 0.6574 0.3683
vn 0.6574 -0.6574 0.3683
vn -0.8980 0.2407 0.3682
vn -0.0000 -0.0000 1.0000
vn -0.0000 0.0001 1.0000
vn -0.0000 -0.0003 1.0000
vn -0.0000 0.0005 1.0000
vn -0.0000 -0.0005 1.0000
vn -0.0000 0.0003 1.0000
vn -0.0000 0.0002 1.0000
vn -0.0000 0.0006 1.0000
vn -0.0000 0.0004 1.0000
vn -0.0000 -0.0007 1.0000
vn -0.0000 -0.0002 1.0000
vn -0.0000 0.0002 -1.0000
vn -0.0000 -0.0003 -1.0000
vn -0.0000 0.0012 -1.0000
vn -0.0000 -0.0006 -1.0000
vn -0.0000 0.0006 -1.0000
vn -0.0000 -0.0005 -1.0000
vn -0.0000 0.0005 -1.0000
vn -0.0000 -0.0001 -1.0000
vn -0.0000 0.0003 -1.0000
vn -0.0000 -0.0002 -1.0000
vn -0.0000 -0.0004 -1.0000
vn -0.0000 0.0004 -1.0000
vn 0.2798 0.9601 -0.0000
vn -0.0780 0.9970 -0.0000
vn 0.1384 0.9904 -0.0000
vn 0.8964 0.4432 -0.0000
vn -0.8495 -0.5277 -0.0000
vn -0.9960 0.0893 -0.0000
vn -0.0780 -0.9970 -0.0000
vn -0.1106 -0.9939 -0.0000
vn 0.9624 -0.2715 -0.0000
vn 0.9447 -0.3278 -0.0000
vn -0.3777 0.9259 -0.0000
vn 0.4838 0.8752 -0.0000
vn -0.3777 -0.9259 -0.0000
vn -0.9624 0.2715 -0.0000
vn 0.1106 -0.9939 -0.0000
vn 0.3777 -0.9259 -0.0000
vn -0.9447 0.3278 -0.0000
vn -0.9624 -0.2715 -0.0000
vn -0.1106 0.9939 -0.0000
vn 0.9624 0.2715 -0.0000
vn -0.9447 -0.3278 -0.0000
vn 0.9447 0.3278 -0.0000
vn 0.3767 -0.9263 -0.0000
vn 0.0780 -0.9970 -0.0000
vn 0.9960 -0.0893 -0.0000
vn 0.1106 0.9939 -0.0000
vn 0.9960 0.0893 -0.0000
vn 0.3777 0.9259 -0.0000
vn 0.5869 -0.8096 -0.0000
vn -0.4779 0.8784 -0.0000
vn -0.8964 0.4432 -0.0000
vn -0.2796 -0.9601 -0.0000
vn -0.4780 -0.8783 -0.0000
vn 0.3767 0.9263 -0.0000
vn -0.8964 -0.4432 -0.0000
vn -0.1384 0.9904 -0.0000
vn 0.0780 0.9970 -0.0000
vn -0.1384 -0.9904 -0.0000
vn -0.0354 -0.9994 -0.0000
vn 0.5869 0.8096 -0.0000
vn 0.8495 -0.5277 -0.0000
vn -0.4838 0.8752 -0.0000
vn -0.2798 0.9601 -0.0000
vn -0.4838 -0.8752 -0.0000
vn -0.8060 0.5919 -0.0000
vn 0.1920 -0.9814 -0.0000
vn 0.2864 -0.9581 -0.0000
vn -0.9941 0.1083 -0.0000
vn -0.8060 -0.5919 -0.0000
vn -0.0354 0.9994 -0.0000
vn -0.9941 -0.1083 -0.0000
vn 0.8495 0.5277 -0.0000
vn 0.0247 -0.9997 -0.0000
vn 0.7289 -0.6846 -0.0000
vn -0.6025 0.7981 -0.0000
vn 0.1920 0.9814 -0.0000
vn 0.2864 0.9581 -0.0000
vn -0.6025 -0.7981 -0.0000
vn -0.6981 0.7160 -0.0000
vn -0.1920 -0.9814 -0.0000
vn 0.6981 -0.7160 -0.0000
vn -0.6981 -0.7160 -0.0000
vn -0.2078 0.9782 -0.0000
vn 0.0247 0.9997 -0.0000
vn 0.7289 0.6846 -0.0000
vn 0.4780 -0.8783 -0.0000
vn -0.2078 -0.9782 -0.0000
vn 0.0354 -0.9994 -0.0000
vn 0.6013 -0.7990 -0.0000
vn -0.1920 0.9814 -0.0000
vn 0.6981 0.7160 -0.0000
vn -0.5869 0.8096 -0.0000
vn 0.2078 -0.9782 -0.0000
vn 0.8060 -0.5919 -0.0000
vn 0.4779 0.8784 -0.0000
vn -0.5869 -0.8096 -0.0000
vn -0.2864 0.9581 -0.0000
vn -0.0247 0.9997 -0.0000
vn 0.6013 0.7990 -0.0000
vn -0.2864 -0.9581 -0.0000
vn -0.0247 -0.9997 -0.0000
vn -0.7289 0.6846 -0.0000
vn 0.2078 0.9782 -0.0000
vn 0.8060 0.5919 -0.0000
vn -0.3767 0.9263 -0.0000
vn -0.7289 -0.6846 -0.0000
vn 0.2796 -0.9601 -0.0000
vn 0.1384 -0.9904 -0.0000
vn 0.8964 -0.4432 -0.0000
vn -0.3767 -0.9263 -0.0000
vn 0.0354 0.9994 -0.0000
vn 0.9941 0.1083 -0.0000
vn -0.9960 -0.0893 -0.0000
vn 0.4838 -0.8752 -0.0000
vn -0.8495 0.5277 -0.0000
vn 0.9941 -0.1083 -0.0000
vt 1.000000 0.500000
vt 1.000000 1.000000
vt 0.916667 1.000000
vt 0.916667 0.500000
vt 0.833333 1.000000
vt 0.833333 0.500000
vt 0.750000 1.000000
vt 0.750000 0.500000
vt 0.666667 1.000000
vt 0.666667 0.500000
vt 0.583333 1.000000
vt 0.583333 0.500000
vt 0.500000 1.000000
vt 0.500000 0.500000
vt 0.416667 1.000000
vt 0.416667 0.500000
vt 0.333333 1.000000
vt 0.333333 0.500000
vt 0.250000 1.000000
vt 0.250000 0.500000
vt 0.166667 1.000000
vt 0.166667 0.500000
vt 0.083333 1.000000
vt 0.083333 0.500000
vt 0.000000 1.000000
vt 0.000000 0.500000
vt 0.750000 0.490000
vt 0.870000 0.457846
vt 0.957846 0.370000
vt 0.990000 0.250000
vt 0.957846 0.130000
vt 0.870000 0.042154
vt 0.750000 0.010000
vt 0.630000 0.042154
vt 0.542154 0.130000
vt 0.510000 0.250000
vt 0.542154 0.370000
vt 0.630000 0.457846
vt 0.943723 1.000000
vt 0.388528 1.000000
vt 0.375000 1.000000
vt 0.583333 1.000000
vt 0.610390 1.000000
vt 0.055195 1.000000
vt 0.041667 1.000000
vt 0.888528 1.000000
vt 0.875000 1.000000
vt 0.277056 1.000000
vt 0.555195 1.000000
vt 0.541667 1.000000
vt 0.777056 1.000000
vt 0.221862 1.000000
vt 0.208333 1.000000
vt 0.443723 1.000000
vt 0.721862 1.000000
vt 0.708333 1.000000
vt 0.083333 1.000000
vt 0.110390 1.000000
vt 0.136842 0.000000
vt 0.115789 0.000000
vt 0.126316 0.000000
vt 0.105263 0.000000
vt 0.147368 0.000000
vt 0.094737 0.000000
vt 0.157895 0.000000
vt 0.084211 0.000000
vt 0.168421 0.000000
vt 0.073684 0.000000
vt 0.178947 0.000000
vt 0.063158 0.000000
vt 0.189474 0.000000
vt 0.884211 0.000000
vt 0.873684 0.000000
vt 0.894737 0.000000
vt 0.905263 0.000000
vt 0.863158 0.000000
vt 0.052632 0.000000
vt 0.200000 0.000000
vt 0.915789 0.000000
vt 0.852632 0.000000
vt 0.926316 0.000000
vt 0.842105 0.000000
vt 0.936842 0.000000
vt 0.831579 0.000000
vt 0.042105 0.000000
vt 0.210526 0.000000
vt 0.947368 0.000000
vt 0.821053 0.000000
vt 0.957895 0.000000
vt 0.810526 0.000000
vt 0.221053 0.000000
vt 0.031579 0.000000
vt 0.968421 0.000000
vt 0.800000 0.000000
vt 0.231579 0.000000
vt 0.021053 0.000000
vt 0.978947 0.000000
vt 0.789474 0.000000
vt 0.989474 0.000000
vt 0.778947 0.000000
vt 0.242105 0.000000
vt 0.010526 0.000000
vt 1.000000 0.000000
vt 0.768421 0.000000
vt 0.252632 0.000000
vt 0.000000 0.000000
vt 0.505263 0.000000
vt 0.757895 0.000000
vt 0.263158 0.000000
vt 0.747368 0.000000
vt 0.515789 0.000000
vt 0.494737 0.000000
vt 0.736842 0.000000
vt 0.526316 0.000000
vt 0.273684 0.000000
vt 0.484211 0.000000
vt 0.726316 0.000000
vt 0.536842 0.000000
vt 0.284211 0.000000
vt 0.473684 0.000000
vt 0.715789 0.000000
vt 0.547368 0.000000
vt 0.705263 0.000000
vt 0.557895 0.000000
vt 0.294737 0.000000
vt 0.463158 0.000000
vt 0.694737 0.000000
vt 0.568421 0.000000
vt 0.305263 0.000000
vt 0.452632 0.000000
vt 0.684211 0.000000
vt 0.578947 0.000000
vt 0.673684 0.000000
vt 0.589474 0.000000
vt 0.315789 0.000000
vt 0.442105 0.000000
vt 0.663158 0.000000
vt 0.600000 0.000000
vt 0.652632 0.000000
vt 0.610526 0.000000
vt 0.642105 0.000000
vt 0.621053 0.000000
vt 0.326316 0.000000
vt 0.431579 0.000000
vt 0.631579 0.000000
vt 0.336842 0.000000
vt 0.421053 0.000000
vt 0.347368 0.000000
vt 0.410526 0.000000
vt 0.357895 0.000000
vt 0.400000 0.000000
vt 0.368421 0.000000
vt 0.389474 0.000000
vt 0.378947 0.000000
s 0
usemtl middle.001
f 20/19/11 18/17/11 33/17/11 34/19/11
f 18/17/11 16/15/11 32/15/11 33/17/11
f 16/15/11 14/13/11 31/13/11 32/15/11
f 14/13/11 12/11/11 30/11/11 31/13/11
f 12/11/11 10/9/11 29/9/11 30/11/11
f 10/9/11 8/7/11 28/7/11 29/9/11
f 2/25/11 24/23/11 36/23/11 25/25/11
f 4/3/11 2/2/11 25/2/11 26/3/11
f 8/7/11 6/5/11 27/5/11 28/7/11
f 24/23/11 22/21/11 35/21/11 36/23/11
f 6/5/11 4/3/11 26/3/11 27/5/11
f 22/21/11 20/19/11 34/19/11 35/21/11
f 36/23/27 35/21/27 53/58/27 55/57/27
f 29/9/28 28/7/28 52/55/28 47/9/28
f 32/15/29 31/13/29 51/54/29 54/15/29
f 35/21/30 34/19/30 50/52/30 53/21/30
f 28/7/31 27/5/31 49/51/31 52/7/31
f 31/13/32 30/11/32 48/49/32 51/13/32
f 34/19/33 33/17/33 46/48/33 50/19/33
f 27/5/34 26/3/34 45/46/34 49/5/34
f 25/25/35 36/23/35 55/44/35 44/25/35
f 30/11/36 29/9/36 47/43/36 48/42/36
f 33/17/37 32/15/37 54/40/37 46/17/37
f 26/3/38 25/2/38 44/39/38 45/3/38
usemtl point.001
f 45/3/15 44/39/15 37/3/15 43/3/15
f 46/17/16 54/40/16 40/41/16 37/17/16
f 48/42/17 47/43/17 37/11/17 38/11/17
f 44/25/18 55/44/18 42/45/18 37/25/18
f 49/5/19 45/46/19 43/47/19 37/5/19
f 50/19/20 46/48/20 37/19/20 41/19/20
f 51/13/21 48/49/21 38/50/21 37/13/21
f 52/7/22 49/51/22 37/7/22 39/7/22
f 53/21/23 50/52/23 41/53/23 37/21/23
f 54/15/24 51/54/24 37/15/24 40/15/24
f 47/9/25 52/55/25 39/56/25 37/9/25
f 55/57/26 53/58/26 37/23/26 42/23/26
usemtl shaft.001
f 1/1/1 2/2/1 4/3/1 3/4/1
f 3/4/2 4/3/2 6/5/2 5/6/2
f 5/6/3 6/5/3 8/7/3 7/8/3
f 7/8/4 8/7/4 10/9/4 9/10/4
f 9/10/5 10/9/5 12/11/5 11/12/5
f 11/12/6 12/11/6 14/13/6 13/14/6
f 13/14/7 14/13/7 16/15/7 15/16/7
f 15/16/8 16/15/8 18/17/8 17/18/8
f 17/18/9 18/17/9 20/19/9 19/20/9
f 19/20/10 20/19/10 22/21/10 21/22/10
f 21/22/12 22/21/12 24/23/12 23/24/12
f 23/24/13 24/23/13 2/25/13 1/26/13
f 1/27/14 3/28/14 5/29/14 7/30/14 9/31/14 11/32/14 13/33/14 15/34/14 17/35/14 19/36/14 21/37/14 23/38/14
usemtl Material.001
f 69/59/39 67/60/39 68/61/39
f 69/59/39 66/62/39 67/60/39
f 70/63/39 66/62/39 69/59/39
f 70/63/39 65/64/39 66/62/39
f 71/65/39 65/64/39 70/63/39
f 71/65/39 64/66/39 65/64/39
f 72/67/39 64/66/39 71/65/39
f 72/67/39 63/68/39 64/66/39
f 73/69/39 63/68/39 72/67/39
f 73/69/39 62/70/39 63/68/39
f 74/71/39 140/72/39 73/69/39
f 140/72/39 62/70/39 73/69/39
f 74/71/39 139/73/39 140/72/39
f 141/74/39 62/70/39 140/72/39
f 142/75/39 62/70/39 141/74/39
f 74/71/39 138/76/39 139/73/39
f 142/75/39 61/77/39 62/70/39
f 75/78/39 138/76/39 74/71/39
f 143/79/39 61/77/39 142/75/39
f 75/78/39 137/80/39 138/76/39
f 144/81/39 61/77/39 143/79/39
f 75/78/39 136/82/39 137/80/39
f 145/83/40 61/77/40 144/81/40
f 75/78/39 135/84/39 136/82/39
f 145/83/39 60/85/39 61/77/39
f 76/86/41 135/84/41 75/78/41
f 146/87/39 60/85/39 145/83/39
f 76/86/39 134/88/39 135/84/39
f 147/89/42 60/85/42 146/87/42
f 76/86/43 133/90/43 134/88/43
f 77/91/39 133/90/39 76/86/39
f 147/89/39 59/92/39 60/85/39
f 148/93/39 59/92/39 147/89/39
f 77/91/39 132/94/39 133/90/39
f 78/95/39 132/94/39 77/91/39
f 148/93/39 58/96/39 59/92/39
f 149/97/39 58/96/39 148/93/39
f 78/95/39 131/98/39 132/94/39
f 150/99/44 58/96/44 149/97/44
f 78/95/41 130/100/41 131/98/41
f 79/101/39 130/100/39 78/95/39
f 150/99/39 57/102/39 58/96/39
f 151/103/41 57/102/41 150/99/41
f 79/101/39 129/104/39 130/100/39
f 80/105/45 129/104/45 79/101/45
f 151/103/39 56/106/39 57/102/39
f 104/107/39 56/106/39 151/103/39
f 80/105/39 128/108/39 129/104/39
f 81/109/39 128/108/39 80/105/39
f 81/109/46 127/110/46 128/108/46
f 105/111/39 56/106/39 104/107/39
f 105/111/39 103/112/39 56/106/39
f 81/109/39 126/113/39 127/110/39
f 106/114/39 103/112/39 105/111/39
f 82/115/39 126/113/39 81/109/39
f 106/114/39 102/116/39 103/112/39
f 82/115/39 125/117/39 126/113/39
f 107/118/39 102/116/39 106/114/39
f 83/119/41 125/117/41 82/115/41
f 107/118/39 101/120/39 102/116/39
f 83/119/47 124/121/47 125/117/47
f 108/122/48 101/120/48 107/118/48
f 83/119/39 123/123/39 124/121/39
f 109/124/40 101/120/40 108/122/40
f 84/125/41 123/123/41 83/119/41
f 109/124/42 100/126/42 101/120/42
f 84/125/39 122/127/39 123/123/39
f 110/128/39 100/126/39 109/124/39
f 85/129/49 122/127/49 84/125/49
f 110/128/39 99/130/39 100/126/39
f 85/129/39 121/131/39 122/127/39
f 111/132/39 99/130/39 110/128/39
f 85/129/44 120/133/44 121/131/44
f 112/134/39 99/130/39 111/132/39
f 86/135/40 120/133/40 85/129/40
f 112/134/39 98/136/39 99/130/39
f 86/135/39 119/137/39 120/133/39
f 113/138/39 98/136/39 112/134/39
f 86/135/39 118/139/39 119/137/39
f 114/140/39 98/136/39 113/138/39
f 86/135/39 117/141/39 118/139/39
f 115/142/39 98/136/39 114/140/39
f 87/143/39 117/141/39 86/135/39
f 115/142/39 97/144/39 98/136/39
f 87/143/45 116/145/45 117/141/45
f 116/145/39 97/144/39 115/142/39
f 87/143/39 97/144/39 116/145/39
f 88/146/39 97/144/39 87/143/39
f 88/146/39 96/147/39 97/144/39
f 89/148/39 96/147/39 88/146/39
f 89/148/39 95/149/39 96/147/39
f 90/150/39 95/149/39 89/148/39
f 90/150/39 94/151/39 95/149/39
f 91/152/39 94/151/39 90/150/39
f 91/152/39 93/153/39 94/151/39
f 92/154/39 93/153/39 91/152/39
f 153/59/14 152/61/14 154/60/14
f 153/59/14 154/60/14 155/62/14
f 156/63/14 153/59/14 155/62/14
f 156/63/14 155/62/14 157/64/14
f 158/65/14 156/63/14 157/64/14
f 158/65/14 157/64/14 159/66/14
f 160/67/14 158/65/14 159/66/14
f 160/67/14 159/66/14 161/68/14
f 162/69/14 160/67/14 161/68/14
f 162/69/14 161/68/14 163/70/14
f 164/71/14 162/69/14 165/72/14
f 165/72/14 162/69/14 163/70/14
f 164/71/14 165/72/14 166/73/14
f 167/74/14 165/72/14 163/70/14
f 168/75/50 167/74/50 163/70/50
f 164/71/51 166/73/51 169/76/51
f 168/75/51 163/70/51 170/77/51
f 171/78/50 164/71/50 169/76/50
f 172/79/52 168/75/52 170/77/52
f 171/78/53 169/76/53 173/80/53
f 174/81/14 172/79/14 170/77/14
f 171/78/14 173/80/14 175/82/14
f 176/83/14 174/81/14 170/77/14
f 171/78/14 175/82/14 177/84/14
f 176/83/54 170/77/54 178/85/54
f 179/86/51 171/78/51 177/84/51
f 180/87/55 176/83/55 178/85/55
f 179/86/56 177/84/56 181/88/56
f 182/89/57 180/87/57 178/85/57
f 179/86/14 181/88/14 183/90/14
f 184/91/58 179/86/58 183/90/58
f 182/89/14 178/85/14 185/92/14
f 186/93/14 182/89/14 185/92/14
f 184/91/14 183/90/14 187/94/14
f 188/95/50 184/91/50 187/94/50
f 186/93/14 185/92/14 189/96/14
f 190/97/14 186/93/14 189/96/14
f 188/95/14 187/94/14 191/98/14
f 192/99/51 190/97/51 189/96/51
f 188/95/58 191/98/58 193/100/58
f 194/101/59 188/95/59 193/100/59
f 192/99/56 189/96/56 195/102/56
f 196/103/14 192/99/14 195/102/14
f 194/101/14 193/100/14 197/104/14
f 198/105/57 194/101/57 197/104/57
f 196/103/14 195/102/14 199/106/14
f 200/107/14 196/103/14 199/106/14
f 198/105/14 197/104/14 201/108/14
f 202/109/14 198/105/14 201/108/14
f 202/109/14 201/108/14 203/110/14
f 204/111/14 200/107/14 199/106/14
f 204/111/14 199/106/14 205/112/14
f 202/109/14 203/110/14 206/113/14
f 207/114/59 204/111/59 205/112/59
f 208/115/14 202/109/14 206/113/14
f 207/114/14 205/112/14 209/116/14
f 208/115/14 206/113/14 210/117/14
f 211/118/14 207/114/14 209/116/14
f 212/119/58 208/115/58 210/117/58
f 211/118/55 209/116/55 213/120/55
f 212/119/60 210/117/60 214/121/60
f 215/122/14 211/118/14 213/120/14
f 212/119/14 214/121/14 216/123/14
f 217/124/59 215/122/59 213/120/59
f 218/125/58 212/119/58 216/123/58
f 217/124/14 213/120/14 219/126/14
f 218/125/14 216/123/14 220/127/14
f 221/128/14 217/124/14 219/126/14
f 222/129/57 218/125/57 220/127/57
f 221/128/14 219/126/14 223/130/14
f 222/129/14 220/127/14 224/131/14
f 225/132/14 221/128/14 223/130/14
f 222/129/14 224/131/14 226/133/14
f 227/134/14 225/132/14 223/130/14
f 228/135/14 222/129/14 226/133/14
f 227/134/14 223/130/14 229/136/14
f 228/135/14 226/133/14 230/137/14
f 231/138/14 227/134/14 229/136/14
f 228/135/61 230/137/61 232/139/61
f 233/140/14 231/138/14 229/136/14
f 228/135/14 232/139/14 234/141/14
f 235/142/14 233/140/14 229/136/14
f 236/143/14 228/135/14 234/141/14
f 235/142/14 229/136/14 237/144/14
f 236/143/50 234/141/50 238/145/50
f 238/145/14 235/142/14 237/144/14
f 236/143/14 238/145/14 237/144/14
f 239/146/14 236/143/14 237/144/14
f 239/146/14 237/144/14 240/147/14
f 241/148/14 239/146/14 240/147/14
f 241/148/14 240/147/14 242/149/14
f 243/150/14 241/148/14 242/149/14
f 243/150/14 242/149/14 244/151/14
f 245/152/14 243/150/14 244/151/14
f 245/152/14 244/151/14 246/153/14
f 247/154/14 245/152/14 246/153/14
f 100/126/62 219/126/62 213/120/62 101/120/62
f 126/113/63 206/113/63 203/110/63 127/110/63
f 130/100/64 193/100/64 191/98/64 131/98/64
f 94/151/65 244/151/65 242/149/65 95/149/65
f 113/138/66 231/138/66 233/140/66 114/140/66
f 67/60/67 154/60/67 152/61/67 68/61/67
f 105/111/68 204/111/68 207/114/68 106/114/68
f 78/95/69 188/95/69 194/101/69 79/101/69
f 90/150/70 243/150/70 245/152/70 91/152/70
f 141/74/71 167/74/71 168/75/71 142/75/71
f 122/127/72 220/127/72 216/123/72 123/123/72
f 134/88/73 181/88/73 177/84/73 135/84/73
f 109/124/74 217/124/74 221/128/74 110/128/74
f 66/62/75 155/62/75 154/60/75 67/60/75
f 81/109/76 202/109/76 208/115/76 82/115/76
f 146/87/77 180/87/77 182/89/77 147/89/77
f 117/141/78 234/141/78 232/139/78 118/139/78
f 69/59/79 153/59/79 156/63/79 70/63/79
f 57/102/80 195/102/80 189/96/80 58/96/80
f 93/153/81 246/153/81 244/151/81 94/151/81
f 114/140/82 233/140/82 235/142/82 115/142/82
f 138/76/83 169/76/83 166/73/83 139/73/83
f 84/125/84 218/125/84 222/129/84 85/129/84
f 150/99/85 192/99/85 196/103/85 151/103/85
f 91/152/86 245/152/86 247/154/86 92/154/86
f 102/116/87 209/116/87 205/112/87 103/112/87
f 92/154/88 247/154/88 246/153/88 93/153/88
f 133/90/89 183/90/89 181/88/89 134/88/89
f 86/135/90 228/135/90 236/143/90 87/143/90
f 61/77/91 170/77/91 163/70/91 62/70/91
f 65/64/92 157/64/92 155/62/92 66/62/92
f 76/86/93 179/86/93 184/91/93 77/91/93
f 74/71/94 164/71/94 171/78/94 75/78/94
f 99/130/95 223/130/95 219/126/95 100/126/95
f 70/63/96 156/63/96 158/65/96 71/65/96
f 125/117/97 210/117/97 206/113/97 126/113/97
f 129/104/98 197/104/98 193/100/98 130/100/98
f 106/114/99 207/114/99 211/118/99 107/118/99
f 79/101/100 194/101/100 198/105/100 80/105/100
f 97/144/101 237/144/101 229/136/101 98/136/101
f 142/75/102 168/75/102 172/79/102 143/79/102
f 121/131/103 224/131/103 220/127/103 122/127/103
f 59/92/104 185/92/104 178/85/104 60/85/104
f 110/128/105 221/128/105 225/132/105 111/132/105
f 64/66/106 159/66/106 157/64/106 65/64/106
f 82/115/107 208/115/107 212/119/107 83/119/107
f 147/89/108 182/89/108 186/93/108 148/93/108
f 116/145/109 238/145/109 234/141/109 117/141/109
f 71/65/110 158/65/110 160/67/110 72/67/110
f 56/106/111 199/106/111 195/102/111 57/102/111
f 115/142/112 235/142/112 238/145/112 116/145/112
f 137/80/113 173/80/113 169/76/113 138/76/113
f 151/103/114 196/103/114 200/107/114 104/107/114
f 143/79/115 172/79/115 174/81/115 144/81/115
f 120/133/116 226/133/116 224/131/116 121/131/116
f 101/120/117 213/120/117 209/116/117 102/116/117
f 132/94/118 187/94/118 183/90/118 133/90/118
f 111/132/119 225/132/119 227/134/119 112/134/119
f 63/68/120 161/68/120 159/66/120 64/66/120
f 77/91/121 184/91/121 188/95/121 78/95/121
f 87/143/122 236/143/122 239/146/122 88/146/122
f 72/67/123 160/67/123 162/69/123 73/69/123
f 124/121/124 214/121/124 210/117/124 125/117/124
f 128/108/125 201/108/125 197/104/125 129/104/125
f 136/82/126 175/82/126 173/80/126 137/80/126
f 85/129/127 222/129/127 228/135/127 86/135/127
f 107/118/128 211/118/128 215/122/128 108/122/128
f 80/105/129 198/105/129 202/109/129 81/109/129
f 144/81/130 174/81/130 176/83/130 145/83/130
f 58/96/131 189/96/131 185/92/131 59/92/131
f 96/147/132 240/147/132 237/144/132 97/144/132
f 62/70/133 163/70/133 161/68/133 63/68/133
f 148/93/134 186/93/134 190/97/134 149/97/134
f 88/146/135 239/146/135 241/148/135 89/148/135
f 98/136/136 229/136/136 223/130/136 99/130/136
f 73/69/137 162/69/137 164/71/137 74/71/137
f 123/123/138 216/123/138 214/121/138 124/121/138
f 127/110/139 203/110/139 201/108/139 128/108/139
f 135/84/140 177/84/140 175/82/140 136/82/140
f 108/122/141 215/122/141 217/124/141 109/124/141
f 104/107/142 200/107/142 204/111/142 105/111/142
f 119/137/143 230/137/143 226/133/143 120/133/143
f 131/98/144 191/98/144 187/94/144 132/94/144
f 95/149/145 242/149/145 240/147/145 96/147/145
f 60/85/146 178/85/146 170/77/146 61/77/146
f 112/134/147 227/134/147 231/138/147 113/138/147
f 83/119/148 212/119/148 218/125/148 84/125/148
f 149/97/149 190/97/149 192/99/149 150/99/149
f 89/148/150 241/148/150 243/150/150 90/150/150
f 75/78/151 171/78/151 179/86/151 76/86/151
f 103/112/152 205/112/152 199/106/152 56/106/152
f 139/73/153 166/73/153 165/72/153 140/72/153
f 68/61/154 152/61/154 153/59/154 69/59/154
f 145/83/155 176/83/155 180/87/155 146/87/155
f 118/139/156 232/139/156 230/137/156 119/137/156
f 140/72/157 165/72/157 167/74/157 141/74/157
