# Blender 5.0.1
# www.blender.org
mtllib Painting.mtl
o Cube
v 0.300000 0.200000 -0.010000
v 0.300000 -0.200000 -0.010000
v -0.300000 0.200000 -0.010000
v -0.300000 -0.200000 -0.010000
v -0.240000 -0.160000 -0.008000
v -0.240000 0.160000 -0.008000
v 0.240000 0.160000 -0.008000
v 0.240000 -0.160000 -0.008000
v 0.246527 0.164351 0.004000
v 0.240000 0.160000 -0.001657
v 0.240000 -0.160000 -0.001657
v 0.246527 -0.164351 0.004000
v -0.240000 0.160000 -0.001657
v -0.246527 0.164351 0.004000
v -0.246527 -0.164351 0.004000
v -0.240000 -0.160000 -0.001657
v -0.300000 -0.200000 0.010343
v -0.293473 -0.195649 0.016000
v -0.293473 0.195649 0.016000
v -0.300000 0.200000 0.010343
v 0.300000 0.200000 0.010343
v 0.293473 0.195649 0.016000
v 0.293473 -0.195649 0.016000
v 0.300000 -0.200000 0.010343
v 0.267692 0.178462 0.010000
v 0.272308 0.181538 0.010000
v 0.272308 -0.181538 0.010000
v 0.267692 -0.178462 0.010000
v -0.267692 0.178462 0.010000
v -0.272308 0.181538 0.010000
v -0.272308 -0.181538 0.010000
v -0.267692 -0.178462 0.010000
v -0.267692 0.178462 0.006000
v -0.272308 0.181538 0.006000
v -0.272308 -0.181538 0.006000
v -0.267692 -0.178462 0.006000
v 0.272308 -0.181538 0.006000
v 0.267692 -0.178462 0.006000
v 0.267692 0.178462 0.006000
v 0.272308 0.181538 0.006000
vn -0.0000 -0.0000 -1.0000
vn -0.0000 -0.0000 1.0000
vn -0.6549 -0.0000 0.7557
vn 0.6549 -0.0000 0.7557
vn -0.0000 0.7926 0.6097
vn -0.0000 -0.7926 0.6097
vn -1.0000 -0.0000 -0.0000
vn -0.0000 -1.0000 -0.0000
vn -0.0000 1.0000 -0.0000
vn 1.0000 -0.0000 -0.0000
vn -0.2727 -0.0000 0.9621
vn -0.0000 -0.3913 0.9203
vn -0.0000 0.3913 0.9203
vn 0.2727 -0.0000 0.9621
vt -0.500000 -0.500000
vt -0.500000 1.500000
vt 1.500000 1.500000
vt 1.500000 -0.500000
vt 1.000000 1.000000
vt -0.000000 1.000000
vt 0.000000 0.000000
vt 1.000000 0.000000
vt -0.483682 -0.483682
vt -0.485495 1.478243
vt 0.065685 1.500000
vt -0.217157 -0.217157
vt -0.500000 1.478243
vt -0.500000 -0.478243
vt 0.065685 -0.500000
vt 0.065686 1.500000
vt 1.500000 0.065685
vt -0.500000 0.065686
vt -0.478243 -0.500000
vt 1.478243 -0.500000
vt 1.500000 0.065686
vt 1.478243 -0.485495
vt -0.300000 -0.300000
vt -0.300000 1.300000
vt -0.321757 1.321757
vt -0.321757 -0.321757
vt 1.300000 1.300000
vt 1.300000 -0.300000
vt 1.321757 -0.321757
vt 1.321757 1.321757
vt 1.300000 -0.500000
vt -0.300000 -0.500000
vt -0.300000 0.065685
vt 1.300000 0.065685
vt 0.065685 -0.300000
vt 0.065685 1.300000
vt -0.300000 0.065685
vt 1.300000 0.065685
vt 0.065685 1.300000
vt 0.065685 -0.300000
vt 1.407692 -0.411675
vt 1.407692 1.407692
vt -0.411675 1.407692
vt -0.410679 -0.410679
vt -0.394760 -0.394760
vt -0.395577 1.392308
vt 1.392308 1.392308
vt 1.392308 -0.395577
vt 1.478243 1.478243
s 0
usemtl Frame
f 4/1/1 3/2/1 1/3/1 2/4/1
f 18/9/3 19/10/3 20/11/3 17/12/3
f 22/13/4 23/14/4 24/15/4 21/16/4
f 21/17/5 20/18/5 19/19/5 22/20/5
f 17/12/6 24/21/6 23/22/6 18/9/6
f 16/23/4 13/24/4 14/25/4 15/26/4
f 10/27/3 11/28/3 12/29/3 9/30/3
f 9/31/6 14/32/6 13/33/6 10/34/6
f 15/26/5 12/29/5 11/28/5 16/23/5
f 11/35/7 10/36/7 7/27/7 8/28/7
f 10/34/8 13/33/8 6/24/8 7/27/8
f 16/37/9 11/38/9 8/27/9 5/24/9
f 13/39/10 16/40/10 5/28/10 6/27/10
f 4/2/8 2/3/8 24/21/8 17/12/8
f 17/12/7 20/11/7 3/3/7 4/4/7
f 1/3/9 3/2/9 20/18/9 21/17/9
f 2/4/10 1/3/10 21/16/10 24/15/10
f 27/41/7 26/42/7 40/42/7 37/41/7
f 30/43/10 31/44/10 35/44/10 34/43/10
f 32/45/7 29/46/7 33/46/7 36/45/7
f 29/46/9 25/47/9 39/47/9 33/46/9
f 9/30/11 12/29/11 28/48/11 25/47/11
f 30/43/12 26/42/12 22/49/12 19/10/12
f 14/25/12 9/30/12 25/47/12 29/46/12
f 26/42/11 27/41/11 23/22/11 22/49/11
f 27/41/13 31/44/13 18/9/13 23/22/13
f 12/29/13 15/26/13 32/45/13 28/48/13
f 31/44/14 30/43/14 19/10/14 18/9/14
f 15/26/14 14/25/14 29/46/14 32/45/14
f 34/43/2 35/44/2 36/45/2 33/46/2
f 35/44/2 37/41/2 38/48/2 36/45/2
f 40/42/2 34/43/2 33/46/2 39/47/2
f 37/41/2 40/42/2 39/47/2 38/48/2
f 26/42/8 30/43/8 34/43/8 40/42/8
f 28/48/8 32/45/8 36/45/8 38/48/8
f 31/44/9 27/41/9 37/41/9 35/44/9
f 25/47/10 28/48/10 38/48/10 39/47/10
usemtl Picture
f 8/5/2 7/6/2 6/7/2 5/8/2
