# Blender 5.0.1
# www.blender.org
mtllib Palette.mtl
o Palette
v 3.327563 0.010843 -0.978893
v 3.327563 0.024230 -0.978893
v 3.332984 0.010843 -0.978310
v 3.332984 0.024230 -0.978310
v 3.338197 0.010843 -0.976583
v 3.338197 0.024230 -0.976583
v 3.343001 0.010843 -0.973779
v 3.343001 0.024230 -0.973779
v 3.347212 0.010843 -0.970004
v 3.347212 0.024230 -0.970004
v 3.350667 0.010843 -0.965406
v 3.350667 0.024230 -0.965406
v 3.353235 0.010843 -0.960159
v 3.353235 0.024230 -0.960159
v 3.354817 0.010843 -0.954466
v 3.354817 0.024230 -0.954466
v 3.355350 0.010843 -0.948545
v 3.355350 0.024230 -0.948545
v 3.354817 0.010843 -0.942625
v 3.354817 0.024230 -0.942625
v 3.353235 0.010843 -0.936932
v 3.353235 0.024230 -0.936932
v 3.350667 0.010843 -0.931685
v 3.350667 0.024230 -0.931685
v 3.347212 0.010843 -0.927086
v 3.347212 0.024230 -0.927086
v 3.343001 0.010843 -0.923312
v 3.343001 0.024230 -0.923312
v 3.338197 0.010843 -0.920508
v 3.338197 0.024230 -0.920508
v 3.332984 0.010843 -0.918781
v 3.332984 0.024230 -0.918781
v 3.327563 0.010843 -0.918198
v 3.327563 0.024230 -0.918198
v 3.322142 0.010843 -0.918781
v 3.322142 0.024230 -0.918781
v 3.316929 0.010843 -0.920508
v 3.316929 0.024230 -0.920508
v 3.312125 0.010843 -0.923312
v 3.312125 0.024230 -0.923312
v 3.307914 0.010843 -0.927086
v 3.307914 0.024230 -0.927086
v 3.304458 0.010843 -0.931685
v 3.304458 0.024230 -0.931685
v 3.301891 0.010843 -0.936932
v 3.301891 0.024230 -0.936932
v 3.300309 0.010843 -0.942625
v 3.300309 0.024230 -0.942625
v 3.299775 0.010843 -0.948545
v 3.299775 0.024230 -0.948545
v 3.300309 0.010843 -0.954466
v 3.300309 0.024230 -0.954466
v 3.301891 0.010843 -0.960159
v 3.301891 0.024230 -0.960159
v 3.304459 0.010843 -0.965406
v 3.304459 0.024230 -0.965406
v 3.307914 0.010843 -0.970004
v 3.307914 0.024230 -0.970004
v 3.312125 0.010843 -0.973779
v 3.312125 0.024230 -0.973779
v 3.316929 0.010843 -0.976583
v 3.316929 0.024230 -0.976583
v 3.322142 0.010843 -0.978310
v 3.322142 0.024230 -0.978310
v 3.296324 0.015565 -0.999365
v 3.296324 0.000896 -0.999365
v 3.323673 0.015565 -0.996792
v 3.323673 0.000896 -0.996792
v 3.356308 0.015565 -0.991274
v 3.356308 0.000896 -0.991274
v 3.375924 0.015565 -0.983135
v 3.375924 0.000896 -0.983135
v 3.389108 0.015565 -0.972664
v 3.389108 0.000896 -0.972664
v 3.395353 0.015565 -0.960264
v 3.395353 0.000896 -0.960264
v 3.394419 0.015565 -0.946412
v 3.394419 0.000896 -0.946412
v 3.386343 0.015565 -0.931640
v 3.386343 0.000896 -0.931640
v 3.371434 0.015565 -0.916515
v 3.371434 0.000896 -0.916515
v 3.350266 0.015565 -0.901619
v 3.350266 0.000896 -0.901619
v 3.323651 0.015565 -0.887524
v 3.323651 0.000896 -0.887524
v 3.292613 0.015565 -0.874772
v 3.292613 0.000896 -0.874772
v 3.258345 0.015565 -0.863853
v 3.258345 0.000896 -0.863853
v 3.222163 0.015565 -0.855187
v 3.222163 0.000896 -0.855187
v 3.185458 0.015565 -0.849106
v 3.185458 0.000896 -0.849106
v 3.149641 0.015565 -0.845845
v 3.149641 0.000896 -0.845845
v 3.116087 0.015565 -0.845528
v 3.116087 0.000896 -0.845528
v 3.086087 0.015565 -0.848168
v 3.086087 0.000896 -0.848168
v 3.064047 0.015562 -0.852305
v 3.064047 0.000899 -0.852305
v 3.041176 0.015565 -0.861802
v 3.041176 0.000896 -0.861802
v 3.027992 0.015565 -0.872273
v 3.027992 0.000896 -0.872273
v 3.072681 0.015562 -1.093439
v 3.072681 0.000899 -1.093439
v 3.100624 0.015562 -1.115396
v 3.100624 0.000899 -1.115396
v 3.130718 0.015562 -1.132933
v 3.130718 0.000899 -1.132933
v 3.161807 0.015562 -1.145376
v 3.161807 0.000899 -1.145376
v 3.192697 0.015562 -1.152246
v 3.192697 0.000899 -1.152246
v 3.222200 0.015562 -1.153280
v 3.222200 0.000899 -1.153280
v 3.249183 0.015562 -1.148438
v 3.249183 0.000899 -1.148438
v 3.272609 0.015562 -1.137905
v 3.272609 0.000899 -1.137905
v 3.291576 0.015562 -1.122087
v 3.291576 0.000899 -1.122087
v 3.295001 0.015562 -1.104324
v 3.295001 0.000899 -1.104324
v 3.040622 0.000899 -0.862837
v 3.021654 0.015562 -0.878655
v 3.021654 0.000899 -0.878655
v 3.007872 0.015562 -0.899150
v 3.007872 0.000899 -0.899150
v 2.999807 0.015562 -0.923535
v 2.999807 0.000899 -0.923535
v 2.997768 0.015562 -0.950873
v 2.997768 0.000899 -0.950873
v 3.001833 0.015562 -0.980113
v 3.001833 0.000899 -0.980113
v 3.011846 0.015562 -1.010132
v 3.011846 0.000899 -1.010132
v 3.027423 0.015562 -1.039775
v 3.027423 0.000899 -1.039775
v 3.047964 0.015562 -1.067905
v 3.047964 0.000899 -1.067905
v 3.262118 0.000899 -1.051534
v 3.262118 0.015562 -1.051534
v 3.273409 0.000899 -1.068106
v 3.273409 0.015562 -1.068106
v 3.257069 0.000899 -1.036250
v 3.257069 0.015562 -1.036250
v 3.258453 0.000899 -1.022841
v 3.258453 0.015562 -1.022841
v 3.290505 0.000899 -1.085329
v 3.290505 0.015562 -1.085329
v 3.280068 0.015562 -1.003618
v 3.280068 0.000899 -1.003618
v 3.266219 0.000899 -1.011822
v 3.266219 0.015562 -1.011822
v 3.162500 0.010843 -0.926810
v 3.162500 0.024230 -0.926810
v 3.167921 0.010843 -0.926227
v 3.167921 0.024230 -0.926227
v 3.173134 0.010843 -0.924500
v 3.173134 0.024230 -0.924500
v 3.177938 0.010843 -0.921695
v 3.177938 0.024230 -0.921695
v 3.182148 0.010843 -0.917921
v 3.182148 0.024230 -0.917921
v 3.185604 0.010843 -0.913323
v 3.185604 0.024230 -0.913323
v 3.188172 0.010843 -0.908076
v 3.188172 0.024230 -0.908076
v 3.189753 0.010843 -0.902383
v 3.189753 0.024230 -0.902383
v 3.190287 0.010843 -0.896462
v 3.190287 0.024230 -0.896462
v 3.189753 0.010843 -0.890542
v 3.189753 0.024230 -0.890542
v 3.188172 0.010843 -0.884849
v 3.188172 0.024230 -0.884849
v 3.185604 0.010843 -0.879602
v 3.185604 0.024230 -0.879602
v 3.182148 0.010843 -0.875003
v 3.182148 0.024230 -0.875003
v 3.177938 0.010843 -0.871229
v 3.177938 0.024230 -0.871229
v 3.173134 0.010843 -0.868424
v 3.173134 0.024230 -0.868424
v 3.167921 0.010843 -0.866698
v 3.167921 0.024230 -0.866698
v 3.162500 0.010843 -0.866114
v 3.162500 0.024230 -0.866114
v 3.157079 0.010843 -0.866697
v 3.157079 0.024230 -0.866697
v 3.151866 0.010843 -0.868424
v 3.151866 0.024230 -0.868424
v 3.147062 0.010843 -0.871229
v 3.147062 0.024230 -0.871229
v 3.142851 0.010843 -0.875003
v 3.142851 0.024230 -0.875003
v 3.139395 0.010843 -0.879602
v 3.139395 0.024230 -0.879602
v 3.136827 0.010843 -0.884849
v 3.136827 0.024230 -0.884849
v 3.135246 0.010843 -0.890542
v 3.135246 0.024230 -0.890542
v 3.134712 0.010843 -0.896462
v 3.134712 0.024230 -0.896462
v 3.135246 0.010843 -0.902383
v 3.135246 0.024230 -0.902383
v 3.136827 0.010843 -0.908076
v 3.136827 0.024230 -0.908076
v 3.139395 0.010843 -0.913323
v 3.139395 0.024230 -0.913323
v 3.142851 0.010843 -0.917921
v 3.142851 0.024230 -0.917921
v 3.147062 0.010843 -0.921695
v 3.147062 0.024230 -0.921695
v 3.151866 0.010843 -0.924500
v 3.151866 0.024230 -0.924500
v 3.157079 0.010843 -0.926227
v 3.157079 0.024230 -0.926227
v 3.247435 0.010843 -0.947643
v 3.247435 0.024230 -0.947643
v 3.252856 0.010843 -0.947060
v 3.252856 0.024230 -0.947060
v 3.258069 0.010843 -0.945333
v 3.258069 0.024230 -0.945333
v 3.262873 0.010843 -0.942529
v 3.262873 0.024230 -0.942529
v 3.267084 0.010843 -0.938755
v 3.267084 0.024230 -0.938755
v 3.270540 0.010843 -0.934156
v 3.270540 0.024230 -0.934156
v 3.273108 0.010843 -0.928909
v 3.273108 0.024230 -0.928909
v 3.274689 0.010843 -0.923216
v 3.274689 0.024230 -0.923216
v 3.275223 0.010843 -0.917295
v 3.275223 0.024230 -0.917295
v 3.274689 0.010843 -0.911375
v 3.274689 0.024230 -0.911375
v 3.273108 0.010843 -0.905682
v 3.273108 0.024230 -0.905682
v 3.270540 0.010843 -0.900435
v 3.270540 0.024230 -0.900435
v 3.267084 0.010843 -0.895836
v 3.267084 0.024230 -0.895836
v 3.262873 0.010843 -0.892062
v 3.262873 0.024230 -0.892062
v 3.258069 0.010843 -0.889258
v 3.258069 0.024230 -0.889258
v 3.252856 0.010843 -0.887531
v 3.252856 0.024230 -0.887531
v 3.247435 0.010843 -0.886948
v 3.247435 0.024230 -0.886948
v 3.242014 0.010843 -0.887531
v 3.242014 0.024230 -0.887531
v 3.236801 0.010843 -0.889258
v 3.236801 0.024230 -0.889258
v 3.231997 0.010843 -0.892062
v 3.231997 0.024230 -0.892062
v 3.227787 0.010843 -0.895836
v 3.227787 0.024230 -0.895836
v 3.224331 0.010843 -0.900435
v 3.224331 0.024230 -0.900435
v 3.221763 0.010843 -0.905682
v 3.221763 0.024230 -0.905682
v 3.220182 0.010843 -0.911375
v 3.220182 0.024230 -0.911375
v 3.219648 0.010843 -0.917295
v 3.219648 0.024230 -0.917295
v 3.220182 0.010843 -0.923216
v 3.220182 0.024230 -0.923216
v 3.221763 0.010843 -0.928909
v 3.221763 0.024230 -0.928909
v 3.224331 0.010843 -0.934156
v 3.224331 0.024230 -0.934156
v 3.227787 0.010843 -0.938755
v 3.227787 0.024230 -0.938755
v 3.231997 0.010843 -0.942529
v 3.231997 0.024230 -0.942529
v 3.236801 0.010843 -0.945333
v 3.236801 0.024230 -0.945333
v 3.242014 0.010843 -0.947060
v 3.242014 0.024230 -0.947060
v 3.069551 0.010843 -0.946842
v 3.069551 0.024230 -0.946842
v 3.074972 0.010843 -0.946259
v 3.074972 0.024230 -0.946259
v 3.080185 0.010843 -0.944532
v 3.080185 0.024230 -0.944532
v 3.084989 0.010843 -0.941727
v 3.084989 0.024230 -0.941727
v 3.089200 0.010843 -0.937953
v 3.089200 0.024230 -0.937953
v 3.092656 0.010843 -0.933354
v 3.092656 0.024230 -0.933354
v 3.095224 0.010843 -0.928108
v 3.095224 0.024230 -0.928108
v 3.096805 0.010843 -0.922415
v 3.096805 0.024230 -0.922415
v 3.097339 0.010843 -0.916494
v 3.097339 0.024230 -0.916494
v 3.096805 0.010843 -0.910574
v 3.096805 0.024230 -0.910574
v 3.095224 0.010843 -0.904881
v 3.095224 0.024230 -0.904881
v 3.092656 0.010843 -0.899634
v 3.092656 0.024230 -0.899634
v 3.089200 0.010843 -0.895035
v 3.089200 0.024230 -0.895035
v 3.084989 0.010843 -0.891261
v 3.084989 0.024230 -0.891261
v 3.080185 0.010843 -0.888456
v 3.080185 0.024230 -0.888456
v 3.074972 0.010843 -0.886729
v 3.074972 0.024230 -0.886729
v 3.069551 0.010843 -0.886146
v 3.069551 0.024230 -0.886146
v 3.064130 0.010843 -0.886729
v 3.064130 0.024230 -0.886729
v 3.058918 0.010843 -0.888456
v 3.058918 0.024230 -0.888456
v 3.054113 0.010843 -0.891261
v 3.054113 0.024230 -0.891261
v 3.049903 0.010843 -0.895035
v 3.049903 0.024230 -0.895035
v 3.046447 0.010843 -0.899634
v 3.046447 0.024230 -0.899634
v 3.043879 0.010843 -0.904881
v 3.043879 0.024230 -0.904881
v 3.042298 0.010843 -0.910574
v 3.042298 0.024230 -0.910574
v 3.041764 0.010843 -0.916494
v 3.041764 0.024230 -0.916494
v 3.042298 0.010843 -0.922415
v 3.042298 0.024230 -0.922415
v 3.043879 0.010843 -0.928108
v 3.043879 0.024230 -0.928108
v 3.046447 0.010843 -0.933354
v 3.046447 0.024230 -0.933354
v 3.049903 0.010843 -0.937953
v 3.049903 0.024230 -0.937953
v 3.054113 0.010843 -0.941727
v 3.054113 0.024230 -0.941727
v 3.058918 0.010843 -0.944532
v 3.058918 0.024230 -0.944532
v 3.064130 0.010843 -0.946259
v 3.064130 0.024230 -0.946259
v 3.070353 0.010843 -1.034181
v 3.070353 0.024230 -1.034181
v 3.075774 0.010843 -1.033598
v 3.075774 0.024230 -1.033598
v 3.080986 0.010843 -1.031871
v 3.080986 0.024230 -1.031871
v 3.085791 0.010843 -1.029067
v 3.085791 0.024230 -1.029067
v 3.090002 0.010843 -1.025293
v 3.090002 0.024230 -1.025293
v 3.093457 0.010843 -1.020694
v 3.093457 0.024230 -1.020694
v 3.096025 0.010843 -1.015447
v 3.096025 0.024230 -1.015447
v 3.097606 0.010843 -1.009754
v 3.097606 0.024230 -1.009754
v 3.098140 0.010843 -1.003834
v 3.098140 0.024230 -1.003834
v 3.097606 0.010843 -0.997913
v 3.097606 0.024230 -0.997913
v 3.096025 0.010843 -0.992220
v 3.096025 0.024230 -0.992220
v 3.093457 0.010843 -0.986973
v 3.093457 0.024230 -0.986973
v 3.090001 0.010843 -0.982374
v 3.090001 0.024230 -0.982374
v 3.085791 0.010843 -0.978600
v 3.085791 0.024230 -0.978600
v 3.080986 0.010843 -0.975796
v 3.080986 0.024230 -0.975796
v 3.075774 0.010843 -0.974069
v 3.075774 0.024230 -0.974069
v 3.070353 0.010843 -0.973486
v 3.070353 0.024230 -0.973486
v 3.064932 0.010843 -0.974069
v 3.064932 0.024230 -0.974069
v 3.059719 0.010843 -0.975796
v 3.059719 0.024230 -0.975796
v 3.054915 0.010843 -0.978600
v 3.054915 0.024230 -0.978600
v 3.050704 0.010843 -0.982374
v 3.050704 0.024230 -0.982374
v 3.047248 0.010843 -0.986973
v 3.047248 0.024230 -0.986973
v 3.044680 0.010843 -0.992220
v 3.044680 0.024230 -0.992220
v 3.043099 0.010843 -0.997913
v 3.043099 0.024230 -0.997913
v 3.042565 0.010843 -1.003834
v 3.042565 0.024230 -1.003834
v 3.043099 0.010843 -1.009754
v 3.043099 0.024230 -1.009754
v 3.044680 0.010843 -1.015447
v 3.044680 0.024230 -1.015447
v 3.047248 0.010843 -1.020694
v 3.047248 0.024230 -1.020694
v 3.050704 0.010843 -1.025293
v 3.050704 0.024230 -1.025293
v 3.054915 0.010843 -1.029067
v 3.054915 0.024230 -1.029067
v 3.059719 0.010843 -1.031871
v 3.059719 0.024230 -1.031871
v 3.064932 0.010843 -1.033598
v 3.064932 0.024230 -1.033598
v 3.126442 0.010843 -1.103091
v 3.126442 0.024230 -1.103091
v 3.131863 0.010843 -1.102508
v 3.131863 0.024230 -1.102508
v 3.137076 0.010843 -1.100781
v 3.137076 0.024230 -1.100781
v 3.141880 0.010843 -1.097977
v 3.141880 0.024230 -1.097977
v 3.146091 0.010843 -1.094203
v 3.146091 0.024230 -1.094203
v 3.149547 0.010843 -1.089604
v 3.149547 0.024230 -1.089604
v 3.152115 0.010843 -1.084357
v 3.152115 0.024230 -1.084357
v 3.153696 0.010843 -1.078664
v 3.153696 0.024230 -1.078664
v 3.154230 0.010843 -1.072743
v 3.154230 0.024230 -1.072743
v 3.153696 0.010843 -1.066823
v 3.153696 0.024230 -1.066823
v 3.152115 0.010843 -1.061130
v 3.152115 0.024230 -1.061130
v 3.149547 0.010843 -1.055883
v 3.149547 0.024230 -1.055883
v 3.146091 0.010843 -1.051284
v 3.146091 0.024230 -1.051284
v 3.141880 0.010843 -1.047510
v 3.141880 0.024230 -1.047510
v 3.137076 0.010843 -1.044706
v 3.137076 0.024230 -1.044706
v 3.131863 0.010843 -1.042979
v 3.131863 0.024230 -1.042979
v 3.126442 0.010843 -1.042396
v 3.126442 0.024230 -1.042396
v 3.121021 0.010843 -1.042979
v 3.121021 0.024230 -1.042979
v 3.115808 0.010843 -1.044706
v 3.115808 0.024230 -1.044706
v 3.111004 0.010843 -1.047510
v 3.111004 0.024230 -1.047510
v 3.106793 0.010843 -1.051284
v 3.106793 0.024230 -1.051284
v 3.103338 0.010843 -1.055883
v 3.103338 0.024230 -1.055883
v 3.100770 0.010843 -1.061130
v 3.100770 0.024230 -1.061130
v 3.099189 0.010843 -1.066823
v 3.099189 0.024230 -1.066823
v 3.098655 0.010843 -1.072743
v 3.098655 0.024230 -1.072743
v 3.099189 0.010843 -1.078664
v 3.099189 0.024230 -1.078664
v 3.100770 0.010843 -1.084357
v 3.100770 0.024230 -1.084357
v 3.103338 0.010843 -1.089604
v 3.103338 0.024230 -1.089604
v 3.106793 0.010843 -1.094203
v 3.106793 0.024230 -1.094203
v 3.111004 0.010843 -1.097977
v 3.111004 0.024230 -1.097977
v 3.115808 0.010843 -1.100781
v 3.115808 0.024230 -1.100781
v 3.121021 0.010843 -1.102508
v 3.121021 0.024230 -1.102508
v 3.201762 0.010843 -1.131937
v 3.201762 0.024230 -1.131937
v 3.207183 0.010843 -1.131354
v 3.207183 0.024230 -1.131354
v 3.212396 0.010843 -1.129627
v 3.212396 0.024230 -1.129627
v 3.217200 0.010843 -1.126823
v 3.217200 0.024230 -1.126823
v 3.221411 0.010843 -1.123049
v 3.221411 0.024230 -1.123049
v 3.224867 0.010843 -1.118450
v 3.224867 0.024230 -1.118450
v 3.227435 0.010843 -1.113203
v 3.227435 0.024230 -1.113203
v 3.229016 0.010843 -1.107510
v 3.229016 0.024230 -1.107510
v 3.229550 0.010843 -1.101589
v 3.229550 0.024230 -1.101589
v 3.229016 0.010843 -1.095669
v 3.229016 0.024230 -1.095669
v 3.227435 0.010843 -1.089976
v 3.227435 0.024230 -1.089976
v 3.224867 0.010843 -1.084729
v 3.224867 0.024230 -1.084729
v 3.221411 0.010843 -1.080130
v 3.221411 0.024230 -1.080130
v 3.217200 0.010843 -1.076356
v 3.217200 0.024230 -1.076356
v 3.212396 0.010843 -1.073552
v 3.212396 0.024230 -1.073552
v 3.207183 0.010843 -1.071825
v 3.207183 0.024230 -1.071825
v 3.201762 0.010843 -1.071242
v 3.201762 0.024230 -1.071242
v 3.196341 0.010843 -1.071825
v 3.196341 0.024230 -1.071825
v 3.191128 0.010843 -1.073552
v 3.191128 0.024230 -1.073552
v 3.186324 0.010843 -1.076356
v 3.186324 0.024230 -1.076356
v 3.182114 0.010843 -1.080130
v 3.182114 0.024230 -1.080130
v 3.178658 0.010843 -1.084729
v 3.178658 0.024230 -1.084729
v 3.176090 0.010843 -1.089976
v 3.176090 0.024230 -1.089976
v 3.174509 0.010843 -1.095669
v 3.174509 0.024230 -1.095669
v 3.173975 0.010843 -1.101589
v 3.173975 0.024230 -1.101589
v 3.174509 0.010843 -1.107510
v 3.174509 0.024230 -1.107510
v 3.176090 0.010843 -1.113203
v 3.176090 0.024230 -1.113203
v 3.178658 0.010843 -1.118450
v 3.178658 0.024230 -1.118450
v 3.182114 0.010843 -1.123049
v 3.182114 0.024230 -1.123049
v 3.186324 0.010843 -1.126823
v 3.186324 0.024230 -1.126823
v 3.191128 0.010843 -1.129627
v 3.191128 0.024230 -1.129627
v 3.196341 0.010843 -1.131354
v 3.196341 0.024230 -1.131354
vn 0.1070 -0.0000 -0.9943
vn 0.3145 -0.0000 -0.9493
vn 0.5041 -0.0000 -0.8636
vn 0.6674 -0.0000 -0.7447
vn 0.7994 -0.0000 -0.6007
vn 0.8982 -0.0000 -0.4396
vn 0.9635 -0.0000 -0.2676
vn 0.9960 -0.0000 -0.0898
vn 0.9960 -0.0000 0.0898
vn 0.9635 -0.0000 0.2676
vn 0.8982 -0.0000 0.4396
vn 0.7994 -0.0000 0.6007
vn 0.6674 -0.0000 0.7447
vn 0.5041 -0.0000 0.8636
vn 0.3145 -0.0000 0.9493
vn 0.1070 -0.0000 0.9943
vn -0.1070 -0.0000 0.9943
vn -0.3145 -0.0000 0.9493
vn -0.5041 -0.0000 0.8636
vn -0.6674 -0.0000 0.7447
vn -0.7994 -0.0000 0.6007
vn -0.8982 -0.0000 0.4396
vn -0.9635 -0.0000 0.2676
vn -0.9960 -0.0000 0.0898
vn -0.9960 -0.0000 -0.0898
vn -0.9635 -0.0000 -0.2676
vn -0.8982 -0.0000 -0.4396
vn -0.7994 -0.0000 -0.6007
vn -0.6674 -0.0000 -0.7447
vn -0.5041 -0.0000 -0.8636
vn -0.0000 1.0000 -0.0000
vn -0.3145 -0.0000 -0.9493
vn -0.1070 -0.0000 -0.9943
vn -0.0000 -1.0000 -0.0000
vn 0.1667 -0.0000 -0.9860
vn 0.3833 -0.0000 -0.9236
vn 0.6219 -0.0000 -0.7831
vn 0.8931 -0.0000 -0.4498
vn 0.9977 -0.0000 0.0672
vn 0.8774 -0.0000 0.4797
vn 0.7122 -0.0000 0.7020
vn 0.5755 -0.0000 0.8178
vn 0.4680 -0.0000 0.8837
vn 0.3800 -0.0000 0.9250
vn 0.3036 -0.0000 0.9528
vn 0.2329 -0.0000 0.9725
vn 0.1634 -0.0000 0.9866
vn 0.0907 -0.0000 0.9959
vn 0.0094 -0.0000 1.0000
vn -0.0877 -0.0000 0.9962
vn -0.1845 -0.0000 0.9828
vn -0.3835 -0.0000 0.9235
vn -0.6219 -0.0000 0.7831
vn -0.6179 -0.0000 -0.7863
vn -0.5035 -0.0000 -0.8640
vn -0.3716 -0.0000 -0.9284
vn -0.2171 -0.0000 -0.9761
vn -0.0350 -0.0000 -0.9994
vn 0.1766 -0.0000 -0.9843
vn 0.4101 -0.0000 -0.9121
vn 0.6405 -0.0000 -0.7680
vn 0.9819 -0.0000 -0.1893
vn 0.7097 -0.0000 0.7045
vn -0.3970 -0.0249 0.9175
vn -0.6470 -0.0147 0.7623
vn -0.8298 -0.0000 0.5580
vn -0.9494 -0.0000 0.3140
vn -0.9972 -0.0000 0.0744
vn -0.9905 -0.0000 -0.1377
vn -0.9486 -0.0000 -0.3164
vn -0.8852 -0.0000 -0.4652
vn -0.8076 -0.0000 -0.5897
vn -0.7185 -0.0000 -0.6955
vn 0.9731 -0.0000 0.2303
vn 0.0937 -0.0000 -0.9956
vn 0.8264 -0.0000 0.5630
vn 0.9495 -0.0000 0.3137
vn 0.9947 -0.0000 -0.1027
vn 0.8174 -0.0000 -0.5761
vn 0.5097 -0.0000 -0.8604
vn 0.2531 -0.0000 -0.9674
vt 0.653995 0.810884
vt 0.654167 0.810884
vt 0.654167 0.808126
vt 0.653995 0.808126
vt 0.654340 0.810884
vt 0.654340 0.808126
vt 0.654512 0.810884
vt 0.654512 0.808126
vt 0.654684 0.810884
vt 0.654684 0.808126
vt 0.654857 0.810884
vt 0.654857 0.808126
vt 0.655029 0.810884
vt 0.655029 0.808126
vt 0.655201 0.810884
vt 0.655201 0.808126
vt 0.655374 0.810884
vt 0.655374 0.808126
vt 0.655546 0.810884
vt 0.655546 0.808126
vt 0.655719 0.810884
vt 0.655719 0.808126
vt 0.655891 0.810884
vt 0.655891 0.808126
vt 0.656063 0.810884
vt 0.656063 0.808126
vt 0.656236 0.810884
vt 0.656236 0.808126
vt 0.656408 0.810884
vt 0.656408 0.808126
vt 0.656581 0.810884
vt 0.656581 0.808126
vt 0.656753 0.810884
vt 0.656753 0.808126
vt 0.656925 0.810884
vt 0.656925 0.808126
vt 0.657098 0.810884
vt 0.657098 0.808126
vt 0.657270 0.810884
vt 0.657270 0.808126
vt 0.657442 0.810884
vt 0.657442 0.808126
vt 0.657615 0.810884
vt 0.657615 0.808126
vt 0.657787 0.810884
vt 0.657787 0.808126
vt 0.657960 0.810884
vt 0.657960 0.808126
vt 0.658132 0.810884
vt 0.658132 0.808126
vt 0.658304 0.810884
vt 0.658304 0.808126
vt 0.658477 0.810884
vt 0.658477 0.808126
vt 0.658649 0.810884
vt 0.658649 0.808126
vt 0.658821 0.810884
vt 0.658821 0.808126
vt 0.658994 0.810884
vt 0.658994 0.808126
vt 0.659166 0.810884
vt 0.659166 0.808126
vt 0.655116 0.810965
vt 0.654867 0.811040
vt 0.654638 0.811162
vt 0.654438 0.811327
vt 0.654273 0.811528
vt 0.654151 0.811756
vt 0.654075 0.812005
vt 0.654050 0.812263
vt 0.654075 0.812521
vt 0.654151 0.812770
vt 0.654273 0.812999
vt 0.654438 0.813199
vt 0.654638 0.813364
vt 0.654867 0.813486
vt 0.655116 0.813562
vt 0.655374 0.813587
vt 0.655632 0.813562
vt 0.655881 0.813486
vt 0.656109 0.813364
vt 0.656310 0.813199
vt 0.656475 0.812999
vt 0.656597 0.812770
vt 0.656672 0.812521
vt 0.656698 0.812263
vt 0.656672 0.812005
vt 0.656597 0.811756
vt 0.656475 0.811528
vt 0.656310 0.811327
vt 0.656109 0.811162
vt 0.655881 0.811040
vt 0.655632 0.810965
vt 0.655374 0.810939
vt 0.659339 0.810884
vt 0.659339 0.808126
vt 0.659511 0.810884
vt 0.659511 0.808126
vt 0.658132 0.810939
vt 0.658390 0.810965
vt 0.658639 0.811040
vt 0.658867 0.811162
vt 0.659068 0.811327
vt 0.659233 0.811528
vt 0.659355 0.811756
vt 0.659430 0.812005
vt 0.659456 0.812263
vt 0.659430 0.812521
vt 0.659355 0.812770
vt 0.659233 0.812999
vt 0.659068 0.813199
vt 0.658867 0.813364
vt 0.658639 0.813486
vt 0.658390 0.813562
vt 0.658132 0.813587
vt 0.657874 0.813562
vt 0.657625 0.813486
vt 0.657396 0.813364
vt 0.657196 0.813199
vt 0.657031 0.812999
vt 0.656909 0.812770
vt 0.656833 0.812521
vt 0.656808 0.812263
vt 0.656833 0.812005
vt 0.656909 0.811756
vt 0.657031 0.811528
vt 0.657196 0.811327
vt 0.657396 0.811162
vt 0.657625 0.811040
vt 0.657874 0.810965
vt 0.300686 0.896278
vt 0.300686 0.615431
vt 0.333901 0.615431
vt 0.333901 0.896278
vt 0.360924 0.615431
vt 0.360924 0.896278
vt 0.386404 0.615431
vt 0.386404 0.896278
vt 0.409362 0.615431
vt 0.409362 0.896278
vt 0.004619 0.896278
vt 0.004619 0.615431
vt 0.026503 0.615431
vt 0.026503 0.896278
vt 0.051225 0.615431
vt 0.051225 0.896278
vt 0.077833 0.615431
vt 0.077833 0.896278
vt 0.105307 0.615431
vt 0.105307 0.896278
vt 0.132590 0.615431
vt 0.132590 0.896278
vt 0.158633 0.615431
vt 0.158633 0.896278
vt 0.182436 0.615431
vt 0.182436 0.896278
vt 0.203084 0.615431
vt 0.203084 0.896278
vt 0.014066 0.297738
vt 0.014066 0.016891
vt 0.033486 0.016896
vt 0.033486 0.297744
vt 0.056339 0.016901
vt 0.056339 0.297748
vt 0.081746 0.016904
vt 0.081746 0.297751
vt 0.108733 0.016906
vt 0.108733 0.297753
vt 0.131767 0.016973
vt 0.131767 0.297686
vt 0.163272 0.016904
vt 0.163272 0.297751
vt 0.188729 0.016901
vt 0.188729 0.297748
vt 0.868071 0.115911
vt 0.587358 0.115911
vt 0.587358 0.075720
vt 0.868071 0.075720
vt 0.587358 0.042991
vt 0.868071 0.042991
vt 0.587358 0.018983
vt 0.868071 0.018984
vt 0.587358 0.004619
vt 0.868071 0.004619
vt 0.418600 0.896144
vt 0.418600 0.615431
vt 0.439815 0.615431
vt 0.439815 0.896144
vt 0.467688 0.615431
vt 0.467688 0.896144
vt 0.501148 0.615431
vt 0.501148 0.896144
vt 0.538909 0.615431
vt 0.538909 0.896144
vt 0.562701 0.615431
vt 0.562701 0.896144
vt 0.079254 0.306991
vt 0.079254 0.587704
vt 0.048931 0.587704
vt 0.048931 0.306991
vt 0.165211 0.016971
vt 0.202936 0.016966
vt 0.202936 0.297679
vt 0.243494 0.016959
vt 0.243494 0.297672
vt 0.285326 0.016950
vt 0.285326 0.297663
vt 0.868071 0.415329
vt 0.587358 0.415329
vt 0.587358 0.368264
vt 0.868071 0.368264
vt 0.587358 0.317419
vt 0.868071 0.317419
vt 0.587358 0.264749
vt 0.868071 0.264749
vt 0.587358 0.212277
vt 0.868071 0.212277
vt 0.587358 0.162021
vt 0.868071 0.162021
vt 0.014066 0.587704
vt 0.014066 0.306991
vt 0.275852 0.896278
vt 0.275852 0.615431
vt 0.107423 0.306991
vt 0.107423 0.587704
vt 0.132355 0.306991
vt 0.132355 0.587704
vt 0.153092 0.306991
vt 0.153092 0.587704
vt 0.234430 0.615498
vt 0.234430 0.896211
vt 0.212322 0.896211
vt 0.212322 0.615498
vt 0.257105 0.615498
vt 0.257105 0.896211
vt 0.544687 0.591278
vt 0.524851 0.604118
vt 0.501599 0.606193
vt 0.475825 0.597424
vt 0.448520 0.578149
vt 0.420732 0.549107
vt 0.393530 0.511415
vt 0.367960 0.466522
vt 0.345003 0.416152
vt 0.325542 0.362241
vt 0.310324 0.306862
vt 0.299936 0.252142
vt 0.294775 0.200183
vt 0.295040 0.152984
vt 0.296469 0.137255
vt 0.300722 0.112357
vt 0.300643 0.110046
vt 0.311601 0.079865
vt 0.324313 0.060632
vt 0.342900 0.040326
vt 0.365091 0.024037
vt 0.390034 0.012391
vt 0.416769 0.005834
vt 0.444270 0.004619
vt 0.471480 0.008793
vt 0.497353 0.018194
vt 0.520894 0.032463
vt 0.541199 0.051050
vt 0.557488 0.073241
vt 0.569135 0.098184
vt 0.575691 0.124919
vt 0.576906 0.152420
vt 0.572733 0.179630
vt 0.563331 0.205503
vt 0.544247 0.232788
vt 0.527375 0.251625
vt 0.518514 0.268171
vt 0.512931 0.291265
vt 0.512553 0.316820
vt 0.517396 0.343853
vt 0.527273 0.371327
vt 0.571225 0.535675
vt 0.560346 0.568168
vt 0.541804 0.398184
vt 0.560431 0.423394
vt 0.572127 0.464437
vt 0.576906 0.495049
vt 0.011848 0.420338
vt 0.011770 0.421408
vt 0.020032 0.422656
vt 0.020110 0.421586
vt 0.011692 0.422479
vt 0.019954 0.423727
vt 0.011614 0.423549
vt 0.019876 0.424797
vt 0.011536 0.424620
vt 0.019798 0.425868
vt 0.011458 0.425691
vt 0.019720 0.426938
vt 0.011380 0.426761
vt 0.019642 0.428009
vt 0.011302 0.427832
vt 0.019564 0.429079
vt 0.011224 0.428902
vt 0.019486 0.430150
vt 0.011146 0.429973
vt 0.019408 0.431221
vt 0.011068 0.431043
vt 0.019330 0.432291
vt 0.010990 0.432114
vt 0.019252 0.433362
vt 0.010912 0.433184
vt 0.019174 0.434432
vt 0.010834 0.434255
vt 0.019096 0.435503
vt 0.010756 0.435326
vt 0.019018 0.436573
vt 0.010678 0.436396
vt 0.018940 0.437644
vt 0.010600 0.437467
vt 0.018862 0.438715
vt 0.010522 0.438537
vt 0.018784 0.439785
vt 0.010444 0.439608
vt 0.018706 0.440856
vt 0.010366 0.440678
vt 0.018628 0.441926
vt 0.010288 0.441749
vt 0.018550 0.442997
vt 0.010210 0.442819
vt 0.018472 0.444067
vt 0.010132 0.443890
vt 0.018394 0.445138
vt 0.010054 0.444961
vt 0.018316 0.446208
vt 0.009976 0.446031
vt 0.018238 0.447279
vt 0.009898 0.447102
vt 0.018160 0.448350
vt 0.009820 0.448172
vt 0.018082 0.449420
vt 0.009742 0.449243
vt 0.018004 0.450491
vt 0.009664 0.450313
vt 0.017926 0.451561
vt 0.009586 0.451384
vt 0.017848 0.452632
vt 0.009508 0.452455
vt 0.017770 0.453702
vt 0.011099 0.427262
vt 0.010986 0.425685
vt 0.010723 0.424208
vt 0.010321 0.422888
vt 0.009794 0.421775
vt 0.009164 0.420911
vt 0.008454 0.420331
vt 0.007692 0.420056
vt 0.006907 0.420097
vt 0.006128 0.420453
vt 0.005387 0.421109
vt 0.004712 0.422041
vt 0.004128 0.423212
vt 0.003658 0.424578
vt 0.003320 0.426087
vt 0.003127 0.427679
vt 0.003086 0.429295
vt 0.003200 0.430871
vt 0.003463 0.432348
vt 0.003865 0.433669
vt 0.004391 0.434782
vt 0.005022 0.435645
vt 0.005732 0.436225
vt 0.006494 0.436500
vt 0.007279 0.436459
vt 0.008057 0.436103
vt 0.008798 0.435447
vt 0.009473 0.434516
vt 0.010057 0.433344
vt 0.010527 0.431978
vt 0.010866 0.430470
vt 0.011059 0.428877
vt 0.009430 0.453525
vt 0.017692 0.454773
vt 0.009352 0.454596
vt 0.017614 0.455843
vt 0.009811 0.446006
vt 0.009618 0.447599
vt 0.009280 0.449107
vt 0.008810 0.450473
vt 0.008226 0.451645
vt 0.007550 0.452576
vt 0.006809 0.453233
vt 0.006031 0.453588
vt 0.005246 0.453629
vt 0.004484 0.453354
vt 0.003774 0.452774
vt 0.003144 0.451911
vt 0.002617 0.450798
vt 0.002215 0.449477
vt 0.001952 0.448000
vt 0.001838 0.446424
vt 0.001879 0.444808
vt 0.002072 0.443216
vt 0.002410 0.441707
vt 0.002880 0.440341
vt 0.003464 0.439170
vt 0.004140 0.438238
vt 0.004881 0.437582
vt 0.005659 0.437227
vt 0.006444 0.437185
vt 0.007206 0.437460
vt 0.007916 0.438040
vt 0.008546 0.438904
vt 0.009073 0.440017
vt 0.009475 0.441337
vt 0.009738 0.442814
vt 0.009851 0.444391
vt 0.991109 0.735262
vt 0.990717 0.735262
vt 0.990717 0.741530
vt 0.991109 0.741530
vt 0.990325 0.735262
vt 0.990325 0.741530
vt 0.989934 0.735262
vt 0.989934 0.741530
vt 0.989542 0.735262
vt 0.989542 0.741530
vt 0.989150 0.735262
vt 0.989150 0.741530
vt 0.988758 0.735262
vt 0.988758 0.741530
vt 0.988367 0.735262
vt 0.988367 0.741530
vt 0.987975 0.735262
vt 0.987975 0.741530
vt 0.987583 0.735262
vt 0.987583 0.741530
vt 0.987191 0.735262
vt 0.987191 0.741530
vt 0.986800 0.735262
vt 0.986800 0.741530
vt 0.986408 0.735262
vt 0.986408 0.741530
vt 0.986016 0.735262
vt 0.986016 0.741530
vt 0.985624 0.735262
vt 0.985624 0.741530
vt 0.985233 0.735262
vt 0.985233 0.741530
vt 0.984841 0.735262
vt 0.984841 0.741530
vt 0.984449 0.735262
vt 0.984449 0.741530
vt 0.984057 0.735262
vt 0.984057 0.741530
vt 0.983666 0.735262
vt 0.983666 0.741530
vt 0.983274 0.735262
vt 0.983274 0.741530
vt 0.982882 0.735262
vt 0.982882 0.741530
vt 0.982490 0.735262
vt 0.982490 0.741530
vt 0.982099 0.735262
vt 0.982099 0.741530
vt 0.981707 0.735262
vt 0.981707 0.741530
vt 0.981315 0.735262
vt 0.981315 0.741530
vt 0.980923 0.735262
vt 0.980923 0.741530
vt 0.980532 0.735262
vt 0.980532 0.741530
vt 0.980140 0.735262
vt 0.980140 0.741530
vt 0.979748 0.735262
vt 0.979748 0.741530
vt 0.979356 0.735262
vt 0.979356 0.741530
vt 0.988562 0.735079
vt 0.989126 0.734908
vt 0.989646 0.734630
vt 0.990102 0.734255
vt 0.990476 0.733800
vt 0.990755 0.733279
vt 0.990926 0.732715
vt 0.990984 0.732128
vt 0.990926 0.731541
vt 0.990755 0.730977
vt 0.990476 0.730456
vt 0.990102 0.730001
vt 0.989646 0.729626
vt 0.989126 0.729348
vt 0.988562 0.729177
vt 0.987975 0.729119
vt 0.987388 0.729177
vt 0.986823 0.729348
vt 0.986303 0.729626
vt 0.985847 0.730001
vt 0.985473 0.730456
vt 0.985195 0.730977
vt 0.985024 0.731541
vt 0.984966 0.732128
vt 0.985024 0.732715
vt 0.985195 0.733279
vt 0.985473 0.733800
vt 0.985847 0.734255
vt 0.986303 0.734630
vt 0.986823 0.734908
vt 0.987388 0.735079
vt 0.987975 0.735137
vt 0.978965 0.735262
vt 0.978965 0.741530
vt 0.978573 0.735262
vt 0.978573 0.741530
vt 0.981707 0.735137
vt 0.981120 0.735079
vt 0.980556 0.734908
vt 0.980035 0.734630
vt 0.979580 0.734255
vt 0.979205 0.733800
vt 0.978927 0.733279
vt 0.978756 0.732715
vt 0.978698 0.732128
vt 0.978756 0.731541
vt 0.978927 0.730977
vt 0.979205 0.730456
vt 0.979580 0.730001
vt 0.980035 0.729626
vt 0.980556 0.729348
vt 0.981120 0.729177
vt 0.981707 0.729119
vt 0.982294 0.729177
vt 0.982858 0.729348
vt 0.983378 0.729626
vt 0.983834 0.730001
vt 0.984208 0.730456
vt 0.984487 0.730977
vt 0.984658 0.731541
vt 0.984716 0.732128
vt 0.984658 0.732715
vt 0.984487 0.733279
vt 0.984208 0.733800
vt 0.983834 0.734255
vt 0.983378 0.734630
vt 0.982858 0.734908
vt 0.982294 0.735079
vt 0.680921 0.383963
vt 0.680920 0.383357
vt 0.676250 0.383369
vt 0.676251 0.383975
vt 0.680919 0.382752
vt 0.676250 0.382764
vt 0.680919 0.382147
vt 0.676249 0.382159
vt 0.680918 0.381542
vt 0.676248 0.381554
vt 0.680917 0.380937
vt 0.676247 0.380949
vt 0.680916 0.380332
vt 0.676247 0.380344
vt 0.680916 0.379727
vt 0.676246 0.379739
vt 0.680915 0.379122
vt 0.676245 0.379134
vt 0.680914 0.378517
vt 0.676244 0.378529
vt 0.680913 0.377912
vt 0.676244 0.377924
vt 0.680913 0.377307
vt 0.676243 0.377319
vt 0.680912 0.376701
vt 0.676242 0.376713
vt 0.680911 0.376096
vt 0.676241 0.376108
vt 0.680910 0.375491
vt 0.676241 0.375503
vt 0.680910 0.374886
vt 0.676240 0.374898
vt 0.680909 0.374281
vt 0.676239 0.374293
vt 0.680908 0.373676
vt 0.676238 0.373688
vt 0.680907 0.373071
vt 0.676238 0.373083
vt 0.680907 0.372466
vt 0.676237 0.372478
vt 0.680906 0.371861
vt 0.676236 0.371873
vt 0.680905 0.371256
vt 0.676235 0.371268
vt 0.680904 0.370651
vt 0.676235 0.370663
vt 0.680904 0.370046
vt 0.676234 0.370058
vt 0.680903 0.369440
vt 0.676233 0.369452
vt 0.680902 0.368835
vt 0.676232 0.368847
vt 0.680901 0.368230
vt 0.676232 0.368242
vt 0.680901 0.367625
vt 0.676231 0.367637
vt 0.680900 0.367020
vt 0.676230 0.367032
vt 0.680899 0.366415
vt 0.676229 0.366427
vt 0.680898 0.365810
vt 0.676229 0.365822
vt 0.681052 0.380028
vt 0.681181 0.380899
vt 0.681389 0.381702
vt 0.681669 0.382406
vt 0.682009 0.382983
vt 0.682397 0.383411
vt 0.682818 0.383675
vt 0.683255 0.383763
vt 0.683693 0.383672
vt 0.684113 0.383407
vt 0.684500 0.382976
vt 0.684839 0.382398
vt 0.685117 0.381693
vt 0.685323 0.380889
vt 0.685449 0.380017
vt 0.685491 0.379110
vt 0.685447 0.378204
vt 0.685318 0.377332
vt 0.685110 0.376529
vt 0.684831 0.375826
vt 0.684490 0.375249
vt 0.684102 0.374820
vt 0.683681 0.374557
vt 0.683244 0.374469
vt 0.682807 0.374559
vt 0.682387 0.374825
vt 0.682000 0.375255
vt 0.681661 0.375834
vt 0.681383 0.376539
vt 0.681177 0.377343
vt 0.681050 0.378215
vt 0.681008 0.379122
vt 0.680898 0.365205
vt 0.676228 0.365217
vt 0.680897 0.364600
vt 0.676227 0.364612
vt 0.680996 0.369440
vt 0.681038 0.368534
vt 0.681165 0.367661
vt 0.681371 0.366858
vt 0.681649 0.366153
vt 0.681988 0.365574
vt 0.682375 0.365143
vt 0.682795 0.364878
vt 0.683232 0.364787
vt 0.683669 0.364876
vt 0.684090 0.365139
vt 0.684478 0.365567
vt 0.684819 0.366144
vt 0.685098 0.366848
vt 0.685306 0.367651
vt 0.685435 0.368522
vt 0.685479 0.369429
vt 0.685437 0.370335
vt 0.685311 0.371208
vt 0.685105 0.372012
vt 0.684827 0.372716
vt 0.684488 0.373295
vt 0.684101 0.373726
vt 0.683681 0.373991
vt 0.683243 0.374082
vt 0.682806 0.373993
vt 0.682385 0.373730
vt 0.681997 0.373302
vt 0.681657 0.372724
vt 0.681377 0.372021
vt 0.681169 0.371218
vt 0.681040 0.370347
vt 0.989273 0.321114
vt 0.989052 0.321114
vt 0.989052 0.324654
vt 0.989273 0.324654
vt 0.988830 0.321114
vt 0.988830 0.324654
vt 0.988609 0.321114
vt 0.988609 0.324654
vt 0.988388 0.321114
vt 0.988388 0.324654
vt 0.988166 0.321114
vt 0.988166 0.324654
vt 0.987945 0.321114
vt 0.987945 0.324654
vt 0.987724 0.321114
vt 0.987724 0.324654
vt 0.987503 0.321114
vt 0.987503 0.324654
vt 0.987282 0.321114
vt 0.987282 0.324654
vt 0.987060 0.321114
vt 0.987060 0.324654
vt 0.986839 0.321114
vt 0.986839 0.324654
vt 0.986618 0.321114
vt 0.986618 0.324654
vt 0.986396 0.321114
vt 0.986396 0.324654
vt 0.986175 0.321114
vt 0.986175 0.324654
vt 0.985954 0.321114
vt 0.985954 0.324654
vt 0.985733 0.321114
vt 0.985733 0.324654
vt 0.985512 0.321114
vt 0.985512 0.324654
vt 0.985290 0.321114
vt 0.985290 0.324654
vt 0.985069 0.321114
vt 0.985069 0.324654
vt 0.984848 0.321114
vt 0.984848 0.324654
vt 0.984627 0.321114
vt 0.984627 0.324654
vt 0.984405 0.321114
vt 0.984405 0.324654
vt 0.984184 0.321114
vt 0.984184 0.324654
vt 0.983963 0.321114
vt 0.983963 0.324654
vt 0.983742 0.321114
vt 0.983742 0.324654
vt 0.983520 0.321114
vt 0.983520 0.324654
vt 0.983299 0.321114
vt 0.983299 0.324654
vt 0.983078 0.321114
vt 0.983078 0.324654
vt 0.982857 0.321114
vt 0.982857 0.324654
vt 0.982635 0.321114
vt 0.982635 0.324654
vt 0.987834 0.321010
vt 0.988153 0.320914
vt 0.988447 0.320757
vt 0.988704 0.320545
vt 0.988916 0.320288
vt 0.989073 0.319994
vt 0.989169 0.319675
vt 0.989202 0.319344
vt 0.989169 0.319012
vt 0.989073 0.318694
vt 0.988916 0.318400
vt 0.988704 0.318142
vt 0.988447 0.317931
vt 0.988153 0.317774
vt 0.987834 0.317677
vt 0.987503 0.317645
vt 0.987171 0.317677
vt 0.986852 0.317774
vt 0.986559 0.317931
vt 0.986301 0.318142
vt 0.986090 0.318400
vt 0.985933 0.318694
vt 0.985836 0.319012
vt 0.985804 0.319344
vt 0.985836 0.319675
vt 0.985933 0.319994
vt 0.986090 0.320288
vt 0.986301 0.320545
vt 0.986559 0.320757
vt 0.986852 0.320914
vt 0.987171 0.321010
vt 0.987503 0.321043
vt 0.982414 0.321114
vt 0.982414 0.324654
vt 0.982193 0.321114
vt 0.982193 0.324654
vt 0.983963 0.321043
vt 0.983631 0.321010
vt 0.983312 0.320914
vt 0.983019 0.320757
vt 0.982761 0.320545
vt 0.982550 0.320288
vt 0.982393 0.319994
vt 0.982296 0.319675
vt 0.982264 0.319344
vt 0.982296 0.319012
vt 0.982393 0.318694
vt 0.982550 0.318400
vt 0.982761 0.318142
vt 0.983019 0.317931
vt 0.983312 0.317774
vt 0.983631 0.317677
vt 0.983963 0.317645
vt 0.984294 0.317677
vt 0.984613 0.317774
vt 0.984907 0.317931
vt 0.985164 0.318142
vt 0.985376 0.318400
vt 0.985533 0.318694
vt 0.985629 0.319012
vt 0.985662 0.319344
vt 0.985629 0.319675
vt 0.985533 0.319994
vt 0.985376 0.320288
vt 0.985164 0.320545
vt 0.984907 0.320757
vt 0.984613 0.320914
vt 0.984294 0.321010
vt 0.971674 0.551220
vt 0.986903 0.576605
vt 0.994399 0.606001
vt 0.993874 0.638279
vt 0.985349 0.672197
vt 0.969151 0.706454
vt 0.950610 0.722939
vt 0.922054 0.739600
vt 0.896513 0.738055
vt 0.873018 0.741877
vt 0.852471 0.750922
vt 0.835663 0.764840
vt 0.823239 0.783097
vt 0.815677 0.804992
vt 0.813658 0.825683
vt 0.816103 0.856222
vt 0.815901 0.894945
vt 0.809630 0.922714
vt 0.799039 0.946036
vt 0.784535 0.964016
vt 0.766676 0.975961
vt 0.746149 0.981414
vt 0.723741 0.980165
vt 0.700314 0.972261
vt 0.676769 0.958007
vt 0.654010 0.937950
vt 0.632911 0.912860
vt 0.614284 0.883703
vt 0.598845 0.851599
vt 0.587186 0.817781
vt 0.579756 0.783549
vt 0.576841 0.750218
vt 0.577501 0.723685
vt 0.584823 0.691301
vt 0.595414 0.667979
vt 0.602224 0.655510
vt 0.625472 0.622233
vt 0.654878 0.591213
vt 0.689310 0.563644
vt 0.727446 0.540583
vt 0.767820 0.522918
vt 0.808881 0.511327
vt 0.849051 0.506256
vt 0.886785 0.507899
vt 0.920635 0.516194
vt 0.949298 0.530822
vt 0.470226 0.603532
vt 0.469963 0.603532
vt 0.469963 0.607745
vt 0.470226 0.607745
vt 0.469699 0.603532
vt 0.469699 0.607745
vt 0.469436 0.603532
vt 0.469436 0.607745
vt 0.469173 0.603532
vt 0.469173 0.607745
vt 0.468909 0.603532
vt 0.468909 0.607745
vt 0.468646 0.603532
vt 0.468646 0.607745
vt 0.468383 0.603532
vt 0.468383 0.607745
vt 0.468119 0.603532
vt 0.468119 0.607745
vt 0.467856 0.603532
vt 0.467856 0.607745
vt 0.467593 0.603532
vt 0.467593 0.607745
vt 0.467329 0.603532
vt 0.467329 0.607745
vt 0.467066 0.603532
vt 0.467066 0.607745
vt 0.466803 0.603532
vt 0.466803 0.607745
vt 0.466539 0.603532
vt 0.466539 0.607745
vt 0.466276 0.603532
vt 0.466276 0.607745
vt 0.466013 0.603532
vt 0.466013 0.607745
vt 0.465749 0.603532
vt 0.465749 0.607745
vt 0.465486 0.603532
vt 0.465486 0.607745
vt 0.465223 0.603532
vt 0.465223 0.607745
vt 0.464959 0.603532
vt 0.464959 0.607745
vt 0.464696 0.603532
vt 0.464696 0.607745
vt 0.464432 0.603532
vt 0.464432 0.607745
vt 0.464169 0.603532
vt 0.464169 0.607745
vt 0.463906 0.603532
vt 0.463906 0.607745
vt 0.463642 0.603532
vt 0.463642 0.607745
vt 0.463379 0.603532
vt 0.463379 0.607745
vt 0.463116 0.603532
vt 0.463116 0.607745
vt 0.462852 0.603532
vt 0.462852 0.607745
vt 0.462589 0.603532
vt 0.462589 0.607745
vt 0.462326 0.603532
vt 0.462326 0.607745
vt 0.468514 0.603408
vt 0.468893 0.603293
vt 0.469243 0.603106
vt 0.469549 0.602855
vt 0.469801 0.602548
vt 0.469988 0.602199
vt 0.470103 0.601819
vt 0.470142 0.601425
vt 0.470103 0.601030
vt 0.469988 0.600651
vt 0.469801 0.600301
vt 0.469549 0.599995
vt 0.469243 0.599743
vt 0.468893 0.599556
vt 0.468514 0.599441
vt 0.468119 0.599402
vt 0.467725 0.599441
vt 0.467345 0.599556
vt 0.466996 0.599743
vt 0.466689 0.599995
vt 0.466438 0.600301
vt 0.466251 0.600651
vt 0.466136 0.601030
vt 0.466097 0.601425
vt 0.466136 0.601819
vt 0.466251 0.602199
vt 0.466438 0.602548
vt 0.466689 0.602855
vt 0.466996 0.603106
vt 0.467345 0.603293
vt 0.467725 0.603408
vt 0.468119 0.603447
vt 0.462062 0.603532
vt 0.462062 0.607745
vt 0.461799 0.603532
vt 0.461799 0.607745
vt 0.463906 0.603447
vt 0.463511 0.603408
vt 0.463132 0.603293
vt 0.462782 0.603106
vt 0.462476 0.602855
vt 0.462224 0.602548
vt 0.462037 0.602199
vt 0.461922 0.601819
vt 0.461883 0.601425
vt 0.461922 0.601030
vt 0.462037 0.600651
vt 0.462224 0.600301
vt 0.462476 0.599995
vt 0.462782 0.599743
vt 0.463132 0.599556
vt 0.463511 0.599441
vt 0.463906 0.599402
vt 0.464300 0.599441
vt 0.464680 0.599556
vt 0.465029 0.599743
vt 0.465336 0.599995
vt 0.465587 0.600301
vt 0.465774 0.600651
vt 0.465889 0.601030
vt 0.465928 0.601425
vt 0.465889 0.601819
vt 0.465774 0.602199
vt 0.465587 0.602548
vt 0.465336 0.602855
vt 0.465029 0.603106
vt 0.464680 0.603293
vt 0.464300 0.603408
vt 0.469005 0.562282
vt 0.468727 0.562282
vt 0.468727 0.566731
vt 0.469005 0.566731
vt 0.468448 0.562282
vt 0.468448 0.566731
vt 0.468170 0.562282
vt 0.468170 0.566731
vt 0.467892 0.562282
vt 0.467892 0.566731
vt 0.467614 0.562282
vt 0.467614 0.566731
vt 0.467336 0.562282
vt 0.467336 0.566731
vt 0.467058 0.562282
vt 0.467058 0.566731
vt 0.466780 0.562282
vt 0.466780 0.566731
vt 0.466502 0.562282
vt 0.466502 0.566731
vt 0.466224 0.562282
vt 0.466224 0.566731
vt 0.465946 0.562282
vt 0.465946 0.566731
vt 0.465668 0.562282
vt 0.465668 0.566731
vt 0.465390 0.562282
vt 0.465390 0.566731
vt 0.465112 0.562282
vt 0.465112 0.566731
vt 0.464834 0.562282
vt 0.464834 0.566731
vt 0.464556 0.562282
vt 0.464556 0.566731
vt 0.464278 0.562282
vt 0.464278 0.566731
vt 0.464000 0.562282
vt 0.464000 0.566731
vt 0.463722 0.562282
vt 0.463722 0.566731
vt 0.463444 0.562282
vt 0.463444 0.566731
vt 0.463166 0.562282
vt 0.463166 0.566731
vt 0.462888 0.562282
vt 0.462888 0.566731
vt 0.462610 0.562282
vt 0.462610 0.566731
vt 0.462332 0.562282
vt 0.462332 0.566731
vt 0.462054 0.562282
vt 0.462054 0.566731
vt 0.461776 0.562282
vt 0.461776 0.566731
vt 0.461498 0.562282
vt 0.461498 0.566731
vt 0.461220 0.562282
vt 0.461220 0.566731
vt 0.460942 0.562282
vt 0.460942 0.566731
vt 0.460663 0.562282
vt 0.460663 0.566731
vt 0.467197 0.562152
vt 0.467597 0.562031
vt 0.467967 0.561833
vt 0.468290 0.561568
vt 0.468556 0.561244
vt 0.468753 0.560875
vt 0.468875 0.560474
vt 0.468916 0.560058
vt 0.468875 0.559641
vt 0.468753 0.559241
vt 0.468556 0.558871
vt 0.468290 0.558548
vt 0.467967 0.558282
vt 0.467597 0.558085
vt 0.467197 0.557963
vt 0.466780 0.557922
vt 0.466364 0.557963
vt 0.465963 0.558085
vt 0.465594 0.558282
vt 0.465270 0.558548
vt 0.465005 0.558871
vt 0.464808 0.559241
vt 0.464686 0.559641
vt 0.464645 0.560058
vt 0.464686 0.560474
vt 0.464807 0.560875
vt 0.465005 0.561244
vt 0.465270 0.561568
vt 0.465594 0.561833
vt 0.465963 0.562031
vt 0.466364 0.562152
vt 0.466780 0.562193
vt 0.460385 0.562282
vt 0.460385 0.566731
vt 0.460107 0.562282
vt 0.460107 0.566731
vt 0.462332 0.562193
vt 0.461915 0.562152
vt 0.461515 0.562031
vt 0.461145 0.561833
vt 0.460822 0.561568
vt 0.460556 0.561244
vt 0.460359 0.560875
vt 0.460237 0.560474
vt 0.460196 0.560058
vt 0.460237 0.559641
vt 0.460359 0.559241
vt 0.460556 0.558871
vt 0.460822 0.558548
vt 0.461145 0.558282
vt 0.461515 0.558085
vt 0.461915 0.557963
vt 0.462332 0.557922
vt 0.462748 0.557963
vt 0.463149 0.558085
vt 0.463518 0.558282
vt 0.463842 0.558548
vt 0.464107 0.558871
vt 0.464304 0.559241
vt 0.464426 0.559641
vt 0.464467 0.560058
vt 0.464426 0.560474
vt 0.464304 0.560875
vt 0.464107 0.561244
vt 0.463842 0.561568
vt 0.463518 0.561833
vt 0.463149 0.562031
vt 0.462748 0.562152
s 0
usemtl Palette
f 1/1/1 2/4/1 4/3/1 3/2/1
f 3/2/2 4/3/2 6/6/2 5/5/2
f 5/5/3 6/6/3 8/8/3 7/7/3
f 7/7/4 8/8/4 10/10/4 9/9/4
f 9/9/5 10/10/5 12/12/5 11/11/5
f 11/11/6 12/12/6 14/14/6 13/13/6
f 13/13/7 14/14/7 16/16/7 15/15/7
f 15/15/8 16/16/8 18/18/8 17/17/8
f 17/17/9 18/18/9 20/20/9 19/19/9
f 19/19/10 20/20/10 22/22/10 21/21/10
f 21/21/11 22/22/11 24/24/11 23/23/11
f 23/23/12 24/24/12 26/26/12 25/25/12
f 25/25/13 26/26/13 28/28/13 27/27/13
f 27/27/14 28/28/14 30/30/14 29/29/14
f 29/29/15 30/30/15 32/32/15 31/31/15
f 31/31/16 32/32/16 34/34/16 33/33/16
f 33/33/17 34/34/17 36/36/17 35/35/17
f 35/35/18 36/36/18 38/38/18 37/37/18
f 37/37/19 38/38/19 40/40/19 39/39/19
f 39/39/20 40/40/20 42/42/20 41/41/20
f 41/41/21 42/42/21 44/44/21 43/43/21
f 43/43/22 44/44/22 46/46/22 45/45/22
f 45/45/23 46/46/23 48/48/23 47/47/23
f 47/47/24 48/48/24 50/50/24 49/49/24
f 49/49/25 50/50/25 52/52/25 51/51/25
f 51/51/26 52/52/26 54/54/26 53/53/26
f 53/53/27 54/54/27 56/56/27 55/55/27
f 55/55/28 56/56/28 58/58/28 57/57/28
f 57/57/29 58/58/29 60/60/29 59/59/29
f 59/59/30 60/60/30 62/62/30 61/61/30
f 4/63/31 2/94/31 64/93/31 62/92/31 60/91/31 58/90/31 56/89/31 54/88/31 52/87/31 50/86/31 48/85/31 46/84/31 44/83/31 42/82/31 40/81/31 38/80/31 36/79/31 34/78/31 32/77/31 30/76/31 28/75/31 26/74/31 24/73/31 22/72/31 20/71/31 18/70/31 16/69/31 14/68/31 12/67/31 10/66/31 8/65/31 6/64/31
f 61/61/32 62/62/32 64/96/32 63/95/32
f 63/95/33 64/96/33 2/98/33 1/97/33
f 1/99/34 3/130/34 5/129/34 7/128/34 9/127/34 11/126/34 13/125/34 15/124/34 17/123/34 19/122/34 21/121/34 23/120/34 25/119/34 27/118/34 29/117/34 31/116/34 33/115/34 35/114/34 37/113/34 39/112/34 41/111/34 43/110/34 45/109/34 47/108/34 49/107/34 51/106/34 53/105/34 55/104/34 57/103/34 59/102/34 61/101/34 63/100/34
f 67/131/35 69/134/35 70/133/35 68/132/35
f 69/134/36 71/136/36 72/135/36 70/133/36
f 71/136/37 73/138/37 74/137/37 72/135/37
f 73/138/38 75/140/38 76/139/38 74/137/38
f 75/141/39 77/144/39 78/143/39 76/142/39
f 77/144/40 79/146/40 80/145/40 78/143/40
f 79/146/41 81/148/41 82/147/41 80/145/41
f 81/148/42 83/150/42 84/149/42 82/147/42
f 83/150/43 85/152/43 86/151/43 84/149/43
f 85/152/44 87/154/44 88/153/44 86/151/44
f 87/154/45 89/156/45 90/155/45 88/153/45
f 89/156/46 91/158/46 92/157/46 90/155/46
f 91/159/47 93/162/47 94/161/47 92/160/47
f 93/162/48 95/164/48 96/163/48 94/161/48
f 95/164/49 97/166/49 98/165/49 96/163/49
f 97/166/50 99/168/50 100/167/50 98/165/50
f 99/168/51 101/170/51 102/169/51 100/167/51
f 101/170/52 103/172/52 104/171/52 102/169/52
f 103/172/53 105/174/53 106/173/53 104/171/53
f 107/175/54 109/178/54 110/177/54 108/176/54
f 109/178/55 111/180/55 112/179/55 110/177/55
f 111/180/56 113/182/56 114/181/56 112/179/56
f 113/182/57 115/184/57 116/183/57 114/181/57
f 115/185/58 117/188/58 118/187/58 116/186/58
f 117/188/59 119/190/59 120/189/59 118/187/59
f 119/190/60 121/192/60 122/191/60 120/189/60
f 121/192/61 123/194/61 124/193/61 122/191/61
f 123/194/62 125/196/62 126/195/62 124/193/62
f 146/197/63 152/200/63 153/199/63 147/198/63
f 101/170/64 103/172/64 127/201/64 102/169/64
f 103/172/65 128/203/65 129/202/65 127/201/65
f 128/203/66 130/205/66 131/204/66 129/202/66
f 130/205/67 132/207/67 133/206/67 131/204/67
f 132/208/68 134/211/68 135/210/68 133/209/68
f 134/211/69 136/213/69 137/212/69 135/210/69
f 136/213/70 138/215/70 139/214/70 137/212/70
f 138/215/71 140/217/71 141/216/71 139/214/71
f 140/217/72 142/219/72 143/218/72 141/216/72
f 142/219/73 107/175/73 108/176/73 143/218/73
f 125/220/74 153/199/74 152/200/74 126/221/74
f 68/132/75 66/223/75 65/222/75 67/131/75
f 147/198/76 145/225/76 144/224/76 146/197/76
f 144/224/77 145/225/77 149/227/77 148/226/77
f 148/226/78 149/227/78 151/229/78 150/228/78
f 156/230/79 150/233/79 151/232/79 157/231/79
f 155/234/80 156/230/80 157/231/80 154/235/80
f 65/222/81 66/223/81 155/234/81 154/235/81
f 118/236/34 120/278/34 122/277/34 144/276/34 148/275/34 150/274/34 156/273/34 155/272/34 66/271/34 68/270/34 70/269/34 72/268/34 74/267/34 76/266/34 78/265/34 80/264/34 82/263/34 84/262/34 86/261/34 88/260/34 90/259/34 92/258/34 94/257/34 96/256/34 98/255/34 100/254/34 102/253/34 104/252/34 127/251/34 106/250/34 129/249/34 131/248/34 133/247/34 135/246/34 137/245/34 139/244/34 141/243/34 143/242/34 108/241/34 110/240/34 112/239/34 114/238/34 116/237/34
f 122/277/34 124/282/34 126/281/34 152/280/34 146/279/34 144/276/34
f 158/283/1 159/286/1 161/285/1 160/284/1
f 160/284/2 161/285/2 163/288/2 162/287/2
f 162/287/3 163/288/3 165/290/3 164/289/3
f 164/289/4 165/290/4 167/292/4 166/291/4
f 166/291/5 167/292/5 169/294/5 168/293/5
f 168/293/6 169/294/6 171/296/6 170/295/6
f 170/295/7 171/296/7 173/298/7 172/297/7
f 172/297/8 173/298/8 175/300/8 174/299/8
f 174/299/9 175/300/9 177/302/9 176/301/9
f 176/301/10 177/302/10 179/304/10 178/303/10
f 178/303/11 179/304/11 181/306/11 180/305/11
f 180/305/12 181/306/12 183/308/12 182/307/12
f 182/307/13 183/308/13 185/310/13 184/309/13
f 184/309/14 185/310/14 187/312/14 186/311/14
f 186/311/15 187/312/15 189/314/15 188/313/15
f 188/313/16 189/314/16 191/316/16 190/315/16
f 190/315/17 191/316/17 193/318/17 192/317/17
f 192/317/18 193/318/18 195/320/18 194/319/18
f 194/319/19 195/320/19 197/322/19 196/321/19
f 196/321/20 197/322/20 199/324/20 198/323/20
f 198/323/21 199/324/21 201/326/21 200/325/21
f 200/325/22 201/326/22 203/328/22 202/327/22
f 202/327/23 203/328/23 205/330/23 204/329/23
f 204/329/24 205/330/24 207/332/24 206/331/24
f 206/331/25 207/332/25 209/334/25 208/333/25
f 208/333/26 209/334/26 211/336/26 210/335/26
f 210/335/27 211/336/27 213/338/27 212/337/27
f 212/337/28 213/338/28 215/340/28 214/339/28
f 214/339/29 215/340/29 217/342/29 216/341/29
f 216/341/30 217/342/30 219/344/30 218/343/30
f 161/345/31 159/376/31 221/375/31 219/374/31 217/373/31 215/372/31 213/371/31 211/370/31 209/369/31 207/368/31 205/367/31 203/366/31 201/365/31 199/364/31 197/363/31 195/362/31 193/361/31 191/360/31 189/359/31 187/358/31 185/357/31 183/356/31 181/355/31 179/354/31 177/353/31 175/352/31 173/351/31 171/350/31 169/349/31 167/348/31 165/347/31 163/346/31
f 218/343/32 219/344/32 221/378/32 220/377/32
f 220/377/33 221/378/33 159/380/33 158/379/33
f 158/381/34 160/412/34 162/411/34 164/410/34 166/409/34 168/408/34 170/407/34 172/406/34 174/405/34 176/404/34 178/403/34 180/402/34 182/401/34 184/400/34 186/399/34 188/398/34 190/397/34 192/396/34 194/395/34 196/394/34 198/393/34 200/392/34 202/391/34 204/390/34 206/389/34 208/388/34 210/387/34 212/386/34 214/385/34 216/384/34 218/383/34 220/382/34
f 222/413/1 223/416/1 225/415/1 224/414/1
f 224/414/2 225/415/2 227/418/2 226/417/2
f 226/417/3 227/418/3 229/420/3 228/419/3
f 228/419/4 229/420/4 231/422/4 230/421/4
f 230/421/5 231/422/5 233/424/5 232/423/5
f 232/423/6 233/424/6 235/426/6 234/425/6
f 234/425/7 235/426/7 237/428/7 236/427/7
f 236/427/8 237/428/8 239/430/8 238/429/8
f 238/429/9 239/430/9 241/432/9 240/431/9
f 240/431/10 241/432/10 243/434/10 242/433/10
f 242/433/11 243/434/11 245/436/11 244/435/11
f 244/435/12 245/436/12 247/438/12 246/437/12
f 246/437/13 247/438/13 249/440/13 248/439/13
f 248/439/14 249/440/14 251/442/14 250/441/14
f 250/441/15 251/442/15 253/444/15 252/443/15
f 252/443/16 253/444/16 255/446/16 254/445/16
f 254/445/17 255/446/17 257/448/17 256/447/17
f 256/447/18 257/448/18 259/450/18 258/449/18
f 258/449/19 259/450/19 261/452/19 260/451/19
f 260/451/20 261/452/20 263/454/20 262/453/20
f 262/453/21 263/454/21 265/456/21 264/455/21
f 264/455/22 265/456/22 267/458/22 266/457/22
f 266/457/23 267/458/23 269/460/23 268/459/23
f 268/459/24 269/460/24 271/462/24 270/461/24
f 270/461/25 271/462/25 273/464/25 272/463/25
f 272/463/26 273/464/26 275/466/26 274/465/26
f 274/465/27 275/466/27 277/468/27 276/467/27
f 276/467/28 277/468/28 279/470/28 278/469/28
f 278/469/29 279/470/29 281/472/29 280/471/29
f 280/471/30 281/472/30 283/474/30 282/473/30
f 225/475/31 223/506/31 285/505/31 283/504/31 281/503/31 279/502/31 277/501/31 275/500/31 273/499/31 271/498/31 269/497/31 267/496/31 265/495/31 263/494/31 261/493/31 259/492/31 257/491/31 255/490/31 253/489/31 251/488/31 249/487/31 247/486/31 245/485/31 243/484/31 241/483/31 239/482/31 237/481/31 235/480/31 233/479/31 231/478/31 229/477/31 227/476/31
f 282/473/32 283/474/32 285/508/32 284/507/32
f 284/507/33 285/508/33 223/510/33 222/509/33
f 222/511/34 224/542/34 226/541/34 228/540/34 230/539/34 232/538/34 234/537/34 236/536/34 238/535/34 240/534/34 242/533/34 244/532/34 246/531/34 248/530/34 250/529/34 252/528/34 254/527/34 256/526/34 258/525/34 260/524/34 262/523/34 264/522/34 266/521/34 268/520/34 270/519/34 272/518/34 274/517/34 276/516/34 278/515/34 280/514/34 282/513/34 284/512/34
f 286/543/1 287/546/1 289/545/1 288/544/1
f 288/544/2 289/545/2 291/548/2 290/547/2
f 290/547/3 291/548/3 293/550/3 292/549/3
f 292/549/4 293/550/4 295/552/4 294/551/4
f 294/551/5 295/552/5 297/554/5 296/553/5
f 296/553/6 297/554/6 299/556/6 298/555/6
f 298/555/7 299/556/7 301/558/7 300/557/7
f 300/557/8 301/558/8 303/560/8 302/559/8
f 302/559/9 303/560/9 305/562/9 304/561/9
f 304/561/10 305/562/10 307/564/10 306/563/10
f 306/563/11 307/564/11 309/566/11 308/565/11
f 308/565/12 309/566/12 311/568/12 310/567/12
f 310/567/13 311/568/13 313/570/13 312/569/13
f 312/569/14 313/570/14 315/572/14 314/571/14
f 314/571/15 315/572/15 317/574/15 316/573/15
f 316/573/16 317/574/16 319/576/16 318/575/16
f 318/575/17 319/576/17 321/578/17 320/577/17
f 320/577/18 321/578/18 323/580/18 322/579/18
f 322/579/19 323/580/19 325/582/19 324/581/19
f 324/581/20 325/582/20 327/584/20 326/583/20
f 326/583/21 327/584/21 329/586/21 328/585/21
f 328/585/22 329/586/22 331/588/22 330/587/22
f 330/587/23 331/588/23 333/590/23 332/589/23
f 332/589/24 333/590/24 335/592/24 334/591/24
f 334/591/25 335/592/25 337/594/25 336/593/25
f 336/593/26 337/594/26 339/596/26 338/595/26
f 338/595/27 339/596/27 341/598/27 340/597/27
f 340/597/28 341/598/28 343/600/28 342/599/28
f 342/599/29 343/600/29 345/602/29 344/601/29
f 344/601/30 345/602/30 347/604/30 346/603/30
f 289/605/31 287/636/31 349/635/31 347/634/31 345/633/31 343/632/31 341/631/31 339/630/31 337/629/31 335/628/31 333/627/31 331/626/31 329/625/31 327/624/31 325/623/31 323/622/31 321/621/31 319/620/31 317/619/31 315/618/31 313/617/31 311/616/31 309/615/31 307/614/31 305/613/31 303/612/31 301/611/31 299/610/31 297/609/31 295/608/31 293/607/31 291/606/31
f 346/603/32 347/604/32 349/638/32 348/637/32
f 348/637/33 349/638/33 287/640/33 286/639/33
f 286/641/34 288/672/34 290/671/34 292/670/34 294/669/34 296/668/34 298/667/34 300/666/34 302/665/34 304/664/34 306/663/34 308/662/34 310/661/34 312/660/34 314/659/34 316/658/34 318/657/34 320/656/34 322/655/34 324/654/34 326/653/34 328/652/34 330/651/34 332/650/34 334/649/34 336/648/34 338/647/34 340/646/34 342/645/34 344/644/34 346/643/34 348/642/34
f 350/673/1 351/676/1 353/675/1 352/674/1
f 352/674/2 353/675/2 355/678/2 354/677/2
f 354/677/3 355/678/3 357/680/3 356/679/3
f 356/679/4 357/680/4 359/682/4 358/681/4
f 358/681/5 359/682/5 361/684/5 360/683/5
f 360/683/6 361/684/6 363/686/6 362/685/6
f 362/685/7 363/686/7 365/688/7 364/687/7
f 364/687/8 365/688/8 367/690/8 366/689/8
f 366/689/9 367/690/9 369/692/9 368/691/9
f 368/691/10 369/692/10 371/694/10 370/693/10
f 370/693/11 371/694/11 373/696/11 372/695/11
f 372/695/12 373/696/12 375/698/12 374/697/12
f 374/697/13 375/698/13 377/700/13 376/699/13
f 376/699/14 377/700/14 379/702/14 378/701/14
f 378/701/15 379/702/15 381/704/15 380/703/15
f 380/703/16 381/704/16 383/706/16 382/705/16
f 382/705/17 383/706/17 385/708/17 384/707/17
f 384/707/18 385/708/18 387/710/18 386/709/18
f 386/709/19 387/710/19 389/712/19 388/711/19
f 388/711/20 389/712/20 391/714/20 390/713/20
f 390/713/21 391/714/21 393/716/21 392/715/21
f 392/715/22 393/716/22 395/718/22 394/717/22
f 394/717/23 395/718/23 397/720/23 396/719/23
f 396/719/24 397/720/24 399/722/24 398/721/24
f 398/721/25 399/722/25 401/724/25 400/723/25
f 400/723/26 401/724/26 403/726/26 402/725/26
f 402/725/27 403/726/27 405/728/27 404/727/27
f 404/727/28 405/728/28 407/730/28 406/729/28
f 406/729/29 407/730/29 409/732/29 408/731/29
f 408/731/30 409/732/30 411/734/30 410/733/30
f 353/735/31 351/766/31 413/765/31 411/764/31 409/763/31 407/762/31 405/761/31 403/760/31 401/759/31 399/758/31 397/757/31 395/756/31 393/755/31 391/754/31 389/753/31 387/752/31 385/751/31 383/750/31 381/749/31 379/748/31 377/747/31 375/746/31 373/745/31 371/744/31 369/743/31 367/742/31 365/741/31 363/740/31 361/739/31 359/738/31 357/737/31 355/736/31
f 410/733/32 411/734/32 413/768/32 412/767/32
f 412/767/33 413/768/33 351/770/33 350/769/33
f 350/771/34 352/802/34 354/801/34 356/800/34 358/799/34 360/798/34 362/797/34 364/796/34 366/795/34 368/794/34 370/793/34 372/792/34 374/791/34 376/790/34 378/789/34 380/788/34 382/787/34 384/786/34 386/785/34 388/784/34 390/783/34 392/782/34 394/781/34 396/780/34 398/779/34 400/778/34 402/777/34 404/776/34 406/775/34 408/774/34 410/773/34 412/772/34
f 113/803/31 111/848/31 109/847/31 107/846/31 142/845/31 140/844/31 138/843/31 136/842/31 134/841/31 132/840/31 130/839/31 128/838/31 105/837/31 103/836/31 101/835/31 99/834/31 97/833/31 95/832/31 93/831/31 91/830/31 89/829/31 87/828/31 85/827/31 83/826/31 81/825/31 79/824/31 77/823/31 75/822/31 73/821/31 71/820/31 69/819/31 67/818/31 65/817/31 154/816/31 157/815/31 151/814/31 149/813/31 145/812/31 147/811/31 153/810/31 125/809/31 123/808/31 121/807/31 119/806/31 117/805/31 115/804/31
f 414/849/1 415/852/1 417/851/1 416/850/1
f 416/850/2 417/851/2 419/854/2 418/853/2
f 418/853/3 419/854/3 421/856/3 420/855/3
f 420/855/4 421/856/4 423/858/4 422/857/4
f 422/857/5 423/858/5 425/860/5 424/859/5
f 424/859/6 425/860/6 427/862/6 426/861/6
f 426/861/7 427/862/7 429/864/7 428/863/7
f 428/863/8 429/864/8 431/866/8 430/865/8
f 430/865/9 431/866/9 433/868/9 432/867/9
f 432/867/10 433/868/10 435/870/10 434/869/10
f 434/869/11 435/870/11 437/872/11 436/871/11
f 436/871/12 437/872/12 439/874/12 438/873/12
f 438/873/13 439/874/13 441/876/13 440/875/13
f 440/875/14 441/876/14 443/878/14 442/877/14
f 442/877/15 443/878/15 445/880/15 444/879/15
f 444/879/16 445/880/16 447/882/16 446/881/16
f 446/881/17 447/882/17 449/884/17 448/883/17
f 448/883/18 449/884/18 451/886/18 450/885/18
f 450/885/19 451/886/19 453/888/19 452/887/19
f 452/887/20 453/888/20 455/890/20 454/889/20
f 454/889/21 455/890/21 457/892/21 456/891/21
f 456/891/22 457/892/22 459/894/22 458/893/22
f 458/893/23 459/894/23 461/896/23 460/895/23
f 460/895/24 461/896/24 463/898/24 462/897/24
f 462/897/25 463/898/25 465/900/25 464/899/25
f 464/899/26 465/900/26 467/902/26 466/901/26
f 466/901/27 467/902/27 469/904/27 468/903/27
f 468/903/28 469/904/28 471/906/28 470/905/28
f 470/905/29 471/906/29 473/908/29 472/907/29
f 472/907/30 473/908/30 475/910/30 474/909/30
f 417/911/31 415/942/31 477/941/31 475/940/31 473/939/31 471/938/31 469/937/31 467/936/31 465/935/31 463/934/31 461/933/31 459/932/31 457/931/31 455/930/31 453/929/31 451/928/31 449/927/31 447/926/31 445/925/31 443/924/31 441/923/31 439/922/31 437/921/31 435/920/31 433/919/31 431/918/31 429/917/31 427/916/31 425/915/31 423/914/31 421/913/31 419/912/31
f 474/909/32 475/910/32 477/944/32 476/943/32
f 476/943/33 477/944/33 415/946/33 414/945/33
f 414/947/34 416/978/34 418/977/34 420/976/34 422/975/34 424/974/34 426/973/34 428/972/34 430/971/34 432/970/34 434/969/34 436/968/34 438/967/34 440/966/34 442/965/34 444/964/34 446/963/34 448/962/34 450/961/34 452/960/34 454/959/34 456/958/34 458/957/34 460/956/34 462/955/34 464/954/34 466/953/34 468/952/34 470/951/34 472/950/34 474/949/34 476/948/34
f 478/979/1 479/982/1 481/981/1 480/980/1
f 480/980/2 481/981/2 483/984/2 482/983/2
f 482/983/3 483/984/3 485/986/3 484/985/3
f 484/985/4 485/986/4 487/988/4 486/987/4
f 486/987/5 487/988/5 489/990/5 488/989/5
f 488/989/6 489/990/6 491/992/6 490/991/6
f 490/991/7 491/992/7 493/994/7 492/993/7
f 492/993/8 493/994/8 495/996/8 494/995/8
f 494/995/9 495/996/9 497/998/9 496/997/9
f 496/997/10 497/998/10 499/1000/10 498/999/10
f 498/999/11 499/1000/11 501/1002/11 500/1001/11
f 500/1001/12 501/1002/12 503/1004/12 502/1003/12
f 502/1003/13 503/1004/13 505/1006/13 504/1005/13
f 504/1005/14 505/1006/14 507/1008/14 506/1007/14
f 506/1007/15 507/1008/15 509/1010/15 508/1009/15
f 508/1009/16 509/1010/16 511/1012/16 510/1011/16
f 510/1011/17 511/1012/17 513/1014/17 512/1013/17
f 512/1013/18 513/1014/18 515/1016/18 514/1015/18
f 514/1015/19 515/1016/19 517/1018/19 516/1017/19
f 516/1017/20 517/1018/20 519/1020/20 518/1019/20
f 518/1019/21 519/1020/21 521/1022/21 520/1021/21
f 520/1021/22 521/1022/22 523/1024/22 522/1023/22
f 522/1023/23 523/1024/23 525/1026/23 524/1025/23
f 524/1025/24 525/1026/24 527/1028/24 526/1027/24
f 526/1027/25 527/1028/25 529/1030/25 528/1029/25
f 528/1029/26 529/1030/26 531/1032/26 530/1031/26
f 530/1031/27 531/1032/27 533/1034/27 532/1033/27
f 532/1033/28 533/1034/28 535/1036/28 534/1035/28
f 534/1035/29 535/1036/29 537/1038/29 536/1037/29
f 536/1037/30 537/1038/30 539/1040/30 538/1039/30
f 481/1041/31 479/1072/31 541/1071/31 539/1070/31 537/1069/31 535/1068/31 533/1067/31 531/1066/31 529/1065/31 527/1064/31 525/1063/31 523/1062/31 521/1061/31 519/1060/31 517/1059/31 515/1058/31 513/1057/31 511/1056/31 509/1055/31 507/1054/31 505/1053/31 503/1052/31 501/1051/31 499/1050/31 497/1049/31 495/1048/31 493/1047/31 491/1046/31 489/1045/31 487/1044/31 485/1043/31 483/1042/31
f 538/1039/32 539/1040/32 541/1074/32 540/1073/32
f 540/1073/33 541/1074/33 479/1076/33 478/1075/33
f 478/1077/34 480/1108/34 482/1107/34 484/1106/34 486/1105/34 488/1104/34 490/1103/34 492/1102/34 494/1101/34 496/1100/34 498/1099/34 500/1098/34 502/1097/34 504/1096/34 506/1095/34 508/1094/34 510/1093/34 512/1092/34 514/1091/34 516/1090/34 518/1089/34 520/1088/34 522/1087/34 524/1086/34 526/1085/34 528/1084/34 530/1083/34 532/1082/34 534/1081/34 536/1080/34 538/1079/34 540/1078/34
