# Blender 5.0.1
# www.blender.org
mtllib Pictures2.mtl
o Photo1
v 0.077400 2.291600 -2.794050
v 0.077400 1.708400 -2.794050
v -0.797400 2.291600 -2.794050
v -0.797400 1.708400 -2.794050
v -0.709920 1.766720 -2.791620
v -0.709920 2.233280 -2.791620
v -0.010080 2.233280 -2.791620
v -0.010080 1.766720 -2.791620
v -0.000563 2.239625 -2.786760
v -0.010080 2.233280 -2.789051
v -0.010080 1.766720 -2.789051
v -0.000563 1.760376 -2.786760
v -0.709920 2.233280 -2.789051
v -0.719437 2.239625 -2.786760
v -0.719437 1.760376 -2.786760
v -0.709920 1.766720 -2.789051
v -0.797400 1.708400 -2.784191
v -0.787884 1.714744 -2.781900
v -0.787884 2.285256 -2.781900
v -0.797400 2.291600 -2.784191
v 0.077400 2.291600 -2.784191
v 0.067883 2.285256 -2.781900
v 0.067883 1.714744 -2.781900
v 0.077400 1.708400 -2.784191
v 0.030295 2.260197 -2.784330
v 0.037025 2.264683 -2.784330
v 0.037025 1.735317 -2.784330
v 0.030295 1.739803 -2.784330
v -0.750295 2.260197 -2.784330
v -0.757025 2.264683 -2.784330
v -0.757025 1.735317 -2.784330
v -0.750295 1.739803 -2.784330
v -0.750295 2.260197 -2.785950
v -0.757025 2.264683 -2.785950
v -0.757025 1.735317 -2.785950
v -0.750295 1.739803 -2.785950
v 0.037025 1.735317 -2.785950
v 0.030295 1.739803 -2.785950
v 0.030295 2.260197 -2.785950
v 0.037025 2.264683 -2.785950
vn -0.0000 -0.0000 1.0000
vn -0.2341 -0.0000 0.9722
vn 0.2340 -0.0000 0.9722
vn -0.0000 0.3396 0.9406
vn -0.0000 -0.3396 0.9406
vn 0.2341 -0.0000 0.9722
vn -0.0000 -0.3397 0.9405
vn -0.0000 0.3397 0.9405
vn -1.0000 -0.0000 -0.0000
vn -0.0000 -1.0000 -0.0000
vn -0.0000 1.0000 -0.0000
vn 1.0000 -0.0000 -0.0000
vn -0.0785 -0.0000 0.9969
vn -0.0000 -0.1173 0.9931
vn -0.0000 0.1173 0.9931
vn 0.0785 -0.0000 0.9969
vt 0.846002 0.853792
vt 0.151955 0.841646
vt 0.148819 0.146208
vt 0.842866 0.158354
vt 0.949445 0.053021
vt 0.049137 0.045531
vt 0.036017 0.030838
vt 0.964088 0.039960
vt 0.045377 0.946979
vt 0.945684 0.954469
vt 0.958805 0.969162
vt 0.030733 0.960040
vt 0.849338 0.149818
vt 0.140119 0.139614
vt 0.129383 0.129448
vt 0.859346 0.139263
vt 0.145483 0.850182
vt 0.854702 0.860386
vt 0.865438 0.870552
vt 0.135475 0.860736
vt 0.994821 0.004115
vt 0.994821 1.000000
vt 0.000000 0.000000
vt 0.000000 0.995884
vt 0.918874 0.927332
vt 0.079472 0.913324
vt 0.083714 0.907704
vt 0.913138 0.923002
vt 0.075947 0.072668
vt 0.915349 0.086675
vt 0.911108 0.092296
vt 0.081683 0.076998
vt 0.898632 0.104565
vt 0.094198 0.089727
vt 0.088568 0.085468
vt 0.902806 0.099045
vt 0.096189 0.895435
vt 0.092015 0.900955
vt 0.900623 0.910272
vt 0.906253 0.914532
s 0
usemtl Photo1
f 8/1/1 7/2/1 6/3/1 5/4/1
f 18/5/2 19/6/2 20/7/2 17/8/2
f 22/9/3 23/10/3 24/11/3 21/12/3
f 21/12/4 20/7/4 19/6/4 22/9/4
f 17/8/5 24/11/5 23/10/5 18/5/5
f 16/13/6 13/14/6 14/15/6 15/16/6
f 10/17/2 11/18/2 12/19/2 9/20/2
f 9/20/7 14/15/7 13/14/7 10/17/7
f 15/16/8 12/19/8 11/18/8 16/13/8
f 11/18/9 10/17/9 7/2/9 8/1/9
f 10/17/10 13/14/10 6/3/10 7/2/10
f 16/13/11 11/18/11 8/1/11 5/4/11
f 13/14/12 16/13/12 5/4/12 6/3/12
f 4/21/10 2/22/10 24/11/10 17/8/10
f 17/8/9 20/7/9 3/23/9 4/21/9
f 1/24/11 3/23/11 20/7/11 21/12/11
f 2/22/12 1/24/12 21/12/12 24/11/12
f 27/25/9 26/26/9 40/27/9 37/28/9
f 30/29/12 31/30/12 35/31/12 34/32/12
f 32/33/9 29/34/9 33/35/9 36/36/9
f 29/34/11 25/37/11 39/38/11 33/35/11
f 9/20/13 12/19/13 28/39/13 25/37/13
f 30/29/14 26/26/14 22/9/14 19/6/14
f 14/15/14 9/20/14 25/37/14 29/34/14
f 26/26/13 27/25/13 23/10/13 22/9/13
f 27/25/15 31/30/15 18/5/15 23/10/15
f 12/19/15 15/16/15 32/33/15 28/39/15
f 31/30/16 30/29/16 19/6/16 18/5/16
f 15/16/16 14/15/16 29/34/16 32/33/16
f 34/32/1 35/31/1 36/36/1 33/35/1
f 35/31/1 37/28/1 38/40/1 36/36/1
f 40/27/1 34/32/1 33/35/1 39/38/1
f 37/28/1 40/27/1 39/38/1 38/40/1
f 26/26/10 30/29/10 34/32/10 40/27/10
f 28/39/10 32/33/10 36/36/10 38/40/10
f 31/30/11 27/25/11 37/28/11 35/31/11
f 25/37/12 28/39/12 38/40/12 39/38/12
o Photo2
v 0.042400 1.501600 -2.792800
v 0.042400 1.098400 -2.792800
v -0.562400 1.501600 -2.792800
v -0.562400 1.098400 -2.792800
v -0.501920 1.138720 -2.791120
v -0.501920 1.461280 -2.791120
v -0.018080 1.461280 -2.791120
v -0.018080 1.138720 -2.791120
v -0.011501 1.465666 -2.787760
v -0.018080 1.461280 -2.789344
v -0.018080 1.138720 -2.789344
v -0.011501 1.134334 -2.787760
v -0.501920 1.461280 -2.789344
v -0.508499 1.465666 -2.787760
v -0.508499 1.134334 -2.787760
v -0.501920 1.138720 -2.789344
v -0.562400 1.098400 -2.785984
v -0.555821 1.102786 -2.784400
v -0.555821 1.497214 -2.784400
v -0.562400 1.501600 -2.785984
v 0.042400 1.501600 -2.785984
v 0.035821 1.497214 -2.784400
v 0.035821 1.102786 -2.784400
v 0.042400 1.098400 -2.785984
v 0.009834 1.479889 -2.786080
v 0.014486 1.482991 -2.786080
v 0.014486 1.117009 -2.786080
v 0.009834 1.120111 -2.786080
v -0.529834 1.479889 -2.786080
v -0.534486 1.482991 -2.786080
v -0.534486 1.117009 -2.786080
v -0.529834 1.120111 -2.786080
v -0.529834 1.479889 -2.787200
v -0.534486 1.482991 -2.787200
v -0.534486 1.117009 -2.787200
v -0.529834 1.120111 -2.787200
v 0.014486 1.117009 -2.787200
v 0.009834 1.120111 -2.787200
v 0.009834 1.479889 -2.787200
v 0.014486 1.482991 -2.787200
vn -0.0000 -0.0000 1.0000
vn -0.2340 -0.0000 0.9722
vn 0.2340 -0.0000 0.9722
vn -0.0000 0.3396 0.9406
vn -0.0000 -0.3396 0.9406
vn -1.0000 -0.0000 -0.0000
vn -0.0000 -1.0000 -0.0000
vn -0.0000 1.0000 -0.0000
vn 1.0000 -0.0000 -0.0000
vn -0.0785 -0.0000 0.9969
vn -0.0000 -0.1173 0.9931
vn -0.0000 0.1173 0.9931
vn 0.0785 -0.0000 0.9969
vt 0.846002 0.853792
vt 0.151955 0.841646
vt 0.148819 0.146208
vt 0.842866 0.158354
vt 0.949445 0.053021
vt 0.049137 0.045531
vt 0.036017 0.030838
vt 0.964088 0.039960
vt 0.045377 0.946979
vt 0.945684 0.954469
vt 0.958805 0.969162
vt 0.030733 0.960040
vt 0.849338 0.149818
vt 0.140119 0.139614
vt 0.129383 0.129448
vt 0.859346 0.139263
vt 0.145483 0.850182
vt 0.854702 0.860386
vt 0.865438 0.870552
vt 0.135475 0.860736
vt 0.994821 0.004115
vt 0.994821 1.000000
vt 0.000000 0.000000
vt 0.000000 0.995884
vt 0.918874 0.927332
vt 0.079472 0.913324
vt 0.083714 0.907704
vt 0.913138 0.923002
vt 0.075947 0.072668
vt 0.915349 0.086675
vt 0.911108 0.092296
vt 0.081683 0.076998
vt 0.898632 0.104565
vt 0.094198 0.089727
vt 0.088568 0.085468
vt 0.902806 0.099045
vt 0.096189 0.895435
vt 0.092015 0.900955
vt 0.900623 0.910272
vt 0.906253 0.914532
s 0
usemtl Photo2
f 48/41/17 47/42/17 46/43/17 45/44/17
f 58/45/18 59/46/18 60/47/18 57/48/18
f 62/49/19 63/50/19 64/51/19 61/52/19
f 61/52/20 60/47/20 59/46/20 62/49/20
f 57/48/21 64/51/21 63/50/21 58/45/21
f 56/53/19 53/54/19 54/55/19 55/56/19
f 50/57/18 51/58/18 52/59/18 49/60/18
f 49/60/21 54/55/21 53/54/21 50/57/21
f 55/56/20 52/59/20 51/58/20 56/53/20
f 51/58/22 50/57/22 47/42/22 48/41/22
f 50/57/23 53/54/23 46/43/23 47/42/23
f 56/53/24 51/58/24 48/41/24 45/44/24
f 53/54/25 56/53/25 45/44/25 46/43/25
f 44/61/23 42/62/23 64/51/23 57/48/23
f 57/48/22 60/47/22 43/63/22 44/61/22
f 41/64/24 43/63/24 60/47/24 61/52/24
f 42/62/25 41/64/25 61/52/25 64/51/25
f 67/65/22 66/66/22 80/67/22 77/68/22
f 70/69/25 71/70/25 75/71/25 74/72/25
f 72/73/22 69/74/22 73/75/22 76/76/22
f 69/74/24 65/77/24 79/78/24 73/75/24
f 49/60/26 52/59/26 68/79/26 65/77/26
f 70/69/27 66/66/27 62/49/27 59/46/27
f 54/55/27 49/60/27 65/77/27 69/74/27
f 66/66/26 67/65/26 63/50/26 62/49/26
f 67/65/28 71/70/28 58/45/28 63/50/28
f 52/59/28 55/56/28 72/73/28 68/79/28
f 71/70/29 70/69/29 59/46/29 58/45/29
f 55/56/29 54/55/29 69/74/29 72/73/29
f 74/72/17 75/71/17 76/76/17 73/75/17
f 75/71/17 77/68/17 78/80/17 76/76/17
f 80/67/17 74/72/17 73/75/17 79/78/17
f 77/68/17 80/67/17 79/78/17 78/80/17
f 66/66/23 70/69/23 74/72/23 80/67/23
f 68/79/23 72/73/23 76/76/23 78/80/23
f 71/70/24 67/65/24 77/68/24 75/71/24
f 65/77/25 68/79/25 78/80/25 79/78/25
o Photo3
v 0.960000 1.260000 -2.796000
v 0.240000 1.260000 -2.796000
v 0.960000 2.340000 -2.796000
v 0.240000 2.340000 -2.796000
v 0.312000 2.232000 -2.792400
v 0.888000 2.232000 -2.792400
v 0.888000 1.368000 -2.792400
v 0.312000 1.368000 -2.792400
v 0.895833 1.356251 -2.785200
v 0.888000 1.368000 -2.788594
v 0.312000 1.368000 -2.788594
v 0.304167 1.356251 -2.785200
v 0.888000 2.232000 -2.788594
v 0.895833 2.243749 -2.785200
v 0.304168 2.243749 -2.785200
v 0.312000 2.232000 -2.788594
v 0.240000 2.340000 -2.781394
v 0.247833 2.328251 -2.778000
v 0.952168 2.328251 -2.778000
v 0.960000 2.340000 -2.781394
v 0.960000 1.260000 -2.781394
v 0.952168 1.271749 -2.778000
v 0.247833 1.271749 -2.778000
v 0.240000 1.260000 -2.781394
v 0.921231 1.318154 -2.781600
v 0.926769 1.309846 -2.781600
v 0.273231 1.309846 -2.781600
v 0.278769 1.318154 -2.781600
v 0.921231 2.281846 -2.781600
v 0.926769 2.290154 -2.781600
v 0.273231 2.290154 -2.781600
v 0.278769 2.281846 -2.781600
v 0.921231 2.281846 -2.784000
v 0.926769 2.290154 -2.784000
v 0.273231 2.290154 -2.784000
v 0.278769 2.281846 -2.784000
v 0.273231 1.309846 -2.784000
v 0.278769 1.318154 -2.784000
v 0.921231 1.318154 -2.784000
v 0.926769 1.309846 -2.784000
vn -0.0000 -0.0000 1.0000
vn -0.0000 0.2775 0.9607
vn -0.0000 -0.2775 0.9607
vn 0.3976 -0.0000 0.9176
vn -0.3976 -0.0000 0.9176
vn -0.0000 1.0000 -0.0000
vn -1.0000 -0.0000 -0.0000
vn 1.0000 -0.0000 -0.0000
vn -0.0000 -1.0000 -0.0000
vn -0.0000 0.0941 0.9956
vn -0.1403 -0.0000 0.9901
vn 0.1403 -0.0000 0.9901
vn -0.0000 -0.0941 0.9956
vt 0.115218 0.135615
vt 0.844420 0.133474
vt 0.844422 0.866521
vt 0.115219 0.864382
vt 0.025195 0.952310
vt 0.934445 0.971037
vt 0.945219 0.983916
vt 0.014421 0.962843
vt 0.934444 0.028962
vt 0.025194 0.047688
vt 0.014420 0.037155
vt 0.945219 0.016084
vt 0.111987 0.867388
vt 0.847654 0.871667
vt 0.858264 0.884290
vt 0.101378 0.877723
vt 0.847651 0.128328
vt 0.111986 0.132609
vt 0.101376 0.122275
vt 0.858261 0.115704
vt 0.000000 0.977012
vt 0.000000 0.022985
vt 0.959639 1.000000
vt 0.959639 0.000000
vt 0.058175 0.079977
vt 0.901462 0.064524
vt 0.899509 0.068315
vt 0.060129 0.081820
vt 0.901464 0.935472
vt 0.058177 0.920019
vt 0.060130 0.918176
vt 0.899510 0.931680
vt 0.068813 0.909812
vt 0.890828 0.919148
vt 0.892755 0.922930
vt 0.066885 0.911618
vt 0.890826 0.080847
vt 0.892753 0.077065
vt 0.068811 0.090184
vt 0.066884 0.088379
s 0
usemtl Photo3
f 88/81/30 87/82/30 86/83/30 85/84/30
f 98/85/31 99/86/31 100/87/31 97/88/31
f 102/89/32 103/90/32 104/91/32 101/92/32
f 101/92/33 100/87/33 99/86/33 102/89/33
f 97/88/34 104/91/34 103/90/34 98/85/34
f 96/93/32 93/94/32 94/95/32 95/96/32
f 90/97/31 91/98/31 92/99/31 89/100/31
f 89/100/34 94/95/34 93/94/34 90/97/34
f 95/96/33 92/99/33 91/98/33 96/93/33
f 91/98/35 90/97/35 87/82/35 88/81/35
f 90/97/36 93/94/36 86/83/36 87/82/36
f 96/93/37 91/98/37 88/81/37 85/84/37
f 93/94/38 96/93/38 85/84/38 86/83/38
f 84/101/36 82/102/36 104/91/36 97/88/36
f 97/88/35 100/87/35 83/103/35 84/101/35
f 81/104/37 83/103/37 100/87/37 101/92/37
f 82/102/38 81/104/38 101/92/38 104/91/38
f 107/105/35 106/106/35 120/107/35 117/108/35
f 110/109/38 111/110/38 115/111/38 114/112/38
f 112/113/35 109/114/35 113/115/35 116/116/35
f 109/114/37 105/117/37 119/118/37 113/115/37
f 89/100/39 92/99/39 108/119/39 105/117/39
f 110/109/40 106/106/40 102/89/40 99/86/40
f 94/95/40 89/100/40 105/117/40 109/114/40
f 106/106/39 107/105/39 103/90/39 102/89/39
f 107/105/41 111/110/41 98/85/41 103/90/41
f 92/99/41 95/96/41 112/113/41 108/119/41
f 111/110/42 110/109/42 99/86/42 98/85/42
f 95/96/42 94/95/42 109/114/42 112/113/42
f 114/112/30 115/111/30 116/116/30 113/115/30
f 115/111/30 117/108/30 118/120/30 116/116/30
f 120/107/30 114/112/30 113/115/30 119/118/30
f 117/108/30 120/107/30 119/118/30 118/120/30
f 106/106/36 110/109/36 114/112/36 120/107/36
f 108/119/36 112/113/36 116/116/36 118/120/36
f 111/110/37 107/105/37 117/108/37 115/111/37
f 105/117/38 108/119/38 118/120/38 119/118/38
