# Blender 5.0.1
# www.blender.org
mtllib Pictures3.mtl
o Painting1
v 6.947301 1.496426 -0.125456
v 6.947301 1.496426 -1.243798
v 6.947301 1.123645 -1.243798
v 6.947301 1.123645 -0.125456
v 6.937981 1.496426 -0.125456
v 6.937982 1.496426 -1.243798
v 6.937982 1.123645 -1.243798
v 6.937982 1.123645 -0.125456
v 6.947301 1.129858 -0.131669
v 6.947301 1.129858 -1.237585
v 6.947301 1.490213 -1.237585
v 6.947301 1.490213 -0.131669
v 6.937982 1.129858 -0.131669
v 6.937982 1.129858 -1.237585
v 6.937982 1.490213 -1.237585
v 6.937981 1.490213 -0.131669
v 6.947301 1.490213 -0.131669
v 6.947301 1.490213 -1.237585
v 6.947301 1.129858 -1.237585
v 6.947301 1.129858 -0.131669
v 6.939224 1.490213 -0.131669
v 6.939224 1.490213 -1.237585
v 6.939224 1.129858 -1.237585
v 6.939224 1.129858 -0.131669
v 6.947301 1.490213 -0.131669
v 6.947301 1.490213 -1.237585
v 6.947301 1.129858 -1.237585
v 6.947301 1.129858 -0.131669
v 6.956621 1.524294 -1.797353
v 6.947301 1.524294 -1.797353
v 6.956621 1.518082 -1.791140
v 6.947301 1.518081 -1.791140
v 6.956621 1.518081 -1.791140
v 6.948544 1.518081 -1.791140
vn -0.0000 -1.0000 -0.0000
vn -0.0000 -0.0000 1.0000
vn -0.0000 1.0000 -0.0000
vn -0.0000 -0.0000 -1.0000
vn 1.0000 -0.0000 -0.0000
vn -1.0000 -0.0000 -0.0000
vt 0.000000 0.000000
vt 1.000000 1.000000
vt -0.000000 1.000000
vt -0.000000 0.000000
vt 1.000000 0.000000
vt 0.999999 1.000000
vt 0.999999 0.000000
vt 1.000000 0.000001
vt 0.000000 0.999999
vt 0.000000 -0.000000
vt 0.930091 0.622892
vt 0.362267 0.622892
vt 0.362267 0.534990
vt 0.930091 0.534990
vt 0.000000 1.000000
s 1
usemtl Metal.black.001
f 8/1/1 7/1/1 3/1/1 4/1/1
f 5/1/2 8/1/2 4/1/2 1/1/2
f 14/1/3 13/1/3 9/1/3 10/1/3
f 15/1/2 14/1/2 10/1/2 11/1/2
f 16/1/1 15/1/1 11/1/1 12/1/1
f 13/1/4 16/1/4 12/1/4 9/1/4
f 6/1/3 5/1/3 1/1/3 2/1/3
f 12/1/5 1/1/5 9/1/5
f 4/1/5 9/1/5 1/1/5
f 3/1/5 9/1/5 4/1/5
f 3/1/5 10/1/5 9/1/5
f 2/1/5 10/1/5 3/1/5
f 2/1/5 11/1/5 10/1/5
f 1/1/5 11/1/5 2/1/5
f 1/1/5 12/1/5 11/1/5
f 16/1/6 13/1/6 5/1/6
f 8/1/6 5/1/6 13/1/6
f 7/1/6 8/1/6 13/1/6
f 7/1/6 13/1/6 14/1/6
f 6/1/6 7/1/6 14/1/6
f 6/1/6 14/1/6 15/1/6
f 5/1/6 6/1/6 15/1/6
f 5/1/6 15/1/6 16/1/6
f 7/1/4 6/1/4 2/1/4 3/1/4
f 24/2/1 23/3/1 19/4/1 20/5/1
f 21/6/2 24/3/2 20/4/2 17/7/2
f 19/8/5 18/2/5 17/9/5 20/10/5
f 22/2/3 21/15/3 17/1/3 18/5/3
f 23/6/4 22/15/4 18/1/4 19/7/4
f 27/8/5 26/2/5 25/9/5 28/10/5
usemtl Painted.003
f 21/11/6 22/12/6 23/13/6 24/14/6
l 29 30
l 31 32
l 33 34
o Painting2
v 3.517065 1.478102 -2.791859
v 2.411149 1.478102 -2.791859
v 2.411149 1.117747 -2.791859
v 3.517065 1.117747 -2.791859
v 3.523278 1.484315 -2.791859
v 2.404936 1.484315 -2.791859
v 2.404936 1.111534 -2.791859
v 3.523278 1.111534 -2.791859
v 3.523278 1.484315 -2.782539
v 2.404936 1.484315 -2.782539
v 2.404936 1.111534 -2.782540
v 3.523278 1.111534 -2.782540
v 3.517065 1.117747 -2.791859
v 2.411149 1.117747 -2.791859
v 2.411149 1.478102 -2.791859
v 3.517065 1.478102 -2.791859
v 3.517065 1.117747 -2.782540
v 2.411149 1.117747 -2.782540
v 2.411149 1.478102 -2.782539
v 3.517065 1.478102 -2.782539
v 3.517065 1.478102 -2.791859
v 2.411149 1.478102 -2.791859
v 2.411149 1.117747 -2.791859
v 3.517065 1.117747 -2.791859
v 3.517065 1.478102 -2.783782
v 2.411149 1.478102 -2.783782
v 2.411149 1.117747 -2.783782
v 3.517065 1.117747 -2.783782
v 1.851385 1.080604 -2.801179
v 2.969727 1.080604 -2.801179
v 1.851385 1.080604 -2.791859
v 2.969727 1.080604 -2.791859
v 2.963514 1.086817 -2.801179
v 1.857598 1.086817 -2.801179
v 2.963514 1.086817 -2.791859
v 2.963514 1.086817 -2.801179
v 2.963514 1.086817 -2.793102
vn -0.0000 -0.0000 -1.0000
vn -0.0000 -1.0000 -0.0000
vn 1.0000 -0.0000 -0.0000
vn -0.0000 1.0000 -0.0000
vn -1.0000 -0.0000 -0.0000
vn -0.0000 -0.0000 1.0000
vt 1.000000 0.000001
vt 1.000000 1.000000
vt 0.000000 0.999999
vt 0.000000 -0.000000
vt 0.000000 0.000000
vt -0.000000 1.000000
vt -0.000000 0.000000
vt 1.000000 0.000000
vt 0.999999 1.000000
vt 0.999999 0.000000
vt 0.936942 0.620592
vt 0.326053 0.620592
vt 0.326053 0.526559
vt 0.936942 0.526559
vt 0.000000 1.000000
s 1
usemtl Painted.004
f 59/26/12 60/27/12 61/28/12 62/29/12
usemtl Metal.black
f 37/16/7 36/17/7 35/18/7 38/19/7
f 46/20/8 45/20/8 41/20/8 42/20/8
f 43/20/9 46/20/9 42/20/9 39/20/9
f 52/20/10 51/20/10 47/20/10 48/20/10
f 53/20/9 52/20/9 48/20/9 49/20/9
f 54/20/8 53/20/8 49/20/8 50/20/8
f 51/20/11 54/20/11 50/20/11 47/20/11
f 44/20/10 43/20/10 39/20/10 40/20/10
f 50/20/7 39/20/7 47/20/7
f 42/20/7 47/20/7 39/20/7
f 41/20/7 47/20/7 42/20/7
f 41/20/7 48/20/7 47/20/7
f 40/20/7 48/20/7 41/20/7
f 40/20/7 49/20/7 48/20/7
f 39/20/7 49/20/7 40/20/7
f 39/20/7 50/20/7 49/20/7
f 54/20/12 51/20/12 43/20/12
f 46/20/12 43/20/12 51/20/12
f 45/20/12 46/20/12 51/20/12
f 45/20/12 51/20/12 52/20/12
f 44/20/12 45/20/12 52/20/12
f 44/20/12 52/20/12 53/20/12
f 43/20/12 44/20/12 53/20/12
f 43/20/12 53/20/12 54/20/12
f 45/20/11 44/20/11 40/20/11 41/20/11
f 62/17/8 61/21/8 57/22/8 58/23/8
f 59/24/9 62/21/9 58/22/9 55/25/9
f 57/16/7 56/17/7 55/18/7 58/19/7
f 60/17/10 59/30/10 55/20/10 56/23/10
f 61/24/11 60/30/11 56/20/11 57/25/11
l 63 65
l 64 66
l 69 67
l 68 63
l 67 64
l 69 66
l 70 71
