# Blender 5.0.1
# www.blender.org
mtllib Pictures1.mtl
o Film1
v 4.510400 2.207200 1.728000
v 4.510400 1.592800 1.728000
v 5.329600 2.207200 1.728000
v 5.329600 1.592800 1.728000
v 5.247680 1.654240 1.723200
v 5.247680 2.145760 1.723200
v 4.592320 2.145760 1.723200
v 4.592320 1.654240 1.723200
v 4.583408 2.152444 1.713600
v 4.592320 2.145760 1.718125
v 4.592320 1.654240 1.718125
v 4.583408 1.647556 1.713600
v 5.247680 2.145760 1.718125
v 5.256592 2.152444 1.713600
v 5.256592 1.647556 1.713600
v 5.247680 1.654240 1.718125
v 5.329600 1.592800 1.708525
v 5.320688 1.599484 1.704000
v 5.320688 2.200516 1.704000
v 5.329600 2.207200 1.708525
v 4.510400 2.207200 1.708526
v 4.519312 2.200516 1.704000
v 4.519312 1.599484 1.704000
v 4.510400 1.592800 1.708526
v 4.554511 2.174117 1.708800
v 4.548209 2.178843 1.708800
v 4.548209 1.621157 1.708800
v 4.554511 1.625883 1.708800
v 5.285489 2.174117 1.708800
v 5.291791 2.178843 1.708800
v 5.291791 1.621157 1.708800
v 5.285489 1.625883 1.708800
v 5.285489 2.174117 1.712000
v 5.291791 2.178843 1.712000
v 5.291791 1.621157 1.712000
v 5.285489 1.625883 1.712000
v 4.548209 1.621157 1.712000
v 4.554511 1.625883 1.712000
v 4.554511 2.174117 1.712000
v 4.548209 2.178843 1.712000
vn -0.0000 -0.0000 -1.0000
vn 0.4528 -0.0000 -0.8916
vn -0.4528 -0.0000 -0.8916
vn -0.0000 0.5606 -0.8281
vn -0.0000 -0.5607 -0.8280
vn -0.0000 -0.5606 -0.8281
vn -0.0000 0.5607 -0.8280
vn 1.0000 -0.0000 -0.0000
vn -0.0000 -1.0000 -0.0000
vn -0.0000 1.0000 -0.0000
vn -1.0000 -0.0000 -0.0000
vn 0.1639 -0.0000 -0.9865
vn -0.0000 -0.2162 -0.9763
vn -0.0000 0.2162 -0.9763
vn -0.1639 -0.0000 -0.9865
vt 0.846002 0.853792
vt 0.151955 0.841646
vt 0.148819 0.146208
vt 0.842866 0.158354
vt 0.949445 0.053021
vt 0.049137 0.045531
vt 0.036017 0.030838
vt 0.964088 0.039960
vt 0.045377 0.946979
vt 0.945684 0.954469
vt 0.958805 0.969162
vt 0.030733 0.960040
vt 0.849338 0.149818
vt 0.140119 0.139614
vt 0.129383 0.129448
vt 0.859346 0.139263
vt 0.145483 0.850182
vt 0.854702 0.860386
vt 0.865438 0.870552
vt 0.135475 0.860736
vt 0.994821 0.004115
vt 0.994821 1.000000
vt 0.000000 0.000000
vt 0.000000 0.995884
vt 0.918874 0.927332
vt 0.079472 0.913324
vt 0.083714 0.907704
vt 0.913138 0.923002
vt 0.075947 0.072668
vt 0.915349 0.086675
vt 0.911108 0.092296
vt 0.081683 0.076998
vt 0.898632 0.104565
vt 0.094198 0.089727
vt 0.088568 0.085468
vt 0.902806 0.099045
vt 0.096189 0.895435
vt 0.092015 0.900955
vt 0.900623 0.910272
vt 0.906253 0.914532
s 0
usemtl Film1.001
f 8/1/1 7/2/1 6/3/1 5/4/1
f 18/5/2 19/6/2 20/7/2 17/8/2
f 22/9/3 23/10/3 24/11/3 21/12/3
f 21/12/4 20/7/4 19/6/4 22/9/4
f 17/8/5 24/11/5 23/10/5 18/5/5
f 16/13/3 13/14/3 14/15/3 15/16/3
f 10/17/2 11/18/2 12/19/2 9/20/2
f 9/20/6 14/15/6 13/14/6 10/17/6
f 15/16/7 12/19/7 11/18/7 16/13/7
f 11/18/8 10/17/8 7/2/8 8/1/8
f 10/17/9 13/14/9 6/3/9 7/2/9
f 16/13/10 11/18/10 8/1/10 5/4/10
f 13/14/11 16/13/11 5/4/11 6/3/11
f 4/21/9 2/22/9 24/11/9 17/8/9
f 17/8/8 20/7/8 3/23/8 4/21/8
f 1/24/10 3/23/10 20/7/10 21/12/10
f 2/22/11 1/24/11 21/12/11 24/11/11
f 27/25/8 26/26/8 40/27/8 37/28/8
f 30/29/11 31/30/11 35/31/11 34/32/11
f 32/33/8 29/34/8 33/35/8 36/36/8
f 29/34/10 25/37/10 39/38/10 33/35/10
f 9/20/12 12/19/12 28/39/12 25/37/12
f 30/29/13 26/26/13 22/9/13 19/6/13
f 14/15/13 9/20/13 25/37/13 29/34/13
f 26/26/12 27/25/12 23/10/12 22/9/12
f 27/25/14 31/30/14 18/5/14 23/10/14
f 12/19/14 15/16/14 32/33/14 28/39/14
f 31/30/15 30/29/15 19/6/15 18/5/15
f 15/16/15 14/15/15 29/34/15 32/33/15
f 34/32/1 35/31/1 36/36/1 33/35/1
f 35/31/1 37/28/1 38/40/1 36/36/1
f 40/27/1 34/32/1 33/35/1 39/38/1
f 37/28/1 40/27/1 39/38/1 38/40/1
f 26/26/9 30/29/9 34/32/9 40/27/9
f 28/39/9 32/33/9 36/36/9 38/40/9
f 31/30/10 27/25/10 37/28/10 35/31/10
f 25/37/11 28/39/11 38/40/11 39/38/11
o Film2
v 3.256045 2.200000 1.725001
v 3.256045 1.800000 1.725001
v 3.789378 2.200000 1.725001
v 3.789378 1.800000 1.725001
v 3.736045 1.840000 1.722000
v 3.736045 2.160000 1.722000
v 3.309378 2.160000 1.722001
v 3.309378 1.840000 1.722001
v 3.303576 2.164351 1.716001
v 3.309378 2.160000 1.718829
v 3.309378 1.840000 1.718829
v 3.303576 1.835649 1.716001
v 3.736045 2.160000 1.718829
v 3.741847 2.164351 1.716000
v 3.741847 1.835649 1.716000
v 3.736045 1.840000 1.718829
v 3.789378 1.800000 1.712829
v 3.783576 1.804351 1.710000
v 3.783576 2.195648 1.710000
v 3.789378 2.200000 1.712829
v 3.256045 2.200000 1.712829
v 3.261847 2.195648 1.710001
v 3.261847 1.804351 1.710001
v 3.256045 1.800000 1.712829
v 3.284763 2.178462 1.713001
v 3.280660 2.181538 1.713001
v 3.280660 1.818461 1.713001
v 3.284763 1.821538 1.713001
v 3.760660 2.178462 1.713000
v 3.764763 2.181538 1.713000
v 3.764763 1.818461 1.713000
v 3.760660 1.821538 1.713000
v 3.760660 2.178462 1.715001
v 3.764763 2.181538 1.715001
v 3.764763 1.818461 1.715001
v 3.760660 1.821538 1.715001
v 3.280660 1.818461 1.715001
v 3.284763 1.821538 1.715001
v 3.284763 2.178462 1.715001
v 3.280660 2.181538 1.715001
vn -0.0000 -0.0000 -1.0000
vn 0.4382 -0.0000 -0.8989
vn -0.4382 -0.0000 -0.8989
vn -0.0000 0.5450 -0.8385
vn -0.0000 -0.5450 -0.8384
vn -0.0000 -0.5450 -0.8385
vn -0.0000 0.5450 -0.8384
vn 1.0000 -0.0000 -0.0000
vn -0.0000 -1.0000 -0.0000
vn -0.0000 1.0000 -0.0000
vn -1.0000 -0.0000 -0.0000
vn 0.1575 -0.0000 -0.9875
vn -0.0000 -0.2080 -0.9781
vn -0.0000 0.2080 -0.9781
vn -0.1575 -0.0000 -0.9875
vt 0.846002 0.853792
vt 0.151955 0.841646
vt 0.148819 0.146208
vt 0.842866 0.158354
vt 0.949445 0.053021
vt 0.049137 0.045531
vt 0.036017 0.030838
vt 0.964088 0.039960
vt 0.045377 0.946979
vt 0.945684 0.954469
vt 0.958805 0.969162
vt 0.030733 0.960040
vt 0.849338 0.149818
vt 0.140119 0.139614
vt 0.129383 0.129448
vt 0.859346 0.139263
vt 0.145483 0.850182
vt 0.854702 0.860386
vt 0.865438 0.870552
vt 0.135475 0.860736
vt 0.994821 0.004115
vt 0.994821 1.000000
vt 0.000000 0.000000
vt 0.000000 0.995884
vt 0.918874 0.927332
vt 0.079472 0.913324
vt 0.083714 0.907704
vt 0.913138 0.923002
vt 0.075947 0.072668
vt 0.915349 0.086675
vt 0.911108 0.092296
vt 0.081683 0.076998
vt 0.898632 0.104565
vt 0.094198 0.089727
vt 0.088568 0.085468
vt 0.902806 0.099045
vt 0.096189 0.895435
vt 0.092015 0.900955
vt 0.900623 0.910272
vt 0.906253 0.914532
s 0
usemtl Film2.001
f 48/41/16 47/42/16 46/43/16 45/44/16
f 58/45/17 59/46/17 60/47/17 57/48/17
f 62/49/18 63/50/18 64/51/18 61/52/18
f 61/52/19 60/47/19 59/46/19 62/49/19
f 57/48/20 64/51/20 63/50/20 58/45/20
f 56/53/18 53/54/18 54/55/18 55/56/18
f 50/57/17 51/58/17 52/59/17 49/60/17
f 49/60/21 54/55/21 53/54/21 50/57/21
f 55/56/22 52/59/22 51/58/22 56/53/22
f 51/58/23 50/57/23 47/42/23 48/41/23
f 50/57/24 53/54/24 46/43/24 47/42/24
f 56/53/25 51/58/25 48/41/25 45/44/25
f 53/54/26 56/53/26 45/44/26 46/43/26
f 44/61/24 42/62/24 64/51/24 57/48/24
f 57/48/23 60/47/23 43/63/23 44/61/23
f 41/64/25 43/63/25 60/47/25 61/52/25
f 42/62/26 41/64/26 61/52/26 64/51/26
f 67/65/23 66/66/23 80/67/23 77/68/23
f 70/69/26 71/70/26 75/71/26 74/72/26
f 72/73/23 69/74/23 73/75/23 76/76/23
f 69/74/25 65/77/25 79/78/25 73/75/25
f 49/60/27 52/59/27 68/79/27 65/77/27
f 70/69/28 66/66/28 62/49/28 59/46/28
f 54/55/28 49/60/28 65/77/28 69/74/28
f 66/66/27 67/65/27 63/50/27 62/49/27
f 67/65/29 71/70/29 58/45/29 63/50/29
f 52/59/29 55/56/29 72/73/29 68/79/29
f 71/70/30 70/69/30 59/46/30 58/45/30
f 55/56/30 54/55/30 69/74/30 72/73/30
f 74/72/16 75/71/16 76/76/16 73/75/16
f 75/71/16 77/68/16 78/80/16 76/76/16
f 80/67/16 74/72/16 73/75/16 79/78/16
f 77/68/16 80/67/16 79/78/16 78/80/16
f 66/66/24 70/69/24 74/72/24 80/67/24
f 68/79/24 72/73/24 76/76/24 78/80/24
f 71/70/25 67/65/25 77/68/25 75/71/25
f 65/77/26 68/79/26 78/80/26 79/78/26
o Film3
v 5.176000 1.268000 1.725000
v 5.176000 0.932000 1.725000
v 5.624000 1.268000 1.725000
v 5.624000 0.932000 1.725000
v 5.579200 0.965600 1.722000
v 5.579200 1.234400 1.722000
v 5.220800 1.234400 1.722000
v 5.220800 0.965600 1.722000
v 5.215927 1.238055 1.716000
v 5.220800 1.234400 1.718829
v 5.220800 0.965600 1.718829
v 5.215927 0.961945 1.716000
v 5.579200 1.234400 1.718829
v 5.584074 1.238055 1.716000
v 5.584074 0.961945 1.716000
v 5.579200 0.965600 1.718829
v 5.624000 0.932000 1.712829
v 5.619127 0.935655 1.710000
v 5.619127 1.264344 1.710000
v 5.624000 1.268000 1.712829
v 5.176000 1.268000 1.712829
v 5.180873 1.264344 1.710000
v 5.180873 0.935655 1.710000
v 5.176000 0.932000 1.712829
v 5.200123 1.249907 1.713000
v 5.196677 1.252492 1.713000
v 5.196677 0.947508 1.713000
v 5.200123 0.950092 1.713000
v 5.599877 1.249907 1.713000
v 5.603323 1.252492 1.713000
v 5.603323 0.947508 1.713000
v 5.599877 0.950092 1.713000
v 5.599877 1.249907 1.715000
v 5.603323 1.252492 1.715000
v 5.603323 0.947508 1.715000
v 5.599877 0.950092 1.715000
v 5.196677 0.947508 1.715000
v 5.200123 0.950092 1.715000
v 5.200123 1.249907 1.715000
v 5.196677 1.252492 1.715000
vn -0.0000 -0.0000 -1.0000
vn 0.5020 -0.0000 -0.8649
vn -0.5020 -0.0000 -0.8649
vn -0.0000 0.6120 -0.7909
vn -0.0000 -0.6120 -0.7909
vn 1.0000 -0.0000 -0.0000
vn -0.0000 -1.0000 -0.0000
vn -0.0000 1.0000 -0.0000
vn -1.0000 -0.0000 -0.0000
vn 0.1865 -0.0000 -0.9825
vn -0.0000 -0.2454 -0.9694
vn -0.0000 0.2454 -0.9694
vn -0.1865 -0.0000 -0.9825
vt 0.846002 0.853792
vt 0.151955 0.841646
vt 0.148819 0.146208
vt 0.842866 0.158354
vt 0.949445 0.053021
vt 0.049137 0.045531
vt 0.036017 0.030838
vt 0.964088 0.039960
vt 0.045377 0.946979
vt 0.945684 0.954469
vt 0.958805 0.969162
vt 0.030733 0.960040
vt 0.849338 0.149818
vt 0.140119 0.139614
vt 0.129383 0.129448
vt 0.859346 0.139263
vt 0.145483 0.850182
vt 0.854702 0.860386
vt 0.865438 0.870552
vt 0.135475 0.860736
vt 0.994821 0.004115
vt 0.994821 1.000000
vt 0.000000 0.000000
vt 0.000000 0.995884
vt 0.918874 0.927332
vt 0.079472 0.913324
vt 0.083714 0.907704
vt 0.913138 0.923002
vt 0.075947 0.072668
vt 0.915349 0.086675
vt 0.911108 0.092296
vt 0.081683 0.076998
vt 0.898632 0.104565
vt 0.094198 0.089727
vt 0.088568 0.085468
vt 0.902806 0.099045
vt 0.096189 0.895435
vt 0.092015 0.900955
vt 0.900623 0.910272
vt 0.906253 0.914532
s 0
usemtl Film3.001
f 88/81/31 87/82/31 86/83/31 85/84/31
f 98/85/32 99/86/32 100/87/32 97/88/32
f 102/89/33 103/90/33 104/91/33 101/92/33
f 101/92/34 100/87/34 99/86/34 102/89/34
f 97/88/35 104/91/35 103/90/35 98/85/35
f 96/93/33 93/94/33 94/95/33 95/96/33
f 90/97/32 91/98/32 92/99/32 89/100/32
f 89/100/35 94/95/35 93/94/35 90/97/35
f 95/96/34 92/99/34 91/98/34 96/93/34
f 91/98/36 90/97/36 87/82/36 88/81/36
f 90/97/37 93/94/37 86/83/37 87/82/37
f 96/93/38 91/98/38 88/81/38 85/84/38
f 93/94/39 96/93/39 85/84/39 86/83/39
f 84/101/37 82/102/37 104/91/37 97/88/37
f 97/88/36 100/87/36 83/103/36 84/101/36
f 81/104/38 83/103/38 100/87/38 101/92/38
f 82/102/39 81/104/39 101/92/39 104/91/39
f 107/105/36 106/106/36 120/107/36 117/108/36
f 110/109/39 111/110/39 115/111/39 114/112/39
f 112/113/36 109/114/36 113/115/36 116/116/36
f 109/114/38 105/117/38 119/118/38 113/115/38
f 89/100/40 92/99/40 108/119/40 105/117/40
f 110/109/41 106/106/41 102/89/41 99/86/41
f 94/95/41 89/100/41 105/117/41 109/114/41
f 106/106/40 107/105/40 103/90/40 102/89/40
f 107/105/42 111/110/42 98/85/42 103/90/42
f 92/99/42 95/96/42 112/113/42 108/119/42
f 111/110/43 110/109/43 99/86/43 98/85/43
f 95/96/43 94/95/43 109/114/43 112/113/43
f 114/112/31 115/111/31 116/116/31 113/115/31
f 115/111/31 117/108/31 118/120/31 116/116/31
f 120/107/31 114/112/31 113/115/31 119/118/31
f 117/108/31 120/107/31 119/118/31 118/120/31
f 106/106/37 110/109/37 114/112/37 120/107/37
f 108/119/37 112/113/37 116/116/37 118/120/37
f 111/110/38 107/105/38 117/108/38 115/111/38
f 105/117/39 108/119/39 118/120/39 119/118/39
o Film4
v 2.995700 1.600000 1.725000
v 2.995700 1.000000 1.725000
v 4.156978 1.600000 1.725000
v 4.156978 1.000000 1.725000
v 4.084411 1.060000 1.722000
v 4.084411 1.540000 1.722000
v 3.068267 1.540000 1.722000
v 3.068267 1.060000 1.722000
v 3.060373 1.546527 1.716000
v 3.068267 1.540000 1.718829
v 3.068267 1.060000 1.718829
v 3.060373 1.053473 1.716000
v 4.084411 1.540000 1.718828
v 4.092305 1.546527 1.716000
v 4.092305 1.053473 1.716000
v 4.084411 1.060000 1.718828
v 4.156978 1.000000 1.712828
v 4.149084 1.006527 1.710000
v 4.149084 1.593473 1.710000
v 4.156978 1.600000 1.712828
v 2.995700 1.600000 1.712829
v 3.003594 1.593473 1.710000
v 3.003594 1.006527 1.710000
v 2.995700 1.000000 1.712829
v 3.034774 1.567692 1.713000
v 3.029192 1.572308 1.713000
v 3.029192 1.027692 1.713000
v 3.034774 1.032308 1.713000
v 4.117903 1.567692 1.713000
v 4.123485 1.572308 1.713000
v 4.123485 1.027692 1.713000
v 4.117903 1.032308 1.713000
v 4.117903 1.567692 1.715000
v 4.123485 1.572308 1.715000
v 4.123485 1.027692 1.715000
v 4.117903 1.032308 1.715000
v 3.029192 1.027692 1.715000
v 3.036842 1.032308 1.715000
v 3.036842 1.567692 1.715000
v 3.029192 1.572308 1.715000
vn -0.0000 -0.0000 -1.0000
vn 0.3373 -0.0000 -0.9414
vn -0.3373 -0.0000 -0.9414
vn -0.0000 0.3976 -0.9175
vn -0.0000 -0.3976 -0.9176
vn -0.0000 0.3976 -0.9176
vn 1.0000 -0.0000 -0.0000
vn -0.0000 -1.0000 -0.0000
vn -0.0000 1.0000 -0.0000
vn -1.0000 -0.0000 -0.0000
vn 0.1164 -0.0000 -0.9932
vn -0.0000 -0.1403 -0.9901
vn -0.0000 0.1403 -0.9901
vn -0.1164 -0.0000 -0.9932
vn -0.6953 -0.0000 0.7187
vt 0.846002 0.853792
vt 0.151955 0.841646
vt 0.148819 0.146208
vt 0.842866 0.158354
vt 0.949445 0.053021
vt 0.049137 0.045531
vt 0.036017 0.030838
vt 0.964088 0.039960
vt 0.045377 0.946979
vt 0.945684 0.954469
vt 0.958805 0.969162
vt 0.030733 0.960040
vt 0.849338 0.149818
vt 0.140119 0.139614
vt 0.129383 0.129448
vt 0.859346 0.139263
vt 0.145483 0.850182
vt 0.854702 0.860386
vt 0.865438 0.870552
vt 0.135475 0.860736
vt 0.994821 0.004115
vt 0.994821 1.000000
vt 0.000000 0.000000
vt 0.000000 0.995884
vt 0.918874 0.927332
vt 0.079472 0.913324
vt 0.083714 0.907704
vt 0.913138 0.923002
vt 0.075947 0.072668
vt 0.915349 0.086675
vt 0.911108 0.092296
vt 0.081683 0.076998
vt 0.898632 0.104565
vt 0.094198 0.089727
vt 0.088568 0.085468
vt 0.902806 0.099045
vt 0.096189 0.895435
vt 0.092015 0.900955
vt 0.900623 0.910272
vt 0.906253 0.914532
s 0
usemtl Film4.001
f 128/121/44 127/122/44 126/123/44 125/124/44
f 138/125/45 139/126/45 140/127/45 137/128/45
f 142/129/46 143/130/46 144/131/46 141/132/46
f 141/132/47 140/127/47 139/126/47 142/129/47
f 137/128/48 144/131/48 143/130/48 138/125/48
f 136/133/46 133/134/46 134/135/46 135/136/46
f 130/137/45 131/138/45 132/139/45 129/140/45
f 129/140/48 134/135/48 133/134/48 130/137/48
f 135/136/49 132/139/49 131/138/49 136/133/49
f 131/138/50 130/137/50 127/122/50 128/121/50
f 130/137/51 133/134/51 126/123/51 127/122/51
f 136/133/52 131/138/52 128/121/52 125/124/52
f 133/134/53 136/133/53 125/124/53 126/123/53
f 124/141/51 122/142/51 144/131/51 137/128/51
f 137/128/50 140/127/50 123/143/50 124/141/50
f 121/144/52 123/143/52 140/127/52 141/132/52
f 122/142/53 121/144/53 141/132/53 144/131/53
f 147/145/50 146/146/50 160/147/50 157/148/50
f 150/149/53 151/150/53 155/151/53 154/152/53
f 152/153/50 149/154/50 153/155/50 156/156/50
f 149/154/52 145/157/52 159/158/52 153/155/52
f 129/140/54 132/139/54 148/159/54 145/157/54
f 150/149/55 146/146/55 142/129/55 139/126/55
f 134/135/55 129/140/55 145/157/55 149/154/55
f 146/146/54 147/145/54 143/130/54 142/129/54
f 147/145/56 151/150/56 138/125/56 143/130/56
f 132/139/56 135/136/56 152/153/56 148/159/56
f 151/150/57 150/149/57 139/126/57 138/125/57
f 135/136/57 134/135/57 149/154/57 152/153/57
f 154/152/44 155/151/44 156/156/44 153/155/44
f 155/151/44 157/148/44 158/160/44 156/156/44
f 160/147/44 154/152/44 153/155/44 159/158/44
f 157/148/44 160/147/44 159/158/44 158/160/44
f 146/146/51 150/149/51 154/152/51 160/147/51
f 148/159/51 152/153/51 156/156/51 158/160/51
f 151/150/52 147/145/52 157/148/52 155/151/52
f 145/157/58 148/159/58 158/160/58 159/158/58
