# Blender 5.0.0
# www.blender.org
mtllib Picture.mtl
o Picture
v 0.200000 0.200000 -0.005000
v 0.200000 -0.200000 -0.005000
v -0.200000 0.200000 -0.005000
v -0.200000 -0.200000 -0.005000
v -0.160000 -0.160000 -0.002000
v -0.160000 0.160000 -0.002000
v 0.160000 0.160000 -0.002000
v 0.160000 -0.160000 -0.002000
v 0.164351 0.164351 0.004000
v 0.160000 0.160000 0.001172
v 0.160000 -0.160000 0.001172
v 0.164351 -0.164351 0.004000
v -0.160000 0.160000 0.001172
v -0.164351 0.164351 0.004000
v -0.164351 -0.164351 0.004000
v -0.160000 -0.160000 0.001172
v -0.200000 -0.200000 0.007172
v -0.195649 -0.195649 0.010000
v -0.195649 0.195649 0.010000
v -0.200000 0.200000 0.007172
v 0.200000 0.200000 0.007172
v 0.195649 0.195649 0.010000
v 0.195649 -0.195649 0.010000
v 0.200000 -0.200000 0.007172
v 0.178462 0.178462 0.007000
v 0.181538 0.181538 0.007000
v 0.181538 -0.181538 0.007000
v 0.178462 -0.178462 0.007000
v -0.178462 0.178462 0.007000
v -0.181538 0.181538 0.007000
v -0.181538 -0.181538 0.007000
v -0.178462 -0.178462 0.007000
v -0.178462 0.178462 0.005000
v -0.181538 0.181538 0.005000
v -0.181538 -0.181538 0.005000
v -0.178462 -0.178462 0.005000
v 0.181538 -0.181538 0.005000
v 0.178462 -0.178462 0.005000
v 0.178462 0.178462 0.005000
v 0.181538 0.181538 0.005000
vn -0.0000 -0.0000 -1.0000
vn -0.0000 -0.0000 1.0000
vn -0.5450 -0.0000 0.8384
vn 0.5450 -0.0000 0.8384
vn -0.0000 0.5450 0.8384
vn -0.0000 -0.5450 0.8384
vn -1.0000 -0.0000 -0.0000
vn -0.0000 -1.0000 -0.0000
vn -0.0000 1.0000 -0.0000
vn 1.0000 -0.0000 -0.0000
vn -0.2080 -0.0000 0.9781
vn -0.0000 -0.2080 0.9781
vn -0.0000 0.2080 0.9781
vn 0.2080 -0.0000 0.9781
vt 0.544582 0.544582
vt -0.000000 0.544582
vt 0.000000 0.000000
vt 0.544582 0.000000
vt 0.980240 0.000003
vt 0.980240 0.435631
vt 0.544579 0.435658
vt 0.544579 0.000030
vt 0.746300 0.974222
vt 0.746300 0.441534
vt 0.752242 0.435660
vt 0.752242 0.980196
vt 0.707880 0.441534
vt 0.707880 0.974221
vt 0.701974 0.980196
vt 0.701974 0.435660
vt 0.676838 0.980236
vt 0.676838 0.435661
vt 0.682712 0.441603
vt 0.682712 0.974331
vt 0.777372 0.435660
vt 0.777372 0.980236
vt 0.771398 0.974330
vt 0.771398 0.441603
vt 0.827780 0.896526
vt 0.827780 0.460898
vt 0.833686 0.454924
vt 0.833686 0.902399
vt 0.827780 0.460895
vt 0.827780 0.896523
vt 0.821837 0.902397
vt 0.821837 0.454921
vt 0.796634 0.902361
vt 0.796634 0.454852
vt 0.802608 0.460759
vt 0.802608 0.896419
vt 0.858750 0.454850
vt 0.858750 0.902359
vt 0.852876 0.896416
vt 0.852876 0.460755
vt 0.969581 0.871326
vt 0.969581 0.435660
vt 0.973899 0.435660
vt 0.973899 0.871326
vt 0.960945 0.871326
vt 0.960945 0.435660
vt 0.965263 0.435660
vt 0.965263 0.871326
vt 0.965263 0.871326
vt 0.965263 0.435660
vt 0.969581 0.435660
vt 0.969581 0.871326
vt 0.978217 0.435660
vt 0.978217 0.871326
vt 0.973899 0.871326
vt 0.973899 0.435660
vt 0.894476 0.435660
vt 0.894476 0.980242
vt 0.877905 0.980242
vt 0.877905 0.435660
vt 0.911047 0.980242
vt 0.911047 0.435661
vt 0.927618 0.435661
vt 0.927618 0.980242
vt 0.911047 0.435660
vt 0.911047 0.980242
vt 0.894476 0.980242
vt 0.894476 0.435660
vt 0.927618 0.980242
vt 0.927618 0.435661
vt 0.944189 0.435661
vt 0.944189 0.980242
vt 0.983663 0.929973
vt 0.983663 0.435661
vt 0.986385 0.435661
vt 0.986385 0.929973
vt 0.989108 0.435661
vt 0.989108 0.929973
vt 0.994554 0.921595
vt 0.994554 0.435660
vt 0.997277 0.435660
vt 0.997277 0.921595
vt 0.989108 0.921595
vt 0.989108 0.435660
vt 0.991831 0.435660
vt 0.991831 0.921595
vt 0.802608 0.921553
vt 0.802608 0.435660
vt 0.701974 0.460795
vt 0.701974 0.955102
vt 0.777372 0.921589
vt 0.777372 0.435661
vt 0.727109 0.460794
vt 0.727109 0.955065
vt 0.752242 0.955099
vt 0.752242 0.460792
vt 0.877905 0.435661
vt 0.877905 0.921589
vt 0.727109 0.955068
vt 0.727109 0.460797
vt 0.852876 0.435661
vt 0.852876 0.921553
vt 0.952567 0.435661
vt 0.952567 0.929931
vt 0.948378 0.925743
vt 0.948378 0.439850
vt 0.960945 0.435660
vt 0.960945 0.929968
vt 0.956756 0.925778
vt 0.956756 0.439849
vt 0.944189 0.929968
vt 0.948378 0.439850
vt 0.948378 0.925779
vt 0.952567 0.929931
vt 0.952567 0.435661
vt 0.956756 0.439849
vt 0.956756 0.925742
vt 0.978217 0.929973
vt 0.978217 0.435661
vt 0.980940 0.435661
vt 0.980940 0.929973
vt 0.991831 0.921595
vt 0.991831 0.435660
vt 0.980940 0.435661
vt 0.983662 0.929973
vt 1.000000 0.435660
vt 1.000000 0.921595
s 0
usemtl Picture
f 4/1/1 3/2/1 1/3/1 2/4/1
f 8/5/2 7/6/2 6/7/2 5/8/2
f 18/9/3 19/10/3 20/11/3 17/12/3
f 22/13/4 23/14/4 24/15/4 21/16/4
f 21/17/5 20/18/5 19/19/5 22/20/5
f 17/21/6 24/22/6 23/23/6 18/24/6
f 16/25/4 13/26/4 14/27/4 15/28/4
f 10/29/3 11/30/3 12/31/3 9/32/3
f 9/33/6 14/34/6 13/35/6 10/36/6
f 15/37/5 12/38/5 11/39/5 16/40/5
f 11/41/7 10/42/7 7/43/7 8/44/7
f 10/45/8 13/46/8 6/47/8 7/48/8
f 16/49/9 11/50/9 8/51/9 5/52/9
f 13/53/10 16/54/10 5/55/10 6/56/10
f 4/57/8 2/58/8 24/59/8 17/60/8
f 17/61/7 20/62/7 3/63/7 4/64/7
f 1/65/9 3/66/9 20/67/9 21/68/9
f 2/69/10 1/70/10 21/71/10 24/72/10
f 27/73/7 26/74/7 40/75/7 37/76/7
f 30/77/10 31/78/10 35/76/10 34/75/10
f 32/79/7 29/80/7 33/81/7 36/82/7
f 29/83/9 25/84/9 39/85/9 33/86/9
f 9/32/11 12/31/11 28/87/11 25/88/11
f 30/89/12 26/90/12 22/20/12 19/19/12
f 14/34/12 9/33/12 25/91/12 29/92/12
f 26/93/11 27/94/11 23/14/11 22/13/11
f 27/95/13 31/96/13 18/24/13 23/23/13
f 12/38/13 15/37/13 32/97/13 28/98/13
f 31/99/14 30/100/14 19/10/14 18/9/14
f 15/28/14 14/27/14 29/101/14 32/102/14
f 34/103/2 35/104/2 36/105/2 33/106/2
f 35/107/2 37/108/2 38/109/2 36/110/2
f 40/111/2 34/71/2 33/112/2 39/113/2
f 37/114/2 40/115/2 39/116/2 38/117/2
f 26/118/8 30/119/8 34/120/8 40/121/8
f 28/122/8 32/123/8 36/80/8 38/79/8
f 31/121/9 27/124/9 37/74/9 35/125/9
f 25/126/10 28/127/10 38/82/10 39/81/10
