# Blender 5.0.0
# www.blender.org
mtllib red.mtl
o redpencil
v -0.009820 -0.000448 -0.116968
v -0.009820 -0.000448 0.108646
v -0.008481 0.004552 -0.116968
v -0.008480 0.004552 0.108646
v -0.004820 0.008212 -0.116968
v -0.004820 0.008212 0.108646
v 0.000180 0.009552 -0.116968
v 0.000180 0.009552 0.108646
v 0.005180 0.008212 -0.116968
v 0.005180 0.008212 0.108646
v 0.008840 0.004552 -0.116968
v 0.008840 0.004552 0.108646
v 0.010180 -0.000448 -0.116968
v 0.010180 -0.000448 0.108646
v 0.008840 -0.005448 -0.116968
v 0.008840 -0.005448 0.108646
v 0.005180 -0.009108 -0.116968
v 0.005180 -0.009108 0.108646
v 0.000180 -0.010448 -0.116968
v 0.000180 -0.010448 0.108646
v -0.004820 -0.009108 -0.116968
v -0.004820 -0.009108 0.108646
v -0.008481 -0.005448 -0.116968
v -0.008480 -0.005448 0.108646
v -0.009820 -0.000448 0.108646
v -0.008480 0.004552 0.108646
v -0.004820 0.008212 0.108646
v 0.000180 0.009552 0.108646
v 0.005180 0.008212 0.108646
v 0.008840 0.004552 0.108646
v 0.010180 -0.000448 0.108646
v 0.008840 -0.005448 0.108646
v 0.005180 -0.009108 0.108646
v 0.000180 -0.010448 0.108646
v -0.004820 -0.009108 0.108646
v -0.008480 -0.005448 0.108646
v 0.000180 -0.000448 0.133032
v 0.004510 0.002052 0.120839
v 0.000180 0.004552 0.120839
v 0.004510 -0.002948 0.120839
v 0.000180 -0.005448 0.120839
v -0.004150 -0.002948 0.120839
v -0.004150 0.002052 0.120839
v -0.003067 -0.000448 0.125115
v -0.005556 0.002864 0.116880
v 0.001803 -0.003260 0.125115
v 0.001803 0.002364 0.125115
v 0.005916 0.002864 0.116880
v -0.001444 0.002364 0.125115
v 0.000180 -0.007071 0.116880
v 0.003427 -0.000448 0.125115
v 0.000180 0.006175 0.116880
v -0.001444 -0.003260 0.125115
v 0.005916 -0.003760 0.116880
v -0.005556 -0.003760 0.116880
v 0.007187 0.002736 -0.116968
v 0.007187 0.001884 -0.116968
v -0.001372 -0.005113 -0.116968
v -0.002285 -0.005113 -0.116968
v -0.002285 0.000749 -0.116968
v -0.006828 0.000749 -0.116968
v -0.006828 0.002736 -0.116968
v -0.002285 0.002736 -0.116968
v -0.002285 0.004217 -0.116968
v -0.000500 0.004217 -0.116968
v -0.000500 0.002736 -0.116968
v 0.003435 0.000708 -0.116968
v 0.003435 0.000749 -0.116968
v -0.000500 0.000749 -0.116968
v -0.000500 -0.002456 -0.116968
v 0.007187 0.001884 -0.117309
v -0.001372 -0.005113 -0.117309
v 0.007187 0.002736 -0.117309
v 0.003435 0.000708 -0.117309
v 0.003435 0.000749 -0.117309
v -0.000500 0.002736 -0.117309
v -0.000500 -0.002456 -0.117309
v -0.000500 0.000749 -0.117309
v -0.000500 0.004217 -0.117309
v -0.002285 0.004217 -0.117309
v -0.002285 -0.005113 -0.117309
v -0.002285 0.000749 -0.117309
v -0.006828 0.000749 -0.117309
v -0.002285 0.002736 -0.117309
v -0.006828 0.002736 -0.117309
vn -0.9659 0.2588 -0.0000
vn -0.7071 0.7071 -0.0000
vn -0.2588 0.9659 -0.0000
vn 0.2588 0.9659 -0.0000
vn 0.7071 0.7071 -0.0000
vn 0.9659 0.2588 -0.0000
vn 0.9659 -0.2588 -0.0000
vn 0.7071 -0.7071 -0.0000
vn 0.2588 -0.9659 -0.0000
vn -0.2588 -0.9659 -0.0000
vn -0.0000 1.0000 -0.0000
vn -0.7071 -0.7071 -0.0000
vn -0.9659 -0.2588 -0.0000
vn -0.0000 -0.0000 -1.0000
vn -0.8980 0.2407 0.3683
vn 0.6574 -0.6574 0.3683
vn 0.6574 0.6574 0.3683
vn -0.8980 -0.2407 0.3683
vn -0.6574 0.6574 0.3683
vn 0.2406 -0.8981 0.3683
vn 0.8980 0.2407 0.3683
vn -0.2406 0.8981 0.3683
vn -0.2406 -0.8981 0.3683
vn 0.8980 -0.2407 0.3683
vn 0.2406 0.8981 0.3683
vn -0.6574 -0.6574 0.3683
vn -0.6574 -0.6574 0.3682
vn 0.2406 0.8980 0.3682
vn 0.8981 -0.2406 0.3682
vn -0.2406 -0.8980 0.3682
vn -0.2406 0.8980 0.3682
vn 0.8981 0.2406 0.3682
vn 0.2406 -0.8980 0.3682
vn -0.6574 0.6574 0.3682
vn -0.8980 -0.2407 0.3682
vn -0.8980 0.2407 0.3682
vn -0.0000 -0.0000 1.0000
vn -1.0000 -0.0000 -0.0000
vn -0.0000 -1.0000 -0.0000
vn 1.0000 -0.0000 -0.0000
vn 0.6329 -0.7742 -0.0000
vn -0.6267 0.7793 -0.0000
vt 1.000000 0.500000
vt 1.000000 1.000000
vt 0.916667 1.000000
vt 0.916667 0.500000
vt 0.833333 1.000000
vt 0.833333 0.500000
vt 0.750000 1.000000
vt 0.750000 0.500000
vt 0.666667 1.000000
vt 0.666667 0.500000
vt 0.583333 1.000000
vt 0.583333 0.500000
vt 0.500000 1.000000
vt 0.500000 0.500000
vt 0.416667 1.000000
vt 0.416667 0.500000
vt 0.333333 1.000000
vt 0.333333 0.500000
vt 0.250000 1.000000
vt 0.250000 0.500000
vt 0.166667 1.000000
vt 0.166667 0.500000
vt 0.083333 1.000000
vt 0.083333 0.500000
vt 0.000000 1.000000
vt 0.000000 0.500000
vt 0.750000 0.490000
vt 0.870000 0.457846
vt 0.957846 0.370000
vt 0.990000 0.250000
vt 0.957846 0.130000
vt 0.870000 0.042154
vt 0.750000 0.010000
vt 0.630000 0.042154
vt 0.542154 0.130000
vt 0.510000 0.250000
vt 0.542154 0.370000
vt 0.630000 0.457846
vt 0.943723 1.000000
vt 0.388528 1.000000
vt 0.375000 1.000000
vt 0.583333 1.000000
vt 0.610390 1.000000
vt 0.055195 1.000000
vt 0.041667 1.000000
vt 0.888528 1.000000
vt 0.875000 1.000000
vt 0.277056 1.000000
vt 0.555195 1.000000
vt 0.541667 1.000000
vt 0.777056 1.000000
vt 0.221862 1.000000
vt 0.208333 1.000000
vt 0.443723 1.000000
vt 0.721862 1.000000
vt 0.708333 1.000000
vt 0.083333 1.000000
vt 0.110390 1.000000
vt 0.142857 0.000000
vt 0.071429 0.000000
vt 0.000000 0.000000
vt 0.785714 0.000000
vt 0.857143 0.000000
vt 0.714286 0.000000
vt 1.000000 0.000000
vt 0.928571 0.000000
vt 0.642857 0.000000
vt 0.571429 0.000000
vt 0.214286 0.000000
vt 0.285714 0.000000
vt 0.357143 0.000000
vt 0.500000 0.000000
vt 0.428571 0.000000
s 0
usemtl middle.007
f 20/19/11 18/17/11 33/17/11 34/19/11
f 18/17/11 16/15/11 32/15/11 33/17/11
f 16/15/11 14/13/11 31/13/11 32/15/11
f 14/13/11 12/11/11 30/11/11 31/13/11
f 12/11/11 10/9/11 29/9/11 30/11/11
f 10/9/11 8/7/11 28/7/11 29/9/11
f 2/25/11 24/23/11 36/23/11 25/25/11
f 4/3/11 2/2/11 25/2/11 26/3/11
f 8/7/11 6/5/11 27/5/11 28/7/11
f 24/23/11 22/21/11 35/21/11 36/23/11
f 6/5/11 4/3/11 26/3/11 27/5/11
f 22/21/11 20/19/11 34/19/11 35/21/11
f 36/23/27 35/21/27 53/58/27 55/57/27
f 29/9/28 28/7/28 52/55/28 47/9/28
f 32/15/29 31/13/29 51/54/29 54/15/29
f 35/21/30 34/19/30 50/52/30 53/21/30
f 28/7/31 27/5/31 49/51/31 52/7/31
f 31/13/32 30/11/32 48/49/32 51/13/32
f 34/19/33 33/17/33 46/48/33 50/19/33
f 27/5/34 26/3/34 45/46/34 49/5/34
f 25/25/35 36/23/35 55/44/35 44/25/35
f 30/11/17 29/9/17 47/43/17 48/42/17
f 33/17/16 32/15/16 54/40/16 46/17/16
f 26/3/36 25/2/36 44/39/36 45/3/36
usemtl point.007
f 45/3/15 44/39/15 37/3/15 43/3/15
f 46/17/16 54/40/16 40/41/16 37/17/16
f 48/42/17 47/43/17 37/11/17 38/11/17
f 44/25/18 55/44/18 42/45/18 37/25/18
f 49/5/19 45/46/19 43/47/19 37/5/19
f 50/19/20 46/48/20 37/19/20 41/19/20
f 51/13/21 48/49/21 38/50/21 37/13/21
f 52/7/22 49/51/22 37/7/22 39/7/22
f 53/21/23 50/52/23 41/53/23 37/21/23
f 54/15/24 51/54/24 37/15/24 40/15/24
f 47/9/25 52/55/25 39/56/25 37/9/25
f 55/57/26 53/58/26 37/23/26 42/23/26
usemtl shaft.007
f 1/1/1 2/2/1 4/3/1 3/4/1
f 3/4/2 4/3/2 6/5/2 5/6/2
f 5/6/3 6/5/3 8/7/3 7/8/3
f 7/8/4 8/7/4 10/9/4 9/10/4
f 9/10/5 10/9/5 12/11/5 11/12/5
f 11/12/6 12/11/6 14/13/6 13/14/6
f 13/14/7 14/13/7 16/15/7 15/16/7
f 15/16/8 16/15/8 18/17/8 17/18/8
f 17/18/9 18/17/9 20/19/9 19/20/9
f 19/20/10 20/19/10 22/21/10 21/22/10
f 21/22/12 22/21/12 24/23/12 23/24/12
f 23/24/13 24/23/13 2/25/13 1/26/13
f 1/27/14 3/28/14 5/29/14 7/30/14 9/31/14 11/32/14 13/33/14 15/34/14 17/35/14 19/36/14 21/37/14 23/38/14
usemtl Material.026
f 58/59/37 57/60/37 56/61/37
f 58/59/37 56/61/37 67/62/37
f 67/62/37 56/61/37 68/63/37
f 68/63/37 56/61/37 66/64/37
f 58/59/37 67/62/37 70/65/37
f 69/66/37 68/63/37 66/64/37
f 58/59/37 70/65/37 69/66/37
f 58/59/37 69/66/37 66/64/37
f 58/59/37 66/64/37 65/67/37
f 58/59/37 65/67/37 64/68/37
f 59/69/37 58/59/37 64/68/37
f 60/70/14 59/69/14 64/68/14
f 61/71/37 60/70/37 63/72/37
f 63/72/11 60/70/11 64/68/11
f 61/71/37 63/72/37 62/73/37
f 72/59/14 73/61/14 71/60/14
f 72/59/14 74/62/14 73/61/14
f 74/62/14 75/63/14 73/61/14
f 75/63/14 76/64/14 73/61/14
f 72/59/14 77/65/14 74/62/14
f 78/66/14 76/64/14 75/63/14
f 72/59/14 78/66/14 77/65/14
f 72/59/14 76/64/14 78/66/14
f 72/59/14 79/67/14 76/64/14
f 72/59/14 80/68/14 79/67/14
f 81/69/14 80/68/14 72/59/14
f 82/70/37 80/68/37 81/69/37
f 83/71/14 84/72/14 82/70/14
f 84/72/11 80/68/11 82/70/11
f 83/71/14 85/73/14 84/72/14
f 63/72/38 64/68/38 80/68/38 84/72/38
f 67/62/38 68/63/38 75/63/38 74/62/38
f 58/59/39 59/69/39 81/69/39 72/59/39
f 61/71/38 62/73/38 85/73/38 83/71/38
f 69/66/40 70/65/40 77/65/40 78/66/40
f 62/73/11 63/72/11 84/72/11 85/73/11
f 59/69/38 60/70/38 82/70/38 81/69/38
f 57/60/41 58/59/41 72/59/41 71/60/41
f 66/64/11 56/61/11 73/61/11 76/64/11
f 60/70/39 61/71/39 83/71/39 82/70/39
f 56/61/40 57/60/40 71/60/40 73/61/40
f 65/67/40 66/64/40 76/64/40 79/67/40
f 70/65/42 67/62/42 74/62/42 77/65/42
f 68/63/39 69/66/39 78/66/39 75/63/39
f 64/68/11 65/67/11 79/67/11 80/68/11
