# Blender 5.0.0
# www.blender.org
mtllib redpencil.mtl
o Cylinder
v 0.000000 -0.112807 -0.010000
v 0.000000 0.112807 -0.010000
v 0.005000 -0.112807 -0.008660
v 0.005000 0.112807 -0.008660
v 0.008660 -0.112807 -0.005000
v 0.008660 0.112807 -0.005000
v 0.010000 -0.112807 0.000000
v 0.010000 0.112807 0.000000
v 0.008660 -0.112807 0.005000
v 0.008660 0.112807 0.005000
v 0.005000 -0.112807 0.008660
v 0.005000 0.112807 0.008660
v 0.000000 -0.112807 0.010000
v 0.000000 0.112807 0.010000
v -0.005000 -0.112807 0.008660
v -0.005000 0.112807 0.008660
v -0.008660 -0.112807 0.005000
v -0.008660 0.112807 0.005000
v -0.010000 -0.112807 0.000000
v -0.010000 0.112807 0.000000
v -0.008660 -0.112807 -0.005000
v -0.008660 0.112807 -0.005000
v -0.005000 -0.112807 -0.008660
v -0.005000 0.112807 -0.008660
v 0.000000 0.112807 -0.010000
v 0.005000 0.112807 -0.008660
v 0.008660 0.112807 -0.005000
v 0.010000 0.112807 0.000000
v 0.008660 0.112807 0.005000
v 0.005000 0.112807 0.008660
v 0.000000 0.112807 0.010000
v -0.005000 0.112807 0.008660
v -0.008660 0.112807 0.005000
v -0.010000 0.112807 0.000000
v -0.008660 0.112807 -0.005000
v -0.005000 0.112807 -0.008660
v 0.000000 0.137193 0.000000
v 0.002500 0.125000 0.004330
v 0.005000 0.125000 0.000000
v -0.002500 0.125000 0.004330
v -0.005000 0.125000 0.000000
v -0.002500 0.125000 -0.004330
v 0.002500 0.125000 -0.004330
v 0.000000 0.129276 -0.003247
v 0.003312 0.121041 -0.005736
v -0.002812 0.129276 0.001623
v 0.002812 0.129276 0.001623
v 0.003312 0.121041 0.005736
v 0.002812 0.129276 -0.001623
v -0.006623 0.121041 0.000000
v 0.000000 0.129276 0.003247
v 0.006623 0.121041 0.000000
v -0.002812 0.129276 -0.001623
v -0.003312 0.121041 0.005736
v -0.003312 0.121041 -0.005736
v 0.003184 -0.112807 0.007007
v 0.002332 -0.112807 0.007007
v -0.004665 -0.112807 -0.001552
v -0.004665 -0.112807 -0.002464
v 0.001197 -0.112807 -0.002464
v 0.001197 -0.112807 -0.007007
v 0.003184 -0.112807 -0.007007
v 0.003184 -0.112807 -0.002464
v 0.004665 -0.112807 -0.002464
v 0.004665 -0.112807 -0.000679
v 0.003184 -0.112807 -0.000679
v 0.001156 -0.112807 0.003255
v 0.001197 -0.112807 0.003255
v 0.001197 -0.112807 -0.000679
v -0.002008 -0.112807 -0.000679
v 0.002332 -0.113148 0.007007
v -0.004665 -0.113148 -0.001552
v 0.003184 -0.113148 0.007007
v 0.001156 -0.113148 0.003255
v 0.001197 -0.113148 0.003255
v 0.003184 -0.113148 -0.000679
v -0.002008 -0.113148 -0.000679
v 0.001197 -0.113148 -0.000679
v 0.004665 -0.113148 -0.000679
v 0.004665 -0.113148 -0.002464
v -0.004665 -0.113148 -0.002464
v 0.001197 -0.113148 -0.002464
v 0.001197 -0.113148 -0.007007
v 0.003184 -0.113148 -0.002464
v 0.003184 -0.113148 -0.007007
vn 0.2588 -0.0000 -0.9659
vn 0.7071 -0.0000 -0.7071
vn 0.9659 -0.0000 -0.2588
vn 0.9659 -0.0000 0.2588
vn 0.7071 -0.0000 0.7071
vn 0.2588 -0.0000 0.9659
vn -0.2588 -0.0000 0.9659
vn -0.7071 -0.0000 0.7071
vn -0.9659 -0.0000 0.2588
vn -0.9659 -0.0000 -0.2588
vn -0.0000 1.0000 -0.0000
vn -0.7071 -0.0000 -0.7071
vn -0.2588 -0.0000 -0.9659
vn -0.0000 -1.0000 -0.0000
vn 0.2406 0.3683 -0.8980
vn -0.6574 0.3683 0.6574
vn 0.6574 0.3683 0.6574
vn -0.2406 0.3683 -0.8980
vn 0.6574 0.3683 -0.6574
vn -0.8980 0.3683 0.2406
vn 0.2406 0.3683 0.8980
vn 0.8980 0.3683 -0.2406
vn -0.8980 0.3683 -0.2406
vn -0.2406 0.3683 0.8980
vn 0.8980 0.3683 0.2406
vn -0.6574 0.3683 -0.6574
vn -0.0000 -0.0000 -1.0000
vn -1.0000 -0.0000 -0.0000
vn -0.0000 -0.0000 1.0000
vn 1.0000 -0.0000 -0.0000
vn -0.7742 -0.0000 0.6329
vn 0.7793 -0.0000 -0.6266
vt 1.000000 0.500000
vt 1.000000 1.000000
vt 0.916667 1.000000
vt 0.916667 0.500000
vt 0.833333 1.000000
vt 0.833333 0.500000
vt 0.750000 1.000000
vt 0.750000 0.500000
vt 0.666667 1.000000
vt 0.666667 0.500000
vt 0.583333 1.000000
vt 0.583333 0.500000
vt 0.500000 1.000000
vt 0.500000 0.500000
vt 0.416667 1.000000
vt 0.416667 0.500000
vt 0.333333 1.000000
vt 0.333333 0.500000
vt 0.250000 1.000000
vt 0.250000 0.500000
vt 0.166667 1.000000
vt 0.166667 0.500000
vt 0.083333 1.000000
vt 0.083333 0.500000
vt 0.000000 1.000000
vt 0.000000 0.500000
vt 0.750000 0.490000
vt 0.870000 0.457846
vt 0.957846 0.370000
vt 0.990000 0.250000
vt 0.957846 0.130000
vt 0.870000 0.042154
vt 0.750000 0.010000
vt 0.630000 0.042154
vt 0.542154 0.130000
vt 0.510000 0.250000
vt 0.542154 0.370000
vt 0.630000 0.457846
vt 0.943723 1.000000
vt 0.388528 1.000000
vt 0.375000 1.000000
vt 0.583333 1.000000
vt 0.610390 1.000000
vt 0.055195 1.000000
vt 0.041667 1.000000
vt 0.888528 1.000000
vt 0.875000 1.000000
vt 0.277056 1.000000
vt 0.555195 1.000000
vt 0.541667 1.000000
vt 0.777056 1.000000
vt 0.221862 1.000000
vt 0.208333 1.000000
vt 0.443723 1.000000
vt 0.721862 1.000000
vt 0.708333 1.000000
vt 0.083333 1.000000
vt 0.110390 1.000000
vt 0.142857 0.000000
vt 0.071429 0.000000
vt 0.000000 0.000000
vt 0.785714 0.000000
vt 0.857143 0.000000
vt 0.714286 0.000000
vt 1.000000 0.000000
vt 0.928571 0.000000
vt 0.642857 0.000000
vt 0.571429 0.000000
vt 0.214286 0.000000
vt 0.285714 0.000000
vt 0.357143 0.000000
vt 0.500000 0.000000
vt 0.428571 0.000000
s 0
usemtl middle
f 20/19/11 18/17/11 33/17/11 34/19/11
f 18/17/11 16/15/11 32/15/11 33/17/11
f 16/15/11 14/13/11 31/13/11 32/15/11
f 14/13/11 12/11/11 30/11/11 31/13/11
f 12/11/11 10/9/11 29/9/11 30/11/11
f 10/9/11 8/7/11 28/7/11 29/9/11
f 2/25/11 24/23/11 36/23/11 25/25/11
f 4/3/11 2/2/11 25/2/11 26/3/11
f 8/7/11 6/5/11 27/5/11 28/7/11
f 24/23/11 22/21/11 35/21/11 36/23/11
f 6/5/11 4/3/11 26/3/11 27/5/11
f 22/21/11 20/19/11 34/19/11 35/21/11
f 36/23/26 35/21/26 53/58/26 55/57/26
f 29/9/25 28/7/25 52/55/25 47/9/25
f 32/15/24 31/13/24 51/54/24 54/15/24
f 35/21/23 34/19/23 50/52/23 53/21/23
f 28/7/22 27/5/22 49/51/22 52/7/22
f 31/13/21 30/11/21 48/49/21 51/13/21
f 34/19/20 33/17/20 46/48/20 50/19/20
f 27/5/19 26/3/19 45/46/19 49/5/19
f 25/25/18 36/23/18 55/44/18 44/25/18
f 30/11/17 29/9/17 47/43/17 48/42/17
f 33/17/16 32/15/16 54/40/16 46/17/16
f 26/3/15 25/2/15 44/39/15 45/3/15
usemtl point
f 45/3/15 44/39/15 37/3/15 43/3/15
f 46/17/16 54/40/16 40/41/16 37/17/16
f 48/42/17 47/43/17 37/11/17 38/11/17
f 44/25/18 55/44/18 42/45/18 37/25/18
f 49/5/19 45/46/19 43/47/19 37/5/19
f 50/19/20 46/48/20 37/19/20 41/19/20
f 51/13/21 48/49/21 38/50/21 37/13/21
f 52/7/22 49/51/22 37/7/22 39/7/22
f 53/21/23 50/52/23 41/53/23 37/21/23
f 54/15/24 51/54/24 37/15/24 40/15/24
f 47/9/25 52/55/25 39/56/25 37/9/25
f 55/57/26 53/58/26 37/23/26 42/23/26
usemtl shaft
f 1/1/1 2/2/1 4/3/1 3/4/1
f 3/4/2 4/3/2 6/5/2 5/6/2
f 5/6/3 6/5/3 8/7/3 7/8/3
f 7/8/4 8/7/4 10/9/4 9/10/4
f 9/10/5 10/9/5 12/11/5 11/12/5
f 11/12/6 12/11/6 14/13/6 13/14/6
f 13/14/7 14/13/7 16/15/7 15/16/7
f 15/16/8 16/15/8 18/17/8 17/18/8
f 17/18/9 18/17/9 20/19/9 19/20/9
f 19/20/10 20/19/10 22/21/10 21/22/10
f 21/22/12 22/21/12 24/23/12 23/24/12
f 23/24/13 24/23/13 2/25/13 1/26/13
f 1/27/14 3/28/14 5/29/14 7/30/14 9/31/14 11/32/14 13/33/14 15/34/14 17/35/14 19/36/14 21/37/14 23/38/14
usemtl Material.001
f 58/59/11 57/60/11 56/61/11
f 58/59/11 56/61/11 67/62/11
f 67/62/11 56/61/11 68/63/11
f 68/63/11 56/61/11 66/64/11
f 58/59/11 67/62/11 70/65/11
f 69/66/11 68/63/11 66/64/11
f 58/59/11 70/65/11 69/66/11
f 58/59/11 69/66/11 66/64/11
f 58/59/11 66/64/11 65/67/11
f 58/59/11 65/67/11 64/68/11
f 59/69/11 58/59/11 64/68/11
f 60/70/14 59/69/14 64/68/14
f 61/71/11 60/70/11 63/72/11
f 63/72/11 60/70/11 64/68/11
f 61/71/11 63/72/11 62/73/11
f 72/59/14 73/61/14 71/60/14
f 72/59/14 74/62/14 73/61/14
f 74/62/14 75/63/14 73/61/14
f 75/63/14 76/64/14 73/61/14
f 72/59/14 77/65/14 74/62/14
f 78/66/14 76/64/14 75/63/14
f 72/59/14 78/66/14 77/65/14
f 72/59/14 76/64/14 78/66/14
f 72/59/14 79/67/14 76/64/14
f 72/59/14 80/68/14 79/67/14
f 81/69/14 80/68/14 72/59/14
f 82/70/11 80/68/11 81/69/11
f 83/71/14 84/72/14 82/70/14
f 84/72/11 80/68/11 82/70/11
f 83/71/14 85/73/14 84/72/14
f 63/72/27 64/68/27 80/68/27 84/72/27
f 67/62/27 68/63/27 75/63/27 74/62/27
f 58/59/28 59/69/28 81/69/28 72/59/28
f 61/71/27 62/73/27 85/73/27 83/71/27
f 69/66/29 70/65/29 77/65/29 78/66/29
f 62/73/30 63/72/30 84/72/30 85/73/30
f 59/69/27 60/70/27 82/70/27 81/69/27
f 57/60/31 58/59/31 72/59/31 71/60/31
f 66/64/30 56/61/30 73/61/30 76/64/30
f 60/70/28 61/71/28 83/71/28 82/70/28
f 56/61/29 57/60/29 71/60/29 73/61/29
f 65/67/29 66/64/29 76/64/29 79/67/29
f 70/65/32 67/62/32 74/62/32 77/65/32
f 68/63/28 69/66/28 78/66/28 75/63/28
f 64/68/30 65/67/30 79/67/30 80/68/30
