# Blender 5.0.0
# www.blender.org
mtllib SafeDoor.mtl
o Safe_Door
v 1.917318 0.799557 0.486615
v 1.917318 1.800557 0.486615
v 1.850178 0.866696 0.553755
v 1.917315 0.799557 1.487612
v 1.917318 1.800557 1.487615
v 1.850178 0.866696 1.420476
v 1.850178 1.733417 1.420476
v 1.850178 1.733417 0.553755
v 1.917318 0.799557 1.410615
v 1.917318 0.799557 1.333615
v 1.917318 0.799557 1.256615
v 1.917318 0.799557 1.179615
v 1.917318 0.799557 1.102615
v 1.917318 0.799557 1.025615
v 1.917318 0.799557 0.948615
v 1.917318 0.799557 0.871615
v 1.917318 0.799557 0.794615
v 1.917318 0.799557 0.717615
v 1.917318 0.799557 0.640615
v 1.917318 0.799557 0.563615
v 1.850178 0.866696 1.353805
v 1.850178 0.866696 1.287134
v 1.850178 0.866696 1.220463
v 1.850178 0.866696 1.153792
v 1.850178 0.866696 1.087122
v 1.850178 0.866696 1.020451
v 1.850178 0.866696 0.953780
v 1.850178 0.866696 0.887109
v 1.850178 0.866696 0.820438
v 1.850178 0.866696 0.753767
v 1.850178 0.866696 0.687097
v 1.850178 0.866696 0.620426
v 1.850178 1.733417 0.620426
v 1.850178 1.733417 0.687097
v 1.850178 1.733417 0.753767
v 1.850178 1.733417 0.820438
v 1.850178 1.733417 0.887109
v 1.850178 1.733417 0.953780
v 1.850178 1.733417 1.020451
v 1.850178 1.733417 1.087122
v 1.850178 1.733417 1.153792
v 1.850178 1.733417 1.220463
v 1.850178 1.733417 1.287134
v 1.850178 1.733417 1.353805
v 1.917318 1.800557 0.563615
v 1.917318 1.800557 0.640615
v 1.917318 1.800557 0.717615
v 1.917318 1.800557 0.794615
v 1.917318 1.800557 0.871615
v 1.917318 1.800557 0.948615
v 1.917318 1.800557 1.025615
v 1.917318 1.800557 1.102615
v 1.917318 1.800557 1.179615
v 1.917318 1.800557 1.256615
v 1.917318 1.800557 1.333615
v 1.917318 1.800557 1.410615
v 1.917318 1.723557 0.486615
v 1.917318 1.646557 0.486615
v 1.917318 1.569557 0.486615
v 1.917318 1.492557 0.486615
v 1.917318 1.415557 0.486615
v 1.917318 1.338557 0.486615
v 1.917318 1.261557 0.486615
v 1.917318 1.184557 0.486615
v 1.917318 1.107557 0.486615
v 1.917318 1.030557 0.486615
v 1.917318 0.953557 0.486615
v 1.917318 0.876557 0.486615
v 1.917318 1.723557 1.487615
v 1.917318 1.646557 1.487615
v 1.917318 1.569557 1.487615
v 1.917318 1.492557 1.487615
v 1.917318 1.415557 1.487615
v 1.917318 1.338557 1.487615
v 1.917318 1.261557 1.487615
v 1.917318 1.184557 1.487615
v 1.917318 1.107557 1.487615
v 1.917318 1.030557 1.487615
v 1.917318 0.953557 1.487615
v 1.917318 0.876557 1.487615
v 1.850178 1.666746 1.420476
v 1.850178 1.600075 1.420476
v 1.850178 1.533404 1.420476
v 1.850178 1.466734 1.420476
v 1.850178 1.400063 1.420476
v 1.850178 1.333392 1.420476
v 1.850178 1.266721 1.420476
v 1.850178 1.200050 1.420476
v 1.850178 1.133380 1.420476
v 1.850178 1.066709 1.420476
v 1.850178 1.000038 1.420476
v 1.850178 0.933367 1.420476
v 1.850178 1.666746 0.553755
v 1.850178 1.600075 0.553755
v 1.850178 1.533404 0.553755
v 1.850178 1.466734 0.553755
v 1.850178 1.400063 0.553755
v 1.850178 1.333392 0.553755
v 1.850178 1.266721 0.553755
v 1.850178 1.200050 0.553755
v 1.850178 1.133380 0.553755
v 1.850178 1.066709 0.553755
v 1.850178 1.000038 0.553755
v 1.850178 0.933367 0.553755
v 1.917318 1.415557 0.563615
v 1.917318 1.338557 0.563615
v 1.917318 1.261557 0.563615
v 1.917318 1.184557 0.563615
v 1.917318 1.107557 0.563615
v 1.917318 1.030557 0.563615
v 1.917318 1.492557 0.640615
v 1.917318 0.953557 0.640615
v 1.917318 1.492557 0.717615
v 1.917318 0.953557 0.717615
v 1.917318 1.492557 0.794615
v 1.917318 0.953557 0.794615
v 1.917318 1.492557 0.871615
v 1.917318 0.953557 0.871615
v 1.917318 1.415557 0.948615
v 1.917318 1.338557 0.948615
v 1.917318 1.261557 0.948615
v 1.917318 1.184557 0.948615
v 1.917318 1.107557 0.948615
v 1.917318 1.030557 0.948615
v 1.944973 1.415557 0.563615
v 1.944973 1.338557 0.563615
v 1.944973 1.261557 0.563615
v 1.944973 1.184557 0.563615
v 1.944973 1.107557 0.563615
v 1.944973 1.030557 0.563615
v 1.944973 1.492557 0.640615
v 1.944973 1.415557 0.640615
v 1.944973 1.338557 0.640615
v 1.944973 1.261557 0.640615
v 1.944973 1.184557 0.640615
v 1.944973 1.107557 0.640615
v 1.944973 1.030557 0.640615
v 1.944973 0.953557 0.640615
v 1.944973 1.492557 0.717615
v 1.944973 1.338557 0.717615
v 1.944973 1.030557 0.717615
v 1.944973 0.953557 0.717615
v 1.944973 1.492557 0.794615
v 1.944973 1.338557 0.794615
v 1.944973 1.030557 0.794615
v 1.944973 0.953557 0.794615
v 1.944973 1.492557 0.871615
v 1.944973 1.415557 0.871615
v 1.944973 1.338557 0.871615
v 1.944973 1.261557 0.871615
v 1.944973 1.184557 0.871615
v 1.944973 1.107557 0.871615
v 1.944973 1.030557 0.871615
v 1.944973 0.953557 0.871615
v 1.944973 1.415557 0.948615
v 1.944973 1.338557 0.948615
v 1.944973 1.261557 0.948615
v 1.944973 1.184557 0.948615
v 1.944973 1.107557 0.948615
v 1.944973 1.030557 0.948615
v 1.917318 0.799557 0.935046
v 1.850178 0.866696 0.942031
v 1.850178 1.733417 0.942031
v 1.917318 1.800557 0.935046
v 1.917318 0.953557 0.935046
v 1.917318 1.492557 0.935046
v 1.944973 0.953557 0.935046
v 1.944973 1.030557 0.935046
v 1.944973 1.107557 0.935046
v 1.944973 1.184557 0.935046
v 1.944973 1.261557 0.935046
v 1.944973 1.338557 0.935046
v 1.944973 1.415557 0.935046
v 1.944973 1.492557 0.935046
v 1.917318 0.799557 0.579332
v 1.850178 0.866696 0.634034
v 1.850178 1.733417 0.634034
v 1.917318 1.800557 0.579332
v 1.917318 0.953557 0.579332
v 1.917318 1.492557 0.579332
v 1.944973 0.953557 0.579332
v 1.944973 1.030557 0.579332
v 1.944973 1.107557 0.579332
v 1.944973 1.184557 0.579332
v 1.944973 1.261557 0.579332
v 1.944973 1.338557 0.579332
v 1.944973 1.415557 0.579332
v 1.944973 1.492557 0.579332
v 1.917318 1.477923 0.486615
v 1.917318 1.477923 1.487615
v 1.850178 1.454063 1.420476
v 1.850178 1.454063 0.553755
v 1.917318 1.477923 0.563615
v 1.917318 1.477923 0.948615
v 1.944973 1.477923 0.563615
v 1.944973 1.477923 0.640615
v 1.944973 1.477923 0.717615
v 1.944973 1.477923 0.794615
v 1.944973 1.477923 0.871615
v 1.944973 1.477923 0.948615
v 1.944973 1.477923 0.935046
v 1.944973 1.477923 0.579332
v 1.917318 0.968888 0.486615
v 1.917318 0.968888 1.487615
v 1.850178 1.013313 1.420476
v 1.850178 1.013313 0.553755
v 1.917318 0.968888 0.563615
v 1.917318 0.968888 0.948615
v 1.944973 0.968888 0.563615
v 1.944973 0.968888 0.640615
v 1.944973 0.968888 0.717615
v 1.944973 0.968888 0.794615
v 1.944973 0.968888 0.871615
v 1.944973 0.968888 0.948615
v 1.944973 0.968888 0.935046
v 1.944973 0.968888 0.579332
v 1.917318 1.492557 0.577647
v 1.917318 1.478525 0.563615
v 1.917318 1.492557 0.549583
v 1.917318 1.506589 0.563615
v 1.917318 1.491489 0.572277
v 1.917318 1.488447 0.567725
v 1.917318 1.483894 0.564683
v 1.917318 0.967589 0.563615
v 1.917318 0.953557 0.577647
v 1.917318 0.939525 0.563615
v 1.917318 0.953557 0.549583
v 1.917318 0.962219 0.564683
v 1.917318 0.957667 0.567725
v 1.917318 0.954625 0.572277
v 1.917318 1.478525 0.948615
v 1.917318 1.492557 0.935046
v 1.917318 1.506589 0.948615
v 1.917318 1.492557 0.962647
v 1.917318 1.483894 0.947583
v 1.917318 1.488447 0.944641
v 1.917318 1.491489 0.940239
v 1.917318 0.953557 0.935046
v 1.917318 0.967589 0.948615
v 1.917318 0.953557 0.962647
v 1.917318 0.939525 0.948615
v 1.917318 0.954625 0.940239
v 1.917318 0.957667 0.944641
v 1.917318 0.962219 0.947583
v 1.944973 1.478525 0.563615
v 1.944973 1.492557 0.577647
v 1.944973 1.483894 0.564683
v 1.944973 1.488447 0.567725
v 1.944973 1.491489 0.572277
v 1.944973 0.953557 0.577647
v 1.944973 0.967589 0.563615
v 1.944973 0.954625 0.572277
v 1.944973 0.957667 0.567725
v 1.944973 0.962219 0.564683
v 1.944973 1.492557 0.935046
v 1.944973 1.478525 0.948615
v 1.944973 1.491489 0.940239
v 1.944973 1.488447 0.944641
v 1.944973 1.483894 0.947583
v 1.944973 0.967589 0.948615
v 1.944973 0.953557 0.935046
v 1.944973 0.962219 0.947583
v 1.944973 0.957667 0.944641
v 1.944973 0.954625 0.940239
v 1.917318 1.446740 0.486615
v 1.917318 1.446740 1.487615
v 1.850178 1.427063 1.420476
v 1.850178 1.427063 0.553755
v 1.917318 1.446740 0.563615
v 1.917318 1.446740 0.948615
v 1.944973 1.446740 0.563615
v 1.944973 1.446740 0.717615
v 1.944973 1.446740 0.794615
v 1.944973 1.446740 0.948615
v 1.944973 1.446740 0.935046
v 1.944973 1.446740 0.579332
v 1.917318 1.377057 0.486615
v 1.917318 1.377057 1.487615
v 1.850178 1.366727 1.420476
v 1.850178 1.366727 0.553755
v 1.917318 1.377057 0.563615
v 1.917318 1.377057 0.948615
v 1.944973 1.377057 0.563615
v 1.944973 1.377057 0.717615
v 1.944973 1.377057 0.794615
v 1.944973 1.377057 0.948615
v 1.944973 1.377057 0.935046
v 1.944973 1.377057 0.579332
v 1.952708 1.415557 0.640615
v 1.952708 1.415557 0.871615
v 1.952708 1.446740 0.794615
v 1.952708 1.446740 0.717615
v 1.952708 1.377057 0.717615
v 1.952708 1.377057 0.794615
v 1.917318 0.799557 0.645987
v 1.850178 0.866696 0.691748
v 1.850178 1.733417 0.691748
v 1.917318 1.800557 0.645987
v 1.917318 0.953557 0.645987
v 1.917318 1.492557 0.645987
v 1.944973 0.953557 0.645987
v 1.944973 1.030557 0.645987
v 1.944973 1.492557 0.645987
v 1.944973 1.477923 0.645987
v 1.944973 0.968888 0.645987
v 1.944973 1.446740 0.645987
v 1.944973 1.377057 0.645987
v 1.952708 1.446740 0.645987
v 1.952708 1.377057 0.645987
v 1.917318 0.799557 0.865619
v 1.850178 0.866696 0.881917
v 1.850178 1.733417 0.881917
v 1.917318 1.800557 0.865619
v 1.917318 0.953557 0.865619
v 1.917318 1.492557 0.865619
v 1.944973 0.953557 0.865619
v 1.944973 1.030557 0.865619
v 1.944973 1.492557 0.865619
v 1.944973 1.477923 0.865619
v 1.944973 0.968888 0.865619
v 1.944973 1.446740 0.865619
v 1.944973 1.377057 0.865619
v 1.952708 1.446740 0.865619
v 1.952708 1.377057 0.865619
v 1.917318 1.381708 0.486615
v 1.917318 1.381708 1.487615
v 1.850178 1.370755 1.420476
v 1.850178 1.370755 0.553755
v 1.917318 1.381708 0.563615
v 1.917318 1.381708 0.948615
v 1.944973 1.381708 0.563615
v 1.944973 1.381708 0.640615
v 1.944973 1.381708 0.871615
v 1.944973 1.381708 0.948615
v 1.944973 1.381708 0.935046
v 1.944973 1.381708 0.579332
v 1.952708 1.381708 0.640615
v 1.952708 1.381708 0.871615
v 1.917318 1.441767 0.486615
v 1.917318 1.441767 1.487615
v 1.850178 1.422757 1.420476
v 1.850178 1.422757 0.553755
v 1.917318 1.441767 0.563615
v 1.917318 1.441767 0.948615
v 1.944973 1.441767 0.563615
v 1.944973 1.441767 0.640615
v 1.944973 1.441767 0.871615
v 1.944973 1.441767 0.948615
v 1.944973 1.441767 0.935046
v 1.944973 1.441767 0.579332
v 1.952708 1.441767 0.640615
v 1.952708 1.441767 0.871615
v 1.944973 1.446740 0.644334
v 1.944973 1.443021 0.640615
v 1.944973 1.446740 0.636896
v 1.944973 1.450459 0.640615
v 1.944973 1.446242 0.642475
v 1.944973 1.444880 0.641114
v 1.944973 1.443021 0.871615
v 1.944973 1.446740 0.867897
v 1.944973 1.450459 0.871615
v 1.944973 1.446740 0.875334
v 1.944973 1.444880 0.871117
v 1.944973 1.446242 0.869756
v 1.944973 1.380775 0.640615
v 1.944973 1.377057 0.644334
v 1.944973 1.373338 0.640615
v 1.944973 1.377057 0.636896
v 1.944973 1.378916 0.641114
v 1.944973 1.377555 0.642475
v 1.944973 1.377057 0.867897
v 1.944973 1.380775 0.871615
v 1.944973 1.377057 0.875334
v 1.944973 1.373338 0.871615
v 1.944973 1.377555 0.869756
v 1.944973 1.378916 0.871117
v 1.952708 1.443021 0.640615
v 1.952708 1.446740 0.644334
v 1.952708 1.444880 0.641114
v 1.952708 1.446242 0.642475
v 1.952708 1.446740 0.867897
v 1.952708 1.443021 0.871615
v 1.952708 1.446242 0.869756
v 1.952708 1.444880 0.871117
v 1.952708 1.377057 0.644334
v 1.952708 1.380775 0.640615
v 1.952708 1.377555 0.642475
v 1.952708 1.378916 0.641114
v 1.952708 1.380775 0.871615
v 1.952708 1.377057 0.867897
v 1.952708 1.378916 0.871117
v 1.952708 1.377555 0.869756
v 1.952708 1.433876 0.723394
v 1.952708 1.433876 0.788789
v 1.952708 1.433876 0.662561
v 1.952708 1.389921 0.662561
v 1.952708 1.389921 0.723394
v 1.952708 1.389921 0.788789
v 1.952708 1.433876 0.849092
v 1.952708 1.389921 0.849092
v 1.949589 1.433876 0.723394
v 1.949589 1.433876 0.788789
v 1.949589 1.433876 0.662561
v 1.949589 1.389921 0.662561
v 1.949589 1.389921 0.723394
v 1.949589 1.389921 0.788789
v 1.949589 1.433876 0.849092
v 1.949589 1.389921 0.849092
vn -0.7071 -0.0000 -0.7071
vn -0.7071 -0.7071 -0.0000
vn -0.7071 -0.0000 0.7071
vn -0.7071 0.7071 -0.0000
vn -0.0000 -0.0000 -1.0000
vn -0.0000 1.0000 -0.0000
vn -0.0000 -0.0000 1.0000
vn -0.0000 -1.0000 -0.0000
vn 1.0000 -0.0000 -0.0000
vn -0.0000 0.9808 -0.1951
vn -0.0000 0.8315 -0.5556
vn -0.0000 0.5556 -0.8315
vn -0.0000 0.1951 -0.9808
vn -0.0000 -0.1889 0.9820
vn -0.0000 -0.5427 0.8399
vn -0.0000 -0.8227 0.5685
vn -0.0000 -0.9795 0.2015
vn -0.0000 0.1889 0.9820
vn -0.0000 0.5427 0.8399
vn -0.0000 0.8227 0.5685
vn -0.0000 0.9795 0.2015
vn -0.0000 -0.1951 -0.9808
vn -0.0000 -0.5556 -0.8315
vn -0.0000 -0.8315 -0.5556
vn -0.0000 -0.9808 -0.1951
vn -1.0000 -0.0000 -0.0000
vn -0.0000 -0.2588 -0.9659
vn -0.0000 -0.7071 -0.7071
vn -0.0000 -0.9659 -0.2589
vn -0.0000 0.9659 0.2588
vn -0.0000 0.7071 0.7071
vn -0.0000 0.2589 0.9659
vn -0.0000 -0.2589 0.9659
vn -0.0000 -0.7071 0.7071
vn -0.0000 -0.9659 0.2589
vn -0.0000 0.9659 -0.2588
vn -0.0000 0.7071 -0.7071
vn -0.0000 0.2588 -0.9659
vt 0.501016 0.010593
vt 0.537095 0.010593
vt 0.505636 0.042052
vt 0.474397 0.042052
vt 0.537095 0.443545
vt 0.537095 0.479625
vt 0.505636 0.448165
vt 0.505636 0.416926
vt 0.104143 0.479625
vt 0.068064 0.479625
vt 0.099523 0.448165
vt 0.130763 0.448165
vt 0.068064 0.046673
vt 0.068064 0.010593
vt 0.099523 0.042052
vt 0.099523 0.073292
vt 0.068064 0.443545
vt 0.099523 0.416926
vt 0.068064 0.407466
vt 0.099523 0.385686
vt 0.068064 0.371387
vt 0.099523 0.354447
vt 0.068064 0.335307
vt 0.099523 0.323208
vt 0.068064 0.299228
vt 0.099523 0.291968
vt 0.068064 0.263148
vt 0.099523 0.260729
vt 0.068064 0.227069
vt 0.099523 0.229489
vt 0.068064 0.220711
vt 0.068064 0.190990
vt 0.099523 0.198250
vt 0.099523 0.223984
vt 0.068064 0.188180
vt 0.068064 0.154911
vt 0.099523 0.167010
vt 0.099523 0.195817
vt 0.068064 0.118831
vt 0.099523 0.135771
vt 0.068064 0.085269
vt 0.068064 0.082752
vt 0.099523 0.104531
vt 0.099523 0.106711
vt 0.068064 0.054037
vt 0.099523 0.079668
vt 0.537095 0.046673
vt 0.505636 0.073292
vt 0.537095 0.054037
vt 0.537095 0.082752
vt 0.505636 0.104531
vt 0.505636 0.079668
vt 0.537095 0.085269
vt 0.537095 0.118831
vt 0.505636 0.135771
vt 0.505636 0.106711
vt 0.537095 0.154911
vt 0.505636 0.167010
vt 0.537095 0.188180
vt 0.537095 0.190990
vt 0.505636 0.198250
vt 0.505636 0.195817
vt 0.537095 0.220711
vt 0.537095 0.227069
vt 0.505636 0.229489
vt 0.505636 0.223984
vt 0.537095 0.263149
vt 0.505636 0.260729
vt 0.537095 0.299228
vt 0.505636 0.291968
vt 0.537095 0.335307
vt 0.505636 0.323208
vt 0.537095 0.371387
vt 0.505636 0.354447
vt 0.537095 0.407466
vt 0.505636 0.385686
vt 0.588361 0.322547
vt 0.588361 0.305639
vt 0.602174 0.305639
vt 0.602174 0.322547
vt 0.553554 0.562232
vt 0.553554 0.531632
vt 0.567368 0.531632
vt 0.567368 0.562232
vt 0.588361 0.292547
vt 0.588361 0.305639
vt 0.574547 0.305639
vt 0.574547 0.292547
vt 0.553554 0.454760
vt 0.553554 0.493222
vt 0.539740 0.493222
vt 0.539740 0.454760
vt 0.553554 0.493184
vt 0.553554 0.454736
vt 0.567368 0.454736
vt 0.567368 0.493184
vt 0.588361 0.528750
vt 0.588361 0.497947
vt 0.602174 0.497947
vt 0.602174 0.528750
vt 0.588361 0.459486
vt 0.588361 0.497947
vt 0.574547 0.497947
vt 0.574547 0.459486
vt 0.553554 0.384615
vt 0.553554 0.416299
vt 0.539740 0.416299
vt 0.539740 0.384615
vt 0.588361 0.459486
vt 0.602174 0.459486
vt 0.588361 0.421024
vt 0.574547 0.421024
vt 0.553554 0.529000
vt 0.553554 0.531683
vt 0.539740 0.531683
vt 0.539740 0.529000
vt 0.588361 0.421024
vt 0.602174 0.421024
vt 0.588361 0.382563
vt 0.574547 0.382563
vt 0.553554 0.528949
vt 0.567368 0.528949
vt 0.588361 0.382562
vt 0.602174 0.382562
vt 0.588361 0.344101
vt 0.574547 0.344101
vt 0.553554 0.419294
vt 0.539740 0.419294
vt 0.588361 0.344101
vt 0.602174 0.344101
vt 0.553554 0.419282
vt 0.553554 0.416288
vt 0.567368 0.416288
vt 0.567368 0.419282
vt 0.588361 0.324870
vt 0.574547 0.324870
vt 0.040195 0.915219
vt 0.040195 0.885457
vt 0.077357 0.885457
vt 0.077357 0.915219
vt 0.040195 0.848295
vt 0.077357 0.848295
vt 0.040195 0.811134
vt 0.077357 0.811134
vt 0.040195 0.773973
vt 0.077357 0.773973
vt 0.040195 0.736811
vt 0.077357 0.736811
vt 0.040195 0.715986
vt 0.040195 0.699650
vt 0.077357 0.699650
vt 0.077357 0.715986
vt 0.501016 0.479625
vt 0.474397 0.448165
vt 0.464937 0.479625
vt 0.443157 0.448165
vt 0.457753 0.479625
vt 0.428857 0.479625
vt 0.411918 0.448165
vt 0.436937 0.448165
vt 0.392778 0.479625
vt 0.380678 0.448165
vt 0.356699 0.479625
vt 0.349439 0.448165
vt 0.320619 0.479625
vt 0.318199 0.448165
vt 0.284540 0.479625
vt 0.286960 0.448165
vt 0.264321 0.479625
vt 0.248461 0.479625
vt 0.255720 0.448165
vt 0.269453 0.448165
vt 0.219238 0.479625
vt 0.212381 0.479625
vt 0.224481 0.448165
vt 0.230418 0.448165
vt 0.176302 0.479625
vt 0.193241 0.448165
vt 0.140223 0.479625
vt 0.162002 0.448165
vt 0.104143 0.010593
vt 0.130763 0.042052
vt 0.140223 0.010593
vt 0.162002 0.042052
vt 0.176302 0.010593
vt 0.193242 0.042052
vt 0.212381 0.010593
vt 0.224481 0.042052
vt 0.236180 0.010593
vt 0.248461 0.010593
vt 0.255720 0.042052
vt 0.245087 0.042052
vt 0.266500 0.010593
vt 0.284540 0.010593
vt 0.286960 0.042052
vt 0.271340 0.042052
vt 0.320619 0.010593
vt 0.318199 0.042052
vt 0.356699 0.010593
vt 0.349439 0.042052
vt 0.392778 0.010593
vt 0.380678 0.042052
vt 0.428857 0.010593
vt 0.411918 0.042052
vt 0.457753 0.010593
vt 0.464937 0.010593
vt 0.443157 0.042052
vt 0.436937 0.042052
vt 0.738681 0.264654
vt 0.738681 0.233850
vt 0.745459 0.233850
vt 0.745459 0.264654
vt 0.738681 0.195389
vt 0.745459 0.195389
vt 0.738681 0.156927
vt 0.745459 0.156927
vt 0.738681 0.118466
vt 0.745459 0.118466
vt 0.738681 0.080004
vt 0.745459 0.080004
vt 0.738681 0.058450
vt 0.738681 0.041543
vt 0.745459 0.041543
vt 0.745459 0.058450
vt 0.704002 0.264654
vt 0.704002 0.233850
vt 0.706997 0.233850
vt 0.706997 0.264654
vt 0.591613 0.080004
vt 0.591613 0.062631
vt 0.593470 0.060774
vt 0.594296 0.060774
vt 0.630074 0.060774
vt 0.630074 0.080004
vt 0.704002 0.010391
vt 0.704002 0.003081
vt 0.706997 0.003081
vt 0.706997 0.010391
vt 0.630074 0.264654
vt 0.630074 0.233850
vt 0.668536 0.233850
vt 0.668536 0.264654
vt 0.630074 0.010391
vt 0.630074 0.003081
vt 0.668536 0.003081
vt 0.668536 0.010391
vt 0.594296 0.264654
vt 0.594296 0.233850
vt 0.594296 0.010391
vt 0.594296 0.003081
vt 0.561001 0.264654
vt 0.561001 0.233850
vt 0.591613 0.233850
vt 0.591613 0.264654
vt 0.561001 0.195389
vt 0.591613 0.195389
vt 0.561001 0.156927
vt 0.591613 0.156927
vt 0.561001 0.118466
vt 0.591613 0.118466
vt 0.561001 0.080004
vt 0.561001 0.058450
vt 0.561001 0.041543
vt 0.591613 0.041543
vt 0.591613 0.058450
vt 0.561001 0.010391
vt 0.561001 0.003081
vt 0.591613 0.003081
vt 0.591613 0.010391
vt 0.738681 0.003081
vt 0.738681 0.010391
vt 0.706997 0.058450
vt 0.706997 0.041543
vt 0.706997 0.118466
vt 0.706997 0.080004
vt 0.706997 0.156927
vt 0.706997 0.195389
vt 0.553554 0.384615
vt 0.567368 0.384615
vt 0.553151 0.058450
vt 0.553151 0.041543
vt 0.553151 0.118466
vt 0.553151 0.080004
vt 0.553151 0.156927
vt 0.553151 0.195389
vt 0.553151 0.233850
vt 0.553151 0.264654
vt 0.553554 0.562295
vt 0.539740 0.562295
vt 0.553151 0.025967
vt 0.553151 0.010391
vt 0.561001 0.025967
vt 0.594296 0.025967
vt 0.630074 0.025967
vt 0.668536 0.025967
vt 0.738681 0.025967
vt 0.745459 0.010391
vt 0.745459 0.025967
vt 0.219238 0.010593
vt 0.230418 0.042052
vt 0.233849 0.479625
vt 0.243069 0.448165
vt 0.040195 0.684601
vt 0.040195 0.669551
vt 0.077357 0.669551
vt 0.077357 0.684601
vt 0.588361 0.290063
vt 0.588361 0.274487
vt 0.602174 0.274487
vt 0.602174 0.290063
vt 0.706997 0.272312
vt 0.738681 0.272312
vt 0.561001 0.272312
vt 0.591613 0.272312
vt 0.594296 0.272312
vt 0.630074 0.272312
vt 0.668536 0.272312
vt 0.704002 0.272312
vt 0.588361 0.528750
vt 0.574547 0.528750
vt 0.084129 0.662489
vt 0.081537 0.663004
vt 0.079340 0.664472
vt 0.077872 0.666669
vt 0.077357 0.669261
vt 0.070585 0.662489
vt 0.077357 0.655717
vt 0.077357 0.915846
vt 0.077872 0.918437
vt 0.079340 0.920634
vt 0.081537 0.922102
vt 0.084129 0.922618
vt 0.077357 0.929390
vt 0.070585 0.922618
vt 0.263163 0.669261
vt 0.262665 0.666669
vt 0.261245 0.664472
vt 0.259120 0.663004
vt 0.256614 0.662489
vt 0.263163 0.655717
vt 0.269935 0.662489
vt 0.256614 0.922618
vt 0.259120 0.922102
vt 0.261245 0.920634
vt 0.262665 0.918437
vt 0.263163 0.915846
vt 0.269935 0.922618
vt 0.263163 0.929390
vt 0.553554 0.563073
vt 0.567368 0.563073
vt 0.567368 0.565769
vt 0.553554 0.565769
vt 0.567368 0.568082
vt 0.553554 0.568082
vt 0.588361 0.269231
vt 0.602174 0.269231
vt 0.602174 0.271505
vt 0.588361 0.271505
vt 0.602174 0.274187
vt 0.588361 0.274187
vt 0.574547 0.529400
vt 0.588361 0.529400
vt 0.588361 0.532082
vt 0.574547 0.532082
vt 0.588361 0.534356
vt 0.574547 0.534356
vt 0.574547 0.548169
vt 0.576746 0.534356
vt 0.576746 0.548169
vt 0.579340 0.534356
vt 0.579340 0.548169
vt 0.588361 0.274187
vt 0.574547 0.274187
vt 0.574547 0.271505
vt 0.588361 0.271505
vt 0.574547 0.269231
vt 0.588361 0.269231
vt 0.579340 0.548169
vt 0.579340 0.534356
vt 0.581498 0.534356
vt 0.581498 0.548169
vt 0.584077 0.534356
vt 0.584077 0.548169
vt 0.588361 0.529400
vt 0.602174 0.529400
vt 0.602174 0.532082
vt 0.588361 0.532082
vt 0.602174 0.534356
vt 0.588361 0.534356
vt 0.553554 0.568092
vt 0.539740 0.568092
vt 0.539740 0.565818
vt 0.553554 0.565818
vt 0.539740 0.563136
vt 0.553554 0.563136
vt 0.040195 0.662489
vt 0.040195 0.922618
vt 0.500000 0.384615
vt 0.588361 0.274487
vt 0.574547 0.274487
vt 0.539740 0.384615
vt 0.553151 0.010090
vt 0.553684 0.007408
vt 0.555204 0.005134
vt 0.557478 0.003615
vt 0.560160 0.003081
vt 0.560160 0.272312
vt 0.557478 0.271778
vt 0.555204 0.270259
vt 0.553684 0.267985
vt 0.553151 0.265303
vt 0.741274 0.003615
vt 0.743473 0.005134
vt 0.744943 0.007408
vt 0.745459 0.010090
vt 0.745459 0.265303
vt 0.744943 0.267985
vt 0.743473 0.270259
vt 0.741274 0.271778
vt 0.588361 0.292547
vt 0.602174 0.292547
vt 0.040195 0.687001
vt 0.077357 0.687001
vt 0.236179 0.479625
vt 0.245087 0.448165
vt 0.738681 0.028451
vt 0.745459 0.028451
vt 0.553151 0.028451
vt 0.561001 0.028451
vt 0.233849 0.010593
vt 0.243069 0.042052
vt 0.588361 0.290063
vt 0.574547 0.290063
vt 0.553151 0.060774
vt 0.561001 0.060774
vt 0.704002 0.060774
vt 0.705140 0.060774
vt 0.706997 0.062631
vt 0.668536 0.080004
vt 0.668536 0.060774
vt 0.738681 0.060774
vt 0.745459 0.060774
vt 0.264321 0.010593
vt 0.269453 0.042052
vt 0.266500 0.479625
vt 0.271340 0.448165
vt 0.040195 0.718231
vt 0.077357 0.718231
vt 0.588361 0.322547
vt 0.574547 0.322547
vt 0.588361 0.324870
vt 0.602174 0.324870
vt 0.571231 0.501058
vt 0.571231 0.514149
vt 0.567367 0.514149
vt 0.567367 0.501058
vt 0.571231 0.422828
vt 0.571231 0.461290
vt 0.567367 0.461290
vt 0.567367 0.422828
vt 0.567368 0.564006
vt 0.567368 0.547099
vt 0.571231 0.547099
vt 0.571231 0.564006
vt 0.602174 0.438364
vt 0.602174 0.399916
vt 0.606038 0.399916
vt 0.606038 0.438364
vt 0.571231 0.387362
vt 0.567367 0.387362
vt 0.602174 0.474130
vt 0.606038 0.474130
vt 0.574547 0.272226
vt 0.574547 0.307692
vt 0.568121 0.310602
vt 0.568121 0.280481
vt 0.571231 0.497068
vt 0.567367 0.497068
vt 0.602174 0.364462
vt 0.606038 0.364462
vt 0.704002 0.025967
vt 0.114518 0.922618
vt 0.117110 0.922618
vt 0.151679 0.922618
vt 0.188841 0.922618
vt 0.223108 0.922618
vt 0.226002 0.922618
vt 0.263163 0.915219
vt 0.263163 0.885457
vt 0.263163 0.848295
vt 0.263163 0.811134
vt 0.263163 0.773973
vt 0.263163 0.736811
vt 0.263163 0.718231
vt 0.263163 0.715986
vt 0.263163 0.699650
vt 0.263163 0.687001
vt 0.263163 0.684601
vt 0.263163 0.669551
vt 0.226002 0.662489
vt 0.223108 0.662489
vt 0.188841 0.662489
vt 0.151679 0.662489
vt 0.117110 0.662489
vt 0.114518 0.662489
vt 0.084942 0.662489
vt 0.040195 0.625327
vt 0.040195 0.588166
vt 0.040195 0.551005
vt 0.040195 0.513844
vt 0.077357 0.513844
vt 0.084942 0.513844
vt 0.114518 0.513844
vt 0.117110 0.513844
vt 0.151679 0.513844
vt 0.188841 0.513844
vt 0.223108 0.513844
vt 0.226002 0.513844
vt 0.256614 0.513844
vt 0.263163 0.513844
vt 0.300324 0.513844
vt 0.337486 0.513844
vt 0.374647 0.513844
vt 0.411808 0.513844
vt 0.448970 0.513844
vt 0.486131 0.513844
vt 0.523292 0.513844
vt 0.523292 0.551005
vt 0.523292 0.588166
vt 0.523292 0.625328
vt 0.523292 0.662489
vt 0.523292 0.669551
vt 0.523292 0.684601
vt 0.523292 0.687001
vt 0.523292 0.699650
vt 0.523292 0.715986
vt 0.523292 0.718231
vt 0.523292 0.736811
vt 0.523292 0.773973
vt 0.523292 0.811134
vt 0.523292 0.848295
vt 0.523292 0.885457
vt 0.523292 0.915219
vt 0.523292 0.922618
vt 0.523292 0.959779
vt 0.523292 0.996941
vt 0.486131 0.996941
vt 0.448970 0.996941
vt 0.411808 0.996940
vt 0.374647 0.996940
vt 0.337486 0.996940
vt 0.300324 0.996940
vt 0.263163 0.996940
vt 0.256614 0.996940
vt 0.226002 0.996940
vt 0.223108 0.996940
vt 0.188841 0.996940
vt 0.151679 0.996940
vt 0.117110 0.996940
vt 0.114518 0.996940
vt 0.084942 0.996940
vt 0.077357 0.996940
vt 0.040195 0.996940
vt 0.040195 0.959779
vt 0.084942 0.922618
vt 0.571231 0.531057
vt 0.567367 0.531057
vt 0.567368 0.534007
vt 0.571231 0.534007
vt 0.706997 0.028451
vt 0.591613 0.028451
vt 0.593470 0.025967
vt 0.592541 0.026216
vt 0.591861 0.026895
vt 0.591613 0.027824
vt 0.589755 0.025967
vt 0.591613 0.024109
vt 0.706997 0.027824
vt 0.706748 0.026895
vt 0.706068 0.026216
vt 0.705140 0.025967
vt 0.706997 0.024109
vt 0.708855 0.025967
vt 0.591613 0.058916
vt 0.591861 0.059845
vt 0.592541 0.060525
vt 0.589755 0.060774
vt 0.706068 0.060525
vt 0.706748 0.059845
vt 0.706997 0.058916
vt 0.708855 0.060774
vt 0.567368 0.564472
vt 0.571231 0.564472
vt 0.571231 0.565401
vt 0.567368 0.565401
vt 0.571231 0.566081
vt 0.567368 0.566081
vt 0.571231 0.498822
vt 0.567367 0.498822
vt 0.567367 0.497894
vt 0.571231 0.497894
vt 0.606038 0.363325
vt 0.602174 0.363325
vt 0.602174 0.362403
vt 0.606038 0.362403
vt 0.567367 0.498822
vt 0.571231 0.498822
vt 0.571231 0.499502
vt 0.567367 0.499502
vt 0.571231 0.500431
vt 0.567367 0.500431
vt 0.567367 0.531523
vt 0.571231 0.531523
vt 0.571231 0.532451
vt 0.567367 0.532451
vt 0.567367 0.384615
vt 0.571231 0.384615
vt 0.571231 0.385295
vt 0.567367 0.385295
vt 0.571231 0.386224
vt 0.567367 0.386224
vt 0.602174 0.474955
vt 0.606038 0.474955
vt 0.606038 0.475890
vt 0.602174 0.475890
vt 0.606038 0.476588
vt 0.602174 0.476588
vt 0.567368 0.532451
vt 0.571231 0.532451
vt 0.571231 0.533380
vt 0.567368 0.533380
vt 0.539740 0.381932
vt 0.574547 0.381932
vt 0.574547 0.382758
vt 0.574298 0.383687
vt 0.573618 0.384367
vt 0.572690 0.384615
vt 0.572224 0.384615
vt 0.555317 0.384615
vt 0.542225 0.384615
vt 0.541598 0.384615
vt 0.540669 0.384367
vt 0.539989 0.383687
vt 0.539740 0.382758
vt 0.555317 0.269231
vt 0.572224 0.269231
vt 0.572690 0.269231
vt 0.573618 0.269480
vt 0.574298 0.270160
vt 0.574547 0.271088
vt 0.539740 0.272226
vt 0.539740 0.271088
vt 0.539989 0.270160
vt 0.540669 0.269480
vt 0.541598 0.269231
vt 0.542225 0.269231
vt 0.571231 0.520778
vt 0.571231 0.498822
vt 0.572788 0.498822
vt 0.572788 0.520778
vt 0.539740 0.346154
vt 0.546166 0.343267
vt 0.546166 0.373653
vt 0.546166 0.280481
vt 0.568121 0.373653
vt 0.574547 0.346154
vt 0.568121 0.343267
vt 0.539740 0.307692
vt 0.546166 0.310602
vt 0.602174 0.269231
vt 0.624130 0.269231
vt 0.624130 0.299352
vt 0.624130 0.332017
vt 0.624130 0.362403
vt 0.602174 0.362403
vt 0.602174 0.332017
vt 0.602174 0.299352
vt 0.574346 0.447380
vt 0.574346 0.477755
vt 0.572789 0.477755
vt 0.572789 0.447380
vt 0.571231 0.447402
vt 0.571231 0.414737
vt 0.572788 0.414737
vt 0.572788 0.447402
vt 0.574346 0.477788
vt 0.574346 0.499743
vt 0.572789 0.499743
vt 0.572789 0.477788
vt 0.571231 0.384615
vt 0.572788 0.384615
vt 0.574346 0.414726
vt 0.572789 0.414726
vt 0.571231 0.477788
vt 0.572788 0.477788
vt 0.574346 0.384615
vt 0.572789 0.384615
s 0
usemtl Brushed_Metal
f 68/1/1 1/2/1 3/3/1 104/4/1
f 9/5/2 4/6/2 6/7/2 21/8/2
f 69/9/3 5/10/3 7/11/3 81/12/3
f 45/13/4 2/14/4 8/15/4 33/16/4
f 5/10/4 56/17/4 44/18/4 7/11/4
f 56/17/4 55/19/4 43/20/4 44/18/4
f 55/19/4 54/21/4 42/22/4 43/20/4
f 54/21/4 53/23/4 41/24/4 42/22/4
f 53/23/4 52/25/4 40/26/4 41/24/4
f 52/25/4 51/27/4 39/28/4 40/26/4
f 51/27/4 50/29/4 38/30/4 39/28/4
f 164/31/4 49/32/4 37/33/4 163/34/4
f 313/35/4 48/36/4 36/37/4 312/38/4
f 48/36/4 47/39/4 35/40/4 36/37/4
f 298/41/4 46/42/4 34/43/4 297/44/4
f 178/45/4 45/13/4 33/16/4 177/46/4
f 1/2/2 20/47/2 32/48/2 3/3/2
f 175/49/2 19/50/2 31/51/2 176/52/2
f 295/53/2 18/54/2 30/55/2 296/56/2
f 18/54/2 17/57/2 29/58/2 30/55/2
f 310/59/2 16/60/2 28/61/2 311/62/2
f 161/63/2 15/64/2 27/65/2 162/66/2
f 15/64/2 14/67/2 26/68/2 27/65/2
f 14/67/2 13/69/2 25/70/2 26/68/2
f 13/69/2 12/71/2 24/72/2 25/70/2
f 12/71/2 11/73/2 23/74/2 24/72/2
f 11/73/2 10/75/2 22/76/2 23/74/2
f 10/75/2 9/5/2 21/8/2 22/76/2
f 203/137/9 66/138/9 110/139/9 207/140/9
f 66/138/9 65/141/9 109/142/9 110/139/9
f 65/141/9 64/143/9 108/144/9 109/142/9
f 64/143/9 63/145/9 107/146/9 108/144/9
f 63/145/9 62/147/9 106/148/9 107/146/9
f 325/149/9 61/150/9 105/151/9 329/152/9
f 4/6/3 80/153/3 92/154/3 6/7/3
f 80/153/3 79/155/3 91/156/3 92/154/3
f 204/157/3 78/158/3 90/159/3 205/160/3
f 78/158/3 77/161/3 89/162/3 90/159/3
f 77/161/3 76/163/3 88/164/3 89/162/3
f 76/163/3 75/165/3 87/166/3 88/164/3
f 75/165/3 74/167/3 86/168/3 87/166/3
f 326/169/3 73/170/3 85/171/3 327/172/3
f 190/173/3 72/174/3 84/175/3 191/176/3
f 72/174/3 71/177/3 83/178/3 84/175/3
f 71/177/3 70/179/3 82/180/3 83/178/3
f 70/179/3 69/9/3 81/12/3 82/180/3
f 2/14/1 57/181/1 93/182/1 8/15/1
f 57/181/1 58/183/1 94/184/1 93/182/1
f 58/183/1 59/185/1 95/186/1 94/184/1
f 59/185/1 60/187/1 96/188/1 95/186/1
f 339/189/1 61/190/1 97/191/1 342/192/1
f 277/193/1 62/194/1 98/195/1 280/196/1
f 62/194/1 63/197/1 99/198/1 98/195/1
f 63/197/1 64/199/1 100/200/1 99/198/1
f 64/199/1 65/201/1 101/202/1 100/200/1
f 65/201/1 66/203/1 102/204/1 101/202/1
f 203/205/1 67/206/1 103/207/1 206/208/1
f 67/206/1 68/1/1 104/4/1 103/207/1
f 16/60/2 161/63/2 162/66/2 28/61/2
f 50/29/4 164/31/4 163/34/4 38/30/4
f 20/47/2 175/49/2 176/52/2 32/48/2
f 46/42/4 178/45/4 177/46/4 34/43/4
f 60/187/1 189/299/1 192/300/1 96/188/1
f 266/301/3 190/173/3 191/176/3 267/302/3
f 265/303/9 189/304/9 193/305/9 269/306/9
f 66/203/1 203/205/1 206/208/1 102/204/1
f 79/155/3 204/157/3 205/160/3 91/156/3
f 217/321/9 221/322/9 222/323/9 223/324/9 218/325/9 219/326/9 220/327/9
f 224/328/9 228/329/9 229/330/9 230/331/9 225/332/9 226/333/9 227/334/9
f 231/335/9 235/336/9 236/337/9 237/338/9 232/339/9 233/340/9 234/341/9
f 238/342/9 242/343/9 243/344/9 244/345/9 239/346/9 240/347/9 241/348/9
f 189/304/9 60/396/9 219/326/9 218/325/9 193/305/9
f 67/397/9 203/137/9 207/140/9 224/328/9 227/334/9
f 339/422/9 265/303/9 269/306/9 343/423/9
f 340/424/3 266/301/3 267/302/3 341/425/3
f 189/299/1 265/430/1 268/431/1 192/300/1
f 325/443/1 277/193/1 280/196/1 328/444/1
f 74/167/3 278/445/3 279/446/3 86/168/3
f 62/147/9 277/447/9 281/448/9 106/148/9
f 342/192/26 97/191/26 328/444/26 280/196/26 98/195/26 99/198/26 100/200/26 101/202/26 102/204/26 206/208/26 103/207/26 104/4/26 3/3/26 32/48/26 176/52/26 31/51/26 296/56/26 30/55/26 29/58/26 311/62/26 28/61/26 162/66/26 27/65/26 26/68/26 25/70/26 24/72/26 23/74/26 22/76/26 21/8/26 6/7/26 92/154/26 91/156/26 205/160/26 90/159/26 89/162/26 88/164/26 87/166/26 86/168/26 279/446/26 327/172/26 85/171/26 341/425/26 267/302/26 191/176/26 84/175/26 83/178/26 82/180/26 81/12/26 7/11/26 44/18/26 43/20/26 42/22/26 41/24/26 40/26/26 39/28/26 38/30/26 163/34/26 37/33/26 312/38/26 36/37/26 35/40/26 297/44/26 34/43/26 177/46/26 33/16/26 8/15/26 93/182/26 94/184/26 95/186/26 96/188/26 192/300/26 268/431/26
f 19/50/2 295/53/2 296/56/2 31/51/2
f 47/39/4 298/41/4 297/44/4 35/40/4
f 112/482/9 299/483/9 114/484/9 116/485/9 314/486/9 118/487/9 165/342/9 238/342/9 241/348/9 240/347/9 239/346/9 208/488/9 124/489/9 123/490/9 122/491/9 121/492/9 120/493/9 282/494/9 330/495/9 119/496/9 344/497/9 270/498/9 194/499/9 231/335/9 234/341/9 233/340/9 232/339/9 166/339/9 117/500/9 315/501/9 115/502/9 113/503/9 300/504/9 111/505/9 180/506/9 217/321/9 220/327/9 219/326/9 60/396/9 59/507/9 58/508/9 57/509/9 2/510/9 45/511/9 178/512/9 46/513/9 298/514/9 47/515/9 48/516/9 313/517/9 49/518/9 164/519/9 50/520/9 51/521/9 52/522/9 53/523/9 54/524/9 55/525/9 56/526/9 5/527/9 69/528/9 70/529/9 71/530/9 72/531/9 190/532/9 266/533/9 340/534/9 73/535/9 326/536/9 278/537/9 74/538/9 75/539/9 76/540/9 77/541/9 78/542/9 204/543/9 79/544/9 80/545/9 4/546/9 9/547/9 10/548/9 11/549/9 12/550/9 13/551/9 14/552/9 15/553/9 161/554/9 16/555/9 310/556/9 17/557/9 18/558/9 295/559/9 19/560/9 175/561/9 20/562/9 1/563/9 68/564/9 67/397/9 227/334/9 226/333/9 225/332/9 179/565/9
f 17/57/2 310/59/2 311/62/2 29/58/2
f 49/32/4 313/35/4 312/38/4 37/33/4
f 61/190/1 325/443/1 328/444/1 97/191/1
f 278/445/3 326/169/3 327/172/3 279/446/3
f 277/447/9 325/149/9 329/152/9 281/448/9
f 73/170/3 340/424/3 341/425/3 85/171/3
f 61/150/9 339/422/9 343/423/9 105/151/9
f 265/430/1 339/189/1 342/192/1 268/431/1
usemtl Pad.002
f 329/77/5 105/78/5 125/79/5 331/80/5
f 180/81/6 111/82/6 131/83/6 188/84/6
f 344/85/7 119/86/7 155/87/7 348/88/7
f 116/89/8 114/90/8 142/91/8 146/92/8
f 113/93/6 115/94/6 143/95/6 139/96/6
f 207/97/5 110/98/5 130/99/5 209/100/5
f 123/101/7 124/102/7 160/103/7 159/104/7
f 165/105/8 118/106/8 154/107/8 167/108/8
f 110/98/5 109/109/5 129/110/5 130/99/5
f 122/111/7 123/101/7 159/104/7 158/112/7
f 299/113/8 112/114/8 138/115/8 301/116/8
f 109/109/5 108/117/5 128/118/5 129/110/5
f 121/119/7 122/111/7 158/112/7 157/120/7
f 300/121/6 113/93/6 139/96/6 303/122/6
f 108/117/5 107/123/5 127/124/5 128/118/5
f 120/125/7 121/119/7 157/120/7 156/126/7
f 314/127/8 116/89/8 146/92/8 316/128/8
f 107/123/5 106/129/5 126/130/5 127/124/5
f 315/131/6 117/132/6 147/133/6 318/134/6
f 282/135/7 120/125/7 156/126/7 286/136/7
f 215/209/9 168/210/9 160/211/9 214/212/9
f 168/210/9 169/213/9 159/214/9 160/211/9
f 169/213/9 170/215/9 158/216/9 159/214/9
f 170/215/9 171/217/9 157/218/9 158/216/9
f 171/217/9 172/219/9 156/220/9 157/218/9
f 335/221/9 173/222/9 155/223/9 334/224/9
f 320/225/9 317/226/9 153/227/9 213/228/9
f 133/229/9 367/230/9 366/231/9 307/232/9 284/233/9 140/234/9
f 319/235/9 318/236/9 147/237/9 199/238/9
f 211/239/9 141/240/9 145/241/9 212/242/9
f 197/243/9 139/244/9 143/245/9 198/246/9
f 305/247/9 302/248/9 141/240/9 211/239/9
f 304/249/9 303/250/9 139/244/9 197/243/9
f 216/251/9 182/252/9 137/253/9 210/254/9
f 182/252/9 183/255/9 136/256/9 137/253/9
f 183/255/9 184/257/9 135/258/9 136/256/9
f 184/257/9 185/259/9 134/260/9 135/258/9
f 185/259/9 186/261/9 133/229/9 134/260/9
f 336/262/9 187/263/9 132/264/9 332/265/9
f 202/266/9 188/267/9 131/268/9 196/269/9
f 199/238/9 147/237/9 174/270/9 201/271/9
f 333/272/9 148/273/9 173/222/9 335/221/9
f 150/274/9 149/275/9 172/219/9 171/217/9
f 151/276/9 150/274/9 171/217/9 170/215/9
f 152/277/9 151/276/9 170/215/9 169/213/9
f 153/227/9 152/277/9 169/213/9 168/210/9
f 213/228/9 153/227/9 168/210/9 215/209/9
f 117/132/6 166/278/6 174/279/6 147/133/6
f 331/280/9 125/281/9 187/263/9 336/262/9
f 127/282/9 126/283/9 186/261/9 185/259/9
f 128/284/9 127/282/9 185/259/9 184/257/9
f 129/285/9 128/284/9 184/257/9 183/255/9
f 130/286/9 129/285/9 183/255/9 182/252/9
f 209/287/9 130/286/9 182/252/9 216/251/9
f 112/114/8 179/288/8 181/289/8 138/115/8
f 271/290/9 195/291/9 202/266/9 276/292/9
f 306/293/9 304/249/9 197/243/9 272/294/9
f 272/294/9 197/243/9 198/246/9 273/295/9
f 275/296/9 201/271/9 200/297/9 274/298/9
f 269/307/5 193/308/5 195/309/5 271/310/5
f 154/311/9 213/228/9 215/209/9 167/312/9
f 181/313/9 216/251/9 210/254/9 138/314/9
f 301/315/9 305/247/9 211/239/9 142/316/9
f 142/316/9 211/239/9 212/242/9 146/317/9
f 316/318/9 320/225/9 213/228/9 154/311/9
f 124/102/7 208/319/7 214/320/7 160/103/7
f 217/349/10 246/350/10 249/351/10 221/352/10
f 221/352/11 249/351/11 248/353/11 222/354/11
f 222/355/12 248/356/12 247/357/12 223/358/12
f 223/358/13 247/357/13 245/359/13 218/360/13
f 260/361/14 239/362/14 244/363/14 262/364/14
f 262/364/15 244/363/15 243/365/15 263/366/15
f 263/367/16 243/366/16 242/368/16 264/369/16
f 264/369/17 242/368/17 238/370/17 261/371/17
f 231/372/18 256/373/18 259/374/18 235/375/18
f 235/375/19 259/374/19 258/376/19 236/377/19
f 236/378/20 258/379/20 257/380/20 237/381/20
f 237/381/21 257/380/21 255/382/21 232/383/21
f 224/384/22 251/385/22 254/386/22 228/387/22
f 228/387/23 254/386/23 253/388/23 229/389/23
f 229/390/24 253/391/24 252/392/24 230/393/24
f 230/393/25 252/392/25 250/394/25 225/395/25
f 193/308/5 218/360/5 245/359/5 195/309/5
f 217/349/6 180/81/6 188/84/6 246/350/6
f 224/384/5 207/97/5 209/100/5 251/385/5
f 179/288/8 225/395/8 250/394/8 181/289/8
f 166/398/6 232/398/6 255/398/6 174/398/6
f 231/372/7 194/399/7 200/400/7 256/373/7
f 238/401/6 165/401/6 167/401/6 261/401/6
f 208/319/7 239/362/7 260/361/7 214/320/7
f 195/291/9 245/402/9 247/403/9 248/404/9 249/405/9 246/406/9 188/267/9 202/266/9
f 250/407/9 252/408/9 253/409/9 254/410/9 251/411/9 209/287/9 216/251/9 181/313/9
f 201/271/9 174/270/9 255/270/9 257/412/9 258/413/9 259/414/9 256/415/9 200/297/9
f 167/312/9 215/209/9 214/212/9 260/416/9 262/417/9 263/418/9 264/419/9 261/312/9
f 343/420/5 269/307/5 271/310/5 345/421/5
f 349/426/9 275/296/9 274/298/9 348/427/9
f 345/428/9 271/290/9 276/292/9 350/429/9
f 194/399/7 270/432/7 274/433/7 200/400/7
f 126/283/9 283/434/9 288/435/9 186/261/9
f 322/436/9 371/437/9 374/438/9 149/275/9 144/439/9 285/440/9
f 140/234/9 284/233/9 285/440/9 144/439/9
f 172/219/9 287/441/9 286/442/9 156/220/9
f 330/449/7 282/135/7 286/136/7 334/450/7
f 106/129/5 281/451/5 283/452/5 126/130/5
f 347/453/7 148/454/7 290/455/7 352/456/7
f 285/457/8 284/458/8 293/459/8 294/460/8
f 332/461/5 132/462/5 289/463/5 337/464/5
f 272/465/6 273/466/6 291/467/6 292/468/6
f 322/469/8 285/457/8 294/460/8 324/470/8
f 306/471/6 272/465/6 292/468/6 308/472/6
f 324/473/9 294/474/9 398/475/9 400/476/9
f 284/458/8 307/477/8 309/478/8 293/459/8
f 138/314/9 210/254/9 305/247/9 301/315/9
f 196/269/9 131/268/9 303/250/9 304/249/9
f 210/254/9 137/253/9 302/248/9 305/247/9
f 111/82/6 300/121/6 303/122/6 131/83/6
f 114/90/8 299/113/8 301/116/8 142/91/8
f 273/466/6 321/479/6 323/480/6 291/467/6
f 146/317/9 212/242/9 320/225/9 316/318/9
f 273/295/9 198/246/9 319/235/9 321/481/9
f 198/246/9 143/245/9 318/236/9 319/235/9
f 212/242/9 145/241/9 317/226/9 320/225/9
f 115/94/6 315/131/6 318/134/6 143/95/6
f 118/106/8 314/127/8 316/128/8 154/107/8
f 148/454/7 333/566/7 338/567/7 290/455/7
f 119/86/7 330/449/7 334/450/7 155/87/7
f 283/434/9 331/280/9 336/262/9 288/435/9
f 287/441/9 335/221/9 334/224/9 286/442/9
f 281/451/5 329/77/5 331/80/5 283/452/5
f 132/462/5 346/568/5 351/569/5 289/463/5
f 125/281/9 345/428/9 350/429/9 187/263/9
f 148/273/9 347/570/9 349/426/9 173/222/9
f 187/263/9 350/429/9 346/571/9 132/264/9
f 173/222/9 349/426/9 348/427/9 155/223/9
f 105/78/5 343/420/5 345/421/5 125/79/5
f 270/432/7 344/85/7 348/88/7 274/433/7
f 353/572/9 357/573/9 358/574/9 354/575/9 355/576/9 356/577/9
f 359/578/9 363/579/9 364/580/9 360/581/9 361/582/9 362/583/9
f 365/584/9 369/585/9 370/586/9 366/231/9 367/230/9 368/587/9
f 371/437/9 375/588/9 376/589/9 372/590/9 373/591/9 374/438/9
f 365/592/27 386/593/27 388/594/27 369/595/27
f 369/595/28 388/594/28 387/596/28 370/597/28
f 370/598/29 387/599/29 385/600/29 366/601/29
f 381/602/30 360/603/30 364/604/30 383/605/30
f 383/606/31 364/607/31 363/608/31 384/609/31
f 384/609/32 363/608/32 359/610/32 382/611/32
f 389/612/33 372/613/33 376/614/33 391/615/33
f 391/616/34 376/617/34 375/618/34 392/619/34
f 392/619/35 375/618/35 371/620/35 390/621/35
f 353/622/36 378/623/36 380/624/36 357/625/36
f 357/625/37 380/624/37 379/626/37 358/627/37
f 358/628/38 379/629/38 377/630/38 354/631/38
f 353/572/9 356/577/9 196/269/9 304/249/9 306/293/9
f 276/292/9 202/266/9 196/269/9 356/577/9 355/576/9
f 346/568/5 354/631/5 377/630/5 351/569/5
f 353/622/6 306/471/6 308/472/6 378/623/6
f 350/429/9 276/292/9 355/576/9 354/575/9 346/571/9
f 321/481/9 319/235/9 199/238/9 361/582/9 360/581/9
f 347/570/9 359/578/9 362/583/9 275/296/9 349/426/9
f 321/479/6 360/603/6 381/602/6 323/480/6
f 359/610/7 347/453/7 352/456/7 382/611/7
f 362/583/9 361/582/9 199/238/9 201/271/9 275/296/9
f 186/261/9 288/435/9 368/587/9 367/230/9 133/229/9
f 365/592/5 332/461/5 337/464/5 386/593/5
f 288/435/9 336/262/9 332/265/9 365/584/9 368/587/9
f 307/477/8 366/601/8 385/600/8 309/478/8
f 373/591/9 372/590/9 333/272/9 335/221/9 287/441/9
f 149/275/9 374/438/9 373/591/9 287/441/9 172/219/9
f 371/620/8 322/469/8 324/470/8 390/621/8
f 333/566/7 372/613/7 389/612/7 338/567/7
f 308/632/9 309/633/9 385/634/9 387/635/9 388/636/9 386/637/9 337/638/9 289/639/9 351/640/9 377/641/9 379/642/9 380/643/9 378/644/9
f 290/645/9 338/646/9 389/647/9 391/648/9 392/649/9 390/650/9 324/473/9 323/651/9 381/652/9 383/653/9 384/654/9 382/655/9 352/656/9
f 396/657/7 395/658/7 403/659/7 404/660/7
f 308/632/9 292/661/9 393/662/9 395/663/9
f 323/651/9 324/473/9 400/476/9 399/664/9
f 309/633/9 308/632/9 395/663/9 396/665/9
f 293/666/9 309/633/9 396/665/9 397/667/9
f 291/668/9 323/651/9 399/664/9 394/669/9
f 292/661/9 291/668/9 394/669/9 393/662/9
f 294/474/9 293/666/9 397/667/9 398/475/9
f 397/678/6 396/679/6 404/680/6 405/681/6
f 393/682/8 394/683/8 402/684/8 401/685/8
f 399/686/5 400/687/5 408/688/5 407/689/5
f 394/683/8 399/690/8 407/691/8 402/684/8
f 398/692/6 397/678/6 405/681/6 406/693/6
f 395/694/8 393/682/8 401/685/8 403/695/8
f 400/696/6 398/692/6 406/693/6 408/697/6
f 133/229/9 140/234/9 144/439/9 149/275/9 150/274/9 151/276/9 152/277/9 153/227/9 317/226/9 145/241/9 141/240/9 302/248/9 137/253/9 136/256/9 135/258/9 134/260/9
usemtl Led.002
f 407/670/9 408/671/9 406/672/9 405/673/9 404/674/9 403/675/9 401/676/9 402/677/9
